<svg width="48" height="48" viewBox="0 0 48 48" fill="none" xmlns="http://www.w3.org/2000/svg">
<path d="M7.5 3.09414C4.55625 3.38477 2.01562 5.19415 0.75 7.90352C0.01875 9.46914 0 9.60977 0 15.2535C0 19.266 0.028125 20.3629 0.140625 20.8879C0.5625 22.8941 1.67813 24.6566 3.3 25.8848L4.07812 26.466L4.125 28.8191C4.18125 31.4254 4.19063 31.5004 4.80938 31.8754C5.25 32.1473 5.78438 32.1191 6.29063 31.791C6.51563 31.641 7.58438 30.6285 8.67188 29.541L10.6406 27.5629H11.175H11.7188V29.8035C11.7188 32.166 11.8219 33.0473 12.2063 34.116C12.4219 34.7254 12.6656 34.9691 13.05 34.9691C13.425 34.9691 13.6406 34.8379 13.7719 34.5285C13.8656 34.3035 13.8469 34.1441 13.6406 33.5254C13.5094 33.1316 13.3594 32.5129 13.3125 32.1754C13.1813 31.2848 13.1906 23.4098 13.3219 22.566C13.5656 21.0285 14.1938 19.8191 15.375 18.6379C16.0594 17.9629 16.3313 17.766 17.0719 17.4098C18.6656 16.641 17.8594 16.6879 29.8781 16.6879C40.2 16.6879 40.5844 16.6973 41.2875 16.8754C43.2938 17.391 44.8781 18.6848 45.7969 20.5785C46.5 22.041 46.5094 22.1535 46.4813 27.7035L46.4531 32.5785L46.2 33.3285C45.7125 34.7535 44.8406 35.9254 43.5188 36.9191C42.3563 37.8004 42.4219 37.566 42.3938 40.566L42.3656 43.1535L39.9 40.7066C38.55 39.3566 37.425 38.241 37.4062 38.2316C37.3781 38.2223 33.225 38.1848 28.1719 38.1566C19.7063 38.1004 18.9375 38.091 18.4219 37.9316C17.5219 37.6691 16.5938 37.2004 15.8906 36.6566C15.4031 36.2816 15.1594 36.1504 14.9344 36.1504C14.5031 36.1504 14.2125 36.4598 14.2125 36.9004C14.2125 37.2004 14.2781 37.3129 14.6625 37.6598C15.2438 38.1848 16.2094 38.7566 17.1 39.1035C18.5156 39.6566 18.6 39.6566 28.0688 39.6566H36.7031L39.1875 42.1504C40.5563 43.5191 41.775 44.691 41.9062 44.766C42.4406 45.0473 43.05 44.9723 43.4813 44.5879L43.8281 44.2691L43.8563 41.4004L43.8844 38.5316L44.4563 38.1473C45.7313 37.2754 46.8844 35.8316 47.4375 34.4066C47.9906 32.9629 48 32.8035 48 27.3473C48 22.6785 47.9906 22.3129 47.8125 21.5723C46.9969 18.1785 44.0813 15.5816 40.6313 15.1879C40.1719 15.141 38.9906 15.0941 37.9969 15.0941H36.2063L36.1688 12.5348C36.1313 10.0973 36.1125 9.94727 35.8781 9.15977C35.7375 8.70977 35.475 8.03477 35.2875 7.65977C34.8563 6.80664 34.0688 5.74726 33.7219 5.55976C33.3844 5.39102 32.9531 5.47539 32.7656 5.74726C32.5031 6.13164 32.5875 6.48789 33.1125 7.13477C33.375 7.46289 33.75 8.07227 33.9469 8.48477C34.5656 9.76914 34.6125 10.0879 34.6594 12.7223L34.7063 15.0848L26.7938 15.1223C18.9656 15.1504 18.8813 15.1504 18.0938 15.3566C15.4781 16.0504 13.2844 17.9535 12.3281 20.3629C11.8594 21.5723 11.7938 21.9754 11.7469 24.066L11.7 26.0629H10.9781C10.4813 26.0629 10.1531 26.1191 9.89062 26.241C9.65625 26.3535 8.80313 27.1316 7.64063 28.3035L5.76562 30.1879L5.71875 28.1535C5.6625 25.6691 5.65313 25.641 4.60313 24.9004C3.27188 23.9723 2.38125 22.8098 1.8375 21.3098L1.54688 20.4848L1.51875 15.6098C1.49063 10.1348 1.5 9.96602 2.14688 8.57852C2.83125 7.12539 3.83438 6.08477 5.25 5.35352C6.74063 4.58477 5.71875 4.64102 18.0938 4.64102H29.1094L29.8969 4.89414C30.5719 5.11914 30.7125 5.13789 30.9281 5.03477C31.4156 4.80039 31.5375 4.17227 31.1719 3.80664C30.9188 3.55352 29.5781 3.19727 28.5281 3.09414C27.3656 2.98164 8.61563 2.98164 7.5 3.09414Z" fill="#0F172A"/>
<path d="M6.59998 11.4375C6.33748 11.5406 6.0281 11.9438 5.9531 12.2719C5.83123 12.8438 6.43123 13.5938 7.01248 13.5938C7.38748 13.5938 7.85623 13.3313 8.00623 13.0406C8.51248 12.0656 7.6031 11.025 6.59998 11.4375Z" fill="#0F172A"/>
<path d="M9.73123 11.4857C8.98123 11.9076 9.0281 13.1451 9.79685 13.4638C10.2375 13.642 10.4906 13.6326 10.8562 13.4076C11.7656 12.8451 11.4562 11.4763 10.3875 11.3826C10.1344 11.3545 9.8906 11.392 9.73123 11.4857Z" fill="#0F172A"/>
<path d="M12.9656 11.4945C12.7969 11.5789 12.6 11.7851 12.5156 11.9726C12.0563 12.9289 13.0406 13.9133 13.9969 13.4539C14.8125 13.0695 14.8219 11.8133 14.0156 11.4758C13.6031 11.307 13.3406 11.3164 12.9656 11.4945Z" fill="#0F172A"/>
<path d="M22.8281 18.6933C20.2688 19.1808 18.2906 21.084 17.625 23.6808C17.55 23.9902 17.4656 24.0933 17.2313 24.1965C16.7625 24.3933 16.3031 24.8433 16.0688 25.359C15.8625 25.7996 15.8438 25.9402 15.8438 27.5996C15.8438 28.6965 15.8906 29.5121 15.9563 29.7371C16.1063 30.2433 16.7813 30.9746 17.2688 31.1715C17.8219 31.3965 18.7031 31.3871 19.2281 31.1527C19.7344 30.9277 20.2688 30.3558 20.475 29.7933C20.6156 29.4371 20.6344 29.0902 20.6063 27.4965L20.5781 25.6215L20.2969 25.1621C20.1281 24.8902 19.8281 24.5902 19.575 24.4215C19.1719 24.1683 19.1344 24.1121 19.1813 23.859C19.2938 23.2777 19.9031 22.209 20.4375 21.6558C22.575 19.4902 26.0063 19.659 27.9656 22.0308C28.3594 22.4996 28.8469 23.4277 28.9219 23.859C28.9688 24.1121 28.9406 24.159 28.6031 24.3558C28.1719 24.5902 27.7219 25.1996 27.5719 25.734C27.5156 25.9402 27.4688 26.8308 27.4688 27.7215C27.4688 29.709 27.5906 30.1308 28.3313 30.7871C28.8563 31.2465 28.8563 31.3027 28.2844 31.8558L27.9563 32.1746L27.525 31.8371C26.4656 31.0308 24.9844 31.0402 24.075 31.8558C22.5375 33.234 23.6156 35.3902 25.8281 35.3808C26.2781 35.3715 26.6156 35.3152 26.9156 35.184C27.4031 34.9683 28.0125 34.3871 28.0875 34.059C28.125 33.9183 28.3781 33.684 28.7719 33.4308C29.4563 32.9902 29.8406 32.559 30.225 31.809C30.4125 31.4246 30.5531 31.284 30.8719 31.1433C31.3688 30.9277 31.8469 30.4496 32.0719 29.9527C32.2219 29.634 32.25 29.3152 32.25 27.7027C32.25 25.9308 32.2313 25.7996 32.025 25.359C31.7906 24.8433 31.3313 24.3933 30.8625 24.1965C30.6656 24.1121 30.5438 23.9902 30.5063 23.8215C30.225 22.5183 29.6344 21.4496 28.65 20.484C27.8156 19.659 26.7938 19.059 25.7344 18.7965C24.9281 18.5902 23.6063 18.5433 22.8281 18.6933ZM18.7688 25.7715L19.0781 26.0433L19.1063 27.5152C19.1438 29.0808 19.0781 29.4183 18.7125 29.6715C18.4875 29.8308 18.0656 29.8496 17.8031 29.7183C17.4188 29.5121 17.3438 29.1558 17.3438 27.5996V26.1371L17.6625 25.8183C18.0563 25.4246 18.3656 25.4058 18.7688 25.7715ZM30.2719 25.6308C30.6844 25.8465 30.75 26.1183 30.75 27.759V29.2683L30.4781 29.5402C29.9531 30.0558 29.1563 29.784 29.0156 29.034C28.9781 28.8465 28.9688 28.1058 28.9875 27.3746L29.0156 26.0433L29.325 25.7715C29.6625 25.4715 29.8875 25.434 30.2719 25.6308ZM26.4188 32.9621C26.7563 33.1871 26.7844 33.3746 26.4938 33.6277C26.1938 33.8808 25.6313 33.9183 25.2281 33.7027C24.8906 33.534 24.825 33.3558 24.9938 33.1027C25.2563 32.7277 25.95 32.6621 26.4188 32.9621Z" fill="#0F172A"/>
<path d="M33.6188 21.3844C33.3188 21.6281 33.2813 22.1719 33.5531 22.5094L33.7313 22.7344H36.9375H40.1438L40.3688 22.4719C40.6688 22.1156 40.6594 21.7969 40.3219 21.4594L40.05 21.1875H36.9563C33.975 21.1875 33.8625 21.1969 33.6188 21.3844Z" fill="#0F172A"/>
<path d="M33.5625 24.6562C33.2719 24.9469 33.3094 25.5281 33.6188 25.7719C33.8531 25.9594 33.9844 25.9688 36.2438 25.9688C38.7563 25.9688 38.9906 25.9312 39.1781 25.5281C39.3281 25.2 39.3094 24.9937 39.0844 24.7125L38.8969 24.4688H36.3188C33.8719 24.4688 33.7406 24.4781 33.5625 24.6562Z" fill="#0F172A"/>
</svg>
