<svg width="48" height="48" viewBox="0 0 48 48" fill="none" xmlns="http://www.w3.org/2000/svg">
<path d="M6.14063 2.44687C5.45625 2.55937 4.90313 2.78437 4.19063 3.2625C1.93125 4.74375 1.30313 8.04375 2.86875 10.2469C3.25313 10.7812 20.3063 29.2312 20.8125 29.6531C21.3188 30.0844 21.75 30.1312 22.6594 29.8594C23.1188 29.7187 25.4719 31.2187 26.8313 32.5219C28.3875 34.0125 29.2031 35.25 29.8875 37.1719C30.3281 38.4094 30.8906 39.5437 31.5281 40.5C32.1 41.3438 33.4969 42.7781 34.2563 43.275L34.8 43.6312L34.3406 43.7344C33.7688 43.8656 33.6938 43.9125 33.5063 44.2687C33.3188 44.6344 33.3938 45.0844 33.7125 45.3844C33.9469 45.6 34.0031 45.6094 35.2687 45.6094H36.5812L36.8438 45.3187C36.9844 45.1594 37.1156 44.9719 37.1437 44.9062C37.1719 44.8219 37.3969 44.8594 38.0063 45.0375C39.2812 45.4031 40.65 45.5719 42.3281 45.5719C43.8469 45.5719 45.0187 45.4594 45.4969 45.2719C45.7875 45.15 46.0312 44.7562 46.0312 44.4187C46.0312 44.2969 45.9469 44.0719 45.8531 43.9219C45.75 43.7625 41.7469 39.4031 36.9375 34.2281C30.6094 27.4125 28.2281 24.7781 28.2656 24.6656C28.6125 23.775 28.5281 23.2125 27.9563 22.5656C26.7 21.1594 10.7719 4.00312 10.425 3.675C9.84375 3.14062 8.64375 2.55937 7.875 2.4375C7.18125 2.33437 6.80625 2.33437 6.14063 2.44687ZM8.29688 4.58437C8.69063 4.77187 9.09375 5.09062 9.61875 5.63437C11.1844 7.24687 19.0406 15.7781 19.0125 15.8344C18.9563 15.9656 17.4938 17.25 17.4281 17.2312C17.3906 17.2125 15.7969 15.5812 13.875 13.5938C11.9625 11.6062 9.95625 9.55312 9.43125 9.01875C8.49375 8.08125 8.45625 8.0625 8.03438 8.0625C7.67813 8.0625 7.575 8.10938 7.36875 8.35312C7.19063 8.55937 7.125 8.74687 7.125 9.00937C7.125 9.43125 6.72188 8.99062 13.3406 15.8437L16.0125 18.6L15.3938 19.1719C14.4281 20.0625 14.4469 20.0531 14.1656 19.7156C14.0344 19.5656 11.8594 17.2031 9.32813 14.4844C6.80625 11.7656 4.62188 9.375 4.47188 9.1875C4.10625 8.68125 3.9375 8.12812 3.9375 7.40625C3.9375 6.66562 4.05 6.30937 4.47188 5.6625C5.04375 4.79062 5.925 4.32187 7.03125 4.32187C7.62188 4.3125 7.82813 4.35938 8.29688 4.58437ZM22.3781 19.4156C22.3688 19.4437 21.3375 20.4 20.0813 21.5437L17.8031 23.6156L17.1656 22.9406C16.8188 22.5656 16.3688 22.0781 16.1531 21.8531L15.7781 21.4406L18.0844 19.3406L20.3906 17.2406L21.3938 18.3C21.9469 18.8812 22.3875 19.3875 22.3781 19.4156ZM24.8906 22.0969C25.5094 22.7625 26.1 23.4 26.2219 23.5406L26.4375 23.775L24.15 25.8937L21.8625 28.0219L20.5125 26.5594C19.7813 25.7625 19.1625 25.0781 19.1531 25.0406C19.1344 24.975 23.625 20.9062 23.7188 20.9062C23.7563 20.9062 24.2813 21.4406 24.8906 22.0969ZM42.8719 43.725C42.6844 43.8281 40.8 43.7156 39.7875 43.5469C36.4031 42.9562 33.8625 41.0906 32.3625 38.1C32.1563 37.6875 31.8281 36.9 31.6406 36.3656C30.5719 33.2812 28.3219 30.6844 25.0875 28.8L24.3469 28.3687L25.5563 27.2344L26.7563 26.1L34.8844 34.8656C41.4094 41.9062 42.9844 43.6594 42.8719 43.725Z" fill="#0F172A"/>
<path d="M2.6625 43.7906C2.22188 43.9125 2.01562 44.2031 2.01562 44.6813C2.01562 45 2.07188 45.1406 2.27813 45.3469C2.53125 45.6094 2.54063 45.6094 3.84375 45.6094C5.14688 45.6094 5.15625 45.6094 5.40938 45.3469C5.61563 45.1406 5.67188 45 5.67188 44.6813C5.67188 44.1844 5.46563 43.9125 4.97813 43.7813C4.56563 43.6688 3.06563 43.6688 2.6625 43.7906Z" fill="#0F172A"/>
<path d="M7.71563 43.789C7.54688 43.8358 7.35 43.9671 7.26563 44.0796C7.0875 44.3421 7.07813 44.989 7.26563 45.2421C7.52813 45.6171 7.8375 45.664 9.83438 45.6358L11.7375 45.6077L12.0094 45.2983C12.375 44.8858 12.375 44.4546 12.0094 44.0421L11.7375 43.7327L9.87188 43.714C8.85 43.7046 7.88438 43.7327 7.71563 43.789Z" fill="#0F172A"/>
<path d="M14.3719 43.7531C14.0063 43.8281 13.6875 44.2406 13.6875 44.6437C13.6875 45.5531 13.95 45.6562 16.2 45.6562C17.2594 45.6562 18.0938 45.6187 18.2719 45.5531C18.8719 45.3469 19.0219 44.55 18.5719 44.0437L18.3 43.7344L16.4344 43.7156C15.4125 43.7156 14.4844 43.725 14.3719 43.7531Z" fill="#0F172A"/>
<path d="M20.9344 43.7531C20.8219 43.7719 20.6156 43.9219 20.4844 44.0719C20.0812 44.5594 20.2219 45.2531 20.7656 45.5156C21.0094 45.6281 21.4406 45.6562 22.875 45.6562C25.1437 45.6562 25.4062 45.5531 25.4062 44.6437C25.4062 44.2031 25.0969 43.8375 24.6469 43.7437C24.3281 43.6781 21.2719 43.6875 20.9344 43.7531Z" fill="#0F172A"/>
<path d="M27.5063 43.789C27.1125 43.9015 26.8969 44.164 26.8406 44.6046C26.8031 44.914 26.8313 45.0171 27.075 45.289L27.3563 45.6077L29.2594 45.6358C31.2563 45.664 31.5656 45.6171 31.8281 45.2421C32.0063 44.989 32.0063 44.3421 31.8281 44.089C31.7438 43.9765 31.5281 43.8358 31.3313 43.7796C30.9094 43.6671 27.9094 43.6671 27.5063 43.789Z" fill="#0F172A"/>
</svg>
