<svg width="48" height="48" viewBox="0 0 48 48" fill="none" xmlns="http://www.w3.org/2000/svg">
<g clip-path="url(#clip0_7355_761)">
<path d="M42.2719 0.271976C42.0469 0.506351 42 0.618853 42 1.02198C42 1.49073 42.0187 1.51885 42.7219 2.25948L43.4437 3.00948L42.2062 4.24698L40.9687 5.48448L39.2062 3.72198C37.5469 2.07198 37.425 1.96885 37.0875 1.96885C36.6844 1.96885 36.2344 2.1751 36.0937 2.42823C36.0469 2.53135 36 2.8126 36 3.04698C36 3.44073 36.0469 3.5251 36.4875 3.99385L36.975 4.50948L30.3562 11.1376C22.95 18.572 23.3156 18.1314 23.3062 19.5001C23.2969 20.1189 23.3437 20.297 23.5969 20.822C23.7656 21.1501 24.0281 21.5439 24.1781 21.6939L24.4687 21.9751L23.2594 23.2032C22.2656 24.2157 22.0312 24.497 21.975 24.7876C21.8344 25.5376 22.4625 26.1657 23.2125 26.0251C23.5031 25.9689 23.7844 25.7345 24.7969 24.7407L26.025 23.5314L26.3062 23.822C26.4562 23.972 26.8406 24.2345 27.1687 24.3939C27.6844 24.647 27.8719 24.6939 28.4812 24.6845C29.8687 24.6845 29.4187 25.0595 36.8625 17.6439L43.4906 11.0251L44.0062 11.5126C44.475 11.9532 44.5594 12.0001 44.9531 12.0001C45.1875 12.0001 45.4687 11.9532 45.5719 11.9064C45.825 11.7657 46.0312 11.3157 46.0312 10.9126C46.0312 10.5751 45.9281 10.4532 44.2781 8.79385L42.5156 7.03135L43.7531 5.79385L44.9906 4.56573L45.75 5.27823C46.4906 5.98135 46.5281 6.0001 46.9875 6.0001C47.3719 6.0001 47.4937 5.95323 47.7281 5.72823C48.0656 5.39073 48.1031 4.82823 47.8219 4.36885C47.6437 4.0876 44.3531 0.806353 43.6969 0.253227C43.2562 -0.112398 42.6562 -0.103024 42.2719 0.271976ZM35.4562 16.0501L28.9219 22.5939H28.5C28.0875 22.5939 28.0687 22.5751 26.7469 21.2532C25.425 19.9314 25.4062 19.9126 25.4062 19.5001V19.0782L31.9406 12.5439L38.4844 6.0001L40.2375 7.75323L42 9.51573L35.4562 16.0501Z" fill="#0F172A"/>
<path d="M10.5187 4.05069C6.225 4.58507 2.48437 7.44444 0.862497 11.4194C0.271872 12.8819 0.0749973 13.8382 0.0281223 15.6101C-0.0375026 17.9538 0.290622 19.5288 1.24687 21.4319C1.85625 22.6413 2.27812 23.1944 5.54062 27.1132C8.52187 30.6851 8.93437 31.2476 9.3375 32.2319C9.825 33.4413 9.8625 33.7507 9.9375 36.6101C10.0031 39.4788 10.0969 40.2194 10.5375 41.3913C11.8312 44.8038 14.625 47.1944 18.0937 47.8507C19.0781 48.0382 20.9437 48.0476 21.9094 47.8601C25.875 47.1101 29.0062 44.0257 29.8219 40.0788C29.9812 39.3194 30 38.7569 30 34.2194C30 29.6069 29.9812 29.1851 29.8312 29.0069C29.4937 28.5851 28.9875 28.4819 28.5 28.7351C27.975 29.0069 27.9844 28.9038 27.9375 34.3601C27.8812 39.2726 27.8719 39.4413 27.6656 40.1257C27.075 42.0851 25.7719 43.7726 24.0656 44.8038C19.4906 47.5788 13.5187 45.0288 12.2719 39.7694C12.1031 39.0944 12.0656 38.4851 12 36.1882C11.9344 33.5819 11.9156 33.3757 11.6812 32.5788C11.4 31.6413 10.875 30.4694 10.3781 29.7007C10.2094 29.4288 8.71875 27.6007 7.0875 25.6413C5.44687 23.6819 3.91875 21.7882 3.68437 21.4319C3.14062 20.6163 2.57812 19.3413 2.31562 18.2913C2.14687 17.6257 2.11875 17.2226 2.11875 15.9851C2.11875 14.6632 2.14687 14.3726 2.3625 13.5757C3.27187 10.2288 5.75625 7.59444 9 6.53507C10.3312 6.10382 10.9031 6.04757 14.1094 6.04757C16.5094 6.05694 17.2781 6.08507 17.9625 6.21632C20.3531 6.65694 22.3594 7.64132 24.0469 9.20694C24.8812 9.98507 25.0969 10.1257 25.4531 10.1257C25.7719 10.1257 26.2219 9.89132 26.3437 9.66632C26.3906 9.56319 26.4375 9.28194 26.4375 9.02882C26.4375 8.59757 26.4187 8.56007 25.7156 7.87569C23.5219 5.72882 20.5969 4.37882 17.4187 4.03194C16.3312 3.91944 11.4844 3.92882 10.5187 4.05069Z" fill="#0F172A"/>
<path d="M12.2344 10.0316C9.825 10.3879 7.6875 11.9723 6.65625 14.166C6.14062 15.2723 6 16.0598 6 17.8598V19.4629L6.2625 19.7254C6.60938 20.0441 7.09688 20.1285 7.48125 19.9316C7.97813 19.6785 8.0625 19.3785 8.0625 17.9816C8.0625 17.2035 8.11875 16.5098 8.20312 16.1348C8.65313 14.2316 10.2469 12.6473 12.1875 12.1785C12.9656 11.9816 15.975 12.0191 16.8281 12.2254C17.8125 12.4598 18.8719 13.0316 19.8188 13.8285C20.5781 14.4754 20.6813 14.5316 21.0656 14.5316C21.6469 14.5316 22.0312 14.1566 22.0312 13.5754C22.0312 13.0785 21.8344 12.7598 21.1313 12.1691C19.6875 10.9316 18.2906 10.2941 16.4531 10.0316C15.7125 9.92852 12.9469 9.92852 12.2344 10.0316Z" fill="#0F172A"/>
<path d="M18.375 21.8062C17.5125 22.3875 16.6219 23.6344 16.2656 24.7781C15.2906 27.8437 16.6688 31.3875 19.3688 32.7844C20.175 33.2062 22.5844 34.0312 22.9969 34.0312C23.3344 34.0312 23.775 33.7969 23.9063 33.5719C23.9531 33.4688 24 33.1969 24 32.9531C24 32.3062 23.8031 32.1656 22.0875 31.5938C20.3438 31.0125 19.6781 30.6094 19.0125 29.7469C18.4969 29.0531 18.1969 28.3031 18.1031 27.4406C17.9438 25.95 18.3281 24.7969 19.3406 23.7656C19.7156 23.3812 19.9688 23.0437 20.0063 22.8656C20.0719 22.5094 19.875 22.0125 19.5844 21.8062C19.3031 21.6094 18.6656 21.6094 18.375 21.8062Z" fill="#0F172A"/>
</g>
<defs>
<clipPath id="clip0_7355_761">
<rect width="48" height="48" fill="white"/>
</clipPath>
</defs>
</svg>
