<svg width="48" height="41" viewBox="0 0 48 41" fill="none" xmlns="http://www.w3.org/2000/svg">
<path d="M16.7648 0.132898C14.6929 0.545397 12.771 2.1579 11.9554 4.17352C11.046 6.42352 11.3835 9.06727 12.8366 10.9985C13.0335 11.261 15.621 13.9048 18.5929 16.8673L23.9929 22.2579L29.4866 16.7735C35.0648 11.1954 35.5054 10.7079 35.9929 9.55477C36.7054 7.84852 36.7241 5.87977 36.0304 4.17352C35.5429 2.97352 34.4648 1.68915 33.3679 0.995398C31.4366 -0.213978 28.9898 -0.326477 26.8523 0.686022C25.9991 1.08915 25.296 1.54852 24.621 2.13915C24.321 2.40165 24.0398 2.61727 23.9929 2.61727C23.946 2.61727 23.646 2.3829 23.3179 2.10165C21.3866 0.404772 18.996 -0.307728 16.7648 0.132898ZM19.5585 2.09227C20.5523 2.35477 21.321 2.87977 22.6991 4.20165L23.9929 5.4579L25.2398 4.23915C27.0398 2.48602 28.0616 1.96102 29.7023 1.96102C30.6304 1.96102 31.2773 2.1204 32.1023 2.55165C33.246 3.16102 34.2304 4.4829 34.4929 5.77665C34.746 6.96727 34.4741 8.46727 33.846 9.44227C33.6866 9.68602 31.4085 12.0298 28.7741 14.6641L23.9929 19.4454L19.2116 14.6641C16.5773 12.0298 14.2991 9.68602 14.1398 9.44227C13.5116 8.46727 13.2398 6.96727 13.4929 5.77665C13.9429 3.57352 15.9398 1.9704 18.2273 1.96102C18.696 1.96102 19.2866 2.01727 19.5585 2.09227Z" fill="#0F172A"/>
<path d="M1.92414 2.10165C1.15539 2.41102 0.724145 2.81415 0.292895 3.60165L0.0397699 4.0704L0.0116449 14.1391C-0.0164801 25.2673 -0.0446051 24.6673 0.58352 25.7735C0.78977 26.1391 1.96165 27.386 4.6804 30.1329C6.7804 32.2423 8.59914 34.1454 8.7304 34.3516C9.1429 35.0266 9.1804 35.3454 9.1804 38.0923V40.6798H14.7585H20.3366V35.1673C20.3366 28.9235 20.3273 28.9048 19.6335 27.4891C19.0991 26.411 19.1179 26.4298 13.3241 21.0391C9.09602 17.0923 8.32727 16.4454 7.6054 16.2016C7.5304 16.1735 7.29602 14.2141 6.8929 10.1641L6.27415 4.16415L5.97414 3.56415C5.23352 2.10165 3.47102 1.46415 1.92414 2.10165ZM3.87415 4.05165C4.01477 4.15477 4.19289 4.37977 4.2679 4.54852C4.37102 4.80165 5.52415 15.461 5.52415 16.1829C5.52415 16.3141 5.4304 16.4454 5.26165 16.5298C5.12102 16.6048 4.84914 16.8204 4.65227 17.0266C3.62102 18.0485 3.4429 19.7454 4.23977 20.9173C4.40852 21.1516 6.18977 22.8485 8.19602 24.6766L11.8523 28.0048L12.0773 27.7985C12.1898 27.6954 12.4991 27.3673 12.7523 27.0766L13.2023 26.5516L9.60227 23.2891C7.61477 21.4891 5.92727 19.9235 5.85227 19.811C5.64602 19.5016 5.67415 18.8735 5.89915 18.5548C6.12415 18.236 6.63977 18.0485 7.05227 18.1235C7.28665 18.1704 8.49602 19.2391 12.3866 22.8673C17.7491 27.8548 17.871 27.9954 18.2179 29.1766C18.3491 29.6173 18.3679 30.3391 18.3679 34.2016V38.711H14.7585H11.1491V37.1829C11.1491 35.3173 11.046 34.6423 10.6335 33.761C10.3335 33.1329 10.0523 32.8141 6.39602 29.1016C3.4054 26.0548 2.41164 24.986 2.19602 24.5829L1.91477 24.0485L1.88664 14.5329C1.86789 7.88602 1.88664 4.90477 1.96164 4.66102C2.06477 4.30478 2.48664 3.90165 2.85227 3.8079C3.14289 3.7329 3.57415 3.83603 3.87415 4.05165Z" fill="#0F172A"/>
<path d="M43.6992 2.03602C42.996 2.28915 42.3773 2.84227 42.0117 3.56414L41.7117 4.16415L41.0929 10.1641C40.6898 14.2141 40.4554 16.1735 40.3804 16.2016C39.6585 16.4454 38.8898 17.0923 34.6617 21.0391C28.8679 26.4298 28.8867 26.411 28.3523 27.4891C27.6585 28.9048 27.6492 28.9235 27.6492 35.1673V40.6798H33.2273H38.8054V38.0923C38.8054 35.3454 38.8429 35.0266 39.2648 34.3516C39.3867 34.1454 41.2054 32.2516 43.3054 30.1329C46.0148 27.4048 47.196 26.1391 47.4023 25.7735C48.0304 24.6673 48.0023 25.2673 47.9742 14.1391L47.946 4.0704L47.6929 3.60165C47.3648 2.96415 46.8304 2.44852 46.2117 2.15789C45.5273 1.83915 44.421 1.78289 43.6992 2.03602ZM45.621 4.07977C45.7992 4.22039 45.9679 4.45477 46.0242 4.66102C46.0992 4.90477 46.1179 7.88602 46.0992 14.5329L46.071 24.0485L45.7898 24.5829C45.5742 24.986 44.5804 26.0548 41.5898 29.1016C37.9335 32.8141 37.6523 33.1329 37.3523 33.761C36.9398 34.6423 36.8367 35.3173 36.8367 37.1829V38.711H33.2273H29.6179V34.1829C29.6179 30.161 29.6367 29.6079 29.7867 29.1485C30.1617 27.9485 30.2554 27.8454 35.2617 23.186C40.5023 18.2923 40.6054 18.1985 40.9335 18.1235C41.2992 18.0298 41.8617 18.2454 42.0867 18.5548C42.3304 18.8923 42.3585 19.4735 42.1429 19.8016C42.0492 19.9329 40.3617 21.4985 38.3835 23.2985L34.7835 26.5516L35.1492 26.9829C35.346 27.2173 35.646 27.5454 35.8242 27.7048L36.1335 28.0048L39.7804 24.686C41.7867 22.8673 43.5679 21.1798 43.7367 20.9454C44.3179 20.1204 44.4117 18.7704 43.9335 17.8516C43.7179 17.411 43.0148 16.6704 42.6023 16.436C42.4335 16.3423 42.4429 16.1548 43.0054 10.5954C43.3429 7.28602 43.6429 4.72665 43.7179 4.54852C44.0367 3.78915 44.9367 3.56414 45.621 4.07977Z" fill="#0F172A"/>
</svg>
