<svg width="24" height="24" viewBox="0 0 24 24" fill="none" xmlns="http://www.w3.org/2000/svg">
<g clip-path="url(#clip0_7055_4878)">
<path d="M23.682 6.958L18.994 12.53C18.634 12.902 18.113 13.072 17.603 12.985C16.585 12.811 16.011 11.718 16.444 10.781L17.821 8H16.924C16.31 8 15.747 7.717 15.381 7.224C15.015 6.731 14.906 6.11 15.084 5.522L16.69 1.347C16.968 0.541 17.727 0 18.58 0H20.501C21.537 0 22.262 1.026 21.914 2.003L21.001 4H22.095C22.798 4 23.442 4.385 23.774 5.005C24.106 5.624 24.071 6.373 23.682 6.958ZM20.431 13.922C19.753 14.622 18.826 15.008 17.868 15.008C16.551 15.012 15.314 14.27 14.709 13.1C14.188 12.109 14.159 10.958 14.629 9.942L14.881 9.431C14.458 9.173 14.083 8.831 13.775 8.416C13.027 7.409 12.806 6.143 13.169 4.943C13.169 4.943 14.895 0.465 14.931 0.382C14.627 0.459 14.346 0.54 14.085 0.615C13.343 0.83 12.757 1 12 1C11.243 1 10.657 0.83 9.915 0.615C8.97 0.341 7.793 0 6 0C1.254 0 0 3.925 0 6C0 12.443 3.355 18.786 5.768 22.885C6.177 23.58 6.919 24 7.726 24C8.982 24 10 22.982 10 21.726V15.107C10 14.111 10.681 13.187 11.664 13.027C12.917 12.823 14 13.785 14 15V21.726C14 22.982 15.018 24 16.274 24C17.08 24 17.823 23.58 18.232 22.885C20.114 19.688 22.561 15.126 23.551 10.218L20.431 13.922Z" fill="#09800F"/>
</g>
<defs>
<clipPath id="clip0_7055_4878">
<rect width="24" height="24" fill="white"/>
</clipPath>
</defs>
</svg>
