<svg width="32" height="32" viewBox="0 0 32 32" fill="none" xmlns="http://www.w3.org/2000/svg">
<g clip-path="url(#clip0_8121_4941)">
<path d="M21.6875 2.48152C21.6875 3.51901 21.5687 4.28777 21.2812 5.16902C20.2187 8.38152 17.3875 10.569 14.0187 10.7878L13.375 10.8315V14.9378V19.0503L13.6375 19.4753C13.9812 20.044 14.2687 20.6878 14.475 21.344L14.6375 21.8753H15.55H16.4562L16.9062 22.3065C17.7187 23.0753 18.7812 23.6253 19.9687 23.8878C20.4687 24.0003 20.8312 24.019 23.3125 24.044C26.5812 24.0815 27.5687 24.0253 28.25 23.794C29.4375 23.3753 30.425 22.319 30.7437 21.1378C30.8125 20.8565 31.1062 18.669 31.4375 15.8753C32.1125 10.269 32.1125 10.194 31.725 9.40027C31.3 8.54401 30.5375 7.94402 29.6375 7.75652C29.4437 7.71902 28.6187 7.68777 27.6562 7.68777C26.7437 7.68777 26 7.66902 26 7.63777C26 7.61276 26.0437 7.18777 26.0937 6.68777C26.2562 5.02526 26.2 4.49401 25.7437 3.61901C25.2875 2.74401 24.325 1.98776 23.3687 1.75652C23.2125 1.71902 22.7687 1.67526 22.3875 1.65026L21.6875 1.60652V2.48152Z" fill="white"/>
<path d="M6.125 13.1375V15.4688L6.75 15.4812C8.2625 15.5125 9.8125 16 11.0875 16.8375C11.325 16.9937 11.5312 17.125 11.5375 17.125C11.55 17.125 11.5625 15.7062 11.5625 13.9688V10.8125H8.84375H6.125V13.1375Z" fill="white"/>
<path d="M5.93738 17.2624C4.03113 17.4062 2.15613 18.4937 1.10613 20.0812C0.756128 20.5999 0.343628 21.5124 0.187378 22.0937C0.0123784 22.7312 -0.0501216 24.1562 0.0623784 24.8562C0.487378 27.4999 2.53738 29.6499 5.15613 30.1937C5.81238 30.3374 7.07488 30.3624 7.68738 30.2499C9.43113 29.9312 11.0311 28.8812 12.0186 27.3937C13.4499 25.2437 13.4499 22.3187 12.0186 20.1687C11.6624 19.6374 11.0374 18.9624 10.5561 18.5874C9.23113 17.5687 7.70613 17.1312 5.93738 17.2624ZM9.09363 21.7499L9.71863 22.3749L7.74988 24.3437L5.78113 26.3124L4.62488 25.1562L3.46863 23.9999L4.10613 23.3624L4.74988 22.7187L5.26863 23.2374L5.78113 23.7499L7.09363 22.4374C7.81238 21.7124 8.41863 21.1249 8.43738 21.1249C8.45613 21.1249 8.74988 21.4062 9.09363 21.7499Z" fill="white"/>
</g>
<defs>
<clipPath id="clip0_8121_4941">
<rect width="32" height="32" fill="white"/>
</clipPath>
</defs>
</svg>
