<svg width="134" height="139" viewBox="0 0 134 139" fill="none" xmlns="http://www.w3.org/2000/svg">
<g clip-path="url(#clip0_7414_5142)">
<path d="M69.4484 27.8664C66.956 27.2751 64.6634 27.7054 62.3111 29.2048C60.437 30.3769 59.3686 31.4003 58.0208 33.2884C54.6348 37.9982 53.5564 44.9824 55.4578 49.7481C58.088 56.3221 64.5888 57.8859 70.1026 53.3123C73.575 50.4066 75.7839 45.962 76.3048 40.892C76.668 37.1993 75.7541 33.4108 73.9091 30.9837C73.0181 29.8126 70.6561 28.1498 69.4484 27.8664Z" fill="#FFC150" fill-opacity="0.4"/>
<path d="M95.0749 43.8177C94.4107 43.6618 93.1978 43.5365 92.4037 43.554C83.0865 43.7566 74.0985 54.2298 76.2729 62.366C77.5742 67.2457 82.1445 69.6243 87.7271 68.3414C90.9656 67.5724 93.634 66.0835 96.2478 63.5242C98.1095 61.6994 100.342 58.0759 100.971 55.8598C101.888 52.5773 101.614 49.8056 100.165 47.4841C99.369 46.2334 99.143 46.002 97.7879 45.0978C96.6396 44.3442 96.014 44.0508 95.0749 43.8177Z" fill="#FFC150" fill-opacity="0.4"/>
<path d="M41.4466 37.2689C35.7923 36.0885 30.3125 41.7659 29.5266 49.6215C28.8711 56.4056 31.76 62.1484 36.5763 63.6418C40.3572 64.7967 44.1335 62.9306 46.7612 58.629C50.2879 52.8309 50.0089 44.5724 46.1387 40.1602C44.9869 38.8515 42.9331 37.5859 41.4466 37.2689Z" fill="#FFC150" fill-opacity="0.4"/>
<path d="M98.6127 72.586C92.2878 71.2228 84.4035 75.4185 81.3043 81.7565C79.1944 86.0778 79.9359 90.2209 83.2406 92.6719C84.6546 93.7046 86.105 94.2297 88.2122 94.3993C92.275 94.7602 97.1987 92.864 100.689 89.5549C102.427 87.9305 104.341 84.8246 104.849 82.8795C105.544 80.1058 105.045 77.402 103.473 75.4659C102.425 74.1752 100.401 72.9739 98.6127 72.586Z" fill="#FFC150" fill-opacity="0.4"/>
<path d="M65.3212 62.233C64.5941 61.9923 63.1243 61.6856 62.0322 61.5886C58.581 61.282 55.773 62.0628 51.5351 64.5659C48.49 66.3296 46.3271 66.8859 43.3629 66.649C40.5028 66.4301 38.9711 66.523 36.9971 67.0345C34.9756 67.5858 32.955 68.6216 31.2195 70.0173C30.0137 71.0021 29.826 71.232 28.2825 73.7367C26.7661 76.235 26.6246 76.5394 26.2806 78.0323C25.7511 80.4245 25.7832 82.5408 26.3831 85.007C27.2585 88.6336 29.2035 91.4218 32.4171 93.6094C34.7329 95.1977 36.5481 95.8785 39.8488 96.3919C42.881 96.855 44.3686 97.357 46.5394 98.6946C48.6099 99.9705 49.6372 100.995 51.4603 103.57C53.3797 106.25 54.8206 107.576 57.2637 108.92C59.4795 110.147 61.0854 110.607 63.7168 110.823C65.878 110.98 69.4159 110.211 71.376 109.161C75.8992 106.719 79.1506 101.442 79.2989 96.3037C79.3123 95.4595 79.1 93.7851 78.7564 92.3985C78.263 90.3204 77.9884 89.6444 76.8768 87.7844C74.977 84.5864 74.5913 82.7821 74.9303 78.8671C75.3403 74.3508 74.9948 71.9953 73.4919 69.0879C72.4626 67.0943 71.0436 65.6209 68.6905 64.0558C67.2687 63.1105 66.2423 62.5702 65.3212 62.233Z" fill="#FFC150" fill-opacity="0.4"/>
</g>
<defs>
<clipPath id="clip0_7414_5142">
<rect width="100.422" height="100.422" fill="white" transform="translate(48.2627) rotate(31.6418)"/>
</clipPath>
</defs>
</svg>
