<svg width="24" height="24" viewBox="0 0 24 24" fill="none" xmlns="http://www.w3.org/2000/svg">
<path d="M15.598 6.717C15.851 6.198 15.999 5.618 15.999 5H16.58C17.916 5 18.999 6.083 18.999 7.419V10.418C18.355 10.14 17.661 10.002 16.965 10.008V9.166C16.869 8.166 16.359 7.293 15.598 6.717ZM7.03 10.003V9.188C7.121 8.179 7.633 7.297 8.399 6.717C8.146 6.198 7.998 5.618 7.998 5H7.417C6.081 5 4.998 6.083 4.998 7.419V10.412C4.998 10.412 5 10.413 5.003 10.415C5.646 10.137 6.338 9.999 7.03 10.003ZM10.329 11.275L11.422 12.281C11.748 12.581 12.249 12.581 12.575 12.281L13.639 11.302C14.055 10.93 14.515 10.639 14.999 10.428V10.42C14.999 9.084 13.916 8.001 12.58 8.001H11.419C10.083 8.001 9 9.084 9 10.42C9.474 10.627 9.924 10.912 10.33 11.275H10.329ZM7.999 4C9.104 4 9.999 3.105 9.999 2C9.999 0.895 9.104 0 7.999 0C6.894 0 5.999 0.895 5.999 2C5.999 3.105 6.894 4 7.999 4ZM11.999 7C13.104 7 13.999 6.105 13.999 5C13.999 3.895 13.104 3 11.999 3C10.894 3 9.999 3.895 9.999 5C9.999 6.105 10.894 7 11.999 7ZM15.999 4C17.104 4 17.999 3.105 17.999 2C17.999 0.895 17.104 0 15.999 0C14.894 0 13.999 0.895 13.999 2C13.999 3.105 14.894 4 15.999 4ZM18.434 15.687L15.947 18.219C15.825 16.994 15.278 15.841 14.36 15.007L13.486 14.213L15.299 12.567C16.316 11.644 17.967 11.846 18.706 13.1C19.186 13.915 19.037 14.958 18.434 15.686V15.687ZM22.499 5C21.671 5 20.999 5.672 20.999 6.5V14H20.988C21.038 15.022 20.721 16.061 20.032 16.893L15.999 20.981V23C15.999 23.552 16.447 24 16.999 24H20.308C20.589 24 20.857 23.882 21.046 23.674L21.644 23.02C23.159 21.361 23.999 19.196 23.999 16.95V6.5C23.999 5.672 23.327 5 22.499 5ZM13.016 16.487L8.699 12.567C7.682 11.644 6.031 11.846 5.292 13.1C4.812 13.915 4.961 14.958 5.564 15.686L8.112 18.259C8.496 18.647 8.495 19.273 8.109 19.659C7.72 20.048 7.089 20.046 6.702 19.655L3.967 16.892C3.278 16.06 2.962 15.021 3.011 13.999H3V6.499C3 5.671 2.328 4.999 1.5 4.999C0.672 4.999 0 5.671 0 6.499V16.949C0 19.195 0.84 21.361 2.355 23.019L2.953 23.673C3.142 23.88 3.41 23.999 3.691 23.999H13C13.552 23.999 14 23.551 14 22.999V18.707C14 17.861 13.643 17.055 13.017 16.486L13.016 16.487Z" fill="#1D1EE3"/>
</svg>
