<svg width="40" height="40" viewBox="0 0 40 40" fill="none" xmlns="http://www.w3.org/2000/svg">
<path fill-rule="evenodd" clip-rule="evenodd" d="M14.7602 20.7607H13.2398V22.2812H14.7602V20.7607ZM13.2398 19.2402C12.4 19.2402 11.7193 19.9209 11.7193 20.7607V22.2812C11.7193 23.1209 12.4 23.8016 13.2398 23.8016H14.7602C15.6 23.8016 16.2807 23.1209 16.2807 22.2812V20.7607C16.2807 19.9209 15.6 19.2402 14.7602 19.2402H13.2398Z" fill="#0F172A"/>
<path fill-rule="evenodd" clip-rule="evenodd" d="M20.8421 20.7607H19.3216V22.2812H20.8421V20.7607ZM19.3216 19.2402C18.4819 19.2402 17.8011 19.9209 17.8011 20.7607V22.2812C17.8011 23.1209 18.4819 23.8016 19.3216 23.8016H20.8421C21.6818 23.8016 22.3626 23.1209 22.3626 22.2812V20.7607C22.3626 19.9209 21.6818 19.2402 20.8421 19.2402H19.3216Z" fill="#1ACCBF"/>
<path fill-rule="evenodd" clip-rule="evenodd" d="M26.924 20.7607H25.4035V22.2812H26.924V20.7607ZM25.4035 19.2402C24.5638 19.2402 23.8831 19.9209 23.8831 20.7607V22.2812C23.8831 23.1209 24.5638 23.8016 25.4035 23.8016H26.924C27.7637 23.8016 28.4445 23.1209 28.4445 22.2812V20.7607C28.4445 19.9209 27.7637 19.2402 26.924 19.2402H25.4035Z" fill="#1ACCBF"/>
<path fill-rule="evenodd" clip-rule="evenodd" d="M14.7602 26.8427H13.2398V28.3632H14.7602V26.8427ZM13.2398 25.3223C12.4 25.3223 11.7193 26.003 11.7193 26.8427V28.3632C11.7193 29.203 12.4 29.8837 13.2398 29.8837H14.7602C15.6 29.8837 16.2807 29.203 16.2807 28.3632V26.8427C16.2807 26.003 15.6 25.3223 14.7602 25.3223H13.2398Z" fill="#0F172A"/>
<path fill-rule="evenodd" clip-rule="evenodd" d="M20.8421 26.8427H19.3216V28.3632H20.8421V26.8427ZM19.3216 25.3223C18.4819 25.3223 17.8011 26.003 17.8011 26.8427V28.3632C17.8011 29.203 18.4819 29.8837 19.3216 29.8837H20.8421C21.6818 29.8837 22.3626 29.203 22.3626 28.3632V26.8427C22.3626 26.003 21.6818 25.3223 20.8421 25.3223H19.3216Z" fill="#1ACCBF"/>
<path fill-rule="evenodd" clip-rule="evenodd" d="M26.924 26.8427H25.4035V28.3632H26.924V26.8427ZM25.4035 25.3223C24.5638 25.3223 23.8831 26.003 23.8831 26.8427V28.3632C23.8831 29.203 24.5638 29.8837 25.4035 29.8837H26.924C27.7637 29.8837 28.4445 29.203 28.4445 28.3632V26.8427C28.4445 26.003 27.7637 25.3223 26.924 25.3223H25.4035Z" fill="#1ACCBF"/>
<path fill-rule="evenodd" clip-rule="evenodd" d="M9.4386 10.1162C9.01874 10.1162 8.67837 10.4565 8.67837 10.8764V31.4027C8.67837 31.8226 9.01874 32.163 9.4386 32.163H30.7251C31.144 32.163 31.4854 31.822 31.4854 31.401V10.8781C31.4854 10.4571 31.144 10.1162 30.7251 10.1162H26.9279V9.26237V8.5957H30.7251C31.9858 8.5957 33.0059 9.61951 33.0059 10.8781V31.401C33.0059 32.6596 31.9858 33.6834 30.7251 33.6834H9.4386C8.17901 33.6834 7.1579 32.6624 7.1579 31.4027V10.8764C7.1579 9.61677 8.17901 8.5957 9.4386 8.5957H13.2398V10.1162H9.4386ZM25.4035 10.1162H14.7368V8.5957H25.4035V10.1162Z" fill="#0F172A"/>
<path fill-rule="evenodd" clip-rule="evenodd" d="M31.4854 16.9599H8.67834V15.4395H31.4854V16.9599Z" fill="#0F172A"/>
<path d="M13.2397 7.07664C13.2397 6.65678 13.5801 6.31641 14 6.31641C14.4199 6.31641 14.7602 6.65678 14.7602 7.07664V12.3983C14.7602 12.8182 14.4199 13.1585 14 13.1585C13.5801 13.1585 13.2397 12.8182 13.2397 12.3983V7.07664Z" fill="#0F172A"/>
<path d="M25.4035 7.07664C25.4035 6.65678 25.7439 6.31641 26.1637 6.31641C26.5836 6.31641 26.924 6.65678 26.924 7.07664V12.3983C26.924 12.8182 26.5836 13.1585 26.1637 13.1585C25.7439 13.1585 25.4035 12.8182 25.4035 12.3983V7.07664Z" fill="#0F172A"/>
</svg>
