<svg width="40" height="40" viewBox="0 0 40 40" fill="none" xmlns="http://www.w3.org/2000/svg">
<path d="M24.6955 13.1244C24.9128 13.9496 25.7462 14.4391 26.5572 14.2181C27.3681 13.997 27.8494 13.149 27.6321 12.3239L29.1003 11.9236C29.5349 13.5737 28.5725 15.2698 26.9506 15.712C25.3287 16.1542 23.6617 15.175 23.2271 13.5248C22.7926 11.8746 23.7551 10.1785 25.3769 9.73633L25.7703 11.2303C24.9594 11.4513 24.4782 12.2994 24.6955 13.1244Z" fill="#0F172A"/>
<path d="M29.2905 16.4593C28.6437 17.3493 27.2508 17.8401 25.7186 17.7753C24.1834 17.7104 22.8537 17.1026 22.3131 16.1947C22.1034 15.8423 21.626 15.7146 21.2469 15.9097C20.8678 16.1047 20.7305 16.5485 20.9403 16.9009C21.8463 18.4228 23.8158 19.1549 25.6472 19.2324C27.4814 19.31 29.5222 18.7458 30.5906 17.2759C30.8332 16.9422 30.7388 16.4888 30.3798 16.2633C30.0207 16.0379 29.5331 16.1256 29.2905 16.4593Z" fill="#0F172A"/>
<path d="M15.9189 27.9819C15.9189 28.3364 15.6554 28.6238 15.3304 28.6238C15.0054 28.6238 14.7419 28.3364 14.7419 27.9819H13.2397C13.2397 29.2415 14.1757 30.2626 15.3304 30.2626C16.485 30.2626 17.421 29.2415 17.421 27.9819C17.421 26.7223 16.485 25.7012 15.3304 25.7012V27.3399C15.6554 27.3399 15.9189 27.6273 15.9189 27.9819Z" fill="#1ACCBF"/>
<path d="M17.884 21.5762C16.4909 20.9862 15.0173 20.9862 14.0831 21.632C13.7328 21.8741 13.2486 21.7921 13.0016 21.4488C12.7545 21.1055 12.8382 20.6308 13.1885 20.3886C14.7312 19.3221 16.832 19.4734 18.4996 20.1795C20.1645 20.8845 21.7104 22.2756 21.9744 24.0714C22.0355 24.4873 21.7411 24.873 21.3169 24.9329C20.8926 24.9928 20.4991 24.7043 20.438 24.2884C20.2805 23.217 19.2796 22.1672 17.884 21.5762Z" fill="#1ACCBF"/>
<path d="M16.2734 24.198C15.3878 23.8032 14.5205 23.814 14.0272 24.1521C13.6749 24.3936 13.206 24.2843 12.9798 23.9082C12.7536 23.532 12.856 23.0314 13.2083 22.7899C14.2946 22.0455 15.7435 22.2076 16.8577 22.7044C17.9644 23.198 19.0879 24.1791 19.3098 25.5114C19.3831 25.9515 19.1083 26.3717 18.6962 26.4499C18.2839 26.5282 17.8904 26.2349 17.8172 25.7947C17.726 25.2475 17.1664 24.5962 16.2734 24.198Z" fill="#1ACCBF"/>
<path d="M9.19452 30.4743C9.50941 30.4743 9.7647 30.219 9.7647 29.9042C9.7647 29.5892 9.50941 29.334 9.19452 29.334C8.8796 29.334 8.62433 29.5892 8.62433 29.9042C8.62433 30.219 8.8796 30.4743 9.19452 30.4743Z" fill="#0F172A"/>
<path fill-rule="evenodd" clip-rule="evenodd" d="M9.41236 31.4303C6.40641 28.4244 6.40641 23.5508 9.41236 20.5449L21.3864 8.57087C24.3923 5.56492 29.266 5.56492 32.2719 8.57087C35.2778 11.5768 35.2778 16.4504 32.2719 19.4564L20.2979 31.4303C17.2919 34.4363 12.4183 34.4363 9.41236 31.4303ZM17.1483 14.9861L22.475 9.65937C24.8797 7.25465 28.7786 7.25465 31.1833 9.65937C33.5881 12.0641 33.5881 15.9631 31.1833 18.3678L25.8566 23.6945L17.1483 14.9861ZM16.0597 16.0747L10.5009 21.6334C8.09615 24.0382 8.09615 27.937 10.5009 30.3418C12.9056 32.7466 16.8045 32.7466 19.2093 30.3418L24.7681 24.783L16.0597 16.0747Z" fill="#0F172A"/>
</svg>
