<svg width="22" height="22" viewBox="0 0 22 22" fill="none" xmlns="http://www.w3.org/2000/svg">
<path d="M17.4993 9C16.2673 9 14.1803 8.829 14.0923 8.822C13.6063 8.782 13.2203 8.397 13.1783 7.911C13.1703 7.826 12.9993 5.823 12.9993 4.5C12.9993 1.43 14.4293 0 17.4993 0C20.5693 0 21.9993 1.43 21.9993 4.5C21.9993 7.57 20.5693 9 17.4993 9ZM8.99931 12C10.9503 12 12.3743 11.574 13.3553 10.709C12.1743 10.376 11.2943 9.349 11.1853 8.083C11.1853 8.073 10.9983 5.943 10.9983 4.5C10.9983 2.872 11.3563 1.538 12.0273 0.503C11.1973 0.178 10.2063 0 8.99831 0C4.84931 0 2.99931 1.851 2.99931 6C2.99931 10.149 4.85031 12 8.99931 12ZM12.4993 13.38V16.211C13.3813 16.598 13.9993 17.477 13.9993 18.499V19.999C13.9993 20.551 13.5523 20.999 12.9993 20.999C12.4463 20.999 11.9993 20.551 11.9993 19.999V18.499C11.9993 18.223 11.7743 17.999 11.4993 17.999C11.2243 17.999 10.9993 18.223 10.9993 18.499V19.999C10.9993 20.551 10.5523 20.999 9.99931 20.999C9.44631 20.999 8.99931 20.551 8.99931 19.999V18.499C8.99931 17.476 9.61731 16.598 10.4993 16.211V13.065C10.0213 13.026 9.52731 12.999 8.99931 12.999C8.29231 12.999 7.63231 13.036 7.01431 13.107L7.00431 16.148C7.69831 16.396 8.00031 16.974 8.00031 17.999C8.00031 19.428 7.42931 19.999 6.00031 19.999C4.57131 19.999 4.00031 19.428 4.00031 17.999C4.00031 16.969 4.30331 16.39 5.00431 16.144L5.01331 13.508C1.79931 14.479 0.216307 16.876 0.00130665 20.946C-0.0126934 21.22 0.0863067 21.488 0.274307 21.687C0.462307 21.886 0.725307 21.999 1.00031 21.999H16.9993C17.2733 21.999 17.5363 21.886 17.7253 21.687C17.9133 21.488 18.0123 21.22 17.9983 20.946C17.7723 16.677 16.0383 14.252 12.4993 13.379V13.38Z" fill="#067D98"/>
</svg>
