<svg width="40" height="40" viewBox="0 0 40 40" fill="none" xmlns="http://www.w3.org/2000/svg">
<path fill-rule="evenodd" clip-rule="evenodd" d="M24.4473 25.2656C22.3248 25.2656 20.5891 27.0013 20.5891 29.1239V30.4867C20.5891 32.6093 22.3248 34.345 24.4473 34.345H30.0906C32.2131 34.345 33.9488 32.6093 33.9488 30.4867V29.1239C33.9488 27.0013 32.2131 25.2656 30.0906 25.2656H24.4473ZM24.4473 26.9627H30.0906C31.3012 26.9627 32.2475 27.9133 32.2475 29.1239V30.4868C32.2475 31.6975 31.3012 32.648 30.0906 32.648H24.4473C23.2366 32.648 22.2904 31.6975 22.2904 30.4868V29.1239C22.2904 27.9133 23.2366 26.9627 24.4473 26.9627Z" fill="#0F172A"/>
<path fill-rule="evenodd" clip-rule="evenodd" d="M27.2689 16.3613C25.0208 16.3613 23.1766 18.1959 23.1766 20.4413C23.1766 22.6864 25.0208 24.5253 27.2689 24.5253C29.5171 24.5253 31.3613 22.6864 31.3613 20.4413C31.3613 18.1962 29.5171 16.3613 27.2689 16.3613ZM27.2689 18.0627C28.6024 18.0627 29.6599 19.1174 29.6599 20.4413C29.6599 21.7652 28.6022 22.8239 27.2689 22.8239C25.9354 22.8239 24.8736 21.7652 24.8736 20.4413C24.8736 19.1174 25.9354 18.0627 27.2689 18.0627Z" fill="#0F172A"/>
<path d="M9.28663 6.31662C9.25402 6.31586 9.22166 6.31713 9.1893 6.31991C8.96886 6.33988 8.76485 6.44505 8.62075 6.61316L5.75831 9.96097C5.75654 9.96274 5.75452 9.96477 5.75275 9.96653L5.73278 9.9908C5.708 10.0199 5.685 10.0505 5.66427 10.0826C5.66376 10.0831 5.66351 10.0833 5.663 10.0838C5.66275 10.0846 5.66224 10.0854 5.66199 10.0859C5.65744 10.0929 5.65314 10.1 5.64884 10.1071C5.64354 10.1162 5.63823 10.1253 5.63317 10.1346C5.62432 10.1508 5.61573 10.1675 5.60789 10.1845C5.60713 10.186 5.60637 10.1872 5.60562 10.1887C5.55455 10.2997 5.52826 10.4206 5.52826 10.5427C5.52826 10.7186 5.58337 10.8903 5.68525 11.0339C5.69334 11.045 5.70193 11.0561 5.71053 11.067C5.71634 11.0746 5.72241 11.0819 5.72823 11.0892C5.72974 11.091 5.73126 11.0928 5.73278 11.0945C5.74137 11.1049 5.75022 11.1148 5.75932 11.1246L8.62053 14.4682V14.4679C8.76741 14.6396 8.97647 14.7457 9.20147 14.7632C9.42672 14.7804 9.64944 14.7071 9.82058 14.5597C10.1753 14.2546 10.2165 13.7198 9.91235 13.3642L8.22362 11.3911H31.1024L29.4134 13.3642C29.1096 13.7199 29.1505 14.2545 29.5055 14.5597C29.6763 14.7071 29.8993 14.7804 30.1243 14.7632C30.3496 14.7457 30.5586 14.6396 30.7053 14.4679L33.573 11.1178H33.5733C33.5801 11.1102 33.5867 11.1026 33.5932 11.0948C33.594 11.094 33.5947 11.0932 33.5955 11.0925C33.6074 11.0781 33.6188 11.0634 33.6296 11.0482C33.6413 11.0328 33.6524 11.0169 33.663 11.0007C33.6734 10.9843 33.6835 10.9679 33.6928 10.9509C33.7017 10.9345 33.7103 10.9181 33.7181 10.9011C33.7186 10.9004 33.7189 10.8996 33.7194 10.8988C33.7196 10.8981 33.7201 10.8973 33.7204 10.8966C33.728 10.8796 33.735 10.8622 33.7414 10.8447C33.7553 10.8083 33.7669 10.7709 33.7757 10.733C33.78 10.714 33.7838 10.6948 33.7869 10.6754C33.7939 10.6316 33.7977 10.5871 33.798 10.5426C33.7977 10.4708 33.7886 10.399 33.7702 10.3293C33.7659 10.3133 33.7611 10.2974 33.756 10.2817C33.7553 10.2787 33.7545 10.2759 33.7535 10.2729C33.7532 10.2719 33.7527 10.2706 33.7525 10.2696C33.7338 10.2153 33.7098 10.1629 33.6807 10.1136C33.6708 10.0969 33.6605 10.0808 33.6496 10.0648C33.6387 10.0487 33.6273 10.0327 33.6155 10.0173C33.6081 10.0085 33.6008 9.99962 33.5932 9.99077L33.57 9.96321C33.569 9.96195 33.5677 9.96094 33.5664 9.95993L30.705 6.61308H30.7052C30.5295 6.40882 30.2671 6.30011 29.9984 6.31983C29.8166 6.33247 29.6437 6.40301 29.5052 6.52132C29.3335 6.66794 29.2273 6.87701 29.2101 7.10226C29.1929 7.32751 29.266 7.55022 29.4134 7.72137L31.1011 9.69349L8.22486 9.69324L9.91256 7.72137C10.0599 7.55023 10.133 7.32751 10.1158 7.10226C10.0986 6.87702 9.99244 6.66795 9.82079 6.52132C9.67163 6.3934 9.48279 6.3211 9.28662 6.31655L9.28663 6.31662Z" fill="#0F172A"/>
<path fill-rule="evenodd" clip-rule="evenodd" d="M9.33194 25.2656C7.20941 25.2656 5.47369 27.0013 5.47369 29.1239V30.4867C5.47369 32.6093 7.20941 34.345 9.33194 34.345H14.9752C17.0977 34.345 18.8334 32.6093 18.8334 30.4867V29.1239C18.8334 27.0013 17.0977 25.2656 14.9752 25.2656H9.33194ZM9.33194 26.9627H14.9752C16.1859 26.9627 17.1321 27.9133 17.1321 29.1239V30.4868C17.1321 31.6975 16.1859 32.648 14.9752 32.648H9.33194C8.12127 32.648 7.17504 31.6975 7.17504 30.4868V29.1239C7.17504 27.9133 8.12127 26.9627 9.33194 26.9627Z" fill="#1ACCBF"/>
<path fill-rule="evenodd" clip-rule="evenodd" d="M12.1536 16.3613C9.90546 16.3613 8.06128 18.1959 8.06128 20.4413C8.06128 22.6864 9.90546 24.5253 12.1536 24.5253C14.4017 24.5253 16.2459 22.6864 16.2459 20.4413C16.2459 18.1962 14.4017 16.3613 12.1536 16.3613ZM12.1536 18.0627C13.4871 18.0627 14.5446 19.1174 14.5446 20.4413C14.5446 21.7652 13.4868 22.8239 12.1536 22.8239C10.8201 22.8239 9.75829 21.7652 9.75829 20.4413C9.75829 19.1174 10.82 18.0627 12.1536 18.0627Z" fill="#1ACCBF"/>
</svg>
