<svg width="148" height="59" viewBox="0 0 148 59" fill="none" xmlns="http://www.w3.org/2000/svg">
<path d="M-60.1857 32.1792C-62.8648 32.2177 -65.0678 30.077 -65.1062 27.3979C-65.1446 24.7188 -63.0039 22.5158 -60.3248 22.4774L92.6223 20.2844C95.3014 20.246 97.5044 22.3867 97.5428 25.0658C97.5812 27.7449 95.4405 29.9478 92.7614 29.9863L-60.1857 32.1792Z" fill="#1D1EE3"/>
<path d="M111.097 45.1636C108.418 45.202 106.215 43.0613 106.177 40.3822C106.138 37.7031 108.279 35.5002 110.958 35.4617L140.634 35.0362C143.313 34.9978 145.516 37.1385 145.555 39.8176C145.593 42.4967 143.452 44.6997 140.773 44.7381L111.097 45.1636Z" fill="#BFBE18"/>
</svg>
