<svg width="32" height="32" viewBox="0 0 32 32" fill="none" xmlns="http://www.w3.org/2000/svg">
<path d="M9.0999 2.12793C8.6749 2.27168 8.1749 2.58418 7.9124 2.85918L7.73115 3.05293H8.5499C10.8624 3.05293 12.9062 3.89668 14.5312 5.52793C15.7937 6.78418 16.5999 8.32793 16.9124 10.0654C17.0499 10.8404 17.0499 12.1529 16.9124 12.9279C16.2624 16.5467 13.4374 19.3029 9.78115 19.8717C9.26865 19.9529 7.85615 19.9592 7.3874 19.8842L7.05615 19.8279L7.0749 23.8029L7.09365 27.7779L7.3249 28.2654C7.6499 28.9404 8.0749 29.3717 8.74365 29.7029L9.26865 29.9654L17.8999 29.9842C27.5499 30.0029 26.9562 30.0279 27.6749 29.5592C28.4249 29.0717 28.9249 28.3279 29.0624 27.4904C29.0999 27.2279 29.1249 24.2717 29.1249 19.0467V11.0029L25.8624 10.9842C22.7374 10.9592 22.5749 10.9529 22.2062 10.8279C21.2312 10.5029 20.5187 9.75918 20.2124 8.75293C20.1437 8.53418 20.1249 7.77793 20.1249 5.23418V1.99668H14.7999C9.6124 2.00293 9.45615 2.00293 9.0999 2.12793ZM24.5624 17.1967C24.6749 17.2779 24.8312 17.4217 24.8999 17.5154C25.0312 17.6904 25.0312 17.7342 25.0312 21.4967C25.0312 25.2592 25.0312 25.3029 24.8999 25.4779C24.4499 26.0842 23.6187 26.0904 23.2499 25.4842C23.1312 25.2842 23.1249 25.1592 23.1249 21.4967C23.1249 17.8342 23.1312 17.7092 23.2499 17.5092C23.5249 17.0654 24.1437 16.9154 24.5624 17.1967ZM16.5624 20.1967C16.6749 20.2779 16.8312 20.4217 16.8999 20.5154C17.0249 20.6904 17.0312 20.7592 17.0312 22.9967C17.0312 25.2342 17.0249 25.3029 16.8999 25.4779C16.4499 26.0842 15.6187 26.0904 15.2499 25.4842C15.1312 25.2904 15.1249 25.1654 15.1249 22.9967C15.1249 20.8279 15.1312 20.7029 15.2499 20.5092C15.5249 20.0654 16.1437 19.9154 16.5624 20.1967ZM20.5624 21.1967C20.6749 21.2779 20.8312 21.4217 20.8999 21.5154C21.0249 21.6842 21.0312 21.7654 21.0312 23.4967C21.0312 25.2279 21.0249 25.3092 20.8999 25.4779C20.4499 26.0842 19.6187 26.0904 19.2499 25.4842C19.1312 25.2904 19.1249 25.1654 19.1249 23.4967C19.1249 21.8279 19.1312 21.7029 19.2499 21.5092C19.5249 21.0654 20.1437 20.9154 20.5624 21.1967ZM12.5624 23.2029C12.9499 23.4592 13.0312 23.6842 13.0312 24.4967C13.0312 25.1092 13.0124 25.2467 12.8999 25.4342C12.5249 26.0842 11.6312 26.1092 11.2499 25.4842C11.1437 25.3092 11.1249 25.1654 11.1249 24.4967C11.1249 23.8279 11.1437 23.6842 11.2499 23.5092C11.5249 23.0654 12.1437 22.9154 12.5624 23.2029Z" fill="white"/>
<path d="M22.0625 5.13125C22.0625 8.64375 22.0563 8.5625 22.4938 8.85625L22.7063 9H25.8563H29.0063L28.9688 8.85625C28.8688 8.51875 28.6 8.05625 28.3 7.7125C27.0813 6.3125 23.7188 2.68125 23.525 2.55C23.1813 2.3125 22.6375 2.075 22.3313 2.025L22.0625 1.98125V5.13125Z" fill="white"/>
<path d="M6.7625 5.21805C5.61875 5.55555 4.7 6.1118 3.86875 6.9743C2.65625 8.2368 2.0625 9.7118 2.0625 11.493C2.0625 13.343 2.6625 14.793 3.9625 16.093C4.9375 17.068 5.925 17.6055 7.25 17.8805C8.125 18.0618 9.55 18.018 10.3375 17.7805C12.2063 17.218 13.6125 16.0368 14.4375 14.3368C14.7188 13.768 15 12.893 15 12.6055C15 12.4993 14.8688 12.493 12.3625 12.493C9.61875 12.493 9.10625 12.4555 8.675 12.2368C8.3 12.043 7.9 11.5993 7.75625 11.2055C7.63125 10.8805 7.625 10.7368 7.625 7.9618V5.05555L7.45625 5.0618C7.35625 5.0618 7.05 5.13055 6.7625 5.21805Z" fill="white"/>
<path d="M9.5625 7.78125V10.5H12.2812C14.8625 10.5 15 10.4937 15 10.3875C15 10.1 14.7188 9.225 14.4375 8.65625C13.6125 6.95625 12.1688 5.74375 10.35 5.21875C10.05 5.13125 9.74375 5.0625 9.68125 5.0625C9.56875 5.0625 9.5625 5.15625 9.5625 7.78125Z" fill="white"/>
</svg>
