<svg width="28" height="32" viewBox="0 0 28 32" fill="none" xmlns="http://www.w3.org/2000/svg">
<path d="M21.0564 0.125C19.6626 0.625 18.9189 2.1375 19.3689 3.56875C19.4314 3.7875 19.4689 3.98125 19.4439 4.00625C19.4001 4.04375 15.3876 7.29375 15.2689 7.38125C15.2314 7.4125 15.1189 7.36875 14.9876 7.275C14.8689 7.18125 14.6064 7.03125 14.4001 6.9375C13.2126 6.39375 11.8064 6.5125 10.7626 7.24375L10.3251 7.55625L9.07515 6.29375C8.38765 5.6 7.71265 4.90625 7.5689 4.75L7.31265 4.4625L7.5439 4C7.7689 3.55625 7.77515 3.5125 7.77515 2.88125C7.77515 2.29375 7.7564 2.175 7.61265 1.86875C6.58765 -0.3125 3.42515 0.112499 2.9814 2.4875C2.78765 3.525 3.3814 4.6625 4.35015 5.10625C4.86265 5.34375 5.63765 5.39375 6.1689 5.225C6.2689 5.19375 6.60015 5.5 7.95015 6.88125C9.6064 8.56875 9.61265 8.575 9.52515 8.74375C9.3439 9.10625 9.23765 9.7 9.25015 10.3312L9.26265 10.9625L7.0564 12.1375L4.8564 13.3125L4.56265 13.0437C3.46265 12.0563 1.82515 12.0938 0.787648 13.1312C0.256398 13.6625 0.037648 14.1688 0.00639805 14.9375C-0.012352 15.425 0.00639805 15.6063 0.112648 15.925C0.512648 17.1125 1.48765 17.8125 2.7189 17.8125C3.80015 17.8125 4.67515 17.2562 5.1689 16.2563C5.3939 15.8 5.40015 15.7687 5.40015 15.0875V14.3812L7.5564 13.2312L9.71265 12.0812L9.8939 12.3375C10.1064 12.6437 10.5001 13.0625 10.5689 13.0625C10.5939 13.0625 10.6189 12.5062 10.6189 11.8187C10.6189 11.1375 10.6439 10.4375 10.6814 10.2562C10.8689 9.2625 11.6626 8.48125 12.6564 8.31875C13.5876 8.16875 14.5689 8.675 14.9876 9.5125L15.1814 9.89375V11.4187C15.1814 12.25 15.2064 12.9375 15.2376 12.9375C15.3314 12.9375 15.7751 12.4125 15.9626 12.0875C16.0626 11.9187 16.1439 11.775 16.1501 11.7625C16.1626 11.75 21.0251 12.7375 22.0939 12.975L22.5439 13.075L22.6751 13.4313C22.8564 13.925 23.1876 14.3438 23.6314 14.625C24.0814 14.9188 24.5064 15.025 25.1251 14.9875C26.0001 14.9437 26.7814 14.4062 27.1626 13.5938C27.3189 13.2562 27.3377 13.15 27.3377 12.5625C27.3377 11.9437 27.3251 11.875 27.1376 11.4938C26.8939 10.9938 26.4439 10.5563 25.9439 10.325C25.6314 10.175 25.5126 10.1562 24.9626 10.1562C24.3876 10.1562 24.3001 10.175 23.9189 10.3562C23.4126 10.5938 23.0001 11 22.7626 11.4938L22.5876 11.85L19.5376 11.225L16.4876 10.5938L16.4626 10.0812C16.4439 9.725 16.3814 9.40625 16.2439 9.01875C16.1376 8.71875 16.0439 8.4375 16.0376 8.4C16.0314 8.3625 16.9814 7.55 18.1501 6.60625C20.0189 5.0875 20.2814 4.89375 20.3689 4.96875C20.5501 5.1375 21.1501 5.36875 21.5564 5.43125C23.2189 5.69375 24.6814 4.425 24.6814 2.71875C24.6814 1.5125 23.8939 0.424999 22.7814 0.09375C22.3314 -0.0437508 21.4814 -0.0249996 21.0564 0.125Z" fill="white"/>
<path d="M12.4629 9.42802C12.1879 9.55927 11.9879 9.72802 11.8191 9.98427C11.7191 10.1343 11.7129 10.5843 11.6816 16.2968L11.6504 22.4468L11.4754 22.5968C11.2691 22.7718 11.0566 22.7905 10.8816 22.6343C10.8129 22.578 10.5066 22.078 10.2066 21.528C9.45664 20.1468 9.23789 19.9343 8.55664 19.9343C7.82539 19.9343 7.30664 20.4843 7.30664 21.253C7.30664 21.553 7.46914 21.903 9.63789 26.2093C11.8629 30.6343 11.9816 30.8593 12.3379 31.2218C12.5629 31.4468 12.8629 31.6718 13.0879 31.7843L13.4629 31.9655L16.7941 31.9843C19.9754 32.003 20.1441 31.9968 20.6691 31.8718C22.1754 31.5155 23.4129 30.5155 24.1129 29.0905C24.6691 27.9655 24.6504 28.1343 24.6504 23.6718V19.7593L24.4629 19.4843C23.9379 18.7468 22.8379 18.6968 22.3816 19.3905C22.2129 19.6405 22.2129 19.6655 22.1816 20.9218L22.1504 22.1968L21.9754 22.3468C21.7629 22.528 21.5566 22.5405 21.3629 22.378L21.2129 22.2593L21.1816 20.2655C21.1504 18.3843 21.1441 18.2655 21.0129 18.028C20.8441 17.7093 20.6566 17.5343 20.3066 17.378C19.9691 17.2218 19.5754 17.2093 19.2629 17.3405C18.9629 17.4655 18.8191 17.5968 18.6754 17.8843C18.5691 18.0843 18.5566 18.2593 18.5566 19.2405C18.5566 19.8593 18.5316 20.4343 18.4941 20.5218C18.3629 20.878 17.9504 20.9593 17.6816 20.6718C17.5629 20.5405 17.5566 20.4593 17.5566 18.7655C17.5566 17.303 17.5379 16.953 17.4566 16.7593C17.1316 15.978 16.0816 15.7718 15.5129 16.3843C15.2441 16.6718 15.1816 16.9343 15.1816 17.8405V18.6968L15.0004 18.878C14.9004 18.978 14.7754 19.0593 14.7191 19.0593C14.5441 19.0593 14.3191 18.9218 14.2504 18.7655C14.2004 18.6593 14.1816 17.3468 14.1816 14.3655C14.1816 10.8343 14.1691 10.0843 14.0941 9.94677C13.8066 9.39052 13.0504 9.15302 12.4629 9.42802Z" fill="white"/>
</svg>
