<svg width="24" height="24" viewBox="0 0 24 24" fill="none" xmlns="http://www.w3.org/2000/svg">
<path d="M21 21.4999V23.9999H2.99998V21.4999C2.99998 19.0189 5.01898 16.9999 7.49998 16.9999H16.5C18.981 16.9999 21 19.0189 21 21.4999ZM6.87198 4.02691C8.40098 2.59391 10.403 1.88591 12.502 2.01591C16.426 2.26991 19.501 5.68491 19.501 9.78991C19.501 11.5599 18.062 12.9989 16.292 12.9989H13.886C13.642 12.1699 12.884 11.5599 11.976 11.5599C10.871 11.5599 9.97598 12.4549 9.97598 13.5599C9.97598 14.6649 10.871 15.5599 11.976 15.5599C12.514 15.5599 13.001 15.3449 13.36 14.9989H16.292C19.164 14.9989 21.501 12.6619 21.501 9.78991C21.5 4.63391 17.604 0.34191 12.63 0.0209097C9.96598 -0.15209 7.43898 0.75291 5.50398 2.56891C3.71698 4.24391 2.64298 6.56491 2.51398 9.00091H4.51698C4.63998 7.09791 5.46498 5.34591 6.87198 4.02691ZM15.1 10.9999H16.468C16.969 10.9999 17.407 10.6319 17.465 10.1339C17.533 9.54691 17.508 8.93191 17.374 8.30291C16.93 6.22391 15.243 4.54691 13.161 4.11891C9.62398 3.39191 6.50198 6.08891 6.50198 9.49991C6.50198 10.9689 7.08098 12.3049 8.02198 13.2919C8.13198 11.1809 9.86298 9.49891 12.001 9.49891C13.259 9.49891 14.367 10.0909 15.1 10.9989V10.9999Z" fill="#E65100"/>
</svg>
