<svg width="32" height="32" viewBox="0 0 32 32" fill="none" xmlns="http://www.w3.org/2000/svg">
<path d="M14.4375 0.0862141C12.3563 0.454966 10.5813 1.36746 9.1375 2.81121C7.8 4.14872 6.90625 5.77997 6.48125 7.67372C6.3625 8.19872 6.34375 8.46747 6.34375 9.68622C6.34375 10.905 6.3625 11.1737 6.48125 11.6987C6.6875 12.5987 6.9 13.1925 7.3125 14.03C8.25625 15.9237 9.76875 17.4362 11.6562 18.3675C12.4688 18.7675 13.2812 19.055 14.125 19.23C14.95 19.405 17.1875 19.3862 18.0125 19.205C18.9062 18.9987 19.5063 18.7862 20.3438 18.3737C22.9875 17.0612 24.8563 14.6487 25.5188 11.6987C25.6375 11.1737 25.6562 10.905 25.6562 9.68622C25.6562 8.46747 25.6375 8.19872 25.5188 7.67372C25.3188 6.79247 25.1063 6.19246 24.6812 5.34247C23.3875 2.71746 20.9625 0.829966 18.0437 0.179964C17.3063 0.0112152 15.1687 -0.0387859 14.4375 0.0862141ZM16.9375 4.49247V5.11121L17.2937 5.22371C18.2875 5.53621 19.0625 6.46122 19.2125 7.51122L19.2563 7.81122H18.35H17.45L17.4062 7.62372C17.3562 7.38622 17.1625 7.14872 16.9187 7.01122C16.7625 6.92997 16.5625 6.90497 15.9688 6.90497C15.1125 6.90497 14.9187 6.97372 14.6938 7.37372C14.4563 7.79872 14.55 8.25497 14.9375 8.58622C15.1188 8.73622 15.1813 8.74872 15.7375 8.74872C16.0688 8.74872 16.5563 8.77997 16.8063 8.81122C18.8313 9.07372 19.9 11.305 18.8125 12.9987C18.4563 13.555 17.8313 14.0112 17.2 14.18L16.9375 14.255V14.8737V15.4987H16.0312H15.1313L15.1125 14.8925L15.0938 14.2862L14.7188 14.155C14.2125 13.98 13.975 13.8487 13.6813 13.58C13.2063 13.1487 12.875 12.5362 12.7875 11.9175L12.7438 11.6237H13.6375H14.5312L14.6438 11.905C14.725 12.0862 14.8375 12.23 14.9875 12.3237C15.1938 12.455 15.2937 12.4675 16 12.4675C16.8938 12.4675 17.0813 12.3987 17.3063 11.9987C17.5437 11.5737 17.45 11.1175 17.0625 10.7862C16.8813 10.6362 16.8188 10.6237 16.2625 10.6237C14.9563 10.6175 14.2688 10.4175 13.6562 9.86122C12.4625 8.77372 12.4563 6.91121 13.6562 5.82996C14.0062 5.51122 14.4125 5.28621 14.8375 5.17997L15.125 5.11121V4.49247V3.87372H16.0312H16.9375V4.49247Z" fill="white"/>
<path d="M8.4375 20.5V22.5625H7.5H6.5625V23.45V24.3438L8.8875 26.6688C10.1688 27.95 11.2438 29 11.2812 29C11.3187 29 12.3938 27.95 13.675 26.6688L16 24.3438V23.45V22.5625H15.0625H14.125V21.8187V21.0687L13.7688 21C13.1813 20.8812 12.3375 20.6375 11.825 20.4312C10.8 20.025 9.53125 19.2875 8.80625 18.6812C8.64375 18.5437 8.49375 18.4375 8.475 18.4375C8.45625 18.4375 8.4375 19.3625 8.4375 20.5Z" fill="white"/>
<path d="M23.3688 18.5375C23.3187 18.6 22.9938 18.85 22.6375 19.1C21.3625 20.0062 19.7438 20.7063 18.2375 21L17.875 21.0687V23.3187V25.5625H16.9375H16V26.4562V27.3438L18.3312 29.675C19.6063 30.95 20.6875 32 20.7188 32C20.7562 32 21.8313 30.95 23.1125 29.6688L25.4375 27.3438V26.45V25.5625H24.5H23.5625V22C23.5625 20 23.5375 18.4375 23.5062 18.4375C23.475 18.4375 23.4125 18.4812 23.3688 18.5375Z" fill="white"/>
</svg>
