<svg width="120" height="40" viewBox="0 0 120 40" fill="none" xmlns="http://www.w3.org/2000/svg">
<rect width="120" height="40" rx="6" fill="#000103"/>
<path d="M24.7045 20.763C24.7166 19.8431 24.9669 18.9411 25.4321 18.141C25.8972 17.3409 26.5621 16.6687 27.3648 16.1869C26.8548 15.4758 26.1821 14.8907 25.4 14.4779C24.6178 14.065 23.7479 13.836 22.8592 13.8088C20.9635 13.6146 19.1258 14.9163 18.1598 14.9163C17.1751 14.9163 15.6878 13.8281 14.0862 13.8603C13.0502 13.893 12.0406 14.1871 11.1557 14.714C10.2708 15.2408 9.54075 15.9825 9.03674 16.8668C6.85352 20.5571 8.48201 25.9808 10.5734 28.9639C11.6197 30.4246 12.8426 32.0562 14.4428 31.9984C16.0086 31.9349 16.5934 31.0235 18.4835 31.0235C20.3561 31.0235 20.9048 31.9984 22.5374 31.9616C24.2176 31.9349 25.2762 30.4944 26.2859 29.0198C27.0377 27.979 27.6162 26.8287 28 25.6115C27.0238 25.2084 26.1908 24.5337 25.6048 23.6715C25.0187 22.8093 24.7056 21.7977 24.7045 20.763Z" fill="white"/>
<path d="M21.6208 11.8471C22.5369 10.7734 22.9883 9.39335 22.879 8C21.4794 8.14352 20.1865 8.7966 19.258 9.82911C18.804 10.3335 18.4563 10.9203 18.2348 11.556C18.0132 12.1917 17.9222 12.8638 17.9669 13.5338C18.6669 13.5408 19.3595 13.3927 19.9924 13.1005C20.6254 12.8084 21.1821 12.3798 21.6208 11.8471Z" fill="white"/>
<path d="M37.728 16.5V15.468H40.044C40.66 15.468 41.2 15.336 41.664 15.072C42.128 14.8 42.488 14.428 42.744 13.956C43.008 13.484 43.14 12.94 43.14 12.324C43.14 11.716 43.008 11.176 42.744 10.704C42.48 10.232 42.116 9.864 41.652 9.6C41.188 9.336 40.652 9.204 40.044 9.204H37.74V8.172H40.068C40.676 8.172 41.236 8.276 41.748 8.484C42.268 8.692 42.716 8.984 43.092 9.36C43.476 9.736 43.772 10.176 43.98 10.68C44.196 11.184 44.304 11.736 44.304 12.336C44.304 12.928 44.196 13.48 43.98 13.992C43.772 14.496 43.48 14.936 43.104 15.312C42.728 15.688 42.28 15.98 41.76 16.188C41.248 16.396 40.692 16.5 40.092 16.5H37.728ZM36.984 16.5V8.172H38.112V16.5H36.984ZM48.2788 16.62C47.7188 16.62 47.2148 16.488 46.7668 16.224C46.3188 15.96 45.9628 15.604 45.6988 15.156C45.4348 14.7 45.3028 14.192 45.3028 13.632C45.3028 13.08 45.4348 12.584 45.6988 12.144C45.9628 11.696 46.3188 11.34 46.7668 11.076C47.2148 10.812 47.7188 10.68 48.2788 10.68C48.8308 10.68 49.3308 10.812 49.7788 11.076C50.2348 11.332 50.5948 11.684 50.8588 12.132C51.1228 12.58 51.2548 13.08 51.2548 13.632C51.2548 14.192 51.1228 14.7 50.8588 15.156C50.5948 15.604 50.2348 15.96 49.7788 16.224C49.3308 16.488 48.8308 16.62 48.2788 16.62ZM48.2788 15.576C48.6388 15.576 48.9588 15.492 49.2388 15.324C49.5188 15.156 49.7388 14.928 49.8988 14.64C50.0588 14.344 50.1388 14.008 50.1388 13.632C50.1388 13.264 50.0548 12.936 49.8868 12.648C49.7268 12.36 49.5068 12.136 49.2268 11.976C48.9548 11.808 48.6388 11.724 48.2788 11.724C47.9188 11.724 47.5988 11.808 47.3188 11.976C47.0388 12.136 46.8188 12.36 46.6588 12.648C46.4988 12.936 46.4188 13.264 46.4188 13.632C46.4188 14.008 46.4988 14.344 46.6588 14.64C46.8188 14.928 47.0388 15.156 47.3188 15.324C47.5988 15.492 47.9188 15.576 48.2788 15.576ZM53.9396 16.5L51.6836 10.8H52.8116L54.4436 15.24H54.0836L55.7036 10.8H56.3276L57.9476 15.24H57.5876L59.2196 10.8H60.3476L58.1036 16.5H57.4676L55.8236 12.192H56.2196L54.5636 16.5H53.9396ZM65.3396 16.5V13.176C65.3396 12.744 65.2036 12.388 64.9316 12.108C64.6596 11.828 64.3076 11.688 63.8756 11.688C63.5876 11.688 63.3316 11.752 63.1076 11.88C62.8836 12.008 62.7076 12.184 62.5796 12.408C62.4516 12.632 62.3876 12.888 62.3876 13.176L61.9436 12.924C61.9436 12.492 62.0396 12.108 62.2316 11.772C62.4236 11.436 62.6916 11.172 63.0356 10.98C63.3796 10.78 63.7676 10.68 64.1996 10.68C64.6316 10.68 65.0116 10.788 65.3396 11.004C65.6756 11.22 65.9396 11.504 66.1316 11.856C66.3236 12.2 66.4196 12.568 66.4196 12.96V16.5H65.3396ZM61.3076 16.5V10.8H62.3876V16.5H61.3076ZM67.8818 16.5V7.932H68.9618V16.5H67.8818ZM73.146 16.62C72.586 16.62 72.082 16.488 71.634 16.224C71.186 15.96 70.83 15.604 70.566 15.156C70.302 14.7 70.17 14.192 70.17 13.632C70.17 13.08 70.302 12.584 70.566 12.144C70.83 11.696 71.186 11.34 71.634 11.076C72.082 10.812 72.586 10.68 73.146 10.68C73.698 10.68 74.198 10.812 74.646 11.076C75.102 11.332 75.462 11.684 75.726 12.132C75.99 12.58 76.122 13.08 76.122 13.632C76.122 14.192 75.99 14.7 75.726 15.156C75.462 15.604 75.102 15.96 74.646 16.224C74.198 16.488 73.698 16.62 73.146 16.62ZM73.146 15.576C73.506 15.576 73.826 15.492 74.106 15.324C74.386 15.156 74.606 14.928 74.766 14.64C74.926 14.344 75.006 14.008 75.006 13.632C75.006 13.264 74.922 12.936 74.754 12.648C74.594 12.36 74.374 12.136 74.094 11.976C73.822 11.808 73.506 11.724 73.146 11.724C72.786 11.724 72.466 11.808 72.186 11.976C71.906 12.136 71.686 12.36 71.526 12.648C71.366 12.936 71.286 13.264 71.286 13.632C71.286 14.008 71.366 14.344 71.526 14.64C71.686 14.928 71.906 15.156 72.186 15.324C72.466 15.492 72.786 15.576 73.146 15.576ZM79.7629 16.62C79.2429 16.62 78.7709 16.492 78.3469 16.236C77.9229 15.972 77.5869 15.616 77.3389 15.168C77.0989 14.72 76.9789 14.216 76.9789 13.656C76.9789 13.096 77.0989 12.592 77.3389 12.144C77.5869 11.696 77.9189 11.34 78.3349 11.076C78.7589 10.812 79.2349 10.68 79.7629 10.68C80.1949 10.68 80.5789 10.772 80.9149 10.956C81.2589 11.132 81.5349 11.38 81.7429 11.7C81.9509 12.012 82.0669 12.376 82.0909 12.792V14.508C82.0669 14.916 81.9509 15.28 81.7429 15.6C81.5429 15.92 81.2709 16.172 80.9269 16.356C80.5909 16.532 80.2029 16.62 79.7629 16.62ZM79.9429 15.6C80.4789 15.6 80.9109 15.42 81.2389 15.06C81.5669 14.692 81.7309 14.224 81.7309 13.656C81.7309 13.264 81.6549 12.924 81.5029 12.636C81.3589 12.34 81.1509 12.112 80.8789 11.952C80.6069 11.784 80.2909 11.7 79.9309 11.7C79.5709 11.7 79.2509 11.784 78.9709 11.952C78.6989 12.12 78.4829 12.352 78.3229 12.648C78.1709 12.936 78.0949 13.268 78.0949 13.644C78.0949 14.028 78.1709 14.368 78.3229 14.664C78.4829 14.952 78.7029 15.18 78.9829 15.348C79.2629 15.516 79.5829 15.6 79.9429 15.6ZM81.6589 16.5V14.964L81.8629 13.572L81.6589 12.192V10.8H82.7509V16.5H81.6589ZM86.7353 16.62C86.2073 16.62 85.7353 16.492 85.3193 16.236C84.9033 15.972 84.5713 15.616 84.3232 15.168C84.0833 14.72 83.9633 14.216 83.9633 13.656C83.9633 13.096 84.0833 12.592 84.3232 12.144C84.5713 11.696 84.9033 11.34 85.3193 11.076C85.7353 10.812 86.2073 10.68 86.7353 10.68C87.1593 10.68 87.5433 10.772 87.8873 10.956C88.2313 11.132 88.5073 11.38 88.7153 11.7C88.9313 12.012 89.0513 12.376 89.0753 12.792V14.508C89.0513 14.916 88.9353 15.28 88.7273 15.6C88.5193 15.92 88.2433 16.172 87.8993 16.356C87.5553 16.532 87.1673 16.62 86.7353 16.62ZM86.9153 15.6C87.2753 15.6 87.5873 15.516 87.8513 15.348C88.1233 15.18 88.3353 14.952 88.4873 14.664C88.6393 14.368 88.7153 14.032 88.7153 13.656C88.7153 13.264 88.6353 12.924 88.4753 12.636C88.3233 12.348 88.1113 12.12 87.8393 11.952C87.5753 11.784 87.2633 11.7 86.9033 11.7C86.5433 11.7 86.2273 11.784 85.9553 11.952C85.6833 12.12 85.4673 12.352 85.3073 12.648C85.1553 12.936 85.0793 13.268 85.0793 13.644C85.0793 14.028 85.1553 14.368 85.3073 14.664C85.4673 14.952 85.6833 15.18 85.9553 15.348C86.2353 15.516 86.5553 15.6 86.9153 15.6ZM89.7353 16.5H88.6433V14.964L88.8473 13.572L88.6433 12.192V7.932H89.7353V16.5ZM96.4077 16.62C95.8477 16.62 95.3437 16.488 94.8957 16.224C94.4477 15.96 94.0917 15.604 93.8277 15.156C93.5637 14.7 93.4317 14.192 93.4317 13.632C93.4317 13.08 93.5637 12.584 93.8277 12.144C94.0917 11.696 94.4477 11.34 94.8957 11.076C95.3437 10.812 95.8477 10.68 96.4077 10.68C96.9597 10.68 97.4597 10.812 97.9077 11.076C98.3637 11.332 98.7237 11.684 98.9877 12.132C99.2517 12.58 99.3837 13.08 99.3837 13.632C99.3837 14.192 99.2517 14.7 98.9877 15.156C98.7237 15.604 98.3637 15.96 97.9077 16.224C97.4597 16.488 96.9597 16.62 96.4077 16.62ZM96.4077 15.576C96.7677 15.576 97.0877 15.492 97.3677 15.324C97.6477 15.156 97.8677 14.928 98.0277 14.64C98.1877 14.344 98.2677 14.008 98.2677 13.632C98.2677 13.264 98.1837 12.936 98.0157 12.648C97.8557 12.36 97.6357 12.136 97.3557 11.976C97.0837 11.808 96.7677 11.724 96.4077 11.724C96.0477 11.724 95.7277 11.808 95.4477 11.976C95.1677 12.136 94.9477 12.36 94.7877 12.648C94.6277 12.936 94.5477 13.264 94.5477 13.632C94.5477 14.008 94.6277 14.344 94.7877 14.64C94.9477 14.928 95.1677 15.156 95.4477 15.324C95.7277 15.492 96.0477 15.576 96.4077 15.576ZM104.633 16.5V13.176C104.633 12.744 104.497 12.388 104.225 12.108C103.953 11.828 103.601 11.688 103.169 11.688C102.881 11.688 102.625 11.752 102.401 11.88C102.177 12.008 102.001 12.184 101.873 12.408C101.745 12.632 101.681 12.888 101.681 13.176L101.237 12.924C101.237 12.492 101.333 12.108 101.525 11.772C101.717 11.436 101.985 11.172 102.329 10.98C102.673 10.78 103.061 10.68 103.493 10.68C103.925 10.68 104.305 10.788 104.633 11.004C104.969 11.22 105.233 11.504 105.425 11.856C105.617 12.2 105.713 12.568 105.713 12.96V16.5H104.633ZM100.601 16.5V10.8H101.681V16.5H100.601Z" fill="white"/>
<path d="M36.28 31.5L40.242 21.658H41.796L45.744 31.5H43.714L40.662 23.422H41.362L38.268 31.5H36.28ZM38.38 29.666V28.07H43.672V29.666H38.38ZM50.5718 31.64C50.0865 31.64 49.6478 31.542 49.2558 31.346C48.8638 31.1407 48.5511 30.8653 48.3178 30.52C48.0845 30.1747 47.9585 29.778 47.9398 29.33V26.936C47.9585 26.488 48.0845 26.0913 48.3178 25.746C48.5605 25.3913 48.8731 25.1113 49.2558 24.906C49.6478 24.7007 50.0865 24.598 50.5718 24.598C51.1971 24.598 51.7571 24.752 52.2518 25.06C52.7465 25.368 53.1338 25.788 53.4138 26.32C53.7031 26.852 53.8478 27.454 53.8478 28.126C53.8478 28.7887 53.7031 29.386 53.4138 29.918C53.1338 30.45 52.7465 30.87 52.2518 31.178C51.7571 31.486 51.1971 31.64 50.5718 31.64ZM46.8198 34.328V24.738H48.6538V26.516L48.3458 28.154L48.6398 29.792V34.328H46.8198ZM50.2498 29.946C50.5858 29.946 50.8845 29.8713 51.1458 29.722C51.4071 29.5633 51.6078 29.3487 51.7478 29.078C51.8971 28.798 51.9718 28.476 51.9718 28.112C51.9718 27.7573 51.8971 27.4447 51.7478 27.174C51.6078 26.894 51.4071 26.6793 51.1458 26.53C50.8845 26.3713 50.5858 26.292 50.2498 26.292C49.9231 26.292 49.6291 26.3713 49.3678 26.53C49.1065 26.6793 48.9011 26.894 48.7518 27.174C48.6118 27.4447 48.5418 27.7573 48.5418 28.112C48.5418 28.476 48.6118 28.798 48.7518 29.078C48.9011 29.3487 49.1018 29.5633 49.3538 29.722C49.6151 29.8713 49.9138 29.946 50.2498 29.946ZM58.8023 31.64C58.3169 31.64 57.8783 31.542 57.4863 31.346C57.0943 31.1407 56.7816 30.8653 56.5483 30.52C56.3149 30.1747 56.1889 29.778 56.1703 29.33V26.936C56.1889 26.488 56.3149 26.0913 56.5483 25.746C56.7909 25.3913 57.1036 25.1113 57.4863 24.906C57.8783 24.7007 58.3169 24.598 58.8023 24.598C59.4276 24.598 59.9876 24.752 60.4823 25.06C60.9769 25.368 61.3643 25.788 61.6443 26.32C61.9336 26.852 62.0783 27.454 62.0783 28.126C62.0783 28.7887 61.9336 29.386 61.6443 29.918C61.3643 30.45 60.9769 30.87 60.4823 31.178C59.9876 31.486 59.4276 31.64 58.8023 31.64ZM55.0503 34.328V24.738H56.8843V26.516L56.5763 28.154L56.8703 29.792V34.328H55.0503ZM58.4803 29.946C58.8163 29.946 59.1149 29.8713 59.3763 29.722C59.6376 29.5633 59.8383 29.3487 59.9783 29.078C60.1276 28.798 60.2023 28.476 60.2023 28.112C60.2023 27.7573 60.1276 27.4447 59.9783 27.174C59.8383 26.894 59.6376 26.6793 59.3763 26.53C59.1149 26.3713 58.8163 26.292 58.4803 26.292C58.1536 26.292 57.8596 26.3713 57.5983 26.53C57.3369 26.6793 57.1316 26.894 56.9823 27.174C56.8423 27.4447 56.7723 27.7573 56.7723 28.112C56.7723 28.476 56.8423 28.798 56.9823 29.078C57.1316 29.3487 57.3323 29.5633 57.5843 29.722C57.8456 29.8713 58.1443 29.946 58.4803 29.946ZM69.0671 31.64C68.2738 31.64 67.5925 31.5047 67.0231 31.234C66.4631 30.9633 65.9545 30.5573 65.4971 30.016L66.7571 28.756C67.0465 29.1387 67.3825 29.4373 67.7651 29.652C68.1478 29.8573 68.6145 29.96 69.1651 29.96C69.6598 29.96 70.0518 29.862 70.3411 29.666C70.6398 29.47 70.7891 29.1993 70.7891 28.854C70.7891 28.5553 70.7051 28.3127 70.5371 28.126C70.3691 27.9393 70.1451 27.7807 69.8651 27.65C69.5945 27.5193 69.2911 27.4027 68.9551 27.3C68.6285 27.188 68.2971 27.062 67.9611 26.922C67.6345 26.782 67.3311 26.6093 67.0511 26.404C66.7805 26.1893 66.5611 25.9187 66.3931 25.592C66.2251 25.256 66.1411 24.836 66.1411 24.332C66.1411 23.7347 66.2858 23.226 66.5751 22.806C66.8645 22.386 67.2611 22.064 67.7651 21.84C68.2691 21.616 68.8385 21.504 69.4731 21.504C70.1451 21.504 70.7518 21.63 71.2931 21.882C71.8345 22.134 72.2778 22.4607 72.6231 22.862L71.3631 24.122C71.0738 23.8047 70.7751 23.5713 70.4671 23.422C70.1685 23.2727 69.8278 23.198 69.4451 23.198C69.0065 23.198 68.6611 23.282 68.4091 23.45C68.1571 23.618 68.0311 23.8607 68.0311 24.178C68.0311 24.4487 68.1151 24.668 68.2831 24.836C68.4511 25.004 68.6705 25.1487 68.9411 25.27C69.2211 25.3913 69.5245 25.508 69.8511 25.62C70.1871 25.732 70.5185 25.858 70.8451 25.998C71.1811 26.138 71.4845 26.32 71.7551 26.544C72.0351 26.768 72.2591 27.0573 72.4271 27.412C72.5951 27.7573 72.6791 28.1867 72.6791 28.7C72.6791 29.6147 72.3571 30.3333 71.7131 30.856C71.0691 31.3787 70.1871 31.64 69.0671 31.64ZM74.9798 31.5V21.924H76.8138V31.5H74.9798ZM73.3978 26.348V24.738H78.3958V26.348H73.3978ZM82.4412 31.64C81.7598 31.64 81.1438 31.486 80.5932 31.178C80.0518 30.8607 79.6178 30.436 79.2912 29.904C78.9738 29.3627 78.8152 28.7607 78.8152 28.098C78.8152 27.4353 78.9738 26.8427 79.2912 26.32C79.6085 25.788 80.0425 25.368 80.5932 25.06C81.1438 24.7427 81.7552 24.584 82.4272 24.584C83.1178 24.584 83.7338 24.7427 84.2752 25.06C84.8258 25.368 85.2598 25.788 85.5772 26.32C85.8945 26.8427 86.0532 27.4353 86.0532 28.098C86.0532 28.7607 85.8945 29.3627 85.5772 29.904C85.2598 30.436 84.8258 30.8607 84.2752 31.178C83.7338 31.486 83.1225 31.64 82.4412 31.64ZM82.4272 29.932C82.7725 29.932 83.0758 29.8573 83.3372 29.708C83.6078 29.5493 83.8132 29.3347 83.9532 29.064C84.1025 28.784 84.1772 28.4667 84.1772 28.112C84.1772 27.7573 84.1025 27.4447 83.9532 27.174C83.8038 26.9033 83.5985 26.6933 83.3372 26.544C83.0758 26.3853 82.7725 26.306 82.4272 26.306C82.0912 26.306 81.7925 26.3853 81.5312 26.544C81.2698 26.6933 81.0645 26.9033 80.9152 27.174C80.7658 27.4447 80.6912 27.7573 80.6912 28.112C80.6912 28.4667 80.7658 28.784 80.9152 29.064C81.0645 29.3347 81.2698 29.5493 81.5312 29.708C81.7925 29.8573 82.0912 29.932 82.4272 29.932ZM87.2339 31.5V24.738H89.0679V31.5H87.2339ZM89.0679 27.762L88.3539 27.286C88.4379 26.4553 88.6805 25.802 89.0819 25.326C89.4832 24.8407 90.0619 24.598 90.8179 24.598C91.1445 24.598 91.4385 24.654 91.6999 24.766C91.9612 24.8687 92.1992 25.0413 92.4139 25.284L91.2659 26.6C91.1632 26.488 91.0372 26.404 90.8879 26.348C90.7479 26.292 90.5845 26.264 90.3979 26.264C90.0059 26.264 89.6839 26.39 89.4319 26.642C89.1892 26.8847 89.0679 27.258 89.0679 27.762ZM96.1007 31.64C95.3914 31.64 94.7614 31.4907 94.2107 31.192C93.66 30.884 93.2214 30.464 92.8947 29.932C92.5774 29.4 92.4187 28.7933 92.4187 28.112C92.4187 27.44 92.5727 26.8427 92.8807 26.32C93.198 25.788 93.6274 25.368 94.1687 25.06C94.71 24.7427 95.312 24.584 95.9747 24.584C96.628 24.584 97.202 24.7333 97.6967 25.032C98.2007 25.3213 98.5927 25.7227 98.8727 26.236C99.162 26.74 99.3067 27.314 99.3067 27.958C99.3067 28.0793 99.2974 28.2053 99.2787 28.336C99.2694 28.4573 99.246 28.5973 99.2087 28.756L93.5247 28.77V27.398L98.3547 27.384L97.6127 27.958C97.594 27.5567 97.5194 27.2207 97.3887 26.95C97.2674 26.6793 97.0854 26.474 96.8427 26.334C96.6094 26.1847 96.32 26.11 95.9747 26.11C95.6107 26.11 95.2934 26.194 95.0227 26.362C94.752 26.5207 94.542 26.7493 94.3927 27.048C94.2527 27.3373 94.1827 27.6827 94.1827 28.084C94.1827 28.4947 94.2574 28.854 94.4067 29.162C94.5654 29.4607 94.7894 29.694 95.0787 29.862C95.368 30.0207 95.704 30.1 96.0867 30.1C96.432 30.1 96.7447 30.044 97.0247 29.932C97.3047 29.8107 97.5474 29.6333 97.7527 29.4L98.8307 30.478C98.504 30.8607 98.1027 31.15 97.6267 31.346C97.16 31.542 96.6514 31.64 96.1007 31.64Z" fill="white"/>
</svg>
