<svg width="71" height="74" viewBox="0 0 71 74" fill="none" xmlns="http://www.w3.org/2000/svg">
<g opacity="0.3">
<path fill-rule="evenodd" clip-rule="evenodd" d="M16.7644 57.0386L33.8664 59.9467C37.3223 60.5344 39.3048 58.8315 39.8133 54.8383L42.3301 35.0773C42.8389 31.0837 41.3649 28.7934 37.9091 28.2058L20.8071 25.2976C17.3509 24.7097 15.3689 26.4125 14.8602 30.406L12.3434 50.1671C11.8346 54.1606 13.3086 56.4509 16.7644 57.0386Z" fill="#CEE6FD"/>
<path fill-rule="evenodd" clip-rule="evenodd" d="M35.5384 40.3628C34.2389 40.1419 33.6844 39.2802 33.8759 37.779L35.9635 21.3865C36.1546 19.885 36.9002 19.2452 38.1997 19.466L52.3863 21.8782C53.6858 22.099 54.2397 22.9602 54.0486 24.4617L51.961 40.8542C51.7699 42.3557 51.0246 42.9963 49.7251 42.7755L35.5384 40.3628ZM29.1737 36.9794C28.5212 42.103 30.412 45.0418 34.8467 45.7957L49.0333 48.2078C53.4675 48.9618 56.0108 46.777 56.6633 41.6534L58.7509 25.2609C59.4035 20.1373 57.5126 17.1985 53.0785 16.4446L38.8918 14.0324C34.4572 13.2786 31.9138 15.4634 31.2613 20.587L29.1737 36.9794Z" fill="#2B4CD3"/>
</g>
</svg>
