<svg width="51" height="51" viewBox="0 0 51 51" fill="none" xmlns="http://www.w3.org/2000/svg">
<g clip-path="url(#clip0_8020_4442)">
<path d="M33.4315 1.13924C32.3708 1.59351 31.7333 2.0665 30.9333 2.9724C29.76 4.31293 29.1686 5.90742 29.2667 7.51554C29.3613 9.06822 29.9552 10.6127 30.9678 11.9202C31.2342 12.2824 31.464 12.5913 31.4654 12.6134C31.4668 12.6356 30.964 13.1338 30.345 13.7281C28.1189 15.8341 24.2976 19.8295 19.2994 25.2882C15.0402 29.9337 14.2271 30.807 13.8055 31.1778L13.4254 31.5015L12.5857 31.2076C11.1094 30.6742 10.3026 30.5564 8.6277 30.5917C6.79726 30.6253 6.14012 30.7767 5.03491 31.4118C3.66186 32.2079 2.55878 33.789 2.16361 35.5052C1.9702 36.3407 2.10134 38.4922 2.39479 39.2981C2.98372 40.9431 4.18307 42.2169 5.70903 42.8364C6.60817 43.1934 7.78756 43.411 8.65062 43.3584C9.54688 43.3038 9.57036 43.3246 9.62241 44.1786C9.76234 46.4743 11.1562 48.5712 13.1092 49.454C14.1824 49.934 15.0804 50.0908 16.3308 50.0146C18.245 49.8979 19.6164 49.2577 20.7897 47.9172C21.5994 46.9884 22.066 46.0806 22.2764 44.9769C22.5815 43.4221 22.0591 40.6821 21.073 38.7163L20.6806 37.9276L24.3009 33.7329C26.2929 31.4296 30.0731 27.125 32.7016 24.1485L37.4708 18.7595L38.2884 19.0547C40.8677 20.0107 44.0923 19.8921 46.0571 18.7816C47.0335 18.2211 47.8633 17.2578 48.2887 16.2189C48.6828 15.2152 48.7938 14.4849 48.7194 13.265C48.5971 11.2576 47.9925 9.90295 46.7494 8.82103C45.4834 7.72936 44.4977 7.41095 42.3541 7.40803L41.1765 7.40188L41.0429 6.48609C40.9006 5.42612 40.3731 3.87757 39.9046 3.11577C39.363 2.24711 38.4127 1.41449 37.5578 1.05472C36.8508 0.75273 36.7167 0.73864 35.4643 0.781577C34.3011 0.83021 34.048 0.867901 33.4315 1.13924ZM36.758 2.32796C37.6813 2.71695 38.6434 3.55998 39.1035 4.36682C39.527 5.12023 39.7633 6.26353 39.7532 7.55542C39.7372 9.11484 39.6902 9.07318 41.6044 8.9565C43.4633 8.8432 44.2591 8.96168 45.1117 9.4663C47.4981 10.9016 47.9664 14.758 45.9921 16.8041C45.2393 17.5735 44.472 17.9209 43.1704 18.067C41.8584 18.2249 40.6824 18.0628 38.8798 17.4602C38.1091 17.2067 37.3308 17.0092 37.1648 17.0193C36.7111 17.047 35.939 17.8621 28.112 26.6546C21.1896 34.4346 18.7952 37.241 18.7109 37.6803C18.6768 37.8493 18.8869 38.382 19.2931 39.2144C20.0398 40.7161 20.3229 41.5338 20.4804 42.6596C20.7071 44.1931 20.3366 45.5849 19.4535 46.5849C17.7601 48.5026 14.9011 48.7882 13.1275 47.2042C11.9424 46.1633 11.5345 45.1195 11.4573 42.9424C11.4002 41.2761 11.4236 41.297 9.79711 41.3961C8.24802 41.4905 7.32017 41.3912 6.47703 41.0419C5.54267 40.6536 4.87344 40.0598 4.39822 39.1871C4.03542 38.5191 3.99344 38.3769 3.93125 37.3566C3.8808 36.3467 3.89279 36.179 4.17177 35.4718C4.57633 34.4564 5.34308 33.5525 6.30716 32.9706C7.02417 32.5262 7.15492 32.4848 8.18193 32.3888C9.59486 32.247 10.5475 32.3893 12.1268 32.9721C12.7965 33.2096 13.543 33.4312 13.7885 33.4497L14.2234 33.4788L19.2185 27.7866C25.0024 21.1892 27.5299 18.1965 29.7328 15.3461C30.5974 14.2248 31.4335 13.1831 31.6011 13.017L31.894 12.7209L31.5224 11.9087C30.5366 9.76467 30.0523 7.46766 30.2893 6.07288C30.5103 4.77926 31.1633 3.64855 32.0881 2.96881C33.024 2.28839 33.6335 2.08426 34.8858 2.04132C35.8837 2.0139 36.0745 2.0468 36.758 2.32796Z" fill="#FFC269"/>
<path d="M35.0642 8.43157C35.022 8.46754 35.0097 8.81337 35.0334 9.20153C35.1814 11.6304 37.3918 13.8222 39.7028 13.8372C40.7802 13.8383 41.0853 13.7418 41.0643 13.398C41.0379 12.9654 40.5468 12.5612 39.3569 11.9881C37.9949 11.3253 37.3159 10.7544 36.63 9.70533C35.8475 8.52853 35.3447 8.11391 35.0642 8.43157Z" fill="#FFC269"/>
<path d="M10.4054 36.9852C10.1909 37.1096 10.0253 37.3089 10.0113 37.4433C9.9903 37.645 10.1637 37.7569 11.0753 38.1354C12.3966 38.6783 13.3567 39.488 14.2365 40.8036C15.2026 42.2586 15.5024 42.4407 15.9106 41.8481C16.2473 41.3601 16.1422 40.3646 15.6677 39.503C14.6434 37.6397 11.6802 36.2173 10.4054 36.9852Z" fill="#FFC269"/>
<path d="M17.8209 7.59066C17.7097 7.95365 17.93 9.19811 18.2778 10.1676C18.5568 10.9187 19.063 11.3888 19.4767 11.2523C19.869 11.1282 20.1086 10.8687 20.154 10.5208C20.2366 9.87014 19.2916 7.668 18.8459 7.4614C18.7429 7.41202 18.4837 7.34989 18.2929 7.317C17.9569 7.27068 17.914 7.29556 17.8209 7.59066Z" fill="#FFC269"/>
<path d="M10.8552 12.6572C10.7903 13.0507 11.1477 13.63 11.9032 14.3632C12.8354 15.2637 13.3764 15.5758 13.8965 15.5441C14.2837 15.5205 14.337 15.4839 14.4696 15.1085C14.687 14.483 14.5332 14.1473 13.7174 13.5179C12.4009 12.5073 12.0339 12.3181 11.4475 12.3539C10.9717 12.3829 10.9074 12.4202 10.8552 12.6572Z" fill="#FFC269"/>
<path d="M7.49414 19.83C7.29767 19.8865 7.04022 20.0358 6.93566 20.1423C6.44467 20.6509 6.8529 20.9711 8.56992 21.4453C9.89155 21.81 11.0685 21.8051 11.302 21.4458C11.6056 20.9597 11.3182 20.2537 10.7183 20.0676C9.91372 19.805 8.02888 19.675 7.49414 19.83Z" fill="#FFC269"/>
<path d="M40.3226 28.9261C40.1162 29.1836 40.1114 29.6514 40.2977 29.974C40.4826 30.2744 41.0161 30.4645 41.9681 30.5957C43.2216 30.7531 43.8067 30.6952 44.0755 30.3671C44.5098 29.8397 44.3766 29.6586 43.1803 29.1638C42.2687 28.7852 41.9417 28.7049 41.2862 28.7004C40.6085 28.6971 40.4771 28.7274 40.3226 28.9261Z" fill="#FFC269"/>
<path d="M36.7898 35.4649C36.6017 36.0218 36.6373 36.2423 36.9936 36.6213C37.3609 36.9996 38.4511 37.757 38.9763 37.9921C39.695 38.3045 40.4436 38.014 40.2452 37.4918C40.0434 36.9141 39.0202 35.7965 38.2457 35.2982C37.9341 35.1057 37.6624 35.0221 37.3637 35.0403C36.9764 35.0639 36.9238 35.1116 36.7898 35.4649Z" fill="#FFC269"/>
<path d="M31.124 39.2619C30.7744 39.5392 30.7619 40.0632 31.0815 40.9342C31.6775 42.512 32.3713 43.3269 33.0291 43.1866C33.2373 43.1405 33.2658 43.0608 33.2638 42.4821C33.2502 41.3475 32.7421 39.7532 32.2208 39.2173C31.9963 38.9972 31.4314 39.0205 31.124 39.2619Z" fill="#FFC269"/>
</g>
<defs>
<clipPath id="clip0_8020_4442">
<rect width="48" height="48" fill="white" transform="translate(0 2.92019) rotate(-3.48787)"/>
</clipPath>
</defs>
</svg>
