<svg width="32" height="32" viewBox="0 0 32 32" fill="none" xmlns="http://www.w3.org/2000/svg">
<g clip-path="url(#clip0_7983_3740)">
<path d="M17.6933 25.9733C16.6093 27.0573 16 28.5267 16 30.06V32H17.94C19.4733 32 20.9427 31.3907 22.0267 30.3067L31.1027 21.2307C32.2987 20.0347 32.2987 18.0933 31.1027 16.8973C29.9067 15.7013 27.9653 15.7013 26.7693 16.8973L17.6933 25.9733ZM32 10.6667H0V9.33333C0 5.65733 2.99067 2.66667 6.66667 2.66667H8V1.33333C8 0.597333 8.596 0 9.33333 0C10.0707 0 10.6667 0.597333 10.6667 1.33333V2.66667H21.3333V1.33333C21.3333 0.597333 21.9293 0 22.6667 0C23.404 0 24 0.597333 24 1.33333V2.66667H25.3333C29.0093 2.66667 32 5.65733 32 9.33333V10.6667ZM0 13.3333H28.476C27.3573 13.468 26.2533 13.976 25.2867 14.9427L15.6773 24.552C14.1653 26.0627 13.3333 28.072 13.3333 30.2093V32H6.66667C2.98533 32 0 29.0147 0 25.3333V13.3333Z" fill="#316DFF"/>
</g>
<defs>
<clipPath id="clip0_7983_3740">
<rect width="32" height="32" fill="white"/>
</clipPath>
</defs>
</svg>
