<svg width="35" height="32" viewBox="0 0 35 32" fill="none" xmlns="http://www.w3.org/2000/svg">
<path d="M10.7441 0.0158682C8.2832 0.164306 6.11914 1.15649 4.44727 2.89868C3.67383 3.71118 3.21289 4.37524 2.73633 5.35962C2.14258 6.60962 1.79883 8.13306 1.79883 9.54712V10.0393H1.05664C0.416016 10.0393 0.291016 10.0627 0.158203 10.1956C-0.0527344 10.4065 -0.0527344 10.9221 0.158203 11.1331C0.314453 11.2893 0.416016 11.2893 6.08789 11.2893H11.8535L11.8926 10.4846C11.9551 9.31274 12.2285 8.78931 13.0098 8.36743C13.3145 8.20337 13.377 8.20337 17.502 8.20337C21.627 8.20337 21.6895 8.20337 21.9941 8.36743C22.7754 8.78931 23.0488 9.31274 23.1113 10.4846L23.1504 11.2893H28.916C34.5879 11.2893 34.6895 11.2893 34.8457 11.1331C34.9473 11.0315 35.002 10.8752 35.002 10.6643C35.002 10.1409 34.8301 10.0393 33.9473 10.0393H33.2051V9.50806C33.2051 8.79712 33.0098 7.46899 32.8145 6.75806C32.6035 6.01587 32.0723 4.88306 31.5879 4.15649C30.7988 2.96899 29.4238 1.73462 28.166 1.07837C26.7598 0.351806 25.4395 0.0314932 23.791 0.0236807C22.6348 0.0158682 21.8848 0.140868 20.5723 0.547118C18.3926 1.21118 16.6348 1.20337 14.3301 0.515868C12.9707 0.109618 11.8223 -0.0544443 10.7441 0.0158682ZM11.6504 3.04712C12.7285 3.56274 13.9082 3.95337 15.0957 4.19556C15.8379 4.34399 16.2285 4.37524 17.502 4.37524C18.8066 4.37524 19.1582 4.35181 19.9238 4.18774C21.1191 3.93774 22.2598 3.55493 23.3926 3.02368C24.2676 2.60962 24.3223 2.59399 24.5176 2.70337C24.8066 2.85962 24.916 3.19556 24.7598 3.46118C24.4941 3.93774 21.8535 4.99243 20.002 5.36743C19.2363 5.51587 18.8613 5.54712 17.502 5.54712C15.791 5.54712 14.9707 5.43774 13.5566 5.00806C12.291 4.63306 10.5801 3.89087 10.2832 3.59399C10.0801 3.39087 10.1191 2.96899 10.3613 2.78149C10.4785 2.68774 10.6113 2.61743 10.666 2.61743C10.7207 2.61743 11.166 2.81274 11.6504 3.04712Z" fill="#151515"/>
<path d="M15.1582 10.1956C15.0332 10.3206 15.002 10.4534 15.002 10.8206V11.2893H14.5332C13.9473 11.2893 13.752 11.4456 13.752 11.9143C13.752 12.3831 13.9473 12.5393 14.5332 12.5393H15.002V13.0081C15.002 13.594 15.1582 13.7893 15.627 13.7893C16.0957 13.7893 16.252 13.594 16.252 13.0081V12.5393H17.502H18.752V13.0081C18.752 13.594 18.9082 13.7893 19.377 13.7893C19.8457 13.7893 20.002 13.594 20.002 13.0081V12.5393H20.4707C21.0566 12.5393 21.252 12.3831 21.252 11.9143C21.252 11.4456 21.0566 11.2893 20.4707 11.2893H20.002V10.8206C20.002 10.2346 19.8457 10.0393 19.377 10.0393C18.9082 10.0393 18.752 10.2346 18.752 10.8206V11.2893H17.502H16.252V10.8206C16.252 10.2346 16.0957 10.0393 15.627 10.0393C15.416 10.0393 15.2598 10.094 15.1582 10.1956Z" fill="#151515"/>
<path d="M2.61133 13.1488C2.95508 13.9456 3.33789 14.5706 4.11133 15.5941C5.13477 16.93 5.6582 17.93 6.16602 19.5081C6.54883 20.7191 6.77539 21.6878 7.54883 25.5394C8.35352 29.555 8.4082 29.7425 9.04102 30.3831C10.5645 31.9144 13.1973 31.5238 14.0957 29.6253C14.3613 29.0706 14.6113 28.1566 15.3926 24.8675C15.8535 22.9144 15.9941 22.6253 16.6582 22.2659C17.4473 21.8284 18.4082 22.0316 18.9551 22.7581C19.1816 23.0394 19.291 23.4222 19.9551 26.1488C20.4238 28.0472 20.791 29.3753 20.916 29.6331C21.1816 30.1566 21.8301 30.7659 22.4004 31.0394C22.8066 31.2269 22.9395 31.2503 23.7129 31.2503C24.5332 31.2503 24.6035 31.2347 25.0957 30.9925C25.6504 30.7191 26.2363 30.2113 26.4395 29.8206C26.6816 29.3441 26.9785 28.1253 27.7051 24.5316C28.1113 22.5159 28.5176 20.5863 28.6035 20.2581C29.002 18.68 29.6504 17.2738 30.5488 16.055C31.791 14.3441 32.1191 13.8128 32.5254 12.8284L32.6504 12.5394H27.9004H23.1504L23.1113 13.3441C23.0566 14.305 22.9082 14.7113 22.4473 15.1253C21.8848 15.6331 21.9551 15.6253 17.4629 15.6253C13.4941 15.6253 13.3926 15.6175 13.0488 15.4613C12.252 15.0863 11.9551 14.5472 11.8926 13.3441L11.8535 12.5394H7.10352H2.35352L2.61133 13.1488Z" fill="#151515"/>
</svg>
