<svg width="48" height="48" viewBox="0 0 48 48" fill="none" xmlns="http://www.w3.org/2000/svg">
<path d="M23.3813 0.168747C23.2781 0.253124 22.9313 0.684372 22.6219 1.125C19.9969 4.8 16.95 7.43437 14.25 8.35312C13.4625 8.625 13.2188 8.6625 12.0844 8.7C10.6031 8.74687 9.3 8.57812 7.86563 8.14687C6.675 7.79062 6.34688 7.79062 5.99063 8.14687L5.71875 8.41875V15.7219C5.71875 23.4 5.74688 24.2062 6.15 26.4375C7.64063 34.7344 13.0125 42.2344 20.7844 46.8937C22.3031 47.8031 22.8844 48 24 48C25.1156 48 25.6969 47.8031 27.2156 46.8937C34.7344 42.3844 40.125 35.0625 41.7094 27.1781C42.225 24.6 42.2156 24.7969 42.2531 16.3312L42.2906 8.4375L42.0094 8.15625C41.6531 7.79062 41.3344 7.79062 40.1344 8.14687C38.7 8.57812 37.3969 8.74687 35.9156 8.7C34.7813 8.6625 34.5375 8.625 33.75 8.35312C31.0313 7.425 28.0688 4.85625 25.3125 1.03125C24.6562 0.112499 24.5156 0 24 0C23.7375 0 23.5031 0.0656242 23.3813 0.168747ZM24.8438 3.72187C27.9094 7.59375 31.3313 10.0406 34.4625 10.5938C35.4281 10.7625 38.1188 10.6687 39.2812 10.4156C39.7688 10.3125 40.2094 10.2188 40.2469 10.2188C40.2938 10.2188 40.3031 13.3312 40.2844 17.1281C40.2469 24.6094 40.2469 24.6094 39.6938 27.075C39.2156 29.2219 38.5781 30.9937 37.5375 33.0937C35.0531 38.1 30.7969 42.5437 25.6031 45.525C24.8156 45.975 24.7969 45.9844 24 45.9844C23.2031 45.9844 23.1844 45.975 22.3969 45.525C15 41.2781 9.85313 34.425 8.2125 26.6531C7.73438 24.3562 7.6875 23.5312 7.6875 16.6125C7.6875 13.0969 7.71563 10.2188 7.7625 10.2188C7.8 10.2188 8.23125 10.3125 8.71875 10.4156C9.84375 10.6594 12.6469 10.7719 13.5188 10.6031C15.1594 10.2937 16.9594 9.45 18.6094 8.23125C19.8469 7.3125 22.05 5.12812 23.1562 3.72187C23.5875 3.16875 23.9719 2.71875 24 2.71875C24.0281 2.71875 24.4125 3.16875 24.8438 3.72187Z" fill="white"/>
<path d="M20.4281 15.3656L20.1562 15.6375V17.8969V20.1562H17.8969H15.6375L15.3656 20.4281L15.0938 20.7V24V27.3L15.3656 27.5719L15.6375 27.8438H17.8969H20.1562V30.1031V32.3625L20.4281 32.6344L20.7 32.9062H24H27.3L27.5719 32.6344L27.8438 32.3625V30.1031V27.8438H30.1031H32.3625L32.6344 27.5719L32.9062 27.3V24V20.7L32.6344 20.4281L32.3625 20.1562H30.1031H27.8438V17.8969V15.6375L27.5719 15.3656L27.3 15.0938H24H20.7L20.4281 15.3656ZM25.875 19.05C25.875 20.1469 25.9219 21.2062 25.9781 21.4031C26.1562 22.0406 26.2875 22.0781 28.7531 22.1062L30.9375 22.1344V24V25.8656L28.7531 25.8937C26.2875 25.9219 26.1562 25.9594 25.9781 26.5969C25.9219 26.7937 25.875 27.8531 25.875 28.9406V30.9375H24H22.125V28.9406C22.125 27.8531 22.0781 26.7937 22.0219 26.5969C21.8438 25.9594 21.7125 25.9219 19.2469 25.8937L17.0625 25.8656V24V22.1344L19.2469 22.1062C21.7125 22.0781 21.8438 22.0406 22.0219 21.4031C22.0781 21.2062 22.125 20.1469 22.125 19.05V17.0625H24H25.875V19.05Z" fill="white"/>
<path d="M35.2969 28.3503C34.6312 29.016 35.0812 30.0566 36.0187 30.0378C36.8531 30.0097 37.2562 28.9878 36.6656 28.3972C36.3 28.0316 35.6437 28.0128 35.2969 28.3503Z" fill="white"/>
<path d="M34.0781 32.0531C33.7969 32.1749 33.6469 32.3906 33.0937 33.4218C31.5656 36.3281 29.3625 38.8218 26.6344 40.7343C25.6969 41.3905 25.5094 41.7655 25.8375 42.3843C26.0062 42.7312 26.5219 42.9655 26.8875 42.8812C27.0281 42.8437 27.4406 42.6093 27.8156 42.3562C30.1125 40.7718 32.5406 38.2218 34.0406 35.8124C34.6219 34.8656 35.4375 33.2249 35.4375 32.9812C35.4375 32.6531 35.1469 32.2406 34.8281 32.0999C34.4719 31.9499 34.35 31.9499 34.0781 32.0531Z" fill="white"/>
</svg>
