<svg width="48" height="48" viewBox="0 0 48 48" fill="none" xmlns="http://www.w3.org/2000/svg">
<g clip-path="url(#clip0_8797_6046)">
<path d="M1.63125 0.178513C1.06875 0.431637 0.515625 0.966011 0.24375 1.52851L0 2.00664V23.991C0 45.1691 0.009375 46.0035 0.178125 46.3691C0.4125 46.8848 0.88125 47.391 1.39688 47.7004L1.82813 47.9535L13.6406 47.9816C22.1719 48.0004 25.5563 47.9816 25.8375 47.8973C26.4094 47.7473 27.075 47.1848 27.4125 46.5941L27.7031 46.0785L27.7313 41.3723L27.7594 36.6566L29.1563 37.3598C29.925 37.7441 30.7031 38.1941 30.8813 38.3535C31.0688 38.5129 31.425 38.991 31.6875 39.4223C32.4188 40.6316 33.3375 41.3535 34.5469 41.6723C35.1844 41.8316 36.3188 41.8504 36.9375 41.7098C37.4062 41.6066 42.0375 39.2441 42.3 38.9816C42.525 38.7566 42.5156 38.241 42.2906 37.9598C41.9719 37.5566 41.6531 37.6598 39.3094 38.8879C36.7969 40.2191 36.5531 40.3129 35.7563 40.3129C34.5469 40.3129 33.675 39.7504 32.9062 38.4848C32.2969 37.4723 31.6594 36.9098 30.4406 36.3098C24.3938 33.3098 19.9875 31.1066 19.8656 31.0035C19.0969 30.4129 19.1531 29.0629 19.9688 28.3691C20.6719 27.7785 21.0844 27.8723 23.5781 29.1941C24.7781 29.8223 25.7531 30.2816 25.9031 30.2816C26.2313 30.2816 26.625 29.9066 26.625 29.5785C26.625 29.4473 25.0781 26.4004 23.1469 22.7066C19.2844 15.3566 19.3594 15.5441 19.7812 14.6723C20.0063 14.2129 20.4656 13.8379 21 13.6879C21.4406 13.5566 21.975 13.7254 22.3219 14.091C22.4719 14.2598 23.9719 16.9973 25.6406 20.1941C27.3094 23.3816 28.7531 26.0723 28.8375 26.166C29.2313 26.5973 30.0938 26.241 30.0938 25.6504C30.0938 25.5098 29.8031 24.8348 29.4375 24.1504C28.9125 23.1473 28.7813 22.8191 28.7813 22.491C28.7813 21.9004 29.1563 21.3473 29.7563 21.0473C30.3375 20.7566 30.5906 20.7566 31.125 21.0191C31.5188 21.216 31.5938 21.3285 32.2594 22.5848C32.6438 23.3254 33.0563 24.0004 33.1688 24.0754C33.6188 24.366 34.3125 23.991 34.3125 23.4566C34.3125 23.3348 33.9938 22.6316 33.6094 21.891C33.1594 21.0473 32.9062 20.4473 32.9062 20.2598C32.9062 19.4723 33.7313 18.7129 34.5844 18.7129C35.3625 18.7223 35.5406 18.8816 36.3281 20.391C37.0219 21.7129 37.275 22.0316 37.6125 22.0316C38.0813 22.0316 38.5312 21.5254 38.4 21.1223C38.3719 21.0285 38.025 20.3441 37.6406 19.6035C37.05 18.4785 36.9375 18.1973 36.9844 17.9629C37.2656 16.6316 39.0188 16.0973 39.9 17.0816C40.0969 17.2879 41.5875 20.0816 42.75 22.3973C43.8094 24.5348 44.6063 26.6441 45.2906 29.1941C45.4875 29.9629 45.7875 30.891 45.9469 31.2566C46.4438 32.4004 46.4906 32.5598 46.5 33.2066C46.5 34.3316 45.9563 35.3348 45.0375 35.8691C44.625 36.1129 44.4656 36.4035 44.5219 36.7973C44.5594 37.0785 44.9062 37.4066 45.1594 37.4066C45.7594 37.4066 47.025 36.3566 47.4656 35.4754C47.8969 34.6223 48.0281 34.0035 47.9813 32.9629C47.9438 32.0816 47.9156 31.9504 47.5125 31.0316C47.2688 30.4879 46.9875 29.691 46.875 29.2504C46.3313 27.0941 45.5625 24.8441 44.7188 22.9691C44.5031 22.4816 43.6594 20.8129 42.8531 19.266C41.1938 16.0691 40.8844 15.666 39.8906 15.291C39.0938 14.991 37.95 15.0379 37.1906 15.4129C36.5813 15.7035 36 16.3223 35.7469 16.9223C35.5969 17.2973 35.5594 17.3254 35.3438 17.2691C35.2125 17.2316 34.8094 17.2035 34.4531 17.2129C33.2812 17.2223 32.2313 17.8785 31.7063 18.9285L31.4438 19.4629L31.0688 19.3785C30.1125 19.1723 28.7531 19.6129 28.0875 20.3441L27.75 20.7191L27.7313 11.316L27.7031 1.92226L27.4125 1.40664C27.0938 0.834763 26.4281 0.272263 25.875 0.103512C25.6313 0.028511 23.025 0.000389099 16.8469 0.000389099H8.16563L8.025 0.206638C7.82813 0.487888 7.8375 0.966011 8.04375 1.20976L8.20312 1.40664L16.7344 1.42539C25.0781 1.45351 25.275 1.45351 25.5844 1.64101C26.1281 1.96914 26.25 2.31601 26.25 3.62851V4.78164H13.875H1.5V3.60976C1.5 2.28789 1.575 2.03476 2.08125 1.66914C2.3625 1.47226 2.5125 1.45351 3.70313 1.42539C5.22188 1.37851 5.34375 1.33164 5.34375 0.703514C5.34375 0.0378876 5.24063 0.000389099 3.50625 0.000389099C2.25 0.000389099 1.95 0.028511 1.63125 0.178513ZM26.25 12.1598L26.2406 18.0473L25.4531 16.5473L24.6563 15.0473V12.7691C24.6563 10.341 24.6094 10.0691 24.1594 9.58164C23.6813 9.06601 24.1969 9.09414 13.8563 9.09414H4.26562L3.89063 9.30976C3.68438 9.43164 3.43125 9.68476 3.30938 9.89101C3.10313 10.2566 3.09375 10.3316 3.09375 13.2098C3.09375 16.0035 3.10313 16.1816 3.29063 16.5566C3.40313 16.8004 3.62813 17.0535 3.825 17.1754L4.17188 17.391L11.4281 17.4379L18.6938 17.4848L21.3375 22.5473C22.8 25.3223 23.9813 27.6191 23.9625 27.6285C23.9438 27.6473 23.5406 27.4504 23.0531 27.1973C22.5656 26.9441 22.0219 26.691 21.8344 26.6348C21.4969 26.5316 21.4875 26.5035 21.375 25.8941C21.075 24.2816 20.2875 22.8191 19.0875 21.6848C18.2344 20.8691 17.3813 20.3535 16.2188 19.9504C15.3656 19.6598 15.2625 19.6504 13.9219 19.641C12.8438 19.641 12.375 19.6879 11.9062 19.8191C10.4062 20.2316 8.93438 21.1785 7.9875 22.3129C7.44375 22.9691 6.64688 24.516 6.46875 25.266C5.99063 27.2816 6.2625 29.2691 7.24688 31.0316C7.77188 31.9785 9.08438 33.2816 10.0312 33.816C11.7469 34.7816 13.8375 35.0629 15.7969 34.5941C16.5563 34.416 18.0938 33.6191 18.7594 33.066L19.3781 32.5504L21.5719 33.6473C22.7812 34.2473 24.3281 35.0066 25.0125 35.3348L26.25 35.9254V37.2754V38.6254H13.875H1.5V22.4535V6.28164H13.875H26.25V12.1598ZM23.1375 11.7004L23.1656 12.7598L22.6688 12.4973C22.2188 12.2629 22.0781 12.2348 21.2344 12.2348C20.3906 12.2348 20.25 12.2629 19.8 12.4973C18.7219 13.0691 18.0938 14.0254 18.0188 15.2535L17.9719 15.9379L11.3063 15.9191L4.64062 15.891L4.6125 13.2379L4.59375 10.5941L13.8469 10.6129L23.1094 10.641L23.1375 11.7004ZM15.3188 21.2816C16.4531 21.5723 17.2781 22.0504 18.1406 22.9129C19.0125 23.7848 19.5 24.6379 19.7812 25.7441C19.8844 26.1473 19.9688 26.5035 19.9688 26.541C19.9688 26.5785 19.7906 26.7004 19.5656 26.8035C18.8906 27.1316 18.4031 27.6191 18.075 28.2941C17.7938 28.8473 17.7656 29.0066 17.7656 29.7191C17.7656 30.3941 17.8031 30.591 18.0094 31.0129L18.2531 31.5098L17.7281 31.9316C16.6031 32.8316 15.2438 33.3098 13.8281 33.3098C12.1875 33.3004 10.7531 32.691 9.5625 31.5004C8.37188 30.3098 7.7625 28.8754 7.75313 27.2348C7.74375 24.8723 9.05625 22.7723 11.2031 21.7035C12.4688 21.0848 13.9406 20.9254 15.3188 21.2816ZM26.25 42.8254C26.25 45.8441 26.2219 45.9848 25.5844 46.3598C25.275 46.5473 25.0969 46.5473 13.875 46.5473C3.08438 46.5473 2.46563 46.5379 2.175 46.3785C2.00625 46.2848 1.78125 46.0785 1.6875 45.9098C1.50938 45.6285 1.5 45.4223 1.5 42.8629V40.1254H13.875H26.25V42.8254Z" fill="white"/>
<path d="M14.7469 26.2687L12.3844 28.6312L11.4938 27.7687C10.5188 26.8219 10.2844 26.7281 9.80625 27.1031C9.61875 27.2437 9.5625 27.375 9.5625 27.6375C9.5625 27.9562 9.65625 28.0875 10.8094 29.2312C11.925 30.3469 12.0844 30.4688 12.375 30.4688C12.675 30.4688 12.9 30.2625 15.4406 27.7219C17.8313 25.3406 18.1875 24.9469 18.1875 24.7031C18.1781 24.3844 18.0469 24.1781 17.7469 24.0187C17.2781 23.7656 17.1938 23.8312 14.7469 26.2687Z" fill="white"/>
<path d="M10.8938 41.6349C9.53442 42.3099 9.6563 44.6349 11.0813 45.1506C11.2875 45.2349 12.1875 45.2724 13.875 45.2724C16.1063 45.2818 16.3969 45.2631 16.7438 45.1037C17.85 44.5974 18.15 42.9849 17.3157 42.0287C16.8094 41.4568 16.6969 41.4381 13.8563 41.4381C11.4282 41.4381 11.2782 41.4474 10.8938 41.6349ZM16.2 43.0506C16.3407 43.1912 16.3407 43.5287 16.2 43.6693C16.1157 43.7537 15.4782 43.7818 13.8844 43.7818C11.9719 43.7818 11.6625 43.7631 11.5125 43.6224C11.3063 43.4349 11.2969 43.2756 11.4938 43.0881C11.6157 42.9568 11.9625 42.9381 13.8657 42.9381C15.4688 42.9381 16.1157 42.9662 16.2 43.0506Z" fill="white"/>
</g>
<defs>
<clipPath id="clip0_8797_6046">
<rect width="48" height="48" fill="white"/>
</clipPath>
</defs>
</svg>
