<svg width="48" height="48" viewBox="0 0 48 48" fill="none" xmlns="http://www.w3.org/2000/svg">
<path d="M24.7969 1.8375C23.4656 2.025 22.9969 2.11875 22.2188 2.3625C18.3094 3.6 15.2156 6.83437 14.2031 10.7437C14.0719 11.2312 13.95 11.8969 13.9125 12.225L13.8469 12.8344L11.325 12.8625L8.79375 12.8906L8.52188 13.2L8.25 13.5V17.0156C8.25 19.3406 8.2875 20.5969 8.35313 20.7469C8.60625 21.3094 9.38438 21.4406 9.8625 21.0094L10.1719 20.7375L10.2 17.775L10.2281 14.8125H12.0469H13.875V15.1406C13.875 15.9844 14.4563 18.0562 15.0094 19.1437C15.8719 20.8687 17.5406 22.7812 19.0312 23.7844C21.0938 25.1625 23.4094 25.875 25.8281 25.875C28.0406 25.875 30.075 25.3219 31.95 24.2156C34.9406 22.4625 37.0594 19.4344 37.65 16.0969C37.7344 15.6187 37.8188 15.1406 37.8375 15.0187C37.875 14.8125 37.8844 14.8125 39.6563 14.8125H41.4281L41.4563 17.7094C41.4844 20.4844 41.4938 20.625 41.6813 20.8781C41.9344 21.2156 42.4406 21.3562 42.8438 21.1875C43.3969 20.9625 43.4062 20.8969 43.4062 17.025V13.5L43.1344 13.2L42.8625 12.8906L40.35 12.8437L37.8375 12.7969L37.7156 11.9531C37.0219 7.05937 33.0563 2.9625 28.0969 2.01562C27.3281 1.86562 25.3313 1.7625 24.7969 1.8375ZM28.3219 4.05937C33.5344 5.41875 36.7875 10.6125 35.7094 15.8719C34.8281 20.2125 31.0312 23.5781 26.6719 23.8969C24.7219 24.0375 23.1656 23.7281 21.4219 22.875C18.7125 21.5531 16.8469 19.2844 16.05 16.3312C15.8344 15.525 15.8063 15.2437 15.8063 13.875C15.8063 12.5906 15.8344 12.1875 16.0031 11.5219C16.8469 8.16562 19.3219 5.44687 22.5469 4.3125C23.8406 3.8625 24.6094 3.75 26.1094 3.7875C27.1219 3.81562 27.6281 3.88125 28.3219 4.05937Z" fill="white"/>
<path d="M23.5125 7.4625C23.3719 7.5375 23.2125 7.67813 23.1562 7.78125C23.1 7.875 23.0625 8.625 23.0625 9.50625V11.0625H21.4875C19.7719 11.0625 19.6219 11.1 19.4156 11.6063C19.3312 11.7938 19.3125 12.5063 19.3312 13.9969L19.3594 16.125L19.6219 16.3781L19.875 16.6406L21.4687 16.6688L23.0625 16.6969V18.2438V19.8L23.3344 20.0719L23.6062 20.3438H25.8187H28.0312L28.3312 20.0719L28.6406 19.8L28.6687 18.2438L28.7062 16.6969L30.2531 16.6688L31.8 16.6406L32.0719 16.3313L32.3531 16.0219L32.325 13.7625L32.2969 11.5125L32.0344 11.2875C31.7812 11.0719 31.725 11.0625 30.225 11.0625H28.6875V9.65625C28.6875 7.29375 28.7062 7.3125 25.8094 7.3125C24.1875 7.32188 23.7094 7.35 23.5125 7.4625ZM26.7187 10.8375V12.3938L26.9906 12.6656L27.2625 12.9375H28.8187H30.375V13.8281V14.7188H28.9219C26.7281 14.7188 26.7187 14.7281 26.7187 16.9219V18.375H25.8281H24.9375V16.8656C24.9375 16.0125 24.9 15.2813 24.8437 15.1781C24.6375 14.7938 24.2812 14.7188 22.7344 14.7188H21.2812V13.8281V12.9375H22.8375H24.3937L24.6656 12.6656L24.9375 12.3938V10.8375V9.28125H25.8281H26.7187V10.8375Z" fill="white"/>
<path d="M41.5406 25.1723C41.2594 25.2567 40.8844 25.4067 40.6969 25.5192C40.5187 25.6317 38.3531 27.2817 35.8875 29.1754C33.3281 31.1442 31.3875 32.5692 31.3594 32.5036C30.9187 31.0504 30.3281 30.3098 29.1937 29.7942L28.7344 29.5786L20.8312 29.5504L12.9375 29.5317V28.4442C12.9375 26.6723 13.0219 26.7192 9.71249 26.7192C8.34374 26.7192 7.12499 26.7567 6.99374 26.8129C6.86249 26.8598 6.69374 27.0004 6.60937 27.1223C6.36562 27.5067 1.76249 45.0942 1.82812 45.4317C1.85624 45.5911 1.98749 45.8254 2.11874 45.9473L2.36249 46.1723L7.24687 46.2004C10.8094 46.2192 12.2062 46.1911 12.4031 46.1161C12.8625 45.9192 12.9375 45.7129 12.9375 44.5598C12.9375 43.5848 12.9469 43.5004 13.1156 43.5004C13.2187 43.5004 16.6594 43.6879 20.7844 43.9223C24.9 44.1567 28.4156 44.3442 28.6031 44.3442C28.9125 44.3442 29.6719 43.7536 36.9469 37.9411C41.3531 34.4161 45.1312 31.3317 45.3469 31.0879C45.9281 30.4223 46.1625 29.7661 46.1625 28.7348C46.1625 27.5536 45.9187 26.9629 45.1031 26.1473C44.6344 25.6786 44.3437 25.4817 43.9219 25.3223C43.2 25.0504 42.2062 24.9848 41.5406 25.1723ZM43.2937 27.1973C43.8094 27.4504 44.1656 27.9848 44.2312 28.5942C44.325 29.5598 44.6719 29.2317 36.0469 36.1317L28.2187 42.3942L21.2531 42.0098C17.4281 41.8036 13.9875 41.5973 13.6125 41.5692L12.9375 41.5129V36.4598V31.4067H20.3719C25.3125 31.4067 27.9187 31.4442 28.1531 31.5098C28.7062 31.6598 29.2219 32.1848 29.3906 32.7567C29.5125 33.1879 29.5125 33.2911 29.3906 33.7129C29.2594 34.1817 28.875 34.6317 28.4062 34.8848C28.2187 34.9879 27.075 35.0254 22.6125 35.0629L17.0437 35.1098L16.8187 35.3723C16.4906 35.7567 16.5094 36.3004 16.875 36.6661L17.1469 36.9473L22.9406 36.9192L28.7344 36.8911L29.25 36.6379C29.5312 36.4973 32.4281 34.3317 35.6719 31.8192C38.925 29.3161 41.7094 27.2067 41.8594 27.1317C42.2719 26.9442 42.825 26.9723 43.2937 27.1973ZM11.0625 36.4692V44.2504H7.53749C4.22812 44.2504 4.02187 44.2411 4.06874 44.0817C4.09687 43.9973 5.00624 40.5473 6.09374 36.4223C7.17187 32.2973 8.08124 28.8661 8.10937 28.8004C8.13749 28.7161 8.53124 28.6879 9.60937 28.6879H11.0625V36.4692Z" fill="white"/>
<path d="M7.65936 40.8187C7.34061 41.1187 7.24686 41.6062 7.44374 41.9812C7.63124 42.3469 7.85624 42.4688 8.34374 42.4688C9.20624 42.4688 9.58124 41.4469 8.95311 40.8187C8.63436 40.5094 7.99686 40.5 7.65936 40.8187Z" fill="white"/>
</svg>
