<svg width="40" height="40" viewBox="0 0 40 40" fill="none" xmlns="http://www.w3.org/2000/svg">
<path d="M12.5 2.70322C12.3906 2.71885 12.0391 2.77354 11.7187 2.82041C9.875 3.09385 7.92969 4.14073 6.54687 5.60948C3.96875 8.35948 3.28125 12.2814 4.76562 15.7735C5.25781 16.9298 5.76562 17.6485 6.95312 18.8907C7.83594 19.8126 8.26562 20.4532 8.53125 21.2501C8.67969 21.711 8.70312 22.0079 8.75781 24.4923C8.82031 27.3751 8.89062 28.0938 9.25781 29.5548C9.95312 32.2892 11.2734 34.7423 12.8672 36.2501C14.7109 38.0001 15.9844 37.6329 16.6094 35.172C17.0156 33.5626 17.1719 31.4454 17.25 26.2892L17.3047 22.7735L17.5234 22.3282C17.8047 21.7579 18.4531 21.1563 19.0234 20.9454C19.6094 20.7267 20.3906 20.7267 20.9922 20.9532C21.6172 21.1798 22.3359 21.8985 22.5625 22.5235C22.7187 22.9298 22.7344 23.1251 22.7344 24.6329C22.7422 27.2892 22.875 31.5079 23 32.7345C23.25 35.1798 23.6094 36.3595 24.2891 36.9767C25.0625 37.672 26 37.3829 27.3437 36.0235C29.1875 34.1642 30.5391 31.2345 31.0625 28.0001C31.1484 27.4688 31.2031 26.3673 31.2422 24.4923C31.2969 21.8048 31.2969 21.7501 31.5 21.1876C31.8125 20.3204 32.1484 19.8282 33.0703 18.8829C33.5312 18.4063 34.0859 17.7579 34.3047 17.4454C35.9844 15.0079 36.4531 11.9298 35.5547 9.13291C34.6562 6.35166 32.4297 4.08604 29.6875 3.17197C26.4297 2.08604 22.9062 2.78916 20.4219 5.03135L20.0156 5.39073L19.6406 5.05479C18.3594 3.92197 16.9062 3.19541 15.2656 2.85166C14.6719 2.72666 12.8984 2.63291 12.5 2.70322ZM33.6484 7.29698C34.6406 8.78135 35.0859 10.2032 35.0937 11.9532C35.1172 14.461 34.2656 16.422 32.3281 18.3438L31.6719 18.9923L31.3828 18.5001C30.3047 16.6798 29.9922 13.9142 30.5469 11.1564C30.8672 9.59385 31.5859 7.98448 32.4297 6.96885L32.9062 6.39073L33.0937 6.5626C33.1875 6.66416 33.4453 6.99229 33.6484 7.29698ZM11.4687 9.40635C11.4844 9.49229 11.3125 9.71885 11.0312 10.0001C10.4766 10.5392 10.1484 11.1642 9.95312 12.086C9.82812 12.6876 9.82812 12.7579 9.96094 13.4142C10.0312 13.7892 10.1172 14.3907 10.1406 14.7423L10.1797 15.3907H10.6562C11.0937 15.3907 11.7969 15.5235 12.1328 15.6642C12.2344 15.7032 12.2656 15.6798 12.2656 15.5548C12.2656 15.4688 12.3516 15.1251 12.4531 14.797C12.625 14.2657 12.6328 14.172 12.5391 13.9845C12.4062 13.7267 11.7969 13.1564 11.5703 13.086C11.3203 13.0079 11.2656 12.6642 11.4766 12.4923C11.6484 12.3517 11.6641 12.3517 11.9687 12.5079C12.1484 12.6017 12.4531 12.8204 12.6484 13.0079L13.0156 13.3517L13.2344 12.9142C13.3594 12.6798 13.6094 12.3204 13.7891 12.1251C14.1016 11.7814 14.1328 11.7657 14.3281 11.8595C14.6172 11.9923 14.5859 12.2032 14.1797 12.7735C13.75 13.3673 13.4453 14.0313 13.1797 14.922C12.8203 16.1173 12.8203 16.0626 13.2891 16.172C14.1484 16.3829 15.1406 16.0938 16.0156 15.3829C16.25 15.1876 16.4844 15.0079 16.5391 14.9767C16.6641 14.8985 16.8672 14.9923 16.9609 15.1642C17.0703 15.3829 16.9453 15.5626 16.3828 15.9845C16.1172 16.1876 15.8672 16.3829 15.8281 16.4142C15.7891 16.4454 15.8672 16.6173 16.0078 16.7813C16.5625 17.4845 16.8828 18.6485 16.6016 18.9298C16.2969 19.2345 15.9375 18.9532 15.9375 18.4142C15.9375 18.0313 15.625 17.3751 15.2969 17.0548C15.0391 16.8048 15.0391 16.8048 14.5312 16.8751C13.7187 16.9923 13.0859 16.8673 11.9141 16.3751C11.5234 16.211 11.3203 16.172 10.6875 16.172C9.9375 16.172 9.92187 16.172 9.75781 16.3985C9.55469 16.672 8.84375 17.2657 8.07812 17.8048L7.52344 18.1954L7.27344 17.9376L7.01562 17.672L7.48437 17.3595C8.28906 16.8048 9.14062 16.0938 9.29687 15.836C9.49219 15.5157 9.49219 15.0001 9.29687 13.8673C9.15625 13.0235 9.14844 13.0001 8.8125 12.7032C8.50781 12.4298 7.64844 11.9532 7.27344 11.8517C7.19531 11.836 7.08594 11.7501 7.03906 11.6642C6.9375 11.4689 7.125 11.172 7.35156 11.172C7.57812 11.172 8.39062 11.5235 8.80469 11.797C9.20312 12.0704 9.25 12.047 9.33594 11.5704C9.48437 10.7814 10.2656 9.59385 10.8984 9.21104C11.0937 9.08604 11.1484 9.07823 11.2891 9.17198C11.375 9.22666 11.4609 9.33604 11.4687 9.40635ZM11.3828 17.9063C11.5156 18.0704 11.7031 18.7579 11.7656 19.2423C11.8047 19.6251 11.8359 19.6876 11.9531 19.6485C12.2266 19.5626 13.0078 19.4532 13.3672 19.4532C13.7578 19.4532 13.9062 19.5548 13.9062 19.8126C13.9062 20.0626 13.7656 20.1329 13.125 20.1954C11.9531 20.3126 10.8828 20.6798 9.99219 21.2813C9.53906 21.586 9.50781 21.5704 9.41406 21.0938L9.36719 20.8204L9.97656 20.461C10.3125 20.2657 10.6797 20.0626 10.8047 20.0157C11.0078 19.9298 11.0156 19.8985 11.0156 19.3985C11.0078 19.1017 10.9609 18.7267 10.8984 18.5548C10.7578 18.172 10.75 18.0313 10.875 17.9063C11 17.7813 11.2891 17.7892 11.3828 17.9063Z" fill="#0F172A"/>
<path d="M32.5938 7.54688C32.2813 7.75781 32.4531 8.35938 32.8203 8.35938C33.0469 8.35938 33.2813 8.11719 33.2813 7.89062C33.2813 7.67188 33.0469 7.42188 32.8516 7.42188C32.8047 7.42188 32.6875 7.47656 32.5938 7.54688Z" fill="#0F172A"/>
<path d="M32.5938 9.10938C32.2813 9.32031 32.4531 9.92188 32.8203 9.92188C33.0469 9.92188 33.2813 9.67969 33.2813 9.45312C33.2813 9.23438 33.0469 8.98438 32.8516 8.98438C32.8047 8.98438 32.6875 9.03906 32.5938 9.10938Z" fill="#0F172A"/>
<path d="M33.5625 10.7502C33.4141 10.8908 33.3984 11.258 33.5312 11.3908C33.6875 11.5471 34.125 11.508 34.2187 11.3361C34.4687 10.8596 33.9297 10.3752 33.5625 10.7502Z" fill="#0F172A"/>
<path d="M31.3984 11.5158C31.2656 11.7971 31.3672 12.094 31.6094 12.1565C31.9375 12.2424 32.1875 12.0783 32.1875 11.7736C32.1875 11.633 32.1484 11.4768 32.0938 11.4221C32.0391 11.3674 31.8828 11.3283 31.7422 11.3283C31.5391 11.3283 31.4609 11.3752 31.3984 11.5158Z" fill="#0F172A"/>
<path d="M32.8047 12.375C32.4297 12.5547 32.5859 13.2031 33.0078 13.2031C33.2344 13.2031 33.4375 12.9688 33.4375 12.7188C33.4375 12.3984 33.1094 12.2188 32.8047 12.375Z" fill="#0F172A"/>
<path d="M31.3438 14.0314C31.0938 14.2033 31.1094 14.5705 31.375 14.7423C31.5625 14.8595 31.6016 14.8595 31.7891 14.758C32.0703 14.6017 32.1094 14.2033 31.8594 14.0314C31.6406 13.8751 31.5625 13.8751 31.3438 14.0314Z" fill="#0F172A"/>
<path d="M32.8125 14.6875C32.5078 14.9922 32.6875 15.4141 33.125 15.4141C33.3984 15.4141 33.5938 15.2344 33.5938 14.9844C33.5938 14.7969 33.3203 14.5312 33.125 14.5312C33.0391 14.5312 32.8984 14.6016 32.8125 14.6875Z" fill="#0F172A"/>
<path d="M31.6328 16.2033C31.5 16.4846 31.6016 16.7815 31.8438 16.844C32.1719 16.9299 32.4219 16.7658 32.4219 16.4611C32.4219 16.3205 32.3828 16.1643 32.3281 16.1096C32.2734 16.0549 32.1172 16.0158 31.9766 16.0158C31.7734 16.0158 31.6953 16.0627 31.6328 16.2033Z" fill="#0F172A"/>
</svg>
