<svg width="173" height="144" viewBox="0 0 173 144" fill="none" xmlns="http://www.w3.org/2000/svg">
<g style="mix-blend-mode:luminosity">
<path fill-rule="evenodd" clip-rule="evenodd" d="M-1.54004 -86.3516C22.4689 -72.7091 30.8726 -42.1866 17.2301 -18.1777C-6.7788 -31.8201 -15.1825 -62.3426 -1.54004 -86.3516ZM85.404 -36.9478C61.3951 -50.5903 30.8726 -42.1866 17.2301 -18.1777C-6.7788 -31.8201 -37.3013 -23.4165 -50.9438 0.592487C-64.5862 24.6012 -56.1826 55.1239 -32.1737 68.7664C-56.1826 55.1239 -86.7052 63.5278 -100.348 87.5365C-76.3387 101.179 -45.816 92.7751 -32.1737 68.7664C-45.816 92.7751 -37.4124 123.298 -13.4035 136.94C10.6052 150.583 41.128 142.179 54.7704 118.17C41.128 142.179 49.5318 172.702 73.5405 186.344C87.1829 162.335 78.7791 131.813 54.7704 118.17C78.7791 131.813 109.302 123.409 122.944 99.4C136.587 75.391 128.183 44.8685 104.174 31.2261C128.183 44.8685 158.706 36.465 172.348 12.456C148.339 -1.18639 117.817 7.21712 104.174 31.2261C117.817 7.21712 109.413 -23.3054 85.404 -36.9478ZM54.7704 118.17C68.4127 94.1614 60.009 63.6386 36.0002 49.9962C22.3579 74.005 30.7617 104.528 54.7704 118.17ZM36.0002 49.9962C60.009 63.6386 90.5316 55.2351 104.174 31.2261C90.5316 55.2351 98.9356 85.7577 122.944 99.4C98.9356 85.7577 68.4127 94.1614 54.7704 118.17C30.7617 104.528 0.238839 112.932 -13.4035 136.94C0.238839 112.932 -8.16476 82.4088 -32.1737 68.7664C-8.16476 82.4088 22.3579 74.005 36.0002 49.9962ZM36.0002 49.9962C11.9913 36.3538 -18.5313 44.7577 -32.1737 68.7664C-18.5313 44.7577 -26.9349 14.2349 -50.9438 0.592487C-26.9349 14.2349 3.5876 5.83134 17.2301 -18.1777C3.5876 5.83134 11.9913 36.3538 36.0002 49.9962ZM36.0002 49.9962C49.6428 25.9873 80.1654 17.5838 104.174 31.2261C80.1654 17.5838 71.7615 -12.9388 85.404 -36.9478C71.7615 -12.9388 41.239 -4.5352 17.2301 -18.1777C41.239 -4.5352 49.6428 25.9873 36.0002 49.9962Z" fill="url(#paint0_linear_8093_6108)" fill-opacity="0.5"/>
</g>
<defs>
<linearGradient id="paint0_linear_8093_6108" x1="85.404" y1="-36.9478" x2="-13.4035" y2="136.94" gradientUnits="userSpaceOnUse">
<stop stop-color="#B8DBFC"/>
<stop offset="1" stop-color="#F8FBFE"/>
</linearGradient>
</defs>
</svg>
