<svg width="40" height="40" viewBox="0 0 40 40" fill="none" xmlns="http://www.w3.org/2000/svg">
<g clip-path="url(#clip0_10307_9189)">
<path d="M10.7969 0.203125C10.5781 0.3125 10.2422 0.578125 10.0469 0.789062C9.52344 1.375 9.45312 1.66406 9.45312 3.33594V4.76562H24.3594C38.8203 4.76562 39.2656 4.75781 39.4844 4.61719C39.9766 4.28906 40 4.1875 40 2.38281C40 0.578125 39.9766 0.476562 39.4844 0.148438C39.2656 0.0078125 38.8438 0 25.2266 0H11.2031L10.7969 0.203125Z" fill="#151515"/>
<path d="M9.45312 8.21875C9.45312 10.9297 9.10938 12.25 8.03125 13.7266C7.875 13.9453 7.70312 14.1562 7.65625 14.1797C7.60938 14.2109 7.46094 14.375 7.33594 14.5469C7.14844 14.8125 7.10938 14.9453 7.10938 15.3047C7.10938 15.7969 7.25781 16.0938 7.625 16.3359C7.82812 16.4688 8.02344 16.4844 9.78125 16.4844H11.7109L12.0234 16.0703C12.7812 15.0625 13.2422 13.8359 13.3594 12.5391C13.3984 12.1094 13.4297 10.7109 13.4375 9.42969V7.10938H11.4453H9.45312V8.21875Z" fill="#151515"/>
<path d="M15.6797 10.0547C15.6328 13.2031 15.6016 13.5078 15.1875 14.7656C15.0781 15.0859 14.8672 15.5938 14.7188 15.8906C14.5703 16.1875 14.4531 16.4453 14.4531 16.4609C14.4531 16.4766 15.2422 16.4844 16.2109 16.4844H17.9609L18.2734 16.0703C19.0312 15.0625 19.4922 13.8359 19.6094 12.5391C19.6484 12.1094 19.6797 10.7109 19.6875 9.42969V7.10938H17.7031H15.7266L15.6797 10.0547Z" fill="#151515"/>
<path d="M21.9297 10.0547C21.8828 13.2031 21.8516 13.5078 21.4375 14.7656C21.3281 15.0859 21.1172 15.5938 20.9688 15.8906C20.8203 16.1875 20.7031 16.4453 20.7031 16.4609C20.7031 16.4766 20.8906 16.4844 21.1172 16.4844C22.7109 16.4766 24.4922 15.3281 25.2969 13.7812C25.8281 12.7422 25.8672 12.4844 25.9141 9.625L25.9531 7.10938H23.9609H21.9766L21.9297 10.0547Z" fill="#151515"/>
<path d="M6.32835 9.97262C3.97679 10.7695 1.91429 12.6211 0.859598 14.8632C0.203348 16.2695 -0.0388393 17.5429 0.0236607 19.3242C0.0549107 20.3164 0.0939732 20.6289 0.265848 21.2148C0.609598 22.3398 1.21116 23.3945 2.50022 25.1211C4.2971 27.5195 4.63304 28.2851 4.72679 30.2461C4.85179 32.832 5.40647 34.5976 6.65647 36.4257C8.6096 39.2851 12.0627 40.9648 12.8362 39.4414C13.0315 39.0664 13.6955 36.2929 13.9455 34.8086C14.0158 34.4179 14.1018 33.4961 14.1408 32.7461C14.2268 31.2617 14.2893 31.0586 14.7346 30.7773C15.0237 30.5976 15.5471 30.582 15.8596 30.7461C16.3127 30.9804 16.3987 31.2617 16.4846 32.7461C16.5237 33.4961 16.6096 34.4179 16.6799 34.8086C16.9533 36.3554 17.6018 39.0664 17.7893 39.4414C18.1721 40.1914 19.2971 40.1992 20.6877 39.457C22.3283 38.582 23.8283 36.9648 24.7737 35.0429C25.5002 33.5507 25.7971 32.3007 25.8987 30.2773C25.9221 29.7148 26.0002 29.0351 26.0627 28.7539C26.2424 27.9648 26.8674 26.8007 27.719 25.6679C29.1252 23.8086 30.0549 22.3007 29.8283 22.2382C29.7737 22.2226 29.5158 22.1523 29.258 22.0742C27.7815 21.6523 26.633 20.5273 26.1252 19.0117C25.9377 18.457 25.9221 18.3164 25.9533 17.4961L25.9846 16.582L25.5549 16.957C24.2971 18.0273 22.9533 18.5976 21.3518 18.7539C20.2658 18.8554 8.68772 18.8554 7.89866 18.7539C5.95335 18.4961 4.63304 16.8086 4.8596 14.8632C4.93772 14.1836 5.27366 13.5039 5.84397 12.8632C6.59397 12.0117 7.1096 10.8711 7.1096 10.0507C7.1096 9.7148 7.09397 9.7148 6.32835 9.97262ZM13.5705 21.4101C14.2424 21.8164 14.2268 22.8398 13.5471 23.2929C13.0705 23.6054 12.3596 23.4336 12.0237 22.9257C11.7112 22.4492 11.883 21.7382 12.3908 21.4023C12.6877 21.207 13.2424 21.207 13.5705 21.4101ZM21.4299 21.5429C22.133 21.8789 22.8127 22.5507 23.1487 23.2617C23.383 23.7617 23.3987 23.8398 23.3987 24.6914C23.3987 25.5429 23.383 25.6211 23.1487 26.1211C22.9846 26.4648 22.7346 26.8164 22.4299 27.1211C22.1252 27.4257 21.7737 27.6757 21.4299 27.8398C20.9299 28.0742 20.8518 28.0898 20.0002 28.0898C19.1487 28.0898 19.0705 28.0742 18.5705 27.8398C17.8596 27.5039 17.1877 26.832 16.8518 26.1211C16.6174 25.6211 16.6018 25.5429 16.6018 24.6914C16.6018 23.8398 16.6174 23.7617 16.8518 23.2617C17.1408 22.6523 17.8283 21.9179 18.3596 21.6445C18.9924 21.3164 19.2971 21.2539 20.1174 21.2773C20.8127 21.2929 20.9612 21.3242 21.4299 21.5429Z" fill="#151515"/>
<path d="M19.3438 23.6641C18.9844 23.9062 18.8281 24.2031 18.8281 24.6875C18.8281 25.1719 18.9844 25.4688 19.3438 25.7109C19.5 25.8125 19.7109 25.8594 20 25.8594C20.7422 25.8594 21.1719 25.4297 21.1719 24.6875C21.1719 23.9453 20.7422 23.5156 20 23.5156C19.7109 23.5156 19.5 23.5625 19.3438 23.6641Z" fill="#151515"/>
<path d="M29.4688 15.5547C28.625 15.9688 28.2031 16.6797 28.2031 17.6562C28.2031 18.6328 28.625 19.3438 29.4688 19.7578C29.875 19.9688 30.0312 20 30.5469 20C31.0625 20 31.2188 19.9688 31.625 19.7578C32.4688 19.3438 32.8906 18.6406 32.8906 17.6484C32.8906 16.2656 31.9297 15.3125 30.5391 15.3125C30.0312 15.3125 29.875 15.3438 29.4688 15.5547Z" fill="#151515"/>
<path d="M31.0625 26.0078C30.7031 26.25 30.5469 26.5469 30.5469 27.0312C30.5469 27.7734 30.9766 28.2031 31.7188 28.2031C32.4609 28.2031 32.8906 27.7734 32.8906 27.0312C32.8906 26.2891 32.4609 25.8594 31.7188 25.8594C31.4297 25.8594 31.2188 25.9062 31.0625 26.0078Z" fill="#151515"/>
</g>
<defs>
<clipPath id="clip0_10307_9189">
<rect width="40" height="40" fill="white"/>
</clipPath>
</defs>
</svg>
