<svg width="40" height="40" viewBox="0 0 40 40" fill="none" xmlns="http://www.w3.org/2000/svg">
<path d="M11.5625 0.898432C9.03124 1.31249 7.46874 2.90624 6.86718 5.70312C6.71093 6.40624 6.68749 6.76562 6.68749 8.16406C6.67968 10.7109 6.85936 11.3672 8.55468 14.8437C9.71874 17.2344 10.0625 18.0781 10.2734 19.1172C10.4297 19.8828 10.6484 20.2812 11.0781 20.5859L11.4219 20.8203L19.8672 20.8437C29.3125 20.8672 28.7187 20.8984 29.25 20.3125C29.5312 20 29.5703 19.8984 29.8437 18.7422C30.0781 17.7578 30.3594 17.0703 31.5234 14.6875C32.9922 11.6641 33.2578 10.7812 33.3359 8.74999C33.4141 6.70312 33.1562 5.20312 32.5 3.85156C31.6719 2.15624 30.3281 1.18749 28.375 0.898432C26.6641 0.640619 24.5469 0.828119 22.6484 1.40624C21.3828 1.79687 20.8672 1.89062 20 1.89062C19.125 1.89062 18.5547 1.78124 17.3516 1.39843C15.7266 0.882807 13.0625 0.648432 11.5625 0.898432Z" fill="#0F172A"/>
<path d="M13.2812 23.2734V24.039L12.3828 24.0937C11.8828 24.125 11.3906 24.1875 11.2812 24.2343C10.8984 24.414 10.7422 25.0156 10.9765 25.4609C11.2109 25.9218 10.8359 25.9218 19.8281 25.4765C24.3672 25.2578 28.2422 25.0547 28.4297 25.0312C28.9297 24.9687 29.2187 24.6562 29.2187 24.1875C29.2187 23.9062 29.1718 23.7812 28.9922 23.5781L28.7578 23.3203L27.7422 23.3437L26.7187 23.3672V22.9297V22.5H20H13.2812V23.2734Z" fill="#0F172A"/>
<path d="M19.5156 27.0625L13.2812 27.375V27.7891C13.2812 28.1328 13.2578 28.2031 13.1484 28.2109C13.0703 28.2109 12.625 28.2422 12.1562 28.2734C11.3281 28.3281 11.2969 28.3359 11.0859 28.5781C10.7656 28.9375 10.7656 29.4531 11.0859 29.7734C11.3047 29.9844 11.3594 30 11.9219 30C12.7188 30 28.2422 29.2344 28.5703 29.1797C29.1953 29.0703 29.4453 28.1875 28.9844 27.7266L28.75 27.4922L27.7344 27.5156L26.7188 27.5391V27.125V26.7188L26.2344 26.7266C25.9609 26.7344 22.9375 26.8828 19.5156 27.0625Z" fill="#0F172A"/>
<path d="M19.8828 31.2186C16.3594 31.3983 13.4297 31.5545 13.3828 31.5545C13.3125 31.5623 13.2813 31.703 13.2813 31.992V32.4217H12.5625C11.6484 32.4295 11.2578 32.5155 11.0313 32.7733C10.6797 33.1795 10.875 33.953 11.3828 34.1483C11.6328 34.242 28.5312 33.3983 28.7734 33.2733C29.25 33.0311 29.3906 32.3123 29.0312 31.9295C28.7734 31.6483 28.5469 31.6092 27.5703 31.6639L26.7188 31.7186V31.2889C26.7188 30.867 26.7109 30.8592 26.5078 30.867C26.3828 30.8748 23.4063 31.0311 19.8828 31.2186Z" fill="#0F172A"/>
<path d="M24.2969 35.164C23.7188 35.1952 21.3984 35.3202 19.1406 35.4296C14.9766 35.6249 14.2188 35.6796 14.2188 35.7733C14.2188 35.8202 15.2656 36.7186 16.5547 37.7577C17.9219 38.8671 18.6562 39.1718 20 39.1718C21.5078 39.1796 22.2969 38.7733 24.4922 36.8983C25.5781 35.9608 26.25 35.2968 26.25 35.1405C26.25 35.0702 25.7969 35.0702 24.2969 35.164Z" fill="#0F172A"/>
</svg>
