<svg width="48" height="48" viewBox="0 0 48 48" fill="none" xmlns="http://www.w3.org/2000/svg">
<g clip-path="url(#clip0_7147_720)">
<path d="M26.7656 0.178459C26.0906 0.487831 25.8 0.834709 24.6 2.79408C23.9437 3.86283 22.6594 5.94408 21.7406 7.41596L20.0625 10.0972L19.0125 10.1066C17.7187 10.1253 16.5469 10.3785 16.2844 10.6972C16.0406 11.0066 16.1062 11.5128 16.425 11.7472C16.6875 11.9441 16.6875 11.9441 17.55 11.766C19.5375 11.3628 21.4875 11.7378 23.1 12.8347C23.7937 13.3035 24.6562 14.3347 26.2687 16.6128C27.225 17.9722 28.0875 19.1441 28.1812 19.2285C28.2844 19.3035 29.6906 20.1003 31.3125 20.991C32.9344 21.8816 34.3781 22.7347 34.5187 22.8753C35.0156 23.4097 35.0719 24.3847 34.6125 24.4503C34.5094 24.4691 32.8594 23.9253 30.9562 23.2597C29.0531 22.5847 27.3937 22.0316 27.2719 22.0316C26.7375 22.0316 26.3906 22.6222 26.6437 23.091C26.7094 23.2128 28.2375 24.6191 30.0375 26.2035C33.3937 29.166 33.5625 29.3535 33.5625 30.0191C33.5625 30.4878 33.2625 30.9847 32.9812 30.9847C32.8125 30.9847 31.8094 30.1691 29.2031 27.891C27.2531 26.1847 25.5469 24.7222 25.4156 24.6378C25.0969 24.4222 24.825 24.4222 24.525 24.666C24.0094 25.0691 24.0469 25.1535 26.8781 29.9066C29.2031 33.816 29.475 34.3128 29.5031 34.7347C29.5312 35.1003 29.4937 35.2878 29.325 35.5597C29.0906 35.9628 28.6875 36.2441 28.4906 36.1691C28.4156 36.141 26.9531 34.0691 25.2375 31.566C23.5219 29.0628 22.0594 26.991 21.975 26.9628C21.5156 26.7847 20.9719 27.0097 20.8687 27.4035C20.8406 27.5441 21.2906 29.2972 22.125 32.2128C22.8469 34.7347 23.4375 36.9566 23.4375 37.1535C23.4375 37.3503 23.3906 37.6035 23.3344 37.716C23.0625 38.2503 22.425 38.7003 22.1625 38.5503C22.0781 38.5035 21.4594 37.0972 20.775 35.4285C18.9937 31.0597 18.0937 29.0066 17.7937 28.5847C17.025 27.5253 15.3844 27.2535 14.2969 28.0128C14.0906 28.1535 13.3781 28.941 12.7031 29.766C11.3719 31.3878 10.9687 31.6972 10.0594 31.8191C9.55312 31.8941 8.83125 31.716 8.7 31.5003C8.59687 31.341 8.91562 30.7878 10.575 28.2847C12.0281 26.091 12.4406 24.9097 12.5344 22.641C12.5812 21.5347 12.5531 21.1316 12.375 20.1097C11.925 17.5128 12.4594 15.5816 14.1094 13.7816C14.55 13.3035 14.625 13.1722 14.625 12.8535C14.625 12.5628 14.5687 12.441 14.3812 12.291C13.9781 11.9722 13.7344 12.0378 13.125 12.6191C12.825 12.9097 12.4312 13.341 12.2625 13.5941L11.9625 14.0347L10.95 12.2535C10.3969 11.2785 9.75937 10.2378 9.54375 9.95658C8.74687 8.91596 7.3125 8.03471 5.93437 7.72533C4.94062 7.50971 3.42187 7.57533 2.7375 7.87533C2.10937 8.14721 1.54687 8.77533 1.35937 9.40346C1.18125 10.0035 1.18125 10.341 1.36875 10.9597C1.51875 11.4847 2.95312 14.8972 4.03125 17.2972C4.80937 19.0316 4.89375 19.2847 5.175 20.6722C5.35312 21.5253 5.39062 22.0128 5.39062 23.4847C5.38125 25.8472 5.22187 26.7472 4.29375 29.2972C3.49687 31.5285 3.23437 33.3003 3.38437 35.4285C3.46875 36.6285 3.59062 37.0878 3.84375 37.2191C4.125 37.3691 4.54687 37.3222 4.7625 37.1253C4.9875 36.9097 4.99687 36.7785 4.88437 35.2503C4.74375 33.3753 5.00625 31.7347 5.76562 29.7191C6.51562 27.7035 6.825 26.2128 6.90937 24.1878C6.96562 22.6128 6.84375 21.2535 6.50625 19.6878C6.31875 18.8347 6.06562 18.1597 5.29687 16.3972C3.13125 11.4753 2.67187 10.3128 2.75625 10.0035C2.91562 9.35659 3.43125 9.09408 4.54687 9.09408C6.12187 9.09408 7.59375 9.84409 8.475 11.1003C8.7 11.4191 9.39375 12.5816 10.0125 13.6878L11.1469 15.7035L10.95 16.4535C10.6781 17.466 10.6594 19.266 10.9125 20.5597C11.2312 22.2191 11.025 24.1128 10.3781 25.641C10.2656 25.8941 9.69375 26.8503 9.09375 27.7503C7.5 30.1785 7.2 30.6941 7.15312 31.1628C7.09687 31.6597 7.24687 32.1566 7.56562 32.541C8.2875 33.4035 10.1062 33.591 11.5125 32.9441C12.2812 32.5972 12.6375 32.2691 13.875 30.741C15.3 28.9972 15.6187 28.8003 16.3125 29.2785C16.5844 29.4566 16.7531 29.7753 17.5312 31.5941C18.0375 32.7566 18.9375 34.9503 19.5469 36.4691C20.4562 38.7285 20.7187 39.3003 21 39.5816C21.825 40.416 23.2125 40.2097 24.2156 39.0941C25.1531 38.0535 25.1625 37.3128 24.3281 34.3691C23.9906 33.1878 23.7281 32.2128 23.7469 32.1941C23.7656 32.166 24.5531 33.2722 25.4906 34.6316C26.4844 36.0847 27.3375 37.2285 27.5344 37.3785C27.975 37.716 28.8562 37.791 29.4 37.5378C29.9531 37.2753 30.6094 36.5535 30.8344 35.9535C31.05 35.3816 31.0969 34.491 30.9375 33.9285C30.8812 33.7503 30.2531 32.6066 29.5406 31.3972C28.8187 30.1972 28.2469 29.1941 28.2656 29.166C28.2844 29.1472 29.1 29.8316 30.0656 30.6753C31.0312 31.5285 31.9687 32.2972 32.1469 32.391C32.3906 32.5128 32.625 32.541 33.1031 32.5128C33.6469 32.4847 33.7969 32.4378 34.0969 32.1941C34.5656 31.8191 34.9594 31.0222 35.0344 30.3472C35.0625 30.0566 35.1187 29.8128 35.1469 29.8128C35.175 29.8128 37.1625 29.4753 39.5531 29.0628C41.9437 28.6503 44.025 28.3128 44.175 28.3128C44.5875 28.3128 44.9531 28.5472 45.1406 28.9316C45.5812 29.8597 44.7937 31.6316 43.6875 32.2035C43.4344 32.3347 39.4031 33.7597 34.65 35.4003C33.8344 35.6816 32.9437 36.0285 32.6812 36.1597C32.325 36.3378 31.275 37.3128 28.4531 40.116C25.3781 43.1722 24.5437 43.9503 23.8219 44.4285C22.3031 45.441 21.0562 45.9566 19.2844 46.3222C18.1031 46.566 16.1062 46.5847 14.8969 46.3691C11.2875 45.7222 8.04375 43.3691 6.31875 40.1722C5.84062 39.2816 5.6625 39.0941 5.27812 39.0941C4.9125 39.0941 4.5 39.441 4.5 39.7503C4.5 40.0316 5.07187 41.1472 5.69062 42.0847C6.35625 43.0785 7.77187 44.5597 8.80312 45.3285C10.2281 46.4066 12.1875 47.2972 14.0531 47.7378C15.2437 48.0097 17.8031 48.0753 19.1719 47.8597C21.45 47.5035 23.8125 46.4722 25.5469 45.066C25.8094 44.8597 27.6187 43.0972 29.5781 41.1472C31.5375 39.2066 33.2719 37.5472 33.4219 37.4722C33.5812 37.3972 35.9812 36.5441 38.7656 35.5785C41.55 34.6128 44.0812 33.6847 44.3906 33.5253C45.5156 32.9347 46.3406 31.8378 46.65 30.4972C47.1281 28.4628 46.0312 26.8128 44.2125 26.8128C43.8469 26.8128 37.65 27.816 35.7656 28.1816C35.6156 28.2097 37.4062 27.0472 39.75 25.5941C42.0937 24.141 44.2406 22.7816 44.5219 22.566C46.1812 21.2816 46.6969 18.7222 45.6844 16.8472C45.0375 15.6753 43.5469 15.1316 42.3937 15.6566C42.1781 15.7503 40.2375 16.9128 38.0719 18.2253C35.9156 19.5472 34.0875 20.6441 34.0219 20.6722C33.9469 20.691 33.7969 20.6441 33.675 20.5503L33.4594 20.3816L36.6562 16.641C38.4187 14.5785 40.0219 12.6566 40.2094 12.3566C40.6781 11.6535 40.9031 10.8378 40.9125 9.84409C40.9125 8.57846 40.5375 7.63158 39.6656 6.72221C38.9906 6.00033 38.4094 5.71908 37.5937 5.71908C36.5531 5.71908 36.3094 5.89721 34.1062 8.15658C32.25 10.0503 32.1562 10.1628 32.1562 10.5097C32.1562 10.9878 32.4094 11.2503 32.8687 11.2503C33.1969 11.2503 33.3375 11.1285 35.1937 9.23471L37.1719 7.20971L37.5937 7.21908C37.9687 7.21908 38.0531 7.26596 38.5406 7.76283C39.1781 8.41908 39.4219 9.02846 39.4125 9.95658C39.4125 10.9972 39.1781 11.3347 35.4469 15.7035C33.6187 17.841 32.0812 19.5941 32.0344 19.5941C31.9875 19.5941 31.3219 19.2472 30.5531 18.8347C29.175 18.0753 29.1656 18.066 28.65 17.3253C28.3594 16.9222 28.125 16.566 28.125 16.5378C28.125 16.5097 28.8187 15.7785 29.6719 14.9066C31.0687 13.4816 31.2187 13.2941 31.2187 13.0035C31.2187 12.591 30.975 12.3003 30.5812 12.2253C30.2812 12.1691 30.2156 12.216 28.7344 13.6878C27.3281 15.0847 27 15.3285 27 14.9535C27 14.8878 27.8906 12.9753 28.9781 10.716C30.0656 8.45658 31.0781 6.27221 31.2281 5.85971C31.9969 3.70346 31.0219 1.21908 29.0437 0.281582C28.3219 -0.0652924 27.3844 -0.102795 26.7656 0.178459ZM28.6312 1.79096C29.6625 2.48471 30.2062 3.84408 29.9156 5.01596C29.8219 5.37221 27.225 10.9316 26.1937 12.966L25.9219 13.5003L25.5469 13.0222C24.8344 12.1222 23.5406 11.1941 22.2937 10.6878L21.6562 10.4347L22.4156 9.22533C22.8375 8.55971 24.0375 6.60971 25.0969 4.89408C26.1562 3.17846 27.1031 1.71596 27.2156 1.64096C27.5531 1.40658 28.1344 1.46283 28.6312 1.79096ZM43.95 17.1566C44.6812 17.6066 44.925 19.191 44.4281 20.2597C44.2875 20.5597 44.0156 20.9535 43.8094 21.1503C43.5 21.4691 34.1812 27.3097 33.8719 27.3941C33.7687 27.4222 30.8156 24.9285 30.8812 24.8722C30.8906 24.8535 31.6219 25.0972 32.4937 25.416C33.9375 25.9316 34.1344 25.9785 34.6969 25.9503C35.2031 25.9222 35.3812 25.866 35.6625 25.6597C36.1875 25.2566 36.4031 24.741 36.4125 23.9066C36.4125 23.1285 36.2062 22.5378 35.7281 21.9378L35.4656 21.6097L39.2719 19.2847C42.0094 17.616 43.1531 16.9691 43.3594 16.9691C43.5187 16.9691 43.7812 17.0535 43.95 17.1566Z" fill="white"/>
</g>
<defs>
<clipPath id="clip0_7147_720">
<rect width="48" height="48" fill="white"/>
</clipPath>
</defs>
</svg>
