<svg width="40" height="40" viewBox="0 0 40 40" fill="none" xmlns="http://www.w3.org/2000/svg">
<path d="M18.375 0.749918C18.1797 0.88273 17.8125 1.57023 17.5234 2.33586C17.3828 2.70304 17.2422 2.92179 16.9844 3.14836C16.7422 3.35929 16.5391 3.64836 16.3359 4.09367C16.0547 4.67179 15.7812 5.56242 15.7812 5.88273C15.7812 5.96867 15.6875 6.02336 15.4922 6.05461C14.7422 6.16398 13.5625 6.49211 12.9766 6.74211C10.9844 7.60929 9.1875 9.44523 8.38281 11.4452C7.85938 12.7577 7.78125 13.164 7.78125 14.8046C7.78125 16.0859 7.80469 16.3749 7.95312 16.8984C8.40625 18.5546 9.10938 19.789 10.2344 20.9452C11.2578 21.9843 12.2734 22.6405 13.6016 23.1093C16.1406 24.0077 19.1328 23.6405 21.3516 22.1562C25.6016 19.328 26.6016 13.578 23.5469 9.50773C22.1406 7.63273 20.0391 6.40617 17.6797 6.08586C17.3047 6.03117 16.9844 5.98429 16.9688 5.96867C16.9297 5.94523 17.0938 5.33586 17.2422 4.93742L17.3672 4.60148L17.5312 4.89836C17.7578 5.29679 18.3047 5.62492 18.8359 5.67179C19.6094 5.74992 20.2266 5.27336 20.2891 4.55461C20.375 3.72648 19.8906 2.94523 19.1328 2.67961C18.9219 2.60148 18.75 2.51554 18.75 2.47648C18.75 2.44523 18.875 2.17179 19.0234 1.87492C19.3516 1.23429 19.3594 1.07023 19.1016 0.82023C18.8828 0.593668 18.625 0.57023 18.375 0.749918ZM18.9531 3.96086C19.1719 4.19523 19.1719 4.47648 18.9688 4.51554C18.7812 4.55461 18.4375 4.18742 18.4375 3.94523C18.4375 3.67961 18.6953 3.68742 18.9531 3.96086ZM13.1016 13.5546C13.9219 14.1327 14.1016 15.4687 13.3672 15.4687C13.2578 15.4687 13.125 15.4374 13.0781 15.4062C12.9453 15.3202 12.8125 15.0312 12.8125 14.8124C12.8125 14.539 12.5312 14.2968 12.2109 14.2968C11.8594 14.2968 11.5625 14.5937 11.5625 14.9296C11.5625 15.2499 11.3672 15.4687 11.0781 15.4687C10.1875 15.4687 10.5234 13.8905 11.5156 13.4218C12 13.203 12.6797 13.2577 13.1016 13.5546ZM21.7109 13.539C22.5859 14.1171 22.7578 15.4687 21.9609 15.4687C21.6797 15.4687 21.5156 15.2734 21.4609 14.8827C21.3984 14.5077 21.1719 14.2968 20.8125 14.2968C20.4922 14.2968 20.2344 14.5234 20.2344 14.8124C20.2344 15.0312 20.1094 15.3202 19.9688 15.4062C19.8047 15.5155 19.4766 15.4687 19.3359 15.3124C19.125 15.078 19.2031 14.3827 19.5 13.9687C20 13.2577 21 13.0702 21.7109 13.539ZM15.2891 16.2109C15.3906 16.2812 15.5312 16.4843 15.6172 16.6796C15.8047 17.1093 16.0625 17.2812 16.5234 17.2812C16.9922 17.2812 17.25 17.1015 17.4453 16.6405C17.625 16.2109 17.8594 16.0546 18.1641 16.1718C18.8203 16.4218 18.3281 17.6249 17.3906 18.0859C16.7891 18.3749 16.2422 18.3749 15.6484 18.078C14.7031 17.6015 14.2266 16.4296 14.8672 16.1718C15.1016 16.078 15.1016 16.078 15.2891 16.2109Z" fill="#151515"/>
<path d="M6.35156 12.1875C5.57031 12.3438 4.82812 12.9375 4.48438 13.6953C4.29688 14.1016 4.25781 14.2812 4.25781 14.8047C4.25781 15.3281 4.29688 15.5078 4.47656 15.9062C4.875 16.7578 5.67969 17.3438 6.63281 17.4688L7.05469 17.5234L7 17.2578C6.74219 15.9766 6.70312 15.5391 6.75 14.4531C6.77344 13.8281 6.84375 13.0938 6.90625 12.8125C6.97656 12.5312 7.02344 12.2578 7.03125 12.2031C7.03125 12.1016 6.84375 12.0938 6.35156 12.1875Z" fill="#151515"/>
<path d="M26.0469 12.3906C26.4141 14.4062 26.4141 15.2031 26.0469 17.2188L25.9922 17.5234L26.4141 17.4688C27.3516 17.3438 28.1172 16.7969 28.5312 15.9531C28.7578 15.4922 28.7891 15.3594 28.7891 14.8047C28.7812 14.0781 28.5703 13.5156 28.0859 12.9766C27.7344 12.5859 26.9844 12.2188 26.4141 12.1406L25.9922 12.0938L26.0469 12.3906Z" fill="#151515"/>
<path d="M8.46879 21.3984C8.33598 21.4766 8.18754 21.6484 8.13286 21.7734C8.06254 21.9453 8.04692 23.2266 8.06254 27.1172L8.09379 32.2266L8.30473 33.0078C8.80473 34.8594 9.92192 36.5391 11.3985 37.6641C12.336 38.375 14.2969 39.2188 15.0079 39.2188C15.211 39.2188 16.3907 38.4844 17.1094 37.9062C17.75 37.3906 18.8438 36.2969 19.1875 35.8125C19.9297 34.7812 20.2032 33.9453 20.1407 32.9062C20.0704 31.6797 19.3672 30.6641 17.6641 29.3516C14.6094 27.0078 11.0391 23.6641 9.45317 21.6562C9.08598 21.2031 8.88286 21.1484 8.46879 21.3984ZM16.8829 31.8047C17.6719 32.0703 18.0313 32.9375 17.6563 33.6641C17.0782 34.8047 15.3594 34.4531 15.25 33.1719C15.1719 32.2266 16.0235 31.5156 16.8829 31.8047Z" fill="#151515"/>
<path d="M23.3281 21.8436C20.7188 24.328 17.1172 25.2186 13.7266 24.2108C13.4297 24.1249 13.1641 24.0624 13.1328 24.078C12.9844 24.1405 16.0078 26.7968 17.9922 28.3515C20.3438 30.1952 21.0781 31.2655 21.1563 32.9765C21.211 34.1093 20.9063 35.0624 20.1485 36.1874C19.711 36.8358 18.5781 37.9999 17.7891 38.6093C16.711 39.453 16.75 39.3905 17.3828 39.328C18.2656 39.2499 19.3516 38.9374 20.2031 38.5155C22.0156 37.6327 23.3594 36.2655 24.2188 34.4218C24.6875 33.4374 24.6875 33.3983 24.2656 32.7733C23.8281 32.1171 23.4844 31.2421 23.3672 30.4921C23.3203 30.164 23.2813 28.7811 23.2813 27.164C23.2813 23.914 23.2031 24.1718 24.2891 23.7108L25 23.4061V22.7108C25 21.9218 24.8828 21.5858 24.5391 21.3827C24.1485 21.1561 23.9922 21.2108 23.3281 21.8436Z" fill="#151515"/>
<path d="M27.0859 23.5781L24.2891 24.7969L24.3125 27.6875C24.3438 30.8359 24.3438 30.8203 24.8438 31.7969C25.2734 32.6406 26.3828 33.8047 27.3828 34.4609C27.9609 34.8516 29.1016 35.4375 29.6953 35.6562L30.0547 35.7969L30.6719 35.5469C33 34.6172 34.8984 32.8984 35.5625 31.125C35.7266 30.6875 35.7344 30.5312 35.7656 27.7266C35.7891 25.3516 35.7734 24.7812 35.6875 24.7422C35.6328 24.7188 34.3594 24.1719 32.8594 23.5234C31.3594 22.875 30.0703 22.3516 30.0078 22.3516C29.9375 22.3594 28.625 22.9062 27.0859 23.5781ZM31.0938 25.8594C31.1328 25.9219 31.1719 26.4062 31.1719 26.9297V27.8906H32.1406C32.9219 27.8906 33.1406 27.9141 33.2344 28.0156C33.4219 28.1953 33.4141 29.9375 33.2266 30.0859C33.1406 30.1641 32.8047 30.2031 32.1328 30.2188L31.1719 30.25V31.2031C31.1719 31.8438 31.1406 32.1875 31.0781 32.25C30.9453 32.3828 29.1328 32.3828 29 32.25C28.9375 32.1875 28.9062 31.8438 28.9062 31.2031V30.25L27.9219 30.2188C26.6875 30.1875 26.7188 30.2188 26.7188 29.0312C26.7188 27.8672 26.6953 27.8906 27.9453 27.8906H28.9062V26.9219C28.9062 25.6719 28.8906 25.6875 30.1406 25.7188C30.8203 25.7344 31.0391 25.7656 31.0938 25.8594Z" fill="#151515"/>
</svg>
