<svg width="48" height="48" viewBox="0 0 48 48" fill="none" xmlns="http://www.w3.org/2000/svg">
<g clip-path="url(#clip0_7649_3472)">
<path d="M34.8938 0.159374C34.5094 0.346874 33.7125 1.21875 33.2906 1.9125C32.4375 3.32812 32.0531 4.96875 31.8844 7.88437C31.7719 9.77812 31.8375 10.1062 32.475 10.6687C33.5438 11.6062 35.25 11.1281 35.5219 9.825C35.5781 9.5625 35.6156 9.6 36.9844 10.9688L38.3906 12.3844L32.2969 12.3656C26.1563 12.3562 24.9656 12.4031 23.1844 12.7406C16.9219 13.9312 13.5656 17.6062 12.6094 24.3281C12.4125 25.7156 12.2906 27.6937 12.375 28.0594C12.5906 29.0062 13.2375 29.5312 14.2031 29.5312C15.1594 29.5312 15.8438 28.9875 16.0312 28.0687C16.0781 27.8156 16.1531 27.1125 16.1813 26.4937L16.2375 25.3781L19.4156 28.5562L22.5938 31.7344L21.825 31.8094C21.3938 31.8469 18.4125 31.8656 15.1875 31.8281C7.45313 31.7625 5.4375 31.875 3.4875 32.4937C2.54063 32.7937 1.30313 33.5812 0.628125 34.3031C0.09375 34.875 0 35.1 0 35.8031C0 36.8438 0.778125 37.5938 1.86563 37.5938C2.42813 37.5938 2.78438 37.4344 3.375 36.9094C3.60938 36.7125 4.02188 36.4312 4.29375 36.3L4.78125 36.0562L8.33438 39.6L11.8875 43.1531L11.7 43.5844C11.6063 43.8281 11.3531 44.2312 11.1562 44.4844C10.5094 45.3094 10.3781 45.6187 10.425 46.275C10.4906 47.3438 11.1938 48 12.2719 48C12.9188 48 13.3125 47.8031 13.8375 47.2125C15.0844 45.8344 15.825 43.7062 16.125 40.6406C16.3125 38.6906 16.2188 37.9594 15.7219 37.4156C15.2344 36.8906 14.2313 36.6937 13.5281 36.9844C13.05 37.1906 12.8531 37.3781 12.6094 37.8937L12.4031 38.3344L11.0531 36.975L9.70312 35.625H15.75C22.7063 35.6344 23.7188 35.5687 26.0531 34.9687C28.95 34.2281 31.3969 32.6719 32.8313 30.6562C34.5094 28.2844 35.5594 24.2906 35.5688 20.1844C35.5781 18.3844 35.5688 18.3656 34.8375 17.775C34.5188 17.5125 34.425 17.4844 33.8063 17.4844C33.225 17.4844 33.075 17.5219 32.7375 17.7469C32.0438 18.1969 31.95 18.525 31.8563 20.6156C31.8188 21.6187 31.7719 22.4531 31.7531 22.4625C31.7344 22.4812 30.3188 21.0844 28.6031 19.3687L25.4719 16.2375L26.6813 16.1719C27.3469 16.1344 30.1875 16.125 33 16.1625C39.8438 16.2469 42.1219 16.1156 44.2219 15.5062C45.5906 15.1125 46.9406 14.2781 47.6625 13.3781C47.8969 13.0875 47.9531 12.9187 47.9813 12.4219C48.0563 11.25 47.4094 10.5 46.2656 10.425C45.6094 10.3781 45.3094 10.5 44.625 11.0625C44.1844 11.4281 43.5 11.8125 43.2938 11.8125C43.1344 11.8125 36.1875 4.86562 36.1875 4.70625C36.1875 4.49062 36.6562 3.65625 36.975 3.3C37.4344 2.79375 37.5938 2.41875 37.5938 1.86562C37.5938 0.759373 36.8438 0 35.775 0C35.4375 0 35.0719 0.0656242 34.8938 0.159374ZM25.9594 22.0687L30.6844 26.7937L30.5625 27.0938C30.0375 28.3687 28.6969 29.7469 27.2906 30.4688L26.8781 30.675L22.0969 25.8937L17.3156 21.1125L17.6813 20.4375C18.0938 19.6781 19.0219 18.6094 19.6781 18.1594C20.2031 17.7937 21.0094 17.3437 21.1406 17.3437C21.1969 17.3437 23.3625 19.4719 25.9594 22.0687Z" fill="#6E3D68"/>
</g>
<defs>
<clipPath id="clip0_7649_3472">
<rect width="48" height="48" fill="white"/>
</clipPath>
</defs>
</svg>
