<svg width="40" height="47" viewBox="0 0 40 47" fill="none" xmlns="http://www.w3.org/2000/svg">
<path d="M29.9412 0.170435C29.7915 0.264185 29.464 0.554811 29.2208 0.81731C28.8278 1.23918 28.7716 1.35169 28.7716 1.69856C28.7716 2.12981 28.8933 2.37356 29.3705 2.87981L29.6512 3.17981L28.257 4.58606L26.8535 5.99231L28.3319 7.46418L29.8009 8.94543L31.2044 7.53918L32.6079 6.14231L32.9073 6.42356C33.4126 6.90168 33.6558 7.02356 34.0769 7.02356C34.4231 7.02356 34.5354 6.96731 35.0313 6.49856C35.3588 6.19856 35.6395 5.85168 35.6956 5.65481C35.9108 5.00793 35.8266 4.87668 33.4687 2.50481C32.2617 1.27669 31.1295 0.21731 30.9611 0.132936C30.5681 -0.0545645 30.2874 -0.0451899 29.9412 0.170435Z" fill="#6E3D68"/>
<path d="M23.1113 5.86419C22.6434 6.09856 13.1557 15.6423 12.9499 16.0736C12.7347 16.5329 12.7253 17.2267 12.9125 17.6954C13.0902 18.1267 17.6189 22.7017 18.1241 22.9736C18.592 23.2173 19.4902 23.2173 19.958 22.9736C20.1452 22.8704 22.5031 20.5829 25.1884 17.8829C30.3346 12.7079 30.2691 12.7923 30.2691 11.9579C30.2691 11.1798 30.1475 11.0204 27.6586 8.49856C26.3393 7.16731 25.1042 5.99544 24.9171 5.89231C24.4867 5.66731 23.5136 5.64856 23.1113 5.86419Z" fill="#6E3D68"/>
<path d="M31.719 13.6981C31.4944 14.1856 31.1295 14.6075 29.7354 16.0325L28.0231 17.7762L28.6874 18.2168C30.1845 19.22 31.7564 21.02 32.5985 22.7168C33.5155 24.5543 33.8617 26.0637 33.8523 28.1168C33.843 29.6075 33.712 30.4231 33.2535 31.8293C31.9529 35.8137 28.5377 38.8606 24.374 39.7512C23.0921 40.0325 20.9869 40.0512 19.7892 39.7981C17.4407 39.3106 15.2606 38.1762 13.7541 36.6575L13.0992 36.0012L9.47814 35.9918C7.4758 35.9918 5.84774 36.02 5.84774 36.0575C5.84774 36.3012 7.1951 38.4293 7.97171 39.3856L8.47697 40.0231H7.91557C6.24072 40.0231 4.65944 41.2043 4.16353 42.8168C3.92026 43.595 3.90155 45.3012 4.12611 45.6293C4.48166 46.145 3.35886 46.1168 21.988 46.1168C40.8699 46.1168 39.5506 46.1543 39.8593 45.5543C40.0277 45.2356 40.0465 44.0637 39.9061 43.295C39.5786 41.5325 38.0441 40.1731 36.257 40.0512C35.8453 40.0231 35.5085 39.9762 35.5085 39.9575C35.5085 39.9293 35.6769 39.7137 35.8921 39.4793C36.5564 38.72 37.6324 37.0137 38.2125 35.8043C40.6079 30.7512 40.5611 25.0512 38.0816 20.0075C36.8465 17.4856 35.0219 15.2918 32.7576 13.595C32.402 13.3325 32.0839 13.1168 32.0558 13.1168C32.0184 13.1168 31.8687 13.3793 31.719 13.6981Z" fill="#6E3D68"/>
<path d="M11.4713 20.1846C11.0503 20.644 10.9941 20.7471 10.9941 21.1034C10.9941 21.3284 11.0316 21.5627 11.0784 21.6284C11.3029 21.9846 14.3345 24.9377 14.5216 24.9846C14.9333 25.0877 15.3356 24.9377 15.7848 24.4877C16.0374 24.244 16.2339 24.0002 16.2339 23.944C16.2339 23.8502 12.1169 19.6784 12.014 19.6784C11.986 19.6784 11.7427 19.9034 11.4713 20.1846Z" fill="#6E3D68"/>
<path d="M0.271344 29.3454C0 29.6267 0 29.6361 0 30.7236C0 31.6423 0.0374268 31.8954 0.205847 32.2611C0.486548 32.8798 1.10409 33.5079 1.72163 33.8079L2.24561 34.0704H7.99997C13.6982 34.0704 13.7543 34.0704 14.1941 33.8642C14.8116 33.5829 15.4385 32.9642 15.738 32.3454C15.9812 31.8673 15.9999 31.7361 15.9999 30.7236C15.9999 29.6454 15.9999 29.6267 15.7286 29.3454L15.4479 29.0548H7.99997H0.552045L0.271344 29.3454Z" fill="#6E3D68"/>
</svg>
