<svg width="40" height="47" viewBox="0 0 40 47" fill="none" xmlns="http://www.w3.org/2000/svg">
<path d="M17.9061 0.10898C15.2061 0.708981 12.7686 2.64961 10.6873 5.83711C8.83109 8.68711 7.46234 12.3715 7.02171 15.6715C6.87171 16.8246 6.95609 18.3996 7.21859 19.234C7.79046 21.0715 9.28109 22.7309 11.3061 23.7996L12.1405 24.2402L13.1811 23.9965C14.1467 23.7715 14.2405 23.734 14.3623 23.4809L14.4842 23.209L14.9061 23.5652C16.3592 24.8309 17.8311 25.4121 19.5936 25.4121C21.3561 25.4121 22.828 24.8309 24.2811 23.5652L24.703 23.209L24.8248 23.4809C24.9467 23.734 25.0405 23.7715 26.0717 24.0059L27.178 24.259L27.9186 23.8746C29.4561 23.0777 30.8623 21.709 31.528 20.359C32.0342 19.3465 32.1655 18.784 32.2217 17.5465C32.3623 14.434 30.9373 9.76523 28.7998 6.30586C27.5623 4.29961 25.9123 2.47148 24.4873 1.52461C23.6905 0.999605 22.4717 0.418356 21.703 0.20273C20.9155 -0.0222683 18.7123 -0.0691433 17.9061 0.10898ZM15.6092 9.39961C18.4686 12.6996 21.4592 14.8746 24.2248 15.6715C25.1342 15.934 26.2873 16.0746 26.3717 15.934C26.3998 15.8871 26.4748 15.3152 26.5405 14.6684L26.653 13.4871L26.9342 13.4309C28.1061 13.1965 28.6592 13.7309 28.5748 15.0152C28.4717 16.5715 27.1498 18.2402 26.0061 18.2496C25.7248 18.2496 25.6967 18.2871 25.3686 19.084C24.3842 21.4465 22.6498 23.134 20.6717 23.6402C18.0467 24.3059 15.1967 22.4121 13.8186 19.084C13.4905 18.2871 13.4623 18.2496 13.1811 18.2496C12.0373 18.2402 10.7155 16.5715 10.6123 15.0152C10.528 13.7027 11.1748 13.1215 12.3373 13.459L12.6373 13.5434L12.9373 12.3527C13.1061 11.7059 13.3686 10.8152 13.5186 10.3746C13.8092 9.54023 14.428 8.21836 14.5311 8.21836C14.5592 8.21836 15.0467 8.75273 15.6092 9.39961Z" fill="#6E3D68"/>
<path d="M13.3875 25.4418L12.8438 25.5824V28.573C12.8438 30.8887 12.8719 31.573 12.9656 31.6012C13.0219 31.6199 13.2938 31.6855 13.5469 31.7418C14.5969 31.9855 15.6188 32.8949 16.0406 33.973C16.2469 34.4699 16.2563 34.6574 16.2656 36.2793C16.2656 38.023 16.2656 38.0512 16.0406 38.2293C15.7125 38.4918 15.2438 38.4637 15.0094 38.1637C14.8313 37.9293 14.8125 37.7887 14.8125 36.4105C14.8125 34.6105 14.7375 34.2918 14.1563 33.7199C13.6313 33.1855 13.2281 33.0637 12.0375 33.0637C10.6688 33.073 10.0406 33.3918 9.6 34.3293C9.39375 34.7605 9.375 34.9105 9.375 36.4199C9.375 38.0137 9.375 38.0418 9.14062 38.2668C8.84063 38.5762 8.44688 38.5762 8.14688 38.2574C7.93125 38.0324 7.92188 37.948 7.89375 36.7012C7.85625 35.1824 7.96875 34.348 8.30625 33.6449C8.775 32.6887 9.87188 31.8449 10.875 31.6762L11.2969 31.6012L11.325 28.7699C11.3344 27.2137 11.3156 25.9387 11.2781 25.9387C11.0438 25.9387 8.55 26.6605 7.79063 26.9418C6.0375 27.5887 5.09063 28.1699 4.11563 29.1918C2.75625 30.598 1.82813 32.4824 1.0875 35.323C0.75 36.6168 0 40.348 0 40.7324C0 41.2012 1.425 42.373 2.53125 42.8137C2.99063 43.0012 4.2 43.273 4.59375 43.2824C4.69688 43.2824 4.74375 43.1605 4.7625 42.8324C4.86563 41.0512 5.46563 34.6012 5.54063 34.4605C5.75625 34.0574 6.32813 33.9824 6.6375 34.3105C6.90938 34.6012 6.90938 34.7043 6.51563 39.2512L6.19688 43.0387L6.38438 43.348C7.49063 45.1293 12.4969 46.6387 17.8875 46.8168L19.5938 46.873V43.7605V40.6574L17.0063 33.3637C15.5813 29.3605 14.3531 25.9012 14.2781 25.6762C14.1281 25.2355 14.1375 25.2449 13.3875 25.4418Z" fill="#6E3D68"/>
<path d="M24.8156 25.7668C24.6938 26.0387 23.4844 28.5512 22.1344 31.3543C20.7938 34.148 19.6875 36.473 19.6875 36.5105C19.6875 36.5574 20.0063 37.4668 20.3906 38.5543L21.0938 40.5137V43.673V46.8418H21.4031C22.8281 46.8324 25.9969 46.3918 27.7031 45.9512C30.2344 45.3043 32.1375 44.3387 32.7656 43.3918L32.9906 43.0449L32.6719 39.2012C32.2781 34.5512 32.2781 34.5605 32.5594 34.298C32.6813 34.1855 32.8969 34.0918 33.0375 34.0918C33.3 34.0918 33.75 34.4574 33.75 34.673C33.7688 35.2449 34.4813 43.1949 34.5188 43.2324C34.6125 43.3262 35.9531 43.073 36.5531 42.848C37.7063 42.4168 39.1875 41.2262 39.1875 40.7293C39.1875 40.3449 38.4375 36.6137 38.1 35.3199C37.3594 32.4793 36.4313 30.5949 35.0719 29.1887C33.7688 27.8293 32.2125 27.0512 29.2031 26.2543C28.5375 26.0855 27.9563 25.9355 27.9188 25.9355C27.8719 25.9355 27.8438 27.3137 27.8438 29.0012V32.0762L28.125 32.2637C28.425 32.4605 28.875 33.248 28.875 33.5668C28.875 34.5324 28.0219 35.3949 27.0656 35.4043C26.3719 35.4043 25.6406 34.8418 25.4062 34.1293C25.1906 33.473 25.5 32.5824 26.0719 32.2449L26.3438 32.0855V28.823V25.5605L26.0906 25.5043C25.9406 25.4762 25.6781 25.4105 25.5 25.3637C25.3219 25.3168 25.1438 25.2793 25.1063 25.2793C25.0781 25.2793 24.9375 25.5043 24.8156 25.7668Z" fill="#6E3D68"/>
</svg>
