<svg width="48" height="48" viewBox="0 0 48 48" fill="none" xmlns="http://www.w3.org/2000/svg">
<path d="M23.8126 0.27206C22.3688 0.74081 21.4501 1.33144 20.3813 2.46581C17.6813 5.30644 17.4376 9.65644 19.8001 12.8627C20.9157 14.3721 22.7157 15.5346 24.6095 15.9471C25.5001 16.1439 27.3657 16.0971 28.2751 15.8627C31.1907 15.0939 33.3001 13.0033 34.1438 10.0596C34.4251 9.08456 34.4438 7.05019 34.1813 6.04706C33.797 4.55644 32.9438 3.12206 31.8001 2.04393C30.9657 1.25644 30.047 0.712686 28.8938 0.318935C27.9938 0.000185013 27.9657 0.000185013 26.297 0.000185013C24.7032 0.00955963 24.5626 0.0189342 23.8126 0.27206Z" fill="#6E3D68"/>
<path d="M21.4313 17.5888C18.1782 18.2357 15.6845 20.5607 14.7938 23.7669C14.6063 24.4513 14.5876 24.7701 14.5501 27.6294L14.522 30.7326L14.9438 30.6107C15.6001 30.4138 16.397 30.3482 17.0251 30.4513C17.5595 30.5451 28.922 34.2388 29.7845 34.6044C30.3188 34.8294 30.9095 35.3826 31.2376 35.9826C31.4438 36.3388 31.5657 36.4607 31.6688 36.4232C31.7438 36.3951 33.2157 35.4763 34.9313 34.3794L38.0532 32.3919V31.6982L38.0626 30.9951L34.8845 27.8076C31.8001 24.6951 31.7063 24.5919 31.3313 23.8138C30.3938 21.8732 30.6845 19.9232 32.1751 18.2357L32.447 17.9169L31.9501 17.7763C30.9282 17.4857 30.1876 17.4388 26.1563 17.4482C23.1188 17.4576 21.9188 17.4857 21.4313 17.5888Z" fill="#6E3D68"/>
<path d="M34.4813 18.2719C32.7938 18.9469 31.9219 20.4281 32.175 22.2281C32.3156 23.2969 32.5594 23.6063 35.7656 26.8125L38.7188 29.7656L41.7188 26.7656C45.2625 23.2125 45.2344 23.25 45.2344 21.6563C45.2344 20.7844 45.2063 20.6063 44.9813 20.1375C44.6344 19.3969 44.0625 18.8063 43.3219 18.4406C42.75 18.1594 42.6469 18.1406 41.7188 18.1406C40.8563 18.1406 40.6688 18.1688 40.2188 18.3844C39.9375 18.5156 39.5156 18.7781 39.3 18.9656C39.075 19.1625 38.8125 19.3125 38.7188 19.3125C38.6344 19.3125 38.3438 19.1438 38.0813 18.9375C37.3219 18.3281 36.8344 18.1594 35.8125 18.1219C35.1094 18.0938 34.8281 18.1313 34.4813 18.2719ZM39.1781 20.5875C39.3469 20.8031 39.375 20.9719 39.375 21.6656V22.5H40.2094C41.2031 22.5 41.5313 22.6688 41.5313 23.1938C41.5313 23.7094 41.2781 23.8406 40.2563 23.8875L39.375 23.925V24.7688C39.375 25.5281 39.3563 25.6219 39.1406 25.8281C38.8594 26.1094 38.6344 26.1188 38.3063 25.8656C38.0719 25.6875 38.0625 25.6313 38.0625 24.7969V23.925L37.1719 23.8875C36.4219 23.8594 36.2438 23.8219 36.0844 23.6531C35.8031 23.3719 35.8219 22.9781 36.1313 22.7156C36.3563 22.5281 36.4875 22.5 37.2281 22.5H38.0625V21.6375C38.0625 20.8875 38.0906 20.7469 38.2688 20.5594C38.5406 20.2688 38.9344 20.2781 39.1781 20.5875Z" fill="#6E3D68"/>
<path d="M15.5625 31.8203C15.2812 31.8859 14.85 32.0359 14.6156 32.1672C13.8281 32.5797 9.38437 35.2984 9.375 35.3641C9.375 35.4297 13.6406 42.1609 13.7719 42.3016C13.8094 42.3391 14.4281 42.0203 15.1406 41.5797C15.8625 41.1391 16.5281 40.7828 16.6219 40.7828C16.725 40.7828 19.0594 41.5328 21.825 42.4422L26.8594 44.1016H27.75C28.4812 44.1016 28.7437 44.0547 29.2031 43.8672C29.9625 43.5484 40.7437 36.6391 41.175 36.1891C42.4312 34.8859 41.1562 32.7109 39.4031 33.1797C38.9906 33.2922 31.6969 37.9422 31.5844 38.1578C31.5469 38.2328 31.4437 38.4859 31.35 38.7203C30.8625 39.8734 29.775 40.6328 28.6031 40.6328C28.0687 40.6328 27.5719 40.4922 25.0781 39.6672C23.1375 39.0297 22.1156 38.6453 22.0125 38.5141C21.6656 38.1109 21.9469 37.5016 22.4812 37.5016C22.6219 37.5016 23.9437 37.9047 25.4062 38.3922C28.2187 39.3391 28.7625 39.4422 29.3156 39.1609C30.4781 38.5516 30.6469 36.7703 29.6156 36.0109C29.2969 35.7672 17.6625 31.9047 16.8937 31.7734C16.2562 31.6703 16.2187 31.6703 15.5625 31.8203Z" fill="#6E3D68"/>
<path d="M5.15622 36.2834C3.94685 37.0616 2.96247 37.7459 2.98122 37.8022C2.99997 37.8678 4.44372 40.1647 6.20622 42.9116C8.28747 46.1834 9.43122 47.8897 9.49684 47.8428C10.9687 46.9334 13.8375 45.0678 13.8562 45.0022C13.8937 44.8991 7.51872 34.8772 7.42497 34.8772C7.38747 34.8772 6.3656 35.5147 5.15622 36.2834Z" fill="#6E3D68"/>
</svg>
