<svg width="32" height="32" viewBox="0 0 32 32" fill="none" xmlns="http://www.w3.org/2000/svg">
<g clip-path="url(#clip0_7983_3751)">
<path d="M16 16C11.588 16 8.00002 12.412 8.00002 8H11.3334C14.552 8 17.4307 6.28133 19.036 3.62533C18.2907 3.10667 17.4027 2.79333 16.448 2.712C15.2747 4.316 13.4054 5.33333 11.3334 5.33333H8.46669C9.56802 2.23067 12.524 0 16 0C20.412 0 24 3.588 24 8C24 12.412 20.412 16 16 16ZM18.6667 24.2453V18.6667H11.972V24.3693C12.7654 24.8307 13.3054 25.6813 13.3054 26.6667C13.3054 28.14 12.112 29.3333 10.6387 29.3333C9.16535 29.3333 7.97202 28.14 7.97202 26.6667C7.97202 25.6827 8.51202 24.832 9.30535 24.3693V18.6693C5.64269 18.6853 2.66669 21.6667 2.66669 25.3333V32H16V28C16 26.264 17.1187 24.7973 18.6667 24.2453ZM22.6667 18.6667H21.3334V24.2453C22.8814 24.7973 24 26.264 24 28V32H29.3334V25.3333C29.3334 21.6573 26.3427 18.6667 22.6667 18.6667ZM20 26.6667C19.264 26.6667 18.6667 27.264 18.6667 28V32H21.3334V28C21.3334 27.264 20.736 26.6667 20 26.6667Z" fill="#DD2590"/>
</g>
<defs>
<clipPath id="clip0_7983_3751">
<rect width="32" height="32" fill="white"/>
</clipPath>
</defs>
</svg>
