<svg width="42" height="28" viewBox="0 0 42 28" fill="none" xmlns="http://www.w3.org/2000/svg">
<path d="M18.0201 0.0898781C13.1955 0.632757 8.43214 2.94437 4.96472 6.42931C3.04713 8.35565 1.3572 10.8161 0.376513 13.1102L0 13.9946L0.376513 14.879C0.788051 15.8509 1.75122 17.5846 2.37291 18.4602C6.11177 23.8014 11.8383 27.2251 18.1689 27.9081C19.2635 28.0306 21.9428 28.0306 23.0373 27.9081C29.368 27.2251 35.0945 23.8014 38.8334 18.4602C39.4551 17.5846 40.4182 15.8509 40.8298 14.879L41.2063 13.9946L40.8298 13.1102C39.8491 10.8161 38.1592 8.35565 36.2416 6.42931C32.7216 2.89183 27.9846 0.615244 23.0373 0.0811214C22.0304 -0.0327091 19.0183 -0.0239525 18.0201 0.0898781ZM22.8972 5.00206C24.5171 5.43111 25.8305 6.17538 27.0564 7.36621C28.3085 8.58331 29.1491 10.0106 29.5957 11.7005C29.8058 12.4535 29.8321 12.7162 29.8321 13.9946C29.8321 15.273 29.8058 15.5357 29.6044 16.2799C29.1404 18.0049 28.3698 19.3096 27.0476 20.6055C25.1563 22.4618 22.8972 23.3461 20.2967 23.2498C17.8012 23.1535 15.6997 22.2253 13.9748 20.4478C12.7927 19.222 12.0484 17.9261 11.6019 16.2887C11.4005 15.5357 11.3742 15.2817 11.3742 13.9946C11.3742 12.7074 11.4005 12.4535 11.6019 11.7005C12.0659 10.0106 12.8978 8.57455 14.1499 7.36621C15.5246 6.03528 16.8993 5.29977 18.8081 4.88823C19.9377 4.64306 21.7152 4.69559 22.8972 5.00206Z" fill="url(#paint0_linear_7471_2782)"/>
<path d="M19.0709 8.54922C17.1095 9.13588 15.6297 10.6419 15.1394 12.5595C14.9555 13.2688 14.9555 14.7223 15.1394 15.4315C15.6385 17.3754 17.2146 18.9515 19.1759 19.4593C19.8589 19.6345 21.2599 19.6345 21.9954 19.4681C23.948 19.004 25.5592 17.4017 26.0758 15.3877C26.3034 14.5296 26.2246 12.9273 25.9269 12.0954C25.3578 10.5018 24.0531 9.20592 22.442 8.64553C21.6539 8.36534 19.8502 8.32156 19.0709 8.54922Z" fill="url(#paint1_linear_7471_2782)"/>
<defs>
<linearGradient id="paint0_linear_7471_2782" x1="4.36842" y1="14" x2="36.97" y2="14" gradientUnits="userSpaceOnUse">
<stop stop-color="#17A2B8"/>
<stop offset="1" stop-color="#F4C95D"/>
</linearGradient>
<linearGradient id="paint1_linear_7471_2782" x1="16.1895" y1="13.9976" x2="25.0554" y2="13.9976" gradientUnits="userSpaceOnUse">
<stop stop-color="#17A2B8"/>
<stop offset="1" stop-color="#F4C95D"/>
</linearGradient>
</defs>
</svg>
