<svg width="54" height="54" viewBox="0 0 54 54" fill="none" xmlns="http://www.w3.org/2000/svg">
<g opacity="0.3" clip-path="url(#clip0_7649_3479)">
<path d="M14.7131 3.43438C14.5443 3.45547 14.0381 3.5293 13.6057 3.59258C6.94004 4.5418 1.39239 10.1 0.211138 17.0187C-0.0419871 18.5375 -0.0736278 21.0477 0.158404 22.6613C0.791216 27.1016 3.06934 31.6684 6.7713 35.9398C7.81544 37.1316 7.942 37.2266 8.47989 37.2266C8.90176 37.2266 9.4713 36.7941 9.50294 36.4355C9.55567 35.8133 9.46075 35.6445 8.51153 34.5266C4.89395 30.2656 2.91114 26.2789 2.30997 22.0602C2.15176 20.9 2.24669 17.9258 2.47872 16.8711C2.96387 14.6984 3.8709 12.7578 5.23145 11.0176C7.65723 7.8957 10.9795 6.06055 14.8924 5.67031C17.5291 5.40664 20.7143 6.09219 22.8025 7.38945C23.1506 7.60039 23.5514 7.74805 23.8572 7.77969C24.3002 7.82187 24.3846 7.79023 24.6799 7.50547C25.0912 7.08359 25.1229 6.48242 24.7432 6.03945C24.1631 5.34336 21.2838 4.11992 19.2166 3.6875C18.2358 3.47656 15.483 3.32891 14.7131 3.43438Z" fill="white"/>
<path d="M35.9652 3.47914C33.6449 3.80609 31.4723 4.58656 29.4473 5.81C26.9898 7.3182 25.682 9.45922 25.8719 11.6846C25.9879 13.0135 26.3043 13.6674 28.0129 16.167C28.941 17.5276 29.2152 18.2764 29.2891 19.658C29.3523 20.6495 29.3418 20.7022 29.152 20.6284C28.6773 20.4491 27.8969 20.333 27.4961 20.3963C26.8211 20.5018 25.9457 20.9448 25.5133 21.4194L25.123 21.8413L24.6801 21.5248C24.216 21.1979 23.5516 20.9448 22.8238 20.8288L22.402 20.7655V19.0569C22.402 17.5487 22.3703 17.2745 22.1594 16.6627C21.4211 14.5745 19.607 13.003 17.2867 12.444C16.1898 12.1803 14.4602 12.1592 13.4266 12.4018C11.9078 12.7498 10.2625 13.7729 9.33437 14.9541C8.20586 16.3885 7.66797 17.9284 7.66797 19.7213C7.66797 21.5776 8.21641 23.0858 9.45039 24.6256C9.77734 25.0264 10.1043 25.501 10.1781 25.6803C10.252 25.8491 10.3363 26.6401 10.368 27.4311C10.4734 29.8252 10.9164 31.5655 11.95 33.5799C13.3 36.2166 15.5043 38.3471 18.2992 39.7182C22.3492 41.6905 26.7473 41.7221 30.6391 39.8131C33.434 38.442 35.1531 35.9741 35.5012 32.8205C35.575 32.1561 35.575 32.1561 35.8703 32.2194C36.2922 32.3143 37.3785 32.0084 37.9059 31.6393C38.7918 31.0381 39.3191 29.8463 39.2031 28.7073C39.1293 27.9795 38.3805 25.5116 37.948 24.5834C37.5684 23.7924 36.5875 22.7588 35.7965 22.337C34.7102 21.7569 33.0754 21.5565 31.8941 21.8623L31.3668 21.9995L31.4617 21.3666C31.5145 21.008 31.525 20.1748 31.5039 19.5104C31.409 17.5592 30.9871 16.4623 29.5105 14.3635C28.3504 12.7077 28.1078 12.1592 28.1184 11.2311C28.1184 10.651 28.1816 10.3768 28.3926 9.96547C29.4156 7.98266 32.8434 6.13695 36.3027 5.69398C40.2684 5.19828 44.4766 6.63266 47.3875 9.46976C49.4758 11.5053 50.8996 14.0471 51.5219 16.8737C51.9016 18.5823 51.8488 21.6514 51.3953 23.6237C49.8238 30.6057 43.8543 37.7248 34.2777 44.0424C32.2 45.403 29.4473 47.0377 27.918 47.7866L27.0004 48.2401L26.125 47.8182C23.5937 46.5526 19.4277 43.958 16.6012 41.8698C15.8102 41.2897 15.0508 40.7834 14.9031 40.7518C14.0488 40.5303 13.3 41.4584 13.6375 42.3127C13.7219 42.5342 16.2109 44.4116 18.0883 45.6666C20.7883 47.4702 25.6398 50.244 26.6102 50.5393C27.1586 50.708 27.4645 50.592 29.5844 49.453C42.4727 42.5237 51.1316 33.5905 53.3676 24.942C54.0426 22.3264 54.2008 19.4155 53.7895 17.0213C52.7137 10.7459 48.1574 5.64125 42.1457 3.95375C40.4898 3.48969 37.5156 3.2682 35.9652 3.47914ZM16.6645 14.5639C18.0355 14.8803 19.2906 15.8295 19.8496 16.958L20.1977 17.6647L20.2187 19.9428L20.2398 22.2209L19.375 23.0541C18.5207 23.8663 18.2465 24.3409 18.2465 24.9526C18.2465 25.6803 18.8266 26.5663 19.4594 26.8299C19.6809 26.9248 20.5457 27.0092 21.959 27.0514C25.0387 27.1674 24.9332 27.2202 26.241 24.6256C27.032 23.0436 27.2957 22.685 27.6648 22.6639C28.3293 22.6323 28.5402 22.7483 28.7723 23.3073C28.9199 23.6659 28.9199 23.6764 28.0023 25.5116C26.9371 27.6315 26.4941 28.1905 25.4289 28.7178L24.7328 29.0553H21.748H18.7527L18.4469 29.4034C17.9512 29.9518 18.0777 30.7534 18.7105 31.0381C19.2379 31.2913 23.9523 31.3862 25.0281 31.1752C26.0617 30.9748 27.0848 30.4791 27.7914 29.8252L28.3398 29.3295L28.7301 30.5635C29.1625 31.9346 29.1625 31.9452 29.5316 32.1983C30.2066 32.6623 31.2191 32.135 31.2191 31.3123C31.2191 31.1752 30.9766 30.2787 30.6812 29.3295C30.0484 27.2834 29.9957 26.6928 30.3965 25.8174C30.7656 25.0159 31.1348 24.6362 31.873 24.267C33.0227 23.687 34.4359 23.9084 35.3324 24.8049C35.902 25.385 36.0707 25.712 36.5875 27.41C37.0727 29.0026 37.0937 29.1186 36.8406 29.5405C36.598 29.9518 36.1551 30.0995 35.7016 29.9096C35.2797 29.7303 35.132 29.4666 34.7629 28.2432C34.4148 27.0936 34.1617 26.7877 33.5395 26.7139C33.1598 26.6823 33.0121 26.7139 32.7695 26.9143C32.2844 27.3151 32.2844 27.7686 32.8117 29.4245C33.223 30.7323 33.2547 30.9432 33.2652 32.0084C33.2652 33.6327 32.9594 34.603 32.0312 35.858C30.8816 37.419 28.941 38.442 26.3254 38.8639C23.6465 39.2963 20.6828 38.6635 18.1621 37.1026C17.023 36.3959 15.1773 34.6135 14.5023 33.5588C13.1945 31.5127 12.5512 29.2768 12.5512 26.6823C12.5512 25.3006 12.277 24.5834 11.3066 23.3705C10.157 21.9362 9.86172 21.0924 9.93555 19.4682C9.98828 18.308 10.1992 17.6752 10.8215 16.7366C11.4543 15.7768 12.8148 14.817 13.8906 14.5639C14.4496 14.4373 16.0949 14.4268 16.6645 14.5639ZM23.2141 23.2651C23.3723 23.3389 23.6148 23.5498 23.7625 23.7291L24.0262 24.0455L23.8047 24.4674L23.5727 24.8893H22.8766C22.4969 24.8893 21.8852 24.8577 21.5371 24.826L20.8832 24.7522L21.5055 24.0877C21.8535 23.7186 22.1594 23.3284 22.2016 23.2123C22.2543 23.033 22.3281 23.012 22.6023 23.0647C22.7922 23.0963 23.0664 23.1913 23.2141 23.2651Z" fill="white"/>
<path d="M37.1778 8.68789C36.8825 8.99375 36.756 9.38398 36.8509 9.76367C37.1145 10.8184 38.7177 10.8184 38.9813 9.76367C39.0763 9.38398 38.9497 8.99375 38.6544 8.68789C38.4645 8.49805 38.2852 8.43477 37.9161 8.43477C37.547 8.43477 37.3677 8.49805 37.1778 8.68789Z" fill="white"/>
<path d="M40.7215 9.39739C40.4684 9.63997 40.3945 9.80871 40.3945 10.1146C40.3945 10.6736 40.7004 11.0216 41.502 11.3802C43.6957 12.3716 45.4781 14.3228 46.3324 16.6536C46.7121 17.6661 46.8281 18.1935 46.923 19.3958C47.0074 20.3345 47.0285 20.4083 47.3449 20.6931C47.7141 21.0306 48.1465 21.0728 48.6105 20.8302C49.0746 20.5982 49.1906 20.1763 49.1063 19.0056C48.832 14.8923 46.3957 11.2853 42.6938 9.49231C41.6074 8.96496 41.175 8.94387 40.7215 9.39739Z" fill="white"/>
<path d="M11.0531 38.3451C10.684 38.5455 10.5469 38.7986 10.5469 39.3049C10.5574 40.2646 11.6332 40.7287 12.3609 40.0853C12.6562 39.8217 12.709 39.7056 12.709 39.2838C12.709 38.8619 12.6562 38.7459 12.3609 38.4822C11.9813 38.1342 11.5172 38.092 11.0531 38.3451Z" fill="white"/>
</g>
<defs>
<clipPath id="clip0_7649_3479">
<rect width="54" height="54" fill="white"/>
</clipPath>
</defs>
</svg>
