<svg width="120" height="40" viewBox="0 0 120 40" fill="none" xmlns="http://www.w3.org/2000/svg">
<rect width="120" height="40" rx="6" fill="#000103"/>
<path d="M17.8048 19.4617L8.0896 30.0059C8.09051 30.0078 8.09051 30.0106 8.09142 30.0125C8.38981 31.1574 9.41179 32 10.6254 32C11.1108 32 11.5662 31.8656 11.9567 31.6305L11.9877 31.6118L22.9229 25.1593L17.8048 19.4617Z" fill="#EA4335"/>
<path d="M27.6332 17.6681L27.624 17.6616L22.9029 14.8632L17.584 19.7033L22.922 25.1602L27.6177 22.3897C28.4407 21.9344 29.0001 21.047 29.0001 20.0243C29.0001 19.0072 28.4489 18.1244 27.6332 17.6681Z" fill="#FBBC04"/>
<path d="M8.08942 9.9952C8.03102 10.2154 8 10.4468 8 10.6857V29.3182C8 29.5571 8.03102 29.7885 8.09034 30.0078L18.1386 19.7332L8.08942 9.9952Z" fill="#4285F4"/>
<path d="M17.8766 20L22.9044 14.8594L11.9819 8.3836C11.585 8.14005 11.1214 8.00009 10.626 8.00009C9.41237 8.00009 8.38856 8.84456 8.09018 9.99043C8.09018 9.99136 8.08926 9.9923 8.08926 9.99323L17.8766 20Z" fill="#34A853"/>
<path d="M40.752 17.12C40.168 17.12 39.62 17.012 39.108 16.796C38.604 16.572 38.16 16.264 37.776 15.872C37.4 15.48 37.104 15.024 36.888 14.504C36.672 13.984 36.564 13.424 36.564 12.824C36.564 12.224 36.672 11.668 36.888 11.156C37.104 10.636 37.404 10.18 37.788 9.788C38.172 9.396 38.62 9.092 39.132 8.876C39.652 8.66 40.216 8.552 40.824 8.552C41.488 8.552 42.1 8.68 42.66 8.936C43.22 9.192 43.688 9.56 44.064 10.04L43.284 10.82C43.02 10.436 42.672 10.144 42.24 9.944C41.808 9.736 41.336 9.632 40.824 9.632C40.216 9.632 39.676 9.768 39.204 10.04C38.74 10.312 38.376 10.688 38.112 11.168C37.856 11.648 37.728 12.2 37.728 12.824C37.728 13.456 37.86 14.012 38.124 14.492C38.388 14.972 38.744 15.348 39.192 15.62C39.64 15.892 40.152 16.028 40.728 16.028C41.312 16.028 41.816 15.916 42.24 15.692C42.672 15.468 43.004 15.14 43.236 14.708C43.468 14.268 43.584 13.732 43.584 13.1L44.268 13.592H40.668V12.56H44.748V12.728C44.748 13.696 44.576 14.508 44.232 15.164C43.896 15.812 43.424 16.3 42.816 16.628C42.216 16.956 41.528 17.12 40.752 17.12ZM46.2653 17V8.672H47.3933V17H46.2653ZM47.0333 17V15.968H51.8093V17H47.0333ZM47.0333 13.232V12.248H51.4133V13.232H47.0333ZM47.0333 9.704V8.672H51.7493V9.704H47.0333ZM55.235 17V8.912H56.363V17H55.235ZM52.403 9.704V8.672H59.183V9.704H52.403ZM62.8356 17V8.672H63.9636V17H62.8356ZM68.1373 17V8.912H69.2653V17H68.1373ZM65.3053 9.704V8.672H72.0853V9.704H65.3053ZM79.5299 17.12C78.9379 17.12 78.3859 17.012 77.8739 16.796C77.3619 16.572 76.9139 16.264 76.5299 15.872C76.1459 15.472 75.8459 15.012 75.6299 14.492C75.4219 13.972 75.3179 13.416 75.3179 12.824C75.3179 12.224 75.4219 11.668 75.6299 11.156C75.8459 10.636 76.1419 10.18 76.5179 9.788C76.9019 9.396 77.3459 9.092 77.8499 8.876C78.3619 8.66 78.9139 8.552 79.5059 8.552C80.0979 8.552 80.6459 8.66 81.1499 8.876C81.6619 9.092 82.1099 9.396 82.4939 9.788C82.8779 10.18 83.1779 10.636 83.3939 11.156C83.6099 11.676 83.7179 12.236 83.7179 12.836C83.7179 13.428 83.6099 13.984 83.3939 14.504C83.1779 15.024 82.8779 15.48 82.4939 15.872C82.1179 16.264 81.6739 16.572 81.1619 16.796C80.6579 17.012 80.1139 17.12 79.5299 17.12ZM79.5059 16.04C80.1059 16.04 80.6299 15.904 81.0779 15.632C81.5339 15.352 81.8939 14.972 82.1579 14.492C82.4219 14.004 82.5539 13.448 82.5539 12.824C82.5539 12.36 82.4779 11.936 82.3259 11.552C82.1739 11.16 81.9619 10.82 81.6899 10.532C81.4179 10.244 81.0979 10.024 80.7299 9.872C80.3619 9.712 79.9539 9.632 79.5059 9.632C78.9139 9.632 78.3899 9.768 77.9339 10.04C77.4859 10.312 77.1299 10.688 76.8659 11.168C76.6099 11.648 76.4819 12.2 76.4819 12.824C76.4819 13.288 76.5539 13.72 76.6979 14.12C76.8499 14.512 77.0579 14.852 77.3219 15.14C77.5939 15.42 77.9139 15.64 78.2819 15.8C78.6579 15.96 79.0659 16.04 79.5059 16.04ZM85.2653 17V8.672H86.0573L86.3933 9.98V17H85.2653ZM91.0253 17L85.9133 10.172L86.0573 8.672L91.1813 15.488L91.0253 17ZM91.0253 17L90.6893 15.764V8.672H91.8173V17H91.0253Z" fill="white"/>
<path d="M93.5181 32.4097H95.1469V21.3981H93.5181V32.4097ZM108.189 25.3646L106.322 30.1388H106.266L104.328 25.3646H102.573L105.479 32.0371L103.823 35.749H105.521L110 25.3646H108.189ZM98.9519 31.1588C98.4176 31.1588 97.6739 30.8902 97.6739 30.2234C97.6739 29.3742 98.6001 29.0483 99.4005 29.0483C100.116 29.0483 100.454 29.2042 100.889 29.4165C100.762 30.4365 99.892 31.1588 98.9519 31.1588ZM99.1483 25.1241C97.969 25.1241 96.7469 25.6482 96.2424 26.8101L97.6879 27.4188C97.9969 26.8101 98.5721 26.611 99.1762 26.611C100.019 26.611 100.875 27.121 100.889 28.0283V28.1411C100.594 27.971 99.9627 27.7165 99.1902 27.7165C97.632 27.7165 96.0451 28.5806 96.0451 30.1952C96.0451 31.6689 97.323 32.6184 98.7546 32.6184C99.8501 32.6184 100.454 32.1225 100.833 31.5411H100.889V32.3912H102.461V28.1692C102.461 26.2146 101.015 25.1241 99.1483 25.1241ZM89.0821 26.7053H86.7655V22.9308H89.0821C90.2998 22.9308 90.9911 23.9482 90.9911 24.8176C90.9911 25.6711 90.2998 26.7053 89.0821 26.7053ZM89.0402 21.3981H85.1375V32.4097H86.7655V28.2379H89.0402C90.8453 28.2379 92.6199 26.9184 92.6199 24.8176C92.6199 22.7168 90.8453 21.3981 89.0402 21.3981ZM67.7583 31.1606C66.6332 31.1606 65.6913 30.2102 65.6913 28.9047C65.6913 27.5852 66.6332 26.6198 67.7583 26.6198C68.8695 26.6198 69.7406 27.5852 69.7406 28.9047C69.7406 30.2102 68.8695 31.1606 67.7583 31.1606ZM69.6289 25.9812H69.5722C69.2064 25.5417 68.5038 25.1444 67.6178 25.1444C65.7611 25.1444 64.0599 26.7898 64.0599 28.9047C64.0599 31.0047 65.7611 32.6369 67.6178 32.6369C68.5038 32.6369 69.2064 32.2396 69.5722 31.7851H69.6289V32.3251C69.6289 33.7582 68.8695 34.5246 67.6457 34.5246C66.6471 34.5246 66.0282 33.8005 65.7751 33.1901L64.3549 33.7864C64.7626 34.78 65.8458 36 67.6457 36C69.5582 36 71.1757 34.8646 71.1757 32.0978V25.3708H69.6289V25.9812ZM72.3008 32.4097H73.9323V21.3973H72.3008V32.4097ZM76.3362 28.777C76.2943 27.3298 77.4474 26.5916 78.2766 26.5916C78.9243 26.5916 79.4725 26.9176 79.6549 27.3862L76.3362 28.777ZM81.3989 27.528C81.0899 26.6912 80.1472 25.1444 78.2208 25.1444C76.3083 25.1444 74.7196 26.6621 74.7196 28.8907C74.7196 30.9906 76.2943 32.6369 78.4032 32.6369C80.1053 32.6369 81.0899 31.5869 81.4976 30.9765L80.2319 30.1247C79.8103 30.7493 79.2333 31.1606 78.4032 31.1606C77.5739 31.1606 76.983 30.7774 76.6033 30.0261L81.5674 27.9534L81.3989 27.528ZM41.8501 26.2939V27.883H45.6184C45.5058 28.777 45.2107 29.4297 44.7612 29.8834C44.2121 30.4374 43.3541 31.0479 41.8501 31.0479C39.5291 31.0479 37.7152 29.1602 37.7152 26.8189C37.7152 24.4767 39.5291 22.5899 41.8501 22.5899C43.1018 22.5899 44.0157 23.0867 44.6905 23.7254L45.8017 22.604C44.8589 21.6959 43.6081 21 41.8501 21C38.6719 21 36 23.6117 36 26.8189C36 30.0261 38.6719 32.6369 41.8501 32.6369C43.5653 32.6369 44.8589 32.0688 45.8715 31.0047C46.9129 29.9547 47.2358 28.4793 47.2358 27.2866C47.2358 26.9176 47.2079 26.5775 47.1512 26.2939H41.8501ZM51.5208 31.1606C50.3957 31.1606 49.425 30.2243 49.425 28.8907C49.425 27.5421 50.3957 26.6198 51.5208 26.6198C52.6451 26.6198 53.6158 27.5421 53.6158 28.8907C53.6158 30.2243 52.6451 31.1606 51.5208 31.1606ZM51.5208 25.1444C49.4669 25.1444 47.7936 26.7194 47.7936 28.8907C47.7936 31.0479 49.4669 32.6369 51.5208 32.6369C53.5739 32.6369 55.2472 31.0479 55.2472 28.8907C55.2472 26.7194 53.5739 25.1444 51.5208 25.1444ZM59.65 31.1606C58.5249 31.1606 57.5542 30.2243 57.5542 28.8907C57.5542 27.5421 58.5249 26.6198 59.65 26.6198C60.7752 26.6198 61.745 27.5421 61.745 28.8907C61.745 30.2243 60.7752 31.1606 59.65 31.1606ZM59.65 25.1444C57.597 25.1444 55.9237 26.7194 55.9237 28.8907C55.9237 31.0479 57.597 32.6369 59.65 32.6369C61.7031 32.6369 63.3764 31.0479 63.3764 28.8907C63.3764 26.7194 61.7031 25.1444 59.65 25.1444Z" fill="white"/>
</svg>
