<svg width="409" height="430" viewBox="0 0 409 430" fill="none" xmlns="http://www.w3.org/2000/svg">
<path d="M219.214 28.6846C232.823 53.3004 238 88.1666 234.113 120.689L235.979 121.296C251.957 92.7003 276.641 67.5372 302.12 55.6201L329.673 42.7324L325.929 72.916C322.468 100.828 306.162 132.078 283.899 156.106L285.053 157.693C314.786 143.948 349.55 138.098 377.168 143.432L407.033 149.199L386.262 171.418C367.053 191.965 335.491 207.664 303.356 214.019V215.981C335.491 222.337 367.053 238.035 386.26 258.582L407.029 280.8L377.165 286.567C349.546 291.9 314.783 286.052 285.05 272.306L283.896 273.893C306.157 297.922 322.464 329.171 325.927 357.083L329.669 387.265L302.118 374.381C276.639 362.465 251.955 337.3 235.979 308.704L234.113 309.31C237.997 341.832 232.821 376.699 219.212 401.314L204.497 427.934L189.783 401.314C176.175 376.699 170.998 341.833 174.884 309.311L173.018 308.704C157.042 337.3 132.358 362.463 106.878 374.381L79.3262 387.265L83.0693 357.083C86.531 329.171 102.837 297.922 125.1 273.893L123.947 272.306C94.6775 285.837 60.5345 291.718 33.1309 286.81L31.8311 286.567L1.96582 280.8L22.7373 258.582C41.9457 238.033 73.5085 222.337 105.644 215.981V214.019C73.5075 207.663 41.9457 191.965 22.7373 171.418L1.96582 149.199L31.8311 143.432C59.4495 138.099 94.2141 143.948 123.947 157.693L125.1 156.106C102.837 132.078 86.531 100.828 83.0693 72.916L79.3262 42.7324L106.879 55.6201C132.358 67.536 157.043 92.7002 173.019 121.296L174.885 120.689C170.999 88.1666 176.176 53.3004 189.784 28.6846L204.499 2.06543L219.214 28.6846ZM244.705 174.464C222.215 151.975 185.749 151.976 163.258 174.464C140.767 196.953 140.767 233.415 163.258 255.903C185.749 278.391 222.215 278.391 244.705 255.903C267.195 233.415 267.196 196.952 244.705 174.464Z" stroke="#CF1415" stroke-opacity="0.06" stroke-width="2"/>
</svg>
