<svg width="32" height="30" viewBox="0 0 32 30" fill="none" xmlns="http://www.w3.org/2000/svg">
<path d="M25.3333 0H6.66667C4.89921 0.00211714 3.20474 0.705176 1.95496 1.95496C0.705176 3.20474 0.00211714 4.89921 0 6.66667L0 17.3333C0.00211714 19.1008 0.705176 20.7953 1.95496 22.045C3.20474 23.2948 4.89921 23.9979 6.66667 24H14.6667V26.6667H9.33333C8.97971 26.6667 8.64057 26.8071 8.39052 27.0572C8.14048 27.3072 8 27.6464 8 28C8 28.3536 8.14048 28.6928 8.39052 28.9428C8.64057 29.1929 8.97971 29.3333 9.33333 29.3333H22.6667C23.0203 29.3333 23.3594 29.1929 23.6095 28.9428C23.8595 28.6928 24 28.3536 24 28C24 27.6464 23.8595 27.3072 23.6095 27.0572C23.3594 26.8071 23.0203 26.6667 22.6667 26.6667H17.3333V24H25.3333C27.1008 23.9979 28.7953 23.2948 30.045 22.045C31.2948 20.7953 31.9979 19.1008 32 17.3333V6.66667C31.9979 4.89921 31.2948 3.20474 30.045 1.95496C28.7953 0.705176 27.1008 0.00211714 25.3333 0ZM25.3333 13.3333H21.38L19.1133 16.74C18.9912 16.9231 18.8255 17.0731 18.6313 17.1767C18.437 17.2802 18.2201 17.334 18 17.3333C17.972 17.3333 17.944 17.3333 17.9173 17.3333C17.6841 17.319 17.4587 17.2435 17.2637 17.1146C17.0688 16.9856 16.9112 16.8077 16.8067 16.5987L13.8347 10.6507L12.4427 12.74C12.3209 12.9226 12.1559 13.0722 11.9624 13.1757C11.7689 13.2792 11.5528 13.3334 11.3333 13.3333H6.66667C6.31305 13.3333 5.97391 13.1929 5.72386 12.9428C5.47381 12.6928 5.33333 12.3536 5.33333 12C5.33333 11.6464 5.47381 11.3072 5.72386 11.0572C5.97391 10.8071 6.31305 10.6667 6.66667 10.6667H10.62L12.8867 7.26C13.015 7.06342 13.1935 6.90473 13.4038 6.80041C13.6141 6.69608 13.8485 6.6499 14.0827 6.66667C14.3159 6.68104 14.5413 6.75647 14.7363 6.88542C14.9312 7.01436 15.0888 7.19228 15.1933 7.40133L18.1653 13.3467L19.5573 11.2573C19.6794 11.0753 19.8445 10.9261 20.038 10.8231C20.2315 10.7201 20.4475 10.6663 20.6667 10.6667H25.3333C25.687 10.6667 26.0261 10.8071 26.2761 11.0572C26.5262 11.3072 26.6667 11.6464 26.6667 12C26.6667 12.3536 26.5262 12.6928 26.2761 12.9428C26.0261 13.1929 25.687 13.3333 25.3333 13.3333Z" fill="#0E9384"/>
</svg>
