<svg width="32" height="32" viewBox="0 0 32 32" fill="none" xmlns="http://www.w3.org/2000/svg">
<g clip-path="url(#clip0_7983_3773)">
<path d="M12.6667 3.33333C12.6667 1.492 14.1587 0 16 0C17.8413 0 19.3333 1.492 19.3333 3.33333C19.3333 5.17467 17.8413 6.66667 16 6.66667C14.1587 6.66667 12.6667 5.17467 12.6667 3.33333ZM13.772 13.6987L14.924 14.7587C15.532 15.3187 16.468 15.3187 17.076 14.7587L18.188 13.736C19.08 12.9373 20.1653 12.42 21.3053 12.176L21.3213 12.1493C20.7707 9.77333 18.5973 8 16 8C13.4027 8 11.2307 9.77333 10.6787 12.148L10.6947 12.1733C11.8027 12.404 12.8693 12.892 13.772 13.6987ZM16.1467 19.7453C17.7547 21.2573 18.6667 23.3667 18.6667 25.5733V30.6667C18.6667 31.4027 18.0693 32 17.3333 32H7.36133C6.68933 32 6.04133 31.7467 5.548 31.2893L3.15867 28.9227C1.13733 26.92 0 24.192 0 21.3453V7.28267C0 5.328 1.68133 3.76667 3.67733 3.96667C5.412 4.14 6.66667 5.72933 6.66667 7.47333V15.2653C6.46533 15.5013 6.276 15.7493 6.11067 16.0227C4.90267 18.0267 5.11867 20.6427 6.61467 22.4867L8.99867 25.5587C9.45067 26.14 10.288 26.2453 10.8693 25.7947C11.4507 25.3427 11.556 24.5053 11.1053 23.924L8.72133 20.852C7.928 19.8733 7.744 18.4787 8.39467 17.4C9.39733 15.7387 11.6013 15.4907 12.944 16.736L16.1467 19.7467V19.7453ZM32 7.28267V21.3467C32 24.1933 30.8613 26.9227 28.8387 28.9267L26.452 31.2893C25.9587 31.7467 25.312 32 24.6387 32H21.0867C21.236 31.5813 21.332 31.136 21.332 30.6667V26.5173L25.3827 22.4853C26.8787 20.6413 27.096 18.0253 25.8867 16.0213C25.7227 15.7493 25.532 15.5 25.3307 15.264V7.472C25.3307 5.728 26.5853 4.14 28.32 3.96533C30.3147 3.76533 31.9973 5.32667 31.9973 7.28133L32 7.28267ZM23.2773 20.8507L21.0173 23.0933C20.5347 21.088 19.4933 19.2333 17.9733 17.8027L17.9467 17.7773L19.056 16.7347C20.3987 15.4893 22.6027 15.7373 23.6053 17.3987C24.256 18.4787 24.0707 19.872 23.2773 20.8507Z" fill="#E04F16"/>
</g>
<defs>
<clipPath id="clip0_7983_3773">
<rect width="32" height="32" fill="white"/>
</clipPath>
</defs>
</svg>
