<svg width="32" height="32" viewBox="0 0 32 32" fill="none" xmlns="http://www.w3.org/2000/svg">
<path d="M22.496 20.6107L24.4827 18.624C26.2027 16.904 28.9907 16.904 30.7093 18.624C32.4293 20.344 32.4293 23.132 30.7093 24.8507L28.7213 26.8387L22.4947 20.612L22.496 20.6107ZM20.6107 22.496L18.6227 24.484C16.9027 26.204 16.9027 28.992 18.6227 30.7107C20.3427 32.4293 23.1307 32.4307 24.8493 30.7107L26.836 28.7227L20.6093 22.496H20.6107ZM18.6667 3.33333C18.6667 1.492 17.1747 0 15.3333 0H6C4.15867 0 2.66667 1.492 2.66667 3.33333V6.66667H18.6667V3.33333ZM16.248 32H0V16C0 13.7947 1.79467 12 4 12H5.26933V9.33333H16V12H17.3333C19.5387 12 21.3333 13.7947 21.3333 16V18.0027L16.7387 22.5973C15.4027 23.932 14.6667 25.708 14.6667 27.5973C14.6667 29.2253 15.2413 30.7493 16.248 32ZM12 22.6667H14.6667V20H12V17.3333H9.33333V20H6.66667V22.6667H9.33333V25.3333H12V22.6667Z" fill="#04BD6C"/>
</svg>
