<svg width="32" height="32" viewBox="0 0 32 32" fill="none" xmlns="http://www.w3.org/2000/svg">
<path d="M30 24C30 23.3867 29.8813 22.8067 29.7093 22.2493L31.5973 21.1613L30.2667 18.8507L28.3853 19.9347C27.5787 19.0653 26.528 18.4347 25.3333 18.1613V16H22.6667V18.1613C21.472 18.4347 20.42 19.0653 19.6147 19.9347L17.7333 18.8507L16.4027 21.1613L18.2907 22.2493C18.1187 22.8067 18 23.3867 18 24C18 24.6133 18.1187 25.1933 18.2907 25.7507L16.4027 26.8387L17.7333 29.1493L19.6147 28.0653C20.4213 28.9347 21.472 29.5653 22.6667 29.8387V32H25.3333V29.8387C26.528 29.5653 27.58 28.9347 28.3853 28.0653L30.2667 29.1493L31.5973 26.8387L29.7093 25.7507C29.8813 25.1933 30 24.6133 30 24ZM24 26C22.8973 26 22 25.1027 22 24C22 22.8973 22.8973 22 24 22C25.1027 22 26 22.8973 26 24C26 25.1027 25.1027 26 24 26ZM9.33333 12.0533V2.66667H6.66667V0H22.6667V2.66667H20V12.0533C20.3867 12.3907 20.9747 12.9227 21.668 13.5973C18.2267 14.3653 15.4147 16.7933 14.116 20H2.344C4.672 16.3627 8.072 13.1587 9.33333 12.0533ZM16.9613 32H4.05867C3.90267 31.944 0 30.5227 0 26.476C0 25.208 0.344 23.964 0.904 22.6667H13.4253C13.3707 23.104 13.3333 23.548 13.3333 24C13.3333 27.1907 14.7413 30.0453 16.9613 32Z" fill="#06AED4"/>
</svg>
