<svg width="24" height="24" viewBox="0 0 24 24" fill="none" xmlns="http://www.w3.org/2000/svg">
<path d="M22.8472 0.137888C22.7488 0.212888 22.3316 0.611321 21.9237 1.01913L21.1831 1.76912L21.2347 2.22849C21.2628 2.48162 21.2909 2.69724 21.2956 2.70193C21.3003 2.70661 21.5159 2.73474 21.7691 2.76755L22.2331 2.8238L22.9831 2.07849C23.9441 1.12694 24.0003 1.04725 24.0003 0.709758C24.0003 0.255075 23.7472 0.00195241 23.2925 0.00195241C23.0769 0.00195241 22.9972 0.0253897 22.8472 0.137888Z" fill="white"/>
<path d="M18.0237 3.14103L16.2939 4.8707L16.4205 6.14569C16.4908 6.84881 16.5564 7.43005 16.5611 7.43943C16.5705 7.44411 17.1518 7.50974 17.8549 7.58005L19.1299 7.70661L20.8596 5.97694C21.8112 5.02539 22.5847 4.2379 22.5753 4.22852C22.5659 4.21915 22.0831 4.1629 21.5065 4.10665C19.9924 3.94727 20.0534 4.00821 19.8987 2.49885C19.8378 1.91761 19.7815 1.4348 19.7721 1.42543C19.7628 1.41605 18.9752 2.18948 18.0237 3.14103Z" fill="white"/>
<path d="M9.58609 2.308C8.51264 2.42519 7.19543 2.80487 6.21104 3.27831C5.08602 3.81736 4.20944 4.42673 3.30943 5.2986C2.32504 6.25484 1.68753 7.12202 1.10158 8.322C0.32813 9.89699 0 11.336 0 13.1454C0.00468758 14.936 0.332818 16.3704 1.09689 17.9313C1.66878 19.0891 2.3016 19.9656 3.21568 20.8703C4.12038 21.7656 4.94071 22.3469 6.07041 22.9047C7.60325 23.6593 9.10796 24.0015 10.8752 24.0015C12.6565 24.0015 14.1143 23.6687 15.6799 22.9047C18.2815 21.6297 20.2972 19.3281 21.2019 16.5954C21.591 15.4235 21.7504 14.4251 21.7504 13.1266C21.7504 11.8329 21.591 10.8298 21.2066 9.67199C21.0332 9.147 20.6769 8.2845 20.6019 8.20951C20.5878 8.20013 20.3816 8.37825 20.1425 8.61263C19.8097 8.94075 19.6691 9.04856 19.5378 9.072C19.4441 9.09075 18.9472 9.05793 18.4315 9.00637C17.9159 8.95012 17.4706 8.90794 17.4425 8.90794C17.4097 8.90794 17.4612 9.03918 17.555 9.19856C17.9675 9.91105 18.3003 10.7735 18.4784 11.6079C18.5722 12.0532 18.5862 12.2501 18.5862 13.1266C18.5862 14.0032 18.5722 14.2001 18.4784 14.6454C18.2534 15.6907 17.794 16.7594 17.2128 17.5797C16.8096 18.1516 15.9003 19.061 15.3284 19.4641C13.0549 21.0719 10.0502 21.3203 7.52356 20.1109C5.66259 19.2203 4.14851 17.5047 3.51568 15.5688C3.22036 14.6594 3.16411 14.2844 3.16411 13.1266C3.16411 12.2126 3.17818 12.011 3.27193 11.5985C3.52037 10.4501 3.98913 9.40949 4.65476 8.50481C5.00164 8.03138 5.91103 7.15014 6.42198 6.78921C7.23293 6.21265 8.30639 5.75328 9.33296 5.53297C10.0127 5.38297 11.2549 5.35016 11.9908 5.45797C12.9002 5.59391 13.9127 5.94078 14.6721 6.37671C14.8877 6.50327 15.0752 6.59702 15.0846 6.58765C15.094 6.57827 15.0565 6.12828 15.0002 5.58453C14.944 5.0361 14.9159 4.52517 14.9346 4.44079C14.9534 4.33767 15.1034 4.15017 15.3893 3.85955C15.6237 3.62049 15.8018 3.41424 15.7924 3.40018C15.7174 3.32518 14.8549 2.96893 14.3299 2.7955C13.144 2.40175 12.1596 2.24706 10.8377 2.25644C10.3549 2.26113 9.79235 2.28456 9.58609 2.308Z" fill="white"/>
<path d="M9.75477 6.82701C8.68601 7.00513 7.53755 7.55825 6.64222 8.32231C5.60627 9.20823 4.81876 10.6192 4.57031 12.0301C4.47656 12.5598 4.47656 13.6941 4.57031 14.2238C5.03438 16.8816 7.11567 18.9628 9.77352 19.4269C10.3126 19.5206 11.372 19.5253 11.9439 19.4316C13.5892 19.1644 15.183 18.1566 16.1111 16.8019C16.8893 15.6629 17.2502 14.4957 17.2502 13.1269C17.2502 12.077 17.0346 11.1488 16.5893 10.2629C16.3877 9.8551 15.9799 9.2223 15.8861 9.16136C15.8533 9.14261 15.483 9.48011 14.9767 9.98635L14.1189 10.8442L14.3439 11.2707C14.672 11.8895 14.7705 12.2457 14.7986 12.9207C14.8127 13.2582 14.8033 13.6144 14.7705 13.8019C14.522 15.2129 13.4814 16.4175 12.1079 16.8769C9.90009 17.6081 7.53286 16.2582 7.00785 13.966C6.90941 13.5301 6.90473 12.7379 7.00317 12.3254C7.3313 10.9098 8.28756 9.84104 9.65633 9.36761C10.0876 9.21761 10.1251 9.21292 10.8517 9.21292C11.7329 9.21292 12.0236 9.28323 12.7314 9.65823L13.158 9.88323L14.0158 9.02542C14.522 8.51918 14.8595 8.14887 14.8408 8.11606C14.7799 8.02231 14.147 7.6145 13.7392 7.41294C13.233 7.15513 12.5111 6.92076 11.9579 6.82701C11.4142 6.73326 10.3032 6.73326 9.75477 6.82701Z" fill="white"/>
<path d="M10.1768 10.6176C9.31896 10.8567 8.6252 11.5598 8.36738 12.4363C8.26426 12.7879 8.26426 13.4629 8.36738 13.8144C8.6252 14.7051 9.29552 15.3754 10.1862 15.6332C10.5377 15.7363 11.2127 15.7363 11.5643 15.6332C12.4831 15.366 13.2237 14.5926 13.4065 13.7019C13.4909 13.3082 13.444 12.5535 13.3222 12.2348C13.2659 12.0941 13.2003 11.9441 13.1721 11.9066C13.1346 11.8504 12.9425 12.0191 12.2018 12.7551C11.6909 13.2613 11.2268 13.7019 11.1706 13.7301C11.0252 13.8051 10.7065 13.7957 10.5424 13.7113C10.2659 13.566 10.1252 13.1113 10.2705 12.8301C10.2987 12.7738 10.7393 12.3098 11.2456 11.7988C11.9815 11.0582 12.1503 10.866 12.094 10.8285C12.0565 10.8004 11.9065 10.7348 11.7659 10.6832C11.4237 10.5473 10.5518 10.5145 10.1768 10.6176Z" fill="white"/>
</svg>
