<svg width="32" height="32" viewBox="0 0 32 32" fill="none" xmlns="http://www.w3.org/2000/svg">
<path d="M22.0938 2.15625C21.9001 2.34375 21.8876 2.6375 22.0626 2.8125C22.1563 2.90625 22.2688 2.9375 22.5001 2.9375H22.8126V3.84375V4.75H23.3126H23.8126V3.84375V2.9375H24.1501C24.4313 2.9375 24.5126 2.9125 24.5876 2.8C24.7438 2.58125 24.7126 2.28125 24.5251 2.13125C24.3688 2.0125 24.2751 2 23.3001 2C22.2626 2 22.2438 2 22.0938 2.15625Z" fill="white"/>
<path d="M9.4375 3.53125V4.125H13.4688H17.5V3.53125V2.9375H13.4688H9.4375V3.53125Z" fill="white"/>
<path d="M10.5627 5.65315V6.3719H11.5627C12.5064 6.3719 12.5627 6.37815 12.6877 6.5094C12.8502 6.69065 12.8439 6.87815 12.6689 7.0469C12.5314 7.17815 12.4627 7.1844 11.5439 7.1844H10.5627V7.90315V8.6219H11.5627C12.5064 8.6219 12.5627 8.62815 12.6877 8.7594C12.8502 8.94065 12.8439 9.12815 12.6689 9.2969C12.5314 9.42815 12.4627 9.4344 11.5439 9.4344H10.5627V10.1532V10.8719H11.5627C12.5064 10.8719 12.5627 10.8782 12.6877 11.0094C12.8502 11.1907 12.8439 11.3782 12.6689 11.5469C12.5314 11.6782 12.4627 11.6844 11.5439 11.6844H10.5627V12.9907C10.5627 13.7094 10.5439 14.3469 10.5252 14.4032C10.5002 14.4594 10.2814 14.6032 10.0377 14.7282C8.46895 15.5157 7.1127 16.8469 6.3627 18.3407C6.0752 18.9094 5.79395 19.7094 5.6502 20.3719C5.4877 21.1157 5.4877 22.8157 5.6502 23.5594C6.0002 25.1844 6.69395 26.4469 7.86895 27.6282C8.8002 28.5594 9.7627 29.1719 10.9252 29.5594C13.8564 30.5344 17.0127 29.8032 19.1627 27.6594C20.0439 26.7719 20.6689 25.7907 21.0877 24.6344C21.6752 23.0032 21.6752 20.9407 21.0877 19.2969C20.6689 18.1344 19.8939 16.9407 19.0252 16.1282C18.4939 15.6282 17.6439 15.0407 17.0877 14.7782C16.4314 14.4719 16.5002 15.0594 16.5002 9.6719V4.9344H13.5314H10.5627V5.65315ZM11.9064 15.6282C12.4439 15.7657 12.9377 16.3782 12.9377 16.9032C12.9377 17.2157 12.7314 17.6282 12.4627 17.8657C11.8439 18.4094 11.0064 18.3094 10.5314 17.6282C10.3627 17.3907 10.3439 17.3094 10.3439 16.9032C10.3439 16.4969 10.3627 16.4157 10.5314 16.1782C10.7314 15.8907 11.0127 15.6969 11.3314 15.6219C11.6127 15.5532 11.6064 15.5532 11.9064 15.6282ZM18.1252 20.3032L18.4002 20.3407L18.5189 20.7782C18.6877 21.4032 18.6814 22.5532 18.5127 23.1907C18.0439 24.9469 16.7627 26.3094 15.0627 26.8594C14.2189 27.1344 13.4689 27.1844 12.6189 27.0219C10.0564 26.5407 8.23145 24.2219 8.39395 21.6657C8.4252 21.1719 8.5752 20.4032 8.65645 20.3219C8.66895 20.3094 8.7627 20.3532 8.86895 20.4282C9.4002 20.8094 10.3314 21.0594 11.2064 21.0594C11.8377 21.0594 12.2439 20.9907 13.2002 20.7157C14.0252 20.4719 14.7689 20.3282 15.5189 20.2469C16.0314 20.1907 17.6064 20.2282 18.1252 20.3032Z" fill="white"/>
<path d="M13.95 21.8381C13.3375 22.0256 13 22.5006 13 23.1568C13 24.4318 14.6062 25.0131 15.425 24.0256C15.7312 23.6506 15.8187 23.2068 15.6812 22.7131C15.5875 22.3631 15.1062 21.9131 14.7312 21.8193C14.3812 21.7256 14.2937 21.7318 13.95 21.8381Z" fill="white"/>
<path d="M22.3753 6.05658V6.49408H21.4065C20.4565 6.49408 20.4315 6.50033 20.2815 6.65033C20.1128 6.81283 20.0878 6.95658 20.1815 7.20033C20.2565 7.40033 20.5378 7.49408 21.069 7.49408H21.4878L21.519 9.41283C21.5378 11.1191 21.5565 11.3941 21.6753 11.8503C21.8628 12.5628 22.194 13.3628 22.5315 13.9003L22.8128 14.3566V15.2003C22.8128 15.7003 22.844 16.1128 22.8815 16.2066C23.0378 16.5378 23.569 16.5628 23.7315 16.2378C23.7815 16.1441 23.8128 15.7816 23.8128 15.2253V14.3628L24.094 13.9003C24.444 13.3253 24.769 12.5378 24.9503 11.8566C25.069 11.3941 25.0878 11.1253 25.1065 9.42533L25.1378 7.50658L25.7003 7.48158C26.2003 7.45658 26.2815 7.43783 26.3815 7.31283C26.5503 7.10658 26.5315 6.83158 26.344 6.65033C26.194 6.50033 26.169 6.49408 25.219 6.49408H24.2503V6.05658V5.61908H23.3128H22.3753V6.05658Z" fill="white"/>
</svg>
