<svg width="32" height="32" viewBox="0 0 32 32" fill="none" xmlns="http://www.w3.org/2000/svg">
<g clip-path="url(#clip0_7599_2804)">
<path d="M12.3808 0.558249C10.8808 0.870749 9.4871 1.8145 8.6496 3.07075C7.36835 4.99575 7.2871 7.32075 8.41835 9.58325C9.6496 12.0457 11.3996 13.6895 15.1558 15.902C15.8433 16.3082 16.6996 16.8145 17.0621 17.0332C17.6746 17.3957 17.7246 17.4145 17.8746 17.3395C18.3683 17.0832 20.9746 15.5207 21.7433 15.0145C25.2683 12.7082 26.9621 10.6332 27.6683 7.7645C27.9808 6.49575 27.8683 5.1145 27.3808 4.027C26.4308 1.93325 24.1933 0.501999 21.8683 0.495749C20.5058 0.495749 19.3121 0.920748 18.2808 1.78325C18.0121 2.002 17.7683 2.18325 17.7433 2.18325C17.7121 2.18325 17.4433 2.002 17.1558 1.777C16.5308 1.302 15.8683 0.951998 15.1246 0.714499C14.6558 0.558249 14.4808 0.539499 13.6246 0.520748C13.0933 0.508249 12.5308 0.526999 12.3808 0.558249ZM18.3558 4.53325C18.7871 4.78325 18.8746 5.052 18.8746 6.102V6.98325L19.7996 7.00825C20.6371 7.027 20.7433 7.0395 20.9871 7.18325C21.3683 7.402 21.5308 7.6895 21.5308 8.15825C21.5308 8.4645 21.4996 8.58325 21.3621 8.7895C21.0933 9.202 20.8621 9.27075 19.7996 9.29575L18.8746 9.3145V10.2082C18.8746 11.0207 18.8621 11.127 18.7308 11.377C18.5371 11.7395 18.1496 11.9582 17.7183 11.9582C17.3371 11.9582 17.0621 11.8207 16.8308 11.5145C16.6558 11.2895 16.6558 11.2707 16.6371 10.302L16.6183 9.32075L15.6558 9.302C14.7058 9.277 14.6933 9.277 14.4308 9.0895C14.0496 8.82075 13.9246 8.552 13.9496 8.08325C13.9683 7.78325 14.0121 7.652 14.1433 7.47075C14.4433 7.077 14.5996 7.03325 15.6683 7.00825L16.6183 6.98325L16.6371 6.002C16.6558 5.03325 16.6558 5.0145 16.8308 4.7895C17.2058 4.29575 17.7808 4.19575 18.3558 4.53325Z" fill="white"/>
<path d="M17.4562 4.89805C17.35 4.94805 17.2312 5.0418 17.1937 5.1168C17.15 5.1918 17.125 5.64805 17.125 6.26055C17.125 7.04805 17.1062 7.3168 17.0375 7.41055C16.9562 7.5168 16.8437 7.5293 15.8125 7.56055C14.7125 7.5918 14.675 7.59805 14.5562 7.7418C14.425 7.9043 14.3937 8.3043 14.5 8.5043C14.6437 8.76055 14.875 8.81055 15.9625 8.81055C16.9187 8.81055 17 8.8168 17.0625 8.9293C17.1 8.99805 17.125 9.48555 17.125 10.0605C17.125 10.6605 17.15 11.1168 17.1937 11.198C17.2812 11.3668 17.6562 11.5168 17.875 11.4668C17.9687 11.448 18.1125 11.3605 18.1937 11.273C18.3375 11.1168 18.3437 11.073 18.3625 10.0418C18.375 9.4543 18.4125 8.93555 18.4437 8.89805C18.4875 8.8418 18.85 8.8168 19.5812 8.79805C20.775 8.7793 20.8875 8.7418 21.0062 8.3918C21.0937 8.1168 21.025 7.8418 20.8312 7.68555C20.6875 7.57305 20.575 7.56055 19.6312 7.56055C19.0625 7.56055 18.55 7.5293 18.5 7.49805C18.425 7.4543 18.4 7.22305 18.375 6.3168C18.3437 5.2168 18.3375 5.18555 18.1875 5.0293C17.9875 4.83555 17.7125 4.78555 17.4562 4.89805Z" fill="white"/>
<path d="M28.5624 16.9892C28.4437 17.0579 27.0999 18.1892 25.5874 19.5142C23.5999 21.2517 22.8187 21.9704 22.7874 22.0954C22.7124 22.3767 22.3749 22.8079 22.0812 22.9954C21.9249 23.0954 21.6374 23.2017 21.4124 23.2392C20.8937 23.3329 15.9124 23.3329 15.7437 23.2454C15.5874 23.1579 15.5874 22.8954 15.7437 22.8079C15.8249 22.7704 16.8499 22.7454 18.6562 22.7454C21.6062 22.7454 21.6937 22.7392 22.0249 22.4454C22.4562 22.0579 22.4874 21.0517 22.0749 20.6017C21.7874 20.2829 21.7437 20.2767 19.2499 20.2392C16.4812 20.1892 16.2874 20.1704 13.2187 19.5329C10.9062 19.0579 9.75615 19.1079 8.40615 19.7392C7.50615 20.1642 6.84365 20.6579 5.6374 21.8142L4.93115 22.4954L7.0624 25.7267C8.2374 27.5079 9.2249 28.9892 9.25615 29.0204C9.2874 29.0517 9.40615 29.0142 9.5499 28.9204C9.8999 28.6829 10.6124 28.3392 11.0687 28.1704L11.4687 28.0267L16.3749 27.9954C20.7874 27.9642 21.3187 27.9454 21.6562 27.8517C22.1937 27.6954 22.8562 27.3642 23.2312 27.0704C23.5499 26.8142 29.9624 19.2579 30.2312 18.8204C30.7562 17.9642 30.1124 16.8704 29.0937 16.8767C28.9124 16.8767 28.6874 16.9267 28.5624 16.9892Z" fill="white"/>
<path d="M2.81228 22.8484C2.17478 23.2734 1.63103 23.6297 1.60603 23.6422C1.54353 23.6609 6.72478 31.5359 6.79978 31.5234C6.82478 31.5172 7.36853 31.1672 8.01853 30.7422C8.84353 30.1984 9.18103 29.9359 9.16853 29.8672C9.13103 29.7359 4.06228 22.0609 4.01228 22.0672C3.98728 22.0672 3.44978 22.4172 2.81228 22.8484Z" fill="white"/>
</g>
<defs>
<clipPath id="clip0_7599_2804">
<rect width="32" height="32" fill="white"/>
</clipPath>
</defs>
</svg>
