<svg width="32" height="32" viewBox="0 0 32 32" fill="none" xmlns="http://www.w3.org/2000/svg">
<path d="M30.463 0.181387C30.3317 0.281389 29.7755 0.812647 29.2317 1.35641L28.2442 2.35642L28.313 2.96893C28.3505 3.30644 28.388 3.59394 28.3942 3.60019C28.4005 3.60644 28.688 3.64394 29.0255 3.68769L29.6442 3.7627L30.6442 2.76893C31.9255 1.50016 32.0005 1.39391 32.0005 0.943899C32.0005 0.337639 31.663 0.000133753 31.0567 0.000133753C30.7692 0.000133753 30.663 0.0313845 30.463 0.181387Z" fill="#000103"/>
<path d="M24.0317 4.18681L21.7254 6.4931L21.8942 8.19313C21.9879 9.13065 22.0754 9.90566 22.0817 9.91816C22.0942 9.92441 22.8692 10.0119 23.8067 10.1057L25.5067 10.2744L27.813 7.96813C29.0818 6.69936 30.113 5.64934 30.1005 5.63684C30.088 5.62434 29.4443 5.54934 28.6755 5.47434C26.6567 5.26183 26.738 5.34308 26.5317 3.33055C26.4505 2.55554 26.3755 1.91178 26.363 1.89928C26.3505 1.88678 25.3005 2.91804 24.0317 4.18681Z" fill="#000103"/>
<path d="M12.7815 3.07453C11.3502 3.23078 9.59391 3.73704 8.28139 4.3683C6.78136 5.08706 5.61259 5.89958 4.41257 7.0621C3.10005 8.33712 2.25004 9.49339 1.46877 11.0934C0.437507 13.1934 0 15.1122 0 17.5248C0.0062501 19.9123 0.443757 21.8248 1.46252 23.9061C2.22504 25.4499 3.0688 26.6187 4.28757 27.8249C5.49384 29.0187 6.58761 29.7937 8.09388 30.5375C10.1377 31.5437 12.1439 32 14.5002 32C16.8753 32 18.8191 31.5562 20.9066 30.5375C24.3754 28.8374 27.0629 25.7686 28.2692 22.1248C28.788 20.5623 29.0005 19.231 29.0005 17.4998C29.0005 15.7747 28.788 14.4372 28.2755 12.8934C28.0442 12.1934 27.5692 11.0434 27.4692 10.9434C27.4504 10.9309 27.1754 11.1684 26.8567 11.4809C26.4129 11.9184 26.2254 12.0622 26.0504 12.0934C25.9254 12.1184 25.2629 12.0747 24.5754 12.0059C23.8879 11.9309 23.2941 11.8747 23.2566 11.8747C23.2129 11.8747 23.2816 12.0497 23.4066 12.2622C23.9566 13.2122 24.4004 14.3622 24.6379 15.4747C24.7629 16.0685 24.7817 16.331 24.7817 17.4998C24.7817 18.6685 24.7629 18.931 24.6379 19.5248C24.3379 20.9186 23.7254 22.3436 22.9504 23.4374C22.4129 24.1999 21.2003 25.4124 20.4378 25.9499C17.4065 28.0937 13.4002 28.4249 10.0314 26.8124C7.55012 25.6249 5.53134 23.3374 4.68758 20.7561C4.29382 19.5435 4.21882 19.0435 4.21882 17.4998C4.21882 16.281 4.23757 16.0122 4.36257 15.4622C4.69383 13.931 5.31884 12.5434 6.20635 11.3372C6.66886 10.7059 7.88138 9.53089 8.56264 9.04963C9.64391 8.28086 11.0752 7.66835 12.444 7.3746C13.3502 7.1746 15.0065 7.13085 15.9878 7.2746C17.2003 7.45585 18.5503 7.91836 19.5628 8.49962C19.8503 8.66837 20.1003 8.79337 20.1128 8.78087C20.1253 8.76837 20.0753 8.16836 20.0003 7.44335C19.9253 6.71209 19.8878 6.03083 19.9128 5.91833C19.9378 5.78082 20.1378 5.53082 20.5191 5.14331C20.8316 4.82456 21.0691 4.54955 21.0566 4.5308C20.9566 4.4308 19.8066 3.9558 19.1066 3.72454C17.5253 3.19953 16.2128 2.99328 14.4502 3.00578C13.8065 3.01203 13.0565 3.04328 12.7815 3.07453Z" fill="#000103"/>
<path d="M13.0065 9.10035C11.5815 9.33785 10.0502 10.0754 8.85642 11.0941C7.47515 12.2754 6.42513 14.1567 6.09387 16.038C5.96887 16.7442 5.96887 18.2567 6.09387 18.963C6.71263 22.5068 9.48768 25.2819 13.0315 25.9006C13.7502 26.0256 15.1628 26.0319 15.9253 25.9069C18.1191 25.5506 20.2441 24.2068 21.4816 22.4006C22.5191 20.8818 23.0004 19.3255 23.0004 17.5005C23.0004 16.1005 22.7129 14.8629 22.1191 13.6817C21.8504 13.1379 21.3066 12.2942 21.1816 12.2129C21.1379 12.1879 20.6441 12.6379 19.9691 13.3129L18.8253 14.4567L19.1253 15.0254C19.5628 15.8505 19.6941 16.3255 19.7316 17.2255C19.7503 17.6755 19.7378 18.1505 19.6941 18.4005C19.3628 20.2818 17.9753 21.8881 16.144 22.5006C13.2002 23.4756 10.0439 21.6756 9.34393 18.6193C9.21267 18.038 9.20642 16.9817 9.33768 16.4317C9.77518 14.5442 11.0502 13.1192 12.8752 12.4879C13.4502 12.2879 13.5002 12.2817 14.469 12.2817C15.644 12.2817 16.0315 12.3754 16.9753 12.8754L17.5441 13.1754L18.6878 12.0316C19.3628 11.3566 19.8128 10.8629 19.7878 10.8191C19.7066 10.6941 18.8628 10.1504 18.3191 9.88161C17.6441 9.53786 16.6815 9.22535 15.944 9.10035C15.219 8.97535 13.7377 8.97535 13.0065 9.10035Z" fill="#000103"/>
<path d="M13.569 14.1556C12.4252 14.4743 11.5002 15.4118 11.1565 16.5806C11.019 17.0494 11.019 17.9494 11.1565 18.4181C11.5002 19.6056 12.394 20.4994 13.5815 20.8432C14.0503 20.9807 14.9503 20.9807 15.419 20.8432C16.6441 20.4869 17.6316 19.4556 17.8753 18.2681C17.9878 17.7431 17.9253 16.7368 17.7628 16.3118C17.6878 16.1243 17.6003 15.9243 17.5628 15.8743C17.5128 15.7993 17.2566 16.0243 16.2691 17.0056C15.5878 17.6806 14.969 18.2681 14.894 18.3056C14.7003 18.4056 14.2753 18.3931 14.0565 18.2806C13.6878 18.0869 13.5003 17.4806 13.694 17.1056C13.7315 17.0306 14.319 16.4118 14.994 15.7306C15.9753 14.7431 16.2003 14.4868 16.1253 14.4368C16.0753 14.3993 15.8753 14.3118 15.6878 14.2431C15.2315 14.0618 14.069 14.0181 13.569 14.1556Z" fill="#000103"/>
</svg>
