<svg width="20" height="20" viewBox="0 0 20 20" fill="none" xmlns="http://www.w3.org/2000/svg">
<path d="M19.0393 0.113283C18.9573 0.175784 18.6096 0.50782 18.2698 0.84767L17.6526 1.47268L17.6956 1.8555C17.719 2.06644 17.7424 2.24613 17.7463 2.25004C17.7502 2.25394 17.9299 2.27738 18.1409 2.30472L18.5276 2.3516L19.1526 1.7305C19.9534 0.937515 20.0003 0.871108 20.0003 0.589853C20.0003 0.210941 19.7893 -2.38419e-07 19.4104 -2.38419e-07C19.2307 -2.38419e-07 19.1643 0.0195312 19.0393 0.113283Z" fill="white"/>
<path d="M15.0199 2.61716L13.5785 4.05859L13.684 5.12111C13.7426 5.70706 13.7972 6.19144 13.8012 6.19925C13.809 6.20316 14.2933 6.25785 14.8793 6.31644L15.9418 6.42191L17.3832 4.98048C18.1762 4.1875 18.8208 3.53124 18.813 3.52343C18.8051 3.51562 18.4028 3.46874 17.9223 3.42186C16.6606 3.28905 16.7114 3.33983 16.5824 2.082C16.5317 1.59762 16.4848 1.19527 16.477 1.18745C16.4692 1.17964 15.8129 1.82418 15.0199 2.61716Z" fill="white"/>
<path d="M7.98841 1.92162C7.09387 2.01928 5.99619 2.33569 5.17587 2.73023C4.23835 3.17945 3.50787 3.68727 2.75786 4.41385C1.93753 5.21074 1.40627 5.9334 0.917984 6.93342C0.273442 8.24594 0 9.44518 0 10.953C0.00390631 12.4452 0.277348 13.6406 0.914077 14.9414C1.39065 15.9062 1.918 16.6367 2.67973 17.3906C3.43365 18.1367 4.11725 18.6211 5.05868 19.086C6.33604 19.7149 7.58997 20 9.06265 20C10.547 20 11.7619 19.7227 13.0666 19.086C15.2346 18.0234 16.9143 16.1054 17.6683 13.8281C17.9925 12.8515 18.1253 12.0194 18.1253 10.9374C18.1253 9.85925 17.9925 9.0233 17.6722 8.05844C17.5276 7.62093 17.2308 6.90217 17.1682 6.83967C17.1565 6.83186 16.9847 6.9803 16.7854 7.17561C16.5081 7.44905 16.3909 7.5389 16.2815 7.55843C16.2034 7.57405 15.7893 7.54671 15.3596 7.50374C14.9299 7.45687 14.5588 7.42171 14.5354 7.42171C14.508 7.42171 14.551 7.53109 14.6291 7.6639C14.9729 8.25766 15.2502 8.97642 15.3987 9.67175C15.4768 10.0428 15.4885 10.2069 15.4885 10.9374C15.4885 11.6679 15.4768 11.8319 15.3987 12.203C15.2112 13.0741 14.8284 13.9648 14.344 14.6484C14.008 15.125 13.2502 15.8828 12.7736 16.2187C10.8791 17.5586 8.37514 17.7656 6.26963 16.7578C4.71883 16.0156 3.45709 14.5859 2.92974 12.9726C2.68364 12.2148 2.63676 11.9023 2.63676 10.9374C2.63676 10.1757 2.64848 10.0077 2.72661 9.66393C2.93364 8.70689 3.32427 7.83968 3.87897 7.08577C4.16804 6.69123 4.92586 5.95684 5.35165 5.65606C6.02744 5.17558 6.92199 4.79276 7.77747 4.60916C8.34389 4.48416 9.37906 4.45682 9.99235 4.54666C10.7502 4.65995 11.5939 4.94901 12.2268 5.3123C12.4065 5.41777 12.5627 5.4959 12.5705 5.48808C12.5783 5.48027 12.5471 5.10527 12.5002 4.65213C12.4533 4.19509 12.4299 3.76931 12.4455 3.69899C12.4611 3.61305 12.5861 3.4568 12.8244 3.21461C13.0197 3.01539 13.1682 2.84351 13.1604 2.83179C13.0979 2.76929 12.3791 2.47241 11.9416 2.32788C10.9533 1.99975 10.133 1.87084 9.0314 1.87865C8.62905 1.88256 8.16029 1.90209 7.98841 1.92162Z" fill="white"/>
<path d="M8.12898 5.68831C7.23834 5.83675 6.28129 6.29769 5.53519 6.93442C4.67189 7.67271 4.01563 8.84851 3.80859 10.0243C3.73047 10.4657 3.73047 11.4111 3.80859 11.8525C4.19532 14.0673 5.92972 15.8018 8.1446 16.1885C8.59383 16.2666 9.47666 16.2705 9.95323 16.1924C11.3243 15.9697 12.6525 15.1299 13.4259 14.0009C14.0744 13.0517 14.3752 12.079 14.3752 10.9384C14.3752 10.0634 14.1955 9.28993 13.8244 8.55163C13.6564 8.21179 13.3166 7.68443 13.2384 7.63365C13.2111 7.61803 12.9025 7.89928 12.4806 8.32116L11.7658 9.03602L11.9533 9.39149C12.2267 9.90712 12.3087 10.204 12.3322 10.7665C12.3439 11.0478 12.3361 11.3446 12.3087 11.5009C12.1017 12.6767 11.2345 13.6806 10.0899 14.0634C8.25007 14.6728 6.27738 13.5478 5.83988 11.6376C5.75785 11.2743 5.75394 10.6142 5.83597 10.2704C6.10941 9.09071 6.9063 8.20007 8.04695 7.80553C8.40633 7.68053 8.43758 7.67662 9.04306 7.67662C9.77744 7.67662 10.0196 7.73522 10.6095 8.04772L10.965 8.23522L11.6798 7.52037C12.1017 7.09849 12.383 6.78989 12.3673 6.76254C12.3165 6.68442 11.7892 6.34457 11.4493 6.1766C11.0275 5.96175 10.4259 5.76643 9.96495 5.68831C9.51181 5.61018 8.58602 5.61018 8.12898 5.68831Z" fill="white"/>
<path d="M8.48056 8.84763C7.7657 9.04685 7.18757 9.63279 6.97272 10.3633C6.88678 10.6562 6.88678 11.2188 6.97272 11.5117C7.18757 12.2539 7.74617 12.8125 8.48837 13.0274C8.78134 13.1133 9.34385 13.1133 9.63682 13.0274C10.4025 12.8047 11.0197 12.1602 11.172 11.418C11.2423 11.0898 11.2033 10.4609 11.1017 10.1953C11.0548 10.0781 11.0001 9.95311 10.9767 9.92186C10.9454 9.87499 10.7853 10.0156 10.1681 10.6289C9.74229 11.0508 9.35557 11.418 9.30869 11.4414C9.1876 11.5039 8.92197 11.4961 8.78525 11.4258C8.55478 11.3047 8.43759 10.9258 8.55868 10.6914C8.58212 10.6445 8.94931 10.2578 9.3712 9.83202C9.98449 9.21482 10.1251 9.05466 10.0782 9.02341C10.047 8.99997 9.92199 8.94528 9.8048 8.90231C9.51963 8.78903 8.79306 8.76169 8.48056 8.84763Z" fill="white"/>
</svg>
