<svg width="394" height="250" viewBox="0 0 394 250" fill="none" xmlns="http://www.w3.org/2000/svg">
<path fill-rule="evenodd" clip-rule="evenodd" d="M0 -79C54.4 -79 98.5 -34.9002 98.5 19.5C44.1 19.5 0 -24.5998 0 -79ZM197 -79C142.6 -79 98.5 -34.9002 98.5 19.5C44.1 19.5 0 63.5998 0 118C0 172.4 44.1 216.5 98.5 216.5C44.1 216.5 0 260.6 0 315C54.4 315 98.5 270.9 98.5 216.5C98.5 270.9 142.6 315 197 315C251.4 315 295.5 270.9 295.5 216.5C295.5 270.9 339.6 315 394 315C394 260.6 349.9 216.5 295.5 216.5C349.9 216.5 394 172.4 394 118C394 63.5998 349.9 19.5 295.5 19.5C349.9 19.5 394 -24.5998 394 -79C339.6 -79 295.5 -34.9002 295.5 19.5C295.5 -34.9002 251.4 -79 197 -79ZM295.5 216.5C295.5 162.1 251.4 118 197 118C197 172.4 241.1 216.5 295.5 216.5ZM197 118C251.4 118 295.5 73.9002 295.5 19.5C295.5 73.9002 339.6 118 394 118C339.6 118 295.5 162.1 295.5 216.5C241.1 216.5 197 260.6 197 315C197 260.6 152.9 216.5 98.5 216.5C152.9 216.5 197 172.4 197 118ZM197 118C142.6 118 98.5 162.1 98.5 216.5C98.5 162.1 54.4 118 0 118C54.4 118 98.5 73.9002 98.5 19.5C98.5 73.9002 142.6 118 197 118ZM197 118C197 63.5998 241.1 19.5 295.5 19.5C241.1 19.5 197 -24.5998 197 -79C197 -24.5998 152.9 19.5 98.5 19.5C152.9 19.5 197 63.5998 197 118Z" fill="url(#paint0_linear_8093_4934)"/>
<defs>
<linearGradient id="paint0_linear_8093_4934" x1="197" y1="-79" x2="197" y2="315" gradientUnits="userSpaceOnUse">
<stop stop-color="#B8DBFC"/>
<stop offset="1" stop-color="#F8FBFE"/>
</linearGradient>
</defs>
</svg>
