<svg width="416" height="250" viewBox="0 0 416 250" fill="none" xmlns="http://www.w3.org/2000/svg">
<path fill-rule="evenodd" clip-rule="evenodd" d="M265.766 -95.5923L221.456 92.5156L323.135 -71.8288C326.285 -76.9186 333.357 -77.7404 337.588 -73.5082L406.508 -4.58894C410.74 -0.356796 409.919 6.71549 404.829 9.86466L240.485 111.545L428.593 67.2343C434.418 65.862 440 70.2821 440 76.2672V173.734C440 179.72 434.418 184.139 428.593 182.766L240.485 138.456L404.829 240.137C409.919 243.285 410.74 250.357 406.508 254.591L337.588 323.508C333.357 327.74 326.285 326.919 323.135 321.829L221.456 157.485L265.766 345.593C267.139 351.418 262.717 357 256.734 357H159.267C153.282 357 148.862 351.418 150.234 345.593L194.545 157.485L92.8644 321.829C89.7155 326.919 82.643 327.74 78.4108 323.508L9.49175 254.588C5.25961 250.357 6.08135 243.285 11.1712 240.135L175.514 138.456L-12.5922 182.766C-18.4179 184.139 -24 179.72 -24 173.734V76.267C-24 70.2819 -18.418 65.862 -12.5922 67.2343L175.515 111.545L11.1712 9.86489C6.08135 6.71572 5.25961 -0.356796 9.49175 -4.58894L78.4108 -73.508C82.643 -77.7402 89.7155 -76.9184 92.8644 -71.8286L194.545 92.5161L150.234 -95.5922C148.862 -101.418 153.282 -107 159.267 -107L256.734 -107C262.72 -107 267.139 -101.418 265.766 -95.5923ZM208 151.515C222.644 151.515 234.515 139.644 234.515 125C234.515 110.357 222.644 98.4857 208 98.4857C193.357 98.4857 181.486 110.357 181.486 125C181.486 139.644 193.357 151.515 208 151.515Z" fill="url(#paint0_linear_8093_4960)"/>
<defs>
<linearGradient id="paint0_linear_8093_4960" x1="8.48" y1="-46.68" x2="391.28" y2="309.44" gradientUnits="userSpaceOnUse">
<stop stop-color="#E9E0FF"/>
<stop offset="1" stop-color="#F9ECFF"/>
</linearGradient>
</defs>
</svg>
