<svg width="356" height="250" viewBox="0 0 356 250" fill="none" xmlns="http://www.w3.org/2000/svg">
<path fill-rule="evenodd" clip-rule="evenodd" d="M178 303C276.306 303 356 223.306 356 125C356 26.6933 276.306 -53 178 -53C79.6933 -53 0 26.6933 0 125C0 223.306 79.6933 303 178 303ZM178 281.64C264.51 281.64 334.64 211.51 334.64 125C334.64 38.49 264.51 -31.64 178 -31.64C91.49 -31.64 21.36 38.49 21.36 125C21.36 211.51 91.49 281.64 178 281.64ZM178 260.28C252.714 260.28 313.28 199.714 313.28 125C313.28 50.287 252.714 -10.28 178 -10.28C103.287 -10.28 42.72 50.287 42.72 125C42.72 199.714 103.287 260.28 178 260.28ZM178 238.92C240.916 238.92 291.92 187.916 291.92 125C291.92 62.0838 240.916 11.08 178 11.08C115.084 11.08 64.08 62.0838 64.08 125C64.08 187.916 115.084 238.92 178 238.92ZM270.56 125C270.56 176.12 229.12 217.56 178 217.56C126.881 217.56 85.44 176.12 85.44 125C85.44 73.8805 126.881 32.44 178 32.44C229.12 32.44 270.56 73.8805 270.56 125ZM249.2 125C249.2 164.322 217.322 196.2 178 196.2C138.677 196.2 106.8 164.322 106.8 125C106.8 85.6773 138.677 53.8 178 53.8C217.322 53.8 249.2 85.6773 249.2 125Z" fill="url(#paint0_linear_8093_4947)"/>
<defs>
<linearGradient id="paint0_linear_8093_4947" x1="48.95" y1="-19.18" x2="265.22" y2="257.61" gradientUnits="userSpaceOnUse">
<stop stop-color="#FAD8D8"/>
<stop offset="1" stop-color="#FFF5F1"/>
</linearGradient>
</defs>
</svg>
