<svg width="32" height="32" viewBox="0 0 32 32" fill="none" xmlns="http://www.w3.org/2000/svg">
<g clip-path="url(#clip0_8520_6982)">
<path d="M14.5625 0.0998049C11.8187 0.599805 9.43122 2.66855 8.55622 5.3123C8.06872 6.80605 8.05622 8.7248 8.53747 10.2186C9.43122 12.9873 11.7875 15.0311 14.6625 15.5311C15.3562 15.6498 16.6437 15.6498 17.35 15.5311C18.9187 15.2623 20.3312 14.5311 21.475 13.4061C22.3937 12.4998 22.9687 11.6061 23.3687 10.4623C23.6812 9.58105 23.8125 8.79355 23.8125 7.8123C23.8125 5.5873 22.9625 3.5998 21.375 2.0998C20.2625 1.05605 18.9937 0.412305 17.4812 0.118554C16.75 -0.0251951 15.2875 -0.0314455 14.5625 0.0998049Z" fill="#475569"/>
<path d="M9.9375 15.3C9.9375 15.325 11.3 16.7062 12.9688 18.375L16 21.4062L19.0312 18.375C20.7 16.7062 22.0625 15.325 22.0625 15.3C22.0625 15.275 21.7563 15.4625 21.3813 15.7188C20.3 16.45 19.2312 16.9062 17.9313 17.2C17.3688 17.325 17.1125 17.3438 16 17.3438C14.8875 17.3438 14.6312 17.325 14.0687 17.2C12.7687 16.9062 11.7 16.45 10.6188 15.7188C10.2438 15.4625 9.9375 15.275 9.9375 15.3Z" fill="#475569"/>
<path d="M7.525 16.1438C4.49375 18.0125 2.03125 21.15 0.90625 24.5938C0.29375 26.45 0.125 27.675 0.125 30.2V32H7.59375H15.0625V27.4812V22.9688L11.5125 19.4187L7.96875 15.875L7.525 16.1438ZM8.375 22.4375V23.25H9.21875H10.0625V24.1562V25.0625H9.21875H8.375V25.9062V26.75H7.46875H6.5625V25.9062V25.0625H5.71875H4.875V24.1562V23.25H5.71875H6.5625V22.4375V21.625H7.46875H8.375V22.4375Z" fill="#475569"/>
<path d="M20.4813 19.425L16.9375 22.9688V27.4875V32H24.4062H31.875V30.2C31.875 28.9625 31.8438 28.1563 31.7812 27.625C31.2688 23.4875 29.1438 19.725 25.8438 17.1188C25.3125 16.7 24.6937 16.2625 24.3125 16.0438L24.025 15.8813L20.4813 19.425ZM19.7875 24.375C20.0688 24.55 20.275 24.9938 20.2188 25.3C20.1625 25.6 19.7812 25.9688 19.4688 26.025C18.9813 26.1188 18.4375 25.6375 18.4375 25.1188C18.4375 24.4688 19.2313 24.0375 19.7875 24.375ZM19.7875 27.5C20.0688 27.675 20.275 28.1188 20.2188 28.4188C20.1625 28.725 19.7875 29.1 19.4813 29.1563C18.9938 29.25 18.4375 28.7625 18.4375 28.2438C18.4375 27.5938 19.2313 27.1625 19.7875 27.5Z" fill="#475569"/>
</g>
<defs>
<clipPath id="clip0_8520_6982">
<rect width="32" height="32" fill="white"/>
</clipPath>
</defs>
</svg>
