<svg width="34" height="24" viewBox="0 0 34 24" fill="none" xmlns="http://www.w3.org/2000/svg">
<path d="M5.35179 1.44461C1.88131 5.06121 -0.219238 11.0158 0.0182161 16.5503C0.0730131 18.0846 0.164342 18.4682 0.712312 19.5824C3.48869 25.3544 11.4891 25.5005 14.5212 19.8199C15.2335 18.4865 15.2335 18.4682 15.2335 16.3859C15.2335 14.4132 15.197 14.2123 14.6673 13.0981C13.6627 10.9976 11.9822 9.49977 9.91821 8.89701C9.27891 8.71435 9.16932 8.60475 9.26065 8.27597C9.42504 7.54535 10.7402 4.96988 11.3247 4.20273C11.6535 3.76435 11.8909 3.38077 11.8361 3.34424C11.5073 3.07026 7.25142 0.0929508 7.0505 0.0198879C6.90438 -0.0349083 6.21028 0.549593 5.35179 1.44461Z" fill="#025056"/>
<path d="M23.8732 1.09785C22.5216 2.44951 21.6631 3.69157 20.6402 5.71906C19.0876 8.86076 18.1378 13.1897 18.2839 16.5689C18.3387 18.0484 18.4301 18.4868 18.9232 19.5462C21.6631 25.3547 29.7548 25.5191 32.7869 19.8202C33.4992 18.4868 33.4992 18.4685 33.4992 16.3862C33.4992 14.4683 33.4627 14.1943 32.9878 13.208C32.0197 11.1257 30.1566 9.44526 28.2205 8.89729C27.4898 8.69637 27.3802 8.60504 27.4898 8.27626C27.7273 7.3995 28.8415 5.28069 29.4625 4.45873C29.8278 3.96556 30.1201 3.49065 30.0836 3.41759C30.0288 3.25319 25.645 0.148031 25.2614 0.00190544C25.1336 -0.034626 24.5125 0.458548 23.8732 1.09785Z" fill="#025056"/>
</svg>
