<svg width="27" height="20" viewBox="0 0 27 20" fill="none" xmlns="http://www.w3.org/2000/svg">
<path d="M10.068 0.26825C8.56687 0.522217 7.95009 0.662807 7.38774 0.875957C6.21767 1.3204 5.25169 1.95078 4.42176 2.817C2.26757 5.05282 0.716551 8.20927 0.204081 11.3929C0.0181405 12.5585 0 12.9666 0 16.5358V19.9961H4.55781C9.60542 19.9961 9.51018 20.0006 10.136 19.7058C10.7709 19.4065 11.2517 18.9349 11.5419 18.3408C11.8458 17.7149 11.8367 17.8963 11.8367 13.0709V8.7036L8.92515 8.69453L6.00905 8.68093L6.02266 8.50859C6.06801 7.97798 6.42175 7.06642 6.80724 6.47685C7.4603 5.47912 8.51245 4.61744 10.0226 3.82833C10.8616 3.39296 11.102 3.18888 11.3152 2.74443C11.5827 2.19115 11.6553 1.77391 11.6553 0.821535C11.6553 0.368023 11.6417 0.000677109 11.6236 0.000677109C11.6009 0.00521278 10.9025 0.123125 10.068 0.26825Z" fill="#316DFF"/>
<path d="M26.3945 0.0680809C26.2086 0.104361 25.5963 0.204134 25.034 0.294836C23.3197 0.566944 22.585 0.780096 21.5873 1.29257C20.8208 1.68712 20.2585 2.09529 19.6553 2.69392C17.6598 4.67578 16.1133 7.61455 15.4603 10.6667C15.1428 12.1588 15.1338 12.2903 15.1156 16.3356L15.0975 20L19.8276 19.9864L24.5578 19.9728L24.9478 19.8322C25.7006 19.5646 26.272 19.0794 26.6167 18.4127C26.9795 17.7143 26.9569 18.0544 26.9705 13.1111L26.9886 8.70298H24.0589H21.1337V8.57599C21.1337 8.50343 21.1746 8.28575 21.2244 8.0862C21.6825 6.29482 22.8843 4.99777 25.2018 3.78689C25.6598 3.55106 25.9546 3.36512 26.0952 3.22453C26.4262 2.898 26.6757 2.28123 26.7573 1.59642C26.8072 1.13384 26.8163 -0.00901794 26.7709 5.34058e-05C26.7482 0.00458908 26.5804 0.0317993 26.3945 0.0680809Z" fill="#316DFF"/>
</svg>
