<svg width="29" height="24" viewBox="0 0 29 24" fill="none" xmlns="http://www.w3.org/2000/svg">
<path d="M0 6.44017V12.887H3.38075C5.24184 12.887 6.76151 12.9004 6.76151 12.9205C6.76151 12.9406 6.66778 13.2418 6.55398 13.59C5.95146 15.4778 5.01423 16.7498 3.67531 17.4996C2.87197 17.9481 1.66025 18.2427 0.595816 18.2427H0V21.1213V24H0.696234C3.77573 24 6.84184 22.7749 8.90377 20.7197C9.08452 20.5322 9.22511 20.3448 9.19833 20.3113C9.17824 20.2778 9.19833 20.2577 9.25188 20.2644C9.29875 20.2778 9.33222 20.2444 9.31883 20.1975C9.31213 20.1439 9.33222 20.1238 9.36569 20.1439C9.39916 20.164 9.57992 19.9967 9.76067 19.769C11.3339 17.7808 12.3983 15.0159 12.7531 11.9833C12.8335 11.2736 12.8536 10.0954 12.8536 5.55648V0H6.42678H0V6.44017ZM11.8962 6.17238C11.8762 10.6176 11.8561 11.4946 11.7556 12.1506C11.0594 16.8971 8.96402 20.1908 5.57657 21.8845C4.41172 22.4669 2.85858 22.8887 1.56653 22.9757L0.937239 23.0159V21.1347V19.2536L1.15816 19.2201C1.27197 19.2 1.52636 19.1665 1.70711 19.1464C2.26276 19.0795 3.25356 18.7916 3.78243 18.5506C4.40502 18.2628 5.10126 17.7808 5.041 17.6803C5.02092 17.6402 5.02092 17.6268 5.05439 17.6536C5.20167 17.7874 6.12552 16.7632 6.63431 15.8929C7.16987 14.969 7.69205 13.4561 7.92636 12.1305L7.97322 11.8828H4.45188H0.937239V6.47364C0.937239 3.49456 0.957322 1.03766 0.9841 1.01757C1.00418 0.990795 3.48117 0.970711 6.47364 0.970711H11.923L11.8962 6.17238Z" fill="#C71F37"/>
<path d="M1.94141 3.51332V5.25391H2.41003H2.87864V4.01541V2.77692H3.71546H4.55228V2.27483V1.77273H3.24685H1.94141V3.51332Z" fill="#C71F37"/>
<path d="M16.1089 6.44017V12.887H19.4896C21.3507 12.887 22.8704 12.9004 22.8704 12.9205C22.8704 12.9406 22.7767 13.2418 22.6629 13.59C22.0604 15.4778 21.1231 16.7498 19.7842 17.4996C18.9809 17.9481 17.7691 18.2427 16.7047 18.2427H16.1089V21.1213V24H16.8051C19.8846 24 22.9507 22.7749 25.0127 20.7197C25.1934 20.5322 25.334 20.3448 25.3072 20.3113C25.2871 20.2778 25.3072 20.2577 25.3608 20.2644C25.4076 20.2778 25.4411 20.2444 25.4277 20.1975C25.421 20.1439 25.4411 20.1238 25.4746 20.1439C25.508 20.164 25.6888 19.9967 25.8696 19.769C27.4428 17.7808 28.5072 15.0159 28.862 11.9833C28.9424 11.2736 28.9624 10.0954 28.9624 5.55648V0H22.5357H16.1089V6.44017ZM28.0051 6.17238C27.985 10.6176 27.965 11.4946 27.8645 12.1506C27.1683 16.8971 25.0729 20.1908 21.6855 21.8845C20.5206 22.4669 18.9675 22.8887 17.6754 22.9757L17.0461 23.0159V21.1347V19.2536L17.267 19.2201C17.3809 19.2 17.6352 19.1665 17.816 19.1464C18.3716 19.0795 19.3624 18.7916 19.8913 18.5506C20.5139 18.2628 21.2101 17.7808 21.1499 17.6803C21.1298 17.6402 21.1298 17.6268 21.1633 17.6536C21.3106 17.7874 22.2344 16.7632 22.7432 15.8929C23.2788 14.969 23.8009 13.4561 24.0352 12.1305L24.0821 11.8828H20.5608H17.0461V6.47364C17.0461 3.49456 17.0662 1.03766 17.093 1.01757C17.1131 0.990795 19.5901 0.970711 22.5825 0.970711H28.0319L28.0051 6.17238Z" fill="#C71F37"/>
<path d="M18.0503 3.51332V5.25391H18.5189H18.9875V4.01541V2.77692H19.8244H20.6612V2.27483V1.77273H19.3557H18.0503V3.51332Z" fill="#C71F37"/>
</svg>
