<svg width="82" height="62" viewBox="0 0 82 62" fill="none" xmlns="http://www.w3.org/2000/svg">
<path d="M0 15.375V30.75H10.1699H20.3398V31.775C20.3398 34.882 18.9945 38.95 16.8965 42.1371C15.9035 43.6586 12.9086 46.6535 11.3871 47.6465C8.2 49.7445 4.13203 51.0898 1.025 51.0898H0V56.2949V61.5H1.40937C2.93086 61.5 5.76562 61.0836 7.76758 60.5551C15.2469 58.6332 22.0375 53.6523 26.1055 47.102C28.3637 43.4504 29.725 39.7988 30.4457 35.3945C30.718 33.6809 30.75 32.4316 30.75 16.7684V0H15.375H0V15.375Z" fill="#EDBBB8"/>
<path d="M51.25 15.375V30.75H61.4199H71.5898V31.775C71.5898 34.882 70.2445 38.95 68.1465 42.1371C67.1535 43.6586 64.1586 46.6535 62.6371 47.6465C59.45 49.7445 55.382 51.0898 52.275 51.0898H51.25V56.2949V61.5H52.6594C54.1809 61.5 57.0156 61.0836 59.0176 60.5551C66.4969 58.6332 73.2875 53.6523 77.3555 47.102C79.6137 43.4504 80.975 39.7988 81.6957 35.3945C81.968 33.6809 82 32.4316 82 16.7684V0H66.625H51.25V15.375Z" fill="#EDBBB8"/>
</svg>
