<svg width="32" height="32" viewBox="0 0 32 32" fill="none" xmlns="http://www.w3.org/2000/svg">
<path d="M4.5375 0.11875C4.19375 0.35 4.125 0.53125 4.125 1.23125V1.875H3.45625C2.925 1.875 2.69375 1.90625 2.36875 2.01875C1.275 2.39375 0.45625 3.21875 0.125 4.30625C0.0125 4.65625 0 4.8875 0 6.4125V8.125H14.0625H28.125V6.3875C28.1187 4.7625 28.1125 4.63125 27.9813 4.24375C27.6 3.11875 26.7563 2.3125 25.6313 1.975C25.4125 1.9125 25.0562 1.875 24.6438 1.875H24V1.23125C24 0.7125 23.975 0.5625 23.8813 0.4125C23.6875 0.125 23.45 0 23.0625 0C22.675 0 22.4375 0.125 22.2437 0.4125C22.15 0.5625 22.125 0.7125 22.125 1.23125V1.875H20.0625H18V1.23125C18 0.53125 17.9312 0.35 17.5875 0.11875C17.3438 -0.0437498 16.7812 -0.0437498 16.5375 0.11875C16.1938 0.35 16.125 0.53125 16.125 1.23125V1.875H14.0625H12V1.23125C12 0.53125 11.9313 0.35 11.5875 0.11875C11.3438 -0.0437498 10.7812 -0.0437498 10.5375 0.11875C10.1938 0.35 10.125 0.53125 10.125 1.23125V1.875H8.0625H6V1.23125C6 0.7125 5.975 0.5625 5.88125 0.4125C5.6875 0.125 5.45 0 5.0625 0C4.83125 0 4.6625 0.0374994 4.5375 0.11875ZM5.9875 3.3875C5.96875 4.81875 5.9625 4.91875 5.83125 5.125C5.65625 5.4125 5.3875 5.5625 5.0625 5.5625C4.7375 5.5625 4.46875 5.4125 4.29375 5.125C4.1625 4.91875 4.15625 4.81875 4.1375 3.3875L4.1125 1.875H5.0625H6.0125L5.9875 3.3875ZM11.9875 3.3875C11.9688 4.81875 11.9625 4.91875 11.8313 5.125C11.6562 5.4125 11.3875 5.5625 11.0625 5.5625C10.7375 5.5625 10.4688 5.4125 10.2937 5.125C10.1625 4.91875 10.1562 4.81875 10.1375 3.3875L10.1125 1.875H11.0625H12.0125L11.9875 3.3875ZM17.9875 3.3875C17.9688 4.81875 17.9625 4.91875 17.8313 5.125C17.6562 5.4125 17.3875 5.5625 17.0625 5.5625C16.7375 5.5625 16.4688 5.4125 16.2938 5.125C16.1625 4.91875 16.1562 4.81875 16.1375 3.3875L16.1125 1.875H17.0625H18.0125L17.9875 3.3875ZM23.9875 3.3875C23.9688 4.81875 23.9625 4.91875 23.8313 5.125C23.6562 5.4125 23.3875 5.5625 23.0625 5.5625C22.7375 5.5625 22.4688 5.4125 22.2938 5.125C22.1625 4.91875 22.1562 4.81875 22.1375 3.3875L22.1125 1.875H23.0625H24.0125L23.9875 3.3875Z" fill="#475569"/>
<path d="M0.0125 17.4187L0.03125 24.8438L0.23125 25.2563C0.59375 25.9937 1.14375 26.4875 1.90625 26.75C2.2625 26.875 2.425 26.875 9.425 26.875H16.575L16.5375 26.675C16.5125 26.5625 16.4813 26 16.4563 25.425C16.4125 24.1937 16.5125 23.4688 16.85 22.4375C17.2875 21.1188 17.9062 20.1062 18.9 19.0812C20.575 17.3438 22.7375 16.425 25.15 16.4312C26.1688 16.4312 27.25 16.6125 28.0312 16.9125C28.1125 16.9437 28.125 16.5687 28.125 13.475V10H14.0625H0L0.0125 17.4187ZM12.4375 13.425C12.5563 13.4812 12.7188 13.625 12.7937 13.7437C13.0813 14.175 12.9125 14.775 12.4375 15.0125C12.2563 15.1062 12.05 15.125 11.2812 15.125C10.2188 15.125 10.0188 15.0687 9.76875 14.6937C9.48125 14.2625 9.65 13.6625 10.125 13.425C10.3063 13.3313 10.5125 13.3125 11.2812 13.3125C12.05 13.3125 12.2563 13.3313 12.4375 13.425ZM18 13.425C18.1187 13.4812 18.2812 13.625 18.3563 13.7437C18.6438 14.175 18.475 14.775 18 15.0125C17.8188 15.1062 17.6125 15.125 16.8438 15.125C15.7812 15.125 15.5813 15.0687 15.3313 14.6937C15.0437 14.2625 15.2125 13.6625 15.6875 13.425C15.8688 13.3313 16.075 13.3125 16.8438 13.3125C17.6125 13.3125 17.8188 13.3313 18 13.425ZM23.5625 13.425C23.6812 13.4812 23.8438 13.625 23.9188 13.7437C24.2063 14.175 24.0375 14.775 23.5625 15.0125C23.3813 15.1062 23.175 15.125 22.4062 15.125C21.3438 15.125 21.1438 15.0687 20.8938 14.6937C20.6063 14.2625 20.775 13.6625 21.25 13.425C21.4312 13.3313 21.6375 13.3125 22.4062 13.3125C23.175 13.3125 23.3813 13.3313 23.5625 13.425ZM6.925 17.6562C7.20625 17.825 7.375 18.1125 7.375 18.4375C7.375 18.7625 7.2125 19.05 6.925 19.2188C6.74375 19.3312 6.60625 19.3438 5.71875 19.3438C4.83125 19.3438 4.69375 19.3312 4.5125 19.2188C3.95 18.8812 3.9 18.0562 4.41875 17.7188C4.69375 17.5375 4.9125 17.5062 5.84375 17.5188C6.5875 17.5312 6.75 17.55 6.925 17.6562ZM12.4875 17.6562C12.7688 17.825 12.9375 18.1125 12.9375 18.4375C12.9375 18.7625 12.775 19.05 12.4875 19.2188C12.3063 19.3312 12.1687 19.3438 11.2812 19.3438C10.3938 19.3438 10.2563 19.3312 10.075 19.2188C9.5125 18.8812 9.4625 18.0562 9.98125 17.7188C10.2563 17.5375 10.475 17.5062 11.4062 17.5188C12.15 17.5312 12.3125 17.55 12.4875 17.6562ZM18.05 17.6562C18.3313 17.825 18.5 18.1125 18.5 18.4375C18.5 18.7625 18.3375 19.05 18.05 19.2188C17.8687 19.3312 17.7313 19.3438 16.8438 19.3438C15.9563 19.3438 15.8188 19.3312 15.6375 19.2188C15.075 18.8812 15.025 18.0562 15.5437 17.7188C15.8188 17.5375 16.0375 17.5062 16.9688 17.5188C17.7125 17.5312 17.875 17.55 18.05 17.6562ZM6.875 21.8625C7.5375 22.1937 7.5375 23.1187 6.875 23.45C6.55625 23.6125 4.88125 23.6125 4.5625 23.45C3.9 23.1187 3.9 22.1937 4.5625 21.8625C4.74375 21.7687 4.95 21.75 5.71875 21.75C6.4875 21.75 6.69375 21.7687 6.875 21.8625ZM12.4375 21.8625C12.5563 21.9187 12.7188 22.0625 12.7937 22.1813C13.0813 22.6125 12.9125 23.2125 12.4375 23.45C12.1188 23.6125 10.4438 23.6125 10.125 23.45C9.4625 23.1187 9.4625 22.1937 10.125 21.8625C10.3063 21.7687 10.5125 21.75 11.2812 21.75C12.05 21.75 12.2563 21.7687 12.4375 21.8625Z" fill="#475569"/>
<path d="M23.6875 18.3747C20.9687 18.956 18.8625 21.0997 18.35 23.8122C18.2125 24.5372 18.2187 25.8185 18.3687 26.5372C18.9187 29.206 21.0437 31.3247 23.7187 31.881C24.425 32.0247 25.7125 32.0372 26.4187 31.906C29.1937 31.381 31.3812 29.1935 31.9062 26.4185C32.025 25.7747 32.025 24.4747 31.9062 23.831C31.3812 21.0497 29.2 18.8685 26.4187 18.3435C25.725 18.2122 24.3687 18.2247 23.6875 18.3747ZM25.575 21.231C25.675 21.2935 25.8187 21.4435 25.8937 21.5622C26.0187 21.7622 26.0312 21.8747 26.05 22.981L26.075 24.1747L27.2687 24.1997C28.6 24.2185 28.7562 24.2622 29.0062 24.6622C29.2562 25.0747 29.1062 25.6497 28.675 25.906C28.4812 26.0247 28.3562 26.031 26.6875 26.031C24.9625 26.031 24.9 26.0247 24.6875 25.8935C24.5687 25.8185 24.4125 25.6622 24.3437 25.5497C24.225 25.356 24.2187 25.231 24.2187 23.5622C24.2187 21.9685 24.2312 21.7622 24.3312 21.5747C24.5562 21.156 25.1625 20.9935 25.575 21.231Z" fill="#475569"/>
</svg>
