<svg width="40" height="40" viewBox="0 0 40 40" fill="none" xmlns="http://www.w3.org/2000/svg">
<g clip-path="url(#clip0_7983_15892)">
<path d="M30.875 0.859665C29.75 1.01591 28.5157 1.47685 27.6016 2.08623C26.9453 2.51591 25.9375 3.51591 25.4688 4.18779C24.6016 5.4456 24.1485 6.77373 24.086 8.28935C24.0235 9.71904 24.2188 10.6722 24.8438 12.0081C25.8203 14.1019 27.5938 15.5862 29.875 16.2269L30.625 16.4378V18.7034C30.625 20.844 30.6328 20.9847 30.7891 21.305C31.0313 21.8128 31.5 22.0628 32.1172 22.0159C32.7813 21.969 33.211 21.6097 33.3672 20.969C33.4063 20.805 33.4297 19.7034 33.4297 18.5315C33.4219 17.3597 33.4375 16.3909 33.4532 16.3753C33.461 16.3675 33.7969 16.2659 34.1797 16.1409C34.5703 16.0159 35.0625 15.8284 35.2735 15.7269C36.3985 15.1644 37.6563 14.1019 38.3047 13.1487C40.4844 9.99248 40.1172 5.81279 37.4297 3.11748C36.3203 2.0081 35.0078 1.29716 33.4844 0.96904C32.7969 0.828415 31.5078 0.773727 30.875 0.859665ZM33.2032 2.6331C35.1875 3.03935 36.9219 4.5081 37.6485 6.39873C37.9453 7.17216 38.0469 7.75029 38.0469 8.67998C38.0469 11.4378 36.1953 13.8597 33.5078 14.6097C29.5 15.7269 25.4844 12.4847 25.7266 8.3206C25.9141 5.21123 28.2578 2.78154 31.3282 2.5081C32.0313 2.4456 32.4297 2.46904 33.2032 2.6331Z" fill="#475569"/>
<path d="M14.2969 6.53865C13.8047 6.59334 12.8047 6.80428 12.3203 6.96834C10.2578 7.6324 8.47656 9.35115 8.08594 11.0543C7.94531 11.6558 7.92188 12.9527 8.04688 13.5855C8.14062 14.1012 8.14062 14.0621 8.03125 14.0621C7.77344 14.0621 7.30469 14.2496 7.14062 14.4137C6.96875 14.5855 6.95312 14.6715 6.95312 15.273C6.95312 16.109 7.11719 16.8512 7.44531 17.4605C7.73438 17.9918 8.0625 18.2496 8.5625 18.3277C8.82812 18.3668 8.90625 18.4137 8.90625 18.523C8.90625 18.7652 9.35156 19.9058 9.69531 20.5387C10.7109 22.4137 12.1719 23.734 13.7031 24.1793C14.4141 24.3902 15.6562 24.3121 16.3672 24.023C17.1328 23.7183 17.6797 23.3433 18.3672 22.648C19.3125 21.7027 20.1641 20.3043 20.5938 19.0074C20.7969 18.3902 20.8125 18.3746 21.0781 18.3199C21.2344 18.2887 21.4609 18.2183 21.5781 18.1558C22.0938 17.8902 22.5156 16.9683 22.6641 15.7808C22.8125 14.648 22.5938 14.2183 21.8281 14.1012C21.5703 14.0621 21.4844 14.023 21.5156 13.9449C21.5391 13.8824 21.6016 13.4683 21.6484 13.0308C21.8438 11.3355 21.4453 10.109 20.2812 8.85896C19.375 7.87459 18.2266 7.1949 16.8516 6.83553C16.1797 6.65584 14.9609 6.46834 14.6875 6.49959C14.625 6.49959 14.4453 6.52303 14.2969 6.53865Z" fill="#475569"/>
<path d="M8.82815 25.6014C7.74221 25.992 5.46877 27.0936 5.46877 27.2264C5.46877 27.2655 5.64846 27.6639 5.87502 28.1014L6.28127 28.9061H6.72658C8.1094 28.9061 9.5469 29.9451 10.3828 31.5545C10.7813 32.328 11.0938 33.2967 11.0938 33.7655C11.0938 34.0858 11.0547 34.1873 10.7656 34.5155C10.3906 34.953 10.1797 35.078 9.83596 35.078C9.51565 35.078 9.32033 34.9608 9.17971 34.6873C9.02346 34.3826 9.03127 34.1483 9.21096 33.8592C9.36721 33.6092 9.84377 33.3748 10 33.4764C10.1328 33.5545 10.0938 33.3201 9.88283 32.7655C9.56252 31.9061 9.20315 31.3123 8.71096 30.8201C7.27346 29.3748 5.78127 29.5545 5.14846 31.242C4.94533 31.7967 4.87502 32.8123 4.99221 33.453C5.1094 34.0545 5.45315 35.1405 5.55471 35.1951C5.59377 35.2264 5.66408 35.1561 5.71096 35.0545C5.81252 34.8358 6.16408 34.6092 6.40627 34.6092C6.69533 34.6092 7.03908 34.8436 7.15627 35.1326C7.31252 35.492 7.2344 35.8045 6.94533 36.0467C6.74221 36.2186 6.63283 36.242 6.14846 36.242C5.83596 36.242 5.52346 36.2498 5.44533 36.2498C5.01565 36.2733 4.62502 35.6795 4.28908 34.5155C3.7344 32.6248 3.99221 30.8045 4.96096 29.7733L5.32033 29.3905L4.90627 28.5623C4.67971 28.1092 4.47658 27.7342 4.44533 27.7342C4.3594 27.7342 3.19533 28.5155 2.57815 28.9842C1.02346 30.1717 0.484396 30.9764 0.312521 32.3983C0.203146 33.2342 0.281271 35.1014 0.437521 35.3983C0.562521 35.6405 1.65627 36.3514 2.64065 36.8358C5.28908 38.1248 9.4844 39.0155 13.7891 39.1873C17.7422 39.3514 23.4219 38.3592 26.3828 36.992C27.2735 36.578 28.6485 35.7186 28.836 35.4608C28.9922 35.2342 29.0078 35.1248 29.0156 33.7264C29.0313 31.578 28.8281 30.953 27.7891 29.9139C27.1328 29.2576 25.5313 28.0467 25.3203 28.0467C25.2813 28.0467 25.2266 28.1795 25.1953 28.3358C25.1016 28.8436 24.6094 30.0858 24.1797 30.9139C23.8438 31.5545 23.7813 31.7264 23.8672 31.7967C23.9219 31.8436 24.0469 32.0623 24.1485 32.2889C24.5469 33.203 24.3125 34.2967 23.5469 34.9998C23.0313 35.4764 22.5781 35.6561 21.8985 35.6561C20.3125 35.6483 19.1563 34.1483 19.5625 32.6326C19.9141 31.3201 21.25 30.5389 22.5156 30.8905C22.7656 30.9608 23.0078 30.9998 23.0391 30.9764C23.1797 30.8983 23.836 29.4451 24.086 28.6717C24.4766 27.4998 24.4766 27.4764 24.2735 27.3748C24.1797 27.328 23.5078 26.9842 22.7735 26.617C22.0469 26.2498 21.1875 25.8592 20.875 25.7498L20.3125 25.5467L20.0938 25.8592C19.9766 26.0233 19.6953 26.4373 19.461 26.7733C18.1953 28.5858 16.2578 31.0545 16.1719 30.9608C16.1406 30.9295 16.0313 30.4061 15.9375 29.8045L15.75 28.7108L16.0391 28.2811C16.3828 27.7655 16.3906 27.578 16.1016 26.8358L15.8906 26.2889L15.3516 26.2264C14.6953 26.1483 13.5547 26.2264 13.4531 26.3514C13.4141 26.4061 13.2891 26.7264 13.1641 27.078L12.9531 27.703L13.2735 28.203C13.4531 28.4764 13.5938 28.7342 13.5938 28.7889C13.5938 28.9217 13.1953 31.0467 13.1641 31.078C13.0938 31.1483 10.4063 27.6248 9.53127 26.3123C9.25002 25.8905 9.00783 25.5545 8.9844 25.5545C8.96096 25.5545 8.89065 25.578 8.82815 25.6014Z" fill="#475569"/>
<path d="M21.5938 31.7965C20.8984 31.9606 20.4609 32.5231 20.4609 33.234C20.4609 33.734 20.5938 34.0231 20.9688 34.359C21.6484 34.9528 22.8047 34.7184 23.2188 33.8981C23.4062 33.5309 23.3984 32.9371 23.1953 32.5231C22.9375 31.984 22.1953 31.6481 21.5938 31.7965Z" fill="#475569"/>
</g>
<defs>
<clipPath id="clip0_7983_15892">
<rect width="40" height="40" fill="white"/>
</clipPath>
</defs>
</svg>
