<svg width="16" height="16" viewBox="0 0 16 16" fill="none" xmlns="http://www.w3.org/2000/svg">
<g clip-path="url(#clip0_7983_4530)">
<mask id="mask0_7983_4530" style="mask-type:luminance" maskUnits="userSpaceOnUse" x="0" y="0" width="16" height="16">
<path d="M16 0L0 0L0 16H16V0Z" fill="white"/>
</mask>
<g mask="url(#mask0_7983_4530)">
<path fill-rule="evenodd" clip-rule="evenodd" d="M11.7097 2.7671C11.8103 2.5245 11.8618 2.26437 11.8612 2.00174C11.8614 1.60665 11.7445 1.22036 11.5253 0.89164C11.3061 0.562918 10.9945 0.306508 10.6297 0.154776C10.2649 0.00304424 9.86328 -0.0372061 9.4756 0.0391066C9.088 0.115419 8.7316 0.304874 8.45152 0.583551L8.00032 1.00377L7.55217 0.58493C7.17686 0.210083 6.66802 -0.000322873 6.13758 3.71898e-07C5.60715 0.000323617 5.09857 0.21135 4.72372 0.586654C4.34887 0.96196 4.13846 1.4708 4.13878 2.00124C4.13911 2.53167 4.35014 3.04026 4.72544 3.4151L7.80382 6.53899C7.82948 6.56505 7.86006 6.58574 7.8938 6.59986C7.92753 6.61398 7.96374 6.62126 8.00032 6.62126C8.03688 6.62126 8.07312 6.61398 8.1068 6.59986C8.14056 6.58574 8.17112 6.56505 8.1968 6.53899L11.2752 3.4151C11.4614 3.22995 11.6091 3.0097 11.7097 2.7671ZM4.29029 13.2329C4.1897 13.4755 4.13821 13.7356 4.13879 13.9982C4.13862 14.3934 4.2555 14.7797 4.47469 15.1084C4.69388 15.4371 5.00554 15.6935 5.37034 15.8452C5.73514 15.997 6.13671 16.0372 6.52437 15.9609C6.91202 15.8846 7.26838 15.6951 7.54845 15.4165L7.99969 14.9962L8.44784 15.415C8.82312 15.7899 9.332 16.0003 9.8624 16C10.3929 15.9997 10.9014 15.7886 11.2763 15.4134C11.6511 15.0381 11.8615 14.5292 11.8612 13.9988C11.8609 13.4683 11.6498 12.9598 11.2746 12.5849L8.19616 9.46104C8.17056 9.43496 8.13992 9.41424 8.10616 9.40016C8.07248 9.386 8.03624 9.37872 7.99969 9.37872C7.96312 9.37872 7.92691 9.386 7.89318 9.40016C7.85945 9.41424 7.82886 9.43496 7.8032 9.46104L4.72482 12.5849C4.53857 12.7701 4.39087 12.9903 4.29029 13.2329ZM13.9982 11.8613C13.7356 11.8618 13.4755 11.8103 13.2329 11.7098C12.9903 11.6092 12.7701 11.4614 12.5849 11.2752L9.46104 8.19688C9.43496 8.1712 9.41424 8.14056 9.40016 8.10688C9.386 8.07312 9.37872 8.03696 9.37872 8.00032C9.37872 7.96378 9.386 7.92758 9.40016 7.89385C9.41424 7.86011 9.43496 7.82952 9.46104 7.80386L12.5849 4.72549C12.9598 4.35018 13.4683 4.13915 13.9988 4.13883C14.5292 4.13851 15.0381 4.34891 15.4134 4.72376C15.7886 5.09861 15.9997 5.60719 16 6.13763C16.0003 6.66807 15.7899 7.17691 15.415 7.55222L14.9962 8.00032L15.4165 8.4516C15.6951 8.73168 15.8846 9.088 15.9609 9.47568C16.0372 9.86336 15.997 10.2649 15.8452 10.6297C15.6935 10.9945 15.4371 11.3062 15.1084 11.5254C14.7797 11.7446 14.3934 11.8614 13.9982 11.8613ZM2.7671 4.29024C2.5245 4.18965 2.26437 4.13816 2.00174 4.13874C1.60665 4.13857 1.22035 4.25546 0.89164 4.47464C0.562918 4.69383 0.306507 5.0055 0.154776 5.3703C0.0030442 5.7351 -0.0372061 6.13666 0.0391065 6.52432C0.115419 6.91198 0.304873 7.26834 0.583551 7.5484L1.00377 7.99965L0.58493 8.44776C0.210082 8.82312 -0.000322879 9.33192 3.71914e-07 9.8624C0.000323623 10.3928 0.211349 10.9014 0.586654 11.2762C0.96196 11.6511 1.4708 11.8615 2.00124 11.8612C2.53167 11.8609 3.04026 11.6498 3.4151 11.2745L6.53898 8.19616C6.56504 8.17048 6.58574 8.13992 6.59986 8.10616C6.61398 8.0724 6.62126 8.03624 6.62126 7.99964C6.62126 7.96307 6.61398 7.92686 6.59986 7.89314C6.58574 7.8594 6.56504 7.82882 6.53898 7.80315L3.4151 4.72478C3.22995 4.53852 3.0097 4.39082 2.7671 4.29024Z" fill="white"/>
</g>
</g>
<defs>
<clipPath id="clip0_7983_4530">
<rect width="16" height="16" fill="white"/>
</clipPath>
</defs>
</svg>
