<svg width="31" height="32" viewBox="0 0 31 32" fill="none" xmlns="http://www.w3.org/2000/svg">
<path d="M13.8375 0.0764322C9.86875 0.645183 5.7 2.96393 2.15 6.58893C1.2375 7.52018 1.15625 7.62643 1.15625 7.92643C1.15625 8.13268 1.2125 8.23268 1.525 8.58893C2.29375 9.48268 3.84375 10.8889 5.09375 11.8327C7.875 13.9389 10.6 15.1827 13.5625 15.7077C14.3438 15.8452 16.0375 15.8889 16.9125 15.8014C20.875 15.3889 25.0375 13.2202 28.7063 9.64518C29.9438 8.43893 30.0938 8.24518 30.0938 7.88893C30.0938 7.63893 30.05 7.57643 29.5375 7.00768C28.5063 5.85768 26.625 4.25143 25.125 3.23893C22.7188 1.60768 20.3687 0.601432 17.9813 0.163932C17.0437 -0.0110674 14.7625 -0.0548182 13.8375 0.0764322ZM17.2313 1.50768C19.575 2.10768 21.4375 3.96393 22.0375 6.28268C22.2875 7.26393 22.2875 8.57018 22.0312 9.55143C21.8813 10.1452 21.475 11.0452 21.1125 11.5889C20.5375 12.4577 19.45 13.4014 18.5 13.8577C16.6813 14.7264 14.6562 14.7389 12.8688 13.8952C12.0813 13.5202 11.5938 13.1764 10.9688 12.5514C8.74375 10.3202 8.4 6.96393 10.125 4.28268C10.5125 3.68268 11.5 2.71393 12.1062 2.33268C12.8938 1.84518 13.9938 1.44518 14.8438 1.33268C15.3938 1.26393 16.6313 1.35143 17.2313 1.50768ZM9.3625 2.99518C9.3375 3.03893 9.2 3.24518 9.05625 3.45143C7.825 5.21393 7.3875 7.62018 7.9 9.77018C8.13125 10.7264 8.60625 11.7702 9.1375 12.4889C9.2875 12.6952 9.40625 12.8702 9.40625 12.8889C9.40625 12.9389 8.45625 12.4077 7.64375 11.9077C6.25 11.0452 4.7375 9.85143 3.44375 8.59518L2.75 7.92018L3.53125 7.15143C5.09375 5.62018 7.01875 4.18893 8.7875 3.23893C9.44375 2.88268 9.43125 2.88893 9.3625 2.99518ZM23.1875 3.63893C24.6063 4.47643 26.175 5.67643 27.65 7.04518L28.55 7.88268L27.7125 8.70143C26.1063 10.2639 23.875 11.8952 22.175 12.7577L21.8438 12.9202L22.1875 12.4139C23.175 10.9702 23.6562 9.28893 23.575 7.57643C23.5 6.02018 23.05 4.66393 22.1812 3.40768L21.85 2.92018L22.2688 3.13268C22.5 3.25143 22.9125 3.47643 23.1875 3.63893Z" fill="white"/>
<path d="M15.0811 3.17715C12.4749 3.4459 10.5436 5.9209 10.9061 8.53965C11.2374 10.9396 13.2186 12.6709 15.6186 12.6709C17.0249 12.6709 18.1874 12.1646 19.1436 11.1396C19.9061 10.3209 20.3311 9.31465 20.3874 8.1709C20.4874 6.1959 19.4374 4.41465 17.6874 3.60215C16.8499 3.21465 16.0311 3.0834 15.0811 3.17715ZM16.3999 4.57715C16.9874 4.7209 17.6311 5.07715 18.0624 5.5209C18.7311 6.1959 19.0561 6.98965 19.0499 7.9584C19.0436 8.9334 18.6874 9.7084 17.9374 10.4146C17.4686 10.8459 16.9249 11.1334 16.3124 11.2646C15.7686 11.3771 15.4874 11.3771 14.9624 11.2709C13.6624 10.9896 12.5499 9.8959 12.2874 8.6209C12.0499 7.4709 12.3936 6.3584 13.2436 5.5084C14.1186 4.63965 15.2436 4.3084 16.3999 4.57715Z" fill="white"/>
<path d="M15.2314 5.73902C14.2876 5.90152 13.5251 6.72652 13.4314 7.70777C13.4064 8.00777 13.4189 8.11402 13.5251 8.27652C13.6814 8.52027 13.9939 8.62652 14.3126 8.53902C14.5814 8.46402 14.7001 8.29527 14.7814 7.85777C14.8689 7.38277 15.2251 7.04527 15.6251 7.04527C16.2064 7.04527 16.5064 6.34527 16.1126 5.92652C15.9064 5.70777 15.6876 5.66402 15.2314 5.73902Z" fill="white"/>
<path d="M7.14375 14.3324C6.8125 14.5074 6.78125 14.6699 6.78125 16.0449C6.78125 17.3762 6.81875 17.5887 7.0875 17.7324C7.3125 17.8512 7.7 17.8074 7.88125 17.6449C8.03125 17.5199 8.0625 17.4324 8.1 17.0387C8.1875 16.1699 8.16875 14.8074 8.0625 14.6074C7.8875 14.2699 7.475 14.1449 7.14375 14.3324Z" fill="white"/>
<path d="M10.1187 16.2021C9.91875 16.3396 8.84375 18.1771 8.84375 18.3834C8.84375 18.7709 9.11875 19.0396 9.51875 19.0459C9.88125 19.0459 10.0063 18.9146 10.6438 17.8521C11.0688 17.1459 11.1562 16.9521 11.1562 16.7334C11.1562 16.3646 10.9 16.1084 10.5188 16.1084C10.3687 16.1084 10.1875 16.1521 10.1187 16.2021Z" fill="white"/>
<path d="M5.925 17.7396C5.65 17.8209 5.50625 17.9896 4.65 19.2646C3.51875 20.9459 2.81875 22.5021 2.85 23.2521L2.8625 23.5771L1.54375 25.5084C0.81875 26.5646 0.175 27.5646 0.1125 27.7271C0.03125 27.9396 0 28.1896 0 28.7021C0 29.3334 0.0125 29.4209 0.18125 29.7646C0.41875 30.2459 0.95625 30.7834 1.4375 31.0209C1.7875 31.1896 1.8625 31.2021 2.53125 31.2021C3.21875 31.2021 3.26875 31.1959 3.66875 30.9959C3.9 30.8834 4.2125 30.6709 4.35625 30.5209C4.50625 30.3709 5.2125 29.3896 5.93125 28.3334C7.08125 26.6459 7.25625 26.4209 7.4 26.4209C7.60625 26.4209 7.825 26.2834 8.40625 25.7834C9.2125 25.0896 9.725 24.4771 10.775 22.9271C11.4062 21.9896 11.4688 21.8771 11.4688 21.6146C11.4688 21.4459 11.4187 21.2521 11.3562 21.1396C11.1375 20.7834 6.40625 17.6334 6.15625 17.6771C6.1375 17.6771 6.0375 17.7084 5.925 17.7396ZM8.175 20.5084C9.125 21.1584 9.90625 21.7146 9.90625 21.7459C9.90625 21.8396 9.51875 22.3271 9.45625 22.3084C9.35625 22.2834 5.90625 19.9146 5.90625 19.8709C5.90625 19.7646 6.325 19.2521 6.38125 19.2834C6.4125 19.3084 7.225 19.8584 8.175 20.5084ZM6.80625 22.1709C7.70625 22.7834 8.5125 23.3396 8.5875 23.4021L8.725 23.5146L8.225 24.0521C7.95625 24.3459 7.63125 24.6584 7.5125 24.7521L7.29375 24.9146L6.775 24.5584C6.4875 24.3584 5.80625 23.8959 5.26875 23.5271L4.28125 22.8521L4.43125 22.4646C4.59375 22.0334 5.075 21.0459 5.125 21.0459C5.14375 21.0459 5.9 21.5521 6.80625 22.1709ZM6 25.7834C5.91875 26.0084 3.425 29.5709 3.2875 29.6646C2.89375 29.9334 2.45625 29.9834 2.0625 29.8021C1.6125 29.5959 1.28125 29.1084 1.28125 28.6584C1.28125 28.3334 1.48125 27.9959 2.78125 26.0959L4 24.3084L5.01875 25.0021C5.675 25.4521 6.025 25.7271 6 25.7834Z" fill="white"/>
<path d="M3.70625 25.8649C3.64375 25.8961 3.40625 26.1961 3.175 26.5336C2.8 27.0711 2.75 27.1711 2.75 27.4274C2.75 27.7774 2.88125 27.9524 3.21875 28.0524C3.60625 28.1711 3.8125 28.0211 4.3 27.2899C4.64375 26.7774 4.71875 26.6149 4.71875 26.4149C4.71875 26.0524 4.45625 25.7961 4.08125 25.7961C3.93125 25.7961 3.7625 25.8274 3.70625 25.8649Z" fill="white"/>
<path d="M12.1625 18.4196C10.9375 19.0821 10.8125 19.1883 10.8125 19.5821C10.8125 19.8258 10.8438 19.8946 11.0187 20.0508C11.3562 20.3508 11.5188 20.3133 12.7938 19.6258C14.0375 18.9571 14.1375 18.8571 14.075 18.3946C14.025 18.0508 13.8 17.8571 13.45 17.8571C13.2438 17.8633 12.975 17.9758 12.1625 18.4196Z" fill="white"/>
</svg>
