<svg width="48" height="48" viewBox="0 0 48 48" fill="none" xmlns="http://www.w3.org/2000/svg">
<g clip-path="url(#clip0_9045_6855)">
<path d="M9.90041 8.16562C5.02541 8.87812 0.984788 12.825 0.141038 17.7094C-0.0464618 18.7406 -0.0370868 20.8594 0.141038 21.8531C0.450413 23.4937 1.01291 24.9 1.94104 26.2875C3.33791 28.3781 5.41916 30 7.80041 30.8344C9.40354 31.3875 9.77854 31.4344 13.4254 31.4906L16.7723 31.5469L17.4567 32.3156C19.1535 34.2187 21.6567 36.1312 23.9817 37.3031C24.4035 37.5187 24.8254 37.6875 24.9192 37.6875C25.2473 37.6875 25.5942 37.3312 25.5942 36.9844C25.5942 36.4781 25.5098 36.3844 24.816 36.0375C23.8785 35.5594 22.6035 34.7625 21.5629 34.0031C20.7473 33.4031 18.6098 31.3594 17.8035 30.3937L17.466 30H14.1848C10.5004 30 9.77854 29.925 8.25979 29.3812C4.76291 28.1344 2.18479 25.0312 1.59416 21.3469C1.43479 20.3531 1.51916 18.1687 1.76291 17.2969C2.40979 14.9344 3.67541 13.0312 5.55979 11.6156C8.88791 9.10312 13.3504 8.86875 16.9504 11.0156C17.4473 11.3156 17.916 11.5312 18.0754 11.5312C18.5629 11.5312 18.8817 10.9594 18.6942 10.4531C18.6567 10.3687 18.3942 10.1437 18.1035 9.94687C16.8942 9.12187 15.2629 8.48437 13.6973 8.2125C12.7504 8.05312 10.8473 8.025 9.90041 8.16562Z" fill="white"/>
<path d="M19.4535 12.0467C19.1067 12.3842 19.1535 12.7217 19.6317 13.3404C19.8567 13.6404 20.166 14.0623 20.316 14.2967C20.6348 14.8029 20.8504 14.8873 21.6754 14.8311C22.2754 14.7936 22.3223 14.8029 22.5942 15.0748C22.8473 15.3373 22.8754 15.4123 22.8754 15.9936V16.6217L23.391 17.0998C23.6723 17.3623 23.9067 17.6342 23.9067 17.6998C23.9067 17.8779 23.0067 18.2623 22.2192 18.4123C21.441 18.5529 21.2817 18.6936 21.2817 19.2186C21.2817 19.7154 21.5442 19.9217 22.1348 19.9029C22.7817 19.8842 23.4848 19.7061 24.141 19.4061C24.4504 19.2561 24.7129 19.1529 24.7317 19.1623C24.741 19.1811 24.8067 19.4529 24.8629 19.7811C25.0598 20.8311 24.7223 22.2748 23.9817 23.5686C23.7285 24.0092 23.616 24.0936 22.7535 24.5342C21.666 25.0967 20.9817 25.6498 20.5035 26.3717C20.0723 27.0279 19.4067 28.5279 19.4067 28.8561C19.4067 29.3998 19.9317 29.7467 20.4379 29.5311C20.6254 29.4561 20.7942 29.1842 21.1879 28.3311C22.0223 26.5498 22.0692 26.5123 25.9504 24.7123C27.816 23.8498 29.2223 23.1373 29.3067 23.0248C29.6067 22.5936 29.3723 22.0029 28.866 21.8904C28.6317 21.8342 28.341 21.9279 27.3098 22.4061C26.616 22.7248 26.0348 22.9686 26.0067 22.9498C25.9879 22.9217 26.0254 22.7436 26.1004 22.5373C26.3442 21.8436 26.466 20.8029 26.4004 19.9498L26.3348 19.1248H26.766C27.5535 19.1248 28.3035 19.6123 28.6973 20.3717C28.941 20.8404 29.166 20.9154 30.1035 20.8123C31.0129 20.7279 31.6035 20.8404 32.091 21.2154C32.5317 21.5436 32.9067 22.3217 32.9067 22.8748C32.9067 23.4186 32.541 24.1873 32.1285 24.4873C31.9598 24.6092 30.3098 25.6123 28.4535 26.7092C26.5973 27.8154 24.9754 28.8092 24.8442 28.9311C24.3567 29.3998 24.666 30.1873 25.3317 30.1873C25.5285 30.1873 26.6442 29.5686 29.091 28.1154L32.5692 26.0342L33.6192 26.1467C34.8098 26.2686 36.1692 26.5873 36.9379 26.9248L37.4629 27.1592L38.391 29.1467C39.1504 30.7592 39.3754 31.1717 39.591 31.2842C40.0973 31.5467 40.6879 31.2186 40.6879 30.6654C40.6879 30.5342 39.9473 28.8561 39.0285 26.9248C37.2848 23.2217 37.1723 22.8842 37.4067 22.1717C37.6785 21.3561 38.5879 20.6904 39.441 20.6904C39.8817 20.6904 40.1629 20.8029 41.7942 21.5998C42.8067 22.0967 43.7629 22.4998 43.9035 22.4998C44.2317 22.4998 44.6254 22.1154 44.6254 21.7967C44.6254 21.4029 44.466 21.2061 43.9598 20.9436C43.5098 20.7186 43.491 20.6998 43.6223 20.5029C43.9973 19.9311 45.0004 19.7529 45.5817 20.1467C46.2754 20.6248 46.5004 21.2529 46.5004 22.7342C46.5004 24.2998 46.2285 25.2654 45.7035 25.5936C45.3192 25.8373 44.8598 25.8279 44.2879 25.5842C43.8567 25.4061 43.7817 25.3217 43.191 24.3186C42.5254 23.1936 42.3098 23.0061 41.8504 23.1186C41.5692 23.1936 41.2504 23.5779 41.2504 23.8498C41.2504 23.9529 42.0942 25.4529 43.116 27.1686C44.1473 28.8842 45.0848 30.5248 45.1973 30.8248C45.5067 31.5936 45.4973 32.9998 45.1973 33.7967C44.6723 35.1467 43.716 36.0467 41.8598 36.9373C39.5254 38.0529 37.1535 38.5029 34.1254 38.4092C32.2504 38.3529 30.7692 38.1279 28.9785 37.6217C27.3379 37.1529 27.2442 37.1529 26.9629 37.4436C26.6817 37.7154 26.6442 38.0998 26.8598 38.4092C27.0848 38.7279 28.9692 39.2811 31.1723 39.6654C32.6067 39.9186 35.3723 40.0029 36.8348 39.8529C38.9535 39.6279 40.7348 39.1498 42.441 38.3436C44.8504 37.2092 46.0504 36.0186 46.6598 34.1811C46.8754 33.5248 46.9129 33.2623 46.9129 32.2967C46.9129 30.8436 46.6785 30.1217 45.7035 28.4998L45.0004 27.3279L45.4504 27.2717C47.166 27.0467 48.0004 25.5373 48.0004 22.6498C48.0004 20.9529 47.7098 20.0623 46.9035 19.2467C45.6192 17.9623 43.2192 18.2248 42.2723 19.7529L42.0848 20.0529L41.2879 19.6686C40.4067 19.2467 39.741 19.1248 38.8598 19.2373C37.716 19.3873 36.6848 20.1654 36.1504 21.2811C35.8879 21.8342 35.8598 21.9748 35.8598 22.8279C35.8598 23.6904 35.8879 23.8123 36.1692 24.4123C36.3379 24.7686 36.4504 25.0779 36.4317 25.0967C36.4035 25.1248 36.2442 25.0967 36.0754 25.0404C35.9067 24.9842 35.391 24.8811 34.9317 24.7967C34.4723 24.7217 34.0785 24.6373 34.0598 24.6186C34.041 24.5998 34.0879 24.4217 34.1723 24.2248C34.416 23.6529 34.4629 22.4436 34.266 21.8342C33.741 20.2029 32.4567 19.2842 30.7129 19.2936H29.8785L29.3817 18.7498C29.0442 18.3842 28.6879 18.1311 28.2942 17.9436C27.7692 17.6998 27.6004 17.6717 26.7379 17.6623H25.7817L25.5192 17.2404C25.3692 17.0154 25.0598 16.6123 24.8254 16.3592C24.4785 15.9654 24.3942 15.8061 24.3473 15.4029C24.2723 14.7842 24.0098 14.2686 23.5692 13.8748C23.091 13.4623 22.6973 13.3123 22.0504 13.3123H21.5067L21.0567 12.7029C20.8129 12.3654 20.5223 12.0279 20.4098 11.9529C20.1098 11.7467 19.716 11.7748 19.4535 12.0467Z" fill="white"/>
<path d="M18.4031 16.2375C18.3 16.3594 18.1781 16.5469 18.15 16.6594C18.0375 17.0062 17.6438 17.25 17.1938 17.25C16.6594 17.25 16.4062 17.4844 16.4062 17.9812C16.4062 18.5344 16.65 18.7031 17.4281 18.7031C18.1313 18.7031 18.5531 18.5344 19.0219 18.075C19.9031 17.2125 19.8656 16.0312 18.9469 16.0312C18.7031 16.0312 18.5344 16.0969 18.4031 16.2375Z" fill="white"/>
<path d="M12.1415 21.0843C11.2696 21.3 10.604 21.8343 10.2009 22.6687C9.91964 23.2218 9.89151 23.3718 9.90089 24.0468C9.91964 25.65 10.8665 26.9062 12.4134 27.3843C14.3165 27.9843 16.2103 26.8031 16.379 24.9187C16.4446 24.2906 16.2853 23.9625 15.8821 23.8687C15.329 23.7281 15.0009 24.0562 14.8603 24.8625C14.7571 25.5187 14.0821 26.0625 13.3884 26.0625C13.0228 26.0625 12.3196 25.7625 12.0196 25.4718C11.7103 25.1906 11.4478 24.6375 11.3821 24.1687C11.279 23.3625 12.0478 22.5 12.8728 22.5C13.0228 22.5 13.229 22.4062 13.3603 22.2656C13.8571 21.7781 13.4915 20.9906 12.779 21.0093C12.5821 21.0187 12.3009 21.0468 12.1415 21.0843Z" fill="white"/>
</g>
<defs>
<clipPath id="clip0_9045_6855">
<rect width="48" height="48" fill="white"/>
</clipPath>
</defs>
</svg>
