<svg width="48" height="48" viewBox="0 0 48 48" fill="none" xmlns="http://www.w3.org/2000/svg">
<g clip-path="url(#clip0_9045_6905)">
<path d="M44.5283 7.45595C42.8343 5.74795 39.9903 5.57995 37.9503 7.03395L31.2343 11.416C31.7243 10.38 32.0003 9.22195 32.0003 8.00195C32.0003 3.58995 28.4123 0.00195312 24.0003 0.00195312C19.5883 0.00195312 16.0003 3.58995 16.0003 8.00195C16.0003 9.22195 16.2763 10.38 16.7663 11.416L10.0843 7.05795C8.01626 5.57995 5.16626 5.74795 3.47226 7.45595C2.42426 8.50995 1.89426 9.95595 2.01626 11.418C2.14026 12.882 2.89626 14.214 4.12426 15.092L14.0003 21.598V28.928L9.46426 33.464C8.11626 34.812 7.65426 36.772 8.25826 38.588L10.3103 44.58C10.9923 46.624 12.8983 48 15.0543 48C15.8803 48 16.7043 47.79 17.4443 47.39C19.5423 46.254 20.5183 43.578 19.7103 41.152L18.7263 38.34L23.0663 34H24.9303L29.2783 38.348L28.3383 41.166C27.5343 43.576 28.5103 46.254 30.6123 47.392C31.3603 47.794 32.1623 48 33.0003 48C35.1543 48 37.0603 46.624 37.7423 44.58L39.7423 38.58C40.3443 36.772 39.8803 34.81 38.5343 33.462L33.9983 28.926V21.596L43.9043 15.068C45.1003 14.212 45.8583 12.88 45.9803 11.416C46.1043 9.95395 45.5743 8.50795 44.5243 7.45395L44.5283 7.45595ZM24.0003 1.99995C27.3083 1.99995 30.0003 4.69195 30.0003 7.99995C30.0003 11.308 27.3083 14 24.0003 14C20.6923 14 18.0003 11.308 18.0003 7.99995C18.0003 4.69195 20.6923 1.99995 24.0003 1.99995ZM16.4243 37.816L17.8203 41.798C18.3223 43.302 17.7523 44.95 16.4963 45.63C14.8783 46.51 12.7803 45.656 12.2063 43.938L10.1543 37.946C9.79226 36.86 10.0703 35.684 10.8783 34.876L14.7663 30.988L20.7043 33.534L16.4243 37.816ZM22.2403 32L16.0003 29.34V26L32.0003 26V29.34L25.7603 32H22.2403ZM37.1203 34.876C37.9283 35.684 38.2063 36.86 37.8443 37.946L35.8443 43.946C35.2783 45.652 33.1763 46.504 31.5623 45.632C30.3043 44.95 29.7343 43.302 30.2363 41.798L31.5663 37.808L27.2923 33.534L33.2303 30.988L37.1203 34.876ZM43.9903 11.25C43.9163 12.13 43.4603 12.93 42.7743 13.42L32.0003 20.52V24L16.0003 24V20.52L5.25826 13.442C4.54026 12.93 4.08426 12.132 4.01026 11.25C3.93626 10.36 4.24826 9.51195 4.89026 8.86595C5.90426 7.84395 7.63626 7.76595 8.95626 8.70995L18.1363 14.698C19.3323 15.55 20.7383 16 22.2063 16H25.7923C27.2603 16 28.6683 15.548 29.8283 14.72L39.0763 8.68395C40.3663 7.76195 42.0963 7.84195 43.1103 8.86395C43.7523 9.50995 44.0663 10.36 43.9903 11.25Z" fill="white"/>
</g>
<defs>
<clipPath id="clip0_9045_6905">
<rect width="48" height="48" fill="white"/>
</clipPath>
</defs>
</svg>
