<svg width="27" height="32" viewBox="0 0 27 32" fill="none" xmlns="http://www.w3.org/2000/svg">
<path d="M11.125 0.0492191C10.9187 0.130468 10.55 0.386719 10.4187 0.542969C10.375 0.592968 10.2812 0.749218 10.2 0.886719C10.1098 1.05078 10.0619 1.23479 10.0609 1.42203L10.0312 6.59297C10 11.9055 9.99375 12.0555 9.88125 12.143C9.70625 12.268 9.4875 12.2492 9.34375 12.1055C9.21875 11.9805 9.21875 11.8992 9.21875 8.21172C9.21875 6.14297 9.2 4.29922 9.175 4.11797C9.125 3.65547 8.83125 3.19297 8.44375 2.95547C8.2 2.80547 8.05 2.76172 7.70625 2.74297C7.175 2.71172 6.83125 2.83047 6.5 3.15547C6.03125 3.62422 6.06875 3.19922 6.03125 8.76797C6 13.5867 5.99375 13.7867 5.88125 13.9117C5.7625 14.043 5.5 14.0867 5.375 13.993C5.3375 13.968 5.175 13.7805 5.01875 13.5742C4.68125 13.1367 3.94375 12.4117 3.5 12.093C2.725 11.5367 1.7875 11.1992 1.1375 11.243C0.6875 11.2742 0.625 11.3367 0.2625 12.1055C0.0625 12.518 0.00625 12.7117 0.00625 12.993C0.00219656 13.22 0.0730403 13.442 0.207826 13.6247L4.34375 19.2305C6.73125 22.4742 8.7625 25.2367 8.8625 25.3742C8.97248 25.5372 9.03125 25.7293 9.03125 25.9258V28.8055C9.03125 30.559 10.4527 31.9805 12.2063 31.9805H13.4688H14.7C16.4708 31.9805 17.9062 30.545 17.9062 28.7742V27.6542C17.9062 26.3042 18.3449 24.9908 19.1562 23.9117C20.3062 22.3867 20.4062 22.2367 20.3687 22.0555C20.3438 21.9242 20.2563 21.8117 20.0813 21.6992C19.8438 21.543 19.8375 21.5367 19.6688 21.6555C19.3813 21.8492 19.1625 21.918 18.8563 21.918C18.1187 21.9117 17.5312 21.318 17.5312 20.5742C17.5312 20.1992 17.6562 19.918 18.0063 19.5055C18.2812 19.1867 18.2938 19.1555 18.2563 18.8867C18.2311 18.7248 18.0917 18.6055 17.9279 18.6055H17.9125C17.0125 18.6055 16.3438 18.0242 16.3438 17.2305C16.3438 16.4305 17.0063 15.8555 17.9125 15.8555H17.9279C18.0917 15.8555 18.2311 15.7361 18.2563 15.5742C18.2938 15.3055 18.2812 15.2742 18.0063 14.9555C17.65 14.5367 17.5312 14.2617 17.5312 13.8742C17.5375 13.3117 17.9188 12.7742 18.4375 12.6055C18.7875 12.4867 19.2938 12.5555 19.5875 12.7492L19.5947 12.754C19.746 12.8536 19.9419 12.8542 20.0938 12.7555C20.3 12.618 20.3438 12.5492 20.3813 12.318C20.4312 11.9617 20.7063 11.5492 21.025 11.3555C21.1806 11.2582 21.2753 11.0879 21.2758 10.9044L21.2812 8.89297C21.2812 7.30547 21.2563 6.51172 21.2063 6.34297C21.1125 6.02422 20.6938 5.55547 20.375 5.41172C20.0188 5.24922 19.3625 5.25547 19 5.42422C18.8438 5.49922 18.6313 5.65547 18.525 5.78047C18.1187 6.23672 18.125 6.17422 18.0938 9.24922C18.0625 11.9305 18.0562 12.0555 17.9438 12.143C17.7875 12.2555 17.5875 12.2555 17.4312 12.143C17.3188 12.0555 17.3125 11.918 17.2812 7.96797L17.2527 4.24186C17.2509 4.00865 17.1921 3.77943 17.0813 3.57422C16.8813 3.19297 16.7125 3.02422 16.3438 2.86172C15.975 2.69297 15.35 2.68672 15 2.84922C14.6813 2.99297 14.2625 3.46172 14.1687 3.78047C14.1125 3.95547 14.0938 5.13047 14.0938 7.97422V11.7076C14.0938 11.846 14.0373 11.9784 13.9375 12.0742C13.7375 12.2805 13.5125 12.2742 13.35 12.068C13.2188 11.8992 13.2188 11.868 13.2188 6.58047C13.2125 2.29922 13.2 1.21797 13.1313 1.02422C12.9125 0.417969 12.3938 0.0367184 11.7312 0.00546837C11.5 -0.00703239 11.2312 0.0117188 11.125 0.0492191ZM14.075 14.7367C14.8438 15.0242 14.9688 16.1305 14.2812 16.5805C13.9563 16.793 13.6562 16.8305 13.3125 16.6992C12.8188 16.5117 12.525 15.968 12.6562 15.4867C12.825 14.8492 13.4688 14.5055 14.075 14.7367ZM9.825 16.1305C10.275 16.618 9.94375 17.3555 9.28125 17.3555C8.65 17.3555 8.3 16.643 8.7 16.168C8.9125 15.9117 9.0625 15.8492 9.375 15.8867C9.5625 15.9055 9.675 15.968 9.825 16.1305ZM10.4625 19.668C11.3 20.093 11.1438 21.3367 10.2188 21.6117C9.75 21.7555 9.125 21.418 8.9625 20.9367C8.6625 20.0242 9.60625 19.2242 10.4625 19.668ZM14.625 19.768C15.225 20.0492 15.1938 20.818 14.575 21.1242C14.3 21.2617 14.0188 21.1992 13.7563 20.9367C13.4125 20.5992 13.525 19.9992 13.9688 19.7805C14.2375 19.643 14.3625 19.643 14.625 19.768ZM13.675 23.7055C14.1125 23.9305 14.2937 24.218 14.2937 24.6805C14.2937 25.4492 13.4688 25.9555 12.7875 25.6055C12.1562 25.2867 11.9938 24.518 12.4375 23.993C12.7438 23.6242 13.275 23.5055 13.675 23.7055ZM11.0312 27.3242C11.25 27.4367 11.4062 27.7117 11.4062 27.9805C11.4062 28.743 10.4 29.0117 10.0063 28.3555C9.625 27.7055 10.3562 26.9742 11.0312 27.3242ZM15.6938 28.7555C15.8688 28.9305 15.9062 29.018 15.9062 29.2305C15.9062 29.893 15.15 30.218 14.7 29.743C14.475 29.5117 14.4313 29.2367 14.5625 28.9555C14.6938 28.6805 14.9125 28.5492 15.2438 28.543C15.4313 28.543 15.525 28.5867 15.6938 28.7555Z" fill="white"/>
<path d="M21.4748 12.0714C21.2748 12.1839 21.2311 12.3089 21.2248 12.7714L21.2186 13.1464L20.8686 13.2964C20.6436 13.3839 20.3811 13.5714 20.1436 13.8026L19.7748 14.1651L19.5748 13.9339C19.1686 13.4589 19.1123 13.4214 18.8561 13.4214C18.5561 13.4214 18.3811 13.5901 18.3811 13.8839C18.3811 14.0526 18.4686 14.1964 18.8311 14.6214L19.2748 15.1464L19.1561 15.5339C19.0873 15.7464 19.0186 16.1026 18.9936 16.3276L18.9498 16.7339H18.2748C17.9061 16.7339 17.5311 16.7651 17.4436 16.8026C17.2498 16.8901 17.1373 17.1839 17.2186 17.3839C17.3248 17.6776 17.4998 17.7339 18.2561 17.7339H18.9498L18.9936 18.1401C19.0186 18.3651 19.0873 18.7214 19.1561 18.9339L19.2748 19.3214L18.8311 19.8464C18.4686 20.2714 18.3811 20.4151 18.3811 20.5839C18.3811 20.8776 18.5561 21.0464 18.8561 21.0464C19.1123 21.0464 19.1936 20.9839 19.5686 20.5276L19.7623 20.2901L20.1373 20.6589C20.3811 20.8964 20.6436 21.0776 20.8686 21.1714L21.2186 21.3214V21.6776C21.2186 22.2964 21.4498 22.5589 21.8748 22.4214C22.1248 22.3401 22.2186 22.1401 22.2186 21.6776V21.3214L22.5686 21.1714C22.7936 21.0839 23.0561 20.8964 23.2936 20.6651L23.6623 20.3026L23.8623 20.5339C24.2686 21.0089 24.3248 21.0464 24.5811 21.0464C24.8811 21.0464 25.0561 20.8776 25.0561 20.5839C25.0561 20.4151 24.9686 20.2714 24.6061 19.8464L24.1623 19.3151L24.2811 18.9151C24.3498 18.6964 24.4248 18.3401 24.4436 18.1214L24.4873 17.7339H25.1873C25.7998 17.7339 25.9123 17.7151 26.0561 17.6026C26.2873 17.4214 26.2873 17.0464 26.0561 16.8651C25.9123 16.7526 25.7998 16.7339 25.1873 16.7339H24.4873L24.4436 16.3401C24.4248 16.1276 24.3498 15.7714 24.2811 15.5526L24.1623 15.1526L24.6061 14.6214C24.9686 14.1964 25.0561 14.0526 25.0561 13.8839C25.0561 13.5901 24.8811 13.4214 24.5811 13.4214C24.3248 13.4214 24.2686 13.4589 23.8623 13.9339L23.6623 14.1651L23.2936 13.8026C23.0561 13.5714 22.7936 13.3839 22.5686 13.2964L22.2186 13.1464V12.7901C22.2186 12.3589 22.1373 12.1464 21.9248 12.0526C21.7311 11.9651 21.6623 11.9714 21.4748 12.0714Z" fill="white"/>
</svg>
