<svg width="48" height="48" viewBox="0 0 48 48" fill="none" xmlns="http://www.w3.org/2000/svg">
<g clip-path="url(#clip0_9045_6922)">
<path d="M47.9984 22.8001C47.9264 19.1281 47.1844 14.1361 42.0204 8.03009C41.9424 7.94809 40.1104 5.99609 37.6604 5.99609C34.1004 5.99609 32.7304 7.37209 32.2084 8.52409C31.9664 9.05809 31.9664 9.61009 32.2084 10.0821C32.7804 11.0481 33.5924 11.1221 34.0184 11.2341C34.1844 12.1021 34.8024 13.0561 36.2204 13.5221C37.1004 13.8141 37.7104 13.9901 38.1204 14.1001C38.1424 14.6001 38.0964 15.3141 38.0524 16.0121C37.9504 17.6321 37.8244 19.5901 38.1804 21.5921C37.4984 21.2981 36.7644 21.1441 36.0084 21.0541V19.3181C36.0084 17.1601 34.6304 15.2521 32.5824 14.5721L25.5824 12.2521C24.5664 11.9161 23.4484 11.9161 22.4344 12.2521L15.4344 14.5721C13.3844 15.2521 12.0084 17.1601 12.0084 19.3181V21.0541C11.2504 21.1441 10.5144 21.3001 9.8304 21.5941C10.1864 19.5921 10.0624 17.6321 9.9584 16.0141C9.9144 15.3161 9.8684 14.6021 9.8904 14.1021C10.3004 13.9921 10.9084 13.8141 11.7904 13.5241C13.2104 13.0601 13.8284 12.1041 13.9924 11.2361C14.4124 11.1261 15.2384 11.0441 15.8024 10.0841C16.0444 9.61209 16.0424 9.05809 15.8024 8.52609C15.2804 7.37409 13.9104 5.99809 10.3504 5.99809C7.89841 5.99809 6.0664 7.95009 5.9604 8.06409C0.816404 14.1341 0.0744041 19.1281 0.000404064 22.8001C-0.0415959 24.9101 0.876404 26.8941 2.5164 28.2441C4.5704 29.9381 8.0364 31.9501 12.8984 31.9801C15.0024 37.2601 20.2344 40.4801 22.0924 41.4821C22.7364 41.8301 23.4364 42.0061 24.1404 42.0061C24.7484 42.0061 25.3604 41.8761 25.9364 41.6121C31.0324 39.3081 34.1884 36.0681 35.4084 31.9661C40.1024 31.8521 43.4704 29.9041 45.4784 28.2461C47.1184 26.8941 48.0364 24.9101 47.9944 22.8021L47.9984 22.8001ZM3.7904 26.7001C2.6244 25.7381 1.9724 24.3321 2.0024 22.8381C2.0684 19.4961 2.7524 14.9421 7.4504 9.38809C7.4624 9.37209 8.7804 7.99609 10.3424 7.99609C11.4144 7.99609 13.2464 8.15409 13.8904 9.20009C13.8624 9.22409 12.8464 9.42809 12.7884 9.44409C12.2564 9.55809 11.9204 10.1081 12.0204 10.6421C12.0664 10.8881 12.0164 11.3421 11.1584 11.6241C9.4244 12.1921 8.8764 12.2861 8.8644 12.2881C8.4884 12.3401 8.1744 12.6021 8.0544 12.9621C7.8004 13.7241 7.8684 14.7901 7.9544 16.1401C8.0664 17.8761 8.2044 20.0381 7.6744 22.0621C7.5104 22.6821 7.7344 23.3281 8.2444 23.7061C8.7364 24.0741 9.3964 24.1061 9.9204 23.7861C10.5524 23.4061 11.2604 23.2041 12.0004 23.0841V27.6601C12.0184 28.4581 12.1284 29.2141 12.2864 29.9461C8.3444 29.7601 5.5004 28.1121 3.7884 26.6981L3.7904 26.7001ZM25.1144 39.7901C24.4424 40.0921 23.6884 40.0721 23.0444 39.7221C20.9604 38.5981 14.1524 34.4061 14.0044 27.6421V19.3201C14.0044 18.0241 14.8304 16.8801 16.0604 16.4721L23.0624 14.1521C23.6684 13.9481 24.3404 13.9481 24.9504 14.1521L31.9504 16.4721C33.1804 16.8801 34.0064 18.0241 34.0064 19.3201V28.2061C33.9044 33.2701 30.9144 37.1681 25.1144 39.7901ZM35.8484 29.9401C35.9244 29.3781 35.9944 28.8121 36.0064 28.2221V23.0861C36.7424 23.2061 37.4484 23.4061 38.0764 23.7841C38.6044 24.1021 39.2624 24.0741 39.7544 23.7081C40.2624 23.3301 40.4864 22.6821 40.3264 22.0621C39.7964 20.0381 39.9344 17.8761 40.0444 16.1401C40.1304 14.7901 40.1984 13.7241 39.9444 12.9621C39.8264 12.6101 39.5144 12.3501 39.1484 12.2901C39.1264 12.2861 38.5764 12.1921 36.8424 11.6241C35.9864 11.3401 35.9364 10.8881 35.9764 10.6661C36.0424 10.4021 35.9984 10.1241 35.8544 9.89209C35.7104 9.66209 35.4784 9.50009 35.2144 9.44209C35.1524 9.42809 34.1304 9.22009 34.1084 9.19609C34.7344 8.15409 36.5824 7.99409 37.6604 7.99409C39.2144 7.99409 40.5204 9.35409 40.5224 9.35409C45.2524 14.9441 45.9344 19.4981 45.9984 22.8381C46.0284 24.3321 45.3764 25.7381 44.2104 26.7001C42.5184 28.0961 39.7204 29.7241 35.8484 29.9401ZM30.0044 25.9981C30.0044 26.5501 29.5564 26.9981 29.0044 26.9981H25.0044V30.9981C25.0044 31.5501 24.5564 31.9981 24.0044 31.9981C23.4524 31.9981 23.0044 31.5501 23.0044 30.9981V26.9981H19.0044C18.4524 26.9981 18.0044 26.5501 18.0044 25.9981C18.0044 25.4461 18.4524 24.9981 19.0044 24.9981H23.0044V20.9981C23.0044 20.4461 23.4524 19.9981 24.0044 19.9981C24.5564 19.9981 25.0044 20.4461 25.0044 20.9981V24.9981H29.0044C29.5564 24.9981 30.0044 25.4461 30.0044 25.9981Z" fill="white"/>
</g>
<defs>
<clipPath id="clip0_9045_6922">
<rect width="48" height="48" fill="white"/>
</clipPath>
</defs>
</svg>
