<svg width="40" height="40" viewBox="0 0 40 40" fill="none" xmlns="http://www.w3.org/2000/svg">
<path d="M18.4297 0.15625C16.1328 0.726562 14.3203 2.55469 13.7969 4.85938C13.7344 5.13281 13.4453 7.5625 13.1641 10.2734C12.8828 12.9766 12.5938 15.4922 12.5312 15.8594C12.2266 17.5703 11.5469 19.2656 10.5703 20.7812C9.98438 21.6797 9.69531 22.0156 8.24219 23.5156C6.67188 25.1328 6.05469 26.0469 5.57812 27.4531C5.00781 29.125 5.00781 31.3438 5.57812 33.0156C6.5625 35.9219 8.96094 38.0391 12.0312 38.7109C12.4453 38.7969 13.1953 38.8516 14.5703 38.8828L16.5234 38.9297L17.0312 39.2344C17.3125 39.3984 17.8203 39.6328 18.1641 39.7422C18.7344 39.9375 18.8906 39.9531 20 39.9531C21.1094 39.9531 21.2656 39.9375 21.8359 39.7422C22.1797 39.6328 22.7031 39.3906 23 39.2188L23.5312 38.9062H24.9531C26.5781 38.9062 27.5703 38.8125 28.4297 38.5938C31.6094 37.7812 34.1094 35.1094 34.7266 31.8516C34.875 31.0469 34.875 29.4219 34.7266 28.6172C34.3594 26.6875 33.6484 25.4609 31.7578 23.5156C31.0703 22.8047 30.3594 22.0469 30.1875 21.8359C29.1406 20.5469 28.2422 18.7969 27.7422 17.0703C27.4844 16.1797 27.3594 15.2891 27.0312 12.1094C26.8594 10.4531 26.6797 9 26.625 8.88281C26.5234 8.625 26.2031 8.4375 25.8516 8.4375C25.5547 8.4375 25.0781 8.875 25.0781 9.15625C25.0781 9.67969 25.8047 16.0078 25.9375 16.6406C26.375 18.7031 27.3047 20.7578 28.6016 22.5078C28.875 22.8672 29.6719 23.7578 30.3906 24.4922C31.8047 25.9453 32.3594 26.6953 32.7344 27.6797C33.125 28.6797 33.2266 29.3438 33.1797 30.5469C33.1406 31.6719 32.9531 32.4531 32.5156 33.3203C31.5938 35.1562 29.8516 36.5547 27.875 37.0312C27.2578 37.1875 25.0781 37.3516 25.0781 37.2422C25.0781 37.2188 25.1484 37.0781 25.2266 36.9375C25.3125 36.7969 25.5078 36.3438 25.6641 35.9375C26.0234 35 26.2344 34.6328 26.6484 34.2656C27.1641 33.7891 27.7422 33.5703 28.5156 33.5312C28.8828 33.5156 29.2812 33.4688 29.3984 33.4219C29.6562 33.3203 29.8438 33 29.8438 32.6562C29.8438 32.0938 29.5 31.875 28.6172 31.875C27.4531 31.875 26.3438 32.2969 25.5234 33.0469C24.9531 33.5703 24.5938 34.125 24.25 35.0156C23.8359 36.0859 23.6484 36.4219 23.1484 36.9609C22.2812 37.8984 21.25 38.3594 20.0234 38.3594C18.7891 38.3594 17.7578 37.9141 16.9141 37.0234C16.375 36.4453 16.1719 36.1094 15.7812 35.0938C15.4219 34.1484 15.1875 33.7734 14.6094 33.1953C13.7578 32.3281 12.6484 31.875 11.3828 31.875C10.5 31.875 10.1562 32.0938 10.1562 32.6562C10.1562 33 10.3438 33.3203 10.6016 33.4219C10.7188 33.4688 11.1172 33.5156 11.4844 33.5312C12.2578 33.5703 12.8359 33.7891 13.3516 34.2656C13.7656 34.6328 13.9766 35 14.3359 35.9375C14.4922 36.3438 14.6875 36.7969 14.7734 36.9375C14.8516 37.0781 14.9219 37.2188 14.9219 37.2422C14.9219 37.3516 12.7422 37.1875 12.125 37.0312C10.1484 36.5547 8.40625 35.1562 7.48438 33.3203C7.04688 32.4531 6.85938 31.6719 6.82031 30.5469C6.77344 29.3438 6.875 28.6797 7.26562 27.6797C7.64062 26.6875 8.1875 25.9531 9.67969 24.4141C11.8516 22.1719 12.8516 20.6016 13.6641 18.1094C14.0859 16.8359 14.2031 16.0156 14.7656 10.7031C15.0703 7.84375 15.375 5.3125 15.4375 5.07812C15.6484 4.32812 16.0938 3.59375 16.6797 3.00781C17.6016 2.08594 18.6875 1.63281 20 1.63281C21.2266 1.63281 22.2578 2.03906 23.2656 2.92188C23.6875 3.29688 23.8047 3.35938 24.0703 3.35938C24.4688 3.35938 24.7344 3.17969 24.8438 2.84375C24.9688 2.47656 24.8984 2.25 24.5547 1.86719C23.9062 1.15625 22.6562 0.445312 21.5312 0.15625C20.7109 -0.0546875 19.2812 -0.0546875 18.4297 0.15625Z" fill="#0F172A"/>
<path d="M25.1094 5.07031C24.8281 5.24219 24.6562 5.65625 24.7344 5.96875C24.8125 6.28906 25.1953 6.5625 25.5625 6.5625C26.4375 6.5625 26.6406 5.3125 25.8047 4.99219C25.5234 4.89062 25.3828 4.90625 25.1094 5.07031Z" fill="#0F172A"/>
<path d="M3.71875 8.01482C3.55469 8.17888 3.51562 8.29607 3.51562 8.59295C3.51562 9.16326 3.66406 9.25701 5.38281 9.82732L6.86719 10.3195L6.21094 11.6476C5.82031 12.4211 5.54688 13.0617 5.54688 13.2023C5.54688 13.6945 5.79688 13.8351 8.05469 14.5773C10.0234 15.2258 10.1484 15.257 10.3906 15.1554C10.6562 15.0461 10.9375 14.6711 10.9375 14.4289C10.9375 14.3429 10.8828 14.1633 10.8125 14.0226C10.6641 13.7101 10.4375 13.6086 8.77344 13.0773C8.11719 12.8664 7.57812 12.6711 7.57812 12.632C7.57812 12.6008 7.85938 12.0148 8.20312 11.3273C9.21094 9.31951 9.22656 9.35076 6.48438 8.44451C4.35156 7.74138 4.04688 7.69451 3.71875 8.01482Z" fill="#0F172A"/>
<path d="M33.4453 8.46875C30.7734 9.36719 30.7969 9.32812 31.7969 11.3281C32.1406 12.0156 32.4219 12.6016 32.4219 12.6406C32.4219 12.6719 31.75 12.9219 30.9375 13.1953C29.375 13.7109 29.1797 13.8203 29.0937 14.2656C29.0156 14.6953 29.4375 15.2344 29.8672 15.2344C29.9297 15.2344 30.8906 14.9375 32 14.5703C34.2031 13.8438 34.4531 13.7031 34.4531 13.2031C34.4531 13.0625 34.1797 12.4219 33.7891 11.6484L33.1328 10.3203L34.6172 9.82812C36.3359 9.25781 36.4844 9.16406 36.4844 8.59375C36.4844 8.29688 36.4453 8.17969 36.2812 8.01562C35.9453 7.6875 35.6016 7.74219 33.4453 8.46875Z" fill="#0F172A"/>
<path d="M2.28906 15.6492C0.101562 16.118 0 16.1727 0 16.7977C0 17.2196 0.234375 17.5321 0.601562 17.6024C0.710938 17.6258 1.46875 17.5008 2.28906 17.3367C3.10156 17.1727 3.79688 17.0321 3.82031 17.0321C3.85156 17.0321 3.91406 17.7039 3.96094 18.5164C4.05469 20.1414 4.09375 20.2899 4.53125 20.4696C4.75781 20.5633 4.99219 20.5321 6.9375 20.1336C9.28125 19.6492 9.40625 19.6024 9.5 19.0867C9.59375 18.5867 9.24219 18.1258 8.77344 18.1258C8.65625 18.1258 7.91406 18.2508 7.125 18.4071C6.34375 18.5711 5.67969 18.6805 5.65625 18.6571C5.63281 18.6336 5.57812 18.0164 5.53906 17.2977C5.44531 15.7196 5.4375 15.6649 5.19531 15.4227C4.92188 15.1492 4.5 15.1805 2.28906 15.6492Z" fill="#0F172A"/>
<path d="M34.8047 15.4217C34.5625 15.6639 34.5547 15.7186 34.4609 17.2967C34.4219 18.0154 34.3672 18.6326 34.3437 18.6561C34.3203 18.6795 33.6562 18.5701 32.875 18.4061C32.0859 18.2498 31.3437 18.1248 31.2266 18.1248C30.7578 18.1248 30.4062 18.5858 30.5 19.0858C30.5937 19.5936 30.7187 19.6483 33.0625 20.1248C36.0234 20.7342 35.9062 20.7967 36.0391 18.5076C36.0859 17.6951 36.1484 17.0311 36.1797 17.0311C36.2031 17.0311 36.8984 17.1717 37.7109 17.3358C38.5312 17.4998 39.2891 17.6248 39.3984 17.6014C39.9922 17.4842 40.2266 16.6483 39.7891 16.2342C39.6016 16.0623 39.3047 15.9764 37.6328 15.6326C35.3984 15.1717 35.0781 15.1483 34.8047 15.4217Z" fill="#0F172A"/>
<path d="M16.3594 17.0318C16.0703 17.149 15.3984 17.9849 15.0781 18.6256C14.6719 19.4537 14.5312 20.0865 14.5312 21.0943C14.5312 21.5553 14.5859 22.1412 14.6484 22.4224C14.8281 23.1724 15.3359 24.1412 15.8438 24.6881C16.2188 25.0943 16.3359 25.1724 16.6172 25.2115C16.9219 25.2506 16.9766 25.2271 17.2266 24.9771C17.6562 24.5474 17.6172 24.2349 17 23.4849C16.8203 23.2662 16.5703 22.8599 16.4453 22.5787C16.2266 22.1021 16.2109 22.0162 16.2109 21.0943C16.2109 20.1724 16.2266 20.0865 16.4453 19.6099C16.5703 19.3287 16.8203 18.9224 17 18.7037C17.6094 17.9537 17.6562 17.6412 17.2344 17.2193C16.9609 16.9459 16.7031 16.8912 16.3594 17.0318Z" fill="#0F172A"/>
<path d="M22.7734 17.2115C22.3437 17.6412 22.3828 17.9537 23 18.7037C23.1797 18.9224 23.4297 19.3287 23.5547 19.6099C23.7734 20.0865 23.7891 20.1724 23.7891 21.0943C23.7891 22.0162 23.7734 22.1021 23.5547 22.5787C23.4297 22.8599 23.1797 23.2662 23 23.4849C22.3828 24.2349 22.3437 24.5474 22.7734 24.9771C23.0234 25.2271 23.0781 25.2506 23.3828 25.2115C23.6641 25.1724 23.7812 25.0943 24.1562 24.6881C24.6641 24.1412 25.1719 23.1724 25.3516 22.4224C25.4141 22.1412 25.4687 21.5553 25.4687 21.0943C25.4687 20.6334 25.4141 20.0474 25.3516 19.7662C25.1719 19.0162 24.6641 18.0474 24.1562 17.5006C23.7812 17.0943 23.6641 17.0162 23.3828 16.9771C23.0781 16.9381 23.0234 16.9615 22.7734 17.2115Z" fill="#0F172A"/>
<path d="M18.9219 18.9922C18.0781 19.4062 17.6562 20.1172 17.6562 21.0938C17.6562 22.0703 18.0781 22.7812 18.9219 23.1953C19.3281 23.4062 19.4844 23.4375 20 23.4375C20.5156 23.4375 20.6719 23.4062 21.0781 23.1953C21.9219 22.7812 22.3438 22.0781 22.3438 21.0859C22.3438 19.7031 21.3828 18.75 19.9922 18.75C19.4844 18.75 19.3281 18.7812 18.9219 18.9922ZM20.5078 20.5859C20.9609 21.0312 20.625 21.7969 19.9844 21.7969C19.5625 21.7969 19.2969 21.5234 19.2969 21.0938C19.2969 20.8594 19.3438 20.7266 19.4922 20.5859C19.6328 20.4375 19.7656 20.3906 20 20.3906C20.2344 20.3906 20.3672 20.4375 20.5078 20.5859Z" fill="#0F172A"/>
</svg>
