<svg width="32" height="32" viewBox="0 0 32 32" fill="none" xmlns="http://www.w3.org/2000/svg">
<path d="M14.8748 4.72524C14.7873 4.73774 14.5061 4.78149 14.2498 4.81899C12.7748 5.02524 11.1123 5.66899 9.78105 6.54399C8.5873 7.33149 7.7373 8.15649 6.7248 9.50024C6.4498 9.86274 5.83105 10.5502 5.3498 11.0377C4.14355 12.2377 3.6373 13.0815 3.2373 14.544C3.0498 15.2502 3.0498 16.7502 3.2373 17.4565C3.6373 18.9127 4.14355 19.7565 5.3498 20.9627C5.83105 21.4502 6.4498 22.1377 6.71855 22.5002C7.44355 23.4565 7.98105 24.044 8.6373 24.6002C10.6748 26.3127 12.9873 27.2065 15.5998 27.294C17.9873 27.3752 19.8061 27.019 21.8811 26.0565C23.0123 25.5315 23.4623 25.4252 24.4686 25.419C25.6873 25.4127 26.3311 25.6065 27.5248 26.3315C28.2748 26.7815 28.5436 26.8315 28.7873 26.544C28.9498 26.3502 28.9748 26.1127 28.8561 25.8815C28.7561 25.6877 27.5998 24.9877 26.9811 24.7502C25.5998 24.2127 24.1561 24.1252 22.7186 24.5002C22.4498 24.5752 21.8686 24.794 21.4373 24.994C20.1373 25.6002 19.4061 25.8252 18.0936 26.0377C17.1561 26.194 15.1373 26.2002 14.3436 26.0502C11.6623 25.544 9.5498 24.244 7.8248 22.0315C7.53105 21.6502 7.1998 21.2315 7.08105 21.1002C6.96855 20.9627 6.8748 20.819 6.8748 20.7752C6.8748 20.6377 6.3623 18.8502 6.2748 18.6815C6.1748 18.4877 6.0748 18.4377 5.75605 18.4377C5.46855 18.4377 5.2498 18.644 5.2498 18.9127C5.24355 19.0877 5.24355 19.0877 5.1498 18.969C4.9498 18.7065 4.55605 17.8565 4.3998 17.3315C4.25605 16.8627 4.23105 16.669 4.23105 16.0002C4.23105 15.3315 4.25605 15.1377 4.3998 14.669C4.5623 14.1252 4.93105 13.3315 5.1873 12.969C5.3123 12.8002 5.31855 12.794 5.2748 12.9377C5.2498 13.019 5.23105 13.2002 5.23105 13.3377C5.23105 13.8127 5.79355 14.0502 6.1498 13.7315C6.28105 13.619 6.3498 13.4065 6.58105 12.4002C6.7498 11.669 6.8998 11.1377 6.9748 11.044C8.33105 9.28149 8.9248 8.63774 9.78105 7.96899C10.6373 7.30649 11.4498 6.85024 12.4561 6.47524C15.0936 5.48774 17.8748 5.61899 20.4373 6.85024C21.0123 7.12524 21.1936 7.18774 21.3561 7.15649C21.7186 7.08774 21.9248 6.64399 21.7498 6.30649C21.6748 6.16899 20.7686 5.70024 19.9998 5.40024C19.4186 5.18149 18.6873 4.98149 17.9061 4.83149C17.4311 4.74399 15.2248 4.66274 14.8748 4.72524Z" fill="white"/>
<path d="M15.0375 6.87505C13.3938 7.06255 12.0438 7.70005 10.9375 8.8063C9.9625 9.78755 9.28125 10.9876 8.90625 12.3813L8.8 12.8001L8.4 12.7626C7.675 12.7063 7.125 13.1001 6.7125 13.9688C6.425 14.5626 6.3125 15.1376 6.3125 16.0001C6.3125 16.8438 6.425 17.4251 6.6875 17.9938C6.95625 18.5626 7.25 18.9001 7.65625 19.1001C7.95625 19.2438 8.05625 19.2626 8.4 19.2376L8.8 19.2001L8.90625 19.6188C9.28125 21.0126 9.9625 22.2126 10.9375 23.1938C12.0875 24.3438 13.4 24.9438 15.1875 25.1313C17.0437 25.3251 19.2312 24.8063 20.8438 23.7938C21.25 23.5438 22.1125 22.8751 22.3063 22.6626L22.4563 22.5001H23.7375H25.0125L26.5875 23.3438C28.2563 24.2376 28.4625 24.3063 28.75 24.0751C28.8313 24.0126 28.8938 23.8688 28.9188 23.7126C28.9438 23.5063 28.925 23.4313 28.8062 23.3001C28.725 23.2063 27.9125 22.7376 27.0063 22.2563L25.3563 21.3751H24.3938H23.4312L23.675 21.0126C23.9688 20.5876 24.425 19.6813 24.625 19.1313L24.7688 18.7313L24.9563 19.1001C25.0562 19.3063 25.1875 19.5188 25.2375 19.5813C25.2938 19.6501 25.975 20.1376 26.75 20.6751C28.0125 21.5563 28.1812 21.6501 28.4 21.6438C28.8375 21.6376 29.1 21.1251 28.85 20.7813C28.8 20.7126 28.175 20.2501 27.4563 19.7563L26.15 18.8501L25.6562 17.8876L25.1688 16.9251L25.1562 15.9438C25.1313 14.4688 24.8813 13.3313 24.3062 12.1251C23.9312 11.3438 23.725 11.0063 23.2125 10.3438C21.8438 8.57505 19.8125 7.3563 17.5625 6.96255C16.8875 6.8438 15.675 6.8063 15.0375 6.87505ZM17.3813 8.0938C19.3313 8.4188 21.1625 9.5438 22.4062 11.1938C23.475 12.6126 24.0125 14.2251 24.0063 16.0001C24.0063 18.1876 23.2125 20.1001 21.6562 21.6563C20.0938 23.2188 18.1625 24.0188 15.9688 24.0126C13.5062 24.0063 11.625 22.8688 10.55 20.7188C10.3063 20.2438 10 19.3626 9.875 18.8063L9.8 18.4563L10.0187 18.1188C10.1437 17.9313 10.325 17.5813 10.4188 17.3438C10.5813 16.9376 10.5938 16.8438 10.5938 16.0001C10.5938 15.1563 10.5813 15.0626 10.4188 14.6563C10.325 14.4126 10.15 14.0688 10.0312 13.8938C9.9125 13.7126 9.8125 13.5251 9.8125 13.4813C9.8125 13.4376 9.9 13.0876 10.0063 12.7126C10.4688 11.0626 11.35 9.75005 12.5375 8.96255C13.8812 8.0688 15.475 7.7813 17.3813 8.0938ZM8.49375 13.9626C8.75625 14.1001 9.05625 14.4751 9.275 14.9376C9.45625 15.3126 9.46875 15.3938 9.46875 16.0001C9.46875 16.6063 9.45625 16.6876 9.275 17.0688C9.05 17.5438 8.70625 17.9501 8.4375 18.0626C8.1875 18.1688 8.01875 18.0563 7.79375 17.6376C7.2375 16.6126 7.3625 14.6938 8.03125 14.0251C8.20625 13.8501 8.25625 13.8438 8.49375 13.9626Z" fill="white"/>
<path d="M15.8186 9.20625C15.5936 9.3125 14.8561 10.8375 14.8998 11.0938C14.9436 11.325 15.2061 11.5625 15.4123 11.5625C15.5561 11.5625 15.5623 11.575 15.5623 12.0625C15.5623 12.5187 15.5811 12.5812 15.7186 12.7188C15.8311 12.8375 15.9373 12.875 16.1248 12.875C16.3123 12.875 16.4186 12.8375 16.5311 12.7188C16.6686 12.5812 16.6873 12.5187 16.6873 12.0625C16.6873 11.5688 16.6873 11.5625 16.8498 11.5625C17.0623 11.5625 17.3748 11.25 17.3748 11.0375C17.3748 10.9438 17.1936 10.5125 16.9748 10.075C16.6748 9.48125 16.5311 9.25625 16.4061 9.2C16.2061 9.10625 16.0186 9.1125 15.8186 9.20625Z" fill="white"/>
<path d="M19.7813 11.1877C19.3688 11.3252 18.9688 11.469 18.9 11.5065C18.6438 11.644 18.5563 12.0252 18.7125 12.3127C18.7938 12.4565 18.7875 12.4815 18.525 12.7627C18.175 13.1377 18.1 13.3252 18.1938 13.6065C18.2438 13.7627 18.325 13.8502 18.475 13.9127C18.775 14.0377 18.975 13.969 19.3563 13.6065C19.6688 13.3127 19.6875 13.3065 19.825 13.4002C20 13.5252 20.3063 13.5315 20.4813 13.4065C20.575 13.3377 20.7063 13.0377 20.9125 12.4127C21.1875 11.5877 21.2063 11.5002 21.125 11.319C21.05 11.1315 20.7875 10.9377 20.6125 10.9377C20.5688 10.9377 20.1938 11.0502 19.7813 11.1877Z" fill="white"/>
<path d="M20.9 14.8126C20.725 14.8813 20.5625 15.1126 20.5625 15.2938C20.5625 15.4313 20.5438 15.4376 20.0625 15.4376C19.6063 15.4376 19.5438 15.4563 19.4062 15.5938C19.2875 15.7063 19.25 15.8126 19.25 16.0001C19.25 16.1876 19.2875 16.2938 19.4062 16.4063C19.5438 16.5438 19.6063 16.5626 20.0625 16.5626C20.55 16.5626 20.5625 16.5688 20.5625 16.7126C20.5625 16.9188 20.8 17.1813 21.0312 17.2251C21.1812 17.2501 21.3937 17.1751 22.0438 16.8501C22.4938 16.6251 22.8937 16.3876 22.9313 16.3188C22.9688 16.2501 23 16.1063 23 16.0001C23 15.8938 22.9688 15.7501 22.9313 15.6813C22.8625 15.5501 21.3063 14.7501 21.1313 14.7563C21.075 14.7563 20.9688 14.7813 20.9 14.8126Z" fill="white"/>
<path d="M18.4623 18.0879C18.3248 18.1504 18.2436 18.2441 18.1936 18.3941C18.0998 18.6754 18.1748 18.8629 18.5373 19.2504C18.8123 19.5441 18.8186 19.5629 18.7248 19.7004C18.5311 19.9754 18.6436 20.3754 18.9623 20.5191C19.0686 20.5691 19.4748 20.7129 19.8686 20.8379C20.4936 21.0379 20.5998 21.0566 20.7936 20.9941C20.9436 20.9504 21.0373 20.8566 21.1123 20.7129C21.2123 20.5004 21.2061 20.4816 20.9123 19.5941C20.7061 18.9629 20.5748 18.6629 20.4811 18.5941C20.3061 18.4691 19.9998 18.4754 19.8186 18.6004C19.6811 18.7004 19.6686 18.6941 19.3873 18.4191C19.1311 18.1691 18.8436 17.9941 18.6998 18.0004C18.6748 18.0066 18.5686 18.0441 18.4623 18.0879Z" fill="white"/>
<path d="M15.7187 19.2816C15.5812 19.4191 15.5624 19.4816 15.5624 19.9379C15.5624 20.4254 15.5562 20.4379 15.4124 20.4379C15.2062 20.4379 14.9437 20.6754 14.8999 20.9066C14.8749 21.0566 14.9499 21.2691 15.2749 21.9191C15.4999 22.3691 15.7374 22.7691 15.8062 22.8066C15.9624 22.8941 16.2874 22.8941 16.4437 22.8129C16.5937 22.7316 17.3749 21.1879 17.3749 20.9629C17.3749 20.7504 17.0624 20.4379 16.8499 20.4379C16.6874 20.4379 16.6874 20.4316 16.6874 19.9379C16.6874 19.4816 16.6687 19.4191 16.5312 19.2816C16.4187 19.1629 16.3124 19.1254 16.1249 19.1254C15.9374 19.1254 15.8312 19.1629 15.7187 19.2816Z" fill="white"/>
<path d="M22.5937 7.46894C22.3187 7.73769 22.4062 8.19394 22.7687 8.34394C23.3312 8.58144 23.8062 7.95644 23.4312 7.47519C23.25 7.25019 22.8125 7.24394 22.5937 7.46894Z" fill="white"/>
<path d="M24.2746 8.875C24.1996 8.90625 24.0934 8.99375 24.0371 9.075C23.8496 9.3375 23.9121 9.54375 24.3996 10.275C25.2434 11.525 25.7184 12.7 26.0309 14.25C26.1184 14.7125 26.2746 15.275 26.3684 15.5C26.8059 16.5437 27.8309 17.625 28.3746 17.625C28.6934 17.625 28.8746 17.4625 28.9184 17.1437C28.9496 16.8875 28.9496 16.8875 28.3559 16.3C27.6746 15.6313 27.3871 15.1375 27.2184 14.3187C26.8809 12.7062 26.6434 11.9812 26.1121 10.9062C25.7934 10.275 25.0934 9.1625 24.8871 8.98125C24.7434 8.85 24.4496 8.8 24.2746 8.875Z" fill="white"/>
</svg>
