<svg width="32" height="32" viewBox="0 0 32 32" fill="none" xmlns="http://www.w3.org/2000/svg">
<path d="M15.4248 3.33125C14.8623 3.54375 14.2061 4.09375 13.8998 4.61875C13.8186 4.7625 13.7311 4.80625 13.5123 4.8375C13.1061 4.89375 12.7186 5.1375 12.5248 5.46875C12.2498 5.9375 12.3123 6.60625 12.6686 7.00625C12.7311 7.08125 12.7436 7.18125 12.7186 7.325C12.6436 7.71875 12.6248 7.71875 11.9936 7.3875C9.31855 5.975 7.20605 6.0625 6.6248 7.60625C6.45605 8.05 6.4123 8.63125 6.49355 9.16875L6.5623 9.61875L6.3623 9.9C6.1123 10.2563 6.05605 10.7375 6.21855 11.1562C6.34355 11.5 6.7498 11.8562 7.05605 11.9125C7.18105 11.9312 7.33105 11.9625 7.39355 11.9812C7.50605 12.0125 7.7498 12.3438 7.7498 12.4688C7.7498 12.5063 7.53105 12.6 7.26855 12.6812C5.3998 13.225 3.9623 14.1562 3.51855 15.1C3.3498 15.4563 3.34355 15.5125 3.3248 16.6625C3.2998 17.8375 3.30605 17.8562 3.4498 18.0188C3.5623 18.1438 3.8748 18.2688 4.78105 18.5562L5.96855 18.9312L6.14355 19.45C6.24355 19.7375 6.4498 20.2375 6.60605 20.575L6.8873 21.175L6.31855 22.2687C5.93105 23.0125 5.7498 23.425 5.7498 23.5687C5.7498 23.7562 5.8748 23.9 7.01855 25.0438C8.2248 26.2562 8.29355 26.3125 8.5248 26.3125C8.70605 26.3125 9.03105 26.175 9.84355 25.75L10.9248 25.1875L11.5123 25.475C11.8373 25.6312 12.3373 25.8375 12.6248 25.9312L13.1373 26.1L13.5373 27.3188C13.8061 28.15 13.9748 28.5625 14.0686 28.6375C14.1873 28.7375 14.3811 28.75 15.9998 28.75C17.6186 28.75 17.8123 28.7375 17.9311 28.6437C18.0248 28.5625 18.1936 28.15 18.4623 27.3188L18.8623 26.1L19.3186 25.9562C19.5748 25.875 20.0748 25.6688 20.4311 25.4937L21.0811 25.1875L22.1623 25.75C22.9686 26.1688 23.3061 26.3125 23.4811 26.3125C23.6998 26.3125 23.7811 26.2437 24.9811 25.0438C26.1311 23.9 26.2498 23.7562 26.2498 23.5687C26.2498 23.425 26.0686 23.0125 25.6811 22.2625L25.1123 21.175L25.3936 20.5687C25.5498 20.2375 25.7561 19.7375 25.8561 19.45L26.0311 18.9312L27.2186 18.5562C28.1248 18.2688 28.4436 18.1375 28.5498 18.0188C28.6936 17.8562 28.6998 17.8375 28.6748 16.6625C28.6561 15.5125 28.6498 15.4563 28.4811 15.1C28.0373 14.1562 26.5998 13.225 24.7373 12.6812C24.4686 12.6 24.2498 12.5063 24.2498 12.4688C24.2498 12.3438 24.4936 12.0125 24.6061 11.9812C24.6686 11.9625 24.8186 11.9312 24.9436 11.9125C25.2498 11.8562 25.6561 11.5 25.7811 11.1562C25.9436 10.7375 25.8873 10.2563 25.6311 9.89375L25.4311 9.60625L25.5061 9.16875C25.6373 8.375 25.4623 7.53125 25.0623 7.05C24.9561 6.91875 24.6936 6.73125 24.4686 6.61875C23.4748 6.13125 21.8623 6.40625 20.0123 7.38125C19.6936 7.55 19.4248 7.6875 19.4061 7.6875C19.3936 7.6875 19.3373 7.525 19.2811 7.325C18.7436 5.4 17.8436 3.9625 16.8623 3.4625C16.4623 3.25625 15.7873 3.2 15.4248 3.33125ZM16.4123 4.3375C16.8311 4.53125 17.2248 4.99375 17.6186 5.75625C17.9248 6.33125 18.5061 7.93125 18.4998 8.175C18.4936 8.2375 18.2311 8.46875 17.8373 8.74375C17.4748 9 16.9123 9.43125 16.5873 9.7L15.9998 10.1875L15.4123 9.7C15.0873 9.43125 14.5248 9 14.1623 8.74375C13.7998 8.49375 13.5061 8.24375 13.4998 8.2C13.4998 8.15 13.5436 7.9625 13.5936 7.78125C13.6873 7.4625 13.7061 7.44375 13.9373 7.40625C14.7373 7.26875 15.1998 6.24375 14.7873 5.51875L14.6373 5.2625L14.9311 4.9C15.2123 4.55 15.7498 4.1875 15.9936 4.1875C16.0498 4.1875 16.2373 4.25625 16.4123 4.3375ZM9.3123 7.4C9.95605 7.5375 10.4748 7.73125 11.3436 8.1625C12.4686 8.71875 12.3936 8.63125 12.2811 9.2125C12.1623 9.81875 11.9998 11.1313 11.9998 11.4688C11.9998 11.6062 11.9748 11.7563 11.9498 11.7937C11.9186 11.8438 11.5436 11.9062 10.9936 11.9688C10.4998 12.0187 9.7998 12.1125 9.4498 12.175L8.80605 12.2937L8.5998 11.9438L8.39355 11.5938L8.53105 11.3438C8.9248 10.6375 8.68105 9.84375 7.95605 9.475C7.84355 9.41875 7.6998 9.375 7.6373 9.375C7.49355 9.375 7.4373 9.1625 7.4373 8.58125C7.4373 7.55625 8.09355 7.14375 9.3123 7.4ZM23.7623 7.375C24.0623 7.4625 24.3686 7.71875 24.4748 7.98125C24.5686 8.19375 24.5936 8.84375 24.5248 9.18125C24.4936 9.31875 24.4498 9.375 24.3623 9.375C23.9873 9.375 23.4686 9.84375 23.3373 10.2937C23.2248 10.675 23.2623 10.9812 23.4686 11.3438L23.6061 11.5938L23.3998 11.9438L23.1873 12.3L22.7998 12.2188C22.4498 12.1437 21.4936 12.0187 20.4248 11.9062C20.0061 11.8625 20.0436 11.9438 19.9373 10.8438C19.8998 10.4312 19.8186 9.7875 19.7498 9.4125C19.6436 8.76875 19.6436 8.71875 19.7373 8.65C19.9498 8.49375 21.4748 7.75625 21.8748 7.625C22.7311 7.3375 23.3311 7.25625 23.7623 7.375ZM14.1998 9.9875L14.8061 10.4625L14.2311 10.6562C13.9123 10.7625 13.5186 10.925 13.3498 11.025C13.1873 11.1187 13.0373 11.1812 13.0186 11.1625C12.9811 11.125 13.1623 9.65 13.2248 9.41875C13.2561 9.3125 13.2686 9.3125 13.4248 9.4125C13.5186 9.46875 13.8686 9.73125 14.1998 9.9875ZM18.9123 10.3C18.9686 10.7563 18.9998 11.1437 18.9811 11.1625C18.9623 11.1812 18.8123 11.1187 18.6498 11.025C18.4811 10.925 18.0873 10.7625 17.7748 10.6562L17.1936 10.4625L17.4248 10.2812C18.2936 9.5875 18.7123 9.30625 18.7561 9.3875C18.7811 9.43125 18.8498 9.84375 18.9123 10.3ZM16.7748 11.4062C18.5248 11.7125 19.9998 13.075 20.4373 14.7875C20.8811 16.5188 20.1936 18.5 18.7936 19.5437C17.0936 20.8063 14.9061 20.8063 13.2061 19.5437C11.8061 18.5 11.1186 16.5188 11.5623 14.7875C11.9936 13.1 13.4623 11.7188 15.1686 11.4125C15.8186 11.2937 16.1248 11.2937 16.7748 11.4062ZM11.0686 13.3562C10.9373 13.625 10.7748 14.0125 10.7123 14.2188C10.6498 14.425 10.5811 14.6187 10.5623 14.6438C10.5248 14.6875 10.1936 14.2937 9.64355 13.55C9.4998 13.3562 9.3998 13.1812 9.4248 13.1625C9.4498 13.15 9.81855 13.0938 10.2498 13.0312C10.6811 12.975 11.0748 12.9187 11.1248 12.9062C11.1748 12.9 11.2373 12.8875 11.2686 12.8812C11.2936 12.8812 11.2061 13.0938 11.0686 13.3562ZM21.7436 13.0312C22.1061 13.0813 22.4311 13.125 22.4811 13.125C22.5248 13.125 22.5623 13.1562 22.5623 13.2C22.5623 13.3187 21.4873 14.7 21.4436 14.6438C21.4186 14.6187 21.3498 14.425 21.2873 14.2188C21.2248 14.0125 21.0623 13.625 20.9311 13.3625L20.6873 12.8812L20.8936 12.9125C20.9998 12.925 21.3873 12.9812 21.7436 13.0312ZM8.7748 14.025C9.00605 14.35 9.46855 14.95 9.80605 15.3625C10.4061 16.0938 10.4248 16.1187 10.4686 16.5062C10.6936 18.4688 11.8498 20.0875 13.6311 20.9313C14.2561 21.2312 14.7123 21.3562 15.4498 21.4375C16.4561 21.5375 17.4623 21.3688 18.3686 20.9313C19.0311 20.6187 19.5561 20.2437 20.0061 19.775C20.8561 18.875 21.3436 17.8562 21.5061 16.65L21.5748 16.1125L22.1498 15.4125C22.4623 15.0312 22.8686 14.5062 23.0561 14.25C23.2436 13.9937 23.4623 13.6937 23.5436 13.5813L23.6873 13.3875L24.3936 13.5938C25.5186 13.9312 26.4186 14.3562 27.0248 14.8313C27.2623 15.0188 27.6248 15.4688 27.6248 15.575C27.6248 15.6 26.6436 15.625 25.4498 15.625C23.7248 15.625 23.2498 15.6438 23.1561 15.7063C23.0686 15.775 23.0248 15.9437 22.9686 16.475C22.7686 18.2188 22.1873 19.5188 21.0748 20.7C18.6498 23.2812 14.6811 23.6312 11.8436 21.5187C10.1936 20.2875 9.1998 18.475 9.0248 16.3812C8.95605 15.5687 9.1498 15.625 6.5623 15.625C5.3623 15.625 4.3748 15.6 4.3748 15.575C4.3748 15.5437 4.45605 15.4062 4.55605 15.2688C4.8623 14.8438 5.49355 14.4062 6.3123 14.0562C6.81855 13.8375 8.25605 13.375 8.31855 13.4125C8.34355 13.425 8.5498 13.7 8.7748 14.025Z" fill="white"/>
<path d="M15.1125 12.3516C14.1312 12.5891 13.1687 13.3578 12.725 14.2516C12.1812 15.3641 12.1875 16.4703 12.7437 17.6016C13.1562 18.4328 13.9937 19.1516 14.875 19.4266C15.35 19.5766 16.6437 19.5766 17.125 19.4266C17.9875 19.1578 18.85 18.4203 19.2562 17.6016C19.8125 16.4703 19.8187 15.3641 19.275 14.2516C18.825 13.3453 17.8625 12.5828 16.8625 12.3453C16.375 12.2328 15.5875 12.2328 15.1125 12.3516Z" fill="white"/>
</svg>
