<svg width="48" height="48" viewBox="0 0 48 48" fill="none" xmlns="http://www.w3.org/2000/svg">
<path d="M44.002 22.39C42.794 20.652 41.29 18.49 41.29 16.73C41.29 15.342 40.872 13.352 40.574 12.38C38.536 5.742 32.228 2.054 22.798 2C9.816 2.078 2.236 9.504 2 22.414C2.138 30.448 6.292 34.752 9.4 37.29C10.718 38.366 11.542 39.764 11.72 41.228C11.996 43.496 12.342 44.352 12.38 44.442C12.508 44.744 12.776 44.964 13.098 45.03C13.29 45.07 17.842 45.998 22.21 45.998C26.484 45.998 31.012 45.068 31.204 45.03C31.388 44.992 31.556 44.904 31.692 44.774C31.982 44.496 32.632 43.572 32.866 40.748C37.836 40.65 42.622 39.664 42.622 34.364V30.356C43.528 29.8 45.28 28.58 45.864 27.12C46.386 25.816 45.334 24.304 44.002 22.39ZM44.002 26.396C43.62 27.31 42.054 28.414 41.15 28.898C40.826 29.072 40.622 29.412 40.622 29.78V34.366C40.622 37.002 39.144 38.758 31.924 38.758C31.388 38.758 30.948 39.18 30.924 39.716C30.836 41.8 30.528 42.786 30.382 43.154C29.176 43.38 25.554 44 22.21 44C18.93 44 15.436 43.428 14.084 43.182C13.98 42.766 13.838 42.064 13.706 40.986C13.466 39.008 12.388 37.144 10.666 35.74C7.626 33.26 4.124 29.5 4 22.414C4.292 6.488 15.91 4.042 22.796 4C27.702 4.028 36.286 5.232 38.66 12.966C38.964 13.956 39.288 15.706 39.288 16.73C39.288 19.118 40.992 21.564 42.36 23.532C43.028 24.492 44.036 25.938 44.002 26.396Z" fill="white"/>
<path d="M29.2504 18.6999C31.5404 18.6999 33.4004 16.8379 33.4004 14.5499C33.4004 12.2619 31.5384 10.3999 29.2504 10.3999C26.9624 10.3999 25.1004 12.2619 25.1004 14.5499C25.1004 14.7559 25.1164 14.9599 25.1444 15.1579C24.4744 14.8999 23.7244 14.7299 22.9004 14.6519V11.4019C22.9004 10.8499 22.4524 10.4019 21.9004 10.4019C21.3484 10.4019 20.9004 10.8499 20.9004 11.4019V14.6519C20.0744 14.7299 19.3264 14.8999 18.6544 15.1579C18.6844 14.9599 18.6984 14.7579 18.6984 14.5519C18.6984 12.2639 16.8364 10.4019 14.5484 10.4019C12.2604 10.4019 10.4004 12.2639 10.4004 14.5519C10.4004 16.8399 12.2624 18.7019 14.5484 18.7019C14.7604 18.7019 14.9704 18.6859 15.1744 18.6539C14.9164 19.3259 14.7424 20.0759 14.6584 20.9019H11.4004C10.8484 20.9019 10.4004 21.3499 10.4004 21.9019C10.4004 22.4539 10.8484 22.9019 11.4004 22.9019H14.6564C14.7384 23.7299 14.9044 24.4779 15.1524 25.1459C14.9544 25.1179 14.7524 25.1019 14.5484 25.1019C12.2604 25.1019 10.4004 26.9639 10.4004 29.2519C10.4004 31.5399 12.2624 33.4019 14.5484 33.4019C16.8344 33.4019 18.6984 31.5399 18.6984 29.2519C18.6984 29.0539 18.6844 28.8579 18.6564 28.6659C19.3244 28.9159 20.0724 29.0779 20.9004 29.1519V32.3999C20.9004 32.9519 21.3484 33.3999 21.9004 33.3999C22.4524 33.3999 22.9004 32.9519 22.9004 32.3999V29.1519C23.7264 29.0779 24.4744 28.9159 25.1424 28.6659C25.1164 28.8559 25.1004 29.0519 25.1004 29.2499C25.1004 31.5379 26.9624 33.3999 29.2504 33.3999C31.5384 33.3999 33.4004 31.5379 33.4004 29.2499C33.4004 26.9619 31.5384 25.0999 29.2504 25.0999C29.0424 25.0999 28.8404 25.1159 28.6404 25.1459C28.8904 24.4779 29.0564 23.7299 29.1384 22.9019H32.4004C32.9524 22.9019 33.4004 22.4539 33.4004 21.9019C33.4004 21.3499 32.9524 20.9019 32.4004 20.9019H29.1404C29.0564 20.0759 28.8844 19.3259 28.6264 18.6539C28.8304 18.6839 29.0384 18.6999 29.2504 18.6999ZM29.2504 12.3999C30.4364 12.3999 31.4004 13.3639 31.4004 14.5499C31.4004 15.7359 30.4364 16.6999 29.2504 16.6999C28.0644 16.6999 27.1004 15.7359 27.1004 14.5499C27.1004 13.3639 28.0644 12.3999 29.2504 12.3999ZM21.9064 27.1999C18.3104 27.1799 16.6724 25.5439 16.6004 21.8999C16.6704 18.3059 18.3584 16.6219 21.8944 16.5999C25.4024 16.6239 27.1384 18.3619 27.1984 21.8839C27.1324 25.5399 25.4964 27.1779 21.9064 27.1999ZM12.4004 14.5499C12.4004 13.3639 13.3624 12.3999 14.5484 12.3999C15.7344 12.3999 16.6984 13.3639 16.6984 14.5499C16.6984 15.7359 15.7344 16.6999 14.5484 16.6999C13.3624 16.6999 12.4004 15.7359 12.4004 14.5499ZM14.5484 31.3999C13.3624 31.3999 12.4004 30.4359 12.4004 29.2499C12.4004 28.0639 13.3624 27.0999 14.5484 27.0999C15.7344 27.0999 16.6984 28.0639 16.6984 29.2499C16.6984 30.4359 15.7344 31.3999 14.5484 31.3999ZM31.4004 29.2499C31.4004 30.4359 30.4364 31.3999 29.2504 31.3999C28.0644 31.3999 27.1004 30.4359 27.1004 29.2499C27.1004 28.0639 28.0644 27.0999 29.2504 27.0999C30.4364 27.0999 31.4004 28.0639 31.4004 29.2499Z" fill="white"/>
</svg>
