<svg width="28" height="28" viewBox="0 0 28 28" fill="none" xmlns="http://www.w3.org/2000/svg">
<path d="M6.69922 1.22354C5.03672 1.50245 3.62031 2.20245 2.44453 3.33448C1.72266 4.02354 1.27969 4.63057 0.820312 5.54932C0.21875 6.75791 0 7.70401 0 9.07666C0 9.51416 0.0382813 10.1048 0.0820312 10.3892C0.557813 13.5501 2.84922 17.6134 6.42578 21.6548C7.73828 23.1314 9.78906 25.1056 10.7898 25.8493C12.3812 27.0306 14.7383 27.1673 16.4773 26.172C17.1828 25.7673 18.5664 24.5751 20.0648 23.0712C23.7398 19.3907 26.425 15.4532 27.4805 12.1884C27.8633 10.9962 28 10.2032 28 9.07666C28 7.7751 27.7867 6.7962 27.2563 5.69151C26.857 4.84932 26.4359 4.23682 25.8125 3.59151C24.675 2.39932 23.2695 1.62823 21.6016 1.27276C20.9508 1.13604 19.3156 1.13604 18.6266 1.27276C17.9047 1.42041 17.325 1.61729 16.6523 1.93995C15.8648 2.31729 15.1922 2.79854 14.5359 3.45479L14 3.98526L13.4641 3.45479C12.3484 2.34463 11.0469 1.6337 9.50469 1.30557C8.84297 1.16338 7.32812 1.11963 6.69922 1.22354ZM12.9062 9.55791C13.0156 9.64541 13.1797 9.86963 13.2836 10.0774C13.7156 10.9306 13.5078 12.3087 12.8953 12.686C12.2227 13.0962 11.5117 12.3142 11.3969 11.0454C11.282 9.81495 12.1461 8.96182 12.9062 9.55791ZM15.8758 9.42666C16.1109 9.5251 16.3188 9.76026 16.4664 10.0884C16.7234 10.6571 16.5812 11.729 16.1766 12.3306C15.657 13.0962 14.8531 12.8665 14.5687 11.8712C14.4375 11.4392 14.4867 10.5149 14.6508 10.1431C14.8531 9.68917 15.2359 9.35557 15.575 9.3501C15.6406 9.3501 15.7773 9.38292 15.8758 9.42666ZM10.2812 11.8876C10.7188 12.1774 11.0031 13.1181 10.8883 13.8837C10.8172 14.3431 10.7516 14.5181 10.5711 14.7532C10.2758 15.1415 9.93125 15.2345 9.57578 15.0321C9.1875 14.8079 8.90859 14.2829 8.81563 13.5884C8.63516 12.2485 9.42812 11.3243 10.2812 11.8876ZM18.4133 11.811C18.818 11.9915 19.0859 12.5603 19.0859 13.2274C19.0859 13.5774 18.9 14.2884 18.7305 14.5782C18.3531 15.2235 17.7078 15.322 17.3086 14.7915C16.7836 14.1079 16.8656 12.5384 17.4562 11.9915C17.7789 11.6907 18.0469 11.6415 18.4133 11.811ZM14.8477 14.1735C15.0609 14.2337 15.3891 14.3704 15.5805 14.4743C16.2859 14.8681 17.0625 15.7704 17.3086 16.4868C17.4344 16.8423 17.4781 17.586 17.3906 17.8485C17.3031 18.1165 17.0953 18.3517 16.8219 18.4939C16.4937 18.6689 15.9414 18.6579 15.1484 18.461C14.5797 18.3243 14.4539 18.3079 13.8359 18.3353C13.3328 18.3517 13.0102 18.4009 12.6055 18.5103C12.1844 18.6196 11.9875 18.647 11.7414 18.6251C10.8391 18.5376 10.4234 17.9907 10.5547 17.0665C10.7023 16.0056 11.4023 15.0485 12.4414 14.4634C13.2453 14.0149 13.9891 13.9274 14.8477 14.1735Z" fill="white"/>
</svg>
