<svg width="28" height="28" viewBox="0 0 28 28" fill="none" xmlns="http://www.w3.org/2000/svg">
<path d="M13.2674 3.18566C13.1471 3.35519 13.158 3.88566 13.2893 4.39972C13.6447 5.79972 14.7877 6.60909 16.1111 6.40128C16.5596 6.33019 17.1119 6.18253 17.1447 6.12238C17.1611 6.1005 17.0791 6.05128 16.9697 6.013C16.5979 5.89269 15.7885 5.488 15.34 5.19816C14.7385 4.80441 14.0713 4.11534 13.7815 3.59034C13.5135 3.10363 13.3932 3.00519 13.2674 3.18566Z" fill="white"/>
<path d="M7.61862 4.09033C7.44909 4.15595 7.56394 4.33095 7.96862 4.6372C8.20378 4.8122 8.64128 5.19501 8.94206 5.48486C9.54909 6.07548 9.97566 6.35439 10.4952 6.51298C11.0858 6.69892 11.8569 6.63329 12.5296 6.33798L12.803 6.22314L12.5678 5.97704C11.9663 5.35361 10.7577 4.60439 9.89909 4.32548C9.25925 4.11767 7.89206 3.97548 7.61862 4.09033Z" fill="white"/>
<path d="M24.5438 6.91541C24.243 6.99745 24.0735 7.10135 23.707 7.44041C22.9524 8.12948 21.6672 9.1412 20.6992 9.80291C19.0695 10.9131 17.9649 11.4217 16.9695 11.5146C16.1547 11.5857 15.8922 11.7498 16.1438 12.0178C16.3844 12.2803 17.2594 12.6303 17.9758 12.756L18.3586 12.8217L17.6531 13.1662C17.2649 13.3576 16.9367 13.5107 16.9203 13.5107C16.8547 13.5107 13.7813 15.0529 13.6555 15.1514C13.475 15.2935 13.4641 15.4029 13.6336 15.4631C13.8961 15.556 15.3617 15.474 16.7508 15.2826C16.9586 15.2498 17.0078 15.2607 17.0078 15.3318C17.0078 15.4849 16.5813 16.0537 16.1492 16.4803C15.6133 17.0053 15.2305 17.2951 14.7492 17.5357C13.7266 18.0553 12.8844 17.9842 12.0258 17.3115C11.6266 16.9998 11.3422 16.8576 11.2602 16.9396C11.1617 17.0381 11.2383 17.2349 11.5391 17.6834C12.075 18.4818 13.1742 19.4498 14.011 19.8545L14.4375 20.0623L13.8578 20.292C12.0531 20.9974 10.7188 21.8123 9.73986 22.8021C8.97424 23.5842 8.74455 23.9342 8.91408 24.0381C8.94689 24.0599 9.34611 24.0326 9.80549 23.9834C11.0797 23.8357 11.6758 23.8959 14.1914 24.4154C14.8531 24.5521 15.6516 24.6998 15.9688 24.749C18.6539 25.1537 20.5188 24.8256 22.307 23.6389C22.8266 23.2889 23.7563 22.4248 24.2211 21.8506C25.0633 20.8224 25.9602 19.2693 26.5453 17.831C27.218 16.1685 27.5406 14.692 27.6008 12.9857C27.6719 10.8584 27.2508 9.0701 26.3813 7.8451C26.086 7.42948 25.8125 7.18338 25.457 7.03026C25.0906 6.86073 24.85 6.83338 24.5438 6.91541Z" fill="white"/>
<path d="M19.3053 7.09697C19.2178 7.12432 15.4444 8.83057 12.2342 10.2907C10.3694 11.1384 10.2709 11.1931 7.87014 12.6368C6.51936 13.4462 5.40373 14.1134 5.39279 14.1134C5.38186 14.1134 5.34904 13.9712 5.31076 13.7962C5.05373 12.4782 3.79045 11.5868 2.48342 11.8056C1.50451 11.9696 0.656856 12.7517 0.443575 13.6813C0.295919 14.3157 0.432638 15.1142 0.782638 15.6337C1.27483 16.361 1.98029 16.7438 2.84436 16.7603C3.57717 16.7712 3.8342 16.6673 5.38732 15.7267C6.14201 15.2673 7.3342 14.5509 8.03967 14.1243L9.31936 13.3532L9.41232 13.5009C9.46154 13.5829 9.49983 13.654 9.49436 13.654C9.48889 13.6649 4.84045 16.4704 4.43029 16.7165C2.69123 17.7446 2.76233 20.2274 4.56154 21.1134C4.91154 21.2884 5.08654 21.3431 5.41467 21.3649C6.19123 21.4306 6.90217 21.1735 7.4217 20.6376C8.17639 19.8665 8.35139 18.7728 7.88108 17.7774C7.74983 17.4876 7.17014 16.8368 7.00061 16.7821C6.95686 16.7657 6.92951 16.7384 6.94592 16.7274C6.96233 16.711 7.66233 16.2845 8.50451 15.7759C11.9334 13.7142 11.9662 13.6978 13.6561 12.3907C14.5475 11.6962 15.7123 10.7993 16.2373 10.3892C16.7678 9.98447 17.4951 9.42119 17.8561 9.14229C18.217 8.86338 18.7748 8.43135 19.0975 8.19072C19.7155 7.71494 19.8904 7.49619 19.8358 7.26651C19.792 7.09151 19.5459 7.01494 19.3053 7.09697ZM3.46233 13.2548C3.69748 13.386 3.97639 13.7688 4.02561 14.0423C4.15686 14.7532 3.59358 15.4259 2.85529 15.4259C2.02404 15.4259 1.45529 14.5563 1.79983 13.8126C2.10061 13.1673 2.85529 12.9157 3.46233 13.2548ZM6.30061 17.9196C6.92404 18.3571 7.00061 19.161 6.4592 19.697C6.03264 20.129 5.50217 20.1782 4.99358 19.8392C4.24436 19.3306 4.33733 18.2204 5.16857 17.8212C5.50217 17.6626 5.99983 17.7063 6.30061 17.9196Z" fill="white"/>
<path d="M7.84864 7.375C7.46582 7.50625 7.12676 7.71953 6.84239 7.99297C6.62364 8.21172 6.6127 8.23359 6.70567 8.29922C6.85332 8.40859 7.73379 8.67656 8.2041 8.75859C8.72364 8.84609 9.66426 8.84609 10.0908 8.75859C10.501 8.67656 11.2064 8.44141 11.3432 8.34297C11.3979 8.29922 11.4307 8.23359 11.4143 8.18984C11.3979 8.14609 11.0205 7.9875 10.5721 7.83984C10.1291 7.68672 9.59317 7.50078 9.39082 7.41875C8.93692 7.24375 8.28614 7.22187 7.84864 7.375Z" fill="white"/>
</svg>
