<svg width="80" height="80" viewBox="0 0 80 80" fill="none" xmlns="http://www.w3.org/2000/svg">
<mask id="mask0_7055_4917" style="mask-type:luminance" maskUnits="userSpaceOnUse" x="0" y="0" width="80" height="80">
<path d="M80 0H0V80H80V0Z" fill="white"/>
</mask>
<g mask="url(#mask0_7055_4917)">
<path d="M40 0L40.5836 36.691L53.6808 2.4123L41.68 37.0902L65.7116 9.35824L42.574 37.8402L74.6412 20L43.1572 38.8508L79.3924 33.0541L43.36 40L79.3924 46.946L43.1572 41.1492L74.6412 60L42.574 42.1596L65.7116 70.6416L41.68 42.91L53.6808 77.5876L40.5836 43.3088L40 80L39.4165 43.3088L26.3192 77.5876L38.32 42.91L14.2885 70.6416L37.4261 42.1596L5.35897 60L36.8426 41.1492L0.607666 46.946L36.64 40L0.607666 33.0541L36.8426 38.8508L5.35897 20L37.4261 37.8402L14.2885 9.35824L38.32 37.0902L26.3192 2.4123L39.4165 36.691L40 0Z" fill="#1D1EE3"/>
</g>
</svg>
