<svg width="24" height="24" viewBox="0 0 24 24" fill="none" xmlns="http://www.w3.org/2000/svg">
<path d="M18.5 5C19.878 5 21 3.879 21 2.5C21 1.121 19.878 0 18.5 0C17.122 0 16 1.121 16 2.5C16 3.879 17.122 5 18.5 5ZM18.5 1C19.327 1 20 1.673 20 2.5C20 3.327 19.327 4 18.5 4C17.673 4 17 3.327 17 2.5C17 1.673 17.673 1 18.5 1ZM23.374 19.154C22.9 19.691 22.217 20 21.5 20H21V23.5C21 23.776 20.776 24 20.5 24C20.224 24 20 23.776 20 23.5V20H18C17.724 20 17.5 19.776 17.5 19.5C17.5 19.224 17.724 19 18 19H21.5C21.93 19 22.34 18.815 22.625 18.492C22.91 18.17 23.042 17.74 22.989 17.314L21.336 9.308C21.06 7.97 19.867 6.999 18.501 6.999C17.883 6.999 17.293 7.191 16.795 7.555C16.571 7.72 16.26 7.668 16.096 7.447C15.933 7.224 15.982 6.911 16.205 6.749C16.875 6.259 17.669 6 18.5 6C20.338 6 21.942 7.307 22.314 9.106L23.974 17.151C24.069 17.901 23.849 18.617 23.374 19.154ZM12 10C13.378 10 14.5 8.879 14.5 7.5C14.5 6.121 13.378 5 12 5C10.622 5 9.5 6.121 9.5 7.5C9.5 8.879 10.622 10 12 10ZM12 6C12.827 6 13.5 6.673 13.5 7.5C13.5 8.327 12.827 9 12 9C11.173 9 10.5 8.327 10.5 7.5C10.5 6.673 11.173 6 12 6ZM13 11H11C9.346 11 8 12.346 8 14V17C8 18.304 8.836 19.415 10 19.828V23.5C10 23.776 10.224 24 10.5 24C10.776 24 11 23.776 11 23.5V20H13V23.5C13 23.776 13.224 24 13.5 24C13.776 24 14 23.776 14 23.5V19.828C15.164 19.415 16 18.304 16 17V14C16 12.346 14.654 11 13 11ZM15 17C15 18.103 14.103 19 13 19H11C9.897 19 9 18.103 9 17V14C9 12.897 9.897 12 11 12H13C14.103 12 15 12.897 15 14V17ZM4.5 5C5.878 5 7 3.879 7 2.5C7 1.121 5.878 0 4.5 0C3.122 0 2 1.121 2 2.5C2 3.879 3.122 5 4.5 5ZM4.5 1C5.327 1 6 1.673 6 2.5C6 3.327 5.327 4 4.5 4C3.673 4 3 3.327 3 2.5C3 1.673 3.673 1 4.5 1ZM7.433 7.151C7.294 7.389 6.988 7.472 6.75 7.334C6.371 7.115 5.939 7 5.5 7H3.5C2.122 7 1 8.121 1 9.5V13.5C1 14.879 2.122 16 3.5 16H5.5C5.776 16 6 16.224 6 16.5C6 16.776 5.776 17 5.5 17H3.5C3.33 17 3.163 16.988 3 16.964V23.5C3 23.776 2.776 24 2.5 24C2.224 24 2 23.776 2 23.5V16.662C0.819 16.099 0 14.893 0 13.5V9.5C0 7.57 1.57 6 3.5 6H5.5C6.114 6 6.719 6.162 7.25 6.469C7.489 6.607 7.571 6.911 7.433 7.151Z" fill="white"/>
</svg>
