<svg width="40" height="40" viewBox="0 0 40 40" fill="none" xmlns="http://www.w3.org/2000/svg">
<g clip-path="url(#clip0_7374_2048)">
<path d="M7.21875 0.16473C7.07812 0.32098 7.07031 0.524105 7.02344 2.92254C6.99219 4.34442 6.94531 5.71942 6.91406 5.97723C6.88281 6.24286 6.89844 6.76629 6.94531 7.17254C7.22656 9.48504 8.57812 11.7507 11.3516 14.5866L12.5156 15.7741L12.4688 16.3054C12.2656 18.235 11.4922 20.5397 10.5156 22.0554C9.91406 23.0007 8.89062 23.8991 7.875 24.3757C7.13281 24.7272 6.45312 24.8444 5.15625 24.8444C3.89062 24.8444 3.1875 24.9304 2.38281 25.1647C1.71094 25.36 0.476562 25.9538 0.203125 26.2116L-0.0078125 26.4069L0.015625 31.9304L0.0390625 37.4616L0.289062 37.9929C0.625 38.7038 1.30469 39.3757 2.00781 39.7038C2.42188 39.8991 2.66406 39.9616 3.16406 39.985C3.78125 40.0163 3.80469 40.0163 3.96875 39.8054C4.1875 39.5319 4.1875 39.2819 3.96094 39.0319C3.82812 38.8757 3.66406 38.8132 3.24219 38.7507C2.60156 38.6491 2.15625 38.4069 1.76562 37.9616C1.20312 37.2975 1.21875 37.485 1.1875 31.9929L1.16406 27.0632L1.73438 26.7819L2.30469 26.5007L2.89062 27.0319C6.08594 29.8913 9.99219 31.8835 14.2969 32.8366C19.4922 33.9929 25.1797 33.4694 30.0781 31.3913C31.4531 30.8054 31.8516 30.5788 31.9375 30.3132C31.9922 30.1647 32 30.0007 31.9531 29.8913C31.875 29.6804 31.5938 29.4538 31.4062 29.4538C31.3438 29.4538 30.8359 29.6647 30.2734 29.9147C27.8984 30.9929 25.6875 31.6335 23.0469 32.0085C21.5234 32.2194 18.0078 32.2038 16.4844 31.9694C12.6797 31.3757 9.42188 30.1491 6.48438 28.1882C5.33594 27.4225 3.98438 26.3679 3.92188 26.1882C3.89844 26.1179 4.10938 26.0944 4.82031 26.0944H5.74219L6.40625 26.571C9.59375 28.8522 13.2812 30.2741 17.2344 30.7429C18.4141 30.8835 21.1719 30.9069 22.2656 30.7819C26.3906 30.3288 30.2656 28.8679 33.3828 26.5944L34.0703 26.0866L35.0625 26.11L36.0469 26.1335L35.4375 26.6413C35.1016 26.9225 34.4297 27.4304 33.9531 27.7819C33.1094 28.3913 33.0859 28.4225 33.0625 28.735C33.0469 28.9772 33.0781 29.0944 33.1953 29.2116C33.4688 29.485 33.8125 29.4225 34.4219 29.0163C34.9688 28.6491 36.4062 27.5007 37.1719 26.821L37.5859 26.4616L38.1875 26.7663L38.7891 27.071L38.8125 31.6413C38.8359 36.5241 38.8047 37.071 38.4766 37.6335C38.2266 38.0475 37.7344 38.4694 37.2734 38.6491C36.9297 38.7819 36.1406 38.7897 21.4141 38.8132C7.17969 38.8288 5.89844 38.8444 5.76562 38.9616C5.57031 39.1335 5.57031 39.696 5.76562 39.8757C5.89844 39.9929 7.0625 40.0007 21.6875 39.985L37.4609 39.9616L37.9922 39.7116C38.7031 39.3757 39.375 38.7038 39.7109 37.9929L39.9609 37.4616L39.9844 31.946L40.0078 26.4382L39.8281 26.2741C39.5781 26.0397 38.5547 25.5007 38 25.3132C37.0312 24.9694 36.6172 24.9147 34.8438 24.8522C33.2188 24.7975 33.0391 24.7741 32.4609 24.5788C32.1172 24.4616 31.625 24.235 31.3672 24.0788C30.7344 23.696 29.7891 22.7741 29.3359 22.11C28.3516 20.6413 27.5078 18.1569 27.375 16.3288L27.3281 15.7429L28.4453 14.61C30.9609 12.071 32.3203 9.93817 32.7812 7.78192C32.8906 7.28973 32.8906 6.82879 32.8047 3.75848C32.7109 0.578793 32.6953 0.274105 32.5625 0.141293C32.4375 0.0162926 32.2656 0.000667572 30.8359 0.000667572C29.3281 0.000667572 29.2344 0.00848007 29.1016 0.156918C28.9141 0.367855 28.9141 0.805355 29.1016 1.01629C29.2344 1.15692 29.3359 1.17254 30.3672 1.17254H31.4844V1.42254C31.4844 1.56317 31.5234 2.87567 31.5703 4.34442C31.6719 7.37567 31.6484 7.64129 31.0938 8.93036C30.1562 11.0944 27.7656 13.8288 24.5078 16.446C22.4453 18.1022 19.8438 18.5475 17.3984 17.6569C16.5469 17.3444 15.7891 16.8522 14.5781 15.8288C11.3125 13.0632 9.22656 10.4929 8.47656 8.28973C8.17188 7.39129 8.10938 6.73504 8.19531 5.46161C8.24219 4.84442 8.28125 3.62567 8.28125 2.75067V1.17254H17.7188C27.1406 1.17254 27.1641 1.17254 27.3047 1.01629C27.4922 0.805355 27.4922 0.367855 27.3047 0.156918C27.1641 0.000667572 27.1406 0.000667572 17.2656 0.000667572H7.36719L7.21875 0.16473ZM26.7969 19.6491C27.1641 20.7741 27.8203 22.1413 28.3672 22.9382C28.8359 23.61 29.8906 24.6491 30.5156 25.0475C30.9141 25.3054 31.6328 25.6569 32.0703 25.8132C32.1953 25.86 32.1172 25.9382 31.6016 26.2663C25.7422 30.0163 18.0703 30.6804 11.5781 28.0007C10.3125 27.4772 7.65625 26.0397 7.65625 25.8757C7.65625 25.8444 7.875 25.7429 8.14844 25.6413C9.67188 25.0944 11.3047 23.485 12.25 21.6022C12.7734 20.5475 13.3203 18.8288 13.5547 17.4929C13.6172 17.1413 13.6797 16.8366 13.6953 16.821C13.7109 16.8054 13.9688 16.9929 14.2656 17.235C15.3359 18.1179 15.9922 18.4929 17.1406 18.8991C19.3125 19.6647 21.9062 19.4694 23.9062 18.3835C24.4297 18.0944 25.2656 17.5007 25.8203 17.0085L26.1328 16.7429L26.3047 17.7116C26.4062 18.2507 26.625 19.1179 26.7969 19.6491Z" fill="#0F172A"/>
<path d="M24.2891 19.7576C24.0235 19.9685 24.0391 20.4295 24.3281 20.6717C24.586 20.8982 24.836 20.906 25.1094 20.6951C25.375 20.4842 25.3985 20.0076 25.1406 19.7654C24.9297 19.5701 24.5313 19.5623 24.2891 19.7576Z" fill="#0F172A"/>
<path d="M19.4687 20.9607C19.3203 21.117 19.2968 21.2341 19.2968 21.7732C19.2968 22.3513 19.2812 22.4138 19.1328 22.4607C19 22.5076 18.8281 22.3748 18.2031 21.7654C17.539 21.1091 17.4062 21.0154 17.1718 21.0154C16.8203 21.0154 16.5625 21.281 16.5625 21.6404C16.5625 21.8591 16.664 22.0076 17.3125 22.656C17.9218 23.281 18.0547 23.4529 18.0078 23.5857C17.9609 23.7341 17.8984 23.7498 17.3125 23.7498C16.7422 23.7498 16.6484 23.7732 16.5 23.9295C16.25 24.1951 16.2656 24.6248 16.5312 24.8357C16.7031 24.9685 16.8515 24.9998 17.3515 24.9998C17.8906 24.9998 17.9609 25.0154 18.0078 25.156C18.0468 25.281 17.9765 25.406 17.7422 25.6638C17.3593 26.0779 17.3203 26.3904 17.6172 26.6795C17.9062 26.9763 18.2187 26.9373 18.6328 26.5545C18.8906 26.3201 19.0156 26.2498 19.1406 26.2888C19.2812 26.3357 19.2968 26.3982 19.2968 26.9841C19.2968 27.5545 19.3203 27.6482 19.4765 27.7966C19.7031 28.0076 20.0781 28.0154 20.3203 27.8201C20.4843 27.6873 20.5156 27.5857 20.5468 26.9841C20.6015 26.031 20.6718 26.031 21.6406 26.9841C22.2812 27.617 22.4375 27.7341 22.6484 27.7341C22.9843 27.7341 23.2812 27.4373 23.2812 27.1013C23.2812 26.8904 23.164 26.7341 22.5312 26.0935C21.5781 25.1248 21.5781 25.0545 22.5312 24.9998C23.1328 24.9685 23.2343 24.9373 23.3672 24.7732C23.5547 24.5388 23.5547 24.2107 23.3672 23.9763C23.2343 23.8123 23.1328 23.781 22.5312 23.7498C21.6875 23.7029 21.6172 23.5935 22.0781 23.117C22.3281 22.8591 22.3828 22.7498 22.3828 22.492C22.3828 22.2498 22.3359 22.1326 22.1953 22.0232C21.8984 21.781 21.6015 21.8357 21.2109 22.1951C20.9531 22.4295 20.8281 22.4998 20.7031 22.4607C20.5625 22.4138 20.5468 22.3435 20.5468 21.8045C20.5468 21.3045 20.5156 21.156 20.3828 20.9841C20.1718 20.7107 19.7109 20.7029 19.4687 20.9607ZM20.3593 23.7341C20.7812 24.0701 20.8125 24.5154 20.4375 24.8904C20.1406 25.1873 19.8906 25.2263 19.5312 25.0388C19.2422 24.8904 19.1406 24.7029 19.1406 24.3357C19.1406 23.742 19.9062 23.367 20.3593 23.7341Z" fill="#0F172A"/>
<path d="M14.0703 22.7112C13.9844 22.7894 13.8828 22.9612 13.8594 23.1019C13.8203 23.3128 13.8516 23.3909 14.0469 23.5941C14.3282 23.8675 14.586 23.8909 14.875 23.6644C15.1407 23.4534 15.1641 22.9769 14.9063 22.7347C14.6953 22.5394 14.2969 22.5316 14.0703 22.7112Z" fill="#0F172A"/>
<path d="M24.7735 24.9769C24.6875 25.055 24.586 25.2269 24.5625 25.3675C24.5235 25.5784 24.5547 25.6566 24.75 25.8597C25.0313 26.1331 25.2891 26.1566 25.5782 25.93C25.8438 25.7191 25.8672 25.2425 25.6094 25.0003C25.3985 24.805 25 24.7972 24.7735 24.9769Z" fill="#0F172A"/>
<path d="M14.4688 26.406C14.1094 26.5544 14.0625 27.2263 14.3985 27.4607C15.0313 27.906 15.7422 27.0622 15.1953 26.5232C15 26.32 14.7735 26.2888 14.4688 26.406Z" fill="#0F172A"/>
<path d="M19.0703 3.21091C18.6719 3.33591 18.4766 3.46091 18.1172 3.82029C17.75 4.19529 17.6406 4.35935 17.5078 4.79685C17.25 5.62497 17.3203 5.99997 17.75 6.17966C18.2031 6.36716 18.5312 6.09372 18.6328 5.46091C18.6953 5.04685 18.9766 4.67185 19.375 4.46872C19.8047 4.25779 20.0156 4.24997 20.4453 4.46091C20.8672 4.66404 21.0781 4.9531 21.1719 5.48435C21.2969 6.17185 21.7656 6.43747 22.2266 6.0781C22.4297 5.92185 22.4375 5.8906 22.4062 5.35154C22.2969 3.72654 20.6797 2.68747 19.0703 3.21091Z" fill="#0F172A"/>
<path d="M18.8907 8.94549C17.961 9.2033 17.0782 9.89862 16.3516 10.9611C15.6953 11.9142 15.586 12.2189 15.8125 12.5158C16.0078 12.7736 16.2344 12.7892 17.2657 12.6096C19.1563 12.2892 20.9532 12.2971 22.6953 12.633C23.5078 12.7892 23.7422 12.7814 23.9375 12.5861C24.2266 12.2892 24.1485 11.9611 23.5703 11.1017C22.4766 9.48455 21.375 8.82049 19.8438 8.83612C19.5235 8.83612 19.0938 8.8908 18.8907 8.94549ZM20.8047 10.2346C21.0703 10.3361 21.3985 10.5549 21.6875 10.8205L22.1485 11.2502L21.6407 11.1955C20.9844 11.1252 18.8594 11.1252 18.2032 11.1955L17.6953 11.2502L18.1407 10.8283C18.8985 10.1017 19.875 9.8908 20.8047 10.2346Z" fill="#0F172A"/>
<path d="M1.91404 11.4073C1.05467 12.0558 0.273419 12.6495 0.179669 12.7276C-0.0468938 12.923 -0.0703313 13.4308 0.140606 13.6183C0.210919 13.6808 0.953106 14.0792 1.78904 14.4933L3.29686 15.2433L2.88279 15.5558C2.64842 15.7276 2.41404 15.923 2.36717 15.9933C2.22654 16.1808 2.24217 16.5167 2.40623 16.712C2.48436 16.8058 3.85936 17.423 5.85154 18.2433C9.36717 19.6964 9.46092 19.7276 9.72654 19.3526C9.96873 19.0011 9.88279 18.7823 8.85154 17.2042C8.29686 16.3605 7.84373 15.6495 7.82811 15.6183C7.81248 15.587 7.99998 15.4151 8.23436 15.2276C8.46873 15.0401 8.71092 14.7901 8.75779 14.6651C8.93748 14.2276 9.01561 14.298 5.01561 11.0714C4.17186 10.3917 3.92967 10.2355 3.72654 10.2355C3.53123 10.2355 3.15623 10.4776 1.91404 11.4073ZM5.42967 13.048C6.24998 13.7042 6.96873 14.2901 7.03123 14.3526C7.13279 14.4386 7.09373 14.5011 6.73436 14.8136C6.15623 15.3214 6.17186 15.4386 6.94529 16.6261L7.57029 17.5714L7.23436 17.4386C5.10936 16.5792 4.22654 16.2042 4.24217 16.1651C4.24998 16.1339 4.43748 15.9698 4.66404 15.7901C5.08592 15.462 5.17186 15.2667 5.05467 14.8995C4.99217 14.712 4.74998 14.5636 3.39061 13.8839L1.79686 13.087L2.74998 12.3683C3.55467 11.7667 3.72654 11.673 3.82811 11.7511C3.89061 11.8058 4.61717 12.3917 5.42967 13.048Z" fill="#0F172A"/>
<path d="M35.9766 10.3281C35.6172 10.5391 31.3281 14.0781 31.25 14.2266C31.0938 14.5078 31.2344 14.8203 31.6641 15.1719C31.8906 15.3516 32.1016 15.5234 32.1406 15.5547C32.1797 15.5859 31.75 16.3203 31.1797 17.1797C30.3828 18.3984 30.1562 18.8047 30.1562 19.0078C30.1562 19.3203 30.4219 19.6094 30.7188 19.6094C31.0547 19.6094 37.3594 16.9766 37.5625 16.75C37.8906 16.3828 37.7188 15.9844 37.0312 15.5078L36.7031 15.2812L38.3125 14.4766C40.0156 13.625 40.0469 13.6016 39.9844 13.0781C39.9609 12.8828 39.7109 12.6641 38.2812 11.5859C36.5938 10.3125 36.2812 10.1406 35.9766 10.3281ZM37.2266 12.3906C37.7188 12.7656 38.125 13.0859 38.125 13.1172C38.125 13.1406 37.4297 13.5156 36.5781 13.9453C35.5 14.4922 35.0156 14.7812 34.9531 14.9141C34.8281 15.1641 34.9453 15.5469 35.2109 15.7422C35.3281 15.8281 35.5078 15.9688 35.6172 16.0625L35.8047 16.2188L34.1719 16.8906C33.2734 17.2656 32.5312 17.5547 32.5156 17.5391C32.5 17.5312 32.7578 17.1094 33.0781 16.6094C33.8359 15.4453 33.8438 15.2891 33.2031 14.7812L32.8281 14.4844L34.5234 13.1094C35.4531 12.3516 36.2344 11.7266 36.2734 11.7266C36.3047 11.7188 36.7344 12.0234 37.2266 12.3906Z" fill="#0F172A"/>
<path d="M1.86719 19.8357C1.72656 19.9451 1.67969 20.0623 1.67969 20.3123C1.67969 20.8044 1.82812 20.8826 3.05469 21.0466C3.625 21.1169 4.10938 21.1951 4.125 21.2107C4.14062 21.2263 4.00781 21.4216 3.83594 21.6404C3.42188 22.1638 3.40625 22.6951 3.80469 22.8435C3.99219 22.9216 6.74219 23.281 7.17188 23.2966C7.59375 23.3044 7.8125 23.1248 7.8125 22.7576C7.8125 22.1873 7.64062 22.1013 6.30469 21.9451C5.84375 21.8904 5.44531 21.8201 5.42188 21.781C5.39844 21.7498 5.5 21.5701 5.65625 21.3826C6 20.9607 6.0625 20.7107 5.90625 20.406C5.75781 20.1248 5.79688 20.1326 3.875 19.8826C2.10156 19.6482 2.09375 19.6482 1.86719 19.8357Z" fill="#0F172A"/>
<path d="M35.9766 19.9219C34.4375 20.1328 34.3281 20.1562 34.1641 20.3516C33.9063 20.6484 33.9375 20.8594 34.336 21.3984C34.5313 21.6641 34.6485 21.875 34.5938 21.875C34.5391 21.875 34.0547 21.9297 33.5156 22C32.3516 22.1484 32.1641 22.2578 32.2031 22.7656C32.2188 22.9922 32.2813 23.1094 32.4375 23.2266L32.6485 23.3828L34.4219 23.1484C36.0156 22.9375 36.2188 22.8906 36.3438 22.7344C36.5781 22.4453 36.5235 22.1328 36.1641 21.6641C35.9844 21.4375 35.8516 21.2344 35.8672 21.2266C35.8828 21.2109 36.375 21.1406 36.9531 21.0703C37.8985 20.9531 38.0235 20.9141 38.1875 20.7344C38.2813 20.625 38.3594 20.4531 38.3594 20.3516C38.3594 20.1094 38.0625 19.7812 37.8125 19.7344C37.7031 19.7188 36.8828 19.8047 35.9766 19.9219Z" fill="#0F172A"/>
</g>
<defs>
<clipPath id="clip0_7374_2048">
<rect width="40" height="40" fill="white"/>
</clipPath>
</defs>
</svg>
