<svg width="24" height="24" viewBox="0 0 24 24" fill="none" xmlns="http://www.w3.org/2000/svg">
<path d="M7.57031 1.33559C7.54687 1.34496 7.46718 1.36371 7.39687 1.37777C7.20468 1.41996 6.99375 1.62621 6.92812 1.83246C6.86718 2.0434 6.82968 2.07152 6.49218 2.15121C5.61093 2.36684 4.59375 3.12152 4.0125 3.99809C3.22968 5.17933 3.05156 6.53402 3.46875 8.18402C3.67031 8.99027 4.18125 10.1996 4.57968 10.809C4.64062 10.9028 4.63125 10.9168 4.42031 11.0528C3.8625 11.409 3.85312 11.5215 4.29843 12.145C5.31562 13.5746 6.74062 15.0278 8.17968 16.1012C9.10781 16.795 10.0172 17.3387 10.4109 17.4371L10.6312 17.4934L10.6547 18.295C10.6781 19.1996 10.7578 19.5746 11.0297 20.17C12.2672 22.8465 15.7266 23.5028 17.8734 21.4731C18.3797 20.995 18.7969 20.32 18.9844 19.6871C19.1484 19.1387 19.1391 19.1528 19.3828 19.0871C19.6922 19.0028 19.9687 18.834 20.2172 18.5668C21.1219 17.6012 20.8406 16.0637 19.6547 15.5012C19.3547 15.3606 19.3031 15.3512 18.8203 15.3512C18.3328 15.3512 18.2859 15.3606 17.9953 15.5012C16.5422 16.2184 16.5281 18.2387 17.9672 18.9606C18.1453 19.0496 18.3234 19.1246 18.3609 19.1246C18.5016 19.1246 18.2203 19.8512 17.8781 20.3762C17.0484 21.6325 15.5016 22.2325 14.0391 21.8621C13.8844 21.8246 13.5562 21.6934 13.3125 21.5762C12.9328 21.3887 12.8016 21.2903 12.4219 20.9106C12.075 20.5637 11.9297 20.3762 11.7797 20.0856C11.4469 19.434 11.3812 19.1575 11.3531 18.2809L11.3344 17.5028L11.6203 17.4184C11.9531 17.32 12.8437 16.7996 13.5328 16.3028C15.0422 15.2153 16.5609 13.6918 17.6672 12.1684C17.9578 11.7653 18.0047 11.6762 17.9906 11.5356C17.9766 11.3903 17.9344 11.3387 17.6719 11.1371L17.3625 10.9121L17.7656 10.1059C18.4266 8.78871 18.7125 7.74809 18.7172 6.60902C18.7219 5.95746 18.675 5.63871 18.5062 5.10902C18.0609 3.71215 16.9125 2.59184 15.4828 2.1559C15.1547 2.05746 15.1453 2.05277 15.0141 1.79027C14.8547 1.47152 14.6719 1.34965 14.3531 1.34496C14.0391 1.34496 11.9812 1.97309 11.8266 2.1184C11.5453 2.3809 11.5125 2.66684 11.6953 3.25746C11.8687 3.82934 12.0797 4.03559 12.4875 4.04027C12.7172 4.04496 14.7328 3.45434 14.9531 3.3184C15.0375 3.26684 15.1406 3.14496 15.1922 3.02309L15.2812 2.81684L15.4594 2.87777C16.2562 3.15902 17.0531 3.81527 17.4891 4.54652C17.8359 5.12777 18.0469 5.89652 18.0469 6.56215C18.0469 7.53246 17.6297 8.9434 17.0156 10.0543L16.7719 10.495L16.4578 10.284C15.9937 9.97465 15.9328 9.9934 15.5906 10.5184C14.7422 11.8215 13.3875 13.1856 12.1031 14.0293C11.1 14.6903 10.9687 14.7043 10.1625 14.2168C8.84062 13.42 7.32656 11.9434 6.43593 10.5887C6.16406 10.1668 6.06562 10.0825 5.87812 10.0778C5.84531 10.0778 5.68593 10.1715 5.51718 10.2887L5.20781 10.4996L4.99687 10.1106C4.275 8.78402 3.96562 7.72933 3.96093 6.58558C3.96093 5.84965 4.03125 5.50277 4.28906 4.94027C4.71562 4.00277 5.57343 3.21059 6.50625 2.88715L6.67968 2.82621L6.77812 3.0184C6.82968 3.12621 6.9375 3.25277 7.01718 3.30902C7.21875 3.44496 9.25312 4.04496 9.50156 4.04027C9.72656 4.04027 9.95625 3.92308 10.0828 3.74965C10.1953 3.60433 10.4062 2.89652 10.4062 2.6809C10.4062 2.46527 10.2844 2.22152 10.1062 2.09027C10.0219 2.02465 9.53906 1.8559 8.92968 1.67309C7.87968 1.36371 7.65468 1.30746 7.57031 1.33559ZM8.89687 2.39496C9.37968 2.54027 9.70312 2.66215 9.70312 2.69496C9.70312 2.72777 9.66093 2.89652 9.60468 3.06527C9.52968 3.3184 9.49687 3.37465 9.43125 3.3559C9.38906 3.34184 8.92031 3.20121 8.39062 3.04184C7.86093 2.88715 7.42031 2.75121 7.41093 2.73715C7.38281 2.71371 7.54687 2.14184 7.60312 2.07621C7.63593 2.03402 7.69687 2.03871 7.86562 2.08559C7.9875 2.12309 8.45156 2.26371 8.89687 2.39496ZM14.5031 2.40902C14.5547 2.57777 14.5687 2.69965 14.5406 2.72777C14.475 2.7934 12.4969 3.37465 12.4594 3.33715C12.4125 3.29027 12.2578 2.6809 12.2859 2.65277C12.3 2.63871 12.7641 2.4934 13.3172 2.32465C14.0625 2.10434 14.3344 2.03871 14.3719 2.0809C14.4 2.10902 14.4562 2.25434 14.5031 2.40902ZM6.01406 11.2215C6.7875 12.3887 8.20781 13.7762 9.50156 14.6293C10.2984 15.1543 10.4437 15.2106 10.9922 15.2106C11.55 15.2106 11.6766 15.159 12.5437 14.5825C13.7812 13.7621 15.0797 12.4871 15.9375 11.259C16.0641 11.0809 16.1672 10.9731 16.2094 10.9918C16.2984 11.0246 17.1562 11.6293 17.1562 11.6575C17.1562 11.7465 16.3312 12.7543 15.6375 13.509C14.5875 14.6621 12.7781 16.0825 11.6719 16.6309C11.3625 16.7856 11.2828 16.8043 10.9687 16.8043C10.6406 16.8043 10.5937 16.7903 10.2047 16.584C8.53125 15.684 6.62812 14.0153 5.20781 12.1871L4.79531 11.6528L5.26875 11.3153C5.52656 11.1278 5.76562 10.9731 5.79375 10.9731C5.82187 10.9684 5.92031 11.0809 6.01406 11.2215ZM19.2937 16.1012C19.5047 16.1903 19.8187 16.4856 19.9312 16.7012C20.3344 17.4934 19.7203 18.4684 18.825 18.4684C18.3469 18.4637 17.9484 18.2246 17.7375 17.8075C17.4984 17.3293 17.5594 16.8371 17.9062 16.4434C18.2672 16.0262 18.8062 15.895 19.2937 16.1012Z" fill="white"/>
<path d="M18.3937 16.495C17.9578 16.7622 17.8406 17.3013 18.1218 17.7325C18.3468 18.0747 18.8718 18.1966 19.2422 17.9857C19.814 17.6622 19.8281 16.8888 19.2703 16.5138C19.064 16.3732 18.6093 16.3638 18.3937 16.495ZM18.9843 17.2029C18.9843 17.3997 18.7359 17.47 18.675 17.2872C18.6328 17.156 18.7687 17.0435 18.8953 17.1138C18.9468 17.1372 18.9843 17.1794 18.9843 17.2029Z" fill="white"/>
<path d="M9.10777 5.97636C8.72339 6.07949 8.39527 6.26699 8.12808 6.53417C7.00777 7.65449 7.43433 9.61386 9.15933 11.2873C9.64683 11.7607 10.0734 12.0889 10.4718 12.2998C10.8046 12.4779 11.1703 12.4685 11.5265 12.281C11.9578 12.0514 12.5625 11.5685 13.0125 11.0998C13.8656 10.2045 14.3906 9.18261 14.4656 8.27323C14.5593 7.15292 13.8421 6.17324 12.7593 5.94824C12.2578 5.84511 11.5828 5.97636 11.175 6.25292L10.9968 6.37011L10.8562 6.27636C10.35 5.93886 9.67495 5.82636 9.10777 5.97636ZM10.139 6.70292C10.275 6.75449 10.5 6.89042 10.6359 7.00761C10.7765 7.12949 10.9312 7.21855 10.9921 7.21855C11.0531 7.21855 11.1984 7.13417 11.3203 7.03105C11.775 6.6373 12.2437 6.5248 12.7734 6.67949C13.1437 6.7873 13.5843 7.21386 13.7015 7.58886C13.8984 8.2123 13.6921 8.9998 13.0921 9.90448C12.6328 10.5982 11.3343 11.7279 10.9968 11.7279C10.7578 11.7279 9.99839 11.1748 9.45464 10.5982C8.47964 9.56698 8.0062 8.35292 8.27339 7.58886C8.54995 6.81542 9.37964 6.41699 10.139 6.70292Z" fill="white"/>
</svg>
