<svg width="24" height="24" viewBox="0 0 24 24" fill="none" xmlns="http://www.w3.org/2000/svg">
<path d="M15.3703 0.107813C15.0094 0.257813 14.9016 0.342188 14.4 0.8625C13.8047 1.47656 13.7109 1.68281 13.7109 2.34375C13.7109 2.80781 13.7203 2.85938 13.8609 3.14531C14.0438 3.51563 14.3391 3.80156 14.7094 3.975C14.9484 4.0875 15.0328 4.10156 15.4922 4.10156C15.9469 4.10156 16.0359 4.0875 16.2656 3.97969C16.5891 3.82969 17.3906 3.02813 17.6109 2.63906C18.0094 1.92656 17.8688 1.02188 17.2734 0.478125C16.8844 0.121875 16.6594 0.0328126 16.1016 0.0140629C15.6938 4.76837e-07 15.6 0.0093751 15.3703 0.107813ZM16.5375 0.923438C16.8188 1.08281 16.9828 1.35 17.0063 1.6875C17.0344 2.08594 16.9594 2.25 16.5375 2.69531C16.1203 3.13594 15.9188 3.28125 15.6469 3.32813C15.0703 3.43594 14.4844 2.93906 14.4844 2.34375C14.4844 2.02969 14.6156 1.80469 15.075 1.32656C15.4172 0.975 15.5344 0.885938 15.7266 0.825C16.0172 0.735938 16.2703 0.76875 16.5375 0.923438Z" fill="white"/>
<path d="M12.5156 2.30215C11.0859 2.69121 10.0593 3.36621 9.37964 4.37402C8.76089 5.2834 8.40464 6.81621 8.45151 8.34434C8.47026 9.01465 8.48901 9.16934 8.60151 9.51621C8.72339 9.90059 8.72808 9.93809 8.69995 10.6975C8.66714 11.5459 8.68589 11.6537 8.90151 11.8553C9.02808 11.9725 9.03745 12.0193 9.11245 12.6475C9.15464 13.0131 9.18745 13.3834 9.18745 13.4678C9.18745 13.5568 8.93901 14.1896 8.55464 15.0709L7.92651 16.524L8.32964 16.5615C8.54995 16.5803 8.75151 16.5803 8.77026 16.5615C8.82651 16.5006 9.94683 13.9131 9.98433 13.749C10.0171 13.6178 9.9562 12.8584 9.86714 12.1975L9.83901 11.9959L10.5984 12.01L11.3625 12.024L12.0187 13.824L12.675 15.624L12.5625 16.6506C12.5015 17.2131 12.464 17.6865 12.4781 17.6959C12.525 17.7428 13.1859 17.9115 13.2093 17.8834C13.2468 17.8506 13.5 15.5725 13.4765 15.5021C13.4671 15.4693 13.1859 14.6818 12.8484 13.7537C12.5109 12.8209 12.2343 12.0475 12.2343 12.0287C12.2343 12.0146 12.675 12.0006 13.2093 12.0006H14.1843L14.3015 13.6084L14.414 15.2115L14.1796 16.6037C14.0531 17.3678 13.9593 18.0053 13.9734 18.024C13.9875 18.0381 14.1703 18.0615 14.3718 18.0756L14.7421 18.1084L14.9812 16.66L15.225 15.2115L15.089 13.435C15 12.2584 14.9718 11.6303 15 11.574C15.0281 11.5271 15.0468 11.4193 15.0468 11.3303C15.0468 11.1756 15.0281 11.1521 14.7093 10.974C14.5218 10.8662 14.3156 10.7443 14.2546 10.7021L14.1421 10.6225L14.175 10.9365L14.2125 11.2506H11.85H9.48745L9.5062 10.5803C9.52495 9.95215 9.52026 9.88184 9.37495 9.30527C9.22495 8.70996 9.22495 8.67715 9.24839 7.92246C9.29995 6.2959 9.71714 5.07246 10.4859 4.29434C10.9921 3.77871 11.6859 3.3709 12.4218 3.15996C12.8296 3.04277 12.8531 3.04277 12.9703 3.11777L13.0921 3.19746L13.064 3.04277C13.0453 2.95371 13.0218 2.74277 13.0031 2.56465L12.9703 2.25059L12.825 2.25527C12.7453 2.25527 12.6046 2.27871 12.5156 2.30215Z" fill="white"/>
<path d="M14.6812 5.19842L14.4281 5.59217L14.714 5.87811C14.9625 6.12654 15.0094 6.15467 15.0609 6.09373C15.1547 5.99529 15.8531 4.87029 15.8344 4.85154C15.8297 4.84217 15.6234 4.82811 15.3797 4.82342L14.9344 4.80467L14.6812 5.19842Z" fill="white"/>
<path d="M10.8797 4.99692C10.7484 5.16567 10.6734 5.54536 10.6922 5.98129C10.7156 6.44067 10.9078 6.87661 11.2172 7.15317C12.1359 7.98754 14.8594 10.3125 15.0141 10.3969C15.1828 10.4907 15.2578 10.5047 15.5437 10.486C16.0922 10.4532 16.5 10.1438 16.6687 9.63754C16.7578 9.37973 16.7391 8.92504 16.6359 8.70473C16.6031 8.62973 15.8906 7.92192 15.0469 7.12973C13.5844 5.75161 13.5234 5.68598 13.5516 5.55473C13.6453 5.12348 13.5187 4.87504 13.2047 4.87504C12.9516 4.87504 12.8531 4.99223 12.7641 5.40004C12.6375 6.00004 12.5766 5.92036 14.2922 7.52817C16.0406 9.16879 16.0828 9.22504 15.7594 9.57192C15.525 9.82504 15.5391 9.83442 13.5562 8.11411C12.5531 7.23754 11.6812 6.45004 11.6203 6.36567C11.5266 6.23442 11.5078 6.15473 11.5125 5.85942C11.5125 5.66723 11.5312 5.42348 11.55 5.32036C11.5828 5.16567 11.5687 5.10942 11.4844 5.00161C11.4047 4.89848 11.3484 4.87504 11.1797 4.87504C11.0156 4.87504 10.9547 4.89848 10.8797 4.99692Z" fill="white"/>
<path d="M16.5985 10.8422C16.5704 10.8797 16.4157 10.9687 16.261 11.039C16.1063 11.1094 15.9844 11.189 15.9938 11.2172C16.0079 11.25 16.4954 12.75 17.086 14.5547C17.6766 16.3594 18.1641 17.8453 18.1735 17.8547C18.1922 17.8828 18.8438 17.5687 18.8719 17.5219C18.8954 17.4844 16.7438 10.875 16.6922 10.814C16.6688 10.7953 16.6313 10.8094 16.5985 10.8422Z" fill="white"/>
<path d="M11.1422 14.4374C11.0484 14.6437 10.7062 15.2484 10.3828 15.7781C10.0594 16.3078 9.78748 16.7624 9.78279 16.7859C9.76873 16.8515 10.5 17.0812 10.5515 17.0296C10.6265 16.9546 11.7187 15.1359 11.7187 15.0843C11.7187 15.0046 11.3672 14.0624 11.339 14.0624C11.325 14.0624 11.2359 14.2312 11.1422 14.4374Z" fill="white"/>
<path d="M2.71875 17.344C2.65781 17.4049 2.625 17.4987 2.625 17.6253C2.625 17.7518 2.65781 17.8456 2.71875 17.9065C2.80781 17.9956 2.87344 18.0003 4.21875 18.0003H5.625V20.4378V22.8753H4.5C3.43594 22.8753 3.37031 22.8799 3.28125 22.969C3.15469 23.0956 3.15469 23.4049 3.28125 23.5315C3.37031 23.6206 3.43594 23.6253 4.63125 23.6253C5.79844 23.6253 5.89219 23.6206 6.0375 23.5315C6.20625 23.4284 6.375 23.1846 6.375 23.0346C6.375 22.9784 6.40313 22.9128 6.43594 22.8893C6.53438 22.8096 7.49063 22.5003 7.63594 22.5003C7.71094 22.5003 8.72813 22.8049 9.9 23.1799C11.0719 23.5549 12.1922 23.8924 12.3938 23.9346C12.8813 24.0331 13.8375 24.0049 14.1984 23.8831C14.5031 23.7753 19.0078 21.544 20.0156 21.0003C20.8266 20.5596 21.1031 20.3393 21.2625 19.9924C21.4172 19.6643 21.4172 19.1487 21.2625 18.8159C21.0047 18.2628 20.6016 18.0003 20.0156 18.0003C19.8141 18.0003 19.5844 18.0237 19.4953 18.0518C19.4062 18.0799 18.7594 18.3799 18.0563 18.7174L16.7766 19.3315L16.8094 19.5659C16.8281 19.6971 16.8422 19.894 16.8375 20.0018L16.8281 20.1987L17.3578 19.9503C17.6438 19.8096 18.2766 19.5049 18.7594 19.2706C19.2422 19.0362 19.7156 18.8253 19.8141 18.8065C20.0625 18.7503 20.2641 18.8159 20.4328 19.0081C20.5547 19.1487 20.5781 19.2143 20.5781 19.4065C20.5781 19.7299 20.4609 19.8378 19.6641 20.2737C18.9375 20.6674 14.5922 22.8378 14.1094 23.044C13.7438 23.1987 13.0688 23.2503 12.5953 23.1565C12.4359 23.1284 11.3156 22.7862 10.1109 22.4018C7.56094 21.5909 7.60781 21.6003 6.86719 21.8674L6.42188 22.0268V20.2081V18.3846L6.90469 18.2112C7.31719 18.0612 7.43906 18.0378 7.78594 18.0424C8.47969 18.0424 9.20625 18.2018 10.2375 18.5674C11.0813 18.8674 12.5016 19.294 13.0078 19.3971C13.2656 19.4534 13.7906 19.5284 14.175 19.5706C14.9859 19.6549 15.1875 19.6971 15.3047 19.8284C15.3891 19.9221 15.3844 19.9268 15.1547 20.1518C14.8594 20.4331 14.5922 20.5315 13.9641 20.5737C12.9938 20.6393 12.0563 20.4846 11.0766 20.1003C10.5469 19.8893 10.4203 19.894 10.2469 20.1237C10.1156 20.3018 10.1813 20.5643 10.3922 20.6862C10.6313 20.8221 11.4141 21.0893 11.9531 21.2206C12.5531 21.3612 13.9031 21.4221 14.4844 21.3331C15.2484 21.2159 15.9469 20.719 16.1016 20.1846C16.1906 19.8846 16.1672 19.7065 16.0078 19.4253C15.7781 19.0268 15.4266 18.8956 14.2781 18.7737C13.2984 18.6753 12.7172 18.5299 10.9969 17.9674C9.09375 17.344 8.88281 17.2971 7.96875 17.269L7.24219 17.2456L6.77344 17.4096L6.30469 17.569L6.1875 17.4612C5.95781 17.2549 5.92969 17.2503 4.34063 17.2503C2.87344 17.2503 2.80781 17.2549 2.71875 17.344Z" fill="white"/>
<path d="M4.21875 18.8438C4.15781 18.9047 4.125 18.9984 4.125 19.125C4.125 19.3734 4.25156 19.5 4.49063 19.5C4.71094 19.5 4.81406 19.425 4.87031 19.2375C4.91719 19.0687 4.83281 18.8297 4.71094 18.7781C4.55156 18.7172 4.3125 18.75 4.21875 18.8438Z" fill="white"/>
</svg>
