<svg width="48" height="48" viewBox="0 0 48 48" fill="none" xmlns="http://www.w3.org/2000/svg">
<g clip-path="url(#clip0_10231_9265)">
<path d="M21.1876 0.206627C20.8407 0.581627 20.9345 0.8535 22.1251 2.83163L23.2501 4.69725V6.08475V7.48162L22.4814 7.54725C22.0501 7.57537 21.6657 7.6035 21.6095 7.6035C21.5626 7.6035 21.3376 6.73162 21.1314 5.6535C20.8032 4.03162 20.7001 3.68475 20.5314 3.54412C20.0532 3.15975 19.3126 3.48788 19.3126 4.08788C19.322 4.23788 19.4814 5.166 19.6689 6.15038L20.0251 7.941L19.2751 8.166C18.8532 8.28788 18.4782 8.391 18.4407 8.391C18.3939 8.391 18.122 7.81913 17.8314 7.12537L17.3064 5.85975L17.6251 3.64725C17.9251 1.54725 17.9345 1.416 17.7845 1.191C17.5876 0.881626 17.1564 0.787876 16.8001 0.975376C16.472 1.14413 16.4814 1.13475 16.2095 2.9535C16.097 3.72225 15.9751 4.39725 15.9376 4.43475C15.9001 4.48162 15.2907 4.08788 14.597 3.57225C13.5376 2.78475 13.2751 2.62537 12.9939 2.62537C12.5532 2.62537 12.2814 2.89725 12.2814 3.31913C12.2814 3.49725 12.3564 3.72225 12.4501 3.82537C12.5345 3.9285 13.3501 4.55663 14.2595 5.23162L15.9095 6.441L16.4345 7.73475C16.7345 8.44725 16.9595 9.03788 16.9501 9.04725C16.9314 9.05663 16.5939 9.23475 16.1907 9.441L15.4595 9.82537L14.3439 8.15662C13.7345 7.24725 13.1626 6.46912 13.0782 6.43163C12.5626 6.23475 12.0001 6.57225 12.0001 7.08788C12.0001 7.341 12.2251 7.7535 13.097 9.04725L14.1845 10.6879L13.9501 10.8754C13.8189 10.9691 13.5376 11.2035 13.3126 11.391C13.097 11.5691 12.8907 11.7191 12.8532 11.7191C12.8251 11.7191 12.3564 11.2785 11.8314 10.7535L10.8564 9.7785L10.3501 7.72538C10.0595 6.60038 9.76886 5.5785 9.70324 5.466C9.51574 5.18475 9.05636 5.10038 8.75636 5.29725C8.29699 5.59725 8.29699 5.73788 8.74699 7.50975L9.15949 9.15975L7.50949 8.74725C5.73761 8.29725 5.59699 8.29725 5.29699 8.75663C5.10011 9.05663 5.18449 9.516 5.46574 9.7035C5.57824 9.76913 6.60011 10.0597 7.72511 10.3504L9.77824 10.8566L10.7532 11.8316C11.2782 12.3566 11.7189 12.8254 11.7189 12.8535C11.7189 12.891 11.5689 13.0973 11.3907 13.3129C11.2032 13.5379 10.9689 13.8191 10.8751 13.9504L10.6876 14.1847L9.04699 13.0973C7.75324 12.2254 7.34074 12.0004 7.08761 12.0004C6.57199 12.0004 6.23449 12.5629 6.43136 13.0785C6.46886 13.1629 7.24699 13.7347 8.15636 14.3441L9.82511 15.4598L9.44074 16.191C9.23449 16.5941 9.05636 16.9316 9.04699 16.9504C9.03761 16.9598 8.44699 16.7348 7.73449 16.4348L6.44074 15.9098L5.23136 14.2598C4.55636 13.3504 3.92824 12.5348 3.82511 12.441C3.72199 12.3566 3.49699 12.2816 3.31886 12.2816C2.89699 12.2816 2.62511 12.5535 2.62511 12.9941C2.62511 13.2754 2.78449 13.5379 3.57199 14.5973C4.08761 15.291 4.48136 15.9004 4.43449 15.9379C4.39699 15.9754 3.73136 16.0972 2.95324 16.2098C1.13449 16.4816 1.14386 16.4722 0.975112 16.8004C0.787612 17.1566 0.881362 17.5879 1.19074 17.7847C1.41574 17.9348 1.54699 17.9254 3.64699 17.6254L5.85949 17.3066L7.07824 17.8129C7.75324 18.0848 8.32511 18.3379 8.36261 18.366C8.40011 18.3941 8.31574 18.7785 8.18449 19.2285L7.94074 20.0254L6.10324 19.6691C5.09074 19.4722 4.15324 19.3129 4.02199 19.3129C3.45011 19.3129 3.15949 20.1379 3.59074 20.5598C3.75949 20.7285 4.16261 20.841 5.74699 21.141C7.02199 21.3848 7.67824 21.5535 7.65011 21.6191C7.63136 21.6754 7.57511 22.0691 7.54699 22.491L7.47199 23.2504H6.08449H4.69699L2.83136 22.1254C0.853237 20.9348 0.581362 20.841 0.206362 21.1879C-0.0748879 21.4598 -0.0748879 22.0223 0.215737 22.2847C0.328237 22.3879 0.984487 22.8098 1.65949 23.2129C2.34386 23.616 2.90636 23.9722 2.90636 24.0004C2.90636 24.0285 2.34386 24.3848 1.65949 24.7879C0.984487 25.191 0.328237 25.6129 0.215737 25.716C-0.0748879 25.9785 -0.0748879 26.541 0.206362 26.8129C0.581362 27.1598 0.853237 27.066 2.83136 25.8754L4.69699 24.7504H6.08449H7.47199L7.54699 25.5098C7.57511 25.9316 7.63136 26.3254 7.65011 26.3816C7.67824 26.4473 7.02199 26.616 5.74699 26.8598C3.58136 27.2723 3.37511 27.366 3.37511 27.966C3.37511 28.341 3.69386 28.6879 4.04074 28.6879C4.16261 28.6879 5.09074 28.5285 6.10324 28.3316L7.94074 27.9754L8.18449 28.7723C8.31574 29.2223 8.40011 29.6066 8.36261 29.6348C8.32511 29.6629 7.75324 29.916 7.07824 30.1879L5.86886 30.6941L3.64699 30.3754C1.56574 30.0754 1.41574 30.066 1.20011 30.2066C0.750112 30.4972 0.787612 31.266 1.24699 31.4722C1.35949 31.5285 2.10949 31.6691 2.90636 31.7816C3.70324 31.8941 4.39699 32.0254 4.43449 32.0629C4.48136 32.1004 4.08761 32.7098 3.57199 33.4035C2.78449 34.4629 2.62511 34.7254 2.62511 35.0066C2.62511 35.4473 2.89699 35.7191 3.31886 35.7191C3.49699 35.7191 3.72199 35.6441 3.82511 35.5504C3.92824 35.466 4.55636 34.6504 5.23136 33.741L6.44074 32.091L7.73449 31.566C8.44699 31.266 9.03761 31.041 9.04699 31.0504C9.05636 31.0691 9.23449 31.4066 9.44074 31.8097L9.82511 32.541L8.15636 33.6566C7.24699 34.266 6.46886 34.8379 6.43136 34.9222C6.23449 35.4379 6.57199 36.0004 7.08761 36.0004C7.34074 36.0004 7.75324 35.7754 9.04699 34.9035L10.6876 33.816L10.8751 34.0504C10.9689 34.1816 11.2032 34.4629 11.3907 34.6879C11.5689 34.9035 11.7189 35.1097 11.7189 35.1473C11.7189 35.1754 11.2782 35.6441 10.7532 36.1691L9.77824 37.1441L7.72511 37.6504C6.60011 37.941 5.57824 38.2316 5.46574 38.2973C5.18449 38.4848 5.10011 38.9441 5.29699 39.2441C5.59699 39.7035 5.73761 39.7035 7.50949 39.2535L9.15949 38.841L8.74699 40.491C8.29699 42.2629 8.29699 42.4035 8.75636 42.7035C9.05636 42.9004 9.51574 42.816 9.70324 42.5348C9.76886 42.4223 10.0595 41.4004 10.3501 40.2754L10.8564 38.2222L11.8314 37.2473C12.3564 36.7222 12.8251 36.2816 12.8532 36.2816C12.8907 36.2816 13.097 36.4316 13.3126 36.6098C13.5376 36.7973 13.8189 37.0316 13.9501 37.1254L14.1845 37.3129L13.097 38.9535C12.2251 40.2473 12.0001 40.6598 12.0001 40.9129C12.0001 41.4285 12.5626 41.766 13.0782 41.5691C13.1626 41.5316 13.7345 40.7535 14.3439 39.8441L15.4595 38.1754L16.1907 38.5598C16.5939 38.766 16.9314 38.9441 16.9501 38.9535C16.9595 38.9629 16.7345 39.5535 16.4345 40.266L15.9095 41.5598L14.2595 42.7691C13.3501 43.4441 12.5345 44.0723 12.4407 44.1754C12.3564 44.2785 12.2814 44.5035 12.2814 44.6816C12.2814 45.1035 12.5532 45.3754 12.9939 45.3754C13.2751 45.3754 13.5376 45.216 14.597 44.4285C15.2907 43.9129 15.9001 43.5191 15.9376 43.566C15.9751 43.6035 16.1064 44.2973 16.2189 45.0941C16.3314 45.891 16.472 46.641 16.5282 46.7535C16.7345 47.2129 17.5032 47.2504 17.7939 46.8004C17.9345 46.5848 17.9251 46.4348 17.6251 44.3535L17.3064 42.141L17.8314 40.8754C18.122 40.1816 18.3939 39.6098 18.4407 39.6098C18.4782 39.6098 18.8532 39.7129 19.2751 39.8348L20.0251 40.0598L19.6689 41.8504C19.4814 42.8348 19.322 43.7723 19.3126 43.9316C19.3126 44.5129 20.0626 44.841 20.5314 44.4566C20.7001 44.316 20.8032 43.9598 21.1314 42.3285C21.347 41.241 21.5439 40.3691 21.5626 40.3691C21.5907 40.3785 21.9751 40.416 22.4345 40.4535L23.2501 40.5191V41.916V43.3035L22.1251 45.1691C20.9345 47.1473 20.8407 47.4191 21.1876 47.7941C21.4595 48.0754 22.022 48.0754 22.2845 47.7848C22.3876 47.6723 22.8095 47.016 23.2126 46.3316C23.6157 45.6566 23.972 45.0941 24.0001 45.0941C24.0282 45.0941 24.3845 45.6566 24.7876 46.3316C25.1907 47.016 25.6126 47.6723 25.7157 47.7848C25.9782 48.0754 26.5407 48.0754 26.8126 47.7941C27.1595 47.4191 27.0657 47.1473 25.8751 45.1691L24.7501 43.3035V41.916V40.5285L25.3876 40.4723C26.6157 40.3504 26.4376 40.1348 26.8595 42.3004C27.1595 43.8285 27.272 44.241 27.4407 44.4191C27.8814 44.8691 28.6876 44.541 28.6876 43.9129C28.6876 43.7629 28.5282 42.8348 28.3314 41.8504L27.9751 40.0598L28.772 39.816C29.2126 39.6848 29.6064 39.6004 29.6345 39.6379C29.6626 39.6754 29.9157 40.2473 30.1876 40.9223L30.6939 42.141L30.3751 44.3535C30.0751 46.4348 30.0657 46.5848 30.2064 46.8004C30.5064 47.2504 31.2657 47.2129 31.4814 46.7348C31.5376 46.6129 31.6782 45.8723 31.7907 45.0754C31.9032 44.2879 32.0251 43.6035 32.0626 43.566C32.1001 43.5191 32.7095 43.9129 33.4032 44.4285C34.4626 45.216 34.7251 45.3754 35.0064 45.3754C35.447 45.3754 35.7189 45.1035 35.7189 44.6816C35.7189 44.5035 35.6439 44.2785 35.5595 44.1754C35.4657 44.0723 34.6501 43.4441 33.7407 42.7691L32.0907 41.5598L31.5657 40.266C31.2657 39.5535 31.0407 38.9629 31.0501 38.9535C31.0689 38.9441 31.4064 38.766 31.8095 38.5598L32.5407 38.1754L33.6564 39.8441C34.2657 40.7535 34.8376 41.5316 34.922 41.5691C35.4376 41.766 36.0001 41.4285 36.0001 40.9129C36.0001 40.6598 35.7751 40.2473 34.9032 38.9535L33.8157 37.3129L34.0501 37.1254C34.1814 37.0316 34.4626 36.7973 34.6876 36.6098C34.9032 36.4316 35.1095 36.2816 35.147 36.2816C35.1751 36.2816 35.6439 36.7222 36.1689 37.2473L37.1439 38.2222L37.6501 40.2754C37.9407 41.4004 38.2314 42.4223 38.297 42.5348C38.4845 42.816 38.9439 42.9004 39.2439 42.7035C39.7032 42.4035 39.7032 42.2629 39.2532 40.491L38.8407 38.841L40.4907 39.2535C42.2626 39.7035 42.4032 39.7035 42.7032 39.2441C42.9001 38.9441 42.8157 38.4848 42.5345 38.2973C42.422 38.2316 41.4001 37.941 40.2751 37.6504L38.222 37.1441L37.247 36.1691C36.722 35.6441 36.2814 35.1754 36.2814 35.1473C36.2814 35.1097 36.4314 34.9035 36.6095 34.6879C36.797 34.4629 37.0314 34.1816 37.1251 34.0504L37.3126 33.816L38.9532 34.9035C40.247 35.7754 40.6595 36.0004 40.9126 36.0004C41.4282 36.0004 41.7657 35.4379 41.5689 34.9222C41.5314 34.8379 40.7532 34.266 39.8251 33.6473C38.6064 32.8316 38.1657 32.4941 38.2314 32.4097C38.5032 32.0816 39.3564 30.1879 39.6939 29.1566L40.0782 27.9754L41.8595 28.3223C42.8439 28.5191 43.772 28.6785 43.9314 28.6785C44.5407 28.6973 44.8595 27.8816 44.4189 27.441C44.2407 27.2723 43.8376 27.1598 42.2532 26.8598C40.9782 26.616 40.322 26.4473 40.3501 26.3816C40.3689 26.3254 40.4251 25.9316 40.4532 25.5098L40.5282 24.7504H41.9157H43.3032L45.1689 25.8754C46.4251 26.6254 47.1376 27.0004 47.3157 27.0004C47.9251 27.0004 48.2439 26.1285 47.7939 25.716C47.672 25.6129 47.0157 25.191 46.3407 24.7879C45.6564 24.3848 45.0939 24.0285 45.0939 24.0004C45.0939 23.9722 45.6564 23.616 46.3407 23.2129C47.0157 22.8098 47.672 22.3879 47.7939 22.2847C48.0751 22.0223 48.0751 21.4598 47.7939 21.1879C47.4189 20.841 47.147 20.9348 45.1689 22.1254L43.3032 23.2504H41.9157H40.5282L40.4532 22.491C40.4251 22.0691 40.3689 21.6754 40.3501 21.6191C40.322 21.5535 40.9782 21.3848 42.2532 21.141C43.8376 20.841 44.2407 20.7285 44.4189 20.5598C44.8689 20.1098 44.5407 19.3035 43.9126 19.3223C43.7626 19.3223 42.8439 19.4816 41.8595 19.6785L40.0782 20.0254L39.8251 19.2285C39.6845 18.7879 39.6001 18.3941 39.6376 18.366C39.6751 18.3379 40.247 18.0848 40.922 17.8129L42.1314 17.3066L44.3532 17.6254C46.4345 17.9254 46.5845 17.9348 46.8001 17.7941C47.2501 17.4941 47.2126 16.7348 46.7345 16.5191C46.6126 16.4629 45.872 16.3223 45.0751 16.2098C44.2876 16.0972 43.6032 15.9754 43.5657 15.9379C43.5189 15.9004 43.9126 15.291 44.4282 14.5973C45.2157 13.5379 45.3751 13.2754 45.3751 12.9941C45.3751 12.5535 45.1032 12.2816 44.6814 12.2816C44.5032 12.2816 44.2782 12.3566 44.1751 12.441C44.072 12.5348 43.4439 13.3504 42.7689 14.2598L41.5595 15.9098L40.2657 16.4348C39.5532 16.7348 38.9626 16.9598 38.9532 16.9504C38.9439 16.9316 38.7657 16.5941 38.5595 16.191L38.1751 15.4598L39.8439 14.3441C40.7532 13.7347 41.5314 13.1629 41.5689 13.0785C41.7657 12.5629 41.4282 12.0004 40.9126 12.0004C40.6595 12.0004 40.247 12.2254 38.9532 13.0973L37.3126 14.1847L37.1251 13.9504C37.0314 13.8191 36.797 13.5379 36.6095 13.3129C36.4314 13.0973 36.2814 12.891 36.2814 12.8535C36.2814 12.8254 36.722 12.3566 37.247 11.8316L38.222 10.8566L40.2751 10.3504C41.4001 10.0597 42.422 9.76913 42.5345 9.7035C42.8157 9.516 42.9001 9.05663 42.7032 8.75663C42.4032 8.29725 42.2626 8.29725 40.4907 8.74725L38.8407 9.15975L39.2532 7.50975C39.7032 5.73788 39.7032 5.59725 39.2439 5.29725C38.9439 5.10038 38.4845 5.18475 38.297 5.466C38.2314 5.5785 37.9407 6.60038 37.6501 7.72538L37.1439 9.7785L36.1689 10.7535C35.6439 11.2785 35.1751 11.7191 35.147 11.7191C35.1095 11.7191 34.9032 11.5691 34.6876 11.391C34.4626 11.2035 34.1814 10.9691 34.0501 10.8754L33.8157 10.6879L34.9032 9.04725C35.7751 7.7535 36.0001 7.341 36.0001 7.08788C36.0001 6.57225 35.4376 6.23475 34.922 6.43163C34.8376 6.46912 34.2657 7.24725 33.6564 8.15662L32.5407 9.82537L31.8095 9.441C31.4064 9.23475 31.0689 9.05663 31.0501 9.04725C31.0407 9.03788 31.2657 8.44725 31.5657 7.73475L32.0907 6.441L33.7407 5.23162C34.6501 4.55663 35.4657 3.9285 35.5595 3.82537C35.6439 3.72225 35.7189 3.49725 35.7189 3.31913C35.7189 2.89725 35.447 2.62537 35.0064 2.62537C34.7251 2.62537 34.4626 2.78475 33.4032 3.57225C32.7095 4.08788 32.1001 4.48162 32.0626 4.43475C32.0251 4.39725 31.9032 3.71288 31.7907 2.92538C31.6782 2.1285 31.5376 1.38787 31.4814 1.266C31.2657 0.787876 30.5064 0.750374 30.2064 1.20037C30.0657 1.416 30.0751 1.566 30.3751 3.64725L30.6939 5.85975L30.1876 7.0785C29.9157 7.7535 29.6626 8.32537 29.6345 8.36288C29.6064 8.40038 29.222 8.316 28.7814 8.18475L27.9751 7.941L28.3314 6.15038C28.5189 5.166 28.6782 4.2285 28.6876 4.06913C28.6876 3.45975 27.8814 3.141 27.4407 3.58163C27.272 3.75975 27.1595 4.17225 26.8595 5.691C26.4376 7.866 26.6157 7.65038 25.3876 7.5285L24.7501 7.47225V6.08475V4.69725L25.8751 2.83163C27.0657 0.8535 27.1595 0.581627 26.8126 0.206627C26.5407 -0.0746269 25.9782 -0.0746269 25.7157 0.206627C25.6126 0.328499 25.1907 0.984749 24.7876 1.65975C24.3845 2.34412 24.0282 2.90662 24.0001 2.90662C23.972 2.90662 23.6157 2.34412 23.2126 1.65975C22.8095 0.984749 22.3876 0.328499 22.2845 0.206627C22.022 -0.0746269 21.4595 -0.0746269 21.1876 0.206627ZM26.9814 9.27225C31.6314 10.3035 35.3532 13.1816 37.472 17.3816C37.9595 18.3566 38.4564 19.7816 38.7376 21.066C38.9157 21.8535 38.9439 22.266 38.9439 24.0004C38.9439 26.2504 38.8407 26.9441 38.2126 28.8285C36.7595 33.1504 33.1501 36.7598 28.8282 38.2129C26.9439 38.841 26.2501 38.9441 24.0001 38.9441C21.7782 38.9441 21.0564 38.841 19.2845 38.2504C14.8314 36.7598 11.2595 33.2066 9.78761 28.8285C9.15949 26.9441 9.05636 26.2504 9.05636 24.0004C9.05636 21.7504 9.15949 21.0566 9.78761 19.1723C11.447 14.2129 15.8626 10.3223 20.9907 9.291C22.3032 9.01913 22.3782 9.01913 24.3282 9.04725C25.697 9.07537 26.3157 9.12225 26.9814 9.27225Z" fill="#6E3D68"/>
<path d="M22.0971 10.5933C21.1221 10.7527 19.9877 11.0527 19.1065 11.3902C18.019 11.812 16.7158 12.5152 16.594 12.7495C16.3221 13.2652 16.669 13.8745 17.2315 13.8745C17.3908 13.8745 17.7471 13.7433 18.019 13.5839C20.7565 11.962 24.3565 11.5589 27.5346 12.5245C28.5658 12.8339 30.1971 13.6589 31.0971 14.3339C33.6471 16.2277 35.344 19.0027 35.8596 22.1152C36.1033 23.5777 36.019 25.462 35.6346 26.9527C34.2658 32.2589 29.4565 35.9995 24.0002 35.9995C22.069 35.9995 20.419 35.6058 18.6658 34.7339C12.9658 31.8745 10.4721 25.1527 12.9471 19.2933C13.3971 18.2339 14.0346 17.2214 14.9346 16.1527C15.8065 15.1027 15.8815 14.9058 15.5533 14.4933C15.4033 14.2964 15.2815 14.2495 14.9721 14.2495C14.6158 14.2495 14.5408 14.2964 14.044 14.8308C12.4408 16.5558 11.2783 18.8245 10.7346 21.2808C10.5283 22.2277 10.444 24.6652 10.5846 25.7152C11.4002 31.837 16.1533 36.5995 22.2846 37.4152C23.5408 37.5839 25.7815 37.4714 27.0096 37.1808C29.5315 36.5995 31.7346 35.3714 33.5533 33.5527C35.3815 31.7245 36.5908 29.5402 37.2002 26.962C37.4252 26.0152 37.444 25.7527 37.444 23.9995C37.444 22.2464 37.4252 21.9839 37.2002 21.037C36.5908 18.4589 35.3721 16.2558 33.5533 14.4464C31.7533 12.637 29.5315 11.4089 27.0096 10.8089C26.194 10.6214 25.7158 10.5745 24.3283 10.5464C23.4002 10.5277 22.3971 10.5464 22.0971 10.5933Z" fill="#6E3D68"/>
<path d="M21.4221 17.3448C20.0346 17.6261 18.6846 18.5917 17.9534 19.8386C17.2878 20.9729 17.0815 22.4636 17.419 23.7948C17.6815 24.8073 18.0753 25.5011 18.8346 26.2511C20.8784 28.2667 24.1596 28.2479 26.2034 26.2042C27.8346 24.5729 28.2003 22.1917 27.1596 20.0729C26.794 19.3229 25.8659 18.3479 25.1159 17.9261C24.1128 17.3636 22.5659 17.1198 21.4221 17.3448ZM24.0284 19.1073C24.844 19.4823 25.519 20.1573 25.9034 20.9823C26.1753 21.5542 26.2034 21.6948 26.2034 22.5011C26.2034 23.3073 26.1753 23.4479 25.9034 24.0198C25.519 24.8448 24.844 25.5198 24.019 25.9042C23.4471 26.1761 23.3065 26.2042 22.5003 26.2042C21.694 26.2042 21.5534 26.1761 20.9815 25.9042C20.1565 25.5198 19.4815 24.8448 19.0971 24.0198C18.8253 23.4479 18.7971 23.3073 18.7971 22.5011C18.7971 21.6948 18.8253 21.5542 19.0878 20.9917C19.5846 19.9417 20.2878 19.3229 21.4221 18.9104C22.1534 18.6479 23.2221 18.7323 24.0284 19.1073Z" fill="#6E3D68"/>
<path d="M44.2501 30.3853C43.2564 30.5447 42.3564 30.6384 42.1407 30.6103C40.9501 30.4416 40.997 30.4416 40.7907 30.6478C40.5939 30.8447 40.5376 31.2384 40.6501 31.5478C40.6876 31.6322 40.9126 31.8009 41.1564 31.9228C41.5407 32.1197 41.7845 32.4009 42.8814 33.8728C43.5845 34.8291 44.222 35.6353 44.3064 35.6634C44.8595 35.8791 45.3751 35.5697 45.3751 35.0072C45.3751 34.7259 45.2157 34.4634 44.4282 33.4041C43.9126 32.7103 43.5189 32.1009 43.5657 32.0634C43.6032 32.0259 44.297 31.8947 45.0939 31.7822C45.8907 31.6697 46.6407 31.5291 46.7532 31.4728C47.1939 31.2759 47.2501 30.5166 46.847 30.2353C46.5845 30.0478 46.2939 30.0666 44.2501 30.3853Z" fill="#6E3D68"/>
</g>
<defs>
<clipPath id="clip0_10231_9265">
<rect width="48" height="48" fill="white"/>
</clipPath>
</defs>
</svg>
