<svg width="30" height="29" viewBox="0 0 30 29" fill="none" xmlns="http://www.w3.org/2000/svg">
<path d="M9.74672 0.0196209C9.42172 0.113371 9.40297 0.182119 9.40297 1.46337C9.40297 2.50087 9.41547 2.66962 9.52172 2.87587C9.67797 3.18212 9.89672 3.38212 10.1967 3.48212L10.4342 3.56337L10.4655 4.61962C10.503 5.81337 10.5467 5.95087 10.9717 6.26337C11.1092 6.36337 11.3467 6.46337 11.4967 6.48837L11.7655 6.52587L12.1842 7.63212C12.4092 8.23837 12.6592 8.80712 12.7342 8.89462C12.9592 9.16962 13.3342 9.38212 13.6592 9.42587L13.9655 9.46962V9.85712C13.9655 10.2884 13.9342 10.3259 13.5592 10.3259C13.1967 10.3259 11.9217 10.5696 11.1717 10.7884C7.83422 11.7571 4.32797 14.2009 1.40922 17.6071C0.734217 18.3884 0.109217 19.2134 0.0342172 19.4009C-0.0657828 19.6634 0.0279672 19.8509 0.659217 20.6384C2.34047 22.7384 4.44047 24.7384 6.30922 26.0071C9.87797 28.4321 12.8967 29.2821 16.153 28.7884C18.2655 28.4696 20.8467 27.3509 22.8905 25.8759C24.703 24.5634 26.9967 22.3509 28.6092 20.3384C29.1905 19.6196 29.1842 19.5509 28.5217 18.7321C24.6342 13.9259 19.878 10.8071 15.6967 10.3196L15.028 10.2384V9.84462C15.028 9.45712 15.028 9.45087 15.203 9.45087C15.4967 9.45087 15.9342 9.26962 16.1467 9.06337C16.3967 8.81962 16.478 8.66337 16.7905 7.83212C16.928 7.46962 17.0967 7.02587 17.1592 6.85087C17.278 6.54462 17.2967 6.52587 17.553 6.48837C17.7092 6.46337 17.9467 6.36337 18.0842 6.26337C18.5092 5.95087 18.553 5.81337 18.5905 4.61337L18.6217 3.55087L18.7967 3.50712C19.078 3.43212 19.4092 3.14462 19.5342 2.86337C19.6342 2.64462 19.653 2.44462 19.653 1.44462C19.653 0.300871 19.653 0.28212 19.503 0.144621C19.303 -0.0428791 18.9405 -0.0491295 18.753 0.13212C18.6342 0.25712 18.6217 0.34462 18.603 1.31337C18.5905 1.91962 18.553 2.38837 18.5155 2.43212C18.4655 2.49462 17.6217 2.51337 14.5592 2.51337C12.4155 2.51337 10.6217 2.49462 10.5655 2.47587C10.478 2.44462 10.4655 2.28837 10.4655 1.42587C10.4655 0.75087 10.4405 0.369619 10.3842 0.269621C10.2842 0.0696201 9.99047 -0.0491295 9.74672 0.0196209ZM17.528 4.43837C17.528 5.02587 17.503 5.32587 17.453 5.37587C17.3467 5.48212 11.7092 5.48212 11.603 5.37587C11.553 5.32587 11.528 5.02587 11.528 4.43837V3.57587H14.528H17.528V4.43837ZM16.0905 6.56962C16.0905 6.73837 15.4967 8.18837 15.3905 8.27587C15.2842 8.36962 15.1405 8.38837 14.528 8.38837C13.9155 8.38837 13.7717 8.36962 13.6655 8.27587C13.5905 8.21962 13.3967 7.79462 13.228 7.33837L12.9155 6.51337H14.503C15.3905 6.51337 16.0905 6.53837 16.0905 6.56962ZM14.028 12.4196V13.5134H13.7155C12.953 13.5134 10.7405 13.8759 9.65922 14.1759C8.89672 14.3884 7.70922 14.7884 6.96547 15.0884C6.22172 15.3946 4.53422 16.2009 4.10922 16.4634C3.99672 16.5321 3.90297 16.5696 3.90297 16.5571C3.90297 16.5071 5.20297 15.3634 5.80922 14.8821C7.25922 13.7259 9.34047 12.5384 10.778 12.0446C11.8405 11.6759 13.053 11.4071 13.953 11.3321C14.0092 11.3259 14.028 11.5821 14.028 12.4196ZM15.6717 11.3946C18.1405 11.7634 20.9405 13.1259 23.553 15.2259C24.478 15.9759 24.4592 16.0009 23.3342 15.4571C20.778 14.2196 18.6905 13.6884 15.578 13.4759L15.028 13.4384V12.3821C15.028 11.4696 15.0405 11.3259 15.128 11.3259C15.178 11.3259 15.428 11.3571 15.6717 11.3946ZM14.0155 15.0259L13.9967 15.5946L13.603 15.6759C12.503 15.9009 11.4592 16.7321 10.9342 17.7946C10.6342 18.4009 10.528 18.8759 10.528 19.5759C10.528 20.3259 10.653 20.8384 10.9655 21.4509C12.0655 23.5634 14.778 24.2509 16.7717 22.9259C17.5717 22.3946 18.2217 21.4759 18.4342 20.5696C18.5405 20.0946 18.5467 19.0384 18.4405 18.6384C18.378 18.3821 18.3842 18.3321 18.528 18.0509C18.8717 17.3634 18.728 16.3946 18.1905 15.8571C17.7905 15.4634 17.403 15.3009 16.8405 15.2946C16.4342 15.2946 16.3092 15.3259 15.9655 15.4946C15.628 15.6571 15.5155 15.6821 15.3092 15.6446L15.0592 15.6071L15.0405 15.0196L15.0217 14.4321L15.6655 14.4759C17.053 14.5696 17.3405 14.6259 17.7155 14.8696C18.3842 15.3134 19.103 16.0884 19.5155 16.8259C20.3592 18.3259 20.4592 20.2321 19.7842 21.8259C19.0842 23.4696 17.5342 24.7696 15.8092 25.1571C14.778 25.3884 13.8217 25.3509 12.8155 25.0321C10.9655 24.4509 9.53422 22.9696 9.02172 21.1009C8.58422 19.5134 8.87797 17.7384 9.79672 16.3884C10.0592 16.0009 10.7405 15.3009 11.1342 15.0009C11.428 14.7884 11.528 14.7509 12.103 14.6634C12.453 14.6134 12.9967 14.5446 13.3092 14.5196C13.6155 14.4884 13.9092 14.4634 13.953 14.4571C14.0155 14.4509 14.028 14.5884 14.0155 15.0259ZM20.3405 15.3634C21.928 15.8759 23.7967 16.7946 25.3717 17.8446C25.9217 18.2134 27.1717 19.1446 27.578 19.4946L27.7842 19.6696L27.1405 20.4196C24.8905 23.0321 22.3592 25.1634 20.1842 26.2759C16.2155 28.3009 12.9592 28.3821 9.37172 26.5446C7.39047 25.5321 6.16547 24.6759 4.43422 23.0946C3.47172 22.2196 2.08422 20.7134 1.35297 19.7509C1.27797 19.6634 1.34047 19.5946 1.85297 19.1946C3.85922 17.6384 6.30297 16.3196 8.60922 15.5384C8.94047 15.4259 9.19672 15.3696 9.17172 15.4071C9.14047 15.4509 9.01547 15.6446 8.88422 15.8446C8.53422 16.3696 8.18422 17.1446 7.99047 17.7946C7.76547 18.5446 7.70922 20.0009 7.86547 20.8446C8.13422 22.2571 8.78422 23.4571 9.82797 24.4634C10.678 25.2821 11.553 25.7946 12.603 26.1009C15.3467 26.8946 18.2342 25.9384 19.9655 23.6634C20.378 23.1196 20.9217 22.0009 21.0842 21.3696C21.3842 20.2196 21.3842 18.9884 21.0905 17.8571C20.9217 17.2134 20.378 16.1009 19.9717 15.5634C19.7967 15.3321 19.6842 15.1509 19.728 15.1634C19.7717 15.1821 20.0467 15.2696 20.3405 15.3634ZM17.2592 16.4821C17.9405 16.9321 17.653 18.0134 16.8467 18.0259C16.3342 18.0321 15.928 17.6009 15.9905 17.1134C16.0655 16.4821 16.7467 16.1446 17.2592 16.4821ZM14.028 18.1634V19.6321L14.1905 19.7571C14.403 19.9259 14.653 19.9259 14.8655 19.7571C15.028 19.6321 15.028 19.6259 15.028 18.7759V17.9259L15.203 18.2071C15.5717 18.7821 16.103 19.0884 16.7717 19.0884C17.003 19.0946 17.253 19.0759 17.328 19.0509C17.4655 19.0071 17.4655 19.0134 17.4655 19.5321C17.4655 20.4134 17.1905 21.0759 16.578 21.6884C15.6967 22.5696 14.378 22.7884 13.2467 22.2321C12.1592 21.7009 11.5467 20.6571 11.603 19.4259C11.6217 18.9259 11.653 18.7946 11.853 18.3884C12.2155 17.6259 12.7092 17.1571 13.4655 16.8446C14.0717 16.5946 14.028 16.4946 14.028 18.1634Z" fill="white"/>
</svg>
