<svg width="28" height="28" viewBox="0 0 28 28" fill="none" xmlns="http://www.w3.org/2000/svg">
<path d="M13.25 5.36484C12.8508 5.51797 12.4516 5.89531 12.2492 6.31094L12.0797 6.65547L11.7188 6.475C11.2484 6.23984 10.707 6.14688 10.2422 6.22344C9.54766 6.33828 8.89141 6.75938 8.54688 7.30625C8.45937 7.4375 8.38281 7.54141 8.36641 7.53047C7.92344 7.26797 7.66094 7.19141 7.19062 7.19141C6.74219 7.19141 6.66016 7.20781 6.33203 7.37188C5.92734 7.56875 5.60469 7.89688 5.40234 8.30156C5.29297 8.52578 5.27656 8.65703 5.26016 9.30781L5.23828 10.0625H13.9992H22.7602L22.7383 9.30781C22.7219 8.65703 22.7055 8.52578 22.5961 8.30156C22.3937 7.89688 22.0711 7.56875 21.6664 7.37188C21.3383 7.20781 21.2563 7.19141 20.8078 7.19141C20.3375 7.19141 20.075 7.26797 19.632 7.53047C19.6156 7.54141 19.5391 7.4375 19.4516 7.30625C19.107 6.75938 18.4508 6.33828 17.7562 6.22344C17.2914 6.14688 16.75 6.23984 16.2797 6.475L15.9187 6.65547L15.7492 6.31094C15.5414 5.88984 15.1422 5.51797 14.732 5.36484C14.3273 5.21172 13.6492 5.21172 13.25 5.36484Z" fill="white"/>
<path d="M3.59844 11.5117C3.47266 11.5992 3.36875 11.7305 3.31406 11.8781C3.20469 12.168 1.75 21.4977 1.75 21.8914C1.75 22.2305 1.88672 22.482 2.14375 22.6406C2.32422 22.75 2.44453 22.75 14 22.75C25.5555 22.75 25.6758 22.75 25.8562 22.6406C26.1133 22.482 26.25 22.225 26.25 21.9023C26.25 21.7492 25.9164 19.4742 25.5063 16.8438C24.7023 11.6484 24.7078 11.6703 24.3359 11.4734C24.1555 11.3805 23.7016 11.375 13.9727 11.375H3.80078L3.59844 11.5117ZM8.68437 14.2461C9.17109 14.5086 9.49375 14.968 9.55391 15.482L9.58672 15.75H14H18.4133L18.4461 15.482C18.5063 14.968 18.8289 14.5141 19.3156 14.2406C19.5781 14.0984 19.6547 14.082 20.125 14.082C20.557 14.082 20.6828 14.1039 20.8742 14.2078C21.2188 14.3883 21.4539 14.6125 21.6344 14.9406C21.7766 15.2031 21.793 15.2797 21.793 15.75C21.793 16.3133 21.7437 16.45 21.4211 16.8547L21.257 17.0625L21.4211 17.2648C21.7437 17.675 21.793 17.8117 21.793 18.375C21.793 18.8453 21.7766 18.9219 21.6344 19.1844C21.4539 19.5125 21.2188 19.7367 20.8742 19.9172C20.6828 20.0211 20.557 20.043 20.125 20.043C19.6547 20.043 19.5781 20.0266 19.3156 19.8844C18.8289 19.6109 18.5063 19.157 18.4461 18.643L18.4133 18.375H14H9.58672L9.55391 18.643C9.49375 19.157 9.17109 19.6109 8.68437 19.8844C8.42188 20.0266 8.34531 20.043 7.875 20.043C7.40469 20.043 7.32812 20.0266 7.06562 19.8844C6.7375 19.7039 6.51328 19.4688 6.33281 19.1242C6.22891 18.9328 6.20703 18.807 6.20703 18.375C6.20703 17.8117 6.25078 17.675 6.57891 17.2648L6.74297 17.057L6.57891 16.8547C6.31094 16.5211 6.21797 16.2914 6.19062 15.8867C6.16328 15.4219 6.23438 15.132 6.46953 14.782C6.65 14.5086 7.05469 14.2023 7.35 14.1094C7.44297 14.082 7.71641 14.0656 7.95703 14.0711C8.31797 14.0875 8.44375 14.1148 8.68437 14.2461Z" fill="white"/>
</svg>
