<svg width="25" height="28" viewBox="0 0 25 28" fill="none" xmlns="http://www.w3.org/2000/svg">
<path d="M1.33125 0.078125C0.7875 0.278125 0.375 0.678125 0.1125 1.26562C0.01875 1.47813 0 1.69687 0 2.82812C0 4.13437 0 4.14062 0.175 4.49063C0.375 4.90312 0.79375 5.31562 1.20625 5.50312L1.5 5.64062H12.0938H22.6875L23.0125 5.49062C23.4 5.31562 23.8625 4.84688 24.05 4.43437C24.175 4.15937 24.1875 4.04688 24.1875 2.82812C24.1875 1.54063 24.1875 1.50938 24.025 1.16563C23.8188 0.734375 23.4688 0.371875 23.0562 0.165625L22.75 0.015625L12.1562 0.00312471C3.29375 -0.00312519 1.525 0.0093751 1.33125 0.078125Z" fill="white"/>
<path d="M3.0624 6.93437C3.10615 7.29062 3.40615 10.0531 3.40615 10.1531C3.40615 10.2156 3.76865 10.2344 5.14365 10.2344C7.0249 10.2344 7.35615 10.2781 8.01865 10.5906C8.4874 10.8094 8.9874 11.2844 9.1499 11.6781C9.28115 11.9781 9.2874 12.0469 9.26865 14.7219C9.2499 17.8094 9.26865 17.6781 8.74365 18.1969C8.39365 18.5406 7.99365 18.7531 7.40615 18.9156C7.00615 19.0281 6.7624 19.0469 5.64365 19.0469H4.3499L4.38115 19.2469C4.39365 19.3594 4.48115 20.1281 4.56865 20.9531C4.6499 21.7781 4.75615 22.5656 4.7874 22.7031C5.05615 23.7094 5.9874 24.5219 7.04365 24.6719C7.2624 24.7031 9.0374 24.7344 10.9937 24.7344C14.3124 24.7344 14.5437 24.7281 14.5062 24.6281C14.4124 24.3906 14.3937 23.5281 14.4624 23.0656C14.7499 21.2844 16.2187 18.5219 18.2124 16.0344C18.7062 15.4156 19.0374 15.2156 19.5624 15.2219C19.7437 15.2219 19.9562 15.2594 20.0312 15.2969C20.1062 15.3344 20.1812 15.3531 20.1999 15.3344C20.2187 15.3156 20.4249 13.4781 20.6624 11.2531C20.8937 9.02812 21.1062 7.08438 21.1249 6.93437L21.1624 6.67188H12.0937H3.0249L3.0624 6.93437Z" fill="white"/>
<path d="M3.53125 11.2344C3.53125 11.3219 3.76875 13.5469 3.81875 13.9031L3.85 14.1719H6.1H8.34375V13.0969V12.0281L8.0625 11.7594C7.86875 11.5656 7.6625 11.4531 7.3625 11.3531C6.975 11.2281 6.78125 11.2094 5.2375 11.1844C3.96875 11.1656 3.53125 11.1781 3.53125 11.2344Z" fill="white"/>
<path d="M3.975 15.3094C3.975 15.4219 4.0375 16.0906 4.1125 16.7969L4.25 18.0781H5.59375C7.0625 18.0781 7.38125 18.0219 7.88125 17.6969C8.31875 17.4156 8.34375 17.3219 8.34375 16.1469V15.1094H6.15625H3.96875L3.975 15.3094Z" fill="white"/>
<path d="M19.2939 16.2182C19.1876 16.262 18.2314 17.5307 17.6126 18.4557C16.2939 20.4245 15.4751 22.2182 15.3689 23.3432C15.2876 24.1932 15.5439 25.262 16.0126 26.062C16.4564 26.8182 17.3126 27.4932 18.2189 27.8057C18.7814 27.9995 19.9001 28.0432 20.5439 27.8995C22.8814 27.3807 24.2314 24.9182 23.5751 22.3557C23.1251 20.612 21.9314 18.5932 20.1126 16.5182C19.8501 16.2182 19.5564 16.112 19.2939 16.2182ZM20.5439 20.437C21.1251 21.0682 21.5126 21.8557 21.5751 22.5245C21.6064 22.887 21.6001 22.9432 21.4689 23.0807C21.2001 23.3682 20.7689 23.2245 20.6876 22.8182C20.5126 21.9807 20.3689 21.6745 19.9439 21.1745C19.6126 20.7932 19.5751 20.5495 19.7939 20.3182C20.0126 20.087 20.2564 20.1245 20.5439 20.437Z" fill="white"/>
</svg>
