<svg width="24" height="24" viewBox="0 0 24 24" fill="none" xmlns="http://www.w3.org/2000/svg">
<g clip-path="url(#clip0_9893_11992)">
<path d="M11.1281 0.0935936C9.79219 0.440468 8.75625 1.65922 8.64375 3.01859L8.61094 3.36547L8.38594 3.53891C7.39687 4.29359 6.58594 5.77953 6.4125 7.15297C6.36562 7.53266 6.36562 7.59828 6.43594 7.7014C6.57656 7.92172 6.98437 7.90297 7.07344 7.67797C7.09687 7.61703 7.14844 7.35453 7.19062 7.09203C7.47187 5.24516 8.84062 3.71234 10.7109 3.15453C11.1047 3.03734 11.1937 3.02797 12 3.02797C12.8109 3.02797 12.8953 3.03734 13.2891 3.15453C15.0047 3.67484 16.2469 4.93109 16.7156 6.62328C16.8141 6.97953 16.8422 7.19047 16.8609 7.83734L16.8891 8.62484H16.4625C16.0828 8.62484 16.0219 8.61547 15.9047 8.51234C15.7828 8.40922 15.7734 8.36703 15.7453 7.93109C15.7219 7.56547 15.6844 7.39672 15.5906 7.19047C15.4406 6.86703 15.2016 6.56703 14.9531 6.3889C14.85 6.31859 14.7656 6.24828 14.7656 6.23422C14.7656 6.22016 14.8406 6.16859 14.9344 6.11703C15.3703 5.88266 15.5016 5.57328 15.2672 5.35297C15.1078 5.20297 14.9062 5.22172 14.6156 5.40922C13.1297 6.35141 11.2875 7.04984 9.37969 7.38266C8.85469 7.47172 8.67187 7.52328 8.55469 7.61234C8.37656 7.74828 8.25 7.99203 8.25 8.20297C8.25 8.30609 8.20781 8.39516 8.11406 8.48891C7.98281 8.62016 7.95937 8.62484 7.5375 8.62484C7.01719 8.62484 6.82969 8.67172 6.52969 8.87328C6.36562 8.98578 6.26719 9.09828 6.15469 9.31859C5.70937 10.1858 6.24844 11.1327 7.24687 11.2358L7.49531 11.2639L7.55156 11.5967C7.75312 12.8202 8.49375 13.978 9.46875 14.6061L9.75 14.7889V15.492C9.75 16.2889 9.7125 16.4764 9.525 16.6545C9.44062 16.7389 8.74687 17.0577 7.63594 17.5358C6.67031 17.9483 5.76094 18.3514 5.61094 18.4311C5.12812 18.6889 4.67812 19.2842 4.55156 19.8327C4.52344 19.9545 4.5 20.8264 4.5 21.9233C4.5 23.7514 4.50469 23.817 4.59375 23.9061C4.725 24.0373 5.01562 24.0327 5.1375 23.9014C5.22187 23.8077 5.22656 23.6858 5.25 21.8717L5.27344 19.9452L5.41406 19.692C5.65312 19.2608 5.84062 19.1389 7.10156 18.5952L8.25 18.103V19.1717V20.2405L7.5375 20.2592C6.74062 20.278 6.59062 20.3248 6.29531 20.6342C6.02344 20.9155 6 21.028 6 22.1483C6 23.2639 6.02344 23.3764 6.29531 23.667C6.49687 23.878 6.76875 23.9998 7.06406 23.9998C7.27031 23.9998 7.32187 23.9811 7.40156 23.878C7.45781 23.8077 7.5 23.7045 7.5 23.6483C7.5 23.4842 7.33594 23.3108 7.13906 23.2733C7.04062 23.2592 6.91406 23.1983 6.85781 23.142C6.75469 23.0483 6.75 23.0202 6.75 22.1483V21.2483L6.87187 21.1358L6.99375 21.0233H8.63437H10.275L10.3875 21.1545C10.4953 21.2811 10.5 21.3045 10.5 22.1389C10.5 23.1373 10.4906 23.1608 10.1016 23.278C9.95625 23.3202 9.825 23.3905 9.79687 23.4373C9.72187 23.5827 9.74531 23.7889 9.84844 23.9014C9.9375 23.9998 9.98437 24.0092 10.2469 23.9905C10.5844 23.9717 10.8656 23.8123 11.0484 23.5358C11.2312 23.2639 11.2594 23.0623 11.2406 22.0358C11.2266 21.1498 11.2172 21.0561 11.1234 20.8827C10.8656 20.3998 10.6031 20.2873 9.69375 20.2592L9 20.2405V19.3077C9 18.7967 9.00937 18.3748 9.02344 18.3748C9.0375 18.3748 9.61406 18.7545 10.3078 19.2139C12.0937 20.4045 11.9062 20.4045 13.6922 19.2139C14.3859 18.7545 14.9625 18.3748 14.9766 18.3748C14.9906 18.3748 15 18.9842 15 19.7248V21.0795L14.8172 21.1358C14.55 21.2108 14.1469 21.5998 14.0109 21.8998C13.8562 22.2514 13.8562 22.7952 14.0109 23.1467C14.1516 23.4561 14.5406 23.8217 14.8406 23.9248C15.15 24.028 15.6422 24.0233 15.9516 23.9061C16.2562 23.7936 16.5891 23.4795 16.7437 23.1655C16.9031 22.842 16.8984 22.1998 16.7391 21.8717C16.5891 21.5623 16.3125 21.2998 16.0031 21.1545L15.75 21.042V19.5702V18.103L16.1156 18.2577C17.4328 18.8155 18.0422 19.0967 18.1875 19.2092C18.3937 19.3733 18.6375 19.7342 18.7031 19.9592C18.7312 20.0623 18.75 20.8545 18.75 21.942C18.75 23.7045 18.7547 23.7561 18.8484 23.878C18.9703 24.0373 19.2609 24.0514 19.4062 23.9061C19.5047 23.8077 19.5047 23.7702 19.4906 21.8061L19.4766 19.8045L19.3031 19.4436C19.1109 19.0358 18.7875 18.6655 18.4734 18.478C18.3562 18.4077 17.4281 17.9905 16.4109 17.5545C14.7328 16.8327 14.55 16.7389 14.4187 16.5795L14.2734 16.3967L14.2594 15.5952L14.2453 14.7889L14.4469 14.6623C15.5156 13.9967 16.2656 12.792 16.4766 11.4233C16.5047 11.2592 16.5141 11.2498 16.6828 11.2498C17.1562 11.2498 17.6531 10.9452 17.8687 10.5233C18.0234 10.2327 18.0375 9.73578 17.9062 9.43578C17.85 9.30453 17.7656 9.15922 17.7141 9.11234C17.6344 9.03734 17.625 8.95766 17.625 8.22172C17.625 7.77641 17.6016 7.25141 17.5734 7.04984C17.3953 5.75141 16.6312 4.36859 15.6703 3.58578L15.3891 3.36078L15.3562 3.0139C15.2437 1.64984 14.2031 0.43578 12.8531 0.0889053C12.3844 -0.0282822 11.5922 -0.0282822 11.1281 0.0935936ZM12.6094 0.801405C13.3266 0.965467 14.0016 1.5139 14.3344 2.20765C14.4375 2.42328 14.5359 2.66234 14.5547 2.73265L14.5828 2.8639L14.3812 2.76078C14.1375 2.63422 13.7719 2.50766 13.3125 2.38578C12.7875 2.24516 11.6391 2.21234 11.0297 2.32016C10.5187 2.40922 9.98437 2.57797 9.64219 2.75141L9.41719 2.8639L9.44531 2.73265C9.46406 2.66234 9.5625 2.42328 9.66562 2.20765C9.99375 1.52797 10.6734 0.965467 11.3719 0.801405C11.625 0.745155 12.3516 0.740467 12.6094 0.801405ZM14.3719 6.91391C14.7891 7.16234 14.9531 7.46703 15 8.10922C15.0375 8.59672 15.1266 8.84047 15.3609 9.05141C15.6094 9.28578 15.7875 9.34203 16.3359 9.37016C16.8797 9.40297 16.9969 9.44047 17.1516 9.63734C17.3062 9.83422 17.2828 10.0873 17.0906 10.2983L16.9312 10.4764L16.4297 10.4998C15.825 10.528 15.75 10.5842 15.75 11.0014C15.75 11.5873 15.4969 12.3795 15.1406 12.9139C13.9781 14.6577 11.6906 15.1405 9.95625 14.0108C8.95312 13.3545 8.37187 12.3608 8.25469 11.0998C8.20312 10.542 8.15625 10.4998 7.63594 10.4998C7.21406 10.4998 6.99844 10.4295 6.85312 10.242C6.675 10.017 6.74531 9.63266 7.00312 9.46391C7.06406 9.42172 7.29844 9.38891 7.64062 9.37016C8.05781 9.35141 8.22187 9.32328 8.36719 9.24828C8.7 9.07484 8.92031 8.76547 8.98125 8.39516C9.00937 8.22172 9.02344 8.20297 9.18281 8.17953C10.7531 7.9264 12.0422 7.5514 13.2187 7.00297C13.8328 6.72172 14.0156 6.70297 14.3719 6.91391ZM10.9687 15.2717C11.1844 15.3233 11.4844 15.3467 12 15.3467C12.6891 15.3514 12.8859 15.3233 13.4156 15.1592C13.4812 15.1405 13.4953 15.2108 13.5094 15.8295C13.5234 16.4717 13.5328 16.542 13.65 16.7811C13.8094 17.1045 14.0578 17.3483 14.4047 17.517L14.6766 17.653L13.3969 18.5061C12.6047 19.0358 12.0703 19.3592 12 19.3592C11.9297 19.3592 11.3953 19.0358 10.6031 18.5061L9.32344 17.653L9.61875 17.503C9.96094 17.3295 10.2281 17.0577 10.3734 16.7389C10.4578 16.5561 10.4766 16.4155 10.4906 15.8295C10.5047 15.2061 10.5187 15.1358 10.5844 15.1639C10.6312 15.178 10.8 15.2295 10.9687 15.2717ZM15.7875 21.8998C16.0969 22.092 16.2141 22.5467 16.0266 22.8702C15.8953 23.1045 15.7266 23.2123 15.4641 23.2405C15.1828 23.2686 14.9953 23.1936 14.8125 22.9873C14.5547 22.692 14.5781 22.2795 14.8687 21.9983C15.1359 21.7405 15.4687 21.7077 15.7875 21.8998Z" fill="white"/>
<path d="M9.86719 9.49219C9.76406 9.59062 9.75 9.64687 9.75 9.9375C9.75 10.2281 9.76406 10.2844 9.86719 10.3828C9.9375 10.4578 10.0359 10.5 10.125 10.5C10.2141 10.5 10.3125 10.4578 10.3828 10.3828C10.4859 10.2844 10.5 10.2281 10.5 9.9375C10.5 9.64687 10.4859 9.59062 10.3828 9.49219C10.3125 9.41719 10.2141 9.375 10.125 9.375C10.0359 9.375 9.9375 9.41719 9.86719 9.49219Z" fill="white"/>
<path d="M13.6172 9.49219C13.5141 9.59062 13.5 9.64687 13.5 9.9375C13.5 10.2281 13.5141 10.2844 13.6172 10.3828C13.6875 10.4578 13.7859 10.5 13.875 10.5C13.9641 10.5 14.0625 10.4578 14.1328 10.3828C14.2359 10.2844 14.25 10.2281 14.25 9.9375C14.25 9.64687 14.2359 9.59062 14.1328 9.49219C14.0625 9.41719 13.9641 9.375 13.875 9.375C13.7859 9.375 13.6875 9.41719 13.6172 9.49219Z" fill="white"/>
<path d="M10.6172 11.7416C10.125 12.2291 11.2641 12.8759 12.3563 12.7166C12.7594 12.6603 13.2563 12.4353 13.4063 12.2478C13.5328 12.0837 13.5281 11.8822 13.3828 11.7416C13.2375 11.5916 13.0547 11.5916 12.8438 11.7369C12.3422 12.0744 11.6672 12.0837 11.175 11.7462C10.9453 11.5916 10.7672 11.5916 10.6172 11.7416Z" fill="white"/>
<path d="M2.22656 10.542C1.80469 10.6451 1.33594 11.0717 1.2 11.4701C1.09219 11.7889 1.09219 13.8373 1.2 14.2076C1.33594 14.667 1.58438 15.0701 1.93125 15.3982L2.25469 15.7029L2.24063 16.1576L2.22656 16.6076L1.40156 16.8842C0.740625 17.1045 0.534375 17.1936 0.375 17.3295C0.0046875 17.6482 0 17.6576 0 19.5326C0 21.1264 0.0046875 21.192 0.09375 21.2811C0.20625 21.3936 0.454688 21.4076 0.590625 21.3092C0.675 21.2436 0.679688 21.1592 0.703125 19.6404L0.726562 18.0373L0.853125 17.9295C0.91875 17.8732 1.26562 17.7279 1.6125 17.6107L2.25 17.3951V18.2529V19.1107L1.91719 19.1342C1.55156 19.1623 1.40625 19.2373 1.23281 19.4998C1.13438 19.6404 1.125 19.7107 1.125 20.2686C1.125 20.7982 1.13906 20.9014 1.21875 21.0373C1.34531 21.2436 1.575 21.3748 1.80938 21.3748C2.07188 21.3748 2.2125 21.2576 2.21719 21.0373C2.22188 20.8498 2.14688 20.7279 1.98281 20.667C1.88438 20.6295 1.875 20.6014 1.875 20.2498V19.8748H2.625H3.375V20.2498C3.375 20.6107 3.37031 20.6248 3.25781 20.6529C3.10313 20.6904 3 20.8404 3 21.0326C3 21.4967 3.66094 21.492 4.00313 21.0326C4.09219 20.9107 4.10156 20.8357 4.10156 20.2826C4.10156 19.7295 4.09219 19.6451 3.99844 19.4998C3.85781 19.2701 3.65156 19.1623 3.3 19.1342L3 19.1107V18.5295V17.9482L3.20625 18.0982C3.42188 18.2482 3.73125 18.3186 3.95625 18.2623C4.02188 18.2482 4.32656 18.042 4.63594 17.8123C5.16094 17.4186 5.2125 17.3951 5.32969 17.442C5.56406 17.5311 5.775 17.5076 5.89219 17.367C6.11719 17.1045 5.97656 16.8467 5.53594 16.7107L5.25 16.6264V16.1623V15.6982L5.56875 15.3842C5.90625 15.042 6.12656 14.6764 6.26719 14.2264C6.3375 13.9873 6.35156 13.7764 6.35156 12.792V11.6389L6.1875 11.3154C6.07031 11.0857 5.95781 10.9451 5.78906 10.8186C5.39531 10.5186 5.26875 10.4998 3.73125 10.5045C2.98125 10.5092 2.30625 10.5232 2.22656 10.542ZM5.2125 11.3529C5.5125 11.5217 5.59688 11.7092 5.61563 12.267L5.63438 12.7451L5.45625 12.7217C4.84688 12.6326 4.12969 12.3514 3.57656 11.9811C3.0375 11.6248 2.82188 11.6389 2.24531 12.0748L1.89844 12.3326L1.88438 12.1123C1.86563 11.8217 1.89375 11.7092 2.04844 11.5264C2.26875 11.2639 2.33906 11.2545 3.74531 11.2498C4.98281 11.2498 5.03438 11.2545 5.2125 11.3529ZM3.32813 12.7311C3.88594 13.0873 4.59844 13.3545 5.24531 13.4482C5.43281 13.4717 5.59688 13.5045 5.61094 13.5186C5.625 13.5326 5.60156 13.6967 5.55938 13.8889C5.42813 14.4748 5.06719 14.9248 4.50938 15.1967C4.22344 15.3373 4.1625 15.3514 3.75 15.3514C3.17344 15.3467 2.87344 15.2342 2.48438 14.8732C2.10938 14.5264 1.91719 14.1373 1.88438 13.6686L1.86563 13.3217L2.39531 12.9186C2.69063 12.6982 2.94375 12.5154 2.9625 12.5154C2.98125 12.5154 3.14531 12.6139 3.32813 12.7311ZM3.72656 16.1014C3.96094 16.1014 4.22813 16.0826 4.32188 16.0639L4.49531 16.0264L4.50938 16.4811L4.52344 16.9357L4.12969 17.2357L3.73594 17.5311L3.59063 17.4232C3.51094 17.3623 3.33281 17.2311 3.19688 17.1279C2.94844 16.9451 2.94375 16.9451 2.97188 16.7389C2.98594 16.6264 3 16.4201 3 16.2842V16.0311L3.15469 16.0686C3.23438 16.0873 3.49688 16.1014 3.72656 16.1014Z" fill="white"/>
<path d="M19.0641 10.5467C18.3656 10.7202 17.8219 11.3014 17.6672 12.0374C17.5875 12.4264 17.6344 13.9124 17.7422 14.2499C17.8781 14.6811 18.1031 15.0514 18.4359 15.3796L18.75 15.6936V16.1577V16.6264L18.4641 16.7108C18.0234 16.8467 17.8828 17.1046 18.1078 17.3671C18.225 17.5077 18.4359 17.5311 18.6703 17.4421C18.7875 17.3952 18.8391 17.4186 19.3641 17.8124C19.6734 18.0421 19.9781 18.2483 20.0437 18.2624C20.1094 18.2811 20.2547 18.2811 20.3719 18.2671C20.5734 18.2483 20.6766 18.1921 21.1547 17.8311L21.375 17.6624V18.4311V19.1952L21.1875 19.303C20.8172 19.5139 20.5875 20.0108 20.6531 20.4421C20.7937 21.3139 21.9 21.6889 22.5422 21.0796C23.025 20.6202 22.9781 19.753 22.4391 19.3592C22.3359 19.2842 22.2187 19.2186 22.1859 19.2186C22.1391 19.2186 22.125 19.0358 22.125 18.3702C22.125 17.7092 22.1391 17.5264 22.1859 17.5405C22.2141 17.5546 22.4156 17.6202 22.6312 17.6952C22.8469 17.7655 23.0766 17.8686 23.1469 17.9296L23.2734 18.0374L23.2969 19.6405C23.3203 21.1592 23.325 21.2436 23.4094 21.3092C23.5453 21.4077 23.7937 21.3936 23.9062 21.2811C23.9953 21.1921 24 21.1264 24 19.5327C24 17.6577 23.9953 17.6483 23.625 17.3296C23.4656 17.1936 23.2594 17.1046 22.5984 16.8842L21.7734 16.6077L21.7594 16.1577L21.7453 15.703L22.0687 15.3983C22.4203 15.0655 22.6687 14.6624 22.8047 14.1936C22.8703 13.9686 22.8797 13.7436 22.8656 12.8811C22.8516 11.8405 22.8516 11.8358 22.7203 11.5639C22.5328 11.1889 22.1953 10.8561 21.8109 10.6733L21.4922 10.5233L20.3672 10.5139C19.7484 10.5092 19.1625 10.5233 19.0641 10.5467ZM21.3797 11.3155C21.6516 11.4139 21.8812 11.6155 22.0125 11.8827C22.1297 12.1311 22.1297 12.1405 22.1156 13.0639C22.1016 13.9546 22.0969 14.0014 21.975 14.2592C21.8297 14.5733 21.4922 14.9483 21.2156 15.1124C20.4891 15.5389 19.5562 15.4217 18.9609 14.8311C18.5016 14.3717 18.375 13.9686 18.375 12.9561C18.375 11.9717 18.5156 11.6342 19.0406 11.3717C19.2797 11.2546 19.3031 11.2499 20.2453 11.2499C20.9062 11.2546 21.2625 11.2733 21.3797 11.3155ZM20.2734 16.1014C20.5078 16.1014 20.7656 16.0874 20.85 16.0686L21 16.0311V16.3264C21 16.4858 21.0187 16.6827 21.0422 16.7671C21.0844 16.9124 21.075 16.9217 20.8219 17.1139C20.6719 17.2264 20.4891 17.3624 20.4094 17.4233L20.2641 17.5311L19.8703 17.2358L19.4766 16.9358L19.4906 16.4811L19.5047 16.0264L19.6781 16.0639C19.7719 16.0827 20.0437 16.1014 20.2734 16.1014ZM21.9328 19.9452C22.2656 20.1139 22.1437 20.6249 21.7734 20.6249C21.6234 20.6249 21.4453 20.4842 21.4172 20.3436C21.3891 20.203 21.4734 20.0155 21.6 19.9499C21.7594 19.8608 21.7734 19.8608 21.9328 19.9452Z" fill="white"/>
</g>
<defs>
<clipPath id="clip0_9893_11992">
<rect width="24" height="24" fill="white"/>
</clipPath>
</defs>
</svg>
