<svg width="28" height="28" viewBox="0 0 28 28" fill="none" xmlns="http://www.w3.org/2000/svg">
<path d="M12.0914 3.74609C12.0914 4.04688 12.1242 4.58828 12.1625 4.94922C12.2008 5.31016 12.2117 5.66016 12.1898 5.72578C12.168 5.79141 12.0422 5.91719 11.9109 6.00469C11.1453 6.52969 10.8281 7.25703 10.8281 8.50391C10.8281 9.20391 10.8883 9.65234 11.0742 10.4398C11.2437 11.1453 11.2437 11.1453 10.5437 11.5336C9.5375 12.0914 8.47109 12.9391 7.75469 13.7539C5.57812 16.2203 4.97656 19.1352 5.93906 22.5477L6.14141 23.2531L6.03203 23.3953C5.95547 23.4992 5.8625 23.5484 5.73125 23.5594C5.55625 23.5758 5.50703 23.543 5.19531 23.2094C4.375 22.3289 3.76797 21.093 3.46172 19.682C3.38516 19.3266 3.36328 18.9766 3.36328 18.1289C3.36328 16.8273 3.43984 16.4008 3.9375 14.8531C4.52266 13.032 4.69766 12.1516 4.74141 10.7953C4.80156 8.93594 4.44609 7.75469 3.71328 7.38281C3.29766 7.16953 2.64687 7.30078 2.1875 7.69453C1.85391 7.97891 1.75 8.24141 1.75 8.80469C1.75 9.30234 1.79922 9.61406 2.1 10.9375C2.43359 12.3977 2.45547 12.8297 2.23672 14.2023C1.85938 16.5703 1.82109 19.157 2.13281 20.9727C2.28594 21.875 2.48281 22.4875 2.82187 23.1766C3.33047 24.1938 4.00859 24.7789 4.90547 24.9648C5.21172 25.0305 6.07578 25.0469 9.75078 25.0469H14.2242L14.1859 24.9211C14.1148 24.6805 13.8578 24.3633 13.6008 24.1883C13.2836 23.975 12.9336 23.8984 12.2773 23.8984C11.8289 23.8984 11.7414 23.882 11.6484 23.7891C11.457 23.5977 11.5117 23.4172 11.9109 22.8867C12.5781 21.9953 12.868 21.2352 12.868 20.3711C12.868 19.3648 12.4633 18.6703 11.3039 17.6805C11.0687 17.4781 11.0305 17.243 11.2109 17.0625C11.3969 16.8766 11.6211 16.9203 12.0094 17.2266C13.8305 18.6813 14.1914 20.6992 12.9937 22.7336C12.8898 22.9086 12.8133 23.0562 12.8242 23.0672C12.8352 23.0781 13.0047 23.1219 13.2016 23.1602C13.9344 23.3133 14.525 23.7836 14.8531 24.4672C14.957 24.6805 15.0391 24.8937 15.0391 24.9484C15.0391 25.0414 15.1539 25.0469 16.8711 25.0469C18.6812 25.0469 18.7031 25.0469 18.7031 24.9375C18.7031 24.7188 18.4789 24.5766 18.0414 24.5109C17.3195 24.4016 17.0625 24.2977 16.7781 24.0023C16.2422 23.45 15.8539 22.3781 15.5586 20.6336C15.3672 19.5125 15.3562 19.5781 15.7992 19.1625C16.007 18.9711 16.2422 18.7086 16.3242 18.5883L16.4773 18.3695L15.9578 17.8391C15.6734 17.5492 15.4219 17.2594 15.4055 17.1992C15.3836 17.1391 15.4383 16.6578 15.5258 16.1328L15.6789 15.1758L14.3773 13.8633C13.4477 12.9281 13.0703 12.5125 13.0703 12.425C13.0703 12.25 13.3055 12.0312 13.4914 12.0312C13.6172 12.0312 13.8687 12.2555 14.9352 13.3219L16.2258 14.6125L16.7945 14.5195C17.1062 14.4648 17.3687 14.4211 17.3797 14.4102C17.3852 14.4047 17.3414 14.2406 17.2812 14.0437C17.1937 13.7484 17.0898 13.5898 16.7398 13.1742C16.0945 12.425 15.8047 11.7797 15.8047 11.0961C15.8047 10.85 15.8266 10.768 15.9305 10.675C16.0453 10.5656 16.1164 10.5547 16.5867 10.5547C17.0133 10.5547 17.2047 10.5273 17.5437 10.4125C18.2492 10.1828 18.7031 9.76719 18.7031 9.3625C18.7031 9.21484 18.632 9.10547 18.282 8.73906C17.7461 8.15938 17.4672 7.72734 17.3305 7.24609C17.1281 6.55156 17.0625 6.40938 16.8164 6.18516C16.3844 5.79141 15.6023 5.49063 14.6508 5.35938C14.3992 5.32656 14.1312 5.27188 14.0547 5.23906C13.9781 5.21172 13.6992 4.92734 13.4258 4.61563C13.1578 4.30391 12.7422 3.85547 12.5125 3.62578L12.0859 3.19922L12.0914 3.74609ZM15.7664 6.84141C15.9578 6.92891 16.3078 7.48125 16.2641 7.62344C16.182 7.89688 15.9359 8.02813 15.7172 7.91328C15.5422 7.82031 15.2031 7.34453 15.2031 7.19141C15.2031 7.05469 15.2961 6.92891 15.4492 6.84688C15.5859 6.77031 15.6078 6.77031 15.7664 6.84141Z" fill="white"/>
<path d="M17.1723 15.2742C16.7949 15.3344 16.4832 15.3891 16.4777 15.3945C16.4723 15.3945 16.4121 15.75 16.341 16.1766L16.2207 16.9586L17.7082 18.4461L19.1957 19.9336L20.098 19.0312L21.0004 18.1289L19.5129 16.6414C18.6926 15.8211 17.9816 15.1539 17.9379 15.1539C17.8941 15.1594 17.5496 15.2141 17.1723 15.2742Z" fill="white"/>
<path d="M20.6719 19.6055L19.7695 20.5078L20.3164 21.0547C20.6172 21.3555 20.8852 21.6016 20.918 21.6016C20.9508 21.6016 21.3664 21.2078 21.8477 20.7266L22.7227 19.8516L22.1484 19.2773L21.5742 18.7031L20.6719 19.6055Z" fill="white"/>
<path d="M22.3781 21.3445C21.2187 22.5094 20.6172 23.1438 20.6172 23.2203C20.6172 23.368 20.7211 23.4609 20.8852 23.4609C20.9945 23.4609 21.4047 23.0836 22.7609 21.7273C23.718 20.7703 24.5164 19.9445 24.5328 19.8953C24.582 19.7422 24.4562 19.5781 24.2922 19.5781C24.1719 19.5781 23.8328 19.8898 22.3781 21.3445Z" fill="white"/>
<path d="M23.2973 22.2852L22.9473 22.6406L23.4066 23.1055C23.6637 23.3625 23.8934 23.5703 23.9262 23.5703C23.959 23.5703 24.1449 23.4117 24.3363 23.2148L24.6863 22.8594L24.227 22.3945C23.9699 22.1375 23.7402 21.9297 23.7074 21.9297C23.6746 21.9297 23.4887 22.0883 23.2973 22.2852Z" fill="white"/>
<path d="M24.8344 23.8109L23.9375 24.7078L24.0031 24.8773C24.0742 25.0414 24.2766 25.2109 24.4023 25.2109C24.4406 25.2109 24.8891 24.7953 25.3977 24.2867L26.3164 23.368L26.2289 23.1984C26.1359 23.0125 25.9937 22.9141 25.8297 22.9141C25.775 22.9141 25.3375 23.3078 24.8344 23.8109Z" fill="white"/>
</svg>
