<svg width="40" height="40" viewBox="0 0 40 40" fill="none" xmlns="http://www.w3.org/2000/svg">
<path d="M12.9688 0.10899C6.69533 1.00743 3.06251 5.22617 2.14064 12.6949C1.94533 14.2496 1.94533 17.2965 2.13283 18.4996C2.73439 22.2731 4.29689 25.7965 7.0547 29.5934C8.00783 30.9137 8.75002 31.8356 10.3828 33.7418C11.1406 34.6246 12.0703 35.7262 12.4453 36.1871C14.1016 38.2106 16.1016 39.4527 18.4219 39.8902C19.3828 40.0699 21.2891 40.0074 22.1094 39.7731C24.4844 39.0856 25.8672 37.4293 25.9922 35.1402C26.0391 34.4137 26.0313 34.3824 25.836 34.1871C25.5391 33.8902 25.086 33.9059 24.8203 34.2106C24.6719 34.3981 24.625 34.5543 24.586 35.0465C24.4766 36.6246 23.5547 37.7574 21.9141 38.3356C21.3281 38.5387 21.2031 38.5465 20 38.5543C18.8828 38.5543 18.625 38.5309 18.086 38.3746C16.2813 37.8512 14.6485 36.6949 13.3203 34.9996C13.0625 34.6793 12.3281 33.7965 11.6797 33.0465C8.42189 29.2496 6.94533 27.1715 5.57814 24.4527C3.83595 20.984 3.20314 18.0231 3.42189 14.4293C3.60939 11.4215 4.08595 9.34336 5.03127 7.38243C6.17189 5.01524 7.6172 3.53086 9.79689 2.4918C11.3516 1.75743 12.6641 1.48399 14.9219 1.4293C17.1563 1.37461 18.5703 1.6168 20.0469 2.29649C23.1172 3.71836 25.2656 7.09336 25.8203 11.3512C25.8828 11.859 25.9375 12.5387 25.9375 12.859C25.9375 13.5387 26.0625 13.8434 26.3985 13.9762C26.6641 14.0934 26.9219 14.0309 27.1719 13.8043C27.3281 13.6559 27.3438 13.5699 27.3438 12.8824C27.3438 11.4371 26.9453 9.14805 26.4766 7.85899C25.2735 4.59336 23.2578 2.21055 20.6797 1.01524C19.8985 0.655865 19.1953 0.429302 18.2031 0.218365C17.2344 0.0152397 14.1094 -0.0472603 12.9688 0.10899Z" fill="#0F172A"/>
<path d="M13.9844 3.28906C13.1328 3.38281 12.0234 3.67969 11.2344 4.02344C9.28907 4.86719 7.44532 6.74219 6.30469 9.02344C5.32032 11.0078 4.70313 13.4453 4.66407 15.4922C4.64844 16.1875 4.67188 16.3359 4.79688 16.4688C5.09376 16.8047 5.74219 16.75 5.92188 16.3828C5.96876 16.2891 6.03907 15.7422 6.08594 15.1719C6.34376 12 7.53907 9.07812 9.37501 7.15625C10.8672 5.59375 12.375 4.86719 14.5469 4.67188C15.7422 4.5625 16.9375 4.66406 17.875 4.96094C19.75 5.55469 20.9766 7.07812 21.25 9.16406C21.4609 10.7266 20.9375 11.75 19.4375 12.7344C18.3906 13.4219 16.9922 13.9688 14.5313 14.6406C13.0234 15.0547 12.1172 15.7266 11.625 16.7734C11.2813 17.4922 11.2266 18.2031 11.4922 18.4844C11.625 18.625 11.75 18.6719 11.9922 18.6719C12.4141 18.6719 12.625 18.4453 12.7344 17.8906C12.8359 17.3672 13.1016 16.9531 13.5391 16.6328C13.9922 16.2969 14.3359 16.1562 15.4688 15.8594C19.6328 14.7578 21.8828 13.2734 22.5234 11.2109C22.7578 10.4609 22.75 9 22.5078 8.08594C21.8516 5.61719 20.1563 3.99219 17.6563 3.42969C16.8594 3.25 14.9609 3.17969 13.9844 3.28906Z" fill="#0F172A"/>
<path d="M34.5312 14.2344C32.2266 14.6797 32.1406 14.7031 31.9219 14.9375C31.7422 15.1406 31.7109 15.2266 31.7422 15.4609C31.7812 15.6953 31.9297 15.875 32.5859 16.5C33.1328 17.0156 33.3516 17.2734 33.2812 17.2969C33.2188 17.3203 32.4062 17.4844 31.4844 17.6563C30.5625 17.8281 29.7266 18.0156 29.6406 18.0547C29.4453 18.1563 29.2969 18.4375 29.2969 18.7188C29.2969 18.9609 29.6875 19.375 29.9219 19.375C30.1406 19.375 34.9922 18.4375 35.2188 18.3516C35.4375 18.2656 35.6484 17.7891 35.5781 17.5547C35.5547 17.4609 35.1719 17.0234 34.7422 16.5781C34.3047 16.1406 33.9688 15.7813 34 15.7813C34.0312 15.7813 34.875 15.625 35.8672 15.4297C37.0234 15.2031 37.7344 15.0313 37.8281 14.9531C38.1328 14.6719 38.0469 13.9375 37.6953 13.7969C37.4297 13.6953 36.8516 13.7813 34.5312 14.2344Z" fill="#0F172A"/>
<path d="M8.85938 18.1487C8.57813 18.3909 8.58595 18.7737 8.90626 19.8284C9.47657 21.7424 10.2734 23.1174 11.5156 24.3362C12.9844 25.7737 14.7266 26.5393 16.875 26.6878C17.2813 26.7112 17.75 26.7659 17.9219 26.8128C18.3281 26.9143 18.8672 27.4299 19.5234 28.3518C20.4766 29.6878 20.8516 29.9378 21.9844 29.9846C23.6563 30.0549 24.8125 29.4612 25.2109 28.3362C25.4141 27.7581 25.3906 26.7424 25.1641 26.1721C25.0781 25.9378 25 25.7424 25 25.7346C25 25.7268 25.2266 25.5784 25.5078 25.3987C26.6953 24.6253 27.3438 23.4378 27.3438 21.9924C27.3438 20.8596 26.9844 19.9612 26.2109 19.1721C25.25 18.1956 23.8438 17.7737 22.4844 18.0549C21.8828 18.1799 21.1172 18.5706 20.7031 18.9534C20.3828 19.2503 20.2578 19.3128 19.7578 19.4065C18.9766 19.5549 18.1797 19.8674 17.6172 20.2424C16.7578 20.8049 16.5938 21.0159 16.6719 21.4456C16.7344 21.7581 16.9375 21.9456 17.2813 22.0003C17.5078 22.0393 17.6094 21.9924 18.0078 21.6956C18.4688 21.3518 18.9453 21.0862 19.2734 20.9846C19.4297 20.9378 19.4375 20.9456 19.3672 21.2268C19.1953 21.9612 19.3516 23.0862 19.7188 23.8128C20.3438 25.0549 21.5781 25.8831 22.9609 26.0081L23.5469 26.0549L23.7422 26.4456C24 26.969 24.0234 27.7034 23.7813 28.0237C23.5234 28.3753 23.0938 28.5471 22.3594 28.5784C21.7656 28.6096 21.6953 28.594 21.4453 28.4065C21.2969 28.2893 20.9453 27.8753 20.6641 27.4768C19.9688 26.5003 19.3672 25.9065 18.7891 25.6174C18.375 25.4143 18.1719 25.3753 17.2969 25.3049C15.0547 25.1409 13.6641 24.5315 12.3359 23.1487C11.3672 22.1487 10.7578 21.0237 10.2344 19.2659C10.0234 18.5784 9.8672 18.1956 9.75782 18.1018C9.52345 17.9143 9.1172 17.9299 8.85938 18.1487ZM24.4922 19.6799C25.0391 19.9534 25.4375 20.3596 25.7188 20.9299C25.9688 21.4378 25.9766 22.5315 25.7266 23.0628C25.4922 23.5784 24.9766 24.1018 24.4609 24.3518C24.0781 24.5393 23.9297 24.5706 23.3203 24.5706C22.6641 24.5706 22.5781 24.5549 22.125 24.3049C21.5781 24.0081 21.1875 23.5862 20.9219 23.0003C20.6484 22.4221 20.6719 21.5159 20.9609 20.9221C21.6406 19.5393 23.1328 19.0159 24.4922 19.6799Z" fill="#0F172A"/>
<path d="M6.17188 20.1562C5.89063 20.4375 5.89844 20.6484 6.24219 21.6641C7.27344 24.6719 9.32813 27.6016 11.7422 29.5156C12.2578 29.9219 12.3984 30 12.6641 30C13.0781 30 13.3594 29.7344 13.3594 29.3281C13.3594 29.0078 13.3047 28.9453 12.125 27.9375C10.1016 26.2031 8.38281 23.6094 7.53906 21.0156C7.26563 20.1719 7.11719 20 6.66406 20C6.4375 20 6.28125 20.0469 6.17188 20.1562Z" fill="#0F172A"/>
<path d="M29.4922 22.8516C29.2344 23.1016 29.2344 23.5078 29.4766 23.7891C29.6328 23.9688 29.836 24.0234 31.5078 24.3516L33.375 24.7109L32.5703 25.5156C31.8125 26.2734 31.7578 26.3516 31.7578 26.6406C31.7578 27.2188 31.7969 27.2344 34.6641 27.7812C36.0703 28.0547 37.3047 28.2812 37.4063 28.2812C37.5078 28.2812 37.6953 28.1797 37.8203 28.0547C38.1172 27.75 38.125 27.4062 37.836 27.1172C37.6406 26.9297 37.4453 26.875 36.1328 26.6172C35.3203 26.4609 34.5 26.3125 34.3203 26.2812C34.1328 26.25 33.9844 26.2031 33.9844 26.1719C33.9844 26.1406 34.3125 25.8047 34.7188 25.4375C35.5 24.7188 35.6953 24.4062 35.5547 24.0547C35.5156 23.9531 35.4219 23.8125 35.3438 23.7422C35.1875 23.6016 30.4844 22.6562 29.961 22.6562C29.7656 22.6562 29.625 22.7188 29.4922 22.8516Z" fill="#0F172A"/>
</svg>
