<svg width="48" height="48" viewBox="0 0 48 48" fill="none" xmlns="http://www.w3.org/2000/svg">
<path d="M15.0377 0.270796C14.6627 0.65517 14.6627 1.1333 15.0565 1.66767C15.3565 2.08017 15.4783 2.5583 15.3846 2.9333C15.3565 3.06455 15.1596 3.3833 14.944 3.65517C14.3627 4.39579 14.1096 5.02392 14.0908 5.7833C14.0815 6.13017 14.1002 6.55204 14.1377 6.70205C14.2033 6.95517 14.1752 7.00205 13.8752 7.16142C13.3971 7.42392 12.8252 8.08017 12.5346 8.69892C12.3096 9.18642 12.2815 9.35517 12.2533 10.7052C12.2158 11.9989 12.2346 12.2614 12.4127 12.8145C13.0408 14.8583 15.2815 15.852 17.2033 14.9427C18.7596 14.202 19.3596 12.8802 19.2377 10.4427C19.1627 9.0083 18.9565 8.48329 18.1502 7.68642C17.5596 7.0958 17.1658 6.8708 16.444 6.71142C16.2471 6.67392 16.1721 6.5708 16.0971 6.28017C15.9752 5.7833 16.0877 5.38955 16.4815 4.91142C16.9315 4.38642 17.1565 3.9458 17.2971 3.3833C17.5502 2.32392 17.2221 1.07705 16.5096 0.345796C16.2096 0.0457954 16.1065 -0.00107956 15.7408 -0.00107956C15.394 -0.00107956 15.2627 0.055171 15.0377 0.270796ZM16.4533 8.8208C16.969 9.11142 17.2127 9.60829 17.269 10.4895C17.3721 11.9333 17.1471 12.627 16.4533 13.1052C15.7877 13.5552 14.7283 13.2177 14.3533 12.4208C14.2127 12.1395 14.194 11.8677 14.2221 10.8364C14.2502 9.63642 14.2596 9.58017 14.5221 9.24267C14.9908 8.62392 15.7877 8.4458 16.4533 8.8208Z" fill="#6E3D68"/>
<path d="M45.2248 1.38815C44.9811 1.60377 44.9248 1.72565 44.9248 2.02565C44.9248 2.5319 45.0842 2.80377 45.4873 2.96315C46.1623 3.25377 46.8279 2.82252 46.8279 2.09127C46.8279 1.21002 45.8811 0.797522 45.2248 1.38815Z" fill="#6E3D68"/>
<path d="M43.6405 4.44932C43.0593 4.82432 42.7311 4.92745 41.8593 5.01182C40.3499 5.15245 39.3936 5.57432 38.4936 6.47432C37.5936 7.37432 37.153 8.3962 37.0311 9.88682C36.9655 10.8056 36.6843 11.4618 36.1405 11.9774C35.5593 12.5493 35.0718 12.7462 33.8624 12.8868C32.3061 13.0649 31.4624 13.4587 30.553 14.4056C30.2811 14.6774 29.9436 15.1462 29.803 15.4462C29.653 15.7368 29.5218 15.9993 29.5124 16.0181C29.503 16.0368 29.2311 15.9618 28.903 15.8493C27.5811 15.3993 26.1468 15.5024 24.8624 16.1493C24.178 16.4868 23.9155 16.7024 22.5936 18.0337C21.3749 19.2524 21.0186 19.6743 20.7374 20.2087C18.3561 24.8024 23.1468 29.5931 27.7405 27.2118C28.2749 26.9306 28.6968 26.5743 29.9155 25.3556C31.2936 23.9774 31.4624 23.7899 31.8093 23.0587C32.0155 22.6181 32.2405 21.9899 32.2968 21.6524C32.5124 20.4524 32.2218 18.9618 31.5655 17.9399C31.2843 17.4993 31.2186 17.3306 31.2655 17.1056C31.4343 16.2993 32.0999 15.4931 32.8874 15.1368C33.2061 14.9868 33.6936 14.8837 34.3124 14.8181C35.7843 14.6681 36.6936 14.2556 37.6124 13.3274C38.4749 12.4462 38.8218 11.6587 38.9999 10.1493C39.1405 8.9212 39.3468 8.4337 39.9468 7.82432C40.4436 7.33682 41.0811 7.07432 41.9999 6.98995C42.3655 6.95245 42.8718 6.87745 43.1249 6.8212C43.5561 6.72745 44.6155 6.23995 44.953 5.96807C45.4968 5.5462 45.5811 4.82432 45.1499 4.39307C44.7561 4.0087 44.3061 4.01807 43.6405 4.44932ZM28.5093 17.8462C29.878 18.4743 30.6561 19.9931 30.328 21.3806C30.1405 22.1774 29.8593 22.5524 28.3405 24.0524C26.6905 25.6743 26.4374 25.8243 25.2655 25.8243C24.328 25.8243 23.7655 25.5993 23.0905 24.9618C22.3593 24.2587 22.1249 23.7149 22.1249 22.6837C22.1249 21.5024 22.2843 21.2306 23.8874 19.6087C24.6186 18.8681 25.3874 18.1462 25.5936 18.0149C26.4468 17.4712 27.5436 17.4056 28.5093 17.8462Z" fill="#6E3D68"/>
<path d="M12.375 16.5281C11.7 16.7062 11.4 16.8844 10.6594 17.5687C9.9375 18.225 9.9 18.2437 8.60625 18.3187C7.10625 18.3937 6.05625 19.1625 5.4375 20.625C5.11875 21.3844 4.93125 21.5625 4.11563 21.9469C3.15938 22.3781 2.52188 22.9594 2.15625 23.6906C1.94063 24.1406 1.88438 24.4031 1.82813 25.2187C1.8 25.7625 1.71563 26.3062 1.65 26.4375C1.575 26.5687 1.29375 26.9156 1.0125 27.2062C0.740625 27.5062 0.39375 27.9844 0.253125 28.2844C0.028125 28.7625 0 28.9406 0 29.7656C0 30.5719 0.0375 30.7875 0.2625 31.3406C0.58125 32.1281 0.58125 32.3906 0.2625 33.0656C0.0375 33.5437 0.009375 33.7219 0.009375 34.6406C0 35.5875 0.01875 35.7187 0.2625 36.1969C0.403125 36.4969 0.7125 36.9187 0.946875 37.1344C1.65938 37.8281 1.75313 38.0531 1.82813 39.1781C1.93125 40.9125 2.49375 41.7469 4.11563 42.5156L5.01562 42.9375L5.4375 43.8375C6.20625 45.4594 7.04063 46.0219 8.775 46.125C9.9 46.2 10.125 46.2937 10.8188 47.0062C11.0344 47.2406 11.4563 47.55 11.7563 47.6906C12.2344 47.9344 12.3656 47.9531 13.3125 47.9437C14.2313 47.9437 14.4094 47.9156 14.8875 47.6906C15.5625 47.3719 15.8438 47.3719 16.575 47.6906C17.0813 47.9156 17.2781 47.9531 18.1406 47.9531C19.0219 47.9531 19.1813 47.925 19.6688 47.7C19.9688 47.5594 20.4469 47.2125 20.7469 46.9406C21.0375 46.6594 21.3844 46.3781 21.5156 46.3031C21.6469 46.2375 22.1906 46.1531 22.7344 46.125C23.55 46.0687 23.8125 46.0125 24.2625 45.7969C24.9938 45.4312 25.575 44.7937 26.0063 43.8375C26.3906 43.0219 26.5688 42.8344 27.3281 42.5156C28.7906 41.8969 29.5594 40.8469 29.6344 39.3469C29.7094 38.0531 29.7281 38.0156 30.3844 37.2937C31.0875 36.525 31.2938 36.1594 31.4531 35.3906C31.6031 34.6687 31.5188 33.9 31.2188 33.1781C30.9 32.4281 30.9 32.0437 31.2281 31.2562C31.4531 30.7031 31.5 30.4781 31.5 29.7656C31.5 29.0062 31.4719 28.8562 31.2 28.3125C30.8625 27.6281 30.8063 27.5531 30.3 27.1125C29.8969 26.775 29.5219 26.7281 29.1094 26.9719C28.5563 27.2906 28.4906 27.9094 28.95 28.5C29.6719 29.4562 29.7094 29.6625 29.2875 30.7219C28.875 31.7625 28.875 32.6625 29.2875 33.6844C29.4469 34.0875 29.5781 34.5281 29.5781 34.65C29.5781 35.0531 29.3063 35.55 28.7719 36.1125C28.0219 36.8906 27.7781 37.4906 27.7031 38.7187C27.675 39.2625 27.6 39.7875 27.5438 39.8906C27.3563 40.2281 27.0188 40.4719 26.1938 40.8656C25.2 41.3344 24.6563 41.8875 24.2813 42.8156C23.85 43.9219 23.5125 44.1469 22.2469 44.1937C21.0281 44.2406 20.475 44.475 19.5938 45.2906C19.2094 45.6375 18.7969 45.9562 18.6656 45.9937C18.2906 46.0875 17.6813 45.9844 16.9219 45.7031C16.3125 45.4781 16.125 45.45 15.4969 45.4969C15 45.525 14.6063 45.6187 14.2406 45.7875C13.6688 46.05 13.0219 46.1062 12.675 45.9187C12.5625 45.8625 12.2156 45.5812 11.9062 45.3C11.0813 44.5312 10.4062 44.25 9.27188 44.1937C7.9125 44.1281 7.58438 43.9219 7.18125 42.8531C6.825 41.9156 6.0375 41.1281 5.1 40.7719C4.03125 40.3687 3.825 40.0406 3.75938 38.6812C3.70313 37.5469 3.42188 36.8719 2.65313 36.0469C2.37188 35.7375 2.09063 35.3906 2.03438 35.2781C1.84688 34.9312 1.90313 34.2844 2.16563 33.7125C2.33438 33.3469 2.42813 32.9531 2.45625 32.4562C2.50313 31.8281 2.475 31.6406 2.25 31.0312C1.96875 30.2719 1.86563 29.6625 1.95938 29.2875C1.99688 29.1562 2.31563 28.7437 2.6625 28.3594C3.47813 27.4781 3.7125 26.925 3.75938 25.7062C3.80625 24.4406 4.03125 24.1031 5.1375 23.6719C6.06563 23.2969 6.61875 22.7531 7.0875 21.7594C7.48125 20.9344 7.725 20.5969 8.0625 20.4094C8.16563 20.3531 8.69063 20.2781 9.23438 20.25C10.4625 20.175 11.0625 19.9312 11.8406 19.1812C12.4031 18.6469 12.9 18.375 13.3031 18.375C13.425 18.375 13.8656 18.5062 14.2688 18.6656C15.2906 19.0781 16.1906 19.0781 17.2313 18.6656C18.2906 18.2437 18.4969 18.2812 19.4531 19.0031C19.875 19.3219 20.2219 19.3875 20.6063 19.2094C20.8969 19.0781 21.1406 18.6562 21.1406 18.2906C21.1406 17.8687 20.4375 17.1469 19.65 16.7531C19.0969 16.4812 18.9563 16.4531 18.1875 16.4531C17.475 16.4531 17.2406 16.5 16.6969 16.725C15.9094 17.0531 15.525 17.0531 14.7563 16.7344C14.0531 16.4344 13.0688 16.35 12.375 16.5281Z" fill="#6E3D68"/>
<path d="M14.8126 20.5415C10.997 20.8415 7.61264 22.9415 5.63451 26.2227C2.95326 30.6852 3.60951 36.5071 7.21889 40.304C10.3501 43.5946 15.1314 44.7946 19.4064 43.3696C21.2626 42.7415 22.6876 41.8602 24.047 40.5009C25.2751 39.2727 26.3908 37.5477 26.3908 36.8821C26.3908 36.4977 26.0251 36.0477 25.6408 35.9634C25.0876 35.8602 24.7689 36.0946 24.2345 37.004C23.1751 38.7946 21.8345 40.0602 19.9689 40.9884C15.8345 43.0696 10.7158 41.804 7.90326 38.0259C5.02514 34.154 5.40951 28.7821 8.80326 25.3884C10.5189 23.6727 12.5814 22.7165 15.0283 22.5009C15.6283 22.4446 16.1814 22.3509 16.2564 22.2852C16.9876 21.7227 16.772 20.6915 15.8908 20.5134C15.7595 20.4946 15.272 20.504 14.8126 20.5415Z" fill="#6E3D68"/>
<path d="M9.82528 29.3264C8.58778 29.7671 7.80028 30.8733 7.80965 32.1952C7.80965 32.9546 7.98778 33.5077 8.38153 34.0514C9.50653 35.5889 11.8597 35.7014 13.1253 34.2952C14.5034 32.7577 14.0159 30.3202 12.1503 29.4577C11.4565 29.1389 10.5097 29.0827 9.82528 29.3264ZM11.3909 31.2764C12.1784 31.7452 12.1034 32.8233 11.2597 33.2264C10.9784 33.3577 10.8565 33.3671 10.6034 33.2827C10.0597 33.1046 9.65653 32.5046 9.76903 32.0546C9.9659 31.2858 10.7534 30.9014 11.3909 31.2764Z" fill="#6E3D68"/>
<path d="M35.1185 29.7305C34.4529 29.843 33.581 30.3211 33.1592 30.7992C31.2467 32.9742 32.4185 36.293 35.2685 36.7523C35.9623 36.8742 37.3498 36.8742 38.0435 36.7523C39.506 36.518 40.7248 35.4023 40.9685 34.0898C41.0435 33.6867 41.2592 33.5648 41.8685 33.5648C42.2998 33.5648 42.506 33.6586 43.0404 34.0898C44.3998 35.2055 46.3873 35.168 47.6154 34.0055C47.8967 33.7336 47.9529 33.6211 47.9529 33.293C47.9529 32.7961 47.8404 32.5711 47.4842 32.393C47.0717 32.1773 46.8279 32.2148 46.2654 32.5805C45.7779 32.8992 45.5623 32.9555 45.0467 32.9086C44.7373 32.8805 44.6154 32.8148 44.0529 32.3461C43.2654 31.6898 42.1029 31.4086 41.0998 31.6242C40.781 31.6898 40.7623 31.6805 40.4623 31.2305C39.956 30.443 39.1404 29.9086 38.156 29.7305C37.5185 29.6086 35.8498 29.6086 35.1185 29.7305ZM38.3623 31.8961C39.1404 32.4023 39.3373 33.3586 38.831 34.118C38.4373 34.718 38.0717 34.8305 36.6092 34.8305C35.5029 34.8305 35.306 34.8023 35.0154 34.6336C34.1154 34.1086 33.9279 32.918 34.6217 32.1492C35.0248 31.6992 35.4654 31.5961 36.806 31.6148C37.9029 31.643 38.006 31.6617 38.3623 31.8961Z" fill="#6E3D68"/>
<path d="M26.2313 31.2852C25.8469 31.3602 25.5469 31.7633 25.5469 32.2227C25.5469 32.7383 25.6594 32.954 26.0156 33.1415C26.3813 33.329 26.6625 33.3196 27.0188 33.0946C27.6844 32.6915 27.5719 31.5758 26.8406 31.3227C26.6813 31.2665 26.5219 31.229 26.4938 31.229C26.4656 31.2383 26.3438 31.2665 26.2313 31.2852Z" fill="#6E3D68"/>
</svg>
