<svg width="32" height="32" viewBox="0 0 32 32" fill="none" xmlns="http://www.w3.org/2000/svg">
<g clip-path="url(#clip0_8114_5008)">
<path d="M14.9564 0.0951347C14.7126 0.138884 14.4751 0.195135 14.4314 0.220135C14.3001 0.307634 14.4501 1.84513 14.6564 2.49513C14.6814 2.58263 14.5939 2.61388 14.1064 2.69514C13.4376 2.80763 13.5126 2.85139 13.1314 2.12638C12.8689 1.61388 12.5626 0.813885 12.5626 0.626385C12.5626 0.520134 12.5314 0.507635 12.3626 0.545134C11.8376 0.645134 10.7501 1.10763 10.7501 1.22639C10.7501 1.35139 11.2314 2.68263 11.4064 3.03263L11.6189 3.47013L11.3689 3.68263C11.0876 3.92013 10.6501 4.50763 10.4189 4.97013C9.66889 6.46388 9.53139 9.21388 10.1001 11.2201C10.4189 12.3451 10.8626 13.0889 11.8376 14.1076L12.3814 14.6826L11.9001 15.2639C9.73139 17.8701 9.08139 20.4326 9.37514 25.2201L9.43764 26.2201L9.73139 26.4889C12.0189 28.5326 16.5939 30.8639 19.8876 31.6576C21.3501 32.0076 22.9939 32.1076 23.9876 31.9014C25.7501 31.5389 26.8626 30.3264 27.5251 28.0514C28.0126 26.3701 28.0126 23.9826 27.5314 21.5889C27.1751 19.8139 26.4564 17.7389 25.6376 16.1201C25.0439 14.9451 24.6251 14.3326 23.8501 13.5014C22.8189 12.4076 22.6376 11.9826 22.8439 11.1764C23.0376 10.4139 23.5689 9.62013 24.6939 8.40763C25.5626 7.47013 25.7689 7.15138 25.8001 6.69513C25.8314 6.22013 25.7564 6.08263 25.0501 5.33888C24.4814 4.74513 23.3251 3.81388 23.1564 3.81388C23.0064 3.81388 21.4814 5.38888 20.9439 6.10138C19.7564 7.68263 19.1251 9.50763 19.1251 11.3889V12.1139L18.6751 12.1514C18.4251 12.1701 18.0251 12.2014 17.7876 12.2139L17.3564 12.2451L17.3939 11.2014C17.4814 8.33263 18.5314 6.00138 20.8064 3.61388L21.4501 2.93888L21.2689 2.87013C21.1751 2.83263 20.7751 2.72013 20.3814 2.62013C19.9876 2.52013 19.6564 2.42638 19.6376 2.41389C19.6251 2.40138 19.6501 2.22639 19.6876 2.02013C19.7251 1.82014 19.7751 1.32638 19.7939 0.926384L19.8314 0.195135L19.6501 0.120134C19.5501 0.0763836 19.1314 0.0326347 18.7126 0.0138836L17.9564 -0.011116L17.9189 0.795134C17.9001 1.23263 17.8501 1.75764 17.8064 1.95138L17.7314 2.31388H17.1251H16.5126L16.4126 1.76388C16.3564 1.46388 16.2939 0.938885 16.2689 0.607634L16.2314 0.00138474L15.8189 0.00763321C15.5939 0.00763321 15.2064 0.051384 14.9564 0.0951347Z" fill="white"/>
<path d="M5.69395 5.15625C4.5502 5.475 4.30645 6.1375 4.55645 8.28125C4.71895 9.725 4.74395 10.0125 4.8127 11.2188L4.8627 12.2188L4.6252 12.9375C4.49395 13.3313 4.3377 13.8812 4.28145 14.15C4.0502 15.2875 4.05645 16.7937 4.28145 18C4.5502 19.4062 5.36895 21.3187 6.3002 22.7188C6.83145 23.5125 7.4377 24.3062 7.51895 24.3125C7.54395 24.3125 7.5627 23.9562 7.5627 23.5125C7.5627 20.1 8.2377 17.4062 9.60645 15.35C9.88145 14.9375 10.0002 14.7063 9.9627 14.6562C9.3377 13.8375 8.7627 12.775 8.4752 11.9062C8.1377 10.875 8.05645 10.3562 8.01895 9.0625C7.9877 8.00625 8.00645 7.74375 8.11895 7.06875C8.19395 6.6375 8.3252 6.0375 8.41895 5.7375C8.50645 5.43125 8.5627 5.1625 8.5377 5.1375C8.5127 5.1125 7.9377 5.0875 7.2627 5.08125C6.3252 5.06875 5.9502 5.0875 5.69395 5.15625Z" fill="white"/>
</g>
<defs>
<clipPath id="clip0_8114_5008">
<rect width="32" height="32" fill="white"/>
</clipPath>
</defs>
</svg>
