<svg width="29" height="27" viewBox="0 0 29 27" fill="none" xmlns="http://www.w3.org/2000/svg">
<path d="M9.69876 0.87994C7.41947 1.82916 7.2847 1.90533 7.1558 2.37994C7.00931 2.90142 7.13236 3.55767 7.46048 3.99127C8.13431 4.87017 9.27103 4.96392 11.3511 4.30182C12.066 4.0733 12.189 3.97955 12.189 3.63971C12.189 3.39947 11.9663 3.15924 11.7437 3.15924C11.6558 3.15924 11.3042 3.24713 10.9644 3.35846C9.72806 3.75689 8.91947 3.83892 8.50931 3.59283C8.28665 3.46392 8.08744 3.11236 8.08744 2.85455V2.64947L10.1675 1.78814L12.2417 0.932674H14.4859C17.0054 0.932674 17.7788 0.985408 18.4644 1.20221C18.7222 1.28424 19.8238 1.78228 20.9077 2.30963C22.8882 3.26471 23.6324 3.55767 24.4351 3.68658C24.646 3.71588 25.5074 3.74517 26.357 3.74517C27.8159 3.74517 27.898 3.73932 28.0093 3.62799C28.1616 3.47564 28.1675 3.08306 28.021 2.93658C27.9214 2.83697 27.7632 2.81939 26.3921 2.7901C24.1245 2.73736 24.0601 2.71978 21.3296 1.38385C20.4097 0.938533 19.437 0.481502 19.1617 0.376033C18.2359 0.0127521 18.0132 -0.00482607 14.7437 0.00103331L11.8081 0.00689268L9.69876 0.87994Z" fill="white"/>
<path d="M13.4078 2.28048C13.2379 2.38595 13.0562 2.97189 13.027 3.54611C12.9742 4.4133 13.2086 4.99923 13.8473 5.60275C14.3453 6.07736 14.8141 6.31173 17.0699 7.23166L17.7672 7.51877L17.9957 7.88205C18.4176 8.54416 19.1793 9.15353 19.982 9.4758C21.0836 9.91525 22.5309 9.90939 23.7848 9.46408C23.9957 9.38791 24.3707 9.37033 25.9645 9.37033C27.816 9.37033 27.898 9.36447 28.0094 9.25314C28.1676 9.09494 28.1676 8.70822 28.0094 8.55002C27.8922 8.43283 27.8336 8.43283 25.7066 8.45041C23.5621 8.47384 23.5211 8.47384 22.9996 8.62619C22.0035 8.9133 20.8141 8.81369 19.9645 8.36252C19.5016 8.11642 18.9508 7.56564 18.7105 7.10861C18.6051 6.91525 18.4586 6.72775 18.3824 6.69259C18.3121 6.65744 17.6324 6.37619 16.8766 6.05978C15.1773 5.35666 14.8785 5.20431 14.4977 4.82345C14.1578 4.48361 14.0055 4.12619 14.0055 3.67502C14.0055 3.40548 14.0172 3.38791 14.1285 3.42306C14.193 3.4465 15.2945 3.89767 16.5719 4.43087C17.8551 4.95822 18.9859 5.39767 19.0855 5.40353C19.5016 5.41525 19.7242 4.9172 19.443 4.60666C19.2672 4.4133 13.9762 2.22189 13.7008 2.22189C13.5953 2.22189 13.4605 2.25119 13.4078 2.28048Z" fill="white"/>
<path d="M7.67139 5.73122C7.54834 5.86012 7.50146 5.95973 7.50146 6.11794C7.50146 6.6863 8.2749 6.80348 8.49756 6.26442C8.72021 5.72536 8.0874 5.3152 7.67139 5.73122Z" fill="white"/>
<path d="M6.20661 7.14974C5.98981 7.36654 5.45075 8.24544 5.15778 8.85482C4.81207 9.58138 4.56598 10.3079 4.39606 11.099C4.12067 12.3704 4.19684 15.054 4.51911 15.3997C4.67145 15.5638 4.88825 15.6107 5.09332 15.5228C5.37457 15.4115 5.41559 15.2122 5.31012 14.5384C5.18707 13.7826 5.18707 12.4583 5.31012 11.6908C5.49176 10.5247 6.02496 9.1888 6.71051 8.17513C7.07965 7.61849 7.12067 7.40169 6.88629 7.17318C6.70465 6.98568 6.38239 6.97396 6.20661 7.14974Z" fill="white"/>
<path d="M12.3062 8.5498C12.1948 8.66113 12.189 8.74316 12.189 9.95605V11.2451H10.8999C9.68701 11.2451 9.60498 11.251 9.49365 11.3623C9.38232 11.4736 9.37646 11.5557 9.37646 13.1201C9.37646 14.6846 9.38232 14.7666 9.49365 14.8779C9.60498 14.9893 9.68701 14.9951 10.8999 14.9951H12.189V16.2842C12.189 17.4971 12.1948 17.5791 12.3062 17.6904C12.4175 17.8018 12.4995 17.8076 14.064 17.8076C15.6284 17.8076 15.7104 17.8018 15.8218 17.6904C15.9331 17.5791 15.939 17.4971 15.939 16.2842V14.9951H17.228C18.4409 14.9951 18.5229 14.9893 18.6343 14.8779C18.7456 14.7666 18.7515 14.6846 18.7515 13.1201C18.7515 11.5557 18.7456 11.4736 18.6343 11.3623C18.5229 11.251 18.4409 11.2451 17.228 11.2451H15.939V9.95605C15.939 8.74316 15.9331 8.66113 15.8218 8.5498C15.7104 8.43848 15.6284 8.43262 14.064 8.43262C12.4995 8.43262 12.4175 8.43848 12.3062 8.5498ZM15.0015 10.6592C15.0015 11.8721 15.0073 11.9541 15.1187 12.0654C15.23 12.1768 15.312 12.1826 16.5249 12.1826H17.814V13.1201V14.0576H16.5249C15.312 14.0576 15.23 14.0635 15.1187 14.1748C15.0073 14.2861 15.0015 14.3682 15.0015 15.5811V16.8701H14.064H13.1265V15.5811C13.1265 14.3682 13.1206 14.2861 13.0093 14.1748C12.8979 14.0635 12.8159 14.0576 11.603 14.0576H10.314V13.1201V12.1826H11.603C12.8159 12.1826 12.8979 12.1768 13.0093 12.0654C13.1206 11.9541 13.1265 11.8721 13.1265 10.6592V9.37012H14.064H15.0015V10.6592Z" fill="white"/>
<path d="M22.9527 10.7823C22.7535 10.8995 22.7242 11.1046 22.8296 11.7667C22.9527 12.5401 22.9175 14.2042 22.7652 14.878C22.5074 16.0265 22.0562 17.1104 21.4644 17.9952C21.0484 18.6163 21.0191 18.7042 21.1187 18.9444C21.2183 19.1847 21.482 19.296 21.7398 19.2022C22.0972 19.0792 23.0347 17.4444 23.4331 16.255C23.7964 15.1593 23.8726 14.6319 23.8785 13.1788C23.8785 11.6729 23.8023 11.0753 23.5796 10.8526C23.4331 10.7061 23.1402 10.671 22.9527 10.7823Z" fill="white"/>
<path d="M5.89014 16.4365C5.3042 16.5127 4.85303 16.6064 4.48975 16.7295C4.09131 16.8643 4.02686 16.8701 2.15772 16.8701C0.312012 16.8701 0.22998 16.876 0.118652 16.9873C-0.0395508 17.1455 -0.0395508 17.5322 0.118652 17.6904C0.23584 17.8076 0.294434 17.8076 2.42139 17.79C4.59522 17.7666 4.60107 17.7666 5.15772 17.6084C5.66748 17.4619 5.77881 17.4502 6.47607 17.4736C7.30225 17.5029 7.70654 17.6084 8.29834 17.9541C8.69678 18.1826 9.19483 18.71 9.41748 19.1318C9.54053 19.3545 9.66358 19.5127 9.76904 19.5596C9.85693 19.6006 10.5425 19.8877 11.2808 20.1924C12.9097 20.8662 13.2378 21.0361 13.5952 21.3818C13.9644 21.7451 14.0757 21.9736 14.1108 22.46C14.1401 22.835 14.1343 22.8643 14.0288 22.835C13.9702 22.8174 12.8628 22.3604 11.5737 21.8213C10.1675 21.2354 9.15381 20.8428 9.03662 20.8428C8.61475 20.8428 8.40381 21.3232 8.69092 21.6338C8.8667 21.833 14.146 24.0186 14.439 24.0186C14.5679 24.0186 14.6909 23.9775 14.7612 23.9072C15.0601 23.6084 15.2124 22.4307 15.0308 21.8154C14.8433 21.1475 14.3276 20.5557 13.5659 20.1104C13.3433 19.9814 12.5288 19.6123 11.7612 19.2959L10.3667 18.7217L10.1089 18.335C9.51123 17.4385 8.57373 16.7998 7.47217 16.5596C7.03857 16.46 6.18897 16.3955 5.89014 16.4365Z" fill="white"/>
<path d="M19.8355 19.8291C19.525 20.1338 19.7418 20.6787 20.1695 20.6787C20.4918 20.6729 20.7906 20.3389 20.7086 20.0752C20.5914 19.6768 20.1168 19.542 19.8355 19.8291Z" fill="white"/>
<path d="M17.972 21.6162C17.1048 21.7979 16.1322 22.126 16.0267 22.2725C15.8099 22.5947 16.0267 23.0811 16.3959 23.0811C16.4837 23.0811 16.7884 23.0049 17.0638 22.9111C18.3119 22.4893 19.2025 22.3955 19.6185 22.6416C19.8412 22.7764 20.0404 23.1279 20.0404 23.3857V23.5908L17.9662 24.4521L15.8861 25.3076H13.6419C11.1283 25.3076 10.349 25.2549 9.66929 25.0381C9.41148 24.9619 8.30991 24.4639 7.22593 23.9365C5.2396 22.9756 4.49546 22.6826 3.69272 22.5537C3.48179 22.5244 2.62046 22.4951 1.77671 22.4951C0.311865 22.4951 0.229833 22.501 0.118505 22.6123C-0.0338386 22.7646 -0.039698 23.1572 0.106786 23.3037C0.206396 23.4033 0.364599 23.4209 1.73569 23.4502C3.25327 23.4795 3.70444 23.5322 4.42515 23.7607C4.58921 23.8135 5.6439 24.2998 6.7689 24.8389C7.89976 25.3838 8.9896 25.8818 9.20054 25.9521C10.0209 26.2275 10.2669 26.2451 13.3548 26.2451H16.2669L18.3998 25.3604C19.5775 24.874 20.6029 24.4229 20.6732 24.3525C21.1478 23.9072 21.1478 22.876 20.6673 22.249C20.14 21.5576 19.2435 21.3467 17.972 21.6162Z" fill="white"/>
</svg>
