<svg width="30" height="31" viewBox="0 0 30 31" fill="none" xmlns="http://www.w3.org/2000/svg">
<path d="M1.057 0.131248C0.688251 0.293749 0.400751 0.581249 0.194501 0.96875C0.044501 1.25 0.032001 1.3625 0.00700095 2.1625C-0.024249 3.18125 0.0445009 3.6125 0.307001 4.025C0.507001 4.3375 0.944501 4.65 1.3195 4.75625L1.557 4.81875V15.9312C1.557 26.8375 1.557 27.05 1.682 27.5375C2.01325 28.85 2.8195 29.85 4.0195 30.4375C4.732 30.7937 5.27575 30.8937 6.20075 30.8625C6.857 30.8375 7.03825 30.8062 7.482 30.6375C8.857 30.125 9.88825 28.9812 10.2445 27.5875C10.357 27.1562 10.3695 26.8875 10.3695 25.1V23.0937L9.7945 22.7187C8.37575 21.7937 7.0945 20.1625 6.52575 18.5437L6.35075 18.0625H4.42575H2.4945V16.4375V14.8125H3.15075C3.7695 14.8125 3.8195 14.8 3.96325 14.6562C4.15075 14.4687 4.16325 14.2562 3.98825 14.0375C3.86325 13.8812 3.83825 13.875 3.17575 13.875H2.4945V12.8125V11.75H3.8695C4.73825 11.75 5.2945 11.725 5.38825 11.6812C5.682 11.55 5.73825 11.1812 5.507 10.9187C5.4195 10.825 5.26325 10.8125 3.95075 10.8125H2.4945V9.75V8.6875H3.057C3.757 8.6875 4.02575 8.59375 4.08825 8.325C4.12575 8.13125 4.0445 7.8875 3.907 7.8C3.8695 7.775 3.53825 7.75 3.1695 7.75H2.4945V6.28125V4.8125H5.96325H9.432V6.78125C9.432 7.8625 9.45075 8.75 9.4695 8.75C9.4945 8.75 9.70075 8.63125 9.93825 8.48125L10.3632 8.21875L10.3695 6.525V4.8375L10.7008 4.73125C11.1258 4.6 11.5133 4.2625 11.7257 3.85C11.882 3.55 11.8945 3.46875 11.9195 2.55625C11.9382 1.7875 11.9257 1.5 11.8445 1.2375C11.7195 0.799999 11.3258 0.34375 10.9008 0.15L10.5883 0H5.96325C1.4445 0 1.332 0.00624847 1.057 0.131248Z" fill="white"/>
<path d="M13.4068 8.00011C12.313 8.17511 11.1318 8.63136 10.2255 9.23136C9.97552 9.39386 9.50052 9.79386 9.15677 10.1251C7.70677 11.5251 6.92552 13.2751 6.83177 15.3126C6.73177 17.4939 7.51302 19.5189 9.05677 21.0689C11.0318 23.0564 13.7943 23.8001 16.5505 23.0876C17.213 22.9126 18.1255 22.5064 18.7318 22.1126L19.1255 21.8564L19.7005 22.4251C20.0193 22.7439 20.3068 23.0001 20.338 23.0001C20.3693 23.0001 20.7443 22.6564 21.163 22.2376L21.9318 21.4689L21.3318 20.8689L20.7318 20.2689L20.9943 19.8689C22.2943 17.8564 22.588 15.2689 21.7755 13.0001C21.1568 11.2876 19.8255 9.73761 18.2318 8.88136C17.0693 8.25011 16.113 8.00011 14.7443 7.96886C14.213 7.95636 13.613 7.96886 13.4068 8.00011ZM15.988 9.56886C17.8068 10.0314 19.2318 11.1564 20.0755 12.7939C21.0005 14.5814 21.013 16.5876 20.1193 18.4064C18.713 21.2564 15.4005 22.5939 12.4068 21.5189C10.888 20.9751 9.65052 19.8689 8.93177 18.4064C8.21302 16.9501 8.08177 15.4501 8.52552 13.9126C9.20677 11.5689 11.2005 9.82511 13.6505 9.43761C14.2255 9.35011 15.3818 9.41261 15.988 9.56886Z" fill="white"/>
<path d="M13.5756 10.2725C11.4068 10.685 9.79435 12.1912 9.2381 14.3162C9.0631 14.985 9.04435 16.185 9.20685 16.835C9.61935 18.535 10.6381 19.81 12.1506 20.535C13.6631 21.26 15.5006 21.2475 16.9693 20.51C18.3568 19.81 19.4068 18.5037 19.8131 16.9662C20.0006 16.2537 20.0068 15.1037 19.8193 14.36C19.3318 12.385 17.8506 10.8725 15.9006 10.3725C15.2568 10.2037 14.1818 10.16 13.5756 10.2725ZM15.2381 14.135C15.9756 15.3412 16.1256 15.71 16.1693 16.41C16.2193 17.285 15.9381 17.835 15.2631 18.16C14.3443 18.61 13.1881 18.1162 12.9256 17.1662C12.8193 16.785 12.8881 15.9162 13.0568 15.4975C13.2318 15.06 14.5006 12.9787 14.5568 13.0412C14.5818 13.0725 14.8881 13.56 15.2381 14.135Z" fill="white"/>
<path d="M22.5882 22.0288C22.4882 22.0788 22.0695 22.4476 21.6695 22.8538C20.8507 23.6913 20.7445 23.8976 20.8695 24.3913C20.932 24.6288 21.2757 24.9913 23.732 27.4601C25.2695 29.0038 26.6007 30.3038 26.6945 30.3538C26.9132 30.4663 27.4507 30.4663 27.6695 30.3538C27.7632 30.3038 28.1507 29.9476 28.532 29.5538C29.0882 28.9913 29.2445 28.7913 29.3007 28.5788C29.4632 27.9913 29.5632 28.1226 26.4382 24.9788C24.8195 23.3538 23.5007 22.0788 23.3882 22.0288C23.1382 21.9226 22.832 21.9226 22.5882 22.0288Z" fill="white"/>
</svg>
