<svg width="40" height="40" viewBox="0 0 40 40" fill="none" xmlns="http://www.w3.org/2000/svg">
<path d="M21.7969 0.054615C18.9062 0.617115 16.7188 2.25774 15.5312 4.74212C14.9688 5.91399 14.7578 6.81243 14.7109 8.26555C14.6719 9.40618 14.6562 9.46868 14.5 9.53118C14.1797 9.64837 13.8047 10.0312 13.625 10.4296C13.4531 10.7812 13.4375 10.9296 13.4375 11.9687V13.1093L12.0938 13.1406C10.7734 13.164 10.7344 13.1718 10.2344 13.4062C9.58594 13.7109 9.02344 14.2734 8.71875 14.9218L8.47656 15.4296V18.7499V22.0702L8.71875 22.5781C9.01562 23.2109 9.5625 23.7577 10.2109 24.0781C10.625 24.2812 10.8203 24.3281 11.4453 24.3593L12.1875 24.3984V26.0937C12.1875 27.7577 12.1875 27.789 12.3672 27.9531C12.6172 28.1874 13 28.1796 13.2422 27.9296C13.4062 27.7734 13.4375 27.664 13.4375 27.3046V26.8749H15.3125H17.1875V32.6171V38.3671L17 38.5546C16.7422 38.8046 16.4609 38.8437 15.0391 38.8124L13.8125 38.789L13.625 38.5702L13.4375 38.3515V34.1406C13.4375 31.1796 13.4141 29.8749 13.3516 29.7343C13.2422 29.4921 12.9062 29.3515 12.625 29.4218C12.1797 29.5312 12.1875 29.414 12.1875 34.1406C12.1875 36.8046 12.2188 38.5859 12.2656 38.7577C12.375 39.1562 12.9062 39.7265 13.3047 39.8827C13.5859 39.9921 13.9219 40.0077 15.4453 39.9843L17.25 39.9609L17.5938 39.7265C17.9766 39.4531 18.2422 39.0859 18.3594 38.6796C18.4062 38.4999 18.4375 35.8437 18.4375 31.3984V24.3906L19.125 24.3593C20.1094 24.3046 20.6094 24.0859 21.2578 23.4452C21.6328 23.0702 21.8203 22.8046 21.9609 22.4609L22.1484 21.9921V18.7499C22.1484 15.5312 22.1484 15.5077 21.9688 15.0546C21.7109 14.4218 21.0625 13.7421 20.4062 13.4218C19.8906 13.164 19.875 13.164 18.5469 13.1406L17.2031 13.1093L17.1719 11.8906C17.1484 10.7031 17.1406 10.6484 16.9219 10.2812C16.7812 10.039 16.5625 9.82024 16.3203 9.66399L15.9375 9.42962V8.56243C15.9453 5.40618 17.7266 2.80462 20.6719 1.64837C21.7188 1.24212 23.375 1.12493 24.5625 1.36712C27.1641 1.90618 29.2344 3.82024 30.0547 6.44524L30.2734 7.14837L30.2969 21.8124L30.3125 36.4687L30.1484 36.914C29.9141 37.5468 29.4375 38.0937 28.8281 38.4296C28.3906 38.6718 28.2422 38.7109 27.6562 38.7343C27.1094 38.7577 26.9141 38.7343 26.5391 38.5937C25.9141 38.3593 25.25 37.7265 24.9531 37.0937L24.7266 36.6015L24.6875 26.5781L24.6484 16.5468L24.4609 16.3984C24.2031 16.1874 23.8594 16.2109 23.625 16.4452L23.4375 16.6406L23.4531 26.7343L23.4766 36.8359L23.6562 37.3046C24.1328 38.5624 25.1406 39.5077 26.3984 39.8749C26.9453 40.0312 28.0312 40.039 28.6328 39.8827C30 39.5234 31.1875 38.2577 31.4844 36.8437C31.5391 36.5702 31.5625 31.8906 31.5469 21.7187L31.5234 6.99212L31.3516 6.38274C30.4609 3.25774 28.2969 1.06243 25.2734 0.22649C24.7656 0.0936775 24.3984 0.054615 23.3203 0.03899C22.5938 0.023365 21.9062 0.0311775 21.7969 0.054615ZM15.7109 10.7734C15.8906 10.914 15.8984 10.9765 15.9219 12.0234L15.9531 13.1249H15.3203H14.6875V12.0702C14.6875 11.0468 14.6953 10.9999 14.8828 10.8202C15.1094 10.5859 15.4609 10.5702 15.7109 10.7734ZM19.6406 14.4687C20.0703 14.5937 20.7188 15.2421 20.8438 15.6718C20.9062 15.8906 20.9375 16.7187 20.9375 18.3124V20.6249H20.3125H19.6875V18.3202V16.0077L19.4922 15.8202L19.3047 15.6249H15.3047C11.2969 15.6249 11.2969 15.6249 11.1172 15.7968L10.9375 15.9609V18.2968V20.6249H10.3125H9.6875V18.2421C9.6875 16.3124 9.71094 15.8046 9.80469 15.5781C10.0234 15.0546 10.4219 14.664 10.9297 14.4843C11.3203 14.3437 19.1641 14.3281 19.6406 14.4687ZM18.4375 18.7499V20.6249H15.3125H12.1875V18.7499V16.8749H15.3125H18.4375V18.7499ZM12.8125 22.4999V23.1249H12.0625C11.6484 23.1249 11.1719 23.0859 11 23.0312C10.6484 22.9296 10.0469 22.4296 9.875 22.1015L9.75781 21.8749H11.2891H12.8125V22.4999ZM16.5625 22.4999V23.1249H15.3125H14.0625V22.4999V21.8749H15.3125H16.5625V22.4999ZM20.7812 21.914C20.7812 22.0624 20.5078 22.4452 20.2344 22.6718C19.8203 23.0312 19.4688 23.1249 18.5625 23.1249H17.8125V22.4999V21.8749H19.2969C20.1172 21.8749 20.7812 21.8906 20.7812 21.914ZM17.1875 24.9999V25.6249H15.3125H13.4375V24.9999V24.3749H15.3125H17.1875V24.9999Z" fill="#0F172A"/>
<path d="M22.8125 3.89763C22.6484 3.98356 22.4688 4.17888 22.3594 4.382L22.1797 4.72575L22.2031 7.61638C22.2266 10.4211 22.2344 10.5148 22.3984 10.8273C22.5859 11.1711 23.0156 11.5929 23.2734 11.6789C23.4297 11.7258 23.4375 11.7804 23.4375 13.1633C23.4375 14.7804 23.4688 14.8898 24 14.9679C24.2344 15.007 24.3203 14.9836 24.4844 14.8195L24.6875 14.6164V13.1789V11.7336L24.9219 11.6398C25.25 11.507 25.7578 10.9289 25.8516 10.5773C25.9062 10.382 25.9375 9.21794 25.9375 7.46013C25.9375 4.3195 25.9297 4.29606 25.3906 3.92106C25.1562 3.76481 25.0391 3.74919 24.1094 3.74919C23.2578 3.74919 23.0391 3.77263 22.8125 3.89763ZM24.6875 5.62419V6.24919H24.0625H23.4375V5.62419V4.99919H24.0625H24.6875V5.62419ZM24.6875 8.85856V10.2179L24.4453 10.4211C24.1328 10.6867 23.9453 10.6789 23.6641 10.3976L23.4375 10.1711V8.83513V7.49919H24.0625H24.6875V8.85856Z" fill="#0F172A"/>
</svg>
