<svg width="48" height="48" viewBox="0 0 48 48" fill="none" xmlns="http://www.w3.org/2000/svg">
<path d="M21.8905 0.234375C21.3468 0.768749 21.7218 1.29375 22.8093 1.55625C23.203 1.65 23.5311 1.74375 23.5311 1.77187C23.5311 1.875 22.8843 4.2375 22.8468 4.275C22.828 4.29375 22.0311 4.09687 21.0655 3.84375C20.1093 3.58125 19.2374 3.375 19.1436 3.375C18.8718 3.375 18.5624 3.76875 18.5624 4.10625C18.5624 4.52812 18.7874 4.70625 19.5936 4.9125C19.978 5.00625 20.3249 5.11875 20.3718 5.15625C20.4093 5.18437 19.7436 7.82812 18.8811 11.025C17.5405 16.0312 17.3343 16.9031 17.3624 17.3625C17.4186 18.1875 17.9905 18.8062 18.9186 19.0406C19.2186 19.125 19.303 19.1906 19.2749 19.3031C18.8249 20.8125 18.7593 21.2812 18.9749 21.7781C19.0874 22.0687 19.6968 22.6875 19.8655 22.6875C19.903 22.6875 19.1811 25.5187 18.253 28.9781L16.5655 35.2594L16.753 35.5125C16.9874 35.8312 17.5968 35.9156 17.8311 35.6531C17.9155 35.5594 18.2343 34.5187 18.553 33.3281C18.8718 32.1469 19.1624 31.1437 19.1999 31.1062C19.303 31.0125 22.3218 30.8438 23.9718 30.8438C31.7718 30.8438 39.2999 32.8219 42.3655 35.6812L42.8811 36.1594L42.5624 36.4688C40.0405 38.8312 35.128 40.5281 28.7811 41.2219C26.5874 41.4562 21.4124 41.4562 19.2186 41.2219C12.928 40.5281 7.96863 38.8312 5.49363 36.5156L5.128 36.1781L5.49363 35.7937C5.97175 35.3062 7.32175 34.3969 8.34363 33.8906C10.1061 33.0094 12.3561 32.2687 14.9061 31.7437C16.1436 31.4812 16.4811 31.3781 16.6124 31.2094C16.8374 30.9469 16.828 30.6469 16.5843 30.3375C16.3405 30.0281 16.1811 30.0281 14.7093 30.3281C12.1593 30.8438 9.928 31.5562 8.08113 32.4375C6.63738 33.1312 5.953 33.5437 5.04363 34.2844C4.64988 34.6125 4.303 34.875 4.27488 34.875C4.24675 34.875 4.153 34.6312 4.06863 34.3406C3.41238 32.0812 5.78425 29.6156 10.2843 27.9C11.9811 27.2531 15.4124 26.4094 17.1843 26.1937C17.8686 26.1187 18.1874 25.8844 18.1874 25.4437C18.1874 25.0406 17.9061 24.75 17.5311 24.75C17.1843 24.75 15.7499 24.975 14.578 25.2188C9.48738 26.2687 5.38113 28.2562 3.703 30.4875C2.578 31.9781 2.51238 32.3437 2.54988 36.4594C2.578 39.5719 2.58738 39.7219 2.79363 40.2281C4.32175 44.0625 10.5093 46.8937 19.2374 47.7844C21.4968 48.0094 26.503 48.0094 28.7624 47.7844C37.5749 46.8844 43.828 43.9875 45.2249 40.1344C45.403 39.6562 45.4218 39.3562 45.4499 36.4688C45.4686 34.3687 45.4499 33.1406 45.3749 32.7656C44.653 29.0062 38.9811 25.9031 30.7499 24.7594C28.4061 24.4406 26.8499 24.3375 23.8874 24.3375C22.2936 24.3375 20.9999 24.3 20.9999 24.2625C20.9999 24.2156 21.0655 23.9344 21.1593 23.625L21.3093 23.0625H21.6843C22.1436 23.0625 22.7343 22.7437 22.9686 22.3594C23.0624 22.2094 23.2311 21.7219 23.353 21.2812C23.4655 20.8406 23.5874 20.4562 23.6155 20.4187C23.653 20.3812 23.9249 20.3906 24.2343 20.4469C24.6561 20.5312 24.8999 20.5219 25.1999 20.4469C25.6124 20.3344 26.1843 19.9031 26.3624 19.5562C26.4186 19.4531 27.178 16.7344 28.0311 13.5187C28.8936 10.3031 29.6155 7.65937 29.6343 7.64062C29.6624 7.62187 29.9718 7.6875 30.328 7.79062C31.1155 8.00625 31.3968 8.01562 31.6686 7.81875C31.9593 7.6125 31.9593 7.0125 31.6593 6.77812C31.5374 6.68437 30.6561 6.40312 29.6999 6.15L27.9655 5.69062L28.2936 4.40625L28.6311 3.12187L29.2968 3.29062C30.1311 3.51562 30.4968 3.51562 30.6843 3.3C30.8999 3.05625 30.8905 2.50312 30.6655 2.30625C30.4874 2.14687 22.6968 0 22.303 0C22.1999 0 22.0124 0.103123 21.8905 0.234375ZM26.1749 2.45625C26.8311 2.625 27.2718 2.79375 27.253 2.85C27.2343 2.90625 27.0749 3.4875 26.9061 4.13437L26.5874 5.31562L25.5093 5.03437C24.9093 4.88437 24.3843 4.71562 24.3374 4.67812C24.2718 4.6125 24.7686 2.45625 24.9093 2.22187C24.9655 2.12812 24.928 2.11875 26.1749 2.45625ZM25.0218 6.36562C26.7374 6.825 28.1624 7.22812 28.1905 7.24687C28.2186 7.28437 25.5374 17.4844 25.1624 18.7781C25.0405 19.1812 24.8436 19.1625 22.2374 18.4687C18.9093 17.5781 18.853 17.5594 18.7874 17.2969C18.7499 17.1562 19.2936 14.9719 20.2405 11.4187C21.8155 5.55937 21.8155 5.53125 21.8624 5.53125C21.8811 5.53125 23.2968 5.90625 25.0218 6.36562ZM21.5436 19.7437C21.9093 19.8375 22.2186 19.9594 22.2186 20.0062C22.2186 20.1844 21.8249 21.5156 21.7499 21.6C21.6655 21.6844 20.4655 21.4125 20.3155 21.2719C20.203 21.1781 20.6436 19.4906 20.7655 19.5281C20.8124 19.5562 21.1686 19.65 21.5436 19.7437ZM28.5468 25.9219C37.1718 26.7562 43.6311 29.8312 44.0249 33.2906C44.0811 33.7781 43.8749 34.875 43.7249 34.875C43.6968 34.875 43.453 34.6875 43.1905 34.4625C41.503 33.0375 38.653 31.6969 35.5311 30.8531C31.303 29.7281 25.8186 29.2219 21.0561 29.5312C20.2874 29.5781 19.6311 29.6062 19.6124 29.5781C19.5843 29.5594 19.7905 28.6969 20.0718 27.6656L20.5686 25.7906L21.4686 25.7531C23.1186 25.6781 27.0374 25.7719 28.5468 25.9219ZM5.64363 38.4656C8.92488 40.8 14.3249 42.3187 20.9061 42.7594C22.6874 42.8812 26.9249 42.825 28.5936 42.6562C35.3155 42 40.6968 40.1531 43.4624 37.575L44.0811 36.9937L44.053 38.2125C44.0155 39.3656 43.9968 39.4594 43.6968 40.0687C41.8499 43.8187 33.4874 46.5938 23.9999 46.5938C14.5311 46.5938 6.14988 43.8187 4.303 40.0687C4.003 39.4594 3.98425 39.375 3.95613 38.2031L3.91863 36.9844L4.42488 37.4719C4.69675 37.7344 5.24988 38.1844 5.64363 38.4656Z" fill="#6E3D68"/>
<path d="M24.2153 7.44688C23.0435 8.3 22.8466 9.13438 23.4841 10.4844L23.8403 11.2438L23.6528 11.5531C23.5122 11.7969 23.3903 11.8719 23.0903 11.9281C22.0685 12.0969 21.281 12.9594 20.9435 14.2531C20.6716 15.3219 20.8872 16.4094 21.4966 17.0469C21.9372 17.5063 22.2841 17.6562 22.8935 17.6562C24.0372 17.6469 24.9935 16.7469 25.3685 15.3313C25.6122 14.4219 25.4622 13.2781 25.0216 12.7156C24.8247 12.4625 24.8247 12.4531 24.9935 12.0688C25.2747 11.45 25.2091 10.7844 24.806 9.95C24.4122 9.13438 24.431 9.0875 25.1997 8.50625C25.7716 8.06563 25.9028 7.70938 25.6216 7.325C25.3122 6.9125 24.8903 6.95 24.2153 7.44688ZM23.8685 13.55C24.3466 14.2813 23.981 15.6875 23.1841 16.1563C22.8091 16.3719 22.5466 16.2594 22.3497 15.8C22.181 15.3875 22.181 15.0594 22.3591 14.4594C22.6497 13.4938 23.4935 12.9781 23.8685 13.55Z" fill="#6E3D68"/>
<path d="M30.3749 32.259C29.5687 32.3715 28.4156 32.7747 27.7968 33.1403C27.0093 33.6184 26.4749 34.1622 26.1281 34.8653C25.5187 36.1122 25.8281 37.4903 26.9718 38.5309C27.5906 39.1028 28.4906 39.5715 29.5031 39.8622C30.4968 40.1528 32.8781 40.1715 33.8906 39.909C35.5031 39.4778 36.8999 38.5122 37.4062 37.4528C37.7624 36.7309 37.7812 35.709 37.4718 35.0247C37.1343 34.284 36.8062 33.8903 36.1218 33.4028C34.7156 32.3997 32.4468 31.9497 30.3749 32.259ZM33.1687 33.7122C34.5187 33.984 35.7093 34.6872 36.1031 35.4465C36.9187 37.0497 34.7156 38.7184 31.7906 38.7184C29.6343 38.709 27.7968 37.8559 27.3374 36.6372C27.1124 36.0653 27.2531 35.5684 27.7781 34.9965C28.8656 33.8153 31.0874 33.2903 33.1687 33.7122Z" fill="#6E3D68"/>
<path d="M31.1248 34.2875C30.4685 34.5125 29.9435 34.925 29.7279 35.375C29.0248 36.8281 30.2904 38.1875 32.3435 38.1875C34.0498 38.1875 35.2591 37.25 35.1373 36.0031C35.0623 35.2062 34.4998 34.6062 33.5248 34.2781C32.9623 34.0812 31.6873 34.0906 31.1248 34.2875ZM33.2904 35.7219C33.7779 35.975 33.8435 36.1625 33.5341 36.4344C33.1873 36.7344 32.456 36.8656 31.8654 36.7437C31.3216 36.6219 30.881 36.2937 30.9654 36.0687C31.1529 35.5719 32.5685 35.3562 33.2904 35.7219Z" fill="#6E3D68"/>
<path d="M14.2781 32.9531C13.3125 33.4312 12.5906 34.0781 12.2063 34.8094C11.9906 35.2312 11.9531 35.4094 11.9531 36.1406C11.9531 36.9281 11.9719 37.0219 12.2719 37.575C12.675 38.325 13.3219 38.8969 14.2969 39.3656C15.4969 39.9562 16.125 40.0781 17.8594 40.0781C19.125 40.0781 19.4719 40.0406 20.0906 39.8625C21.6938 39.4031 22.95 38.5031 23.4844 37.4344C23.7094 36.9844 23.7563 36.7687 23.7563 36.1875C23.7656 35.5687 23.7188 35.3906 23.4563 34.8562C23.0719 34.0781 22.3688 33.4125 21.4313 32.9531C20.5406 32.5125 20.0625 32.4375 19.7906 32.7094C19.5281 32.9719 19.5281 33.4969 19.8 33.75C19.9125 33.8531 20.0531 33.9375 20.1094 33.9375C20.4 33.9375 21.3938 34.5562 21.7781 34.9594C22.35 35.5781 22.4906 36.0375 22.2656 36.6187C21.7594 37.9406 19.8188 38.7937 17.5312 38.6906C14.5406 38.5594 12.5906 36.9 13.5844 35.325C13.9219 34.7906 14.3063 34.5 15.2156 34.0781C15.6094 33.9 15.975 33.6656 16.0312 33.5625C16.2844 33.0844 15.9469 32.5312 15.4031 32.5312C15.2438 32.5312 14.7375 32.7187 14.2781 32.9531Z" fill="#6E3D68"/>
<path d="M14.6812 35.6374C14.3718 35.8812 14.353 36.3405 14.6343 36.9218C15.0187 37.6999 16.003 38.178 17.2405 38.1874C18.8437 38.1968 20.0624 37.3437 20.0624 36.1999C20.0624 35.3374 18.8905 35.1593 18.703 36.003C18.6187 36.3687 18.2905 36.6218 17.7187 36.7437C16.8937 36.9218 15.8437 36.5562 15.8437 36.0874C15.8437 35.8249 15.4312 35.4405 15.1593 35.4405C15.0374 35.4405 14.8218 35.5249 14.6812 35.6374Z" fill="#6E3D68"/>
</svg>
