<svg width="160" height="80" viewBox="0 0 160 80" fill="none" xmlns="http://www.w3.org/2000/svg">
<circle cx="40" cy="40" r="40" fill="#6E3D68"/>
<path d="M80 80C85.2529 80 90.4543 78.9654 95.3073 76.9552C100.16 74.945 104.57 71.9986 108.284 68.2843C111.999 64.5699 114.945 60.1604 116.955 55.3073C118.965 50.4543 120 45.2529 120 40C120 34.7471 118.965 29.5457 116.955 24.6927C114.945 19.8396 111.999 15.4301 108.284 11.7157C104.57 8.00138 100.16 5.05501 95.3073 3.04482C90.4543 1.03463 85.2529 -4.59221e-07 80 0L80 40V80Z" fill="#E7A6A1"/>
<path d="M120 80C125.253 80 130.454 78.9654 135.307 76.9552C140.16 74.945 144.57 71.9986 148.284 68.2843C151.999 64.5699 154.945 60.1604 156.955 55.3073C158.965 50.4543 160 45.2529 160 40C160 34.7471 158.965 29.5457 156.955 24.6927C154.945 19.8396 151.999 15.4301 148.284 11.7157C144.57 8.00138 140.16 5.05501 135.307 3.04482C130.454 1.03463 125.253 -4.59221e-07 120 0L120 40V80Z" fill="#E7A6A1"/>
</svg>
