<svg width="25" height="25" viewBox="0 0 25 25" fill="none" xmlns="http://www.w3.org/2000/svg">
<mask id="mask0_9058_3460" style="mask-type:luminance" maskUnits="userSpaceOnUse" x="0" y="0" width="25" height="25">
<path d="M23.9947 0L0 0.504623L0.504623 24.4993L24.4993 23.9947L23.9947 0Z" fill="white"/>
</mask>
<g mask="url(#mask0_9058_3460)">
<path fill-rule="evenodd" clip-rule="evenodd" d="M6.08437 0.376665L0.0856959 0.50282L0.211852 6.50149C0.276095 9.55626 2.61249 12.0297 5.57345 12.3421C2.58604 12.7412 0.311802 15.3307 0.376666 18.415L0.502821 24.4137L6.50149 24.2875C9.55626 24.2233 12.0297 21.8868 12.3421 18.9259C12.7412 21.9133 15.3307 24.1875 18.415 24.1227L24.4137 23.9965L24.2875 17.9978C24.2233 14.9431 21.8868 12.4696 18.9259 12.1573C21.9133 11.7582 24.1875 9.16861 24.1227 6.08437L23.9965 0.0856954L17.9978 0.211851C14.9431 0.276094 12.4696 2.6125 12.1573 5.57345C11.7582 2.58604 9.16861 0.311801 6.08437 0.376665Z" fill="#1ACCBF"/>
</g>
</svg>
