<svg width="23" height="24" viewBox="0 0 23 24" fill="none" xmlns="http://www.w3.org/2000/svg">
<path fill-rule="evenodd" clip-rule="evenodd" d="M21.5972 9.60564C20.5154 10.7629 18.7424 11.6436 16.9405 12C18.7424 12.3564 20.5154 13.2371 21.5971 14.3944L22.8252 15.7082L21.0594 16.0493C19.504 16.3496 17.5519 16.02 15.8846 15.2491C17.1329 16.5967 18.0497 18.3512 18.2447 19.9234L18.466 21.7081L16.837 20.9462C15.402 20.2751 14.0166 18.8609 13.1208 17.2572C13.3386 19.0811 13.049 21.0395 12.2826 22.426L11.4126 24L10.5426 22.426C9.77621 21.0395 9.48659 19.0811 9.70448 17.2572C8.80867 18.8609 7.42326 20.275 5.98828 20.9462L4.35924 21.7081L4.58054 19.9234C4.7755 18.3512 5.6923 16.5967 6.94063 15.2491C5.2733 16.02 3.32126 16.3498 1.76584 16.0493L0 15.7082L1.22813 14.3944C2.30992 13.237 4.08296 12.3564 5.88491 12C4.0829 11.6436 2.30992 10.7629 1.22813 9.60564L0 8.29177L1.76584 7.9507C3.32126 7.65031 5.27336 7.98 6.94063 8.75084C5.6923 7.40333 4.7755 5.64871 4.58054 4.07659L4.35924 2.29177L5.98834 3.05381C7.42331 3.72497 8.80873 5.13912 9.70454 6.74278C9.48665 4.91888 9.77626 2.96048 10.5426 1.574L11.4127 0L12.2827 1.574C13.0492 2.96048 13.3387 4.91888 13.1208 6.74278C14.0167 5.13912 15.4021 3.72503 16.8371 3.05381L18.4662 2.29177L18.2448 4.07659C18.0499 5.64871 17.1331 7.40333 15.8848 8.75084C17.552 7.98 19.5041 7.65025 21.0595 7.9507L22.8254 8.29177L21.5972 9.60564ZM9.15052 14.2435C10.3839 15.4769 12.3836 15.4769 13.617 14.2435C14.8504 13.0102 14.8504 11.0104 13.617 9.77701C12.3836 8.54363 10.3839 8.54363 9.15052 9.77701C7.91713 11.0104 7.91713 13.0102 9.15052 14.2435Z" fill="white"/>
</svg>
