<svg width="24" height="24" viewBox="0 0 24 24" fill="none" xmlns="http://www.w3.org/2000/svg">
<mask id="mask0_8444_1446" style="mask-type:luminance" maskUnits="userSpaceOnUse" x="0" y="0" width="24" height="24">
<path d="M24 0L0 1.12323e-08L1.12328e-08 24L24 24L24 0Z" fill="white"/>
</mask>
<g mask="url(#mask0_8444_1446)">
<path fill-rule="evenodd" clip-rule="evenodd" d="M13.956 9.05687L17.9224 5.09054C18.195 4.81798 18.6368 4.81798 18.9095 5.09054C19.182 5.36312 19.182 5.80505 18.9095 6.07762L14.9431 10.044C15.8383 9.84277 16.8835 9.72727 18 9.72727C21.3137 9.72727 24 10.7448 24 12C24 13.2552 21.3137 14.2727 18 14.2727C16.8835 14.2727 15.8383 14.1572 14.9431 13.956L18.9095 17.9224C19.182 18.195 19.182 18.6368 18.9095 18.9095C18.6368 19.182 18.195 19.182 17.9224 18.9095L13.956 14.9431C14.1572 15.8383 14.2727 16.8836 14.2727 18C14.2727 21.3137 13.2552 24 12 24C10.7448 24 9.72727 21.3137 9.72727 18C9.72727 16.8835 9.84277 15.8383 10.044 14.9431L6.07762 18.9095C5.80505 19.182 5.36312 19.182 5.09056 18.9095C4.81799 18.6368 4.81799 18.195 5.09056 17.9224L9.05688 13.956C8.16162 14.1572 7.11642 14.2727 6 14.2727C2.6863 14.2727 6.20388e-09 13.2552 5.61641e-09 12C5.02894e-09 10.7448 2.6863 9.72727 6 9.72727C7.11642 9.72727 8.16163 9.84277 9.05688 10.044L5.09056 6.07763C4.81799 5.80506 4.81799 5.36314 5.09056 5.09056C5.36312 4.81799 5.80505 4.81799 6.07762 5.09056L10.044 9.05689C9.84277 8.16163 9.72727 7.11643 9.72727 6C9.72727 2.6863 10.7448 6.20332e-09 12 5.61585e-09C13.2552 5.02838e-09 14.2727 2.6863 14.2727 6C14.2727 7.11642 14.1572 8.16162 13.956 9.05687Z" fill="url(#paint0_linear_8444_1446)"/>
</g>
<defs>
<linearGradient id="paint0_linear_8444_1446" x1="5.61641e-09" y1="12" x2="24" y2="12" gradientUnits="userSpaceOnUse">
<stop stop-color="#316DFF"/>
<stop offset="1" stop-color="#1FB257"/>
</linearGradient>
</defs>
</svg>
