<svg width="32" height="32" viewBox="0 0 32 32" fill="none" xmlns="http://www.w3.org/2000/svg">
<g clip-path="url(#clip0_7988_3852)">
<path d="M15.5812 0.524369L15.4062 0.674368L15.3875 2.09937C15.375 3.09937 15.3875 3.57437 15.4437 3.69937C15.6 4.08687 16.175 4.16187 16.4375 3.83062C16.5562 3.68062 16.5625 3.58687 16.5625 2.20562V0.736868L16.3812 0.555619C16.1437 0.324368 15.8312 0.311868 15.5812 0.524369Z" fill="#475569"/>
<path d="M8.4375 2.38774C8.2625 2.48149 8.125 2.71274 8.125 2.93149C8.125 3.08774 9.375 5.31274 9.575 5.51274C9.70625 5.64399 10.1625 5.66274 10.3188 5.54399C10.4562 5.43774 10.5625 5.22524 10.5625 5.05024C10.5625 4.90649 9.325 2.68774 9.13125 2.48149C8.9875 2.33774 8.63125 2.28774 8.4375 2.38774Z" fill="#475569"/>
<path d="M22.95 2.4C22.8625 2.44375 22.525 2.95625 22.1188 3.6625C21.5562 4.6375 21.4375 4.8875 21.4375 5.1C21.4375 5.45 21.625 5.625 22.0063 5.625C22.225 5.625 22.3188 5.59375 22.4187 5.48125C22.4875 5.40625 22.825 4.84375 23.175 4.2375C23.9125 2.9625 23.9625 2.7625 23.6188 2.475C23.4125 2.3 23.175 2.26875 22.95 2.4Z" fill="#475569"/>
<path d="M14.9562 6.00625C13.0124 6.2125 11.0374 7.08125 9.62491 8.35625C8.00616 9.81875 7.00616 11.5437 6.54991 13.6625C6.36241 14.5625 6.34366 16.4563 6.51866 17.3438C7.04991 19.9812 8.54366 22.1937 10.7812 23.6625C11.7312 24.2812 11.9437 24.6375 11.9874 25.6375L12.0187 26.3125H15.9687H19.9187L19.9562 25.7C20.0187 24.65 20.2312 24.275 21.0874 23.725C24.1562 21.7375 25.8062 18.4812 25.5562 14.9C25.1812 9.44375 20.4062 5.4375 14.9562 6.00625ZM17.0124 9.8875L17.0312 10.4L17.3937 10.4875C17.5937 10.5375 18.0312 10.7125 18.3624 10.8812L18.9687 11.1875L19.3312 10.825L19.6874 10.4688L20.3874 11.175L21.0937 11.875L20.7312 12.2375L20.3687 12.6L20.6499 13.15C20.8062 13.45 20.9812 13.8875 21.0437 14.1312L21.1499 14.5625H21.6687H22.1874V15.5625V16.5625H21.6562C21.1812 16.5625 21.1249 16.575 21.1249 16.675C21.1249 16.875 20.8187 17.6937 20.5874 18.1125L20.3687 18.5187L20.7312 18.8875L21.0937 19.25L20.3749 19.9688L19.6562 20.6875L19.2812 20.3187L18.9062 19.95L18.4687 20.1937C18.2312 20.3312 17.7999 20.5125 17.5187 20.6L16.9999 20.7625V21.2875V21.8125H15.9999H14.9999V21.2875V20.7562L14.6437 20.6562C14.1374 20.5187 13.7124 20.3438 13.3437 20.125L13.0312 19.9437L12.6687 20.3L12.3124 20.6562L11.6062 19.95L10.9062 19.25L11.2562 18.9L11.6062 18.55L11.3124 17.9688C11.1499 17.65 10.9687 17.2063 10.9062 16.975L10.7937 16.5625H10.2749H9.74991V15.5625V14.5625H10.2749H10.7999L10.8749 14.2625C10.9749 13.8562 11.2812 13.1312 11.4624 12.875L11.6124 12.6562L11.2437 12.2812L10.8749 11.9062L11.5937 11.1875L12.3124 10.4688L12.6749 10.8313L13.0437 11.1937L13.3999 10.9812C13.6812 10.8125 14.4562 10.5125 14.9249 10.4C14.9749 10.3875 14.9999 10.225 14.9999 9.875V9.375H15.9999H16.9937L17.0124 9.8875Z" fill="#475569"/>
<path d="M15.1624 12.3815C13.5999 12.7503 12.4874 14.4253 12.7374 16.044C12.9874 17.6503 14.3249 18.8128 15.9374 18.819C16.5937 18.8253 16.9687 18.7378 17.5312 18.444C18.8437 17.769 19.5062 16.2565 19.1562 14.7565C18.8937 13.6628 18.0062 12.744 16.8812 12.4128C16.5062 12.3003 15.5687 12.2878 15.1624 12.3815Z" fill="#475569"/>
<path d="M3.11253 7.71831C2.78753 7.89956 2.71253 8.31206 2.95628 8.58706C3.10628 8.75581 5.18128 9.98081 5.41878 10.0371C5.62503 10.0933 5.85003 10.0183 6.00003 9.86206C6.18128 9.66831 6.16878 9.24956 5.98753 9.07456C5.75003 8.86206 3.66878 7.68081 3.46878 7.64956C3.36878 7.63706 3.20628 7.66831 3.11253 7.71831Z" fill="#475569"/>
<path d="M27.25 8.28749C26.6125 8.64999 26.0313 9.01874 25.9563 9.09999C25.75 9.33124 25.7625 9.64999 25.9938 9.88124C26.3 10.1812 26.4438 10.1437 27.7438 9.39374C28.3813 9.02499 28.95 8.67499 29.0125 8.61249C29.0875 8.53749 29.125 8.40624 29.125 8.22499C29.125 7.99374 29.0938 7.92499 28.9313 7.78749C28.825 7.69999 28.6625 7.62499 28.575 7.62499C28.475 7.62499 27.9313 7.89374 27.25 8.28749Z" fill="#475569"/>
<path d="M1.20622 14.9625C0.837469 15.1312 0.749969 15.6062 1.03747 15.9L1.20622 16.0625H2.69372C4.15622 16.0625 4.18122 16.0625 4.34997 15.9188C4.58747 15.7125 4.59372 15.3187 4.35622 15.0813L4.18747 14.9062L2.79372 14.8937C1.71247 14.8813 1.36247 14.8937 1.20622 14.9625Z" fill="#475569"/>
<path d="M27.65 15.0813C27.5187 15.2 27.4812 15.2812 27.4812 15.5C27.4812 15.7188 27.5187 15.8 27.65 15.9188C27.8187 16.0625 27.8437 16.0625 29.3187 16.0625H30.8187L30.9687 15.9062C31.0875 15.7937 31.125 15.6875 31.125 15.5C31.125 15.3125 31.0875 15.2063 30.9687 15.0938L30.8187 14.9375H29.3187C27.8437 14.9375 27.8187 14.9375 27.65 15.0813Z" fill="#475569"/>
<path d="M4.2375 21.5813C2.99375 22.2938 2.89375 22.3688 2.8375 22.5938C2.7375 22.9875 2.9875 23.3125 3.38125 23.3125C3.59375 23.3125 3.8375 23.1938 4.7875 22.65C5.41875 22.2875 5.98125 21.925 6.03125 21.8563C6.18125 21.6438 6.15 21.2688 5.96875 21.0938C5.6875 20.8063 5.46875 20.8625 4.2375 21.5813Z" fill="#475569"/>
<path d="M25.9749 21.1314C25.7937 21.3439 25.7687 21.5752 25.8999 21.8064C25.9499 21.9002 26.4374 22.2189 27.1562 22.6377C28.4624 23.3939 28.6749 23.4502 28.9687 23.1564C29.1562 22.9689 29.1812 22.5814 29.0187 22.3814C28.9562 22.3127 28.3937 21.9564 27.7624 21.5939C26.4499 20.8377 26.2562 20.7939 25.9749 21.1314Z" fill="#475569"/>
<path d="M12.0124 27.8062C12.0437 28.375 12.2749 28.7687 12.7187 28.9937L13.0249 29.1562H15.9999C18.9187 29.1562 18.9749 29.1562 19.2187 29.0187C19.7187 28.7562 19.9374 28.3625 19.9374 27.75V27.375H15.9624H11.9874L12.0124 27.8062Z" fill="#475569"/>
<path d="M13.4375 30.3373C13.4375 30.4935 13.8375 31.0248 14.1125 31.231C14.5625 31.5748 14.9188 31.6373 16.1437 31.6123C17.1625 31.5935 17.2375 31.581 17.5375 31.4248C17.8938 31.2373 18.3938 30.7248 18.4875 30.4373L18.5563 30.2498H15.9938C13.8563 30.2498 13.4375 30.2623 13.4375 30.3373Z" fill="#475569"/>
</g>
<defs>
<clipPath id="clip0_7988_3852">
<rect width="32" height="32" fill="white"/>
</clipPath>
</defs>
</svg>
