<svg width="32" height="32" viewBox="0 0 32 32" fill="none" xmlns="http://www.w3.org/2000/svg">
<path d="M14.7 0.599348C14.5437 0.705599 14.25 1.2556 14.0187 1.8681C13.9062 2.16185 13.7937 2.33685 13.5875 2.5181C13.3937 2.68685 13.2312 2.9181 13.0687 3.27435C12.8437 3.73685 12.625 4.44935 12.625 4.7056C12.625 4.77435 12.55 4.8181 12.3937 4.8431C11.7937 4.9306 10.85 5.1931 10.3812 5.3931C8.78748 6.08685 7.34998 7.5556 6.70623 9.1556C6.28748 10.2056 6.22498 10.5306 6.22498 11.8431C6.22498 12.8681 6.24373 13.0993 6.36248 13.5181C6.72498 14.8431 7.28748 15.8306 8.18748 16.7556C9.00623 17.5868 9.81873 18.1118 10.8812 18.4868C12.9125 19.2056 15.3062 18.9118 17.0812 17.7243C20.4812 15.4618 21.2812 10.8618 18.8375 7.6056C17.7125 6.1056 16.0312 5.12435 14.1437 4.8681C13.8437 4.82435 13.5875 4.78685 13.575 4.77435C13.5437 4.7556 13.675 4.2681 13.7937 3.94935L13.8937 3.6806L14.025 3.9181C14.2062 4.23685 14.6437 4.49935 15.0687 4.53685C15.6875 4.59935 16.1812 4.2181 16.2312 3.6431C16.3 2.9806 15.9125 2.3556 15.3062 2.1431C15.1375 2.0806 15 2.01185 15 1.9806C15 1.9556 15.1 1.73685 15.2187 1.49935C15.4812 0.986849 15.4875 0.855598 15.2812 0.655598C15.1062 0.474348 14.9 0.455599 14.7 0.599348ZM15.1625 3.1681C15.3375 3.3556 15.3375 3.5806 15.175 3.61185C15.025 3.6431 14.75 3.34935 14.75 3.1556C14.75 2.9431 14.9562 2.94935 15.1625 3.1681ZM10.4812 10.8431C11.1375 11.3056 11.2812 12.3743 10.6937 12.3743C10.6062 12.3743 10.5 12.3493 10.4625 12.3243C10.3562 12.2556 10.25 12.0243 10.25 11.8493C10.25 11.6306 10.025 11.4368 9.76873 11.4368C9.48748 11.4368 9.24998 11.6743 9.24998 11.9431C9.24998 12.1993 9.09373 12.3743 8.86248 12.3743C8.14998 12.3743 8.41873 11.1118 9.21248 10.7368C9.59998 10.5618 10.1437 10.6056 10.4812 10.8431ZM17.3687 10.8306C18.0687 11.2931 18.2062 12.3743 17.5687 12.3743C17.3437 12.3743 17.2125 12.2181 17.1687 11.9056C17.1187 11.6056 16.9375 11.4368 16.65 11.4368C16.3937 11.4368 16.1875 11.6181 16.1875 11.8493C16.1875 12.0243 16.0875 12.2556 15.975 12.3243C15.8437 12.4118 15.5812 12.3743 15.4687 12.2493C15.3 12.0618 15.3625 11.5056 15.6 11.1743C16 10.6056 16.8 10.4556 17.3687 10.8306ZM12.2312 12.9681C12.3125 13.0243 12.425 13.1868 12.4937 13.3431C12.6437 13.6868 12.85 13.8243 13.2187 13.8243C13.5937 13.8243 13.8 13.6806 13.9562 13.3118C14.1 12.9681 14.2875 12.8431 14.5312 12.9368C15.0562 13.1368 14.6625 14.0993 13.9125 14.4681C13.4312 14.6993 12.9937 14.6993 12.5187 14.4618C11.7625 14.0806 11.3812 13.1431 11.8937 12.9368C12.0812 12.8618 12.0812 12.8618 12.2312 12.9681Z" fill="#475569"/>
<path d="M5.08125 9.7498C4.45625 9.8748 3.8625 10.3498 3.5875 10.9561C3.4375 11.2811 3.40625 11.4248 3.40625 11.8436C3.40625 12.2623 3.4375 12.4061 3.58125 12.7248C3.9 13.4061 4.54375 13.8748 5.30625 13.9748L5.64375 14.0186L5.6 13.8061C5.39375 12.7811 5.3625 12.4311 5.4 11.5623C5.41875 11.0623 5.475 10.4748 5.525 10.2498C5.58125 10.0248 5.61875 9.80605 5.625 9.7623C5.625 9.68105 5.475 9.6748 5.08125 9.7498Z" fill="#475569"/>
<path d="M20.8375 9.9123C21.1313 11.5248 21.1313 12.1623 20.8375 13.7748L20.7938 14.0186L21.1313 13.9748C21.8813 13.8748 22.4938 13.4373 22.825 12.7623C23.0063 12.3936 23.0313 12.2873 23.0313 11.8436C23.025 11.2623 22.8563 10.8123 22.4688 10.3811C22.1875 10.0686 21.5875 9.7748 21.1313 9.7123L20.7938 9.6748L20.8375 9.9123Z" fill="#475569"/>
<path d="M6.77499 17.1187C6.66874 17.1812 6.54999 17.3187 6.50624 17.4187C6.44999 17.5562 6.43749 18.5813 6.44999 21.6937L6.47499 25.7812L6.64374 26.4062C7.04374 27.8875 7.93749 29.2313 9.11874 30.1313C9.86874 30.7 11.4375 31.375 12.0062 31.375C12.1687 31.375 13.1125 30.7875 13.6875 30.325C14.2 29.9125 15.075 29.0375 15.35 28.65C15.9437 27.825 16.1625 27.1562 16.1125 26.325C16.0562 25.3438 15.4937 24.5312 14.1312 23.4812C11.6875 21.6062 8.83124 18.9312 7.56249 17.325C7.26874 16.9625 7.10624 16.9187 6.77499 17.1187ZM13.5062 25.4437C14.1375 25.6562 14.425 26.35 14.125 26.9313C13.6625 27.8438 12.2875 27.5625 12.2 26.5375C12.1375 25.7812 12.8187 25.2125 13.5062 25.4437Z" fill="#475569"/>
<path d="M18.6625 17.4745C16.575 19.462 13.6937 20.1745 10.9812 19.3683C10.7437 19.2995 10.5312 19.2495 10.5062 19.262C10.3875 19.312 12.8062 21.437 14.3937 22.6808C16.275 24.1558 16.8625 25.012 16.925 26.3808C16.9687 27.287 16.725 28.0495 16.1187 28.9495C15.7687 29.4683 14.8625 30.3995 14.2312 30.887C13.3687 31.562 13.4 31.512 13.9062 31.462C14.6125 31.3995 15.4812 31.1495 16.1625 30.812C17.6125 30.1058 18.6875 29.012 19.375 27.537C19.75 26.7495 19.75 26.7183 19.4125 26.2183C19.0625 25.6933 18.7875 24.9933 18.6937 24.3933C18.6562 24.1308 18.625 23.0245 18.625 21.7308C18.625 19.1308 18.5625 19.337 19.4312 18.9683L20 18.7245V18.1683C20 17.537 19.9062 17.2683 19.6312 17.1058C19.3187 16.9245 19.1937 16.9683 18.6625 17.4745Z" fill="#475569"/>
<path d="M21.6688 18.8617L19.4313 19.8367L19.45 22.1492C19.475 24.668 19.475 24.6555 19.875 25.4367C20.2188 26.1117 21.1063 27.043 21.9063 27.568C22.3688 27.8805 23.2813 28.3492 23.7563 28.5242L24.0438 28.6367L24.5375 28.4367C26.4 27.693 27.9188 26.318 28.45 24.8992C28.5813 24.5492 28.5875 24.4242 28.6125 22.1805C28.6313 20.2805 28.6188 19.8242 28.55 19.793C28.5063 19.7742 27.4875 19.3367 26.2875 18.818C25.0875 18.2992 24.0563 17.8805 24.0063 17.8805C23.95 17.8867 22.9 18.3242 21.6688 18.8617ZM24.875 20.6867C24.9063 20.7367 24.9375 21.1242 24.9375 21.543V22.3117H25.7125C26.3375 22.3117 26.5125 22.3305 26.5875 22.4117C26.7375 22.5555 26.7313 23.9492 26.5813 24.068C26.5125 24.1305 26.2438 24.1617 25.7063 24.1742L24.9375 24.1992V24.9617C24.9375 25.4742 24.9125 25.7492 24.8625 25.7992C24.7563 25.9055 23.3063 25.9055 23.2 25.7992C23.15 25.7492 23.125 25.4742 23.125 24.9617V24.1992L22.3375 24.1742C21.35 24.1492 21.375 24.1742 21.375 23.2242C21.375 22.293 21.3563 22.3117 22.3563 22.3117H23.125V21.5367C23.125 20.5367 23.1125 20.5492 24.1125 20.5742C24.6563 20.5867 24.8313 20.6117 24.875 20.6867Z" fill="#475569"/>
</svg>
