<svg width="32" height="32" viewBox="0 0 32 32" fill="none" xmlns="http://www.w3.org/2000/svg">
<g clip-path="url(#clip0_7983_4689)">
<path d="M21.9375 0.112136C21.4938 0.262136 21.15 0.480886 20.8625 0.799636C20.4938 1.20589 20.4188 1.43714 20.6563 1.43714C20.7 1.43714 20.9875 1.56214 21.3 1.71839C21.725 1.93089 21.9438 2.09339 22.2063 2.37464C22.6938 2.89339 22.8438 3.44339 22.5188 3.48714C22.4125 3.50589 22.3688 3.46839 22.3438 3.33089C22.1875 2.62464 21.4688 2.06214 20.35 1.76839L19.9313 1.65589L19.5875 1.83714C18.8813 2.20589 18.4375 2.93089 18.3875 3.78089C18.3625 4.26214 18.35 4.28714 18.1 4.56214C17.5313 5.18089 17.35 5.68089 17.3875 6.54964C17.4063 7.04964 17.4438 7.21839 17.5875 7.51839C17.7875 7.93089 17.8813 7.99339 18.6438 8.21214C19.6188 8.49339 20.4563 8.48714 20.875 8.18714C21.0688 8.04964 21.25 8.08089 21.25 8.24964C21.25 8.39964 20.9438 8.61839 20.5813 8.72464C20.1813 8.84339 19.4313 8.83089 18.85 8.69339L18.3625 8.57464L18.3875 8.99339C18.4438 9.96214 19.2 10.8621 20.1688 11.1184C20.3375 11.1621 20.4438 11.2371 20.4688 11.3121C20.4875 11.3809 20.6188 11.5746 20.7563 11.7496C21.5875 12.7996 23.1313 12.9809 24.2188 12.1496L24.4375 11.9871V6.34339V0.699636L24.2188 0.537136C23.5813 0.0496359 22.6438 -0.125364 21.9375 0.112136ZM21.95 4.56214C22.0875 4.83714 22.0938 5.42464 21.9688 5.73089C21.8813 5.93714 21.8813 5.97464 21.9875 6.14964C22.1313 6.40589 22.575 6.62464 22.9375 6.62464C23.275 6.62464 23.4 6.71214 23.3063 6.88714C23.15 7.17464 22.15 6.92464 21.8 6.51214L21.6375 6.31214L21.2813 6.49964C20.875 6.71214 20.325 6.76214 20.1875 6.59339C20.0563 6.43714 20.2188 6.31214 20.55 6.31214C21.3813 6.31214 21.9063 5.51839 21.6188 4.69339C21.475 4.28089 21.7563 4.16839 21.95 4.56214ZM23.5563 8.83714C23.7375 9.05589 23.125 9.78089 22.6313 9.92464C22.1188 10.0809 21.675 9.97464 21.775 9.71839C21.8 9.65589 21.8938 9.62464 22.0938 9.62464C22.6 9.62464 22.9813 9.40589 23.1938 8.98089C23.3188 8.73714 23.4375 8.69339 23.5563 8.83714Z" fill="#475569"/>
<path d="M26.0438 0.0689583C25.7563 0.137708 25.4938 0.268958 25.1438 0.518958L24.875 0.706458V6.35021V11.9877L25.2562 12.244C25.6875 12.5315 25.9375 12.619 26.4688 12.669C27.3875 12.7502 28.4188 12.1877 28.7938 11.4002C28.875 11.2377 28.9563 11.169 29.15 11.119C30.15 10.8502 30.8688 9.96896 30.925 8.95646L30.95 8.50021L30.7125 8.58771C29.9188 8.86271 28.8125 8.88146 28.2875 8.61896C27.9062 8.42521 27.8063 8.29396 27.95 8.15021C28.0438 8.05646 28.0688 8.06271 28.325 8.21271C28.675 8.41896 29.2125 8.47521 29.7875 8.38146C30.3812 8.28146 31.35 7.95021 31.5375 7.78771C31.9188 7.45646 32.0687 6.26896 31.8125 5.53771C31.675 5.13771 31.525 4.89396 31.1875 4.53146C30.9625 4.29396 30.95 4.25646 30.925 3.78146C30.8812 3.01896 30.5687 2.41896 29.975 1.99396C29.6875 1.78146 29.5 1.76896 28.8563 1.91271C27.8438 2.14396 27.1938 2.58771 27.025 3.16896C26.9438 3.45646 26.9062 3.50646 26.7938 3.48771C26.4875 3.44396 26.625 2.88146 27.0438 2.42521C27.3875 2.06271 27.6938 1.88146 28.3438 1.65021C28.6188 1.55646 28.85 1.47521 28.8625 1.46271C28.9125 1.43146 28.6562 1.02521 28.425 0.775208C27.8438 0.143958 26.9062 -0.131042 26.0438 0.0689583ZM27.7 4.53146C27.6938 4.63771 27.6688 4.89396 27.65 5.10646C27.6125 5.45021 27.6313 5.52521 27.775 5.77521C27.9688 6.10646 28.3438 6.31271 28.7625 6.31271C29.0938 6.31271 29.2562 6.43771 29.125 6.59396C28.9875 6.76271 28.4375 6.71271 28.0312 6.50021L27.6813 6.31896L27.5 6.52521C27.2375 6.81896 26.7625 7.01271 26.3563 6.98771C26.0562 6.96896 26.0312 6.95646 26.0312 6.81271C26.0312 6.66896 26.0562 6.65646 26.4062 6.61896C26.8563 6.57521 27.1313 6.44396 27.3125 6.18771C27.4438 6.00646 27.4438 5.98771 27.35 5.74396C27.1813 5.32521 27.25 4.58146 27.475 4.35646C27.5875 4.24396 27.7188 4.35021 27.7 4.53146ZM27.225 8.83771C27.275 8.97521 27.025 9.40646 26.7688 9.61896C26.375 9.94396 25.7125 10.094 25.4625 9.91271C25.3688 9.83771 25.3563 9.80021 25.4125 9.70646C25.4625 9.62521 25.575 9.59396 25.8438 9.58146C26.2875 9.56271 26.6313 9.36271 26.8125 9.00021C26.9438 8.74396 27.1562 8.66271 27.225 8.83771Z" fill="#475569"/>
<path d="M9.90623 4.19375C8.96873 4.33125 7.22498 5.01875 6.83748 5.40625C6.61873 5.625 6.63123 6.025 6.87498 6.38125L7.05623 6.65625L6.74373 6.7625C6.19373 6.95 6.01873 7.09375 5.87498 7.4875C5.34373 8.90625 5.21873 11.0375 5.59373 12.4062C5.73123 12.9062 5.78123 13.2437 5.81873 14.0938C5.97498 17.1562 6.54373 18.6625 7.99373 19.8375L8.21248 20.0125L8.06873 20.7375L7.92498 21.4688L9.01248 26.7188L10.1 31.9688L11.6687 31.9875L13.2375 32L13.275 31.8312C13.2937 31.7312 13.7937 29.3625 14.375 26.5625L15.4437 21.4688L15.3187 20.9375C15.1125 20.0312 15.1062 20.0562 15.525 19.6875C16.1375 19.1562 16.4875 18.6937 16.8437 17.9688C17.35 16.9375 17.5937 15.8125 17.6625 14.2188C17.6812 13.7375 17.7562 13.0063 17.825 12.5938C17.9937 11.6313 18.0062 10.3125 17.8562 9.55625C17.3 6.725 15.2125 4.73125 12.2687 4.21875C11.6937 4.11875 10.5187 4.10625 9.90623 4.19375ZM14.675 12.1375C15.0312 12.4 15.5562 12.7687 15.85 12.95L16.3812 13.2812L16.35 14.125C16.2625 16.2188 15.7875 17.6 14.825 18.5125C14.3375 18.9812 13.9625 19.2125 12.7625 19.7812C11.975 20.1562 11.7125 20.2562 11.5812 20.2188C11.1937 20.125 9.25623 19.125 8.89373 18.8313C7.69998 17.875 7.21248 16.5875 7.16873 14.2625L7.15623 13.4875L7.84998 13.3125C8.68748 13.1 9.56248 12.7625 10.15 12.4187C10.6562 12.1313 11.2937 11.5125 11.4625 11.1562C11.5562 10.9562 11.65 10.875 11.9062 10.7625C12.0875 10.6812 12.325 10.5437 12.4312 10.45L12.6312 10.2812L13.3312 10.9688C13.7187 11.3438 14.3187 11.875 14.675 12.1375ZM11.05 21.4312C11.725 21.6625 12 21.6125 13.225 21.0312L13.9187 20.7063L14 21.1187C14.0687 21.4688 14.3 22.1937 14.4625 22.5687C14.5 22.65 14.2187 22.8812 13.1562 23.65C12.4125 24.1937 11.7687 24.625 11.725 24.6125C11.6812 24.6 11.0125 24.1562 10.2375 23.625L8.83123 22.6562L8.98123 22.325C9.10623 22.0437 9.26248 21.4937 9.39998 20.8625L9.43748 20.6875L10.0562 20.9937C10.3937 21.1687 10.8437 21.3625 11.05 21.4312Z" fill="#475569"/>
<path d="M24.1249 13.2C22.85 13.3 21.5625 13.9812 20.7125 14.9937C20.3062 15.475 19.8 16.475 19.6625 17.0625C19.3625 18.3688 19.55 19.6937 20.2062 20.875C20.5187 21.4375 21.4187 22.3687 21.95 22.6812C22.3875 22.9313 22.9125 23.15 23.4437 23.2937C23.9937 23.4438 25.3187 23.4438 25.8687 23.2937C27.7812 22.775 29.125 21.45 29.6312 19.5938C29.825 18.9 29.825 17.6813 29.6375 16.9812C29.35 15.9313 28.65 14.875 27.8 14.2312C26.7125 13.4062 25.5624 13.0813 24.1249 13.2ZM24.8625 15.95C24.9125 16 24.9374 16.325 24.9374 17.0125V18H25.925C26.9625 18 27.0625 18.025 27.0625 18.2812C27.0625 18.5375 26.9625 18.5625 25.925 18.5625H24.9374L24.925 19.5687C24.9062 20.5062 24.9 20.5875 24.7812 20.6625C24.6687 20.7375 24.6312 20.7313 24.5125 20.65C24.3812 20.5562 24.3749 20.5125 24.3749 19.5562V18.5625H23.3874C22.6999 18.5625 22.375 18.5375 22.325 18.4875C22.2125 18.375 22.2375 18.1375 22.3687 18.0625C22.4375 18.0312 22.9062 18 23.4312 18H24.3749V17.0125C24.3749 15.975 24.4 15.875 24.6562 15.875C24.7312 15.875 24.8187 15.9062 24.8625 15.95Z" fill="#475569"/>
<path d="M4.21875 22.2312C2.5375 22.4625 1.0125 23.675 0.38125 25.2625C0.04375 26.1062 0.03125 26.2562 0.03125 29.05V31.6375L0.2375 31.8187L0.4375 32H2.53125H4.625L4.6375 30.3062C4.65625 28.675 4.6625 28.6063 4.78125 28.525C4.89375 28.45 4.93125 28.4562 5.05 28.5375C5.1875 28.6312 5.1875 28.65 5.1875 30.3188V32H7.34375C8.53125 32 9.5 31.975 9.5 31.9437C9.5 31.9187 9.05 29.7188 8.5 27.0625C7.95 24.4062 7.5 22.225 7.5 22.2125C7.5 22.1812 4.45625 22.2 4.21875 22.2312ZM6.6125 26.4125C6.775 26.525 6.7875 26.7 6.65 26.8375C6.56875 26.925 6.35 26.9375 5.2125 26.9375C3.95625 26.9375 3.86875 26.9313 3.75 26.8125C3.68125 26.7438 3.625 26.6562 3.625 26.625C3.625 26.5875 3.68125 26.5062 3.75 26.4375C3.86875 26.3187 3.95625 26.3125 5.175 26.3125C6.25 26.3125 6.49375 26.3312 6.6125 26.4125Z" fill="#475569"/>
<path d="M15.8562 22.325C15.8375 22.4 15.3937 24.5062 14.875 27C14.3562 29.4937 13.9062 31.6375 13.875 31.7625L13.825 32H16.0687H18.3125L18.325 30.3062C18.3437 28.675 18.35 28.6063 18.4687 28.525C18.5812 28.45 18.6187 28.4562 18.7375 28.5375C18.875 28.6312 18.875 28.65 18.875 30.3188V32H20.975C22.2937 32 23.1125 31.975 23.1937 31.9375C23.4875 31.775 23.5 31.6625 23.5 29.0812C23.5 26.925 23.4875 26.5875 23.375 26.0687C23.0187 24.3187 21.6812 22.8875 19.925 22.3687C19.5125 22.2437 19.2875 22.225 17.6812 22.2063L15.8937 22.175L15.8562 22.325Z" fill="#475569"/>
</g>
<defs>
<clipPath id="clip0_7983_4689">
<rect width="32" height="32" fill="white"/>
</clipPath>
</defs>
</svg>
