<svg width="32" height="32" viewBox="0 0 32 32" fill="none" xmlns="http://www.w3.org/2000/svg">
<path d="M16.3125 0.244142C15.9563 0.375392 15.6562 0.506641 15.6438 0.537891C15.6312 0.569141 15.8187 1.05664 16.0625 1.61289C16.3 2.17539 16.5 2.68164 16.5 2.74414C16.5 2.80664 16.45 2.90039 16.3938 2.95039C16.1875 3.11914 14.65 3.76289 14.4938 3.73789C14.3688 3.72539 14.2438 3.53164 13.775 2.65664C13.4062 1.96914 13.175 1.60039 13.1188 1.61289C12.9313 1.65039 11.625 2.27539 11.625 2.32539C11.625 2.35664 11.8812 2.84414 12.1937 3.41289C12.5062 3.97539 12.75 4.48789 12.7375 4.55039C12.7188 4.65039 12.0375 5.19414 11.2687 5.72539C11.0125 5.90039 10.9062 5.94414 10.8125 5.90039C10.7438 5.86914 10.35 5.39414 9.93125 4.84414C9.51875 4.29414 9.15 3.84414 9.11875 3.84414C9.04375 3.84414 7.875 4.87539 7.875 4.94414C7.875 4.97539 8.175 5.38789 8.54375 5.86289C9.4875 7.06914 9.4375 6.96289 9.20625 7.47539C8.625 8.74414 8.56875 10.2379 9.05 11.6254C9.44375 12.7566 10.4875 14.2566 11.4375 15.0566L11.7687 15.3379L12.0375 15.0254C12.8313 14.1254 13.7125 12.6879 14.6688 10.7504C16.05 7.95039 16.9812 6.53789 18.375 5.11914C18.9563 4.53164 19.8 3.80664 20.1125 3.63164C20.2063 3.57539 20.1938 3.54414 19.9688 3.31289C19.6313 2.96289 19.0563 2.55039 18.5625 2.31914L18.1562 2.12539L17.6625 1.06289C17.3188 0.306642 17.1438 0.00039196 17.0688 0.00664139C17.0125 0.00664139 16.675 0.112891 16.3125 0.244142Z" fill="#475569"/>
<path d="M21.025 4.025C20.4312 4.2125 19.1562 5.275 18.2875 6.3125C17.2125 7.59375 16.575 8.61875 15.45 10.8687C14.975 11.8188 14.4062 12.8875 14.1937 13.2437C13.0937 15.0938 11.9875 16.3562 11.0875 16.8C10.8 16.9375 10.7312 16.95 10.5937 16.8875C10.4562 16.825 10.4312 16.775 10.45 16.6125C10.4687 16.4437 10.5187 16.3875 10.8 16.2437C11.4437 15.9125 11.4437 15.9375 10.8187 15.3188C10.2 14.7125 9.63124 14.0125 9.28124 13.4375C8.99999 12.9688 9.01874 12.9562 8.56249 13.9062C7.91874 15.2375 7.71874 16.1438 7.72499 17.6875C7.73124 18.5687 7.75624 18.9125 7.86874 19.4375C8.56249 22.7437 11.025 26.2438 14.2625 28.55C15.8125 29.6437 17.8875 30.6812 19.7187 31.2688C21.3062 31.7812 22.6875 32 24.2687 32C25.5062 32 25.9187 31.925 26.625 31.575C27.2062 31.2937 27.9375 30.5875 28.2312 30.0312C28.5937 29.3312 28.9562 27.9812 29.125 26.6875C29.2375 25.8187 29.275 23.6312 29.1937 22.4688C28.7 15.4062 26.575 10.4 23.2937 8.5625C23.0937 8.45 22.9062 8.38125 22.8812 8.4125C22.8562 8.44375 22.6562 8.71875 22.4375 9.03125C22.2125 9.3375 21.6312 10.1 21.1375 10.7188C20.2437 11.8375 19.4625 12.925 19.5125 12.9688C19.525 12.9875 19.7812 13.0688 20.075 13.15C21.5875 13.5938 22.8562 14.2812 23.8312 15.1875C24.0937 15.4312 24.3687 15.7312 24.4375 15.85C24.5687 16.05 24.5687 16.075 24.475 16.2188C24.4187 16.3062 24.3187 16.375 24.2562 16.375C24.1875 16.375 23.8937 16.1312 23.5812 15.8188C22.7437 14.9812 21.6812 14.3375 20.4125 13.9125C19.8625 13.7312 19.1812 13.5437 19.1625 13.575C19.15 13.5875 19.0812 13.75 19 13.9375C18.725 14.5875 18.6187 15.0312 18.5812 15.6562C18.5375 16.475 18.6562 17.1062 19.1 18.3625C20.025 20.975 20.1625 21.55 20.1062 22.5625C20.0875 22.8875 20.0375 23.2688 19.9875 23.4062C19.9187 23.6187 19.875 23.6562 19.7125 23.675C19.3937 23.7063 19.35 23.5875 19.4375 22.9625C19.5812 21.95 19.4437 21.2125 18.725 19.1937C18.0187 17.2063 17.975 17.0188 17.9687 15.9062C17.9687 14.9812 17.975 14.9562 18.2062 14.2812C18.6312 13.0625 19.1687 12.1938 20.7187 10.25C22.5375 7.975 23.2625 6.66875 23.2625 5.68125C23.2625 4.46875 22.175 3.66875 21.025 4.025ZM12.4062 22.0437C12.45 22.1062 12.6562 22.3812 12.85 22.6562C14.1312 24.4625 15.8812 25.95 18.0625 27.0875C20.0187 28.1 21.8937 28.6625 23.75 28.7875C24.4187 28.8312 24.625 28.9062 24.625 29.1125C24.625 29.1688 24.5812 29.2625 24.5187 29.325C24.2312 29.6437 21.6312 29.2375 19.9062 28.6C19.0062 28.2625 17.1437 27.3312 16.3437 26.8125C14.6875 25.7312 13.2437 24.3375 12.1875 22.8062C11.875 22.35 11.8125 22.15 11.95 22.0125C12.0625 21.9 12.3 21.9187 12.4062 22.0437Z" fill="#475569"/>
<path d="M3.25627 8.43145C3.05627 8.90645 2.93752 9.4252 2.93752 9.85645C2.93752 10.2189 2.95002 10.2502 3.14377 10.3939C3.68127 10.8002 4.55002 11.1314 5.37502 11.2502C5.81877 11.3127 6.06252 11.4377 6.06252 11.5939C6.06252 11.7814 5.86877 11.8877 5.20627 12.0627C4.41252 12.2689 3.71252 12.5439 3.13752 12.8689C2.76252 13.0814 2.74377 13.1064 2.77502 13.2814C2.85002 13.6439 3.18752 14.2252 3.51877 14.5502L3.85627 14.8877L4.38127 14.6377C5.38752 14.1627 6.49377 13.8752 7.30627 13.8752H7.73127L7.85002 13.6127C7.91252 13.4689 8.11252 13.1002 8.29377 12.8002L8.61252 12.2564L8.49377 11.9314C8.30002 11.4314 8.13752 10.6564 8.08752 10.0502L8.04377 9.5002L7.85002 9.46895C7.03127 9.3377 6.76877 9.2877 6.21877 9.1502C5.48752 8.9627 4.58127 8.63145 3.98752 8.3377C3.75627 8.21895 3.52502 8.1252 3.47502 8.1252C3.43127 8.1252 3.33127 8.2627 3.25627 8.43145Z" fill="#475569"/>
</svg>
