<svg width="32" height="32" viewBox="0 0 32 32" fill="none" xmlns="http://www.w3.org/2000/svg">
<path d="M12.7147 10.8292C13.9733 12.0879 14.6667 13.7625 14.6667 15.5425V30.6665C14.6667 31.4025 14.0693 31.9999 13.3333 31.9999C12.5973 31.9999 12 31.4025 12 30.6665V15.5425C12 15.3385 11.9827 15.1345 11.952 14.9332C11.7107 16.6679 10.716 18.2639 9.116 19.2012C8.156 19.7359 7.14 19.9892 6.152 19.9892C4.14667 19.9892 2.26133 18.9439 1.20667 17.0799C0.188 15.2759 0 13.5039 0 10.6665C0 7.57721 1.56667 3.35988 5.96133 0.787877C7.30133 0.00521072 8.86267 -0.204123 10.3547 0.197211C11.8627 0.603877 13.1213 1.58388 13.8973 2.95588C15.3507 5.52654 14.6667 8.76254 12.4147 10.5279L12.7147 10.8292ZM26.0387 0.787877C24.7 0.00521072 23.1373 -0.204123 21.6453 0.197211C20.1373 0.603877 18.8787 1.58388 18.1027 2.95588C16.6493 5.52654 17.3333 8.76254 19.5853 10.5279L19.2853 10.8279C18.0267 12.0865 17.3333 13.7612 17.3333 15.5412V30.6652C17.3333 31.4012 17.9307 31.9985 18.6667 31.9985C19.4027 31.9985 20 31.4012 20 30.6652V15.5412C20 15.3372 20.016 15.1332 20.048 14.9332C20.288 16.6665 21.28 18.2612 22.8747 19.1945C22.8867 19.2012 22.9813 19.2545 22.992 19.2612C23.9 19.7652 24.872 20.0065 25.8267 20.0065C27.8187 20.0065 29.7293 18.9585 30.7933 17.0785C31.8133 15.2745 32 13.5039 32 10.6652C32 7.57588 30.4347 3.35854 26.0387 0.786544V0.787877Z" fill="#475569"/>
</svg>
