<svg width="32" height="32" viewBox="0 0 32 32" fill="none" xmlns="http://www.w3.org/2000/svg">
<path d="M13.4062 1.56875C8.85623 1.9625 5.19999 3.475 2.68749 6C1.28749 7.40625 0.387485 8.975 0.0937353 10.5188C-0.0312647 11.175 -0.0250147 12.4312 0.0999853 13.05C0.224985 13.65 0.487485 14.3438 0.793735 14.875C1.11249 15.425 1.92499 16.2312 2.46874 16.5437C3.35624 17.0625 4.59999 17.375 5.73124 17.375H6.31874L6.49999 16.9625C6.94374 15.9812 7.84374 14.8625 8.66873 14.275C9.18124 13.9062 9.86874 13.5938 10.5437 13.425C11 13.3062 11.25 13.2875 12 13.2937C12.5 13.3 13.0875 13.3438 13.3125 13.3875L13.7187 13.475L14.1937 13.025C14.7312 12.525 15.2187 12.2125 15.8875 11.9625C16.3062 11.8 16.4125 11.7875 17.25 11.7812C18.0312 11.7812 18.2187 11.8 18.625 11.9312C19.5312 12.2125 20.7875 12.9125 20.85 13.175C20.8937 13.3313 20.7312 13.5625 20.5812 13.5625C20.5375 13.5625 20.2437 13.4125 19.9375 13.225C18.3125 12.2437 16.7312 12.1312 15.375 12.8938C15.1875 13 14.7812 13.3313 14.475 13.6375C14.1062 14.0062 13.8875 14.1812 13.8187 14.1625C13.45 14.0437 12.5 13.9375 11.8812 13.9375C10.9312 13.9375 10.4187 14.0562 9.64373 14.4375C8.58123 14.9625 7.72499 15.8812 7.10624 17.1687L6.84374 17.7188V18.5625C6.84999 19.3563 6.86248 19.4375 7.04998 19.9312C7.29998 20.6 7.72499 21.275 8.11248 21.6437C8.91873 22.3937 10.4937 22.875 12.1625 22.875C13.4125 22.875 14.3 22.65 15.1687 22.125C16.6625 21.2062 17.8187 20.8563 19.35 20.8687L20.3 20.875L20.6937 20.6625C20.9125 20.55 21.2812 20.3563 21.5062 20.2313C21.7312 20.1063 22.1 19.9562 22.3187 19.9C23.2375 19.6625 24.8062 19.9437 26.7562 20.6937L27.7625 21.0812L28.4187 20.9187C30.8312 20.3062 31.7062 19.35 31.9375 17.0687C32.0187 16.2312 32.0187 14.1625 31.9312 13.3875C31.3125 7.65625 27.7062 3.79375 21.5625 2.2875C19.4062 1.75625 17.9125 1.56875 15.6562 1.53125C14.8 1.51875 13.7875 1.5375 13.4062 1.56875ZM16.4687 3.25C16.6062 3.4 16.575 3.8125 16.3687 4.625C16.075 5.76875 15.55 6.7125 14.7875 7.4625C14.1187 8.1125 14.1 8.16875 14.3062 9.03125C14.4187 9.475 14.4187 9.55 14.3375 9.66875C14.2187 9.85625 13.9687 9.85625 13.85 9.66875C13.8 9.59375 13.7 9.25 13.6187 8.90625C13.4187 7.9875 13.425 7.95 14.2812 7.0625C14.9125 6.4 15.0312 6.25 15.3062 5.675C15.6062 5.0625 15.8125 4.36875 15.9125 3.65625C15.975 3.1625 16.225 2.98125 16.4687 3.25ZM20.5937 3.7875C20.7687 3.9625 20.6875 4.19375 20.3812 4.36875C20.05 4.56875 19.8812 4.775 19.8375 5.0625L19.8 5.28125L20.3875 5.2875C20.9375 5.29375 21.7625 5.45625 22.1562 5.6375C22.3312 5.7125 22.4 5.875 22.3437 6.05625C22.2812 6.25 22.1125 6.2625 21.5875 6.1125C20.9437 5.93125 20.05 5.91875 19.5812 6.08125C19.4 6.14375 19.1187 6.31875 18.95 6.46875C18.3562 7.00625 18.075 7.79375 18.0187 9.125C18 9.5875 17.9562 10.0062 17.9187 10.0437C17.8312 10.1625 17.5937 10.1438 17.4687 10C17.3687 9.8875 17.3625 9.7875 17.3937 8.9875C17.4312 7.98125 17.5625 7.36875 17.875 6.75C18.1187 6.275 18.5312 5.81875 18.9062 5.61875C19.1812 5.475 19.1875 5.4625 19.1875 5.15625C19.1937 4.6 19.5312 4.0875 20.0875 3.8125C20.4 3.6625 20.4625 3.65625 20.5937 3.7875ZM11.5 3.9C12.2312 4.05625 13.1687 4.375 13.2875 4.50625C13.4312 4.6625 13.3562 4.925 13.1562 4.975C13.0625 5 12.7812 4.9375 12.425 4.81875C12.1062 4.7125 11.6375 4.5875 11.3875 4.53125C10.8375 4.41875 9.89373 4.40625 9.54373 4.5125C9.07498 4.65625 8.74998 5.10625 8.74998 5.6375C8.74998 5.88125 8.54373 6 8.11874 6C6.75624 6 5.55624 7.125 5.11874 8.8125C4.93124 9.5375 4.76249 9.70625 4.48749 9.45625C4.33749 9.31875 4.34374 9.1625 4.53749 8.55C5.09999 6.75 6.23124 5.6 7.66249 5.36875L8.12498 5.29375L8.19374 5.01875C8.33749 4.45625 8.79373 4.025 9.43748 3.84375C9.85623 3.73125 10.8062 3.75625 11.5 3.9ZM24.9687 7.025C25.975 7.2875 26.8937 8.05625 27.4375 9.06875C27.6625 9.5 27.675 9.65625 27.475 9.78125C27.25 9.93125 27.1062 9.825 26.8312 9.29375C26.3937 8.4625 25.6125 7.8375 24.75 7.625C24.4125 7.5375 24.3312 7.49375 24.2875 7.35625C24.2375 7.225 24.25 7.1625 24.3437 7.0625C24.475 6.91875 24.55 6.9125 24.9687 7.025ZM11.0687 7.975C11.525 8.075 11.6875 8.18125 11.6875 8.375C11.6875 8.58125 11.5 8.70625 11.2562 8.6625C10.525 8.53125 10.2437 8.50625 9.90623 8.5625C9.09373 8.69375 8.58749 9.15 8.22499 10.0687C8.12498 10.325 7.94374 10.4062 7.75624 10.2688C7.58123 10.15 7.59374 9.91875 7.78749 9.5C8.39373 8.2 9.59373 7.6375 11.0687 7.975ZM22.15 8.775C22.8 8.96875 23.2875 9.525 23.5562 10.3625C23.725 10.875 23.7125 10.9937 23.4875 11.1187C23.3375 11.2063 23.3125 11.2063 23.2 11.1062C23.1375 11.0437 23.0437 10.8812 23 10.7312C22.9 10.3812 22.7062 10.0062 22.5375 9.825C22.1125 9.35 21.3062 9.30625 20.4937 9.70625C20.2375 9.83125 19.9187 10 19.775 10.0875C19.5437 10.2375 19.5125 10.2437 19.3875 10.15C19.25 10.0562 19.2062 9.84375 19.3 9.7125C19.3812 9.59375 19.9312 9.24375 20.3312 9.0625C21.0937 8.70625 21.6312 8.61875 22.15 8.775ZM3.71874 10.525C3.80624 10.6625 3.79999 10.7 3.59374 11.1312C3.02499 12.3375 3.21874 13.35 4.16249 14.0625C4.50624 14.3187 4.58749 14.5125 4.42499 14.675C4.27499 14.825 4.03124 14.7562 3.65624 14.45C2.69374 13.675 2.38749 12.5875 2.79999 11.4062C3.13124 10.4688 3.46874 10.1375 3.71874 10.525ZM27.7625 11C27.95 11.1438 28.325 11.8438 28.4562 12.2875C28.5062 12.4625 28.5687 12.7937 28.5937 13.0188C28.6375 13.3938 28.6562 13.4375 28.8062 13.4875C29.0812 13.5813 29.3812 13.9375 29.6125 14.4312C29.8437 14.9313 29.8312 15.1312 29.5687 15.2188C29.3687 15.2812 29.2625 15.1813 29.0125 14.6812C28.8187 14.2937 28.7562 14.2125 28.6125 14.2C28.5187 14.1875 28.375 14.225 28.2875 14.2812C28.1375 14.3812 28.125 14.3812 27.9687 14.2188C27.8562 14.1062 27.8187 14.025 27.8437 13.95C27.8687 13.8938 27.9062 13.6125 27.925 13.3313C27.9562 12.7125 27.8 12.1187 27.4687 11.625C27.2125 11.2437 27.2 11.1062 27.3875 10.975C27.5625 10.85 27.575 10.85 27.7625 11ZM25.8 11.6438C25.8687 11.7812 25.8687 11.9062 25.8125 12.2688C25.6937 13.0375 25.5375 13.2875 24.5375 14.3062C24.0437 14.8062 23.4687 15.4625 23.2562 15.7562C22.6187 16.6625 22.0375 16.9938 20.9812 17.05C20.2125 17.0875 19.675 17.0062 18.3437 16.6437C17.375 16.375 17.2187 16.35 16.5937 16.35C15.9375 16.35 15.8625 16.3688 15.0625 16.6437C14.0875 16.975 13.45 17.0938 12.875 17.0375C12.65 17.0187 12.2937 16.9812 12.0812 16.9625C11.6125 16.9125 11.25 17.0625 10.9312 17.425C10.5562 17.85 10.4437 18.2625 10.5 18.9625C10.5187 19.2062 10.4 19.375 10.2062 19.375C10.05 19.375 9.88124 19.1312 9.83749 18.8312C9.68124 17.7625 10.5437 16.5625 11.65 16.3125C11.8812 16.2625 12.0625 16.2687 12.4875 16.35C13.2 16.4812 13.8062 16.4062 14.9062 16.0312C15.8312 15.7125 16.425 15.6062 16.8937 15.6625C17.075 15.6813 17.6812 15.8187 18.25 15.9688C19.7125 16.3562 19.95 16.4 20.6875 16.4C21.7375 16.4062 22.2562 16.1375 22.825 15.2875C22.9687 15.0812 23.4937 14.4812 24 13.9688C25 12.9437 25.1875 12.6375 25.1875 12.0125C25.1875 11.6375 25.325 11.425 25.55 11.45C25.6625 11.4625 25.7437 11.5312 25.8 11.6438ZM29.05 16.475C29.2937 16.6437 29.2125 16.8562 28.7375 17.2562C28.5062 17.45 28.1437 17.7 27.9312 17.8125L27.55 18.0125L27.5875 18.3C27.65 18.7812 27.9562 19.125 28.3125 19.125C28.4875 19.125 28.7 19.425 28.625 19.5687C28.5187 19.7625 28.3375 19.825 28.0687 19.75C27.4687 19.5875 27.0062 18.9875 26.9562 18.2875C26.9187 17.7937 27.05 17.5812 27.5437 17.3187C27.7437 17.2062 28.1125 16.95 28.3687 16.75C28.625 16.5437 28.85 16.375 28.8687 16.375C28.8937 16.375 28.975 16.4187 29.05 16.475ZM19.0562 18.3063C19.5187 18.4313 19.6812 18.45 20.4312 18.4187C21.0812 18.4 21.3875 18.3562 21.7375 18.25L22.1937 18.1062L22.325 18.2312C22.5437 18.4562 22.4375 18.6562 22.025 18.8063C21.1 19.1562 19.8875 19.2 18.9 18.925C18.1125 18.7062 17.8437 18.7312 16.9375 19.1187C16.275 19.4062 16.0812 19.4625 15.6875 19.4813C15.2875 19.5062 15.175 19.4875 14.9437 19.3625C14.5937 19.1812 14.5125 19.0625 14.6125 18.85C14.6937 18.6687 14.975 18.625 15.1125 18.7625C15.2687 18.9188 15.925 18.8562 16.4687 18.6312C17.6125 18.15 17.7 18.125 18.125 18.1437C18.35 18.1562 18.7687 18.2312 19.0562 18.3063Z" fill="#475569"/>
<path d="M22.6437 20.4992C22.2062 20.5617 21.95 20.6742 21.3187 21.0554C21.025 21.2304 20.675 21.4054 20.5375 21.4492C20.3875 21.4867 19.9062 21.5117 19.3937 21.5054L18.5062 21.4929L18.4625 21.7179C18.3812 22.1804 18.475 22.7304 18.725 23.2367C19.1187 24.0367 20.2312 25.0679 21.525 25.8242C21.95 26.0742 21.9625 26.0742 22.4 26.0367C24.3375 25.8617 25.9062 25.2804 26.7875 24.4054C27.45 23.7554 27.65 23.2617 27.7062 22.1742L27.725 21.7554L26.7687 21.3742C25.6375 20.9242 24.4312 20.5867 23.6875 20.4992C23.1062 20.4304 23.1125 20.4304 22.6437 20.4992Z" fill="#475569"/>
<path d="M17.2187 21.8183C16.7687 21.9683 15.6 22.5371 15.5062 22.6496C15.4625 22.7058 15.4687 22.9558 15.5312 23.5058C15.5812 23.9308 15.6437 24.5433 15.675 24.8621L15.7312 25.4371L16.4812 26.5496C17.1812 27.5808 18.4687 29.6121 18.8187 30.2433C18.9687 30.5121 18.9687 30.5121 19.2375 30.4746C19.6437 30.4183 20.0187 30.2308 20.3125 29.9371C20.5562 29.6933 20.5687 29.6683 20.475 29.5433C20.1625 29.0933 19.6437 28.1621 19.4875 27.7683C19.2687 27.1996 19.2125 26.8308 19.3125 26.5371C19.4125 26.2246 19.6312 26.1246 20.2187 26.1246C20.475 26.1246 20.6875 26.1058 20.6875 26.0746C20.6812 26.0496 20.5312 25.9246 20.3437 25.7933C19.4 25.1433 18.5562 24.2496 18.1625 23.4996C17.9 22.9996 17.725 22.2746 17.7812 21.9246C17.8312 21.6371 17.7812 21.6308 17.2187 21.8183Z" fill="#475569"/>
</svg>
