<svg width="32" height="32" viewBox="0 0 32 32" fill="none" xmlns="http://www.w3.org/2000/svg">
<g clip-path="url(#clip0_7983_4619)">
<path d="M7.31253 0.669052C5.27503 0.887802 3.66878 1.63155 2.43128 2.9253C1.26253 4.14405 0.493781 5.69405 0.150031 7.53155C-0.0312189 8.49405 -0.0187189 10.6565 0.181281 11.5878C0.543781 13.319 0.993781 14.3815 2.11878 16.1816C3.70628 18.7066 4.26253 20.2816 4.75003 23.6253C5.16878 26.4878 5.86878 28.7691 6.70003 29.9878C7.61878 31.3441 9.01253 31.7503 10.0688 30.9753C11.2563 30.1003 12.1625 27.5753 12.7125 23.5628C12.9 22.2253 13.0438 21.6441 13.3563 21.0128C13.6063 20.5128 13.7438 20.3753 14.0313 20.3753C14.3188 20.3753 14.4563 20.5066 14.7063 21.0191C15.0188 21.6566 15.1563 22.2066 15.3438 23.5628C15.6313 25.6566 15.9125 26.9378 16.375 28.2691C17.125 30.4503 18.075 31.4566 19.2875 31.3566C19.725 31.3253 20.325 31.0691 20.6875 30.7628L20.9 30.5753L20.5688 30.2753C19.25 29.0941 18.4625 27.7941 18.025 26.0941C17.825 25.3191 17.7563 23.9566 17.8688 23.2066C18.2875 20.5003 19.8438 18.3066 22.2063 17.1003C23.1625 16.6128 24.4625 16.2503 25.25 16.2503C25.8313 16.2503 25.8813 16.2191 26.2313 15.6628C26.9875 14.469 27.5438 13.1191 27.85 11.7441C28.0125 11.0191 28.025 10.8691 28.025 9.5003C28.025 8.2128 28.0125 7.95655 27.8875 7.4003C27.475 5.51905 26.7688 4.11905 25.6313 2.91905C24.5438 1.7753 23.2375 1.10655 21.4688 0.775301C20.6125 0.612803 18.85 0.612803 17.9688 0.775301C16.9188 0.969051 15.975 1.28155 14.9625 1.78155L14.0188 2.2503L13.3063 1.8753C12.1125 1.2628 11.0063 0.906551 9.69378 0.725302C9.06253 0.637802 7.88128 0.606552 7.31253 0.669052Z" fill="#475569"/>
<path d="M24.5687 18.1569C21.9562 18.7444 20.0625 20.7694 19.6812 23.3694C19.5875 24.0444 19.6437 25.1319 19.8062 25.7569C20.2875 27.6132 21.6062 29.1757 23.3187 29.9194C24.7187 30.5257 26.4125 30.6007 27.8375 30.1132C29.7312 29.4632 31.1875 27.9382 31.7937 25.9569C31.95 25.4444 31.9625 25.3257 31.9625 24.2507C31.9625 23.1632 31.9562 23.0632 31.7875 22.5319C31.3437 21.0694 30.4812 19.8944 29.275 19.0882C28.6625 18.6819 28.2687 18.4944 27.5312 18.2757C27.0437 18.1319 26.8375 18.1069 25.9687 18.0882C25.2562 18.0694 24.8562 18.0944 24.5687 18.1569ZM26.6875 22.2819V23.4382H27.8437H29V24.3444V25.2507H27.8437H26.6875V26.4069V27.5632H25.7812H24.875V26.4069V25.2507H23.7187H22.5625V24.3444V23.4382H23.7187H24.875V22.2819V21.1257H25.7812H26.6875V22.2819Z" fill="#475569"/>
</g>
<defs>
<clipPath id="clip0_7983_4619">
<rect width="32" height="32" fill="white"/>
</clipPath>
</defs>
</svg>
