<svg width="32" height="32" viewBox="0 0 32 32" fill="none" xmlns="http://www.w3.org/2000/svg">
<path d="M10.3125 3.01875C9.75625 3.20625 9.33125 3.49375 8.85625 4C8.36875 4.5125 8.08125 5.0125 7.8 5.8125C7.59375 6.4 7.59375 6.4125 7.59375 7.5625C7.6 8.6875 7.6 8.73125 7.7875 9.29375C8.04375 10.05 8.3625 10.6062 8.83125 11.1062C9.575 11.9062 10.325 12.25 11.3125 12.25C12.3 12.25 13.05 11.9062 13.7875 11.1125C14.6438 10.1875 15.0625 9.03125 15.0625 7.5625C15.0625 6.725 14.9625 6.1625 14.6875 5.45625C14.2375 4.28125 13.275 3.3125 12.2625 3C11.6937 2.825 10.8563 2.83125 10.3125 3.01875Z" fill="#475569"/>
<path d="M19.6875 3.01875C19.1313 3.20625 18.7063 3.49375 18.2313 4C17.7438 4.5125 17.4563 5.0125 17.175 5.8125C16.9688 6.4 16.9688 6.4125 16.9688 7.5625C16.975 8.6875 16.975 8.73125 17.1625 9.29375C17.4188 10.05 17.7375 10.6062 18.2063 11.1062C18.95 11.9062 19.7 12.25 20.6875 12.25C21.675 12.25 22.425 11.9062 23.1625 11.1125C24.0188 10.1875 24.4375 9.03125 24.4375 7.5625C24.4375 6.725 24.3375 6.1625 24.0625 5.45625C23.6125 4.28125 22.65 3.3125 21.6375 3C21.0687 2.825 20.2313 2.83125 19.6875 3.01875Z" fill="#475569"/>
<path d="M2.75 9.58125C2.19375 9.76875 1.76875 10.0562 1.29375 10.5625C0.80625 11.075 0.51875 11.575 0.2375 12.375C0.03125 12.9625 0.03125 12.975 0.03125 14.125C0.0375 15.25 0.0375 15.2938 0.225 15.8563C0.48125 16.6125 0.8 17.1687 1.26875 17.6687C2.0125 18.4688 2.7625 18.8125 3.75 18.8125C4.7375 18.8125 5.4875 18.4688 6.225 17.675C7.08125 16.75 7.5 15.5938 7.5 14.125C7.5 13.2875 7.4 12.725 7.125 12.0187C6.675 10.8438 5.7125 9.875 4.7 9.5625C4.13125 9.3875 3.29375 9.39375 2.75 9.58125Z" fill="#475569"/>
<path d="M27.25 9.58125C26.6938 9.76875 26.2688 10.0562 25.7938 10.5625C25.3063 11.075 25.0188 11.575 24.7375 12.375C24.5312 12.9625 24.5312 12.975 24.5312 14.125C24.5375 15.25 24.5375 15.2938 24.725 15.8563C24.9813 16.6125 25.3 17.1687 25.7688 17.6687C26.5125 18.4688 27.2625 18.8125 28.25 18.8125C29.2375 18.8125 29.9875 18.4688 30.725 17.675C31.5813 16.75 32 15.5938 32 14.125C32 13.2875 31.9 12.725 31.625 12.0187C31.175 10.8438 30.2125 9.875 29.2 9.5625C28.6312 9.3875 27.7938 9.39375 27.25 9.58125Z" fill="#475569"/>
<path d="M14.7187 14.1623C10.1937 14.8373 6.84374 17.9373 5.86249 22.3561C5.74999 22.8686 5.72499 23.1686 5.72499 24.2186C5.71874 25.4248 5.72499 25.4873 5.89374 25.9311C6.18124 26.7186 6.47499 27.1748 7.08749 27.7811C7.73749 28.4311 8.36874 28.7873 9.21249 28.9998C9.68749 29.1186 9.93124 29.1248 16 29.1248C23.125 29.1248 22.7312 29.1498 23.8125 28.6123C24.2437 28.3998 24.4562 28.2373 24.9375 27.7498C25.625 27.0623 25.975 26.4623 26.1937 25.5623C26.3125 25.0936 26.325 24.9186 26.2937 23.9686C26.2687 23.2436 26.2187 22.7186 26.1312 22.3248C25.2375 18.2561 22.2 15.2123 18.1125 14.3061C17.65 14.1998 17.2625 14.1748 16.2187 14.1561C15.5 14.1436 14.825 14.1498 14.7187 14.1623ZM16.9375 20.6873V21.6248H17.875H18.8125V22.5623V23.4998H17.875H16.9375V24.4373V25.3748H16H15.0625V24.4373V23.4998H14.125H13.1875V22.5623V21.6248H14.125H15.0625V20.6873V19.7498H16H16.9375V20.6873Z" fill="#475569"/>
</svg>
