<svg width="32" height="32" viewBox="0 0 32 32" fill="none" xmlns="http://www.w3.org/2000/svg">
<path d="M24.075 3.90662C22.2375 4.95037 20.5812 5.86912 20.3875 5.94412C19.5187 6.26912 19.1375 6.33162 18.125 6.33787C17.2812 6.34412 17.0562 6.31912 16.35 6.16912C15.4875 5.97537 15.1 5.97537 14.5937 6.17537C13.9937 6.40662 13.3625 6.99412 13.0375 7.61912C12.3687 8.91287 12.4062 10.0754 13.1375 10.9879C13.425 11.3441 14.0062 11.7754 14.4875 11.9816C14.7875 12.1066 14.8687 12.1691 14.8437 12.2441C14.8187 12.3004 14.7562 12.5254 14.7 12.7441C14.5812 13.2379 14.65 13.7691 14.9125 14.3004C15.25 14.9879 16.2 15.7504 17.125 16.0691C17.4312 16.1754 17.675 16.2129 18.125 16.2129C18.6625 16.2191 18.7562 16.2004 19.1312 16.0254C19.5937 15.8066 20.1437 15.3004 20.4062 14.8504C20.5 14.6941 20.65 14.3566 20.75 14.1004C21.125 13.1254 21.7812 12.0066 22.3375 11.3941C22.8062 10.8754 23.3188 10.5441 26.125 8.93787C27.5875 8.10037 28.8125 7.37537 28.8563 7.31912C28.9813 7.15662 28.9563 6.96287 28.5625 4.71912C28.1188 2.24412 28.0938 2.15037 27.9375 2.06287C27.6188 1.89412 27.4875 1.95662 24.075 3.90662Z" fill="#475569"/>
<path d="M10.9688 4.40715L10.8125 4.55715V6.18215C10.8125 7.25715 10.8375 7.85715 10.8813 7.9634C11.025 8.2759 11.4938 8.3259 11.75 8.0509C11.8687 7.91965 11.875 7.8384 11.875 6.2384V4.55715L11.7188 4.40715C11.5125 4.19465 11.175 4.19465 10.9688 4.40715Z" fill="#475569"/>
<path d="M6.63126 6.41875C6.55626 6.48125 6.48126 6.6375 6.45626 6.775L6.41876 7.01875L7.22501 7.8C8.60626 9.13125 8.97501 9.4375 9.19376 9.4375C9.46876 9.4375 9.68751 9.19375 9.68751 8.8875C9.68751 8.65 9.65001 8.60625 8.70626 7.7125C7.25001 6.3375 7.21876 6.3125 6.97501 6.3125C6.85626 6.3125 6.70626 6.3625 6.63126 6.41875Z" fill="#475569"/>
<path d="M4.73125 10.7633C4.4 11.0196 4.50625 11.5696 4.91875 11.6883C5.2875 11.8008 8.25625 11.7508 8.40625 11.6258C8.6625 11.4133 8.64375 10.8946 8.375 10.7508C8.19375 10.6508 4.8625 10.6696 4.73125 10.7633Z" fill="#475569"/>
<path d="M8.65 12.4942C7.525 12.8004 6.925 13.3379 6.61875 14.3192C6.475 14.7754 6.46875 15.2504 6.59375 16.1254C6.725 17.0192 6.73125 18.4692 6.60625 19.0379C6.43125 19.8379 6.1625 20.3942 4.60625 23.1379C3.5 25.0817 3.0625 25.9067 3.0625 26.0442C3.0625 26.1692 3.125 26.3192 3.23125 26.4504C3.75625 27.0817 6.1 29.8004 6.2 29.8879C6.325 30.0004 6.65 30.0379 6.8375 29.9629C6.89375 29.9442 7.775 28.4567 8.79375 26.6629C9.8125 24.8754 10.7812 23.2192 10.95 22.9817C11.6375 22.0504 12.7188 21.2379 13.8313 20.8317C15.625 20.1754 16 19.8942 16.3063 18.9629C16.7188 17.7317 16.425 16.1754 15.6313 15.3942C15.2375 15.0067 14.925 14.8504 14.2438 14.7129C13.75 14.6129 12.9438 14.6192 12.675 14.7192C12.6 14.7504 12.575 14.6942 12.5437 14.4442C12.4438 13.6129 11.7875 12.9067 10.7938 12.5629C10.225 12.3629 9.2375 12.3317 8.65 12.4942Z" fill="#475569"/>
<path d="M19.9375 16.3757C19.7688 16.5445 19.725 16.7757 19.825 16.9757C19.975 17.3007 20.0688 17.3132 21.9563 17.3007L23.7 17.282L23.85 17.107C24.0438 16.8757 24.0438 16.6007 23.8438 16.407L23.6938 16.2507H21.875C20.1563 16.2507 20.0563 16.257 19.9375 16.3757Z" fill="#475569"/>
<path d="M18.9375 18.5191C18.7375 18.6191 18.6 18.9003 18.65 19.1128C18.7062 19.3441 21.0812 21.6691 21.3187 21.7191C21.6437 21.7941 21.9312 21.5441 21.9375 21.1941C21.9375 20.9941 21.8375 20.8753 20.7687 19.7941C19.3937 18.4128 19.2875 18.3378 18.9375 18.5191Z" fill="#475569"/>
<path d="M16.6562 19.8445L16.5 19.9945V21.7195V23.4445L16.6562 23.5945C16.8812 23.8258 17.1938 23.807 17.4 23.557L17.5625 23.3633V21.7445C17.5625 20.0945 17.5438 19.9445 17.3188 19.7695C17.15 19.6383 16.825 19.6758 16.6562 19.8445Z" fill="#475569"/>
</svg>
