<svg width="72" height="72" viewBox="0 0 72 72" fill="none" xmlns="http://www.w3.org/2000/svg">
<path d="M55.4102 50.49L56.5802 59.97C56.8802 62.46 54.2102 64.2 52.0802 62.91L41.7002 56.73C40.9802 56.31 40.8002 55.41 41.1902 54.69C42.6902 51.93 43.5002 48.81 43.5002 45.69C43.5002 34.71 34.0802 25.77 22.5002 25.77C20.1302 25.77 17.8202 26.13 15.6602 26.85C14.5502 27.21 13.4702 26.19 13.7402 25.05C16.4702 14.13 26.9702 6 39.5102 6C54.1502 6 66.0002 17.07 66.0002 30.72C66.0002 38.82 61.8302 45.99 55.4102 50.49Z" fill="#A96E46"/>
<path d="M39 45.6895C39 49.2595 37.68 52.5595 35.46 55.1695C32.49 58.7695 27.78 61.0795 22.5 61.0795L14.67 65.7295C13.35 66.5395 11.67 65.4295 11.85 63.8995L12.6 57.9895C8.58 55.1995 6 50.7295 6 45.6895C6 40.4095 8.82 35.7595 13.14 32.9995C15.81 31.2595 19.02 30.2695 22.5 30.2695C31.62 30.2695 39 37.1695 39 45.6895Z" fill="#FFC269"/>
</svg>
