<svg width="24" height="24" viewBox="0 0 24 24" fill="none" xmlns="http://www.w3.org/2000/svg">
<g clip-path="url(#clip0_7055_5133)">
<path d="M1.41094 0.0937881C0.853125 0.295351 0.440625 0.670351 0.173438 1.2141L0.0234375 1.52348V12V22.4766L0.173438 22.786C0.445313 23.3438 0.867188 23.7141 1.43438 23.9063C1.70625 24 1.82813 24 7.80469 23.9907L13.8984 23.9766L14.2078 23.8266C14.7328 23.5688 15.1031 23.1704 15.3141 22.6407C15.3938 22.4438 15.3984 22.0032 15.4219 15.5204L15.4453 8.61098L16.3125 8.05317C18.3469 6.75004 18.4547 6.67504 18.6797 6.37035C19.0734 5.83598 19.0828 5.7516 19.0688 3.48754L19.0547 1.52348L18.8953 1.19535C18.6844 0.764101 18.3141 0.393789 17.8828 0.182852L17.5547 0.0234756L9.60938 0.014101C1.86094 0.00472641 1.65938 0.00472641 1.41094 0.0937881ZM8.10469 9.3141C8.36719 9.50629 8.39062 9.62817 8.39062 10.7907C8.39062 11.4141 8.40938 11.8594 8.43281 11.8594C8.45625 11.8594 8.88281 11.625 9.37969 11.3391C9.92813 11.0204 10.3453 10.8094 10.4484 10.7954C10.6688 10.7719 10.9078 10.8938 11.0531 11.1094C11.2078 11.3391 11.1797 11.7094 11.0016 11.8969C10.9313 11.9719 10.4719 12.2579 9.98438 12.5438C9.49688 12.825 9.09375 13.0641 9.09375 13.0782C9.09375 13.0922 9.49688 13.3313 9.98438 13.6125C10.4719 13.8985 10.9313 14.1844 11.0016 14.2594C11.1797 14.4469 11.2078 14.8172 11.0531 15.0469C10.9078 15.2625 10.6688 15.3844 10.4484 15.361C10.3453 15.3469 9.92813 15.136 9.37969 14.8172C8.88281 14.5313 8.45625 14.2969 8.43281 14.2969C8.40938 14.2969 8.39062 14.7422 8.39062 15.361C8.39062 16.2844 8.38125 16.4532 8.30625 16.5891C8.17969 16.8422 8.00156 16.9454 7.71094 16.9454C7.42031 16.9454 7.24219 16.8422 7.11563 16.5891C7.04063 16.4532 7.03125 16.2844 7.03125 15.361C7.03125 14.7422 7.0125 14.2969 6.98906 14.2969C6.96563 14.2969 6.53906 14.5313 6.04219 14.8172C5.49375 15.136 5.07656 15.3469 4.97344 15.361C4.75313 15.3844 4.51406 15.2625 4.36875 15.0469C4.21406 14.8172 4.24219 14.4469 4.425 14.2594C4.49063 14.1844 4.95 13.8938 5.4375 13.6125C5.925 13.3313 6.32813 13.0922 6.32813 13.0782C6.32813 13.0641 5.925 12.825 5.4375 12.5438C4.95 12.2625 4.49063 11.9719 4.425 11.8969C4.24219 11.7094 4.21406 11.3391 4.36875 11.1094C4.51406 10.8938 4.75313 10.7719 4.97344 10.7954C5.07656 10.8094 5.49375 11.0204 6.04219 11.3391C6.53906 11.625 6.96094 11.8594 6.98438 11.8594C7.00781 11.8594 7.03125 11.3532 7.04063 10.7391C7.05469 9.6891 7.05938 9.60942 7.15313 9.48285C7.36875 9.18754 7.81875 9.10785 8.10469 9.3141Z" fill="white"/>
<path d="M20.414 3.57187V5.78906L20.2875 6.16406C20.0203 6.94687 19.4953 7.60312 18.75 8.08594L18.314 8.36719L19.4812 8.39062C20.5781 8.41406 20.6578 8.41875 20.8125 8.51719C21.0281 8.64844 21.1406 8.85 21.1406 9.09375C21.1406 9.3375 21.0281 9.53906 20.8125 9.67031C20.6531 9.77344 20.6062 9.77344 18.7172 9.7875L16.7812 9.80156V10.5047V11.2031H17.5828C18.0187 11.2031 18.4734 11.2266 18.5906 11.2547C18.8156 11.3109 19.0547 11.5406 19.1062 11.7422C19.1906 12.0703 18.9422 12.4594 18.5859 12.5578C18.4828 12.5859 18.0328 12.6094 17.5922 12.6094H16.7812V13.3078V14.0109L18.7172 14.025C20.6062 14.0391 20.6531 14.0391 20.8125 14.1422C21.0281 14.2734 21.1406 14.475 21.1406 14.7187C21.1406 14.9625 21.0281 15.1641 20.8125 15.2953C20.6531 15.3984 20.6062 15.3984 18.7172 15.4125L16.7812 15.4266V16.1297V16.8281H17.5828C18.0187 16.8281 18.4734 16.8516 18.5906 16.8797C18.8156 16.9359 19.0547 17.1656 19.1062 17.3672C19.1906 17.6953 18.9422 18.0844 18.5859 18.1828C18.4828 18.2109 18.0328 18.2344 17.5922 18.2344H16.7812V20.2922C16.7812 21.4219 16.7672 22.4156 16.7531 22.4953L16.725 22.6406H20.1375C23.4047 22.6406 23.5594 22.6359 23.6906 22.5516C23.7609 22.5047 23.864 22.4016 23.9109 22.3312C23.9953 22.2 24 21.9094 24 12C24 2.09062 23.9953 1.8 23.9109 1.66875C23.864 1.59844 23.7609 1.49531 23.6906 1.44844C23.564 1.36406 23.4422 1.35938 21.9844 1.35938H20.414V3.57187Z" fill="white"/>
</g>
<defs>
<clipPath id="clip0_7055_5133">
<rect width="24" height="24" fill="white"/>
</clipPath>
</defs>
</svg>
