<svg width="24" height="24" viewBox="0 0 24 24" fill="none" xmlns="http://www.w3.org/2000/svg">
<g clip-path="url(#clip0_7055_5100)">
<path d="M22.8469 0.13584C22.7484 0.21084 22.3312 0.609277 21.9234 1.01709L21.1828 1.76709L21.2344 2.22646C21.2625 2.47959 21.2906 2.69521 21.2953 2.6999C21.3 2.70459 21.5156 2.73271 21.7687 2.76553L22.2328 2.82178L22.9828 2.07646C23.9437 1.1249 24 1.04521 24 0.707715C24 0.253027 23.7469 -9.77516e-05 23.2922 -9.77516e-05C23.0766 -9.77516e-05 22.9969 0.0233397 22.8469 0.13584Z" fill="white"/>
<path d="M18.0234 3.14067L16.2938 4.87036L16.4203 6.14536C16.4906 6.84849 16.5563 7.42974 16.5609 7.43911C16.5703 7.4438 17.1516 7.50942 17.8547 7.57974L19.1297 7.7063L20.8594 5.97661C21.8109 5.02505 22.5844 4.23755 22.575 4.22817C22.5656 4.2188 22.0828 4.16255 21.5063 4.1063C19.9922 3.94692 20.0531 4.00786 19.8984 2.49849C19.8375 1.91724 19.7813 1.43442 19.7719 1.42505C19.7625 1.41567 18.975 2.18911 18.0234 3.14067Z" fill="white"/>
<path d="M9.58594 2.30625C8.5125 2.42344 7.19531 2.80313 6.21094 3.27656C5.08594 3.81563 4.20938 4.425 3.30938 5.29688C2.325 6.25313 1.6875 7.12031 1.10156 8.32031C0.328125 9.89531 0 11.3344 0 13.1438C0.0046875 14.9344 0.332813 16.3688 1.09688 17.9297C1.66875 19.0875 2.30156 19.9641 3.21563 20.8688C4.12031 21.7641 4.94063 22.3453 6.07031 22.9031C7.60313 23.6578 9.10781 24 10.875 24C12.6563 24 14.1141 23.6672 15.6797 22.9031C18.2812 21.6281 20.2969 19.3266 21.2016 16.5938C21.5906 15.4219 21.75 14.4234 21.75 13.125C21.75 11.8313 21.5906 10.8281 21.2063 9.67031C21.0328 9.14531 20.6766 8.28281 20.6016 8.20781C20.5875 8.19844 20.3813 8.37656 20.1422 8.61094C19.8094 8.93906 19.6688 9.04688 19.5375 9.07031C19.4438 9.08906 18.9469 9.05625 18.4313 9.00469C17.9156 8.94844 17.4703 8.90625 17.4422 8.90625C17.4094 8.90625 17.4609 9.0375 17.5547 9.19688C17.9672 9.90938 18.3 10.7719 18.4781 11.6063C18.5719 12.0516 18.5859 12.2484 18.5859 13.125C18.5859 14.0016 18.5719 14.1984 18.4781 14.6438C18.2531 15.6891 17.7938 16.7578 17.2125 17.5781C16.8094 18.15 15.9 19.0594 15.3281 19.4625C13.0547 21.0703 10.05 21.3188 7.52344 20.1094C5.6625 19.2188 4.14844 17.5031 3.51563 15.5672C3.22031 14.6578 3.16406 14.2828 3.16406 13.125C3.16406 12.2109 3.17813 12.0094 3.27188 11.5969C3.52031 10.4484 3.98906 9.40781 4.65469 8.50313C5.00156 8.02969 5.91094 7.14844 6.42188 6.7875C7.23281 6.21094 8.30625 5.75156 9.33281 5.53125C10.0125 5.38125 11.2547 5.34844 11.9906 5.45625C12.9 5.59219 13.9125 5.93906 14.6719 6.375C14.8875 6.50156 15.075 6.59531 15.0844 6.58594C15.0938 6.57656 15.0563 6.12656 15 5.58281C14.9438 5.03438 14.9156 4.52344 14.9344 4.43906C14.9531 4.33594 15.1031 4.14844 15.3891 3.85781C15.6234 3.61875 15.8016 3.4125 15.7922 3.39844C15.7172 3.32344 14.8547 2.96719 14.3297 2.79375C13.1438 2.4 12.1594 2.24531 10.8375 2.25469C10.3547 2.25938 9.79219 2.28281 9.58594 2.30625Z" fill="white"/>
<path d="M9.75469 6.8251C8.68594 7.00323 7.5375 7.55635 6.64219 8.32042C5.60625 9.20635 4.81875 10.6173 4.57031 12.0282C4.47656 12.5579 4.47656 13.6923 4.57031 14.222C5.03438 16.8798 7.11563 18.961 9.77344 19.4251C10.3125 19.5189 11.3719 19.5235 11.9438 19.4298C13.5891 19.1626 15.1828 18.1548 16.1109 16.8001C16.8891 15.661 17.25 14.4939 17.25 13.1251C17.25 12.0751 17.0344 11.147 16.5891 10.261C16.3875 9.85323 15.9797 9.22042 15.8859 9.15948C15.8531 9.14073 15.4828 9.47823 14.9766 9.98448L14.1188 10.8423L14.3438 11.2689C14.6719 11.8876 14.7703 12.2439 14.7984 12.9189C14.8125 13.2564 14.8031 13.6126 14.7703 13.8001C14.5219 15.211 13.4813 16.4157 12.1078 16.8751C9.9 17.6064 7.53281 16.2564 7.00781 13.9642C6.90938 13.5282 6.90469 12.736 7.00313 12.3235C7.33125 10.9079 8.2875 9.83917 9.65625 9.36573C10.0875 9.21573 10.125 9.21104 10.8516 9.21104C11.7328 9.21104 12.0234 9.28135 12.7313 9.65635L13.1578 9.88135L14.0156 9.02354C14.5219 8.51729 14.8594 8.14698 14.8406 8.11417C14.7797 8.02042 14.1469 7.6126 13.7391 7.41104C13.2328 7.15323 12.5109 6.91885 11.9578 6.8251C11.4141 6.73135 10.3031 6.73135 9.75469 6.8251Z" fill="white"/>
<path d="M10.1766 10.6172C9.31876 10.8563 8.62501 11.5594 8.3672 12.436C8.26407 12.7875 8.26407 13.4625 8.3672 13.8141C8.62501 14.7047 9.29532 15.375 10.1859 15.6329C10.5375 15.736 11.2125 15.736 11.5641 15.6329C12.4828 15.3657 13.2234 14.5922 13.4063 13.7016C13.4906 13.3079 13.4438 12.5532 13.3219 12.2344C13.2656 12.0938 13.2 11.9438 13.1719 11.9063C13.1344 11.85 12.9422 12.0188 12.2016 12.7547C11.6906 13.261 11.2266 13.7016 11.1703 13.7297C11.025 13.8047 10.7063 13.7954 10.5422 13.711C10.2656 13.5657 10.125 13.111 10.2703 12.8297C10.2984 12.7735 10.7391 12.3094 11.2453 11.7985C11.9813 11.0579 12.15 10.8657 12.0938 10.8282C12.0563 10.8 11.9063 10.7344 11.7656 10.6829C11.4234 10.5469 10.5516 10.5141 10.1766 10.6172Z" fill="white"/>
</g>
<defs>
<clipPath id="clip0_7055_5100">
<rect width="24" height="24" fill="white"/>
</clipPath>
</defs>
</svg>
