<svg width="24" height="24" viewBox="0 0 24 24" fill="none" xmlns="http://www.w3.org/2000/svg">
<g clip-path="url(#clip0_7055_5113)">
<path d="M3.50156 0.50625L3 1.00781L3.75 1.75781L4.5 2.50781L5.01562 1.99219L5.53125 1.47656L4.79531 0.740625C4.3875 0.332812 4.04531 0 4.03125 0C4.01719 0 3.77813 0.225 3.50156 0.50625Z" fill="white"/>
<path d="M19.2047 0.740625L18.4688 1.47656L18.9844 1.99219L19.5 2.50781L20.25 1.75781L21 1.00781L20.4984 0.50625C20.2219 0.225 19.9828 0 19.9688 0C19.9547 0 19.6125 0.332812 19.2047 0.740625Z" fill="white"/>
<path d="M11.5078 2.39531C8.01093 2.58281 5.03437 5.175 4.34062 8.63438C4.00312 10.2844 4.21406 11.9813 4.94531 13.5328C5.40937 14.5125 5.85937 15.1125 6.86249 16.0875L7.47656 16.6828L12 16.6875H16.5234L17.1375 16.0875C17.85 15.3938 18.1969 14.9953 18.5484 14.4516C20.0484 12.1547 20.2219 9.19688 19.0125 6.72656C18.5766 5.84063 18.1031 5.20781 17.3297 4.47188C16.0922 3.29531 14.325 2.50313 12.7359 2.40938C12.4969 2.39531 12.2531 2.38125 12.1875 2.37656C12.1219 2.36719 11.8172 2.37656 11.5078 2.39531ZM13.0031 6.01875C14.475 6.43125 15.9656 7.62656 17.0625 9.2625L17.3344 9.67031L17.1656 9.93281C16.5141 10.9594 15.3844 12.1125 14.4609 12.6938C14.0953 12.9188 13.4672 13.2 13.0547 13.3219C12.5156 13.4766 11.4891 13.4766 10.9453 13.3219C10.3875 13.1625 9.58593 12.7547 9.06093 12.3563C8.29218 11.775 7.35937 10.7625 6.83437 9.93281L6.66562 9.67031L6.94218 9.2625C7.39218 8.58281 7.88906 8.01563 8.52187 7.43906C9.37031 6.675 10.2562 6.19219 11.2031 5.97188C11.5594 5.8875 12.6422 5.91563 13.0031 6.01875Z" fill="white"/>
<path d="M11.325 7.34062C10.7203 7.48594 9.96094 7.93594 9.30938 8.53594C8.85 8.95781 8.2875 9.64687 8.32969 9.72656C8.43282 9.90937 9.09844 10.6359 9.43125 10.9266C11.1984 12.4828 12.8016 12.4828 14.5688 10.9266C14.9016 10.6359 15.5672 9.90937 15.6703 9.72656C15.7125 9.64687 15.15 8.95781 14.6906 8.53594C13.5469 7.48594 12.4078 7.07812 11.325 7.34062ZM12.7031 9.67969V10.3594H12H11.2969V9.67969V9H12H12.7031V9.67969Z" fill="white"/>
<path d="M0.19217 6.35614C0.0327953 6.87645 -0.00470466 7.0452 0.0421703 7.07333C0.121858 7.12489 1.97342 7.69677 1.99217 7.67802C2.01092 7.65458 2.4328 6.30927 2.42342 6.29989C2.41405 6.2952 0.824983 5.80302 0.468733 5.6952C0.412483 5.67645 0.351545 5.82645 0.19217 6.35614Z" fill="white"/>
<path d="M22.5938 5.98589C22.0641 6.15464 21.6234 6.29996 21.6141 6.30933C21.5953 6.32808 21.9797 7.63589 22.0172 7.68277C22.05 7.72496 23.9672 7.10152 23.9906 7.04058C24.0141 6.97027 23.625 5.66714 23.5828 5.67652C23.5688 5.68121 23.1234 5.81714 22.5938 5.98589Z" fill="white"/>
<path d="M21.9891 12.6702C21.8297 13.0874 21.6 13.9311 21.6375 13.9639C21.6891 14.0108 23.5734 14.5967 23.5969 14.5733C23.6297 14.5405 24 13.3311 24 13.2608C24 13.1905 23.9531 13.1717 22.4391 12.6983L22.0266 12.5717L21.9891 12.6702Z" fill="white"/>
<path d="M0.942172 12.9094C0.44061 13.0688 0.0234224 13.2234 0.0140474 13.2516C-1.50828e-05 13.2844 0.0843599 13.5938 0.192172 13.9453C0.337485 14.4094 0.412485 14.5781 0.464047 14.5781C0.604672 14.5734 2.41405 13.9828 2.40936 13.9406C2.40467 13.9172 2.31092 13.6078 2.19842 13.2516C2.04842 12.7734 1.9828 12.6094 1.92655 12.6141C1.88436 12.6188 1.44373 12.75 0.942172 12.9094Z" fill="white"/>
<path d="M3.73594 18.5531L3 19.2891L3.51562 19.8047L4.03125 20.3203L4.78125 19.5703L5.53125 18.8203L5.02969 18.3187C4.75313 18.0375 4.51406 17.8125 4.5 17.8125C4.48594 17.8125 4.14375 18.1453 3.73594 18.5531Z" fill="white"/>
<path d="M18.9375 18.3047L18.4453 18.7969L19.2094 19.5562L19.9688 20.3203L20.4609 19.8281C20.7328 19.5562 20.9531 19.3172 20.9531 19.2891C20.9531 19.2281 19.5375 17.8125 19.4766 17.8125C19.4484 17.8125 19.2094 18.0328 18.9375 18.3047Z" fill="white"/>
<path d="M8.17965 18.2437C8.26871 18.7922 8.29215 19.125 8.29684 19.8844V20.7188H11.9953H15.689L15.7172 19.6734C15.7312 19.0453 15.7687 18.5156 15.8109 18.3375L15.8765 18.0469H12.0093H8.14215L8.17965 18.2437Z" fill="white"/>
<path d="M9.66559 22.2515C9.87184 23.0156 10.5515 23.6953 11.339 23.925C11.6718 24.0234 12.3281 24.0234 12.6609 23.925C13.4484 23.6953 14.1281 23.0156 14.3343 22.2515L14.3812 22.0781H12H9.61871L9.66559 22.2515Z" fill="white"/>
</g>
<defs>
<clipPath id="clip0_7055_5113">
<rect width="24" height="24" fill="white"/>
</clipPath>
</defs>
</svg>
