<svg width="120" height="120" viewBox="0 0 120 120" fill="none" xmlns="http://www.w3.org/2000/svg">
<path fill-rule="evenodd" clip-rule="evenodd" d="M17.0184 38.9872L-4.15014e-05 52.1258L12.9857 68.9464C19.5986 77.5121 31.535 79.5812 40.7237 74.1634C32.9559 81.6646 31.852 93.8866 38.5287 102.535L51.5145 119.356L68.533 106.217C77.1995 99.5264 79.4098 87.6009 74.0796 78.5002C81.5157 86.1608 93.7621 87.1231 102.512 80.3678L119.531 67.2293L106.545 50.4087C99.9322 41.843 87.9955 39.7739 78.807 45.1918C86.5751 37.6905 87.6787 25.4685 81.002 16.8202L68.0163 -0.000420675L50.9978 13.1381C42.3313 19.8288 40.1207 31.7542 45.4512 40.8548C38.0152 33.1943 25.7686 32.232 17.0184 38.9872Z" fill="url(#paint0_linear_7589_4109)"/>
<defs>
<linearGradient id="paint0_linear_7589_4109" x1="14.0516" y1="51.4791" x2="95.5504" y2="72.7894" gradientUnits="userSpaceOnUse">
<stop stop-color="#FFD9A0"/>
<stop offset="1" stop-color="#FFF5F1"/>
</linearGradient>
</defs>
</svg>
