<svg width="72" height="72" viewBox="0 0 72 72" fill="none" xmlns="http://www.w3.org/2000/svg">
<g clip-path="url(#clip0_9246_9250)">
<path d="M12.5644 33.1258C12.5447 31.7017 13.0553 30.5095 14.1533 29.4141C15.0158 28.5386 15.7003 28.0825 16.8879 27.5792C19.8531 26.3107 23.7738 26.5695 26.1304 28.1773C29.3803 30.3992 29.4433 34.1162 26.2949 36.5558C24.2983 38.0892 21.6193 38.7508 18.8049 38.4208C16.7569 38.1717 14.8113 37.2179 13.7171 35.9233C13.1892 35.2982 12.5722 33.8154 12.5644 33.1258Z" fill="#FFC150" fill-opacity="0.4"/>
<path d="M18.1248 48.9608C18.1205 48.5815 18.199 47.9081 18.3045 47.4792C19.5403 42.4472 26.3104 38.8351 30.4632 40.9983C32.9541 42.2942 33.6927 45.062 32.3218 47.9367C31.5131 49.6013 30.3826 50.8695 28.6778 51.9787C27.4625 52.7686 25.2262 53.5424 23.9476 53.6157C22.0554 53.7166 20.5842 53.2333 19.4995 52.1662C18.9169 51.5831 18.8186 51.4325 18.4917 50.5878C18.2214 49.8736 18.1378 49.4986 18.1248 48.9608Z" fill="#FFC150" fill-opacity="0.4"/>
<path d="M21.0502 19.0641C21.0929 15.8529 24.8363 13.5651 29.1945 14.0878C32.9555 14.5519 35.723 16.8137 35.9515 19.6081C36.1213 21.7995 34.6522 23.6234 32.0002 24.5296C28.4273 25.7429 23.9792 24.5935 22.0523 21.96C21.4813 21.1767 21.0426 19.9091 21.0502 19.0641Z" fill="#FFC150" fill-opacity="0.4"/>
<path d="M33.309 54.3568C33.3335 50.7595 36.5633 46.9877 40.3775 46.0717C42.9776 45.4489 45.1365 46.352 46.0673 48.4416C46.4569 49.3338 46.5666 50.1844 46.404 51.3485C46.1089 53.597 44.4848 56.0399 42.2671 57.5344C41.1755 58.2814 39.2586 58.9447 38.1417 58.9851C36.5523 59.0273 35.1453 58.4295 34.2846 57.3426C33.7107 56.6181 33.3034 55.3743 33.309 54.3568Z" fill="#FFC150" fill-opacity="0.4"/>
<path d="M31.7129 35.0396C31.6702 34.6159 31.6813 33.7812 31.7607 33.1768C32.0113 31.2668 32.7744 29.8372 34.645 27.8397C35.9701 26.4003 36.5334 25.2937 36.7631 23.6564C36.9899 22.0778 37.2254 21.2577 37.7416 20.2483C38.2851 19.2178 39.0913 18.2464 40.0585 17.4732C40.7387 16.9378 40.8861 16.8637 42.432 16.3288C43.9711 15.8077 44.1534 15.7677 45.0051 15.7614C46.3674 15.7631 47.5121 16.0363 48.7779 16.6599C50.6403 17.5732 51.9184 18.9657 52.7173 20.9741C53.2994 22.4229 53.4495 23.4903 53.3293 25.3436C53.2142 27.0451 53.3069 27.9131 53.7705 29.2529C54.2127 30.5307 54.6447 31.2121 55.8217 32.5126C57.0443 33.8782 57.5896 34.8204 58.0239 36.3087C58.4221 37.6595 58.4775 38.5866 58.2768 40.0408C58.1008 41.2326 57.256 43.0597 56.4493 43.9966C54.5771 46.1562 51.3206 47.2831 48.5141 46.7426C48.0543 46.6479 47.1713 46.3303 46.4602 45.9763C45.3921 45.4574 45.0584 45.2267 44.1833 44.3986C42.6773 42.9811 41.7447 42.5538 39.5791 42.2646C37.0785 41.9414 35.842 41.4692 34.4457 40.3022C33.4882 39.5027 32.8601 38.5546 32.295 37.0884C31.9538 36.2025 31.7846 35.5803 31.7129 35.0396Z" fill="#FFC150" fill-opacity="0.4"/>
</g>
<defs>
<clipPath id="clip0_9246_9250">
<rect width="55.8341" height="55.8341" fill="white" transform="matrix(0.327027 0.945015 0.945015 -0.327027 0 18.2592)"/>
</clipPath>
</defs>
</svg>
