<svg width="29" height="40" viewBox="0 0 29 40" fill="none" xmlns="http://www.w3.org/2000/svg">
<path fill-rule="evenodd" clip-rule="evenodd" d="M18.7144 4.49999C18.7144 6.98529 16.6415 8.99998 14.0844 8.99998C11.5272 8.99998 9.45427 6.98529 9.45427 4.49999C9.45427 2.01472 11.5272 0 14.0844 0C16.6415 0 18.7144 2.01472 18.7144 4.49999ZM20.2578 29.9999H15.3854L16.1506 38.181C16.2502 39.2459 17.1941 40.0463 18.2932 39.9979C19.3924 39.9494 20.2578 39.0692 20.2578 37.9999V29.9999ZM12.7833 29.9999H7.91091V37.9999C7.91091 39.0692 8.77643 39.9494 9.87551 39.9979C10.9746 40.0463 11.9185 39.2459 12.0181 38.181L12.7833 29.9999ZM26.3855 9.99998H26.4789C26.4478 9.99928 26.4167 9.99928 26.3855 9.99998ZM1.69014 9.99998C1.7209 9.99928 1.75167 9.99928 1.78254 9.99998H1.69014Z" fill="#0F172A"/>
<path fill-rule="evenodd" clip-rule="evenodd" d="M1.00604 10.7042C0.450402 10.7042 0 11.1642 0 11.7316V27.1417C0 27.7091 0.450402 28.169 1.00604 28.169H27.163C27.7186 28.169 28.169 27.7091 28.169 27.1417V11.7316C28.169 11.1642 27.7186 10.7042 27.163 10.7042H1.00604ZM13.0785 12.7589V14.2999H12.5755C11.6389 14.2999 10.6228 14.6089 9.90523 14.8754C9.5327 15.0137 9.21197 15.1517 8.9837 15.2552C8.86922 15.3072 8.77716 15.351 8.71237 15.3823C8.67998 15.398 8.65443 15.4107 8.63622 15.4197L8.61459 15.4306L8.60805 15.4339L8.60583 15.435L8.60473 15.4355C8.60473 15.4355 8.60443 15.4357 9.05433 16.3546C9.50422 17.2734 9.50402 17.2736 9.50402 17.2736L9.50573 17.2727L9.51841 17.2664C9.53038 17.2604 9.5495 17.251 9.57505 17.2386C9.62626 17.2138 9.70312 17.1772 9.8009 17.1329C9.99698 17.0438 10.2736 16.925 10.5928 16.8064C11.2584 16.5592 12.0029 16.3546 12.5755 16.3546H13.0785V18.4093H12.2736C11.0691 18.4093 9.80533 19.0625 8.96046 19.5854C8.51227 19.8628 8.12756 20.1386 7.85503 20.3447C7.71821 20.4482 7.60835 20.5352 7.53149 20.5972C7.49296 20.6283 7.46268 20.6533 7.44125 20.6711L7.41579 20.6923L7.40825 20.6987L7.40584 20.7008L7.40493 20.7015C7.40493 20.7015 7.40422 20.7021 8.04829 21.4913C8.69235 22.2805 8.69205 22.2807 8.69205 22.2807L8.69477 22.2786L8.71046 22.2654C8.72535 22.2531 8.74859 22.2339 8.77968 22.2088C8.84185 22.1586 8.93481 22.0849 9.05272 21.9958C9.28944 21.8167 9.62153 21.5788 10.0033 21.3425C10.8184 20.8381 11.6673 20.464 12.2736 20.464H13.0785V22.691C12.3728 22.8936 11.6954 23.2484 11.1463 23.6504C10.7441 23.9449 10.3708 24.2935 10.0881 24.6767C9.81801 25.043 9.55734 25.5415 9.55734 26.1143H11.5694C11.5694 26.1187 11.5693 26.1226 11.5692 26.1255C11.5691 26.1282 11.5689 26.1319 11.5689 26.1319C11.5687 26.1341 11.5688 26.1353 11.5688 26.1353C11.5688 26.1353 11.5693 26.1342 11.5701 26.1319C11.5754 26.1159 11.5993 26.0431 11.6954 25.9128C11.8266 25.7349 12.0379 25.5259 12.3188 25.3202C12.8825 24.9074 13.5691 24.621 14.1167 24.5737C14.5812 24.5853 15.2392 24.8451 15.8192 25.2757C16.1037 25.487 16.3238 25.7068 16.4629 25.896C16.5647 26.0346 16.5916 26.1131 16.5983 26.1322L16.5991 26.1347L16.6001 26.1368C16.6001 26.1368 16.5996 26.1292 16.5996 26.1143H18.6117C18.6117 25.5369 18.3425 25.0307 18.0725 24.6632C17.787 24.2746 17.4099 23.9164 17.0027 23.6141C16.4663 23.2157 15.7937 22.8532 15.0905 22.6615V20.464H16.1972C16.9506 20.464 17.7249 20.8403 18.3733 21.3049C18.6856 21.5287 18.9422 21.7539 19.1195 21.9225C19.2077 22.0062 19.275 22.0747 19.3185 22.1202C19.3401 22.1429 19.3558 22.1598 19.365 22.1699L19.3733 22.179C19.3733 22.179 19.3729 22.1786 20.1207 21.4913C20.8685 20.804 20.8681 20.8036 20.8681 20.8036L20.8666 20.802L20.8641 20.7991L20.8569 20.7911L20.8347 20.7666C20.8164 20.7466 20.791 20.7193 20.7592 20.6859C20.6953 20.619 20.6045 20.5269 20.4899 20.418C20.2619 20.2014 19.9336 19.9129 19.5291 19.623C18.7439 19.0603 17.5564 18.4093 16.1972 18.4093H15.0905V16.3546H15.8451C16.5436 16.3546 17.2226 16.5612 17.7497 16.7877C18.0083 16.899 18.2185 17.0098 18.3611 17.0911C18.4321 17.1317 18.4856 17.1643 18.5191 17.1854C18.5359 17.1959 18.5476 17.2035 18.554 17.2077L18.557 17.2097C18.557 17.2097 18.5566 17.2094 19.1147 16.3546C19.6727 15.4997 19.6722 15.4994 19.6722 15.4994L19.6707 15.4984L19.6681 15.4967L19.6612 15.492L19.6406 15.4785C19.624 15.4676 19.6016 15.4531 19.5736 15.4355C19.5178 15.4004 19.4396 15.3528 19.3416 15.2971C19.1464 15.1857 18.8691 15.0397 18.5305 14.8941C17.8629 14.607 16.9071 14.2999 15.8451 14.2999H15.0914L15.0905 12.7589H13.0785Z" fill="#0F172A"/>
<path fill-rule="evenodd" clip-rule="evenodd" d="M18.7144 4.49999C18.7144 6.98529 16.6415 8.99998 14.0844 8.99998C11.5272 8.99998 9.45427 6.98529 9.45427 4.49999C9.45427 2.01472 11.5272 0 14.0844 0C16.6415 0 18.7144 2.01472 18.7144 4.49999ZM20.2578 29.9999H15.3854L16.1506 38.181C16.2502 39.2459 17.1941 40.0463 18.2932 39.9979C19.3924 39.9494 20.2578 39.0692 20.2578 37.9999V29.9999ZM12.7833 29.9999H7.91091V37.9999C7.91091 39.0692 8.77643 39.9494 9.87551 39.9979C10.9746 40.0463 11.9185 39.2459 12.0181 38.181L12.7833 29.9999ZM26.3855 9.99998H26.4789C26.4478 9.99928 26.4167 9.99928 26.3855 9.99998ZM1.69014 9.99998C1.7209 9.99928 1.75167 9.99928 1.78254 9.99998H1.69014Z" fill="#0F172A"/>
<path fill-rule="evenodd" clip-rule="evenodd" d="M1.00604 10.7042C0.450402 10.7042 0 11.1642 0 11.7316V27.1417C0 27.7091 0.450402 28.169 1.00604 28.169H27.163C27.7186 28.169 28.169 27.7091 28.169 27.1417V11.7316C28.169 11.1642 27.7186 10.7042 27.163 10.7042H1.00604ZM13.0785 12.7589V14.2999H12.5755C11.6389 14.2999 10.6228 14.6089 9.90523 14.8754C9.5327 15.0137 9.21197 15.1517 8.9837 15.2552C8.86922 15.3072 8.77716 15.351 8.71237 15.3823C8.67998 15.398 8.65443 15.4107 8.63622 15.4197L8.61459 15.4306L8.60805 15.4339L8.60583 15.435L8.60473 15.4355C8.60473 15.4355 8.60443 15.4357 9.05433 16.3546C9.50422 17.2734 9.50402 17.2736 9.50402 17.2736L9.50573 17.2727L9.51841 17.2664C9.53038 17.2604 9.5495 17.251 9.57505 17.2386C9.62626 17.2138 9.70312 17.1772 9.8009 17.1329C9.99698 17.0438 10.2736 16.925 10.5928 16.8064C11.2584 16.5592 12.0029 16.3546 12.5755 16.3546H13.0785V18.4093H12.2736C11.0691 18.4093 9.80533 19.0625 8.96046 19.5854C8.51227 19.8628 8.12756 20.1386 7.85503 20.3447C7.71821 20.4482 7.60835 20.5352 7.53149 20.5972C7.49296 20.6283 7.46268 20.6533 7.44125 20.6711L7.41579 20.6923L7.40825 20.6987L7.40584 20.7008L7.40493 20.7015C7.40493 20.7015 7.40422 20.7021 8.04829 21.4913C8.69235 22.2805 8.69205 22.2807 8.69205 22.2807L8.69477 22.2786L8.71046 22.2654C8.72535 22.2531 8.74859 22.2339 8.77968 22.2088C8.84185 22.1586 8.93481 22.0849 9.05272 21.9958C9.28944 21.8167 9.62153 21.5788 10.0033 21.3425C10.8184 20.8381 11.6673 20.464 12.2736 20.464H13.0785V22.691C12.3728 22.8936 11.6954 23.2484 11.1463 23.6504C10.7441 23.9449 10.3708 24.2935 10.0881 24.6767C9.81801 25.043 9.55734 25.5415 9.55734 26.1143H11.5694C11.5694 26.1187 11.5693 26.1226 11.5692 26.1255C11.5691 26.1282 11.5689 26.1319 11.5689 26.1319C11.5687 26.1341 11.5688 26.1353 11.5688 26.1353C11.5688 26.1353 11.5693 26.1342 11.5701 26.1319C11.5754 26.1159 11.5993 26.0431 11.6954 25.9128C11.8266 25.7349 12.0379 25.5259 12.3188 25.3202C12.8825 24.9074 13.5691 24.621 14.1167 24.5737C14.5812 24.5853 15.2392 24.8451 15.8192 25.2757C16.1037 25.487 16.3238 25.7068 16.4629 25.896C16.5647 26.0346 16.5916 26.1131 16.5983 26.1322L16.5991 26.1347L16.6001 26.1368C16.6001 26.1368 16.5996 26.1292 16.5996 26.1143H18.6117C18.6117 25.5369 18.3425 25.0307 18.0725 24.6632C17.787 24.2746 17.4099 23.9164 17.0027 23.6141C16.4663 23.2157 15.7937 22.8532 15.0905 22.6615V20.464H16.1972C16.9506 20.464 17.7249 20.8403 18.3733 21.3049C18.6856 21.5287 18.9422 21.7539 19.1195 21.9225C19.2077 22.0062 19.275 22.0747 19.3185 22.1202C19.3401 22.1429 19.3558 22.1598 19.365 22.1699L19.3733 22.179C19.3733 22.179 19.3729 22.1786 20.1207 21.4913C20.8685 20.804 20.8681 20.8036 20.8681 20.8036L20.8666 20.802L20.8641 20.7991L20.8569 20.7911L20.8347 20.7666C20.8164 20.7466 20.791 20.7193 20.7592 20.6859C20.6953 20.619 20.6045 20.5269 20.4899 20.418C20.2619 20.2014 19.9336 19.9129 19.5291 19.623C18.7439 19.0603 17.5564 18.4093 16.1972 18.4093H15.0905V16.3546H15.8451C16.5436 16.3546 17.2226 16.5612 17.7497 16.7877C18.0083 16.899 18.2185 17.0098 18.3611 17.0911C18.4321 17.1317 18.4856 17.1643 18.5191 17.1854C18.5359 17.1959 18.5476 17.2035 18.554 17.2077L18.557 17.2097C18.557 17.2097 18.5566 17.2094 19.1147 16.3546C19.6727 15.4997 19.6722 15.4994 19.6722 15.4994L19.6707 15.4984L19.6681 15.4967L19.6612 15.492L19.6406 15.4785C19.624 15.4676 19.6016 15.4531 19.5736 15.4355C19.5178 15.4004 19.4396 15.3528 19.3416 15.2971C19.1464 15.1857 18.8691 15.0397 18.5305 14.8941C17.8629 14.607 16.9071 14.2999 15.8451 14.2999H15.0914L15.0905 12.7589H13.0785Z" fill="#0F172A"/>
</svg>
