<svg width="40" height="40" viewBox="0 0 40 40" fill="none" xmlns="http://www.w3.org/2000/svg">
<path d="M33.465 3.81076C33.7573 3.51842 33.7573 3.03944 33.465 2.74556C33.1716 2.45322 32.6921 2.45322 32.3998 2.74556L29.8327 5.31461C29.7931 5.35068 29.7737 5.40339 29.7439 5.444L28.3304 4.03069C28.0365 3.73683 27.5575 3.73683 27.2654 4.03069L14.4244 16.8691C14.1305 17.1615 14.1305 17.6405 14.4244 17.9343L18.2756 21.7873C18.4171 21.9285 18.6086 22.0055 18.8091 22.0055C19.0079 22.0055 19.2008 21.9255 19.3426 21.7873L28.461 12.667C28.4895 12.7106 28.5089 12.7618 28.548 12.7996C30.35 14.6001 31.343 16.9959 31.343 19.5469C31.343 22.0948 30.3502 24.4907 28.5495 26.2941C26.7475 28.0916 24.3517 29.0877 21.8029 29.0877C19.7262 29.0877 17.757 28.4175 16.1222 27.1982H21.0506C21.4666 27.1982 21.8041 26.8617 21.8041 26.4447C21.8041 26.0303 21.4666 25.6913 21.0506 25.6913H7.49028C7.07434 25.6913 6.73684 26.0303 6.73684 26.4447C6.73684 26.8617 7.07434 27.1982 7.49028 27.1982H13.8878C13.9193 27.2539 13.9466 27.3097 13.9932 27.3563C15.3356 28.6987 16.9644 29.6479 18.7409 30.1572L15.7833 36.6778C15.6779 36.9098 15.6976 37.181 15.8361 37.3994C15.9748 37.6148 16.2126 37.7445 16.4689 37.7445H30.0926C30.3713 37.7445 30.626 37.5909 30.7555 37.3465C30.8882 37.0998 30.8733 36.8029 30.7194 36.5724L26.1993 29.7922C26.1778 29.7607 26.1461 29.742 26.1206 29.712C27.4073 29.1684 28.5961 28.3726 29.6161 27.3556C31.7029 25.2688 32.8496 22.4904 32.8496 19.5435C32.8496 16.5918 31.6998 13.8179 29.6131 11.7315C29.5765 11.6939 29.5261 11.6727 29.4834 11.6427L32.1816 8.94273C32.3251 8.80123 32.4016 8.60978 32.4016 8.40925C32.4016 8.20746 32.3221 8.01601 32.1816 7.87576L30.7683 6.46245C30.814 6.43092 30.8616 6.41276 30.8997 6.37215L33.465 3.81076Z" fill="#0F172A"/>
</svg>
