<svg width="40" height="40" viewBox="0 0 40 40" fill="none" xmlns="http://www.w3.org/2000/svg">
<path d="M31.3202 8.50654C31.6652 9.85338 31.6652 11.088 31.3202 12.4423C30.9533 13.6619 30.4689 15.0162 29.8597 16.3631C29.2653 17.7099 28.8983 18.6901 28.7882 19.5506V22.6109C28.7882 24.3318 28.7882 25.9256 28.5387 27.5194C27.8194 32.7945 26.7332 35.3684 25.17 35.3684C24.8177 35.3684 24.5682 35.2412 24.326 35.1215C24.0838 34.8746 23.8342 34.5079 23.7242 34.1413C23.6067 33.64 23.4966 33.2733 23.3572 32.9067V29.5995C23.4893 29.0981 23.4893 28.4921 23.4893 27.8785C23.6067 26.6589 23.6067 25.7909 23.6067 25.3046C23.3572 22.4837 22.1682 21.0097 19.9958 21.0097C17.9409 21.0097 16.7299 22.4837 16.5024 25.3046C16.3703 25.6637 16.3703 26.5242 16.5024 27.8785C16.5024 28.4921 16.6198 29.0981 16.6198 29.5995V31.1857C16.7372 31.9265 16.6198 32.4203 16.6198 32.9067C16.5024 33.2658 16.5024 33.64 16.3703 34.1413C16.1428 34.5004 16.018 34.8746 15.7758 35.1215C15.5336 35.2412 15.174 35.3684 14.9318 35.3684C13.2438 35.3684 12.1649 32.7945 11.4383 27.5194C11.3209 25.9256 11.1961 24.3318 11.3209 22.6109C11.3209 21.0171 11.3209 20.0369 11.1961 19.5506C11.0714 18.6901 10.7044 17.7099 10.1099 16.3631C9.51545 15.0162 9.14849 13.6619 8.78887 12.4423C8.42191 11.088 8.31182 9.85338 8.53934 8.50654C9.15583 6.41895 10.1173 5.07212 11.8053 4.46604C12.8768 4.09192 14.3373 4.09192 16.1428 4.71296C17.9482 5.19932 19.1592 5.57344 20.0032 5.57344C20.8472 5.57344 22.1756 5.19932 23.9737 4.71296C25.6617 4.0994 27.1002 4.0994 28.3112 4.46604C29.8671 5.07212 30.9606 6.42643 31.3276 8.50654H31.3202Z" fill="#0F172A"/>
</svg>
