<svg width="40" height="40" viewBox="0 0 40 40" fill="none" xmlns="http://www.w3.org/2000/svg">
<path fill-rule="evenodd" clip-rule="evenodd" d="M18.0592 5.66743C19.5152 4.77752 21.3836 4.77753 22.8397 5.66743L24.5379 6.70538C26.9188 8.16053 29.6318 8.48533 32.3564 8.81158C33.2373 8.91708 34.1193 9.02267 34.9918 9.16667C34.9918 9.16667 35.011 10.6946 34.9908 11.3883L34.8167 17.3475C34.6673 22.4582 32.3946 27.3045 28.4959 30.8258C26.6567 32.487 24.7545 33.9876 22.5688 35.2344C21.2728 35.9737 19.6696 36.0323 18.3178 35.3897C15.7942 34.19 13.5592 32.6686 11.5189 30.8258C7.62018 27.3045 5.34747 22.4582 5.19815 17.3475L5.0246 11.4073C5.00404 10.7038 5.0246 9.16667 5.0246 9.16667C5.73292 9.083 6.45486 9.01442 7.18227 8.94533C10.3935 8.64017 13.7112 8.32488 16.4329 6.66139L18.0592 5.66743ZM18.3332 18.3333V12.5H21.6665V18.3333H27.4998V21.6667H21.6665V27.5H18.3332V21.6667H12.4998V18.3333H18.3332Z" fill="#0F172A"/>
</svg>
