<svg width="24" height="24" viewBox="0 0 24 24" fill="none" xmlns="http://www.w3.org/2000/svg">
<path d="M1.12953 1.05937C0.857651 1.28437 0.862339 1.6125 1.15296 2.36719C1.36859 2.92031 1.6639 3.38906 2.01078 3.71719C2.4889 4.17187 2.75609 4.23281 3.70296 4.07812C4.41546 3.96094 4.75765 3.97031 5.16546 4.125L5.42328 4.21875L5.32953 4.49062C5.25921 4.69687 5.24515 4.84687 5.25921 5.15625C5.27328 5.49844 5.3014 5.59687 5.43734 5.85937C5.76078 6.45937 6.52015 7.05469 7.33578 7.34531C7.66859 7.4625 7.7764 7.47656 8.29671 7.47656C8.94359 7.47656 9.06546 7.43906 9.36546 7.15312C9.67484 6.86719 9.7264 6.70312 9.7264 6.04688C9.7264 5.50781 9.71234 5.42812 9.58109 5.05312C9.28109 4.22344 8.69046 3.48281 8.08109 3.18281C7.78109 3.03281 7.72953 3.02344 7.2889 3.02344C6.85296 3.02344 6.79203 3.03281 6.51546 3.17344L6.21546 3.32344L6.02796 3.21094C5.92015 3.15 5.66703 3.04219 5.46078 2.97187C5.13265 2.85469 5.01546 2.84062 4.49984 2.84062C4.12015 2.83594 3.75453 2.86875 3.45921 2.925C3.07484 2.99531 2.99046 3 2.91546 2.94844C2.64359 2.75625 2.32015 2.18437 2.13265 1.57031C1.98265 1.07812 1.84203 0.9375 1.49984 0.9375C1.32171 0.9375 1.24203 0.965625 1.12953 1.05937Z" fill="white"/>
<path d="M13.7578 3.93438C13.1016 3.97188 12.9375 4.10313 12.9375 4.57188C12.9375 4.75469 12.9609 4.81094 13.0922 4.94219L13.2516 5.10156H14.25H15.2484L15.4078 4.94219C15.5391 4.81094 15.5625 4.75469 15.5625 4.57188C15.5625 4.14531 15.3891 3.98125 14.9109 3.94844C14.7422 3.93906 14.5172 3.925 14.4141 3.92031C14.3109 3.91563 14.0156 3.92031 13.7578 3.93438Z" fill="white"/>
<path d="M16.9403 4.75C16.7293 4.94219 16.6872 5.19531 16.8184 5.43906C16.884 5.56094 17.0059 5.65 17.3012 5.80469C17.5168 5.91719 17.859 6.11406 18.0606 6.24531C18.3559 6.4375 18.4684 6.48438 18.6231 6.48438C18.8715 6.48438 19.0122 6.41406 19.1247 6.22187C19.4059 5.76719 19.1012 5.40156 17.9622 4.82031C17.409 4.53437 17.1887 4.52031 16.9403 4.75Z" fill="white"/>
<path d="M13.1717 6.84126C11.4186 7.23032 10.0405 8.37407 9.37015 10.0006C8.92483 11.0881 8.86858 12.5272 9.2389 13.6288L9.33265 13.9194H9.79671C10.5889 13.9194 11.1608 14.1303 11.6389 14.6131C12.1217 15.0959 12.328 15.6491 12.328 16.4459V16.9147L12.6233 17.0131C13.3873 17.2709 14.503 17.3319 15.3045 17.1631C17.3951 16.7225 18.9842 15.1428 19.4061 13.0803C19.4951 12.6584 19.5045 12.4803 19.4858 11.8381C19.4576 10.9803 19.378 10.5725 19.0873 9.9022C18.4545 8.43032 17.1045 7.28188 15.5436 6.88345C14.9858 6.74282 13.7248 6.71938 13.1717 6.84126ZM15.4311 9.9772C15.8014 10.1553 16.1295 10.4928 16.303 10.8678C16.4155 11.1022 16.4295 11.1913 16.4295 11.6272C16.4295 12.0584 16.4155 12.1522 16.3076 12.3772C16.1295 12.7616 15.7967 13.0991 15.4311 13.2772C15.1405 13.4225 15.0889 13.4319 14.6248 13.4319C14.1936 13.4319 14.0998 13.4178 13.8748 13.31C13.4905 13.1319 13.153 12.7991 12.9748 12.4334C12.8295 12.1428 12.8201 12.0913 12.8201 11.6272C12.8201 11.1913 12.8342 11.1022 12.9467 10.8678C13.167 10.3991 13.5889 10.0241 14.0764 9.8647C14.1983 9.82251 14.4326 9.80376 14.6998 9.81313C15.0701 9.82251 15.1686 9.84595 15.4311 9.9772Z" fill="white"/>
<path d="M20.0296 7.125C19.8374 7.2375 19.7671 7.37813 19.7671 7.62656C19.7671 7.78125 19.814 7.89844 20.0015 8.18906C20.1327 8.39063 20.3296 8.73281 20.4421 8.94375C20.6718 9.39844 20.789 9.49219 21.1077 9.49219C21.3093 9.49219 21.3515 9.47344 21.4968 9.31875C21.7124 9.07969 21.7124 8.85938 21.4921 8.39531C21.2155 7.82344 20.7843 7.19063 20.6062 7.10625C20.3952 7.00781 20.2124 7.0125 20.0296 7.125Z" fill="white"/>
<path d="M6.44512 10.7906C6.22012 10.9688 6.18262 11.1328 6.18262 11.9953C6.18262 12.4266 6.19668 12.8203 6.21543 12.8719C6.31855 13.2 6.47793 13.3125 6.8248 13.3125C7.00762 13.3125 7.06387 13.2891 7.1998 13.1531L7.35449 12.9984V12V11.0016L7.1998 10.8469C7.05918 10.7062 7.00762 10.6875 6.80605 10.6875C6.64199 10.6875 6.53887 10.7156 6.44512 10.7906Z" fill="white"/>
<path d="M21.2997 10.8469L21.145 11.0016V12V12.9984L21.2997 13.1531C21.4356 13.2891 21.4919 13.3125 21.6747 13.3125C21.9372 13.3125 22.0966 13.2422 22.2044 13.0828C22.3638 12.8391 22.3638 11.1609 22.2044 10.9172C22.0966 10.7578 21.9372 10.6875 21.6747 10.6875C21.4919 10.6875 21.4356 10.7109 21.2997 10.8469Z" fill="white"/>
<path d="M20.8124 14.5661C20.6859 14.6364 20.5968 14.7583 20.414 15.1005C20.2875 15.3443 20.0859 15.6864 19.9734 15.8599C19.6687 16.3239 19.6921 16.6661 20.0296 16.8724C20.2078 16.9802 20.3812 16.9896 20.5921 16.9005C20.7656 16.8302 21.0656 16.4083 21.4265 15.7333C21.7171 15.1802 21.7359 14.9411 21.5062 14.6927C21.3093 14.4818 21.0515 14.4349 20.8124 14.5661Z" fill="white"/>
<path d="M9 15.1078C7.98281 15.4172 7.125 16.1156 6.84375 16.8609C6.70312 17.2359 6.72656 17.8172 6.89531 18.1734L7.0125 18.4125L6.80625 18.6656C6.33281 19.2281 6.10781 19.6266 5.86406 20.3203C5.63438 20.9578 5.64844 20.9531 4.4625 20.9531C3.43125 20.9531 3.06094 21.0094 2.44688 21.2578C1.97344 21.45 1.42031 21.7875 1.13906 22.0547C0.951563 22.2375 0.9375 22.2656 0.9375 22.4953C0.9375 22.7156 0.95625 22.7625 1.09688 22.9031C1.23281 23.0391 1.28906 23.0625 1.48594 23.0625C1.68281 23.0625 1.75781 23.0344 2.02031 22.8469C2.18438 22.7297 2.45625 22.5656 2.625 22.4766C3.19688 22.1859 3.34219 22.1625 4.57031 22.1297L5.69531 22.1016L6 21.9516C6.52031 21.7031 6.7125 21.4641 6.975 20.7281C7.15313 20.2312 7.40156 19.7953 7.725 19.4156L7.85156 19.2609L8.08594 19.3641C8.27813 19.4531 8.40469 19.4719 8.78906 19.4766C9.22969 19.4766 9.27656 19.4672 9.58125 19.3172C10.1906 19.0172 10.7812 18.2812 11.0813 17.4469C11.2125 17.0719 11.2266 16.9922 11.2266 16.4531C11.2266 15.7969 11.175 15.6328 10.8656 15.3469C10.5844 15.0797 10.4344 15.0281 9.86719 15.0141C9.43594 15.0047 9.29063 15.0187 9 15.1078Z" fill="white"/>
<path d="M18.4641 17.5313C18.3938 17.55 18.2157 17.6531 18.0657 17.7516C17.911 17.8547 17.5922 18.0422 17.3485 18.1688C16.8844 18.4078 16.7954 18.5016 16.7485 18.7641C16.6922 19.1109 16.9688 19.4062 17.3532 19.4062C17.5782 19.4062 18.1547 19.125 18.7454 18.7266C19.2047 18.4172 19.3313 18.1125 19.125 17.7797C18.9891 17.5547 18.7172 17.4516 18.4641 17.5313Z" fill="white"/>
<path d="M13.0969 19.0514C12.9609 19.1873 12.9375 19.2435 12.9375 19.4264C12.9375 19.7264 13.0359 19.8951 13.2656 19.9889C13.5328 20.0967 14.9625 20.0967 15.225 19.9935C15.45 19.9045 15.5625 19.7123 15.5625 19.4357C15.5625 19.267 15.5344 19.192 15.4266 19.0701L15.2906 18.9154L14.2734 18.9014L13.2563 18.892L13.0969 19.0514Z" fill="white"/>
</svg>
