<svg width="24" height="24" viewBox="0 0 24 24" fill="none" xmlns="http://www.w3.org/2000/svg">
<path d="M10.8282 1.03073C8.72822 1.28386 6.92353 2.01511 5.22666 3.29479C4.77666 3.63698 3.72666 4.67292 3.36572 5.13698C2.18916 6.63229 1.39229 8.46042 1.09229 10.3682C0.975098 11.1182 0.975098 12.8854 1.09229 13.6401C1.2751 14.7979 1.64072 15.9464 2.14697 16.9448C2.53604 17.7135 2.52666 17.7135 2.53135 16.8979C2.53135 16.087 2.5876 15.8057 2.84072 15.3229L3.00947 14.9995L2.8876 14.5682C2.1751 12.0276 2.5501 9.28073 3.91416 7.08229C6.13603 3.49636 10.3173 1.79479 14.3579 2.83073C17.6813 3.68854 20.2829 6.28073 21.1595 9.60885C21.3892 10.4714 21.4407 10.9167 21.4407 12.0229C21.4407 13.1292 21.3985 13.5135 21.1595 14.3901C21.0892 14.6339 21.0282 14.8823 21.0142 14.9339C21.0001 14.9901 21.0376 15.112 21.1079 15.2151C21.3845 15.6557 21.436 15.8995 21.4595 16.7807C21.4829 17.7229 21.4642 17.7135 21.8532 16.9448C22.3595 15.9464 22.7251 14.7979 22.9079 13.6401C23.0251 12.8854 23.0251 11.1182 22.9079 10.3682C22.6079 8.47917 21.886 6.79167 20.7048 5.22604C20.3626 4.77604 19.3267 3.72604 18.8626 3.3651C17.3673 2.18854 15.5485 1.39635 13.6642 1.09636C13.111 1.00729 11.3532 0.969793 10.8282 1.03073Z" fill="white"/>
<path d="M10.9691 3.5519C9.96133 3.71127 9.20664 3.9269 8.51289 4.24096L8.15664 4.40502L8.30664 4.65346C8.51289 4.99564 8.51289 5.21596 8.30664 5.39877C8.14727 5.54408 7.9457 5.57689 7.77695 5.48314C7.72539 5.45502 7.60352 5.30971 7.50508 5.15502L7.32695 4.87377L6.9332 5.1644C6.42695 5.53471 5.53164 6.43002 5.16133 6.93627L4.8707 7.33002L5.15195 7.50814C5.30664 7.60658 5.45195 7.72846 5.48008 7.78002C5.57383 7.94877 5.54102 8.15033 5.3957 8.30971C5.21289 8.51596 4.99258 8.51596 4.65039 8.30971L4.40195 8.15971L4.24258 8.49721C3.89102 9.26596 3.60039 10.3488 3.53477 11.1597L3.50195 11.5347H4.05039C4.65508 11.5347 4.81914 11.5816 4.91289 11.7925C4.98789 11.9519 4.9832 12.0738 4.90352 12.2331C4.80039 12.43 4.6457 12.4722 4.0457 12.4722H3.50195L3.53477 12.8519C3.56758 13.241 3.65664 13.7613 3.75039 14.1128C3.81133 14.3331 3.77852 14.3285 4.24258 14.1503L4.52383 14.0425H12.0004H19.477L19.7582 14.1503C20.2223 14.3285 20.1941 14.3285 20.2457 14.1269C20.3348 13.7941 20.4379 13.2035 20.466 12.8378L20.4988 12.4722H19.9504C19.3457 12.4722 19.1816 12.4253 19.0879 12.2144C19.0129 12.055 19.0176 11.9331 19.0973 11.7738C19.2004 11.5769 19.3551 11.5347 19.9551 11.5347H20.4988L20.466 11.1597C20.4004 10.3488 20.1191 9.30346 19.7629 8.51596L19.5988 8.15971L19.3504 8.30971C19.0082 8.51596 18.7879 8.51596 18.6051 8.30971C18.4504 8.13627 18.427 7.91596 18.5441 7.74721C18.5863 7.68627 18.7316 7.57377 18.8723 7.49877L19.1301 7.35346L19.0457 7.22221C18.6707 6.63158 17.7426 5.66596 17.0676 5.1644L16.6738 4.87377L16.4957 5.15502C16.3973 5.30971 16.2754 5.45502 16.2238 5.48314C16.0551 5.57689 15.8535 5.54408 15.6941 5.39877C15.4879 5.21596 15.4879 4.99564 15.6941 4.65346L15.8441 4.40502L15.4879 4.24096C14.7332 3.88939 13.6551 3.60346 12.8441 3.53783L12.4691 3.50502V4.05346C12.4691 4.65814 12.4223 4.82221 12.2113 4.91596C12.052 4.99096 11.9301 4.98627 11.7707 4.90658C11.5738 4.80346 11.5316 4.64877 11.5316 4.05814V3.51908L11.3113 3.52377C11.1848 3.52846 11.0348 3.54252 10.9691 3.5519ZM12.3426 6.70658L12.4691 6.84721V9.00346V11.1597L12.5863 11.2347C12.652 11.2769 12.7645 11.4128 12.8348 11.53C13.3223 12.3644 12.3613 13.3253 11.527 12.8378C11.4098 12.7675 11.2738 12.655 11.2316 12.5894L11.1566 12.4722H9.48789H7.81914L7.6832 12.3363C7.49102 12.1441 7.49102 11.8628 7.6832 11.6706L7.81914 11.5347H9.47852H11.1332L11.3348 11.3331L11.5316 11.1269V8.99408C11.5316 6.88471 11.5316 6.85658 11.6301 6.73471C11.8316 6.48158 12.1223 6.46752 12.3426 6.70658Z" fill="white"/>
<path d="M4.32187 15.1453C4.00781 15.3 3.76875 15.5437 3.6 15.8859L3.49219 16.1016V18.9844V21.8672L3.61406 22.1297C3.76875 22.4531 4.03125 22.725 4.34062 22.8797L4.57031 22.9922H12H19.4297L19.6641 22.875C19.9734 22.725 20.2312 22.4531 20.3859 22.1297L20.5078 21.8672L20.5219 19.125C20.5406 16.0594 20.5359 16.0266 20.2219 15.5953C20.0437 15.3516 19.7203 15.1219 19.4531 15.0469C19.35 15.0187 16.6078 15 11.9484 15H4.60781L4.32187 15.1453ZM14.8172 16.1672C14.9203 16.2703 14.9531 16.35 14.9531 16.4859C14.9531 16.5844 14.7281 17.7891 14.4516 19.1672C13.9922 21.4734 13.9406 21.6844 13.8234 21.8156C13.7203 21.9328 13.6594 21.9609 13.5 21.9609C13.3359 21.9609 13.2797 21.9328 13.1672 21.8062C13.0922 21.7219 13.0312 21.6094 13.0312 21.5484C13.0312 21.4922 13.2609 20.2828 13.5469 18.8672C14.0531 16.3312 14.0625 16.2891 14.2031 16.1578C14.4 15.9797 14.6344 15.9844 14.8172 16.1672ZM7.42969 16.6453C7.57031 16.7156 7.72031 16.8422 7.80469 16.9641L7.94531 17.1656V18V18.8344L7.80469 19.0359C7.72031 19.1578 7.57031 19.2844 7.43437 19.3547C7.23281 19.4578 7.12969 19.4766 6.6 19.4906L6 19.5094V20.0203V20.5312H6.79687C7.67344 20.5312 7.80937 20.5641 7.9125 20.7891C7.98281 20.9437 7.98281 21.0562 7.9125 21.2109C7.80937 21.4406 7.67812 21.4687 6.69375 21.4687C5.66719 21.4687 5.52187 21.4312 5.26406 21.1172C5.04844 20.8594 5.00625 20.6344 5.025 19.8937C5.03906 19.2797 5.04844 19.2281 5.17031 19.0219C5.25469 18.8766 5.37656 18.7547 5.52187 18.6703C5.72812 18.5484 5.77969 18.5391 6.38906 18.525L7.03125 18.5062V17.9953V17.4844H6.23437C5.61094 17.4844 5.40469 17.4703 5.29687 17.4141C5.11875 17.3203 5.00156 17.0953 5.03906 16.9219C5.07187 16.7625 5.26406 16.5609 5.40469 16.5281C5.46094 16.5187 5.8875 16.5141 6.35156 16.5141C7.15781 16.5234 7.20937 16.5281 7.42969 16.6453ZM18.2109 16.6453C18.4969 16.7906 18.7078 17.1 18.7359 17.4281C18.7547 17.625 18.6844 17.85 18.0937 19.4297C17.3672 21.3797 17.3203 21.4687 16.9875 21.4687C16.7484 21.4687 16.5469 21.2578 16.5469 21.0141C16.5516 20.9016 16.7859 20.2078 17.175 19.1719L17.8031 17.5078L17.0531 17.4844L16.3031 17.4609L16.1672 17.3062C15.9281 17.0391 16.0312 16.6547 16.3734 16.5516C16.4578 16.5234 16.8516 16.5094 17.25 16.5141C17.9297 16.5234 17.9953 16.5328 18.2109 16.6453ZM9.79219 16.6453C9.96094 16.8047 9.98437 16.9359 9.98437 17.7469V18.5156H10.5H11.0156V17.7469C11.0156 17.3203 11.0344 16.9219 11.0578 16.8609C11.2266 16.4156 11.8219 16.4531 11.9531 16.9125C12.0141 17.1469 12.0141 20.8687 11.9531 21.1031C11.85 21.4687 11.4703 21.5812 11.1937 21.3328L11.0391 21.1969L11.025 20.3531L11.0109 19.5141L10.3922 19.4906C9.73125 19.4672 9.51562 19.4016 9.3 19.1625C9.07031 18.9094 9.03281 18.7641 9.00937 17.9953C8.98125 17.0766 9.01406 16.8562 9.1875 16.6781C9.35625 16.5141 9.63281 16.4953 9.79219 16.6453Z" fill="white"/>
</svg>
