<svg width="24" height="24" viewBox="0 0 24 24" fill="none" xmlns="http://www.w3.org/2000/svg">
<path d="M9.28576 0.418686C8.16076 0.653061 7.11544 1.36087 6.48732 2.30306C5.52638 3.74681 5.46544 5.49056 6.31388 7.18744C7.23732 9.03431 8.54982 10.2671 11.367 11.9265C11.8826 12.2312 12.5248 12.6109 12.7967 12.7749C13.2561 13.0468 13.2936 13.0609 13.4061 13.0046C13.7764 12.8124 15.7311 11.6406 16.3076 11.2609C18.9514 9.53119 20.2217 7.97494 20.7514 5.82337C20.9858 4.87181 20.9014 3.83587 20.5358 3.02025C19.8233 1.44994 18.1451 0.376498 16.4014 0.371811C15.3795 0.371811 14.4842 0.690561 13.7108 1.33744C13.5092 1.5015 13.3264 1.63744 13.3076 1.63744C13.2842 1.63744 13.0826 1.5015 12.867 1.33275C12.3983 0.976499 11.9014 0.713999 11.3436 0.535873C10.992 0.418686 10.8608 0.404624 10.2186 0.390561C9.82013 0.381186 9.39826 0.395248 9.28576 0.418686ZM13.767 3.39994C14.0904 3.58744 14.1561 3.789 14.1561 4.5765V5.23744L14.8498 5.25619C15.4779 5.27025 15.5576 5.27962 15.7404 5.38744C16.0264 5.5515 16.1483 5.76712 16.1483 6.11869C16.1483 6.34837 16.1248 6.43744 16.0217 6.59212C15.8201 6.9015 15.6467 6.95306 14.8498 6.97181L14.1561 6.98587V7.65619C14.1561 8.26556 14.1467 8.34525 14.0483 8.53275C13.9029 8.80462 13.6123 8.96869 13.2889 8.96869C13.0029 8.96869 12.7967 8.86556 12.6233 8.63587C12.492 8.46712 12.492 8.45306 12.4779 7.7265L12.4639 6.99056L11.742 6.9765C11.0295 6.95775 11.0201 6.95775 10.8233 6.81712C10.5373 6.61556 10.4436 6.414 10.4623 6.06244C10.4764 5.83744 10.5092 5.739 10.6076 5.60306C10.8326 5.30775 10.9498 5.27494 11.7514 5.25619L12.4639 5.23744L12.4779 4.5015C12.492 3.77494 12.492 3.76087 12.6233 3.59212C12.9045 3.22181 13.3358 3.14681 13.767 3.39994Z" fill="white"/>
<path d="M13.0923 3.67549C13.0126 3.71299 12.9235 3.7833 12.8954 3.83955C12.8626 3.8958 12.8438 4.23799 12.8438 4.69737C12.8438 5.28799 12.8298 5.48955 12.7782 5.55987C12.7173 5.63955 12.6329 5.64893 11.8595 5.67237C11.0345 5.6958 11.0063 5.70049 10.9173 5.8083C10.8188 5.93018 10.7954 6.23018 10.8751 6.38018C10.9829 6.57237 11.1563 6.60987 11.972 6.60987C12.6892 6.60987 12.7501 6.61455 12.797 6.69893C12.8251 6.75049 12.8438 7.11612 12.8438 7.54737C12.8438 7.99737 12.8626 8.33955 12.8954 8.40049C12.961 8.52705 13.2423 8.63955 13.4063 8.60205C13.4767 8.58799 13.5845 8.52237 13.6454 8.45674C13.7532 8.33955 13.7579 8.30674 13.772 7.5333C13.7813 7.09268 13.8095 6.70362 13.8329 6.67549C13.8657 6.6333 14.1376 6.61455 14.686 6.60049C15.5813 6.58643 15.6657 6.5583 15.7548 6.2958C15.8204 6.08955 15.7688 5.8833 15.6235 5.76612C15.5157 5.68174 15.4313 5.67237 14.7235 5.67237C14.297 5.67237 13.9126 5.64893 13.8751 5.62549C13.8188 5.59268 13.8001 5.41924 13.7813 4.73955C13.7579 3.91455 13.7532 3.89111 13.6407 3.77393C13.4907 3.62861 13.2845 3.59111 13.0923 3.67549Z" fill="white"/>
<path d="M21.4217 12.7419C21.3326 12.7935 20.3248 13.6419 19.1904 14.6356C17.6998 15.9388 17.1139 16.4778 17.0904 16.5716C17.0342 16.7825 16.7811 17.106 16.5607 17.2466C16.4436 17.3216 16.2279 17.4013 16.0592 17.4294C15.6701 17.4997 11.9342 17.4997 11.8076 17.4341C11.6904 17.3685 11.6904 17.1716 11.8076 17.106C11.8686 17.0778 12.6373 17.0591 13.992 17.0591C16.2045 17.0591 16.2701 17.0544 16.5186 16.8341C16.842 16.5435 16.8654 15.7888 16.5561 15.4513C16.3404 15.2122 16.3076 15.2075 14.4373 15.1794C12.3607 15.1419 12.2154 15.1278 9.91387 14.6497C8.17949 14.2935 7.31699 14.331 6.30449 14.8044C5.62949 15.1231 5.13262 15.4935 4.22793 16.3606L3.69824 16.8716L5.29668 19.295C6.17793 20.631 6.91855 21.7419 6.94199 21.7653C6.96543 21.7888 7.05449 21.7606 7.1623 21.6903C7.4248 21.5122 7.95918 21.2544 8.30137 21.1278L8.60137 21.02L12.2811 20.9966C15.5904 20.9731 15.9889 20.9591 16.242 20.8888C16.6451 20.7716 17.142 20.5231 17.4232 20.3028C17.6623 20.1106 22.4717 14.4435 22.6732 14.1153C23.067 13.4731 22.5842 12.6528 21.8201 12.6575C21.6842 12.6575 21.5154 12.695 21.4217 12.7419Z" fill="white"/>
<path d="M2.10921 17.1344C1.63108 17.4531 1.22327 17.7203 1.20452 17.7297C1.15765 17.7437 5.04358 23.65 5.09983 23.6406C5.11858 23.6359 5.5264 23.3734 6.0139 23.0547C6.63265 22.6469 6.88577 22.45 6.8764 22.3984C6.84827 22.3 3.04671 16.5437 3.00921 16.5484C2.99046 16.5484 2.58733 16.8109 2.10921 17.1344Z" fill="white"/>
</svg>
