<svg width="137" height="136" viewBox="0 0 137 136" fill="none" xmlns="http://www.w3.org/2000/svg">
<path d="M66.646 0.0581207C66.2632 0.140152 65.1148 0.386246 64.1031 0.604996C50.8687 3.47609 29.8414 18.4605 17.8375 33.5542C12.8609 39.8159 10.1265 44.0816 7.06402 50.3433C-0.510199 65.7651 -1.95942 79.8198 2.5523 93.6558C6.95464 107.136 16.3609 117.226 28.146 121.164C35.857 123.707 46.275 123.433 53.6851 120.48C54.8882 120.015 55.9546 119.523 56.064 119.414C56.1734 119.304 55.7359 118.046 55.0523 116.625C51.6617 109.57 49.775 102.515 49.0914 94.5034C48.4351 86.4917 49.8296 77.0034 52.9468 68.3355C54.1226 64.9995 56.6382 59.2847 57.8687 57.0425C58.3335 56.2222 58.7164 55.4292 58.7164 55.3198C58.7164 54.9917 55.9273 53.8159 53.7125 53.2144C52.6187 52.9136 49.9937 52.5034 47.8335 52.2573C42.1734 51.6831 40.2046 51.0269 39.0289 49.3862C37.8257 47.7183 38.564 44.3276 40.7789 41.0737C44.3609 35.9058 53.3843 28.8511 65.689 21.605C71.2398 18.3237 74.7124 15.6441 76.5992 13.1831C78.2671 10.9683 78.7593 9.16359 78.3765 6.64796C77.7203 2.49171 74.7671 0.249527 69.6539 0.030777C68.3687 -0.0239105 67.0289 0.00343323 66.646 0.0581207Z" fill="#0385F7" fill-opacity="0.1"/>
<path d="M122.783 12.8857C108.263 16.0303 86.2515 32.0811 73.9468 48.5146C65.0874 60.3545 60.0288 72.0576 58.3062 84.7178C58.0054 87.0967 58.1421 94.8623 58.5796 97.624C60.2202 108.315 64.5952 117.339 71.5679 124.339C77.3101 130.108 83.271 133.308 91.146 134.866C94.8101 135.604 101.974 135.522 105.693 134.729C120.841 131.503 131.888 120.374 134.349 105.854C135.005 101.917 134.759 95.1357 133.802 91.3623C131.123 80.7256 125.189 72.3037 117.396 68.0107C114.115 66.1787 110.97 65.2764 106.24 64.8115C100.552 64.2646 98.7749 63.7178 97.2984 62.1592C95.8491 60.5732 96.3687 57.3467 98.6109 53.9834C102.302 48.5146 109.494 42.7451 122.236 35.0068C130.712 29.8662 134.185 27.0225 135.716 24.0146C137.166 21.1436 136.673 17.3701 134.513 15.1279C133.365 13.9248 132.49 13.4326 130.658 12.8584C129.072 12.3936 125.052 12.3936 122.783 12.8857Z" fill="#0385F7" fill-opacity="0.1"/>
</svg>
