<svg width="41" height="40" viewBox="0 0 41 40" fill="none" xmlns="http://www.w3.org/2000/svg">
<path fill-rule="evenodd" clip-rule="evenodd" d="M3.77803 13.2425C3.20739 10.663 3.94949 7.86256 6.00431 5.85786C8.05914 3.85316 10.9296 3.12916 13.5735 3.68586C15.0396 1.46826 17.594 0 20.5 0C23.4059 0 25.9604 1.46827 27.4265 3.68588C30.0704 3.12916 32.9408 3.85316 34.9958 5.85786C37.0505 7.86258 37.7926 10.663 37.2221 13.2425C39.4951 14.6728 41 17.1649 41 20C41 22.835 39.4951 25.3272 37.2221 26.7576C37.7926 29.337 37.0505 32.1374 34.9958 34.1422C32.9408 36.1468 30.0704 36.8708 27.4265 36.3142C25.9604 38.5318 23.4059 40 20.5 40C17.594 40 15.0396 38.5318 13.5735 36.3142C10.9296 36.8708 8.05914 36.1468 6.00431 34.1422C3.94949 32.1374 3.20739 29.337 3.77803 26.7576C1.50497 25.3272 0 22.835 0 20C0 17.1649 1.50497 14.6728 3.77803 13.2425ZM14.6484 25.699C17.8648 28.8368 23.0797 28.8368 26.2962 25.699C29.5126 22.561 29.5126 17.4732 26.2962 14.3352C23.0797 11.1973 17.8648 11.1973 14.6484 14.3352C11.4319 17.4732 11.4319 22.561 14.6484 25.699Z" fill="url(#paint0_linear_7640_3325)"/>
<defs>
<linearGradient id="paint0_linear_7640_3325" x1="5.6375" y1="3.8" x2="29.7859" y2="35.4786" gradientUnits="userSpaceOnUse">
<stop stop-color="#FFD9A0"/>
<stop offset="1" stop-color="#FFF5F1"/>
</linearGradient>
</defs>
</svg>
