<svg width="16" height="16" viewBox="0 0 16 16" fill="none" xmlns="http://www.w3.org/2000/svg">
<path d="M12.4193 8.00096H15.7693L16 8.52629V9.33429H9.99998C8.52931 9.33429 7.33331 10.5303 7.33331 12.001V16.001H5.99998V8.66763C5.99998 7.58363 6.84931 6.68696 7.89398 6.66829C8.73932 6.65029 9.54065 6.80763 10.31 7.12696L12.4193 8.00096ZM9.99998 10.6676C9.26465 10.6676 8.66665 11.2656 8.66665 12.001V16.001H10.6666V14.001H12.1646C13.1646 14.001 14.0166 13.2536 14.1473 12.2636L14.3586 10.6676H9.99998ZM4.66665 16.001V8.66763C4.66665 6.86163 6.10398 5.36629 7.87065 5.33496C8.89065 5.32363 9.88065 5.50563 10.8206 5.89496L12.6853 6.66763H15.1853C14.52 5.15563 13.8766 3.78163 13.2013 2.94629C11.5746 0.776293 8.99198 -0.297707 6.30198 0.0716261C2.97132 0.528959 0.333981 3.29829 0.030648 6.65629C-0.146019 8.61363 0.445315 10.5183 1.69531 12.0196C1.89198 12.2556 1.99998 12.5543 1.99998 12.8616V16.001H4.66665Z" fill="#1ACCBF"/>
</svg>
