<svg width="63" height="3" viewBox="0 0 63 3" fill="none" xmlns="http://www.w3.org/2000/svg">
<path d="M0.1 1.14941V1.89941H0.113634L0.127258 1.89892L0.1 1.14941ZM0.8175 1.12332L0.844758 1.87282L0.8175 1.12332ZM1.29375 1.12509L1.35116 0.377293L1.29375 1.12509ZM2.08125 1.18555L2.02384 1.93335L2.08125 1.18555ZM4.66875 0.904817L4.28693 1.55035L4.66875 0.904817ZM7.70625 1.48132L7.6368 0.734541L7.70625 1.48132ZM10.6875 1.53603L10.6503 2.28511L10.6875 1.53603ZM11.4187 1.53692L11.3001 0.796368L11.4187 1.53692ZM12.2063 1.41074L12.0876 0.670185L12.2063 1.41074ZM13.3312 0.97864L13.0387 0.288042L13.3312 0.97864ZM15.9187 1.02255L15.596 1.69957L15.9187 1.02255ZM17.8312 1.27117L17.6724 0.538181L17.8312 1.27117ZM18.1687 1.20592L18.0431 0.466527L18.1687 1.20592ZM20.4187 1.13274L20.3264 0.388444L20.4187 1.13274ZM23.4562 1.19755L23.3323 1.93724L23.4562 1.19755ZM25.7062 0.949566L25.548 0.216451L25.7062 0.949566ZM27.1687 1.04346L26.9 1.74366L27.1687 1.04346ZM29.4187 1.58324L29.4118 0.833275L29.4187 1.58324ZM31.3312 1.53552L31.3008 0.786136L31.3312 1.53552ZM32.0625 1.29416L32.3511 1.98642L32.0625 1.29416ZM32.4562 1.13002L32.1677 0.437762L32.4562 1.13002ZM32.7937 1.07257L32.7366 1.82039L32.7937 1.07257ZM33.5812 1.13279L33.6384 0.384978L33.5812 1.13279ZM33.9188 1.2062L34.1719 0.500214L33.9188 1.2062ZM34.3125 1.34738L34.0594 2.05337L34.3125 1.34738ZM34.7062 1.48856L34.4531 2.19455L34.7062 1.48856ZM35.8312 1.55583L35.8259 2.30581L35.8312 1.55583ZM36.1687 1.56108L36.1507 2.31087L36.1687 1.56108ZM37.2938 1.45715L37.7446 2.05654L37.2938 1.45715ZM38.0812 0.864836L37.6304 0.265456L38.0812 0.864836ZM38.4188 0.759113L38.5122 0.0149633L38.4188 0.759113ZM39.2062 0.858055L39.1128 1.6022L39.2062 0.858055ZM39.5437 0.955948L39.8541 0.273154L39.5437 0.955948ZM40.3312 1.31384L40.0209 1.99664L40.3312 1.31384ZM40.6687 1.40166L40.6194 2.15003L40.6687 1.40166ZM41.4562 1.45355L41.5056 0.705175L41.4562 1.45355ZM42.5812 1.48661L42.5641 2.23641L42.5812 1.48661ZM42.9187 1.41973L43.2087 2.11141L42.9187 1.41973ZM43.7062 1.08959L43.4163 0.397911L43.7062 1.08959ZM44.0437 1.05434L43.8894 1.78828L44.0437 1.05434ZM44.8312 1.22L44.9856 0.486061L44.8312 1.22ZM45.1688 1.28819L45.3114 0.551885L45.1688 1.28819ZM45.9562 1.44077L45.8136 2.17708L45.9562 1.44077ZM46.2937 1.39874L46.5974 2.0845L46.2937 1.39874ZM47.0812 1.04998L46.7776 0.364223L47.0812 1.04998ZM47.4187 1.02363L47.6254 0.30267L47.4187 1.02363ZM48.2062 1.24939L47.9996 1.97035L48.2062 1.24939ZM48.5437 1.20862L48.1934 0.545468L48.5437 1.20862ZM49.3312 0.792583L49.6816 1.45573L49.3312 0.792583ZM49.6688 0.800977L50.0441 0.151652L49.6688 0.800977ZM50.4562 1.25618L50.0809 1.90551L50.4562 1.25618ZM51.5812 1.28155L51.5248 0.533681L51.5812 1.28155ZM51.9187 1.2695L51.9157 2.0195L51.9187 1.2695ZM53.0438 1.22586L53.247 1.94779L53.0438 1.22586ZM53.8312 1.00411L53.628 0.282186L53.8312 1.00411ZM54.9562 0.974771L54.942 1.72464L54.9562 0.974771ZM55.2937 1.0243L55.0952 1.74755L55.2937 1.0243ZM56.0812 1.24048L56.2798 0.517231L56.0812 1.24048ZM56.4188 1.20359L56.7505 1.87625L56.4188 1.20359ZM57.2062 0.815256L56.8745 0.142594L57.2062 0.815256ZM57.5437 0.810101L57.8586 0.129399L57.5437 0.810101ZM58.3312 1.17437L58.0164 1.85508L58.3312 1.17437ZM58.6687 1.21092L58.8479 1.93921L58.6687 1.21092ZM59.4562 1.01721L59.2771 0.288922L59.4562 1.01721ZM59.7937 1.02673L59.5767 1.74463V1.74463L59.7937 1.02673ZM60.5812 1.26484L60.7983 0.546933L60.5812 1.26484ZM60.9188 1.34245L61.0355 0.601593L60.9188 1.34245ZM61.7062 1.46655L61.5895 2.20741L61.7062 1.46655ZM61.8937 1.44158L62.5986 1.6979L61.8937 1.44158ZM61.9375 1.32128L62.6423 1.5776L62.7165 1.37354L62.6703 1.16139L61.9375 1.32128ZM61.9 1.14941V0.399414H60.9687L61.1672 1.3093L61.9 1.14941ZM0 1.14941V1.89941H0.1V1.14941V0.399414H0V1.14941ZM0.1 1.14941L0.127258 1.89892L0.844758 1.87282L0.8175 1.12332L0.790242 0.373815L0.0727419 0.39991L0.1 1.14941ZM0.8175 1.12332L0.844758 1.87282C1.04034 1.86571 1.16602 1.86749 1.23634 1.87289L1.29375 1.12509L1.35116 0.377293C1.19648 0.365418 1.00466 0.366017 0.790242 0.373815L0.8175 1.12332ZM1.29375 1.12509L1.23634 1.87289L1.63009 1.90312L1.6875 1.15532L1.74491 0.407524L1.35116 0.377293L1.29375 1.12509ZM1.6875 1.15532L1.63009 1.90312L2.02384 1.93335L2.08125 1.18555L2.13866 0.437755L1.74491 0.407524L1.6875 1.15532ZM2.08125 1.18555L2.02384 1.93335C2.14893 1.94296 2.27409 1.94939 2.39929 1.95264L2.41875 1.20289L2.43821 0.453144C2.33841 0.450553 2.23856 0.445425 2.13866 0.437755L2.08125 1.18555ZM2.41875 1.20289L2.39929 1.95264L2.79304 1.96286L2.8125 1.21311L2.83196 0.463366L2.43821 0.453144L2.41875 1.20289ZM2.8125 1.21311L2.79304 1.96286L3.18679 1.97308L3.20625 1.22334L3.22571 0.473588L2.83196 0.463366L2.8125 1.21311ZM3.20625 1.22334L3.18679 1.97308C3.40231 1.97868 3.61079 1.94032 3.80755 1.86638L3.54375 1.16431L3.27995 0.462235C3.25171 0.472847 3.23518 0.473834 3.22571 0.473588L3.20625 1.22334ZM3.54375 1.16431L3.80755 1.86638L4.2013 1.71843L3.9375 1.01636L3.6737 0.314285L3.27995 0.462235L3.54375 1.16431ZM3.9375 1.01636L4.2013 1.71843L4.59505 1.57049L4.33125 0.868411L4.06745 0.166336L3.6737 0.314285L3.9375 1.01636ZM4.33125 0.868411L4.59505 1.57049C4.54853 1.58796 4.4871 1.59877 4.41956 1.59148C4.35406 1.58442 4.30861 1.56318 4.28693 1.55035L4.66875 0.904817L5.05057 0.259284C4.76212 0.0886686 4.41304 0.0364832 4.06745 0.166336L4.33125 0.868411ZM4.66875 0.904817L4.28693 1.55035L4.68068 1.78325L5.0625 1.13771L5.44432 0.492181L5.05057 0.259284L4.66875 0.904817ZM5.0625 1.13771L4.68068 1.78325L5.07443 2.01614L5.45625 1.37061L5.83807 0.725078L5.44432 0.492181L5.0625 1.13771ZM5.45625 1.37061L5.07443 2.01614C5.26811 2.1307 5.48727 2.21115 5.72746 2.23246L5.79375 1.4854L5.86004 0.738332C5.86648 0.738904 5.86898 0.740002 5.86649 0.739157C5.86369 0.738205 5.85426 0.734651 5.83807 0.725078L5.45625 1.37061ZM5.79375 1.4854L5.72746 2.23246L6.12121 2.2674L6.1875 1.52033L6.25379 0.773269L5.86004 0.738332L5.79375 1.4854ZM6.1875 1.52033L6.12121 2.2674L6.51496 2.30234L6.58125 1.55527L6.64754 0.808206L6.25379 0.773269L6.1875 1.52033ZM6.58125 1.55527L6.51496 2.30234C6.67264 2.31633 6.83057 2.31599 6.98819 2.30133L6.91875 1.55455L6.8493 0.807773C6.78193 0.814038 6.71486 0.814179 6.64754 0.808206L6.58125 1.55527ZM6.91875 1.55455L6.98819 2.30133L7.38195 2.26471L7.3125 1.51793L7.24305 0.771157L6.8493 0.807773L6.91875 1.55455ZM7.3125 1.51793L7.38195 2.26471L7.77569 2.2281L7.70625 1.48132L7.6368 0.734541L7.24305 0.771157L7.3125 1.51793ZM7.70625 1.48132L7.77569 2.2281C8.0282 2.20462 8.25443 2.11333 8.44956 1.98778L8.04375 1.35705L7.63793 0.726326C7.62253 0.736239 7.61517 0.738852 7.61586 0.738598C7.61699 0.738183 7.62439 0.735695 7.6368 0.734541L7.70625 1.48132ZM8.04375 1.35705L8.44956 1.98778L8.84332 1.73443L8.4375 1.10371L8.03168 0.472983L7.63793 0.726326L8.04375 1.35705ZM8.4375 1.10371L8.84332 1.73443L9.23706 1.48109L8.83125 0.850365L8.42543 0.21964L8.03168 0.472983L8.4375 1.10371ZM8.83125 0.850365L9.23706 1.48109C9.1923 1.50989 9.10454 1.54978 8.98584 1.54754C8.86823 1.54532 8.78523 1.50296 8.74652 1.47659L9.16875 0.856736L9.59098 0.236879C9.43976 0.133877 9.24426 0.0521476 9.01416 0.0478034C8.78296 0.0434386 8.5827 0.118452 8.42543 0.21964L8.83125 0.850365ZM9.16875 0.856736L8.74652 1.47659L9.14027 1.7448L9.5625 1.12495L9.98473 0.505089L9.59098 0.236879L9.16875 0.856736ZM9.5625 1.12495L9.14027 1.7448L9.53402 2.01301L9.95625 1.39316L10.3785 0.773299L9.98473 0.505089L9.5625 1.12495ZM9.95625 1.39316L9.53402 2.01301C9.73668 2.15106 9.98003 2.25183 10.2566 2.26556L10.2937 1.51648L10.3309 0.767405C10.3545 0.768578 10.3724 0.773361 10.3824 0.777019C10.3917 0.780402 10.3903 0.781371 10.3785 0.773299L9.95625 1.39316ZM10.2937 1.51648L10.2566 2.26556L10.6503 2.28511L10.6875 1.53603L10.7247 0.786955L10.3309 0.767405L10.2937 1.51648ZM10.6875 1.53603L10.6503 2.28511L11.0441 2.30466L11.0813 1.55558L11.1184 0.806505L10.7247 0.786955L10.6875 1.53603ZM11.0813 1.55558L11.0441 2.30466C11.2093 2.31286 11.374 2.30366 11.5374 2.27748L11.4187 1.53692L11.3001 0.796368C11.2385 0.806236 11.1782 0.809474 11.1184 0.806505L11.0813 1.55558ZM11.4187 1.53692L11.5374 2.27748L11.9312 2.21438L11.8125 1.47383L11.6938 0.733276L11.3001 0.796368L11.4187 1.53692ZM11.8125 1.47383L11.9312 2.21438L12.3249 2.15129L12.2063 1.41074L12.0876 0.670185L11.6938 0.733276L11.8125 1.47383ZM12.2063 1.41074L12.3249 2.15129C12.5013 2.12303 12.6721 2.07238 12.8363 2.00282L12.5437 1.31222L12.2512 0.62162C12.1904 0.647363 12.1362 0.662398 12.0876 0.670185L12.2063 1.41074ZM12.5437 1.31222L12.8363 2.00282L13.23 1.83603L12.9375 1.14543L12.645 0.454831L12.2512 0.62162L12.5437 1.31222ZM12.9375 1.14543L13.23 1.83603L13.6238 1.66924L13.3312 0.97864L13.0387 0.288042L12.645 0.454831L12.9375 1.14543ZM13.3312 0.97864L13.6238 1.66924C13.5787 1.68833 13.515 1.70293 13.4417 1.69721C13.37 1.69162 13.3188 1.669 13.2926 1.65385L13.6687 1.00497L14.0449 0.356098C13.7437 0.181527 13.384 0.141774 13.0387 0.288042L13.3312 0.97864ZM13.6687 1.00497L13.2926 1.65385L13.6864 1.88208L14.0625 1.23321L14.4386 0.584331L14.0449 0.356098L13.6687 1.00497ZM14.0625 1.23321L13.6864 1.88208L14.0801 2.11031L14.4562 1.46144L14.8324 0.812563L14.4386 0.584331L14.0625 1.23321ZM14.4562 1.46144L14.0801 2.11031C14.4161 2.30503 14.808 2.3143 15.1545 2.12424L14.7937 1.46668L14.433 0.809123C14.4745 0.786352 14.5455 0.760331 14.6366 0.761747C14.7273 0.763155 14.7952 0.791012 14.8324 0.812563L14.4562 1.46144ZM14.7937 1.46668L15.1545 2.12424L15.5482 1.90824L15.1875 1.25068L14.8268 0.593124L14.433 0.809123L14.7937 1.46668ZM15.1875 1.25068L15.5482 1.90824L15.942 1.69224L15.5812 1.03468L15.2205 0.377126L14.8268 0.593124L15.1875 1.25068ZM15.5812 1.03468L15.942 1.69224C15.9101 1.70974 15.853 1.73215 15.7769 1.73488C15.7 1.73765 15.6369 1.71906 15.596 1.69957L15.9187 1.02255L16.2415 0.345537C15.9038 0.184558 15.5371 0.203489 15.2205 0.377126L15.5812 1.03468ZM15.9187 1.02255L15.596 1.69957L15.9898 1.88726L16.3125 1.21025L16.6352 0.53323L16.2415 0.345537L15.9187 1.02255ZM16.3125 1.21025L15.9898 1.88726L16.3835 2.07496L16.7062 1.39794L17.029 0.720923L16.6352 0.53323L16.3125 1.21025ZM16.7062 1.39794L16.3835 2.07496C16.6327 2.19375 16.9141 2.23732 17.2026 2.1748L17.0438 1.44181L16.8849 0.708824C16.9113 0.703099 16.9415 0.701464 16.9717 0.705386C17.0012 0.709217 17.0209 0.717053 17.029 0.720923L16.7062 1.39794ZM17.0438 1.44181L17.2026 2.1748L17.5963 2.08948L17.4375 1.35649L17.2787 0.623503L16.8849 0.708824L17.0438 1.44181ZM17.4375 1.35649L17.5963 2.08948L17.9901 2.00416L17.8312 1.27117L17.6724 0.538181L17.2787 0.623503L17.4375 1.35649ZM17.8312 1.27117L17.9901 2.00416C18.0917 1.98215 18.1931 1.96254 18.2944 1.94532L18.1687 1.20592L18.0431 0.466527C17.9194 0.48755 17.7958 0.51144 17.6724 0.538181L17.8312 1.27117ZM18.1687 1.20592L18.2944 1.94532L18.6882 1.8784L18.5625 1.139L18.4368 0.399607L18.0431 0.466527L18.1687 1.20592ZM18.5625 1.139L18.6882 1.8784L19.0819 1.81148L18.9562 1.07208L18.8306 0.332686L18.4368 0.399607L18.5625 1.139ZM18.9562 1.07208L19.0819 1.81148C19.1294 1.80341 19.175 1.8019 19.2206 1.80637L19.2937 1.05994L19.3669 0.31352C19.1875 0.295934 19.0081 0.302513 18.8306 0.332686L18.9562 1.07208ZM19.2937 1.05994L19.2206 1.80637L19.6143 1.84496L19.6875 1.09854L19.7607 0.352114L19.3669 0.31352L19.2937 1.05994ZM19.6875 1.09854L19.6143 1.84496L20.0081 1.88355L20.0812 1.13713L20.1544 0.390707L19.7607 0.352114L19.6875 1.09854ZM20.0812 1.13713L20.0081 1.88355C20.1758 1.89999 20.3438 1.89778 20.5111 1.87704L20.4187 1.13274L20.3264 0.388444C20.2687 0.395606 20.2117 0.396321 20.1544 0.390707L20.0812 1.13713ZM20.4187 1.13274L20.5111 1.87704L20.9048 1.82821L20.8125 1.08391L20.7202 0.339612L20.3264 0.388444L20.4187 1.13274ZM20.8125 1.08391L20.9048 1.82821L21.2986 1.77938L21.2062 1.03508L21.1139 0.29078L20.7202 0.339612L20.8125 1.08391ZM21.2062 1.03508L21.2986 1.77938C21.3756 1.76982 21.4521 1.7659 21.5283 1.76746L21.5437 1.01762L21.5592 0.267782C21.4104 0.26472 21.2619 0.27243 21.1139 0.29078L21.2062 1.03508ZM21.5437 1.01762L21.5283 1.76746L21.9221 1.77557L21.9375 1.02573L21.9529 0.275885L21.5592 0.267782L21.5437 1.01762ZM21.9375 1.02573L21.9221 1.77557L22.3158 1.78367L22.3312 1.03383L22.3467 0.283989L21.9529 0.275885L21.9375 1.02573ZM22.3312 1.03383L22.3158 1.78367C22.3914 1.78523 22.4677 1.79235 22.5448 1.80527L22.6688 1.06558L22.7927 0.325898C22.6448 0.301114 22.4961 0.287063 22.3467 0.283989L22.3312 1.03383ZM22.6688 1.06558L22.5448 1.80527L22.9385 1.87125L23.0625 1.13157L23.1865 0.391884L22.7927 0.325898L22.6688 1.06558ZM23.0625 1.13157L22.9385 1.87125L23.3323 1.93724L23.4562 1.19755L23.5802 0.45787L23.1865 0.391884L23.0625 1.13157ZM23.4562 1.19755L23.3323 1.93724C23.5004 1.96541 23.6701 1.97448 23.8402 1.96391L23.7937 1.21536L23.7473 0.466798C23.6924 0.470204 23.6371 0.467403 23.5802 0.45787L23.4562 1.19755ZM23.7937 1.21536L23.8402 1.96391L24.234 1.93946L24.1875 1.19091L24.141 0.442348L23.7473 0.466798L23.7937 1.21536ZM24.1875 1.19091L24.234 1.93946L24.6277 1.91501L24.5812 1.16646L24.5348 0.417898L24.141 0.442348L24.1875 1.19091ZM24.5812 1.16646L24.6277 1.91501C24.7786 1.90565 24.9285 1.88473 25.077 1.85267L24.9187 1.11955L24.7605 0.386437C24.684 0.402941 24.6089 0.413295 24.5348 0.417898L24.5812 1.16646ZM24.9187 1.11955L25.077 1.85267L25.4707 1.76767L25.3125 1.03456L25.1543 0.301444L24.7605 0.386437L24.9187 1.11955ZM25.3125 1.03456L25.4707 1.76767L25.8645 1.68268L25.7062 0.949566L25.548 0.216451L25.1543 0.301444L25.3125 1.03456ZM25.7062 0.949566L25.8645 1.68268C25.9121 1.6724 25.9567 1.66918 26.0001 1.6717L26.0437 0.922974L26.0874 0.174244C25.9058 0.16366 25.7254 0.178168 25.548 0.216451L25.7062 0.949566ZM26.0437 0.922974L26.0001 1.6717L26.3939 1.69465L26.4375 0.945918L26.4811 0.197188L26.0874 0.174244L26.0437 0.922974ZM26.4375 0.945918L26.3939 1.69465L26.7876 1.71759L26.8312 0.968862L26.8749 0.220132L26.4811 0.197188L26.4375 0.945918ZM26.8312 0.968862L26.7876 1.71759C26.8179 1.71935 26.8546 1.72624 26.9 1.74366L27.1687 1.04346L27.4375 0.343255C27.2579 0.274332 27.0696 0.231481 26.8749 0.220132L26.8312 0.968862ZM27.1687 1.04346L26.9 1.74366L27.2938 1.89478L27.5625 1.19457L27.8312 0.494371L27.4375 0.343255L27.1687 1.04346ZM27.5625 1.19457L27.2938 1.89478L27.6875 2.04589L27.9562 1.34569L28.225 0.645486L27.8312 0.494371L27.5625 1.19457ZM27.9562 1.34569L27.6875 2.04589C27.8468 2.10703 28.0108 2.15171 28.1789 2.17776L28.2938 1.43661L28.4086 0.695455C28.3517 0.686631 28.2907 0.6707 28.225 0.645486L27.9562 1.34569ZM28.2938 1.43661L28.1789 2.17776L28.5726 2.23878L28.6875 1.49763L28.8024 0.756478L28.4086 0.695455L28.2938 1.43661ZM28.6875 1.49763L28.5726 2.23878L28.9664 2.29981L29.0812 1.55865L29.1961 0.817501L28.8024 0.756478L28.6875 1.49763ZM29.0812 1.55865L28.9664 2.29981C29.1187 2.32341 29.2719 2.33464 29.4257 2.33321L29.4187 1.58324L29.4118 0.833275C29.3406 0.833935 29.2688 0.828766 29.1961 0.817501L29.0812 1.55865ZM29.4187 1.58324L29.4257 2.33321L29.8194 2.32956L29.8125 1.57959L29.8056 0.829627L29.4118 0.833275L29.4187 1.58324ZM29.8125 1.57959L29.8194 2.32956L30.2132 2.32591L30.2062 1.57595L30.1993 0.825979L29.8056 0.829627L29.8125 1.57959ZM30.2062 1.57595L30.2132 2.32591C30.3335 2.3248 30.4539 2.3218 30.5742 2.31691L30.5437 1.56752L30.5133 0.818143C30.4086 0.822398 30.304 0.825009 30.1993 0.825979L30.2062 1.57595ZM30.5437 1.56752L30.5742 2.31691L30.968 2.3009L30.9375 1.55152L30.907 0.80214L30.5133 0.818143L30.5437 1.56752ZM30.9375 1.55152L30.968 2.3009L31.3617 2.2849L31.3312 1.53552L31.3008 0.786136L30.907 0.80214L30.9375 1.55152ZM31.3312 1.53552L31.3617 2.2849C31.57 2.27643 31.7696 2.22881 31.9573 2.15057L31.6687 1.45831L31.3802 0.766055C31.3429 0.781606 31.3175 0.785458 31.3008 0.786136L31.3312 1.53552ZM31.6687 1.45831L31.9573 2.15057L32.3511 1.98642L32.0625 1.29416L31.7739 0.601908L31.3802 0.766055L31.6687 1.45831ZM32.0625 1.29416L32.3511 1.98642L32.7448 1.82227L32.4562 1.13002L32.1677 0.437762L31.7739 0.601908L32.0625 1.29416ZM32.4562 1.13002L32.7448 1.82227C32.7523 1.81915 32.7541 1.81929 32.7508 1.81985C32.7474 1.82044 32.7421 1.82082 32.7366 1.82039L32.7937 1.07257L32.8509 0.324756C32.6111 0.306415 32.3805 0.349052 32.1677 0.437762L32.4562 1.13002ZM32.7937 1.07257L32.7366 1.82039L33.1303 1.8505L33.1875 1.10268L33.2447 0.354867L32.8509 0.324756L32.7937 1.07257ZM33.1875 1.10268L33.1303 1.8505L33.5241 1.88061L33.5812 1.13279L33.6384 0.384978L33.2447 0.354867L33.1875 1.10268ZM33.5812 1.13279L33.5241 1.88061C33.5658 1.8838 33.6125 1.89316 33.6656 1.9122L33.9188 1.2062L34.1719 0.500214C34 0.438573 33.8217 0.39899 33.6384 0.384978L33.5812 1.13279ZM33.9188 1.2062L33.6656 1.9122L34.0594 2.05337L34.3125 1.34738L34.5656 0.641393L34.1719 0.500214L33.9188 1.2062ZM34.3125 1.34738L34.0594 2.05337L34.4531 2.19455L34.7062 1.48856L34.9594 0.782573L34.5656 0.641393L34.3125 1.34738ZM34.7062 1.48856L34.4531 2.19455C34.6402 2.26162 34.8363 2.29881 35.0384 2.30024L35.0437 1.55026L35.0491 0.800282C35.0262 0.80012 34.9973 0.796177 34.9594 0.782573L34.7062 1.48856ZM35.0437 1.55026L35.0384 2.30024L35.4322 2.30303L35.4375 1.55305L35.4428 0.803066L35.0491 0.800282L35.0437 1.55026ZM35.4375 1.55305L35.4322 2.30303L35.8259 2.30581L35.8312 1.55583L35.8366 0.805851L35.4428 0.803066L35.4375 1.55305ZM35.8312 1.55583L35.8259 2.30581C35.9342 2.30658 36.0425 2.30826 36.1507 2.31087L36.1687 1.56108L36.1868 0.811301C36.07 0.808494 35.9533 0.806677 35.8366 0.805851L35.8312 1.55583ZM36.1687 1.56108L36.1507 2.31087L36.5445 2.32034L36.5625 1.57055L36.5805 0.82077L36.1868 0.811301L36.1687 1.56108ZM36.5625 1.57055L36.5445 2.32034L36.9382 2.32981L36.9562 1.58002L36.9743 0.830239L36.5805 0.82077L36.5625 1.57055ZM36.9562 1.58002L36.9382 2.32981C37.2582 2.3375 37.5317 2.21661 37.7446 2.05654L37.2938 1.45715L36.8429 0.857774C36.8358 0.863168 36.8441 0.855437 36.8684 0.846583C36.8944 0.837119 36.9311 0.829201 36.9743 0.830239L36.9562 1.58002ZM37.2938 1.45715L37.7446 2.05654L38.1383 1.76038L37.6875 1.161L37.2367 0.561615L36.8429 0.857774L37.2938 1.45715ZM37.6875 1.161L38.1383 1.76038L38.5321 1.46422L38.0812 0.864836L37.6304 0.265456L37.2367 0.561615L37.6875 1.161ZM38.0812 0.864836L38.5321 1.46422C38.5329 1.46361 38.5137 1.47828 38.4742 1.49065C38.432 1.50387 38.38 1.51014 38.3253 1.50326L38.4188 0.759113L38.5122 0.0149633C38.1622 -0.0290151 37.859 0.0935071 37.6304 0.265456L38.0812 0.864836ZM38.4188 0.759113L38.3253 1.50326L38.719 1.55273L38.8125 0.808584L38.906 0.0644342L38.5122 0.0149633L38.4188 0.759113ZM38.8125 0.808584L38.719 1.55273L39.1128 1.6022L39.2062 0.858055L39.2997 0.113905L38.906 0.0644342L38.8125 0.808584ZM39.2062 0.858055L39.1128 1.6022C39.1439 1.60612 39.1836 1.61608 39.2334 1.63874L39.5437 0.955948L39.8541 0.273154C39.6789 0.193566 39.4936 0.138262 39.2997 0.113905L39.2062 0.858055ZM39.5437 0.955948L39.2334 1.63874L39.6272 1.81769L39.9375 1.1349L40.2478 0.452102L39.8541 0.273154L39.5437 0.955948ZM39.9375 1.1349L39.6272 1.81769L40.0209 1.99664L40.3312 1.31384L40.6416 0.63105L40.2478 0.452102L39.9375 1.1349ZM40.3312 1.31384L40.0209 1.99664C40.2079 2.08159 40.4084 2.13613 40.6194 2.15003L40.6687 1.40166L40.7181 0.65328C40.7041 0.652359 40.6796 0.648356 40.6416 0.63105L40.3312 1.31384ZM40.6687 1.40166L40.6194 2.15003L41.0132 2.17598L41.0625 1.4276L41.1118 0.679228L40.7181 0.65328L40.6687 1.40166ZM41.0625 1.4276L41.0132 2.17598L41.4069 2.20193L41.4562 1.45355L41.5056 0.705175L41.1118 0.679228L41.0625 1.4276ZM41.4562 1.45355L41.4069 2.20193C41.5301 2.21005 41.6533 2.21552 41.7766 2.21835L41.7938 1.46854L41.8109 0.71874C41.7092 0.716406 41.6074 0.711886 41.5056 0.705175L41.4562 1.45355ZM41.7938 1.46854L41.7766 2.21835L42.1703 2.22738L42.1875 1.47757L42.2047 0.727771L41.8109 0.71874L41.7938 1.46854ZM42.1875 1.47757L42.1703 2.22738L42.5641 2.23641L42.5812 1.48661L42.5984 0.736803L42.2047 0.727771L42.1875 1.47757ZM42.5812 1.48661L42.5641 2.23641C42.7905 2.2416 43.0073 2.19584 43.2087 2.11141L42.9187 1.41973L42.6288 0.728054C42.6161 0.733386 42.608 0.735372 42.6042 0.736126C42.6006 0.736846 42.599 0.736815 42.5984 0.736803L42.5812 1.48661ZM42.9187 1.41973L43.2087 2.11141L43.6025 1.94634L43.3125 1.25466L43.0225 0.562983L42.6288 0.728054L42.9187 1.41973ZM43.3125 1.25466L43.6025 1.94634L43.9962 1.78126L43.7062 1.08959L43.4163 0.397911L43.0225 0.562983L43.3125 1.25466ZM43.7062 1.08959L43.9962 1.78126C43.9901 1.78383 43.9751 1.78903 43.9529 1.79135C43.9303 1.79371 43.9082 1.79224 43.8894 1.78828L44.0437 1.05434L44.1981 0.320403C43.9273 0.263437 43.6601 0.295686 43.4163 0.397911L43.7062 1.08959ZM44.0437 1.05434L43.8894 1.78828L44.2831 1.87111L44.4375 1.13717L44.5919 0.403232L44.1981 0.320403L44.0437 1.05434ZM44.4375 1.13717L44.2831 1.87111L44.6769 1.95394L44.8312 1.22L44.9856 0.486061L44.5919 0.403232L44.4375 1.13717ZM44.8312 1.22L44.6769 1.95394C44.7933 1.97842 44.9097 2.00194 45.0261 2.0245L45.1688 1.28819L45.3114 0.551885C45.2028 0.530849 45.0942 0.508907 44.9856 0.486061L44.8312 1.22ZM45.1688 1.28819L45.0261 2.0245L45.4198 2.10079L45.5625 1.36448L45.7052 0.628175L45.3114 0.551885L45.1688 1.28819ZM45.5625 1.36448L45.4198 2.10079L45.8136 2.17708L45.9562 1.44077L46.0989 0.704465L45.7052 0.628175L45.5625 1.36448ZM45.9562 1.44077L45.8136 2.17708C46.0878 2.23021 46.3557 2.19156 46.5974 2.0845L46.2937 1.39874L45.9901 0.712973C45.9952 0.710692 46.0098 0.705163 46.0323 0.702361C46.0553 0.699498 46.0785 0.700503 46.0989 0.704465L45.9562 1.44077ZM46.2937 1.39874L46.5974 2.0845L46.9912 1.91012L46.6875 1.22436L46.3838 0.538598L45.9901 0.712973L46.2937 1.39874ZM46.6875 1.22436L46.9912 1.91012L47.3849 1.73575L47.0812 1.04998L46.7776 0.364223L46.3838 0.538598L46.6875 1.22436ZM47.0812 1.04998L47.3849 1.73575C47.3705 1.74213 47.3441 1.75096 47.3084 1.75375C47.2721 1.75659 47.2386 1.7522 47.2121 1.74459L47.4187 1.02363L47.6254 0.30267C47.3348 0.219345 47.0419 0.247174 46.7776 0.364223L47.0812 1.04998ZM47.4187 1.02363L47.2121 1.74459L47.6058 1.85747L47.8125 1.13651L48.0192 0.41555L47.6254 0.30267L47.4187 1.02363ZM47.8125 1.13651L47.6058 1.85747L47.9996 1.97035L48.2062 1.24939L48.4129 0.528429L48.0192 0.41555L47.8125 1.13651ZM48.2062 1.24939L47.9996 1.97035C48.3153 2.06086 48.6267 2.01302 48.8941 1.87176L48.5437 1.20862L48.1934 0.545468C48.2083 0.537578 48.2398 0.524268 48.285 0.518797C48.3315 0.513181 48.3761 0.51787 48.4129 0.528429L48.2062 1.24939ZM48.5437 1.20862L48.8941 1.87176L49.2878 1.66375L48.9375 1.0006L48.5872 0.337452L48.1934 0.545468L48.5437 1.20862ZM48.9375 1.0006L49.2878 1.66375L49.6816 1.45573L49.3312 0.792583L48.9809 0.129436L48.5872 0.337452L48.9375 1.0006ZM49.3312 0.792583L49.6816 1.45573C49.6394 1.47804 49.5695 1.50207 49.4813 1.49987C49.394 1.4977 49.3288 1.47079 49.2934 1.4503L49.6688 0.800977L50.0441 0.151652C49.714 -0.039168 49.3274 -0.053625 48.9809 0.129436L49.3312 0.792583ZM49.6688 0.800977L49.2934 1.4503L49.6872 1.67791L50.0625 1.02858L50.4378 0.379255L50.0441 0.151652L49.6688 0.800977ZM50.0625 1.02858L49.6872 1.67791L50.0809 1.90551L50.4562 1.25618L50.8316 0.606858L50.4378 0.379255L50.0625 1.02858ZM50.4562 1.25618L50.0809 1.90551C50.3037 2.03429 50.5652 2.11037 50.8502 2.08886L50.7937 1.34099L50.7373 0.593118C50.7636 0.591131 50.7881 0.593834 50.8078 0.59877C50.8266 0.603493 50.8347 0.608665 50.8316 0.606858L50.4562 1.25618ZM50.7937 1.34099L50.8502 2.08886L51.2439 2.05915L51.1875 1.31127L51.1311 0.5634L50.7373 0.593118L50.7937 1.34099ZM51.1875 1.31127L51.2439 2.05915L51.6377 2.02943L51.5812 1.28155L51.5248 0.533681L51.1311 0.5634L51.1875 1.31127ZM51.5812 1.28155L51.6377 2.02943C51.7305 2.02243 51.8231 2.01912 51.9157 2.0195L51.9187 1.2695L51.9218 0.519508C51.7894 0.518971 51.657 0.523701 51.5248 0.533681L51.5812 1.28155ZM51.9187 1.2695L51.9157 2.0195L52.3095 2.02109L52.3125 1.2711L52.3155 0.521105L51.9218 0.519508L51.9187 1.2695ZM52.3125 1.2711L52.3095 2.02109L52.7032 2.02269L52.7062 1.2727L52.7093 0.522702L52.3155 0.521105L52.3125 1.2711ZM52.7062 1.2727L52.7032 2.02269C52.8881 2.02344 53.07 1.99763 53.247 1.94779L53.0438 1.22586L52.8405 0.503938C52.7925 0.51745 52.7494 0.522864 52.7093 0.522702L52.7062 1.2727ZM53.0438 1.22586L53.247 1.94779L53.6408 1.83691L53.4375 1.11499L53.2342 0.393062L52.8405 0.503938L53.0438 1.22586ZM53.4375 1.11499L53.6408 1.83691L54.0345 1.72603L53.8312 1.00411L53.628 0.282186L53.2342 0.393062L53.4375 1.11499ZM53.8312 1.00411L54.0345 1.72603C54.079 1.7135 54.1183 1.70898 54.1545 1.70966L54.1687 0.9598L54.183 0.209936C53.9942 0.206346 53.8085 0.23136 53.628 0.282186L53.8312 1.00411ZM54.1687 0.9598L54.1545 1.70966L54.5482 1.71715L54.5625 0.967286L54.5768 0.217421L54.183 0.209936L54.1687 0.9598ZM54.5625 0.967286L54.5482 1.71715L54.942 1.72464L54.9562 0.974771L54.9705 0.224907L54.5768 0.217421L54.5625 0.967286ZM54.9562 0.974771L54.942 1.72464C54.9899 1.72555 55.0406 1.73255 55.0952 1.74755L55.2937 1.0243L55.4923 0.301057C55.3219 0.254291 55.1476 0.228273 54.9705 0.224907L54.9562 0.974771ZM55.2937 1.0243L55.0952 1.74755L55.489 1.85563L55.6875 1.13239L55.886 0.409144L55.4923 0.301057L55.2937 1.0243ZM55.6875 1.13239L55.489 1.85563L55.8827 1.96372L56.0812 1.24048L56.2798 0.517231L55.886 0.409144L55.6875 1.13239ZM56.0812 1.24048L55.8827 1.96372C56.1861 2.04701 56.4868 2.00626 56.7505 1.87625L56.4188 1.20359L56.087 0.530923C56.1008 0.524124 56.1288 0.513193 56.1685 0.508855C56.2091 0.504421 56.2478 0.508449 56.2798 0.517231L56.0812 1.24048ZM56.4188 1.20359L56.7505 1.87625L57.1442 1.68208L56.8125 1.00942L56.4808 0.336759L56.087 0.530923L56.4188 1.20359ZM56.8125 1.00942L57.1442 1.68208L57.5379 1.48792L57.2062 0.815256L56.8745 0.142594L56.4808 0.336759L56.8125 1.00942ZM57.2062 0.815256L57.5379 1.48792C57.506 1.50365 57.4535 1.52125 57.3865 1.52227C57.3191 1.5233 57.2643 1.50719 57.2289 1.4908L57.5437 0.810101L57.8586 0.129399C57.5376 -0.019094 57.1875 -0.0117081 56.8745 0.142594L57.2062 0.815256ZM57.5437 0.810101L57.2289 1.4908L57.6226 1.67294L57.9375 0.992237L58.2524 0.311535L57.8586 0.129399L57.5437 0.810101ZM57.9375 0.992237L57.6226 1.67294L58.0164 1.85508L58.3312 1.17437L58.6461 0.493671L58.2524 0.311535L57.9375 0.992237ZM58.3312 1.17437L58.0164 1.85508C58.2718 1.97322 58.5581 2.01049 58.8479 1.93921L58.6687 1.21092L58.4896 0.482632C58.5163 0.476077 58.5479 0.473346 58.5807 0.476899C58.6129 0.480382 58.6354 0.488715 58.6461 0.493671L58.3312 1.17437ZM58.6687 1.21092L58.8479 1.93921L59.2416 1.84236L59.0625 1.11407L58.8834 0.385777L58.4896 0.482632L58.6687 1.21092ZM59.0625 1.11407L59.2416 1.84236L59.6354 1.7455L59.4562 1.01721L59.2771 0.288922L58.8834 0.385777L59.0625 1.11407ZM59.4562 1.01721L59.6354 1.7455C59.6281 1.7473 59.617 1.74891 59.6039 1.74854C59.5908 1.74817 59.5812 1.746 59.5767 1.74463L59.7937 1.02673L60.0108 0.308824C59.7715 0.236473 59.5222 0.228635 59.2771 0.288922L59.4562 1.01721ZM59.7937 1.02673L59.5767 1.74463L59.9704 1.86368L60.1875 1.14578L60.4046 0.427879L60.0108 0.308824L59.7937 1.02673ZM60.1875 1.14578L59.9704 1.86368L60.3642 1.98274L60.5812 1.26484L60.7983 0.546933L60.4046 0.427879L60.1875 1.14578ZM60.5812 1.26484L60.3642 1.98274C60.5085 2.02638 60.6545 2.06007 60.802 2.08331L60.9188 1.34245L61.0355 0.601593C60.958 0.589379 60.879 0.571326 60.7983 0.546933L60.5812 1.26484ZM60.9188 1.34245L60.802 2.08331L61.1958 2.14536L61.3125 1.4045L61.4292 0.663642L61.0355 0.601593L60.9188 1.34245ZM61.3125 1.4045L61.1958 2.14536L61.5895 2.20741L61.7062 1.46655L61.823 0.72569L61.4292 0.663642L61.3125 1.4045ZM61.7062 1.46655L61.5895 2.20741C61.6695 2.22002 61.7978 2.23551 61.9365 2.21704C62.036 2.20379 62.4417 2.12927 62.5986 1.6979L61.8937 1.44158L61.1889 1.18526C61.2572 0.997511 61.3879 0.876764 61.504 0.810687C61.6078 0.751562 61.6987 0.735461 61.7385 0.730164C61.8147 0.720017 61.8555 0.730806 61.823 0.72569L61.7062 1.46655ZM61.8937 1.44158L62.5986 1.6979L62.6423 1.5776L61.9375 1.32128L61.2327 1.06495L61.1889 1.18526L61.8937 1.44158ZM61.9375 1.32128L62.6703 1.16139L62.6328 0.989528L61.9 1.14941L61.1672 1.3093L61.2047 1.48116L61.9375 1.32128ZM61.9 1.14941V1.89941H62V1.14941V0.399414H61.9V1.14941Z" fill="url(#paint0_linear_7055_4935)"/>
<defs>
<linearGradient id="paint0_linear_7055_4935" x1="0" y1="1.64941" x2="62" y2="1.64941" gradientUnits="userSpaceOnUse">
<stop stop-color="#B4B326"/>
<stop offset="0.5" stop-color="#1D1EE3"/>
<stop offset="1" stop-color="#B4B326"/>
</linearGradient>
</defs>
</svg>
