<svg width="254" height="93" viewBox="0 0 254 93" fill="none" xmlns="http://www.w3.org/2000/svg">
<path d="M233.226 0C244.698 0 253.999 11.1086 253.999 24.8115C253.999 33.8384 249.962 41.738 243.928 46.0791C249.963 50.4201 253.999 58.3213 253.999 67.3486C253.999 81.0513 244.698 92.1592 233.226 92.1592C225.019 92.159 217.926 86.4755 214.551 78.2246H39.4482C36.0733 86.4756 28.9798 92.1592 20.7734 92.1592C9.30069 92.1591 0.000189018 81.0513 0 67.3486C0 59.7713 2.8446 52.9876 7.32715 48.4365V43.7217C2.84501 39.1707 0.000100699 32.3884 0 24.8115C0 11.1087 9.30058 4.92503e-05 20.7734 0C29.628 0 37.187 6.61708 40.1768 15.9365H213.822C216.812 6.61723 224.371 0.000197649 233.226 0Z" fill="#A96E46"/>
</svg>
