<svg width="24" height="24" viewBox="0 0 24 24" fill="none" xmlns="http://www.w3.org/2000/svg">
<path d="M21.25 14.8503C18.94 18.4803 15.56 20.5703 12 20.5703C10.22 20.5703 8.49 20.0503 6.91 19.0803C5.33 18.1003 3.91 16.6703 2.75 14.8503C1.75 13.2803 1.75 10.7303 2.75 9.16031C5.06 5.52031 8.44 3.44031 12 3.44031C13.78 3.44031 15.51 3.96031 17.09 4.93031C18.67 5.91031 20.09 7.34031 21.25 9.16031C22.25 10.7203 22.25 13.2803 21.25 14.8503ZM12 7.96031C9.76 7.96031 7.96 9.77031 7.96 12.0003C7.96 14.2303 9.76 16.0403 12 16.0403C14.24 16.0403 16.04 14.2303 16.04 12.0003C16.04 9.77031 14.24 7.96031 12 7.96031Z" fill="white"/>
<path d="M12 14.8604C10.43 14.8604 9.15002 13.5804 9.15002 12.0004C9.15002 10.4304 10.43 9.15035 12 9.15035C13.57 9.15035 14.86 10.4304 14.86 12.0004C14.86 13.5704 13.57 14.8604 12 14.8604Z" fill="white"/>
</svg>
