<svg width="155" height="26" viewBox="0 0 155 26" fill="none" xmlns="http://www.w3.org/2000/svg">
<path d="M153.689 15.7264C154.239 15.6771 154.645 15.1913 154.596 14.6412L153.793 5.67706C153.744 5.12697 153.258 4.72097 152.708 4.77023C152.158 4.81949 151.752 5.30535 151.801 5.85544L152.515 13.8236L144.547 14.5371C143.996 14.5863 143.59 15.0722 143.64 15.6223C143.689 16.1724 144.175 16.5784 144.725 16.5291L153.689 15.7264ZM0.481186 14.7304L-1.2219e-06 15.607C0.621071 15.9479 1.23915 16.2792 1.85429 16.6011L2.31793 15.7151L2.78157 14.8291C2.17832 14.5134 1.57194 14.1884 0.962373 13.8538L0.481186 14.7304ZM5.93695 17.5163L5.51012 18.4207C6.7811 19.0206 8.03939 19.5801 9.28539 20.101L9.67108 19.1784L10.0568 18.2557C8.83899 17.7467 7.60813 17.1993 6.36379 16.612L5.93695 17.5163ZM13.4169 20.6413L13.0757 21.5813C14.3987 22.0615 15.7077 22.4981 17.0032 22.8931L17.2949 21.9366L17.5866 20.9801C16.3248 20.5953 15.0488 20.1697 13.758 19.7013L13.4169 20.6413ZM21.2126 23.0155L20.974 23.9866C22.3226 24.318 23.6564 24.6047 24.9759 24.8493L25.1582 23.866L25.3404 22.8828C24.0589 22.6452 22.7626 22.3666 21.4511 22.0444L21.2126 23.0155ZM29.1837 24.4878L29.0611 25.4803C30.4477 25.6516 31.8182 25.7772 33.1736 25.8603L33.2348 24.8621L33.296 23.864C31.9814 23.7834 30.6517 23.6616 29.3063 23.4954L29.1837 24.4878ZM37.2883 24.9851L37.2889 25.9851C38.6749 25.9844 40.0449 25.9406 41.3995 25.8575L41.3382 24.8594L41.277 23.8613C39.9619 23.942 38.6325 23.9844 37.2878 23.9851L37.2883 24.9851ZM45.3861 24.4903L45.5059 25.4831C46.8801 25.3173 48.2385 25.1131 49.5821 24.8747L49.4074 23.89L49.2327 22.9054C47.924 23.1377 46.6022 23.3363 45.2662 23.4975L45.3861 24.4903ZM53.3871 23.0766L53.612 24.051C54.9524 23.7416 56.2784 23.401 57.5909 23.0335L57.3213 22.0705L57.0517 21.1076C55.7669 21.4673 54.4708 21.8002 53.1622 22.1022L53.3871 23.0766ZM61.2082 20.8946L61.5167 21.8459C62.82 21.4232 64.1107 20.9775 65.3897 20.5132L65.0485 19.5732L64.7073 18.6332C63.4479 19.0904 62.1791 19.5285 60.8997 19.9434L61.2082 20.8946ZM68.8487 18.13L69.2165 19.0599C70.4876 18.5572 71.7481 18.0401 72.999 17.5132L72.6109 16.5916L72.2227 15.67C70.9832 16.1921 69.7364 16.7036 68.4809 17.2001L68.8487 18.13ZM76.3432 14.983L76.7455 15.8985C77.9936 15.35 79.2334 14.7961 80.4655 14.2417L80.0552 13.3298L79.6449 12.4178C78.4158 12.9708 77.1817 13.5222 75.9408 14.0676L76.3432 14.983ZM83.7576 11.6577L84.1694 12.569C85.4087 12.009 86.641 11.4536 87.8686 10.9073L87.4621 9.99368L87.0555 9.08005C85.8225 9.62875 84.5859 10.186 83.3458 10.7464L83.7576 11.6577ZM91.1827 8.36527L91.5767 9.28435C92.825 8.74913 94.0688 8.22904 95.3098 7.72917L94.9362 6.80159L94.5626 5.874C93.3053 6.38041 92.0477 6.90633 90.7886 7.4462L91.1827 8.36527ZM98.7293 5.33911L99.0736 6.27797C100.343 5.81253 101.61 5.37414 102.877 4.96829L102.572 4.01596L102.267 3.06363C100.971 3.47889 99.677 3.92645 98.385 4.40024L98.7293 5.33911ZM106.471 2.87437L106.726 3.84131C108.022 3.49932 109.32 3.19735 110.62 2.94119L110.427 1.96004L110.234 0.978902C108.889 1.24389 107.55 1.55559 106.216 1.90742L106.471 2.87437ZM114.436 1.32015L114.556 2.31292C115.872 2.15383 117.192 2.04708 118.518 1.99859L118.481 0.999259L118.445 -7.28369e-05C117.06 0.0505646 115.684 0.16195 114.316 0.327384L114.436 1.32015ZM122.539 1.03356L122.484 2.03208C123.79 2.10317 125.104 2.23521 126.428 2.43388L126.577 1.44495L126.725 0.456024C125.338 0.247808 123.961 0.109482 122.593 0.0350398L122.539 1.03356ZM130.562 2.23765L130.321 3.2082C131.584 3.52149 132.857 3.89858 134.142 4.34439L134.469 3.39963L134.797 2.45486C133.456 1.98942 132.125 1.59508 130.803 1.2671L130.562 2.23765ZM138.229 4.88485L137.824 5.79906C138.999 6.31993 140.185 6.90011 141.384 7.54324L141.857 6.66214L142.329 5.78103C141.088 5.11479 139.857 4.51243 138.635 3.97064L138.229 4.88485ZM145.365 8.70385L144.834 9.55108C145.943 10.2468 147.064 10.9973 148.195 11.8054L148.776 10.9916L149.358 10.1779C148.195 9.3473 147.041 8.57438 145.896 7.85663L145.365 8.70385ZM151.978 13.408L151.356 14.1908C151.888 14.6136 152.422 15.0491 152.959 15.4977L153.6 14.7304L154.241 13.963C153.692 13.5042 153.145 13.0584 152.6 12.6253L151.978 13.408Z" fill="#64748B"/>
</svg>
