<svg width="30" height="30" viewBox="0 0 30 30" fill="none" xmlns="http://www.w3.org/2000/svg">
<path d="M28.4326 10.6888C28.5784 10.6081 28.6848 10.4751 28.7284 10.3192C28.7719 10.1633 28.7491 9.99711 28.6649 9.8573L26.1253 5.64026C26.0421 5.50135 25.9053 5.39943 25.7443 5.35661C25.5818 5.31498 25.4087 5.33687 25.263 5.41748L17.9246 9.47748V1.3587C17.9246 1.19726 17.8577 1.04244 17.7386 0.928283C17.6196 0.81413 17.4581 0.75 17.2897 0.75H12.2103C12.0419 0.75 11.8804 0.81413 11.7614 0.928283C11.6423 1.04244 11.5754 1.19726 11.5754 1.3587V9.47626L4.24205 5.41748C4.09622 5.33676 3.92292 5.31489 3.76027 5.35667C3.59762 5.39845 3.45895 5.50046 3.37475 5.64026L0.835062 9.8573C0.75087 9.99711 0.728054 10.1633 0.771634 10.3192C0.815214 10.4751 0.921619 10.6081 1.06744 10.6888L8.40079 14.75L1.06744 18.8088C0.921619 18.8895 0.815214 19.0225 0.771634 19.1784C0.728054 19.3343 0.75087 19.5005 0.835062 19.6403L3.37475 23.8573C3.45895 23.9971 3.59762 24.0991 3.76027 24.1409C3.92292 24.1827 4.09622 24.1608 4.24205 24.0801L11.5754 20.0201V28.1413C11.5754 28.3027 11.6423 28.4576 11.7614 28.5717C11.8804 28.6859 12.0419 28.75 12.2103 28.75H17.2897C17.4581 28.75 17.6196 28.6859 17.7386 28.5717C17.8577 28.4576 17.9246 28.3027 17.9246 28.1413V20.0201L25.2592 24.0801C25.4049 24.1607 25.578 24.1826 25.7405 24.141C25.9015 24.0981 26.0383 23.9962 26.1214 23.8573L28.6611 19.6403C28.7453 19.5005 28.7681 19.3343 28.7246 19.1784C28.681 19.0225 28.5746 18.8895 28.4287 18.8088L21.0992 14.75L28.4326 10.6888Z" stroke="#0F172A" stroke-width="1.5" stroke-linecap="round" stroke-linejoin="round"/>
</svg>
