<svg width="48" height="48" viewBox="0 0 48 48" fill="none" xmlns="http://www.w3.org/2000/svg">
<g clip-path="url(#clip0_7628_3487)">
<path d="M21.8063 0.15C20.8875 0.318748 19.3406 0.824999 18.5438 1.22812C15.1125 2.93437 12.6094 6.3 11.9531 10.0687C11.7656 11.1469 11.7656 13.2281 11.9531 14.3062C12.1313 15.2906 12.6188 16.8094 13.0406 17.6437C14.7469 21.075 18.1125 23.5781 21.8813 24.2344C22.9594 24.4219 25.0406 24.4219 26.1188 24.2344C29.8875 23.5781 33.2531 21.075 34.9594 17.6437C35.3813 16.8094 35.8688 15.2906 36.0469 14.3062C36.2344 13.2281 36.2344 11.1469 36.0469 10.0687C35.8688 9.08437 35.3813 7.56562 34.9594 6.73125C33.2531 3.3 29.8875 0.796875 26.1188 0.140623C25.0781 -0.0375004 22.8188 -0.0375004 21.8063 0.15ZM25.6125 2.07187C29.7469 2.65312 33.2719 6.10312 34.0781 10.3406C34.2563 11.2969 34.2563 13.0781 34.0781 14.0344C33.2812 18.2156 30.0281 21.4688 25.8375 22.2656C24.9469 22.4344 23.2875 22.4625 22.3781 22.3125C20.2875 21.9844 17.9906 20.7562 16.5656 19.2188C14.7094 17.2219 13.7813 14.8687 13.7813 12.1875C13.7813 9.375 14.7844 6.95625 16.7719 4.95937C19.1344 2.60625 22.2375 1.59375 25.6125 2.07187Z" fill="#6E3D68"/>
<path d="M20.9625 5.86875C20.7188 6.1125 20.7188 6.13125 20.7188 7.50937V8.90625H19.3219C17.9438 8.90625 17.925 8.90625 17.6813 9.15L17.4375 9.40312V12.1875V14.9719L17.6813 15.225C17.925 15.4687 17.9438 15.4687 19.3219 15.4687H20.7188V16.8656C20.7188 18.2437 20.7188 18.2625 20.9625 18.5062L21.2156 18.75H24H26.7844L27.0375 18.5062C27.2812 18.2625 27.2812 18.2437 27.2812 16.8656V15.4687H28.6781C30.0563 15.4687 30.075 15.4687 30.3188 15.225L30.5625 14.9719V12.1875V9.40312L30.3188 9.15C30.075 8.90625 30.0563 8.90625 28.6781 8.90625H27.2812V7.50937C27.2812 6.13125 27.2812 6.1125 27.0375 5.86875L26.7844 5.625H24H21.2156L20.9625 5.86875ZM25.4063 8.89687C25.4063 10.275 25.4063 10.2937 25.65 10.5375C25.8938 10.7812 25.9125 10.7812 27.2906 10.7812H28.6875V12.1875V13.5938H27.2906C25.9125 13.5938 25.8938 13.5938 25.65 13.8375C25.4063 14.0812 25.4063 14.1 25.4063 15.4781V16.875H24H22.5938V15.4781C22.5938 14.1 22.5938 14.0812 22.35 13.8375C22.1063 13.5938 22.0875 13.5938 20.7094 13.5938H19.3125V12.1875V10.7812H20.7094C22.0875 10.7812 22.1063 10.7812 22.35 10.5375C22.5938 10.2937 22.5938 10.275 22.5938 8.89687V7.5H24H25.4063V8.89687Z" fill="#6E3D68"/>
<path d="M1.64082 15.3281C1.11582 15.525 0.60957 15.9562 0.30957 16.4719C0.112695 16.8187 0.0470703 17.0531 0.0189453 17.6719L-0.0185547 18.4312L1.17207 21.2437C1.82832 22.7812 2.8877 25.2937 3.53457 26.8125C5.5877 31.6312 6.42207 33.3187 7.3502 34.5562C7.84707 35.2312 9.49707 36.8531 11.6533 38.8125C12.5158 39.5906 13.2189 40.2937 13.2189 40.3687C13.2189 40.4625 13.0971 40.5 12.7596 40.5C12.3939 40.5 12.2627 40.5469 12.0564 40.7437L11.8127 40.9969V44.25V47.5031L12.0564 47.7562L12.3096 48H24.0002H35.6908L35.9439 47.7562L36.1877 47.5031V44.25V40.9969L35.9439 40.7437C35.7377 40.5469 35.6064 40.5 35.2408 40.5C34.9033 40.5 34.7814 40.4625 34.7814 40.3687C34.7814 40.2937 35.4846 39.5906 36.3564 38.8125C38.5033 36.8531 40.1533 35.2312 40.6502 34.5562C41.2783 33.7219 41.7752 32.8406 42.5721 31.125C43.2283 29.7094 43.9221 28.0875 46.9689 20.9156L48.0189 18.4312L47.9814 17.6719C47.9533 17.0531 47.8877 16.8187 47.6908 16.4719C46.7627 14.8875 44.4752 14.7562 43.3221 16.2281C43.1346 16.4625 42.1502 18.0281 41.1189 19.7062L39.2627 22.7625L38.9439 22.6312C38.4377 22.4156 37.4439 22.4625 36.8908 22.725C36.3189 22.9969 36.3939 22.9125 33.8252 26.1094C32.6627 27.5531 31.3971 29.0344 31.0221 29.3906C30.6377 29.7562 29.4846 30.6844 28.4533 31.4531C26.3346 33.0375 25.1908 34.1156 24.5252 35.175C24.2721 35.5781 24.0377 35.9062 24.0002 35.9062C23.9627 35.9062 23.7377 35.5875 23.4846 35.1937C22.8096 34.125 21.6471 33.0187 19.5471 31.4531C18.5158 30.6844 17.3627 29.7562 16.9783 29.3906C16.6033 29.0344 15.3377 27.5531 14.1752 26.1094C11.6064 22.9125 11.6814 22.9969 11.1096 22.725C10.5564 22.4625 9.5627 22.4156 9.05645 22.6312L8.74707 22.7625L6.88145 19.7062C5.8502 18.0281 4.86582 16.4531 4.67832 16.2187C4.19082 15.6 3.50645 15.2625 2.68145 15.225C2.2502 15.2062 1.88457 15.2437 1.64082 15.3281ZM3.00957 17.3625C3.13145 17.4844 4.19082 19.1344 5.35332 21.0469L7.47207 24.5156L7.51895 25.1719C7.5752 25.9875 8.10957 27.375 9.23457 29.6719C10.3783 31.9875 10.8564 32.7375 11.2596 32.8781C11.6814 33.0187 12.0377 32.9437 12.3283 32.6531C12.6939 32.2781 12.6471 31.7906 12.1783 30.9844C11.5971 30.0094 10.3127 27.375 9.8627 26.2406C9.42207 25.125 9.3752 24.7125 9.64707 24.5625C10.1439 24.3 10.1814 24.3375 12.5252 27.2531C15.3939 30.825 15.4971 30.9281 18.6096 33.2437C19.2846 33.75 20.0533 34.35 20.3346 34.5844C21.8908 35.925 22.8377 37.7625 23.0252 39.8156L23.0908 40.5H19.1346H15.1877V39.9375C15.1877 39.2531 15.3564 39.45 12.5158 36.8719C10.0971 34.6687 9.1877 33.7406 8.6252 32.9156C8.03457 32.025 6.8627 29.55 5.22207 25.6875C4.4252 23.8031 3.36582 21.3094 2.86895 20.1469C2.37207 18.975 1.96895 17.9156 1.96895 17.775C1.96895 17.475 2.26895 17.1562 2.56895 17.1562C2.68145 17.1562 2.8877 17.25 3.00957 17.3625ZM45.8439 17.3437C45.9471 17.4469 46.0314 17.6437 46.0314 17.775C46.0314 17.9156 45.6283 18.975 45.1314 20.1469C41.9533 27.6375 41.2408 29.2781 40.5471 30.7125C39.3002 33.3094 38.9908 33.675 35.4846 36.8719C32.6439 39.45 32.8127 39.2531 32.8127 39.9375V40.5H28.8658H24.9096L24.9752 39.8156C25.1627 37.7625 26.1096 35.9156 27.6658 34.5844C27.9471 34.35 29.0158 33.525 30.0471 32.7469C31.0783 31.9688 32.2221 31.05 32.5783 30.6937C32.9439 30.3375 34.2377 28.7906 35.4752 27.2531C37.8189 24.3375 37.8564 24.3 38.3533 24.5625C38.6064 24.7031 38.5783 25.0969 38.2408 25.9969C37.8471 27.0094 36.6939 29.4187 36.0002 30.6656C35.5689 31.4156 35.4377 31.7437 35.4377 32.0344C35.4377 32.7187 36.1314 33.1406 36.7877 32.8687C37.1627 32.7094 37.7252 31.8 38.8127 29.5781C39.9096 27.3187 40.4252 25.9688 40.4814 25.1719L40.5283 24.5156L42.6471 21.0469C43.8096 19.1344 44.8689 17.4844 44.9908 17.3625C45.2721 17.1094 45.6002 17.1 45.8439 17.3437ZM23.0627 44.25V46.125H18.3752H13.6877V44.25V42.375H18.3752H23.0627V44.25ZM34.3127 44.25V46.125H29.6252H24.9377V44.25V42.375H29.6252H34.3127V44.25Z" fill="#6E3D68"/>
</g>
<defs>
<clipPath id="clip0_7628_3487">
<rect width="48" height="48" fill="white"/>
</clipPath>
</defs>
</svg>
