<svg width="26" height="32" viewBox="0 0 26 32" fill="none" xmlns="http://www.w3.org/2000/svg">
<path d="M7.82206 4.88439C2.75331 9.96564 2.50956 10.2281 1.74081 11.5094C-0.196693 14.7406 -0.546693 19.0594 0.840807 22.5844C3.08456 28.2906 8.90956 31.5656 14.9596 30.5281C15.7408 30.3906 16.9221 30.0594 16.9221 29.9719C16.9221 29.9344 16.4158 29.3969 15.8033 28.7844L14.6783 27.6656L14.1908 27.7719C11.8846 28.2844 9.47831 27.5406 7.82831 25.8031C7.27206 25.2219 6.99081 24.8344 6.67831 24.2156C6.12831 23.1406 5.88456 22.0344 5.94081 20.8406C5.98456 19.9594 6.08456 19.4781 6.37831 18.6969C7.15956 16.6156 8.86581 15.1094 11.1721 14.4781C11.8283 14.3031 13.4783 14.2844 14.1971 14.4594C16.8221 15.0719 18.8221 17.0969 19.4096 19.7344C19.5596 20.4156 19.5533 21.8594 19.3971 22.5219L19.2846 23.0156L20.8846 24.6156L22.4846 26.2156L22.6408 26.0281C22.9908 25.6094 23.8221 24.3219 24.1033 23.7531C25.6596 20.6469 25.9033 17.1656 24.8033 13.8781C24.3658 12.5719 23.5471 11.0594 22.7158 10.0281C22.4596 9.70939 12.7908 -0.00311279 12.7346 -0.00311279C12.7158 -0.00311279 10.5033 2.19689 7.82206 4.88439Z" fill="url(#paint0_linear_8114_5340)"/>
<path d="M11.816 16.1812C10.4848 16.425 9.15353 17.3562 8.44728 18.5375C7.77228 19.6625 7.55978 21.1562 7.89103 22.4C8.34103 24.1062 9.67228 25.45 11.4035 25.9437C12.1035 26.1438 13.366 26.1438 14.066 25.9437C15.7973 25.45 17.1285 24.1062 17.5785 22.4C17.9223 21.1125 17.6723 19.5375 16.9598 18.4375C16.291 17.4 15.4598 16.7562 14.2848 16.3625C13.7785 16.1937 13.5973 16.1625 12.9223 16.1438C12.491 16.1312 11.9973 16.15 11.816 16.1812Z" fill="url(#paint1_linear_8114_5340)"/>
<path d="M18.2156 25.1531C17.8593 25.6406 16.8843 26.5843 16.4843 26.8093C16.4093 26.8531 16.9406 27.4156 18.8281 29.3093C20.4031 30.8843 21.3531 31.7906 21.5218 31.8718C21.8718 32.0468 22.4781 32.0406 22.8406 31.8656C23.1406 31.7218 23.3968 31.4468 23.5343 31.1218C23.6531 30.8343 23.6468 30.2656 23.5218 29.9656C23.4468 29.7843 22.7156 29.0156 20.9656 27.2593C19.6218 25.9156 18.5031 24.8093 18.4843 24.8093C18.4656 24.8156 18.3468 24.9656 18.2156 25.1531Z" fill="url(#paint2_linear_8114_5340)"/>
<defs>
<linearGradient id="paint0_linear_8114_5340" x1="6.77515" y1="30.1056" x2="8.65116" y2="1.10091" gradientUnits="userSpaceOnUse">
<stop stop-color="#00A372"/>
<stop offset="1" stop-color="#2B4CD3"/>
</linearGradient>
<linearGradient id="paint1_linear_8114_5340" x1="10.3946" y1="25.8951" x2="10.8974" y2="16.4851" gradientUnits="userSpaceOnUse">
<stop stop-color="#00A372"/>
<stop offset="1" stop-color="#2B4CD3"/>
</linearGradient>
<linearGradient id="paint2_linear_8114_5340" x1="18.3766" y1="31.8565" x2="18.7437" y2="25.0592" gradientUnits="userSpaceOnUse">
<stop stop-color="#00A372"/>
<stop offset="1" stop-color="#2B4CD3"/>
</linearGradient>
</defs>
</svg>
