<svg width="32" height="32" viewBox="0 0 32 32" fill="none" xmlns="http://www.w3.org/2000/svg">
<g clip-path="url(#clip0_8114_5353)">
<path d="M9.6875 1.9375V3.875H13.9688H18.25V1.9375V0H13.9688H9.6875V1.9375Z" fill="url(#paint0_linear_8114_5353)"/>
<path d="M4.33125 1.06238C3.05 1.39988 2.25 2.17488 1.89375 3.43738C1.7875 3.82488 1.78125 4.41238 1.78125 16.4374C1.78125 26.8436 1.79375 29.0936 1.86875 29.3749C2.1125 30.3811 2.7375 31.1874 3.575 31.5811C4.49375 32.0186 4 31.9999 13.9938 31.9999C23.9563 31.9999 23.4813 32.0186 24.35 31.5936C24.6125 31.4686 24.925 31.2436 25.1187 31.0499C25.4438 30.7249 25.8313 30.1186 25.9062 29.8061L25.9438 29.6436L25.3313 29.6061C24.9375 29.5811 24.6 29.5249 24.3813 29.4374C23.6313 29.1436 22.9813 28.5749 22.6063 27.8749C22.1688 27.0686 22.1875 27.4311 22.1875 20.0061V13.3124H21.6812C21.2063 13.3124 21.1688 13.2999 20.9937 13.1311C20.6812 12.8186 20.7875 12.3374 21.2 12.1936C21.325 12.1499 22.2313 12.1249 23.7563 12.1249H26.125V12.7499V13.3749H28.025H29.9188L30.0813 13.2124C30.3062 12.9874 30.35 12.7374 30.2063 12.4499C30.0312 12.0936 29.9 12.0686 27.925 12.0686L26.1938 12.0624L26.1688 7.94988C26.1438 3.47488 26.15 3.55613 25.7688 2.74988C25.3563 1.89363 24.6187 1.32488 23.575 1.06238C23.1562 0.956127 22.8625 0.937378 21.2688 0.937378H19.4438L19.425 2.76863C19.4062 4.40613 19.3938 4.61863 19.2938 4.76863C19.2313 4.86863 19.1063 4.96863 19.0188 5.00613C18.9188 5.04363 16.9938 5.05613 13.8688 5.04988L8.875 5.03113L8.70625 4.85613L8.53125 4.68738L8.5125 2.81238L8.49375 0.937378L6.6375 0.943628C5.025 0.943628 4.71875 0.962378 4.33125 1.06238ZM19.3062 9.72488C19.7875 9.82488 19.9813 10.3749 19.65 10.7124L19.4813 10.8749H13.9688H8.45625L8.29375 10.7186C8.2125 10.6311 8.125 10.4874 8.10625 10.4061C8.0625 10.1561 8.25 9.85613 8.5 9.76863C8.6625 9.71238 10.0625 9.69363 13.9125 9.69363C16.7688 9.68738 19.1938 9.70613 19.3062 9.72488ZM19.4688 13.2749C19.8687 13.4436 19.95 13.9374 19.6187 14.2124L19.425 14.3749H14C10.15 14.3749 8.525 14.3561 8.41875 14.3061C8.275 14.2436 8.18125 14.1061 8.10625 13.8686C8.05 13.6936 8.2375 13.3749 8.45 13.2811C8.75625 13.1499 19.15 13.1436 19.4688 13.2749ZM19.6625 16.8936C19.8625 17.1249 19.8625 17.4374 19.6625 17.6686L19.5125 17.8436H13.975H8.4375L8.275 17.6811C7.9875 17.3936 8.0875 16.9061 8.46875 16.7436C8.5375 16.7186 11.05 16.6999 14.05 16.7061L19.5125 16.7186L19.6625 16.8936ZM19.6187 20.3499C19.825 20.5249 19.8813 20.8186 19.7437 21.0749C19.5813 21.3749 19.6187 21.3749 13.9375 21.3749C8.075 21.3749 8.33125 21.3936 8.1625 20.9936C8.05 20.7311 8.10625 20.5311 8.325 20.3436L8.5125 20.1874H13.9688H19.425L19.6187 20.3499ZM19.65 23.8499C19.9438 24.1499 19.85 24.6249 19.4688 24.7874C19.1438 24.9186 8.7875 24.9186 8.4625 24.7811C8.06875 24.6186 7.9875 24.1561 8.29375 23.8436L8.45625 23.6874H13.9688H19.4813L19.65 23.8499Z" fill="url(#paint1_linear_8114_5353)"/>
<path d="M23.3125 23.2608C23.3125 24.9858 23.3375 26.3795 23.375 26.6108C23.4625 27.1358 23.6562 27.5295 23.9875 27.8608C25.0875 28.9608 26.9188 28.5483 27.5125 27.0733C27.65 26.7233 27.65 26.667 27.675 23.5108L27.6937 20.3108H25.5063H23.3125V23.2608Z" fill="url(#paint2_linear_8114_5353)"/>
</g>
<defs>
<linearGradient id="paint0_linear_8114_5353" x1="11.9642" y1="3.79766" x2="12.0533" y2="0.126111" gradientUnits="userSpaceOnUse">
<stop stop-color="#00A372"/>
<stop offset="1" stop-color="#2B4CD3"/>
</linearGradient>
<linearGradient id="paint1_linear_8114_5353" x1="9.3613" y1="31.3801" x2="11.0768" y2="2.03124" gradientUnits="userSpaceOnUse">
<stop stop-color="#00A372"/>
<stop offset="1" stop-color="#2B4CD3"/>
</linearGradient>
<linearGradient id="paint2_linear_8114_5353" x1="24.4774" y1="28.3212" x2="25.2453" y2="20.6491" gradientUnits="userSpaceOnUse">
<stop stop-color="#00A372"/>
<stop offset="1" stop-color="#2B4CD3"/>
</linearGradient>
<clipPath id="clip0_8114_5353">
<rect width="32" height="32" fill="white"/>
</clipPath>
</defs>
</svg>
