<svg width="48" height="48" viewBox="0 0 48 48" fill="none" xmlns="http://www.w3.org/2000/svg">
<g clip-path="url(#clip0_7628_3532)">
<path d="M13.8281 0.803905C12.975 0.925781 11.5875 1.27266 10.7531 1.55391C6.4875 3.04453 3.04687 6.48515 1.55625 10.7508C0.91875 12.607 0.796875 13.3852 0.796875 15.7477C0.796875 17.6133 0.825 17.9695 1.0125 18.8227C2.025 23.3602 4.75312 26.9414 8.8125 29.0977C10.9031 30.2039 13.2 30.7477 15.75 30.7477H17.2219L17.2781 32.6414C17.3437 35.2195 17.6719 36.6164 18.7031 38.7633C20.8031 43.1414 24.9094 46.2445 29.6625 47.0602C31.1625 47.3133 33.3281 47.3133 34.8094 47.0602C41.0531 45.9914 45.9937 41.0695 47.0625 34.8352C47.3156 33.3258 47.3156 31.1695 47.0625 29.6602C46.1625 24.382 42.3844 19.882 37.3594 18.0914C35.6625 17.4914 34.7344 17.332 32.6531 17.2758L30.75 17.2195V15.7477C30.75 13.9289 30.5344 12.532 29.9906 10.9289C28.5562 6.62578 25.1156 3.11015 20.8594 1.5914C19.0969 0.972656 18.2437 0.822655 16.0781 0.794529C15 0.77578 13.9875 0.785156 13.8281 0.803905ZM17.9062 2.48203C19.2094 2.69765 20.3156 3.06328 21.6094 3.69141C25.3875 5.53828 28.0125 8.89453 28.9219 13.0289C29.0906 13.7883 29.2219 16.6289 29.1187 17.1914C29.0625 17.5008 29.0156 17.5383 28.5656 17.6602C27.5062 17.9602 27.5719 17.9695 27.6656 17.5102C27.7969 16.8258 27.7594 14.5289 27.6094 13.6289C27.3281 12.0633 26.6531 10.3852 25.7062 8.95078C25.1437 8.09766 23.3906 6.3539 22.5281 5.78203C20.4094 4.38515 18.3 3.74765 15.75 3.74765C13.2094 3.74765 11.1 4.37578 8.95312 5.7914C8.10937 6.34453 6.34687 8.10703 5.78437 8.96016C4.3875 11.0883 3.75 13.207 3.75 15.7477C3.75 18.2977 4.3875 20.407 5.78437 22.5258C6.35625 23.3883 8.1 25.1414 8.95312 25.7039C10.3875 26.6508 12.0656 27.3258 13.6312 27.607C14.5125 27.757 16.6875 27.7945 17.4656 27.6633L17.9156 27.5883L17.8594 27.832C17.5875 28.9289 17.5406 29.0414 17.1937 29.107C16.6031 29.2102 14.5781 29.1633 13.6781 29.0227C11.9719 28.7508 10.0781 28.0383 8.67187 27.157C5.38125 25.0945 3.10312 21.6727 2.48437 17.857C2.30625 16.7789 2.30625 14.7164 2.48437 13.6383C2.90625 10.9945 4.20937 8.38828 6.08437 6.42891C9.09375 3.28828 13.6125 1.7789 17.9062 2.48203ZM16.875 5.37891C17.2594 5.40703 17.9719 5.53828 18.45 5.66953C21.9937 6.62578 24.8437 9.47578 25.8375 13.0477C26.2406 14.5195 26.2594 16.8164 25.8656 18.2977C25.7906 18.5883 25.6875 18.6914 25.1437 18.9914C24.7969 19.1789 24.2062 19.5445 23.8312 19.807L23.1375 20.2664L22.6125 20.032C22.3125 19.9008 21.4031 19.657 20.5781 19.4977C19.0125 19.1883 18.8344 19.1227 18.5062 18.8227L18.3 18.6352L18.7594 18.0352C19.0125 17.6977 19.2187 17.3883 19.2187 17.332C19.2187 17.2852 19.4062 17.2477 19.6406 17.2477C20.4469 17.2477 21.225 16.7414 21.5719 15.982C21.7875 15.5039 21.8062 14.5758 21.6 14.0602C21.4594 13.7039 21.4594 13.6383 21.6 13.1414C21.7875 12.4664 21.7969 11.0977 21.6094 10.4133C21.3844 9.56015 20.9906 8.89453 20.2969 8.20078C19.0875 6.99141 18.3375 6.74765 15.75 6.74765C13.1625 6.74765 12.4125 6.99141 11.2031 8.20078C10.5094 8.89453 10.1156 9.56015 9.89062 10.4133C9.70312 11.0977 9.7125 12.4664 9.9 13.1414C10.0406 13.6383 10.0406 13.7039 9.9 14.0602C9.69375 14.5758 9.7125 15.5039 9.92812 15.982C10.275 16.7414 11.0531 17.2477 11.8594 17.2477C12.0937 17.2477 12.2812 17.2852 12.2812 17.332C12.2812 17.3883 12.4875 17.6977 12.7406 18.0352L13.2094 18.6445L12.9281 18.8883C12.7687 19.0195 12.5531 19.1414 12.4406 19.1695C12.3281 19.1977 11.55 19.357 10.725 19.5352C8.7375 19.957 8.025 20.3227 7.425 21.2414L7.14375 21.6633L6.75937 21.0258C6.29062 20.2383 5.86875 19.2164 5.59687 18.232C5.42812 17.5852 5.4 17.2383 5.39062 15.7477C5.39062 14.1445 5.40937 13.9477 5.64375 13.0945C6.66562 9.44765 9.49687 6.61641 13.0969 5.66016C13.95 5.42578 15.4031 5.24765 15.9375 5.30391C16.0687 5.32265 16.4906 5.35078 16.875 5.37891ZM17.1281 8.33203C18.825 8.58516 20.0437 9.85078 20.1375 11.4539C20.1562 11.8102 20.1469 12.2414 20.1187 12.4195L20.0531 12.7477H18.8625C17.2687 12.7477 16.1344 12.607 15.3375 12.307C14.1562 11.8758 13.2844 11.9414 12.75 12.5133C12.5625 12.7102 12.4406 12.7477 11.9906 12.7477H11.4469L11.3812 12.4195C11.3531 12.2414 11.3437 11.8102 11.3625 11.4539C11.4562 9.88828 12.6844 8.57578 14.2875 8.3414C14.9719 8.23828 16.4531 8.23828 17.1281 8.33203ZM14.925 13.882C15.6469 14.1258 15.9937 14.1914 16.9125 14.2289L18.0281 14.2758L17.9812 15.2227C17.925 16.2914 17.7656 16.7602 17.3156 17.2383C16.4719 18.1289 15.0281 18.1289 14.1844 17.2383C14.0156 17.0602 13.8187 16.7602 13.7344 16.5539C13.5562 16.1414 13.4437 14.8102 13.5375 14.3039C13.5937 14.0133 13.875 13.5914 14.0062 13.5914C14.0344 13.5914 14.4469 13.7227 14.925 13.882ZM12 14.9977C12 15.7195 11.8875 15.8227 11.5312 15.4664C11.1844 15.1195 11.4094 14.3414 11.8594 14.3414C11.9719 14.3414 12 14.4727 12 14.9977ZM19.9687 14.5289C20.3156 14.8758 20.0906 15.6539 19.6406 15.6539C19.5281 15.6539 19.5 15.5227 19.5 14.9977C19.5 14.2758 19.6125 14.1727 19.9687 14.5289ZM34.4062 18.982C35.7094 19.1977 36.8156 19.5633 38.1094 20.1914C41.8875 22.0383 44.5125 25.3945 45.4219 29.5289C45.6562 30.5977 45.7125 33.1102 45.5344 34.2633C44.9719 37.7695 43.1156 40.8633 40.2844 42.9914C39.1875 43.8164 37.275 44.7914 36.0469 45.1383C33.5812 45.8414 30.9 45.8414 28.4531 45.1383C27.5719 44.8852 25.9687 44.1633 25.1719 43.657C21.8719 41.5852 19.6031 38.1727 18.9844 34.357C18.8062 33.2789 18.8062 31.2164 18.9844 30.1383C19.4062 27.4945 20.7094 24.8883 22.5844 22.9289C25.5937 19.7883 30.1125 18.2789 34.4062 18.982ZM16.95 19.507C16.8937 19.6383 15.7969 21.082 15.75 21.082C15.7031 21.082 14.6062 19.6383 14.5594 19.507C14.5406 19.4789 15.0844 19.4508 15.75 19.4508C16.425 19.4508 16.9594 19.4789 16.95 19.507ZM20.175 21.0445C21.0562 21.2227 21.7969 21.3727 21.825 21.3727C21.8437 21.3727 21.5531 21.7008 21.1687 22.1133C20.4375 22.8914 19.575 24.082 18.9937 25.1414C18.6094 25.8352 18.6 25.8445 17.3719 26.0602C16.6687 26.182 14.8687 26.1914 14.1562 26.0695C12.2625 25.7508 10.6781 25.0383 9.14062 23.8008C8.75625 23.4914 8.41875 23.1914 8.38125 23.1445C8.2125 22.8633 8.82187 21.9352 9.4125 21.5695C9.65625 21.4102 11.325 21.007 13.1719 20.6602C13.3219 20.632 13.5937 20.9414 14.5312 22.2164C15.1781 23.0883 15.7219 23.8008 15.75 23.8008C15.7781 23.8008 16.3406 23.0695 17.0062 22.1695C18.0562 20.7633 18.2437 20.557 18.3937 20.632C18.4875 20.6789 19.2844 20.8664 20.175 21.0445Z" fill="#6E3D68"/>
<path d="M37.9407 24.8906C37.7438 24.9656 37.4532 25.1156 37.2844 25.2281C37.1157 25.3406 35.0719 27.3375 32.7469 29.6625L28.5001 33.8812L27.2157 32.6156C25.5938 31.0125 25.2751 30.8156 24.1969 30.7687C23.1376 30.7219 22.5001 30.9469 21.8438 31.5938C21.2157 32.2312 20.9719 32.8969 21.0188 33.8906C21.0657 35.1187 21.1407 35.2219 24.1313 38.2125C26.5501 40.6406 26.8126 40.8656 27.3094 41.0531C28.0313 41.3156 28.9688 41.3156 29.6907 41.0531C30.2063 40.8656 30.5344 40.5562 35.8688 35.2125C40.3407 30.75 41.5501 29.4844 41.7282 29.1094C42.0469 28.4344 42.0844 27.3281 41.8126 26.5969C41.5407 25.875 40.8751 25.2094 40.1719 24.9469C39.5532 24.7125 38.4938 24.6937 37.9407 24.8906ZM39.7313 26.5312C40.3407 26.9062 40.5938 27.7781 40.2751 28.3875C40.1063 28.6969 29.3813 39.4031 29.0907 39.5531C28.8094 39.6937 28.1626 39.6844 27.8626 39.525C27.5626 39.3562 22.8469 34.6312 22.6969 34.3406C22.4063 33.7687 22.6876 32.8875 23.2688 32.5312C23.6157 32.325 24.2626 32.2781 24.5907 32.4469C24.7032 32.5031 25.6313 33.375 26.6532 34.3875L28.5001 36.2344L33.3563 31.3969C36.0188 28.7344 38.2876 26.5031 38.3907 26.4469C38.7001 26.2875 39.3938 26.325 39.7313 26.5312Z" fill="#6E3D68"/>
<path d="M30.5156 3.17852C29.7 3.55352 29.25 4.30352 29.25 5.26914C29.2594 6.60039 30.1594 7.50039 31.5 7.50039C32.1 7.50039 32.6344 7.33164 32.9531 7.03164C33.15 6.84414 33.15 6.85352 33.8438 7.25664C37.3594 9.31914 40.4531 12.8535 41.925 16.5004C42.1406 17.0441 42.3375 17.5035 42.3469 17.5223C42.3656 17.5504 43.875 17.0629 43.875 17.016C43.875 17.0066 43.725 16.6223 43.5469 16.1723C41.8219 11.9066 38.6625 8.22227 34.7156 5.88789C33.7781 5.33477 33.75 5.31602 33.75 4.97852C33.7406 4.27539 33.1406 3.45039 32.4188 3.15039C31.9313 2.94414 30.9844 2.96289 30.5156 3.17852ZM31.9688 4.78164C32.0719 4.88477 32.1562 5.09102 32.1562 5.25039C32.1562 5.40977 32.0719 5.61602 31.9688 5.71914C31.8656 5.82227 31.6594 5.90664 31.5 5.90664C31.3406 5.90664 31.1344 5.82227 31.0313 5.71914C30.9281 5.61602 30.8438 5.40977 30.8438 5.25039C30.8438 5.09102 30.9281 4.88477 31.0313 4.78164C31.1344 4.67852 31.3406 4.59414 31.5 4.59414C31.6594 4.59414 31.8656 4.67852 31.9688 4.78164Z" fill="#6E3D68"/>
<path d="M43.6407 18.6708C43.2845 18.7645 42.9376 18.8583 42.8813 18.8864C42.8063 18.9051 42.8251 19.1301 42.947 19.6364C43.0407 20.0395 43.1345 20.377 43.1626 20.4051C43.2188 20.4614 44.6251 20.2364 44.672 20.1614C44.7001 20.1051 44.372 18.5489 44.3157 18.502C44.3063 18.4926 44.0063 18.5676 43.6407 18.6708Z" fill="#6E3D68"/>
<path d="M3.89051 27.6891C3.25301 27.8203 3.27176 27.7547 3.50614 28.7953L3.66551 29.5078L4.34051 29.3297C4.71551 29.2266 5.06239 29.1328 5.12801 29.1047C5.21239 29.0766 5.20301 28.9453 5.10926 28.5703C5.04364 28.2984 4.95926 27.9609 4.93114 27.8109C4.86551 27.5203 4.79051 27.5109 3.89051 27.6891Z" fill="#6E3D68"/>
<path d="M4.83728 30.7101C4.48103 30.8319 4.17165 30.9444 4.1529 30.9632C4.10603 31.0194 4.72478 32.5194 5.15603 33.3819C7.01228 37.0663 9.94666 40.1788 13.5279 42.2507C14.2217 42.6538 14.2498 42.6819 14.2498 43.0101C14.2592 43.7226 14.8498 44.5476 15.581 44.8476C16.0685 45.0538 17.0154 45.0351 17.4842 44.8194C18.2998 44.4444 18.7498 43.6944 18.7498 42.7288C18.7404 41.3976 17.8404 40.4976 16.4998 40.4976C15.8904 40.4976 15.3654 40.6757 15.0373 40.9757C14.8498 41.1538 14.8404 41.1538 14.0717 40.6944C12.7498 39.8976 11.8123 39.1757 10.6217 38.0226C9.29041 36.7382 8.57791 35.8944 7.66853 34.4976C7.0029 33.4851 6.14978 31.8257 5.84978 30.9538C5.75603 30.6913 5.63416 30.4663 5.57791 30.4757C5.53103 30.4757 5.19353 30.5788 4.83728 30.7101ZM16.9685 42.2788C17.3717 42.6819 17.0717 43.4038 16.4998 43.4038C16.1435 43.4038 15.8435 43.1038 15.8435 42.7476C15.8435 42.3913 16.1435 42.0913 16.4998 42.0913C16.6592 42.0913 16.8654 42.1757 16.9685 42.2788Z" fill="#6E3D68"/>
</g>
<defs>
<clipPath id="clip0_7628_3532">
<rect width="48" height="48" fill="white"/>
</clipPath>
</defs>
</svg>
