<svg width="32" height="32" viewBox="0 0 32 32" fill="none" xmlns="http://www.w3.org/2000/svg">
<path d="M10.1877 1.76799C10.0002 1.86799 9.86897 1.99924 9.76897 2.18674C9.63147 2.43674 9.62522 2.52424 9.62522 3.58674V4.72424L9.06897 4.79924C7.54397 5.00549 6.17522 5.73048 5.33772 6.77424C4.69397 7.57423 4.28147 8.60548 4.09397 9.83048C4.01272 10.4117 4.01272 10.5242 4.08772 10.7117C4.27522 11.1617 3.18147 11.1242 16.0127 11.1242H27.5627L27.7627 10.943C27.9627 10.768 27.969 10.743 27.9565 10.3367C27.9315 9.51798 27.6502 8.48048 27.2315 7.64924C26.4565 6.11799 24.869 5.06174 22.9315 4.79924L22.3752 4.72424V3.58674C22.3752 2.52424 22.369 2.43674 22.2315 2.18674C22.069 1.87424 21.669 1.62424 21.3502 1.62424C21.0877 1.62424 20.6315 1.86174 20.4752 2.08049C20.3565 2.24299 20.344 2.36174 20.3252 3.44299L20.3065 4.62424H16.0002H11.694L11.6752 3.44924C11.6565 2.33049 11.6502 2.27424 11.5065 2.06799C11.3377 1.83049 10.944 1.63049 10.6502 1.62424C10.544 1.62424 10.3377 1.68674 10.1877 1.76799Z" fill="url(#paint0_linear_8114_5305)"/>
<path d="M5.0625 13.1172C4.625 13.2109 4.30625 13.4547 4.1 13.8547C4.0125 14.0359 4 14.5609 4 18.8922C4 24.2422 4.00625 24.3359 4.4 25.5109C5.15625 27.7547 6.9125 29.0359 9.5875 29.3047C10.525 29.3984 21.475 29.3984 22.4125 29.3047C24.975 29.0484 26.7063 27.8484 27.5063 25.7859C27.6125 25.5109 27.7563 25.0484 27.8313 24.7547C27.9563 24.2359 27.9625 24.0547 27.9813 19.1422C28 14.5109 27.9937 14.0484 27.9 13.8609C27.7563 13.5734 27.5688 13.3797 27.2812 13.2297L27.0312 13.0922L16.1562 13.0859C10.175 13.0797 5.18125 13.0922 5.0625 13.1172ZM11.8 17.4734C12.275 17.6672 12.6188 18.1672 12.625 18.6547C12.625 18.7922 12.5563 19.0484 12.475 19.2234C12.2563 19.6984 11.85 19.9484 11.3 19.9422C10.6063 19.9422 10.0625 19.3797 10.0625 18.6797C10.0625 17.7484 10.9625 17.1234 11.8 17.4734ZM16.5375 17.4922C16.95 17.6797 17.3125 18.2297 17.3125 18.6609C17.3125 19.0984 16.9875 19.5984 16.5563 19.8172C15.825 20.1859 14.8562 19.6859 14.7188 18.8609C14.5938 18.1172 15.2312 17.3734 16 17.3734C16.1562 17.3734 16.3938 17.4297 16.5375 17.4922ZM21.1063 17.4484C21.975 17.8297 22.2188 18.8672 21.6 19.5484C20.8313 20.3984 19.375 19.7984 19.375 18.6422C19.375 17.8109 20.3625 17.1297 21.1063 17.4484ZM12.0625 22.2734C12.3688 22.4734 12.625 22.9609 12.625 23.3422C12.6188 24.0109 12 24.6234 11.3313 24.6234C10.9563 24.6234 10.475 24.3609 10.275 24.0609C9.9375 23.5484 10.0125 22.7984 10.45 22.3922C10.8563 22.0109 11.5875 21.9547 12.0625 22.2734ZM16.6 22.2172C17.3375 22.5797 17.5188 23.5047 16.9812 24.1547C16.325 24.9547 15.0312 24.6672 14.75 23.6547C14.5312 22.8672 15.1625 22.0609 16 22.0609C16.1813 22.0609 16.4 22.1172 16.6 22.2172ZM21.175 22.1547C21.7 22.3797 21.9625 22.8172 21.925 23.4109C21.8938 23.9297 21.675 24.2672 21.2313 24.4734C20.8563 24.6484 20.5312 24.6609 20.2 24.5234C19.3875 24.1859 19.1313 23.2359 19.6625 22.5234C19.9688 22.1109 20.6625 21.9422 21.175 22.1547Z" fill="url(#paint1_linear_8114_5305)"/>
<defs>
<linearGradient id="paint0_linear_8114_5305" x1="10.3945" y1="10.9354" x2="10.5863" y2="1.93222" gradientUnits="userSpaceOnUse">
<stop stop-color="#00A372"/>
<stop offset="1" stop-color="#2B4CD3"/>
</linearGradient>
<linearGradient id="paint1_linear_8114_5305" x1="10.3787" y1="29.0499" x2="10.9406" y2="13.6259" gradientUnits="userSpaceOnUse">
<stop stop-color="#00A372"/>
<stop offset="1" stop-color="#2B4CD3"/>
</linearGradient>
</defs>
</svg>
