<svg width="32" height="32" viewBox="0 0 32 32" fill="none" xmlns="http://www.w3.org/2000/svg">
<path d="M8.25625 0.125C8 0.1875 7.55 0.356249 7.25625 0.50625C6.81875 0.725 6.60625 0.887499 6.11875 1.375C5.60625 1.8875 5.48125 2.05 5.2375 2.5625C4.84375 3.375 4.75 3.8 4.75 4.8V5.625H2.875H1V10.375V15.125H2.93125H4.8625L5.0375 15.4812C5.275 15.975 5.80625 16.4937 6.34375 16.7562L6.78125 16.9688L13.2688 16.9875L19.75 17V13.25V9.5H24.4375H29.125V7.5625V5.625H19.75H10.375V4.6875V3.75H13.1875H16V1.875V0L12.3625 0.00625038C9.0625 0.00625038 8.675 0.0187492 8.25625 0.125Z" fill="url(#paint0_linear_8114_5321)"/>
<path d="M25.4564 11.8545C24.5502 13.2233 23.9064 14.392 23.6564 15.1545C23.5064 15.592 23.4877 15.7295 23.5127 16.2483C23.5314 16.7545 23.5689 16.8983 23.7377 17.2545C24.0939 17.992 24.6377 18.4795 25.4127 18.7545C25.7189 18.8608 25.8939 18.8795 26.4377 18.8608C27.0314 18.842 27.1377 18.817 27.5314 18.6233C28.1064 18.3483 28.6002 17.8545 28.8752 17.2795C29.0627 16.8983 29.0939 16.767 29.1127 16.2483C29.1377 15.7295 29.1189 15.592 28.9689 15.1545C28.7127 14.3733 28.0814 13.2233 27.1814 11.867C26.7252 11.1795 26.3377 10.6233 26.3127 10.6233C26.2939 10.6233 25.9064 11.1795 25.4564 11.8545Z" fill="url(#paint1_linear_8114_5321)"/>
<path d="M10.375 21.6875V22.625H11.3125H12.25V23.5625V24.5H15.0625H17.875V23.5625V22.625H18.8125H19.75V21.6875V20.75H15.0625H10.375V21.6875Z" fill="url(#paint2_linear_8114_5321)"/>
<path d="M21.625 21.6875V22.625H22.5625H23.5V23.5625V24.5H26.3125H29.125V23.5625V22.625H30.0625H31V21.6875V20.75H26.3125H21.625V21.6875Z" fill="url(#paint3_linear_8114_5321)"/>
<path d="M12.2624 28.167L12.2812 29.967L12.4812 30.3795C12.8437 31.117 13.3937 31.6108 14.1624 31.8795C14.4687 31.9858 14.6437 32.0045 15.1874 31.9858C15.7812 31.967 15.8874 31.942 16.2812 31.7483C16.8562 31.4733 17.3499 30.9795 17.6312 30.4045L17.8437 29.967L17.8624 28.167L17.8812 26.3733H15.0624H12.2437L12.2624 28.167Z" fill="url(#paint4_linear_8114_5321)"/>
<path d="M23.5124 28.167L23.5312 29.967L23.7312 30.3795C24.0937 31.117 24.6437 31.6108 25.4124 31.8795C25.7187 31.9858 25.8937 32.0045 26.4374 31.9858C27.0312 31.967 27.1374 31.942 27.5312 31.7483C28.1062 31.4733 28.5999 30.9795 28.8812 30.4045L29.0937 29.967L29.1124 28.167L29.1312 26.3733H26.3124H23.4937L23.5124 28.167Z" fill="url(#paint5_linear_8114_5321)"/>
<defs>
<linearGradient id="paint0_linear_8114_5321" x1="8.47821" y1="16.6607" x2="9.00027" y2="0.560697" gradientUnits="userSpaceOnUse">
<stop stop-color="#00A372"/>
<stop offset="1" stop-color="#2B4CD3"/>
</linearGradient>
<linearGradient id="paint1_linear_8114_5321" x1="24.9973" y1="18.7027" x2="25.6087" y2="10.9351" gradientUnits="userSpaceOnUse">
<stop stop-color="#00A372"/>
<stop offset="1" stop-color="#2B4CD3"/>
</linearGradient>
<linearGradient id="paint2_linear_8114_5321" x1="12.8677" y1="24.4252" x2="12.944" y2="20.8716" gradientUnits="userSpaceOnUse">
<stop stop-color="#00A372"/>
<stop offset="1" stop-color="#2B4CD3"/>
</linearGradient>
<linearGradient id="paint3_linear_8114_5321" x1="24.1177" y1="24.4252" x2="24.194" y2="20.8716" gradientUnits="userSpaceOnUse">
<stop stop-color="#00A372"/>
<stop offset="1" stop-color="#2B4CD3"/>
</linearGradient>
<linearGradient id="paint4_linear_8114_5321" x1="13.7426" y1="31.88" x2="14.0266" y2="26.5682" gradientUnits="userSpaceOnUse">
<stop stop-color="#00A372"/>
<stop offset="1" stop-color="#2B4CD3"/>
</linearGradient>
<linearGradient id="paint5_linear_8114_5321" x1="24.9926" y1="31.88" x2="25.2766" y2="26.5682" gradientUnits="userSpaceOnUse">
<stop stop-color="#00A372"/>
<stop offset="1" stop-color="#2B4CD3"/>
</linearGradient>
</defs>
</svg>
