<svg width="28" height="28" viewBox="0 0 28 28" fill="none" xmlns="http://www.w3.org/2000/svg">
<path d="M22.9776 15.1445H18.7379V18.7453H15.1372V22.985H18.7379V26.5856H22.9776V22.985H26.5783V18.7453H22.9776V15.1445Z" stroke="#0F172A" stroke-width="1.5" stroke-linecap="round" stroke-linejoin="round"/>
<path d="M5.01074 8.34375H16.7503" stroke="#0F172A" stroke-width="1.5" stroke-linecap="round" stroke-linejoin="round"/>
<path d="M5.01074 13.375H13.3962" stroke="#0F172A" stroke-width="1.5" stroke-linecap="round" stroke-linejoin="round"/>
<path d="M5.01074 18.4062H9.20345" stroke="#0F172A" stroke-width="1.5" stroke-linecap="round" stroke-linejoin="round"/>
<path d="M12.2307 23.4388H3.33382C2.88903 23.4388 2.46246 23.2621 2.14794 22.9476C1.83343 22.6331 1.65674 22.2065 1.65674 21.7617V3.31381C1.65674 2.86901 1.83343 2.44244 2.14794 2.12793C2.46246 1.81341 2.88903 1.63672 3.33382 1.63672H15.2177C15.6621 1.63681 16.0884 1.81335 16.4028 2.12755L19.6138 5.33861C19.928 5.65299 20.1046 6.07926 20.1047 6.52374V12.2736" stroke="#0F172A" stroke-width="1.5" stroke-linecap="round" stroke-linejoin="round"/>
</svg>
