<svg width="48" height="48" viewBox="0 0 48 48" fill="none" xmlns="http://www.w3.org/2000/svg">
<g clip-path="url(#clip0_7628_3411)">
<path d="M22.0031 0.946892C19.6969 1.50939 17.6531 3.14064 16.575 5.29689C16.2281 5.97189 15.8625 7.20939 15.7875 7.90314L15.7313 8.50314L13.4719 9.74064C11.9719 10.5656 11.1469 10.9688 11.025 10.9406C10.9125 10.9125 10.4906 10.8094 10.0875 10.6969C9.075 10.425 7.45313 10.425 6.4125 10.6875C4.3125 11.2125 2.49375 12.6656 1.54688 14.5781C0.95625 15.7594 0.75 16.65 0.75 18C0.75 19.3688 0.95625 20.25 1.56563 21.4688C1.94063 22.2281 2.14688 22.4906 2.95312 23.2969C3.75938 24.1031 4.02188 24.3094 4.78125 24.6844C6 25.2938 6.88125 25.5 8.25 25.5C9.61875 25.5 10.5 25.2938 11.7188 24.6844C12.4781 24.3094 12.7406 24.1031 13.5469 23.2969C14.3531 22.4906 14.5594 22.2281 14.9344 21.4688C15.5438 20.25 15.75 19.3688 15.75 18C15.75 15.8156 15.0094 14.0531 13.4625 12.5719C13.1156 12.2438 12.8625 11.9531 12.8813 11.925C12.9094 11.8969 13.575 11.5219 14.3625 11.1L15.7969 10.3219L15.9563 10.95C16.6219 13.6969 18.6938 15.9844 21.2625 16.8281L21.7594 16.9875L21.7313 24.0938C21.7125 28.9406 21.675 31.2375 21.6 31.3125C21.5344 31.3781 21.4031 30.9 21.1594 29.7C20.7563 27.6938 20.5031 27.0938 19.6688 26.1938C19.2375 25.7438 18.9094 25.5 18.3375 25.2188C16.0875 24.1125 14.25 24.75 14.25 26.6531C14.25 27.225 14.2688 27.2813 14.9063 28.275C15.2719 28.8375 15.6281 29.5031 15.7031 29.7656C15.7781 30.0188 15.9656 31.3031 16.125 32.6063C16.2938 33.9188 16.5 35.2031 16.5938 35.4656C16.6875 35.7375 17.3813 37.2094 18.1313 38.7469C19.4625 41.4656 19.5 41.5688 19.5 42.15V42.75H18.75H18V45V47.25H26.25H34.5V45V42.75H33.75H33V42.1688C33 41.6063 33.0094 41.5781 33.6375 40.7438C34.5469 39.5344 34.7531 39.1875 35.0156 38.4L35.25 37.6969V32.0438C35.25 25.6781 35.2781 25.9781 34.5281 25.3031C34.0312 24.8531 33.6 24.7219 32.8125 24.7688C32.2219 24.7969 32.1656 24.7875 32.1188 24.6094C32.0344 24.2813 31.3875 23.6063 30.9938 23.4281C30.4219 23.1656 29.4938 23.1938 28.9406 23.475L28.5 23.6906L28.05 23.4656C27.6844 23.2781 27.4969 23.2406 26.925 23.2688L26.25 23.2969V20.1375V16.9875L26.7469 16.8188C29.3063 15.9844 31.3781 13.6875 32.0438 10.95L32.2031 10.3219L33.6375 11.1C34.425 11.5219 35.0906 11.8969 35.1188 11.925C35.1375 11.9531 34.8844 12.2438 34.5375 12.5719C32.9906 14.0531 32.25 15.8156 32.25 18C32.25 19.3688 32.4563 20.25 33.0656 21.4688C33.4406 22.2281 33.6469 22.4906 34.4531 23.2969C35.2594 24.1031 35.5219 24.3094 36.2812 24.6844C37.5 25.2938 38.3813 25.5 39.75 25.5C41.1188 25.5 42 25.2938 43.2188 24.6844C43.9781 24.3094 44.2406 24.1031 45.0469 23.2969C45.8531 22.4906 46.0594 22.2281 46.4344 21.4688C47.0438 20.25 47.25 19.3688 47.25 18C47.25 16.6313 47.0438 15.75 46.4344 14.5313C46.0594 13.7719 45.8531 13.5 45.0469 12.6938C44.2313 11.8781 43.9875 11.6906 43.2188 11.3063C41.9813 10.7063 41.1094 10.5 39.75 10.5C38.9344 10.5 38.4656 10.5469 37.9125 10.6969C37.5094 10.8094 37.0875 10.9125 36.975 10.9406C36.8531 10.9688 36.0281 10.5656 34.5188 9.74064C32.4281 8.58751 32.25 8.46564 32.25 8.23126C32.25 7.87502 32.0156 6.79689 31.8 6.18752C30.9094 3.62814 28.6313 1.58439 25.95 0.937515C24.9 0.684391 23.0438 0.684391 22.0031 0.946892ZM24.9563 2.39064C26.2313 2.51252 27.7969 3.32814 28.8 4.38752C30.0281 5.69064 30.5719 6.96564 30.6375 8.69064C30.6844 9.98439 30.5156 10.8281 30.0094 11.8688C29.4281 13.0594 29.4563 13.0406 28.9875 12.3375C28.5281 11.6438 27.8156 10.9688 27.1125 10.575L26.625 10.2938L26.9063 9.93751C27.0563 9.75002 27.3 9.36564 27.4406 9.08439C27.6844 8.61564 27.7031 8.49376 27.7031 7.50002C27.7031 6.49689 27.6844 6.38439 27.4313 5.85939C27.2719 5.55001 26.9344 5.08126 26.6813 4.81876C26.4188 4.56564 25.95 4.22814 25.6406 4.06876C25.1156 3.81564 25.0031 3.79689 24 3.79689C22.9969 3.79689 22.8844 3.81564 22.3594 4.06876C21.6375 4.42501 20.925 5.13752 20.5688 5.85939C20.3156 6.38439 20.2969 6.49689 20.2969 7.50002C20.2969 8.49376 20.3156 8.61564 20.5594 9.08439C20.7 9.36564 20.9438 9.75002 21.0938 9.93751L21.375 10.2938L20.8875 10.575C20.1844 10.9688 19.4719 11.6438 19.0125 12.3375C18.5531 13.0313 18.5813 13.05 18.0375 11.9813C17.4938 10.9031 17.3156 10.0875 17.3625 8.77501C17.3906 7.84689 17.4469 7.50002 17.6625 6.89064C18.3281 4.95002 19.8469 3.40314 21.7875 2.70002C22.4906 2.43752 23.6625 2.25002 24.1875 2.30627C24.3188 2.32502 24.6656 2.36251 24.9563 2.39064ZM24.825 5.49377C26.2594 6.08439 26.6156 7.99689 25.4906 9.06564C24.1125 10.3688 21.8438 9.40314 21.8438 7.50002C21.8438 6.65627 22.3219 5.91564 23.1094 5.50314C23.475 5.30627 24.375 5.30627 24.825 5.49377ZM25.3031 11.5219C26.3719 11.85 27.4781 12.7781 27.9375 13.7344C28.1438 14.1563 28.1438 14.175 27.975 14.3531C27.8813 14.4563 27.4125 14.7375 26.9344 14.9719L26.0625 15.4031L25.7156 15C25.2563 14.4656 24.7688 14.25 24 14.25C23.2406 14.25 22.7438 14.4656 22.2938 14.9906L21.9563 15.3844L21.5531 15.2156C21.0281 15.0094 20.1281 14.4938 19.9781 14.3063C19.725 13.9969 20.6531 12.675 21.5625 12.0469C22.5375 11.3719 24.1125 11.1563 25.3031 11.5219ZM9.69375 12.2438C11.325 12.6375 12.8531 13.8844 13.5938 15.4219C14.0438 16.3688 14.175 17.0719 14.1375 18.2344C14.0906 19.4156 13.8563 20.2313 13.2938 21.1031L12.9563 21.6281L12.4125 21.1219C12.1125 20.8406 11.6438 20.475 11.3719 20.325L10.875 20.0438L11.1562 19.6875C11.3063 19.5 11.55 19.1156 11.6906 18.8344C11.9344 18.3656 11.9531 18.2438 11.9531 17.25C11.9531 16.2469 11.9344 16.1344 11.6813 15.6094C11.325 14.8875 10.6125 14.175 9.89062 13.8188C9.36563 13.5656 9.25313 13.5469 8.25 13.5469C7.24688 13.5469 7.13438 13.5656 6.60938 13.8188C5.8875 14.175 5.175 14.8875 4.81875 15.6094C4.56563 16.1344 4.54688 16.2469 4.54688 17.25C4.54688 18.2438 4.56563 18.3656 4.80938 18.8344C4.95 19.1156 5.19375 19.5 5.34375 19.6875L5.625 20.0438L5.12813 20.325C4.85625 20.475 4.3875 20.8313 4.09688 21.1125L3.55313 21.6281L3.38438 21.3844C3.05625 20.925 2.64375 20.0156 2.49375 19.4438C2.30625 18.7031 2.29688 17.2688 2.48438 16.5469C3.30938 13.3969 6.525 11.475 9.69375 12.2438ZM41.1938 12.2438C42.825 12.6375 44.3531 13.8844 45.0938 15.4219C45.5438 16.3688 45.675 17.0719 45.6375 18.2344C45.5906 19.4156 45.3563 20.2313 44.7938 21.1031L44.4563 21.6281L43.9125 21.1219C43.6125 20.8406 43.1438 20.475 42.8719 20.325L42.375 20.0438L42.6562 19.6875C42.8063 19.5 43.05 19.1156 43.1906 18.8344C43.4344 18.3656 43.4531 18.2438 43.4531 17.25C43.4531 16.2469 43.4344 16.1344 43.1813 15.6094C43.0219 15.3 42.6844 14.8313 42.4313 14.5688C42.1688 14.3156 41.7 13.9781 41.3906 13.8188C40.8656 13.5656 40.7531 13.5469 39.75 13.5469C38.7469 13.5469 38.6344 13.5656 38.1094 13.8188C37.8 13.9781 37.3313 14.3156 37.0688 14.5688C36.8156 14.8313 36.4781 15.3 36.3188 15.6094C36.0656 16.1344 36.0469 16.2469 36.0469 17.25C36.0469 18.2438 36.0656 18.3656 36.3094 18.8344C36.45 19.1156 36.6938 19.5 36.8438 19.6875L37.125 20.0438L36.6281 20.325C36.3563 20.475 35.8875 20.8313 35.5969 21.1125L35.0531 21.6281L34.8844 21.3844C34.5563 20.925 34.1438 20.0156 33.9938 19.4438C33.8063 18.7031 33.7969 17.2688 33.9844 16.5469C34.8094 13.3969 38.025 11.475 41.1938 12.2438ZM9.075 15.2438C10.5094 15.8344 10.8656 17.7469 9.74063 18.8156C8.3625 20.1188 6.09375 19.1531 6.09375 17.25C6.09375 16.4063 6.57188 15.6656 7.35938 15.2531C7.725 15.0563 8.625 15.0563 9.075 15.2438ZM40.575 15.2438C42.0094 15.8344 42.3656 17.7469 41.2406 18.8156C39.8625 20.1188 37.5938 19.1531 37.5938 17.25C37.5938 16.4063 38.0719 15.6656 38.8594 15.2531C39.225 15.0563 40.125 15.0563 40.575 15.2438ZM24.375 15.9375C24.7313 16.125 24.75 16.4344 24.75 22.5563V28.5H25.5H26.25V27.0469C26.25 25.4063 26.3531 24.9844 26.7563 24.8813C26.8875 24.8531 27.1125 24.8531 27.2438 24.8813C27.6469 24.9844 27.75 25.4063 27.75 27.0469V28.5H28.5H29.25V27.0469C29.25 25.4063 29.3531 24.9844 29.7563 24.8813C29.8875 24.8531 30.1125 24.8531 30.2438 24.8813C30.6469 24.9844 30.75 25.4063 30.75 27.0469V28.5H31.5H32.25V27.7969C32.25 26.6438 32.55 26.2125 33.2438 26.3813C33.7406 26.5125 33.75 26.6625 33.75 31.8C33.75 34.4625 33.7031 36.7969 33.6562 37.1719C33.525 38.0531 33.2625 38.5781 32.3063 39.8344L31.5 40.9031V41.8313V42.75H26.25H21V41.85V40.95L19.5469 37.95C18.7406 36.2906 18.0469 34.7531 18 34.5094C17.9438 34.275 17.7844 33.0563 17.625 31.8C17.2969 29.2031 17.1938 28.8469 16.3969 27.6C16.0875 27.1313 15.8438 26.6813 15.8438 26.6063C15.8438 25.9781 17.3719 26.3063 18.3375 27.1313C19.0312 27.7313 19.2469 28.2844 19.7812 30.9844C20.0438 32.325 20.2781 33.4969 20.3063 33.5813C20.3531 33.7313 20.4844 33.75 21.3188 33.75H22.2844L22.7438 32.7844L23.2031 31.8281L23.25 24.0938C23.2969 16.1906 23.3063 16.0406 23.6438 15.9094C23.85 15.825 24.1875 15.8438 24.375 15.9375ZM9.46875 21.2531C9.75 21.3281 10.1719 21.4969 10.4062 21.6281C10.8094 21.8625 11.7188 22.6594 11.7188 22.7906C11.7188 22.9125 10.2563 23.6156 9.69375 23.7563C9.36563 23.8406 8.7375 23.9063 8.25 23.9063C7.7625 23.9063 7.13438 23.8406 6.80625 23.7563C6.225 23.6063 4.78125 22.9125 4.78125 22.7813C4.78125 22.65 5.78438 21.7688 6.15 21.5813C7.24688 21.0375 8.2875 20.925 9.46875 21.2531ZM40.9688 21.2531C41.25 21.3281 41.6719 21.4969 41.9062 21.6281C42.3094 21.8625 43.2188 22.6594 43.2188 22.7906C43.2188 22.9125 41.7563 23.6156 41.1938 23.7563C40.8656 23.8406 40.2375 23.9063 39.75 23.9063C39.2625 23.9063 38.6344 23.8406 38.3063 23.7563C37.725 23.6063 36.2812 22.9125 36.2812 22.7813C36.2812 22.65 37.2844 21.7688 37.65 21.5813C38.7469 21.0375 39.7875 20.925 40.9688 21.2531ZM33 45V45.75H26.25H19.5V45V44.25H26.25H33V45Z" fill="#6E3D68"/>
<path d="M5.2501 31.9031V36.8156L5.0251 36.9187C4.63135 37.0969 4.09697 37.6312 3.92822 38.0156C3.69385 38.5219 3.69385 39.4875 3.92822 39.9844C4.30322 40.7906 5.05322 41.25 6.0001 41.25C6.94697 41.25 7.69697 40.7906 8.07197 39.9844C8.30635 39.4875 8.30635 38.5219 8.07197 38.0156C7.90322 37.6312 7.36885 37.0969 6.9751 36.9187L6.7501 36.8156V31.9031V27H6.0001H5.2501V31.9031ZM6.46885 38.5312C6.57197 38.6344 6.65635 38.8406 6.65635 39C6.65635 39.1594 6.57197 39.3656 6.46885 39.4687C6.06572 39.8719 5.34385 39.5719 5.34385 39C5.34385 38.6437 5.64385 38.3438 6.0001 38.3438C6.15947 38.3438 6.36572 38.4281 6.46885 38.5312Z" fill="#6E3D68"/>
<path d="M9.51562 27.1781C9.05625 27.3937 8.5875 27.8719 8.4 28.3312C8.19375 28.8094 8.2125 29.7656 8.42812 30.2344C8.59687 30.6187 9.13125 31.1531 9.525 31.3312L9.75 31.4344V36.3469V41.25H10.5H11.25L11.2594 36.3469V31.4531L11.7 31.1719C12.3844 30.7312 12.6937 30.2156 12.7312 29.4375C12.75 29.0812 12.7219 28.65 12.6562 28.4531C12.5062 27.9844 11.9531 27.3844 11.4844 27.1781C10.9781 26.9437 10.0125 26.9437 9.51562 27.1781ZM10.9687 28.7812C11.0719 28.8844 11.1562 29.0906 11.1562 29.25C11.1562 29.4094 11.0719 29.6156 10.9687 29.7187C10.5656 30.1219 9.84375 29.8219 9.84375 29.25C9.84375 28.8937 10.1437 28.5937 10.5 28.5937C10.6594 28.5937 10.8656 28.6781 10.9687 28.7812Z" fill="#6E3D68"/>
<path d="M38.2501 31.9031V36.8156L38.0251 36.9187C37.6313 37.0969 37.097 37.6312 36.9282 38.0156C36.6938 38.5219 36.6938 39.4875 36.9282 39.9844C37.3032 40.7906 38.0532 41.25 39.0001 41.25C39.947 41.25 40.697 40.7906 41.072 39.9844C41.3063 39.4875 41.3063 38.5219 41.072 38.0156C40.9032 37.6312 40.3688 37.0969 39.9751 36.9187L39.7501 36.8156V31.9031V27H39.0001H38.2501V31.9031ZM39.4688 38.5312C39.572 38.6344 39.6563 38.8406 39.6563 39C39.6563 39.1594 39.572 39.3656 39.4688 39.4687C39.0657 39.8719 38.3438 39.5719 38.3438 39C38.3438 38.6437 38.6438 38.3438 39.0001 38.3438C39.1595 38.3438 39.3657 38.4281 39.4688 38.5312Z" fill="#6E3D68"/>
<path d="M42.5156 27.1781C42.0562 27.3937 41.5875 27.8719 41.4 28.3312C41.1937 28.8094 41.2125 29.7656 41.4281 30.2344C41.5969 30.6187 42.1312 31.1531 42.525 31.3312L42.75 31.4344V36.3469V41.25H43.5H44.25L44.2594 36.3469V31.4531L44.7 31.1719C45.3844 30.7312 45.6937 30.2156 45.7312 29.4375C45.75 29.0812 45.7219 28.65 45.6562 28.4531C45.5062 27.9844 44.9531 27.3844 44.4844 27.1781C43.9781 26.9437 43.0125 26.9437 42.5156 27.1781ZM43.9687 28.7812C44.0719 28.8844 44.1562 29.0906 44.1562 29.25C44.1562 29.4094 44.0719 29.6156 43.9687 29.7187C43.8656 29.8219 43.6594 29.9062 43.5 29.9062C43.3406 29.9062 43.1344 29.8219 43.0312 29.7187C42.9281 29.6156 42.8437 29.4094 42.8437 29.25C42.8437 29.0906 42.9281 28.8844 43.0312 28.7812C43.1344 28.6781 43.3406 28.5937 43.5 28.5937C43.6594 28.5937 43.8656 28.6781 43.9687 28.7812Z" fill="#6E3D68"/>
</g>
<defs>
<clipPath id="clip0_7628_3411">
<rect width="48" height="48" fill="white"/>
</clipPath>
</defs>
</svg>
