<svg width="24" height="24" viewBox="0 0 24 24" fill="none" xmlns="http://www.w3.org/2000/svg">
<g clip-path="url(#clip0_7432_2832)">
<path d="M6.94287 18.1053C7.79308 17.8058 8.61526 17.432 9.39987 16.9883" stroke="#0F172A" stroke-width="1.5" stroke-linecap="round" stroke-linejoin="round"/>
<path d="M0.5 20C0.5 20.9283 0.868749 21.8185 1.52513 22.4749C2.1815 23.1313 3.07174 23.5 4 23.5C4.92826 23.5 5.8185 23.1313 6.47487 22.4749C7.13125 21.8185 7.5 20.9283 7.5 20C7.5 19.0717 7.13125 18.1815 6.47487 17.5251C5.8185 16.8687 4.92826 16.5 4 16.5C3.07174 16.5 2.1815 16.8687 1.52513 17.5251C0.868749 18.1815 0.5 19.0717 0.5 20Z" stroke="#0F172A" stroke-width="1.5" stroke-linecap="round" stroke-linejoin="round"/>
<path d="M3 20C3 20.2652 3.10536 20.5196 3.29289 20.7071C3.48043 20.8946 3.73478 21 4 21C4.26522 21 4.51957 20.8946 4.70711 20.7071C4.89464 20.5196 5 20.2652 5 20C5 19.7348 4.89464 19.4804 4.70711 19.2929C4.51957 19.1054 4.26522 19 4 19C3.73478 19 3.48043 19.1054 3.29289 19.2929C3.10536 19.4804 3 19.7348 3 20Z" stroke="#0F172A" stroke-width="1.5" stroke-linecap="round" stroke-linejoin="round"/>
<path d="M21.3608 22.5185L20.9328 23.4185L15.8168 20.1695C15.3509 19.8732 15.0093 19.4168 14.8563 18.8862C14.7033 18.3557 14.7493 17.7875 14.9858 17.2885C15.2219 16.7895 15.6322 16.3938 16.1395 16.1759C16.6469 15.9581 17.2163 15.9331 17.7408 16.1055L23.4998 17.9995L23.0718 18.8995" stroke="#0F172A" stroke-width="1.5" stroke-linecap="round" stroke-linejoin="round"/>
<path d="M12.99 14.5891C15.641 12.5831 20 8.78911 20 5.53111C20 0.0471073 13.118 -1.44889 11 3.53611C8.882 -1.44889 2 0.0471073 2 5.53111C2 10.2121 10.633 15.7601 11 16.0001C12.177 16.7701 14.358 17.7001 14.923 17.4341" stroke="#0F172A" stroke-width="1.5" stroke-linecap="round" stroke-linejoin="round"/>
</g>
<defs>
<clipPath id="clip0_7432_2832">
<rect width="24" height="24" fill="white"/>
</clipPath>
</defs>
</svg>
