<svg width="24" height="24" viewBox="0 0 24 24" fill="none" xmlns="http://www.w3.org/2000/svg">
<path d="M17.2707 9.1237C17.2707 8.99661 17.2202 8.87474 17.1303 8.78488C17.0405 8.69501 16.9186 8.64453 16.7915 8.64453H14.3957V6.2487C14.3957 6.12161 14.3452 5.99974 14.2553 5.90988C14.1655 5.82001 14.0436 5.76953 13.9165 5.76953H10.0832C9.95609 5.76953 9.83421 5.82001 9.74435 5.90988C9.65449 5.99974 9.604 6.12161 9.604 6.2487V8.64453H7.20817C7.08109 8.64453 6.95921 8.69501 6.86935 8.78488C6.77949 8.87474 6.729 8.99661 6.729 9.1237V12.957C6.729 13.0841 6.77949 13.206 6.86935 13.2959C6.95921 13.3857 7.08109 13.4362 7.20817 13.4362H9.604V15.832C9.604 15.9591 9.65449 16.081 9.74435 16.1709C9.83421 16.2607 9.95609 16.3112 10.0832 16.3112H13.9165C14.0436 16.3112 14.1655 16.2607 14.2553 16.1709C14.3452 16.081 14.3957 15.9591 14.3957 15.832V13.4362H16.7915C16.9186 13.4362 17.0405 13.3857 17.1303 13.2959C17.2202 13.206 17.2707 13.0841 17.2707 12.957V9.1237Z" stroke="#0F172A" stroke-width="1.5" stroke-linecap="round" stroke-linejoin="round"/>
<path d="M1.9375 4.11612V11.4349C1.96566 13.8532 2.73635 16.2045 4.1452 18.1703C5.55405 20.1361 7.53299 21.6214 9.81404 22.4251L10.8883 22.8218C11.606 23.0854 12.394 23.0854 13.1117 22.8218L14.186 22.4251C16.467 21.6214 18.446 20.1361 19.8548 18.1703C21.2637 16.2045 22.0343 13.8532 22.0625 11.4349V4.11612C22.0615 3.82858 21.9762 3.54764 21.8171 3.30812C21.658 3.06861 21.4321 2.88106 21.1674 2.7687C18.2643 1.55752 15.1455 0.948182 12 0.977578C8.85448 0.948182 5.73572 1.55752 2.83258 2.7687C2.5679 2.88106 2.342 3.06861 2.18289 3.30812C2.02379 3.54764 1.93846 3.82858 1.9375 4.11612Z" stroke="#0F172A" stroke-width="1.5" stroke-linecap="round" stroke-linejoin="round"/>
</svg>
