<svg width="48" height="48" viewBox="0 0 48 48" fill="none" xmlns="http://www.w3.org/2000/svg">
<path d="M11.1563 2.05313C9.96564 2.44688 9.00002 3.60938 9.00002 4.65938V4.96875H7.65939C5.55002 4.96875 4.63127 5.29688 3.45939 6.45938C2.70939 7.21875 2.36252 7.8 2.10939 8.775C1.89377 9.6 1.90314 36.3 2.10939 37.2094C2.42814 38.5406 3.49689 39.9 4.68752 40.4813C5.86877 41.0625 5.82189 41.0625 14.4 41.0625H22.1906L22.5094 40.8469C23.025 40.5 23.1094 39.7781 22.6969 39.2719L22.5188 39.0469L14.4656 39L6.42189 38.9531L5.84064 38.6813C5.16564 38.3719 4.58439 37.8 4.28439 37.1438L4.07814 36.7031L4.05002 25.8469L4.03127 15H20.4844H36.9375V18.2438C36.9375 20.9719 36.9563 21.5344 37.0781 21.7969C37.3969 22.4438 38.3531 22.5469 38.8125 21.9656C39 21.7313 39 21.6281 39 15.4219C39 9.9375 38.9813 9.06563 38.85 8.61563C38.4469 7.25625 37.4719 6.075 36.2719 5.50313C35.3438 5.0625 34.8188 4.96875 33.3281 4.96875H32.0813L32.0156 4.56563C31.8563 3.58125 31.2 2.67188 30.3281 2.25C29.6531 1.92188 28.6313 1.88438 27.8906 2.16563C26.8781 2.54063 25.9688 3.74063 25.9688 4.6875V4.96875H20.4844H15V4.65938C15 3.80625 14.2688 2.7375 13.3688 2.27813C12.9938 2.08125 12.7313 2.025 12.1406 2.00625C11.7281 1.9875 11.2875 2.00625 11.1563 2.05313ZM12.6844 4.40625C12.9375 4.6875 12.9375 4.70625 12.9375 6V7.3125L12.6656 7.6125C12.4406 7.86563 12.3281 7.92188 12 7.92188C11.6719 7.92188 11.5594 7.86563 11.3344 7.6125L11.0625 7.3125V6.00938C11.0625 4.82813 11.0813 4.6875 11.2594 4.4625C11.6625 3.95625 12.2438 3.92813 12.6844 4.40625ZM29.3813 4.17188C29.5406 4.24688 29.7281 4.40625 29.8031 4.51875C29.9625 4.77188 30.0469 6.15 29.9625 6.87188C29.85 7.71563 29.2313 8.15625 28.6031 7.82813C28.125 7.58438 28.0313 7.275 28.0313 6C28.0313 4.74375 28.125 4.41563 28.575 4.18125C28.9031 4.00313 29.0156 4.00313 29.3813 4.17188ZM9.00002 7.34063C9.00002 8.30625 9.88127 9.45938 10.9031 9.83438C11.6063 10.0875 12.3938 10.0875 13.0969 9.83438C14.1188 9.45938 15 8.30625 15 7.34063V7.03125H20.4844H25.9688V7.3125C25.9688 7.7625 26.325 8.57813 26.7281 9.02813C26.9344 9.27188 27.3375 9.57188 27.6375 9.72188C28.1063 9.94688 28.275 9.98438 29.0156 9.98438C29.7188 9.98438 29.9344 9.94688 30.3281 9.75C31.2094 9.31875 31.8563 8.42813 32.0156 7.425L32.0813 7.0125L33.375 7.05C34.6313 7.07813 34.6781 7.0875 35.3063 7.40625C35.7656 7.64063 36.0469 7.86563 36.3 8.20313C36.8531 8.925 36.9375 9.34688 36.9375 11.2688V12.9375H20.475H4.01252L4.05002 11.1281C4.08752 9.06563 4.18127 8.72813 4.90314 7.9875C5.64377 7.22813 6.16877 7.05 7.85627 7.04063L9.00002 7.03125V7.34063Z" fill="#6E3D68"/>
<path d="M8.10939 18.1594C7.62189 18.4125 7.22814 18.8625 7.06877 19.3312C6.94689 19.6969 6.92814 20.1281 6.95627 21.675C6.98439 23.5031 6.99377 23.5969 7.21877 24C7.35002 24.225 7.64064 24.5437 7.85627 24.7031L8.26877 24.9844H10.5H12.7313L13.1438 24.7031C13.3594 24.5437 13.65 24.225 13.7813 24C14.0063 23.5969 14.0156 23.5031 14.0438 21.7125C14.0813 19.6312 14.025 19.2469 13.575 18.7125C13.0219 18.0469 12.8344 18 10.4813 18C8.76564 18.0094 8.34377 18.0375 8.10939 18.1594ZM12 21.5156V22.9688H10.5H9.00002V21.5156V20.0625H10.5H12V21.5156Z" fill="#6E3D68"/>
<path d="M18.1406 18.1312C17.7281 18.3187 17.3625 18.6937 17.1562 19.1437C16.9969 19.5 16.9688 19.7719 16.9688 21.4969C16.9688 23.6156 17.0156 23.8875 17.5125 24.4125C18.0375 24.9656 18.3094 25.0312 20.4937 25.0312C22.4156 25.0312 22.4719 25.0219 22.9406 24.7969C23.2406 24.6469 23.5125 24.4125 23.6812 24.1687L23.9531 23.7844L23.9812 21.6C24.0094 19.5844 24 19.3875 23.8219 19.0594C23.6156 18.6469 23.325 18.3656 22.9031 18.15C22.65 18.0281 22.2562 18 20.5125 18C18.9844 18.0094 18.3469 18.0375 18.1406 18.1312ZM21.9375 21.5156V22.9688H20.4844H19.0312V21.5156V20.0625H20.4844H21.9375V21.5156Z" fill="#6E3D68"/>
<path d="M28.0781 18.1437C27.6656 18.3687 27.375 18.65 27.1781 19.0437C27.0188 19.3531 27 19.6062 27 21.3594C27 23.2812 27.0094 23.3375 27.2156 23.5812C27.3844 23.7687 27.5438 23.8438 27.9094 23.8719C28.3313 23.9188 28.4156 23.8906 28.6969 23.6375L29.0156 23.3562L29.0438 21.7062L29.0719 20.0562H30.5156H31.95L31.9781 20.8437C32.0156 21.7437 32.1469 21.9594 32.7281 22.1281C33.0188 22.2219 33.1313 22.2125 33.4313 22.0625C33.9375 21.8187 34.0313 21.575 34.0313 20.4687C34.0313 19.6531 34.0031 19.4656 33.7969 19.0531C33.6469 18.7531 33.4125 18.4812 33.1688 18.3125L32.7844 18.0406L30.5719 18.0219C28.6875 18.0031 28.3219 18.0219 28.0781 18.1437Z" fill="#6E3D68"/>
<path d="M33.1407 24.0904C28.4438 24.9341 24.8063 28.6279 24.0844 33.3154C23.9063 34.431 24.0282 36.7185 24.3094 37.806C24.5907 38.8466 25.2751 40.3654 25.8751 41.256C26.4376 42.081 27.5719 43.2435 28.4438 43.8904C32.0907 46.6091 37.2938 46.7404 41.0813 44.2185C44.7282 41.7997 46.5844 37.5154 45.8907 33.1841C45.3094 29.6497 43.0501 26.631 39.7876 25.056C38.1751 24.2779 37.2376 24.0716 35.2501 24.0341C34.3501 24.0247 33.4032 24.0435 33.1407 24.0904ZM37.1719 26.3216C42.1969 27.6997 45.0563 32.781 43.5282 37.6279C42.5344 40.7779 40.0126 43.056 36.7032 43.7872C36.3751 43.8622 35.6251 43.9091 34.9219 43.8997C33.9376 43.8997 33.5344 43.8529 32.7938 43.656C31.1251 43.2154 29.6813 42.3529 28.4907 41.0779C27.6188 40.1497 26.9719 39.0716 26.5688 37.8997C26.1563 36.681 26.0251 35.7997 26.0907 34.5435C26.2876 30.4279 29.2219 27.0716 33.3751 26.1904C34.2282 26.0122 36.3001 26.0872 37.1719 26.3216Z" fill="#6E3D68"/>
<path d="M34.425 29.1152C33.9656 29.434 33.9375 29.6121 33.9375 32.4809C33.9375 34.7309 33.9656 35.2184 34.0875 35.4809C34.1625 35.6496 34.725 36.2777 35.3344 36.8684C36.1969 37.7121 36.5156 37.9652 36.7688 38.0121C37.5 38.1527 38.1562 37.4965 38.0156 36.7746C37.9688 36.5121 37.725 36.2027 36.975 35.434L36 34.4309V32.0215C36 30.5496 35.9625 29.5371 35.9063 29.4246C35.6813 29.0121 34.8375 28.8246 34.425 29.1152Z" fill="#6E3D68"/>
<path d="M8.41875 28.0312C7.92188 28.1812 7.5 28.5187 7.2375 28.95L6.98438 29.3906V31.5V33.6094L7.24688 34.05C7.41563 34.3406 7.65938 34.5844 7.95 34.7531L8.39062 35.0156H10.5C12.7969 35.0156 12.8813 34.9969 13.4438 34.4437C13.9969 33.8812 14.0156 33.7969 14.0156 31.5V29.3906L13.7531 28.95C13.5844 28.6594 13.3406 28.4156 13.05 28.2469C12.6094 27.9844 12.6094 27.9844 10.6406 27.9656C9.55313 27.9562 8.55938 27.9844 8.41875 28.0312ZM12 31.5V33H10.5H9V31.5V30H10.5H12V31.5Z" fill="#6E3D68"/>
<path d="M18.3563 28.0621C17.8219 28.2496 17.5594 28.4559 17.2688 28.8871L17.0156 29.2809V31.5027V33.7246L17.2969 34.1371C17.4563 34.3527 17.775 34.6434 18 34.7746C18.3844 34.9902 18.5438 35.009 19.6688 35.0371C20.3531 35.0559 21.0563 35.0465 21.2344 35.0184C21.8719 34.8965 22.2469 34.2121 21.9938 33.6121C21.7688 33.059 21.5719 32.9934 20.2313 32.9934H19.0312V31.484V29.9652L20.8781 30.0121L22.7344 30.059L23.0344 29.759C23.5875 29.2059 23.3813 28.3715 22.6313 28.0621C22.2 27.884 18.8531 27.884 18.3563 28.0621Z" fill="#6E3D68"/>
</svg>
