<svg width="139" height="36" viewBox="0 0 139 36" fill="none" xmlns="http://www.w3.org/2000/svg">
<path d="M18.4833 13.2097C18.4833 19.3447 14.2699 23.568 7.6978 23.568H0L0 2.85149H7.70852C14.2699 2.85149 18.4833 7.04231 18.4833 13.2097ZM7.38689 19.2043C11.1715 19.2043 13.3907 17.0225 13.3907 13.2097C13.3907 9.39694 11.1607 7.16112 7.38689 7.16112H5.00679V19.2043H7.38689Z" fill="url(#paint0_linear_8020_4756)"/>
<path d="M30.6089 23.784C24.7766 23.784 20.0379 19.388 20.0379 13.1557C20.0379 6.9235 24.7873 2.55986 30.6089 2.55986C36.4734 2.55986 41.1264 6.9235 41.1264 13.1557C41.1264 19.3771 36.4305 23.784 30.6089 23.784ZM30.6089 19.1719C33.8896 19.1719 36.0339 16.7849 36.0339 13.1557C36.0339 9.46175 33.9003 7.13952 30.6089 7.13952C27.2639 7.13952 25.1626 9.47255 25.1626 13.1557C25.1519 16.7849 27.2639 19.1719 30.6089 19.1719Z" fill="url(#paint1_linear_8020_4756)"/>
<path d="M53.3914 2.61386C58.2803 2.61386 61.9791 5.38974 63.1477 9.87219H57.637C56.79 8.10081 55.2355 7.21513 53.3271 7.21513C50.2501 7.21513 48.1381 9.51576 48.1381 13.1773C48.1381 16.8389 50.2501 19.1395 53.3271 19.1395C55.2355 19.1395 56.7793 18.2538 57.637 16.4825H63.1477C61.9791 20.9649 58.2803 23.7084 53.3914 23.7084C47.3233 23.7084 43.0455 19.3663 43.0455 13.1665C43.0562 6.9883 47.334 2.61386 53.3914 2.61386Z" fill="url(#paint2_linear_8020_4756)"/>
<path d="M74.8767 2.61386C79.7655 2.61386 83.4643 5.38974 84.6329 9.87219H79.1222C78.2753 8.10081 76.7207 7.21513 74.8123 7.21513C71.7354 7.21513 69.6233 9.51576 69.6233 13.1773C69.6233 16.8389 71.7354 19.1395 74.8123 19.1395C76.7207 19.1395 78.2645 18.2538 79.1222 16.4825H84.6329C83.4643 20.9649 79.7655 23.7084 74.8767 23.7084C68.8085 23.7084 64.5307 19.3663 64.5307 13.1665C64.5415 6.9883 68.8192 2.61386 74.8767 2.61386Z" fill="url(#paint3_linear_8020_4756)"/>
<path d="M137.553 6.90189H129.962V11.0927H136.673V14.9919H129.962V19.5392H137.553V23.5788H124.955V2.85149L137.553 2.85149V6.90189Z" fill="url(#paint4_linear_8020_4756)"/>
<path d="M117.643 23.568H123.454L117.665 15.3591C120.828 14.4194 122.232 11.9676 122.232 9.36454C122.232 5.76778 119.713 2.84069 114.674 2.84069H106.268V23.5572H111.275V16.6337H112.969L117.643 23.568ZM111.275 7.04231H114.384C116.26 7.04231 117.14 8.04681 117.14 9.58056C117.14 11.2007 116.26 12.1728 114.384 12.1728H111.275V7.04231Z" fill="url(#paint5_linear_8020_4756)"/>
<path d="M134.261 33.3645C135.368 33.3645 136.266 32.4603 136.266 31.3447C136.266 30.2292 135.368 29.3249 134.261 29.3249C133.154 29.3249 132.256 30.2292 132.256 31.3447C132.256 32.4603 133.154 33.3645 134.261 33.3645Z" fill="url(#paint6_linear_8020_4756)"/>
<path d="M134.24 26.4626C132.739 26.4626 131.409 27.1647 130.541 28.2664L124.333 28.1692V30.0162H101.047C100.725 30.0162 100.404 29.9082 100.404 29.9082V29.8974C97.7771 29.0009 96.973 27.2079 96.7264 26.2358C98.0987 25.793 99.2995 24.5725 99.3316 22.8335C101.722 21.5806 103.374 19.0423 103.374 15.2079V9.51575H103.363L102.516 8.70567L102.323 3.89919L101.165 2.63546C101.176 2.54905 101.186 2.45185 101.186 2.36544C101.186 1.05851 100.125 0 98.817 0C97.509 0 96.4477 1.05851 96.4477 2.36544C96.4477 3.67237 97.509 4.73087 98.817 4.73087C98.9135 4.73087 99.01 4.72007 99.0958 4.70927L99.4818 5.44374V8.71647L98.817 9.51575H98.7849V15.2511C98.7849 17.703 97.627 19.1179 95.4506 19.1179C93.2742 19.1179 92.1699 17.703 92.1699 15.2511V9.51575H92.1485L91.4945 8.71647V5.44374L91.8697 4.70927C91.9662 4.72007 92.052 4.73087 92.1485 4.73087C93.4457 4.73087 94.4964 3.67237 94.4964 2.36544C94.4964 1.05851 93.4457 0 92.1485 0C90.8512 0 89.8005 1.05851 89.8005 2.36544C89.8005 2.46265 89.8112 2.54905 89.822 2.63546L88.6748 3.89919L88.4818 8.70567L87.6456 9.51575H87.5812V15.2187C87.5812 19.2907 89.3074 21.9046 91.8912 23.0711C92.0734 24.7777 93.1991 25.8902 94.5178 26.279C94.9789 30.1134 98.6348 32.0576 99.8892 32.2952C99.8892 32.2952 100.157 32.3816 100.565 32.414H124.366V34.2934H130.648C131.517 35.3303 132.814 36 134.272 36C136.888 36 139 33.8722 139 31.2367C138.968 28.6013 136.856 26.4626 134.24 26.4626ZM95.5685 25.2529C94.3249 25.2529 93.4028 24.5725 92.974 23.4707C93.7245 23.676 94.5178 23.784 95.3541 23.784C96.3619 23.784 97.3268 23.6328 98.2166 23.3303H98.2059C97.7878 24.4969 96.8551 25.2529 95.5685 25.2529ZM134.24 34.6715C132.353 34.6715 130.82 33.1269 130.82 31.2259C130.82 29.3249 132.353 27.7804 134.24 27.7804C136.127 27.7804 137.66 29.3249 137.66 31.2259C137.66 33.1269 136.127 34.6715 134.24 34.6715Z" fill="url(#paint7_linear_8020_4756)"/>
<defs>
<linearGradient id="paint0_linear_8020_4756" x1="0" y1="18" x2="139" y2="18" gradientUnits="userSpaceOnUse">
<stop stop-color="#0A74C1"/>
<stop offset="1" stop-color="#C71F37"/>
</linearGradient>
<linearGradient id="paint1_linear_8020_4756" x1="0" y1="18" x2="139" y2="18" gradientUnits="userSpaceOnUse">
<stop stop-color="#0A74C1"/>
<stop offset="1" stop-color="#C71F37"/>
</linearGradient>
<linearGradient id="paint2_linear_8020_4756" x1="0" y1="18" x2="139" y2="18" gradientUnits="userSpaceOnUse">
<stop stop-color="#0A74C1"/>
<stop offset="1" stop-color="#C71F37"/>
</linearGradient>
<linearGradient id="paint3_linear_8020_4756" x1="0" y1="18" x2="139" y2="18" gradientUnits="userSpaceOnUse">
<stop stop-color="#0A74C1"/>
<stop offset="1" stop-color="#C71F37"/>
</linearGradient>
<linearGradient id="paint4_linear_8020_4756" x1="0" y1="18" x2="139" y2="18" gradientUnits="userSpaceOnUse">
<stop stop-color="#0A74C1"/>
<stop offset="1" stop-color="#C71F37"/>
</linearGradient>
<linearGradient id="paint5_linear_8020_4756" x1="0" y1="18" x2="139" y2="18" gradientUnits="userSpaceOnUse">
<stop stop-color="#0A74C1"/>
<stop offset="1" stop-color="#C71F37"/>
</linearGradient>
<linearGradient id="paint6_linear_8020_4756" x1="0" y1="18" x2="139" y2="18" gradientUnits="userSpaceOnUse">
<stop stop-color="#0A74C1"/>
<stop offset="1" stop-color="#C71F37"/>
</linearGradient>
<linearGradient id="paint7_linear_8020_4756" x1="0" y1="18" x2="139" y2="18" gradientUnits="userSpaceOnUse">
<stop stop-color="#0A74C1"/>
<stop offset="1" stop-color="#C71F37"/>
</linearGradient>
</defs>
</svg>
