<svg width="156" height="40" viewBox="0 0 156 40" fill="none" xmlns="http://www.w3.org/2000/svg">
<path d="M20.7438 14.6775C20.7438 21.4942 16.0151 26.1866 8.63926 26.1866H0L0 3.16832H8.65129C16.0151 3.16832 20.7438 7.82479 20.7438 14.6775ZM8.29032 21.3381C12.5378 21.3381 15.0285 18.9139 15.0285 14.6775C15.0285 10.441 12.5257 7.9568 8.29032 7.9568H5.61913V21.3381H8.29032Z" fill="url(#paint0_linear_7093_4681)"/>
<path d="M34.3525 26.4267C27.8069 26.4267 22.4885 21.5422 22.4885 14.6175C22.4885 7.69277 27.8189 2.84429 34.3525 2.84429C40.9342 2.84429 46.1563 7.69277 46.1563 14.6175C46.1563 21.5302 40.8861 26.4267 34.3525 26.4267ZM34.3525 21.3021C38.0344 21.3021 40.4409 18.6499 40.4409 14.6175C40.4409 10.5131 38.0464 7.9328 34.3525 7.9328C30.5984 7.9328 28.24 10.5251 28.24 14.6175C28.228 18.6499 30.5984 21.3021 34.3525 21.3021Z" fill="url(#paint1_linear_7093_4681)"/>
<path d="M59.9213 2.90429C65.4081 2.90429 69.5593 5.9886 70.8708 10.9691H64.6861C63.7356 9.00091 61.9909 8.01681 59.8491 8.01681C56.3958 8.01681 54.0254 10.5731 54.0254 14.6415C54.0254 18.7099 56.3958 21.2661 59.8491 21.2661C61.9909 21.2661 63.7235 20.282 64.6861 18.3138H70.8708C69.5593 23.2943 65.4081 26.3426 59.9213 26.3426C53.111 26.3426 48.3101 21.5182 48.3101 14.6295C48.3221 7.76478 53.123 2.90429 59.9213 2.90429Z" fill="url(#paint2_linear_7093_4681)"/>
<path d="M84.0342 2.90429C89.521 2.90429 93.6722 5.9886 94.9837 10.9691H88.7991C87.8485 9.00091 86.1038 8.01681 83.9621 8.01681C80.5088 8.01681 78.1384 10.5731 78.1384 14.6415C78.1384 18.7099 80.5088 21.2661 83.9621 21.2661C86.1038 21.2661 87.8365 20.282 88.7991 18.3138H94.9837C93.6722 23.2943 89.521 26.3426 84.0342 26.3426C77.2239 26.3426 72.423 21.5182 72.423 14.6295C72.435 7.76478 77.2359 2.90429 84.0342 2.90429Z" fill="url(#paint3_linear_7093_4681)"/>
<path d="M154.376 7.66877H145.857V12.3252H153.389V16.6577H145.857V21.7102H154.376V26.1986H140.238V3.16832H154.376V7.66877Z" fill="url(#paint4_linear_7093_4681)"/>
<path d="M132.031 26.1866H138.553L132.056 17.0657C135.605 16.0216 137.181 13.2973 137.181 10.405C137.181 6.40864 134.354 3.15632 128.698 3.15632L119.265 3.15632V26.1746H124.884V18.4819H126.785L132.031 26.1866ZM124.884 7.82479H128.374C130.479 7.82479 131.466 8.9409 131.466 10.6451C131.466 12.4452 130.479 13.5254 128.374 13.5254H124.884V7.82479Z" fill="url(#paint5_linear_7093_4681)"/>
<path d="M150.682 37.0717C151.924 37.0717 152.932 36.0669 152.932 34.8275C152.932 33.588 151.924 32.5833 150.682 32.5833C149.439 32.5833 148.432 33.588 148.432 34.8275C148.432 36.0669 149.439 37.0717 150.682 37.0717Z" fill="url(#paint6_linear_7093_4681)"/>
<path d="M150.658 29.4029C148.973 29.4029 147.481 30.183 146.506 31.4071L139.54 31.2991V33.3513H113.405C113.044 33.3513 112.683 33.2313 112.683 33.2313V33.2193C109.735 32.2232 108.833 30.231 108.556 29.1509C110.096 28.6589 111.444 27.3027 111.48 25.3705C114.163 23.9784 116.016 21.1581 116.016 16.8977V10.5731H116.004L115.054 9.67297L114.837 4.33243L113.538 2.92829C113.55 2.83228 113.562 2.72427 113.562 2.62826C113.562 1.17612 112.371 0 110.903 0C109.435 0 108.243 1.17612 108.243 2.62826C108.243 4.08041 109.435 5.25653 110.903 5.25653C111.011 5.25653 111.119 5.24452 111.215 5.23252L111.649 6.04861V9.68497L110.903 10.5731H110.866V16.9457C110.866 19.67 109.567 21.2421 107.124 21.2421C104.682 21.2421 103.442 19.67 103.442 16.9457V10.5731H103.418L102.684 9.68497V6.04861L103.106 5.23252C103.214 5.24452 103.31 5.25653 103.418 5.25653C104.874 5.25653 106.054 4.08041 106.054 2.62826C106.054 1.17612 104.874 0 103.418 0C101.963 0 100.783 1.17612 100.783 2.62826C100.783 2.73627 100.795 2.83228 100.807 2.92829L99.5199 4.33243L99.3033 9.67297L98.3648 10.5731H98.2926V16.9097C98.2926 21.4341 100.23 24.3384 103.13 25.6346C103.334 27.5308 104.598 28.7669 106.078 29.1989C106.595 33.4593 110.698 35.6196 112.106 35.8836C112.106 35.8836 112.407 35.9796 112.864 36.0156H139.576V38.1038H146.627C147.601 39.2559 149.057 40 150.694 40C153.63 40 156 37.6358 156 34.7075C155.964 31.7792 153.594 29.4029 150.658 29.4029ZM107.257 28.0588C105.861 28.0588 104.826 27.3027 104.345 26.0786C105.187 26.3066 106.078 26.4266 107.016 26.4266C108.147 26.4266 109.23 26.2586 110.229 25.9226H110.217C109.747 27.2187 108.701 28.0588 107.257 28.0588ZM150.658 38.5239C148.54 38.5239 146.819 36.8077 146.819 34.6955C146.819 32.5833 148.54 30.8671 150.658 30.8671C152.775 30.8671 154.496 32.5833 154.496 34.6955C154.496 36.8077 152.775 38.5239 150.658 38.5239Z" fill="url(#paint7_linear_7093_4681)"/>
<defs>
<linearGradient id="paint0_linear_7093_4681" x1="0" y1="20" x2="156" y2="20" gradientUnits="userSpaceOnUse">
<stop offset="0.307692" stop-color="#009BA7"/>
<stop offset="1" stop-color="#E8E828"/>
</linearGradient>
<linearGradient id="paint1_linear_7093_4681" x1="0" y1="20" x2="156" y2="20" gradientUnits="userSpaceOnUse">
<stop offset="0.307692" stop-color="#009BA7"/>
<stop offset="1" stop-color="#E8E828"/>
</linearGradient>
<linearGradient id="paint2_linear_7093_4681" x1="0" y1="20" x2="156" y2="20" gradientUnits="userSpaceOnUse">
<stop offset="0.307692" stop-color="#009BA7"/>
<stop offset="1" stop-color="#E8E828"/>
</linearGradient>
<linearGradient id="paint3_linear_7093_4681" x1="0" y1="20" x2="156" y2="20" gradientUnits="userSpaceOnUse">
<stop offset="0.307692" stop-color="#009BA7"/>
<stop offset="1" stop-color="#E8E828"/>
</linearGradient>
<linearGradient id="paint4_linear_7093_4681" x1="0" y1="20" x2="156" y2="20" gradientUnits="userSpaceOnUse">
<stop offset="0.307692" stop-color="#009BA7"/>
<stop offset="1" stop-color="#E8E828"/>
</linearGradient>
<linearGradient id="paint5_linear_7093_4681" x1="0" y1="20" x2="156" y2="20" gradientUnits="userSpaceOnUse">
<stop offset="0.307692" stop-color="#009BA7"/>
<stop offset="1" stop-color="#E8E828"/>
</linearGradient>
<linearGradient id="paint6_linear_7093_4681" x1="0" y1="20" x2="156" y2="20" gradientUnits="userSpaceOnUse">
<stop offset="0.307692" stop-color="#009BA7"/>
<stop offset="1" stop-color="#E8E828"/>
</linearGradient>
<linearGradient id="paint7_linear_7093_4681" x1="0" y1="20" x2="156" y2="20" gradientUnits="userSpaceOnUse">
<stop offset="0.307692" stop-color="#009BA7"/>
<stop offset="1" stop-color="#E8E828"/>
</linearGradient>
</defs>
</svg>
