<svg width="155" height="40" viewBox="0 0 155 40" fill="none" xmlns="http://www.w3.org/2000/svg">
<path d="M20.6109 14.6775C20.6109 21.4942 15.9125 26.1866 8.58388 26.1866H0L0 3.16832H8.59583C15.9125 3.16832 20.6109 7.82478 20.6109 14.6775ZM8.23718 21.3381C12.4574 21.3381 14.9321 18.9139 14.9321 14.6775C14.9321 10.441 12.4454 7.9568 8.23718 7.9568H5.58311V21.3381H8.23718Z" fill="url(#paint0_linear_7940_26237)"/>
<path d="M34.1323 26.4267C27.6286 26.4267 22.3444 21.5422 22.3444 14.6175C22.3444 7.69277 27.6406 2.84429 34.1323 2.84429C40.6718 2.84429 45.8604 7.69277 45.8604 14.6175C45.8604 21.5302 40.624 26.4267 34.1323 26.4267ZM34.1323 21.3021C37.7906 21.3021 40.1816 18.6499 40.1816 14.6175C40.1816 10.5131 37.8025 7.9328 34.1323 7.9328C30.4022 7.9328 28.059 10.5251 28.059 14.6175C28.047 18.6499 30.4022 21.3021 34.1323 21.3021Z" fill="url(#paint1_linear_7940_26237)"/>
<path d="M59.5372 2.90429C64.9888 2.90429 69.1134 5.9886 70.4165 10.9691H64.2715C63.327 9.0009 61.5935 8.0168 59.4655 8.0168C56.0343 8.0168 53.6791 10.5731 53.6791 14.6415C53.6791 18.7099 56.0343 21.2661 59.4655 21.2661C61.5935 21.2661 63.3151 20.282 64.2715 18.3138H70.4165C69.1134 23.2943 64.9888 26.3426 59.5372 26.3426C52.7705 26.3426 48.0004 21.5182 48.0004 14.6295C48.0123 7.76478 52.7825 2.90429 59.5372 2.90429Z" fill="url(#paint2_linear_7940_26237)"/>
<path d="M83.4956 2.90429C88.9472 2.90429 93.0717 5.9886 94.3749 10.9691H88.2298C87.2854 9.0009 85.5519 8.0168 83.4238 8.0168C79.9927 8.0168 77.6375 10.5731 77.6375 14.6415C77.6375 18.7099 79.9927 21.2661 83.4238 21.2661C85.5519 21.2661 87.2734 20.282 88.2298 18.3138H94.3749C93.0717 23.2943 88.9472 26.3426 83.4956 26.3426C76.7289 26.3426 71.9587 21.5182 71.9587 14.6295C71.9707 7.76478 76.7408 2.90429 83.4956 2.90429Z" fill="url(#paint3_linear_7940_26237)"/>
<path d="M153.386 7.66877H144.922V12.3252H152.406V16.6577H144.922V21.7102H153.386V26.1986H139.339V3.16832H153.386V7.66877Z" fill="url(#paint4_linear_7940_26237)"/>
<path d="M131.185 26.1866H137.665L131.209 17.0657C134.736 16.0216 136.302 13.2973 136.302 10.405C136.302 6.40864 133.492 3.15632 127.873 3.15632H118.501V26.1746H124.084V18.4819H125.973L131.185 26.1866ZM124.084 7.82479H127.551C129.643 7.82479 130.623 8.9409 130.623 10.6451C130.623 12.4452 129.643 13.5254 127.551 13.5254H124.084V7.82479Z" fill="url(#paint5_linear_7940_26237)"/>
<path d="M149.716 37.0717C150.95 37.0717 151.951 36.0669 151.951 34.8275C151.951 33.588 150.95 32.5833 149.716 32.5833C148.481 32.5833 147.48 33.588 147.48 34.8275C147.48 36.0669 148.481 37.0717 149.716 37.0717Z" fill="url(#paint6_linear_7940_26237)"/>
<path d="M149.692 29.4029C148.018 29.4029 146.536 30.183 145.567 31.4071L138.645 31.2991V33.3513H112.678C112.32 33.3513 111.961 33.2313 111.961 33.2313V33.2193C109.032 32.2232 108.135 30.231 107.86 29.1509C109.391 28.6589 110.73 27.3027 110.766 25.3705C113.432 23.9784 115.273 21.1581 115.273 16.8977V10.5731H115.261L114.316 9.67297L114.101 4.33243L112.81 2.92829C112.822 2.83228 112.834 2.72427 112.834 2.62826C112.834 1.17612 111.65 0 110.192 0C108.733 0 107.55 1.17612 107.55 2.62826C107.55 4.08041 108.733 5.25653 110.192 5.25653C110.299 5.25653 110.407 5.24452 110.502 5.23252L110.933 6.0486V9.68497L110.192 10.5731H110.156V16.9457C110.156 19.67 108.865 21.2421 106.438 21.2421C104.011 21.2421 102.779 19.67 102.779 16.9457V10.5731H102.755L102.026 9.68497V6.0486L102.445 5.23252C102.552 5.24452 102.648 5.25653 102.755 5.25653C104.202 5.25653 105.374 4.08041 105.374 2.62826C105.374 1.17612 104.202 0 102.755 0C101.309 0 100.137 1.17612 100.137 2.62826C100.137 2.73627 100.149 2.83228 100.161 2.92829L98.882 4.33243L98.6668 9.67297L97.7343 10.5731H97.6625V16.9097C97.6625 21.4341 99.5873 24.3384 102.469 25.6346C102.672 27.5308 103.927 28.7669 105.398 29.1989C105.912 33.4593 109.988 35.6196 111.387 35.8836C111.387 35.8836 111.686 35.9796 112.14 36.0156H138.681V38.1038H145.687C146.655 39.2559 148.102 40 149.728 40C152.645 40 155 37.6358 155 34.7075C154.964 31.7792 152.609 29.4029 149.692 29.4029ZM106.569 28.0588C105.182 28.0588 104.154 27.3027 103.676 26.0786C104.513 26.3066 105.398 26.4266 106.33 26.4266C107.454 26.4266 108.53 26.2586 109.522 25.9226H109.51C109.044 27.2187 108.004 28.0588 106.569 28.0588ZM149.692 38.5238C147.588 38.5238 145.878 36.8077 145.878 34.6955C145.878 32.5833 147.588 30.8671 149.692 30.8671C151.796 30.8671 153.506 32.5833 153.506 34.6955C153.506 36.8077 151.796 38.5238 149.692 38.5238Z" fill="url(#paint7_linear_7940_26237)"/>
<defs>
<linearGradient id="paint0_linear_7940_26237" x1="0" y1="20" x2="155" y2="20" gradientUnits="userSpaceOnUse">
<stop stop-color="#316DFF"/>
<stop offset="1" stop-color="#02BFFF"/>
</linearGradient>
<linearGradient id="paint1_linear_7940_26237" x1="0" y1="20" x2="155" y2="20" gradientUnits="userSpaceOnUse">
<stop stop-color="#316DFF"/>
<stop offset="1" stop-color="#02BFFF"/>
</linearGradient>
<linearGradient id="paint2_linear_7940_26237" x1="0" y1="20" x2="155" y2="20" gradientUnits="userSpaceOnUse">
<stop stop-color="#316DFF"/>
<stop offset="1" stop-color="#02BFFF"/>
</linearGradient>
<linearGradient id="paint3_linear_7940_26237" x1="0" y1="20" x2="155" y2="20" gradientUnits="userSpaceOnUse">
<stop stop-color="#316DFF"/>
<stop offset="1" stop-color="#02BFFF"/>
</linearGradient>
<linearGradient id="paint4_linear_7940_26237" x1="0" y1="20" x2="155" y2="20" gradientUnits="userSpaceOnUse">
<stop stop-color="#316DFF"/>
<stop offset="1" stop-color="#02BFFF"/>
</linearGradient>
<linearGradient id="paint5_linear_7940_26237" x1="0" y1="20" x2="155" y2="20" gradientUnits="userSpaceOnUse">
<stop stop-color="#316DFF"/>
<stop offset="1" stop-color="#02BFFF"/>
</linearGradient>
<linearGradient id="paint6_linear_7940_26237" x1="0" y1="20" x2="155" y2="20" gradientUnits="userSpaceOnUse">
<stop stop-color="#316DFF"/>
<stop offset="1" stop-color="#02BFFF"/>
</linearGradient>
<linearGradient id="paint7_linear_7940_26237" x1="0" y1="20" x2="155" y2="20" gradientUnits="userSpaceOnUse">
<stop stop-color="#316DFF"/>
<stop offset="1" stop-color="#02BFFF"/>
</linearGradient>
</defs>
</svg>
