<svg width="140" height="36" viewBox="0 0 140 36" fill="none" xmlns="http://www.w3.org/2000/svg">
<path d="M18.5498 13.2097C18.5498 19.3447 14.3212 23.568 7.72549 23.568H0L0 2.85149H7.73625C14.3212 2.85149 18.5498 7.04231 18.5498 13.2097ZM7.41346 19.2043C11.2116 19.2043 13.4389 17.0225 13.4389 13.2097C13.4389 9.39694 11.2009 7.16112 7.41346 7.16112H5.0248V19.2043H7.41346Z" fill="url(#paint0_linear_7687_3156)"/>
<path d="M30.719 23.784C24.8657 23.784 20.1099 19.3879 20.1099 13.1557C20.1099 6.9235 24.8765 2.55986 30.719 2.55986C36.6046 2.55986 41.2743 6.9235 41.2743 13.1557C41.2743 19.3771 36.5616 23.784 30.719 23.784ZM30.719 19.1719C34.0115 19.1719 36.1635 16.7849 36.1635 13.1557C36.1635 9.46175 34.0223 7.13952 30.719 7.13952C27.362 7.13952 25.2531 9.47255 25.2531 13.1557C25.2423 16.7849 27.362 19.1719 30.719 19.1719Z" fill="url(#paint1_linear_7687_3156)"/>
<path d="M53.5835 2.61386C58.4899 2.61386 62.202 5.38974 63.3748 9.87219H57.8443C56.9943 8.10081 55.4342 7.21512 53.5189 7.21512C50.4309 7.21512 48.3112 9.51575 48.3112 13.1773C48.3112 16.8389 50.4309 19.1395 53.5189 19.1395C55.4342 19.1395 56.9836 18.2538 57.8443 16.4825H63.3748C62.202 20.9649 58.4899 23.7084 53.5835 23.7084C47.4935 23.7084 43.2003 19.3663 43.2003 13.1665C43.2111 6.9883 47.5042 2.61386 53.5835 2.61386Z" fill="url(#paint2_linear_7687_3156)"/>
<path d="M75.146 2.61386C80.0525 2.61386 83.7646 5.38974 84.9374 9.87219H79.4069C78.5568 8.10081 76.9967 7.21512 75.0815 7.21512C71.9934 7.21512 69.8737 9.51575 69.8737 13.1773C69.8737 16.8389 71.9934 19.1395 75.0815 19.1395C76.9967 19.1395 78.5461 18.2538 79.4069 16.4825H84.9374C83.7646 20.9649 80.0525 23.7084 75.146 23.7084C69.056 23.7084 64.7629 19.3663 64.7629 13.1665C64.7736 6.9883 69.0668 2.61386 75.146 2.61386Z" fill="url(#paint3_linear_7687_3156)"/>
<path d="M138.047 6.90189H130.43V11.0927H137.165V14.9919H130.43V19.5392H138.047V23.5788H125.405V2.85149L138.047 2.85149V6.90189Z" fill="url(#paint4_linear_7687_3156)"/>
<path d="M118.067 23.568H123.898L118.088 15.3591C121.262 14.4194 122.672 11.9676 122.672 9.36454C122.672 5.76778 120.143 2.84068 115.086 2.84068H106.651V23.5572H111.675V16.6337H113.375L118.067 23.568ZM111.675 7.04231H114.796C116.679 7.04231 117.561 8.04681 117.561 9.58056C117.561 11.2007 116.679 12.1728 114.796 12.1728H111.675V7.04231Z" fill="url(#paint5_linear_7687_3156)"/>
<path d="M134.744 33.3645C135.855 33.3645 136.756 32.4602 136.756 31.3447C136.756 30.2292 135.855 29.3249 134.744 29.3249C133.633 29.3249 132.732 30.2292 132.732 31.3447C132.732 32.4602 133.633 33.3645 134.744 33.3645Z" fill="url(#paint6_linear_7687_3156)"/>
<path d="M134.723 26.4626C133.216 26.4626 131.882 27.1647 131.011 28.2664L124.781 28.1692V30.0162H101.411C101.088 30.0162 100.765 29.9082 100.765 29.9082V29.8974C98.1288 29.0009 97.3218 27.2079 97.0744 26.2358C98.4516 25.793 99.6567 24.5725 99.689 22.8335C102.088 21.5806 103.745 19.0423 103.745 15.2079V9.51575H103.735L102.885 8.70567L102.691 3.89919L101.529 2.63546C101.54 2.54905 101.55 2.45184 101.55 2.36544C101.55 1.05851 100.485 0 99.1725 0C97.8598 0 96.7946 1.05851 96.7946 2.36544C96.7946 3.67237 97.8598 4.73087 99.1725 4.73087C99.2693 4.73087 99.3662 4.72007 99.4522 4.70927L99.8396 5.44374V8.71647L99.1725 9.51575H99.1402V15.2511C99.1402 17.703 97.9782 19.1179 95.7939 19.1179C93.6097 19.1179 92.5015 17.703 92.5015 15.2511V9.51575H92.4799L91.8236 8.71647V5.44374L92.2002 4.70927C92.297 4.72007 92.3831 4.73087 92.4799 4.73087C93.7819 4.73087 94.8363 3.67237 94.8363 2.36544C94.8363 1.05851 93.7819 0 92.4799 0C91.178 0 90.1236 1.05851 90.1236 2.36544C90.1236 2.46265 90.1343 2.54905 90.1451 2.63546L88.9938 3.89919L88.8001 8.70567L87.9609 9.51575H87.8963V15.2187C87.8963 19.2907 89.6286 21.9046 92.2217 23.0711C92.4046 24.7777 93.5344 25.8902 94.8578 26.279C95.3205 30.1134 98.9896 32.0576 100.248 32.2952C100.248 32.2952 100.517 32.3816 100.926 32.414H124.813V34.2934H131.118C131.99 35.3303 133.292 36 134.755 36C137.38 36 139.5 33.8722 139.5 31.2367C139.468 28.6013 137.348 26.4626 134.723 26.4626ZM95.9123 25.2529C94.6642 25.2529 93.7388 24.5725 93.3084 23.4707C94.0616 23.676 94.8578 23.784 95.6971 23.784C96.7085 23.784 97.6769 23.6328 98.5699 23.3303H98.5592C98.1396 24.4968 97.2035 25.2529 95.9123 25.2529ZM134.723 34.6715C132.829 34.6715 131.29 33.1269 131.29 31.2259C131.29 29.3249 132.829 27.7804 134.723 27.7804C136.616 27.7804 138.155 29.3249 138.155 31.2259C138.155 33.1269 136.616 34.6715 134.723 34.6715Z" fill="url(#paint7_linear_7687_3156)"/>
<defs>
<linearGradient id="paint0_linear_7687_3156" x1="0" y1="18" x2="139.5" y2="18" gradientUnits="userSpaceOnUse">
<stop stop-color="#256AFF"/>
<stop offset="1" stop-color="#15B5A4"/>
</linearGradient>
<linearGradient id="paint1_linear_7687_3156" x1="0" y1="18" x2="139.5" y2="18" gradientUnits="userSpaceOnUse">
<stop stop-color="#256AFF"/>
<stop offset="1" stop-color="#15B5A4"/>
</linearGradient>
<linearGradient id="paint2_linear_7687_3156" x1="0" y1="18" x2="139.5" y2="18" gradientUnits="userSpaceOnUse">
<stop stop-color="#256AFF"/>
<stop offset="1" stop-color="#15B5A4"/>
</linearGradient>
<linearGradient id="paint3_linear_7687_3156" x1="0" y1="18" x2="139.5" y2="18" gradientUnits="userSpaceOnUse">
<stop stop-color="#256AFF"/>
<stop offset="1" stop-color="#15B5A4"/>
</linearGradient>
<linearGradient id="paint4_linear_7687_3156" x1="0" y1="18" x2="139.5" y2="18" gradientUnits="userSpaceOnUse">
<stop stop-color="#256AFF"/>
<stop offset="1" stop-color="#15B5A4"/>
</linearGradient>
<linearGradient id="paint5_linear_7687_3156" x1="0" y1="18" x2="139.5" y2="18" gradientUnits="userSpaceOnUse">
<stop stop-color="#256AFF"/>
<stop offset="1" stop-color="#15B5A4"/>
</linearGradient>
<linearGradient id="paint6_linear_7687_3156" x1="0" y1="18" x2="139.5" y2="18" gradientUnits="userSpaceOnUse">
<stop stop-color="#256AFF"/>
<stop offset="1" stop-color="#15B5A4"/>
</linearGradient>
<linearGradient id="paint7_linear_7687_3156" x1="0" y1="18" x2="139.5" y2="18" gradientUnits="userSpaceOnUse">
<stop stop-color="#256AFF"/>
<stop offset="1" stop-color="#15B5A4"/>
</linearGradient>
</defs>
</svg>
