<svg width="174" height="32" viewBox="0 0 174 32" fill="none" xmlns="http://www.w3.org/2000/svg">
<g style="mix-blend-mode:luminosity">
<path d="M31.9998 16.0011C31.9998 18.4557 30.0097 20.4455 27.5554 20.4455H20.4442V27.5566C20.4442 30.0113 18.4545 32.001 15.9998 32.001C13.5452 32.001 11.5554 30.0113 11.5554 27.5566V16.0011C11.5554 13.5464 13.5452 11.5566 15.9998 11.5566H27.5554C30.0099 11.5566 31.9998 13.5464 31.9998 16.0011Z" fill="url(#paint0_linear_7894_5407)"/>
<path d="M20.4444 4.44441V16C20.4444 18.4546 18.4546 20.4444 16 20.4444H4.44441C1.98977 20.4444 0 18.4546 0 16C0 13.5454 1.98977 11.5556 4.44441 11.5556H11.5556V4.44441C11.5556 1.98977 13.5454 0 16 0C18.4546 0 20.4444 1.98977 20.4444 4.44441Z" fill="url(#paint1_linear_7894_5407)"/>
<g opacity="0.25">
<path d="M4.44441 11.5558C1.98977 11.5558 0 13.5456 0 16.0002C0 17.532 0.775 18.8826 1.95406 19.6817C3.82969 16.7919 5.95773 14.0754 8.29839 11.5557L4.44441 11.5558Z" fill="url(#paint2_linear_7894_5407)"/>
<path d="M16 0C13.5453 0 11.5555 1.98977 11.5555 4.44441V8.30084C14.0777 5.96148 16.7935 3.8292 19.6637 1.92862C18.8621 0.763916 17.5204 0 16 0Z" fill="url(#paint3_linear_7894_5407)"/>
</g>
<path d="M40.1921 24.001L46.9121 7.27298H49.2401L55.9601 24.001H52.5761L48.1121 11.857L43.5761 24.001H40.1921ZM44.6081 20.737L45.5681 17.953H50.6081L51.6161 20.737H44.6081ZM57.6359 28.897V12.169H60.6119V15.337L59.8919 15.577C60.0999 14.633 60.4119 13.897 60.8279 13.369C61.2599 12.841 61.7479 12.473 62.2919 12.265C62.8359 12.041 63.4039 11.929 63.9959 11.929C65.0359 11.929 65.9319 12.201 66.6839 12.745C67.4519 13.273 68.0359 14.001 68.4359 14.929C68.8359 15.857 69.0359 16.913 69.0359 18.097C69.0359 19.377 68.8119 20.481 68.3639 21.409C67.9159 22.321 67.3079 23.025 66.5399 23.521C65.7719 24.001 64.9239 24.241 63.9959 24.241C63.3719 24.241 62.7799 24.113 62.2199 23.857C61.6599 23.601 61.1799 23.217 60.7799 22.705C60.3959 22.177 60.1319 21.513 59.9879 20.713L60.6119 20.809V28.897H57.6359ZM63.1799 21.505C63.7719 21.505 64.2759 21.369 64.6919 21.097C65.1239 20.809 65.4599 20.409 65.6999 19.897C65.9399 19.385 66.0599 18.785 66.0599 18.097C66.0599 17.393 65.9399 16.785 65.6999 16.273C65.4599 15.761 65.1239 15.369 64.6919 15.097C64.2759 14.809 63.7719 14.665 63.1799 14.665C62.6039 14.665 62.0999 14.809 61.6679 15.097C61.2519 15.385 60.9239 15.785 60.6839 16.297C60.4599 16.793 60.3479 17.393 60.3479 18.097C60.3479 18.785 60.4599 19.385 60.6839 19.897C60.9239 20.409 61.2519 20.809 61.6679 21.097C62.0999 21.369 62.6039 21.505 63.1799 21.505ZM76.6972 24.241C75.6732 24.241 74.7932 24.073 74.0572 23.737C73.3212 23.401 72.7132 22.953 72.2332 22.393C71.7692 21.817 71.4252 21.169 71.2012 20.449C70.9772 19.713 70.8652 18.945 70.8652 18.145C70.8652 17.377 70.9772 16.625 71.2012 15.889C71.4252 15.153 71.7612 14.489 72.2092 13.897C72.6572 13.305 73.2332 12.833 73.9372 12.481C74.6572 12.113 75.5132 11.929 76.5052 11.929C77.4332 11.929 78.2412 12.089 78.9292 12.409C79.6172 12.713 80.1852 13.145 80.6332 13.705C81.0812 14.249 81.4172 14.889 81.6412 15.625C81.8812 16.361 82.0012 17.145 82.0012 17.977C82.0012 18.089 81.9932 18.249 81.9772 18.457C81.9772 18.649 81.9612 18.857 81.9292 19.081H73.8412C73.9212 19.929 74.2332 20.569 74.7772 21.001C75.3372 21.433 76.0332 21.649 76.8652 21.649C77.4732 21.649 78.0652 21.545 78.6412 21.337C79.2172 21.113 79.7292 20.801 80.1772 20.401L81.6652 22.417C81.1052 22.849 80.5772 23.201 80.0812 23.473C79.5852 23.745 79.0652 23.937 78.5212 24.049C77.9932 24.177 77.3852 24.241 76.6972 24.241ZM79.0492 17.593C79.0812 17.465 79.1052 17.337 79.1212 17.209C79.1532 17.081 79.1692 16.961 79.1692 16.849C79.1692 16.513 79.1052 16.201 78.9772 15.913C78.8492 15.609 78.6732 15.345 78.4492 15.121C78.2252 14.897 77.9532 14.729 77.6332 14.617C77.3292 14.489 76.9772 14.425 76.5772 14.425C75.9852 14.425 75.4892 14.545 75.0892 14.785C74.6892 15.025 74.3852 15.337 74.1772 15.721C73.9852 16.089 73.8652 16.473 73.8172 16.873H80.0572L79.0492 17.593ZM83.066 24.001L87.098 18.025L83.066 12.169H86.594L89.09 16.081L91.586 12.169H95.114L91.034 18.025L95.114 24.001H91.586L89.09 20.017L86.57 24.001H83.066ZM103.436 24.001V7.27298H106.532V13.969H113.756V7.27298H116.852V24.001H113.756V16.825H106.532V24.001H103.436ZM125.213 24.241C124.189 24.241 123.309 24.073 122.573 23.737C121.837 23.401 121.229 22.953 120.749 22.393C120.285 21.817 119.941 21.169 119.717 20.449C119.493 19.713 119.381 18.945 119.381 18.145C119.381 17.377 119.493 16.625 119.717 15.889C119.941 15.153 120.277 14.489 120.725 13.897C121.173 13.305 121.749 12.833 122.453 12.481C123.173 12.113 124.029 11.929 125.021 11.929C125.949 11.929 126.757 12.089 127.445 12.409C128.133 12.713 128.701 13.145 129.149 13.705C129.597 14.249 129.933 14.889 130.157 15.625C130.397 16.361 130.517 17.145 130.517 17.977C130.517 18.089 130.509 18.249 130.493 18.457C130.493 18.649 130.477 18.857 130.445 19.081H122.357C122.437 19.929 122.749 20.569 123.293 21.001C123.853 21.433 124.549 21.649 125.381 21.649C125.989 21.649 126.581 21.545 127.157 21.337C127.733 21.113 128.245 20.801 128.693 20.401L130.181 22.417C129.621 22.849 129.093 23.201 128.597 23.473C128.101 23.745 127.581 23.937 127.037 24.049C126.509 24.177 125.901 24.241 125.213 24.241ZM127.565 17.593C127.597 17.465 127.621 17.337 127.637 17.209C127.669 17.081 127.685 16.961 127.685 16.849C127.685 16.513 127.621 16.201 127.493 15.913C127.365 15.609 127.189 15.345 126.965 15.121C126.741 14.897 126.469 14.729 126.149 14.617C125.845 14.489 125.493 14.425 125.093 14.425C124.501 14.425 124.005 14.545 123.605 14.785C123.205 15.025 122.901 15.337 122.693 15.721C122.501 16.089 122.381 16.473 122.333 16.873H128.573L127.565 17.593ZM140.501 24.001L140.261 22.225V16.537C140.261 15.833 140.037 15.313 139.589 14.977C139.157 14.625 138.565 14.449 137.813 14.449C137.189 14.449 136.549 14.577 135.893 14.833C135.253 15.073 134.685 15.417 134.189 15.865L132.677 13.825C133.509 13.153 134.357 12.673 135.221 12.385C136.101 12.081 137.045 11.929 138.053 11.929C139.685 11.929 140.957 12.337 141.869 13.153C142.781 13.969 143.237 15.097 143.237 16.537V24.001H140.501ZM136.925 24.241C136.061 24.241 135.285 24.081 134.597 23.761C133.925 23.441 133.389 22.985 132.989 22.393C132.605 21.801 132.413 21.121 132.413 20.353C132.413 19.665 132.549 19.081 132.821 18.601C133.109 18.105 133.485 17.729 133.949 17.473C134.349 17.233 134.789 17.065 135.269 16.969C135.765 16.873 136.293 16.825 136.853 16.825H140.525V19.033H137.285C137.029 19.033 136.773 19.057 136.517 19.105C136.277 19.137 136.069 19.225 135.893 19.369C135.733 19.481 135.613 19.625 135.533 19.801C135.453 19.961 135.413 20.145 135.413 20.353C135.413 20.801 135.589 21.161 135.941 21.433C136.293 21.705 136.765 21.841 137.357 21.841C137.885 21.841 138.365 21.729 138.797 21.505C139.245 21.265 139.597 20.945 139.853 20.545C140.125 20.129 140.261 19.657 140.261 19.129L141.053 20.713C140.845 21.545 140.525 22.225 140.093 22.753C139.677 23.265 139.197 23.641 138.653 23.881C138.109 24.121 137.533 24.241 136.925 24.241ZM148.779 24.241C147.963 24.241 147.291 23.993 146.763 23.497C146.235 23.001 145.971 22.217 145.971 21.145V7.27298H148.923V20.569C148.923 20.905 149.003 21.145 149.163 21.289C149.323 21.417 149.531 21.481 149.787 21.481C149.915 21.481 150.051 21.473 150.195 21.457C150.339 21.425 150.491 21.385 150.651 21.337V23.881C150.315 24.009 149.979 24.097 149.643 24.145C149.323 24.209 149.035 24.241 148.779 24.241ZM157.117 24.241C156.477 24.241 155.885 24.121 155.341 23.881C154.797 23.641 154.357 23.249 154.021 22.705C153.701 22.161 153.541 21.433 153.541 20.521V9.40898L156.565 7.80098V19.705C156.565 20.393 156.653 20.913 156.829 21.265C157.021 21.617 157.389 21.793 157.933 21.793C158.093 21.793 158.269 21.777 158.461 21.745C158.669 21.713 158.893 21.665 159.133 21.601V23.881C158.797 24.009 158.461 24.097 158.125 24.145C157.789 24.209 157.453 24.241 157.117 24.241ZM151.381 14.497V12.169H159.133V14.497H151.381ZM161.417 24.001V7.27298H164.417V14.857L163.913 14.929C164.121 14.209 164.425 13.633 164.825 13.201C165.241 12.753 165.713 12.433 166.241 12.241C166.785 12.033 167.329 11.929 167.873 11.929C169.217 11.929 170.265 12.313 171.017 13.081C171.785 13.833 172.169 14.897 172.169 16.273V24.001H169.169V17.377C169.169 16.385 168.993 15.665 168.641 15.217C168.289 14.753 167.737 14.521 166.985 14.521C166.137 14.521 165.497 14.825 165.065 15.433C164.633 16.041 164.417 17.009 164.417 18.337V24.001H161.417Z" fill="#0F172A"/>
</g>
<defs>
<linearGradient id="paint0_linear_7894_5407" x1="11.5554" y1="21.7788" x2="31.9998" y2="21.7788" gradientUnits="userSpaceOnUse">
<stop stop-color="#316DFF"/>
<stop offset="1" stop-color="#1FB257"/>
</linearGradient>
<linearGradient id="paint1_linear_7894_5407" x1="0" y1="10.2222" x2="20.4444" y2="10.2222" gradientUnits="userSpaceOnUse">
<stop stop-color="#316DFF"/>
<stop offset="1" stop-color="#1FB257"/>
</linearGradient>
<linearGradient id="paint2_linear_7894_5407" x1="0" y1="15.6187" x2="8.29839" y2="15.6187" gradientUnits="userSpaceOnUse">
<stop stop-color="#316DFF"/>
<stop offset="1" stop-color="#1FB257"/>
</linearGradient>
<linearGradient id="paint3_linear_7894_5407" x1="11.5555" y1="4.15042" x2="19.6637" y2="4.15042" gradientUnits="userSpaceOnUse">
<stop stop-color="#316DFF"/>
<stop offset="1" stop-color="#1FB257"/>
</linearGradient>
</defs>
</svg>
