<svg width="147" height="32" viewBox="0 0 147 32" fill="none" xmlns="http://www.w3.org/2000/svg">
<path d="M7.10631 10.7362C7.21428 10.5257 7.43552 10.3984 7.66961 10.4014C7.90599 10.407 8.11842 10.5476 8.21618 10.7628L10.2978 15.3485H15.8019C16.008 15.3485 16.2007 15.4515 16.315 15.6233L16.8478 16.4229L17.3521 15.6333C17.4652 15.4559 17.6612 15.3486 17.8717 15.3486H18.933L21.3521 8.52861C21.4448 8.26722 21.7009 8.10006 21.9774 8.11979C22.254 8.13969 22.4833 8.3419 22.5377 8.61386L24.5181 18.518L26.6991 10.3307C26.7695 10.0662 27.0063 9.87962 27.28 9.8731C27.5509 9.86729 27.7991 10.0415 27.8822 10.3024L29.9286 16.727L31.1762 14.7413C31.2891 14.5616 31.4862 14.4528 31.6983 14.4528H36.2778C36.8174 11.1373 36.0284 7.95914 34.7935 5.65715C32.9389 2.20019 29.8363 0.0325887 26.6968 0.000354778C26.6719 0.000178636 26.6473 0 26.6223 0C24.3772 0 21.1767 1.03889 18.2254 5.75843C15.2414 0.986221 12.0011 -0.0190208 9.75425 0.000354778C6.6147 0.0325887 3.51214 2.20002 1.65755 5.65697C0.311648 8.16559 -0.505298 11.7148 0.35075 15.3486H4.73897L7.10631 10.7362Z" fill="#CF1415"/>
<path d="M30.2659 18.5068C30.1382 18.7101 29.9051 18.8211 29.6661 18.7904C29.428 18.7601 29.2293 18.5946 29.1564 18.3659L27.3472 12.6859L25.0278 21.3922C24.9557 21.6628 24.7107 21.85 24.4322 21.85C24.4257 21.85 24.4192 21.85 24.4127 21.8496C24.1263 21.8407 23.8837 21.6355 23.8276 21.3543L21.7665 11.0469L19.9491 16.1707C19.8617 16.4167 19.629 16.5811 19.368 16.5811H18.2092L17.3781 17.8826C17.2659 18.0582 17.0729 18.1651 16.8645 18.1672C16.6598 18.1734 16.461 18.0659 16.3454 17.8924L15.4716 16.5809H9.90039C9.65855 16.5809 9.4389 16.4395 9.33903 16.2193L7.62059 12.4335L5.66366 16.2459C5.55815 16.4514 5.34643 16.5809 5.11515 16.5809H0.707031C1.04522 17.5668 1.51358 18.5509 2.13906 19.5144C5.09208 24.0639 10.2652 28.1043 17.9541 31.8667L18.2252 31.9993L18.4963 31.8667C26.185 28.1043 31.3583 24.0637 34.3113 19.5144C35.1262 18.259 35.6766 16.9684 36.0155 15.6849H32.0388L30.2659 18.5068Z" fill="#CF1415"/>
<path opacity="0.3" d="M17.9539 31.8675L18.225 32.0001L18.3321 31.9478C18.0943 31.8171 17.8601 31.6801 17.6316 31.5351C15.3816 30.1077 13.5481 28.119 11.8293 26.083C9.94425 23.8501 8.15042 21.5118 6.83852 18.9005C6.63737 18.5001 6.4459 18.09 6.26712 17.6724C6.05839 17.185 5.86798 16.6865 5.69765 16.1807L5.66366 16.2467C5.55815 16.4523 5.34643 16.5817 5.11515 16.5817H0.707031C1.04522 17.5676 1.51358 18.5517 2.13906 19.5152C5.09208 24.0646 10.2652 28.1051 17.9539 31.8675Z" fill="#CF1415"/>
<path opacity="0.3" d="M0.350545 15.3487H4.73876L5.20677 14.437C4.8913 13.0275 4.76835 11.5826 4.92459 10.1564C5.35561 6.22318 7.86316 2.50677 11.0145 0.194379C11.0503 0.168134 11.0869 0.14312 11.123 0.117403C10.6702 0.035673 10.2412 0.00220956 9.84194 0.000976562C6.66416 0.04008 3.53166 2.22459 1.66421 5.70568C0.788784 7.33746 0.136004 9.40782 0.0186937 11.6559C0.0183414 11.6637 0.0179897 11.6716 0.0176374 11.6793C0.0107679 11.8141 0.00618809 11.9496 0.00319368 12.0857C-0.0135398 13.1477 0.0903838 14.2442 0.350545 15.3487Z" fill="white"/>
<path d="M46.0582 24V7.272H51.5782C53.4662 7.272 54.8902 7.68 55.8502 8.496C56.8102 9.296 57.2902 10.504 57.2902 12.12C57.2902 13.736 56.8022 14.968 55.8262 15.816C54.8502 16.664 53.4342 17.088 51.5782 17.088H49.1302V24H46.0582ZM49.1302 14.328H51.2662C52.1942 14.328 52.9142 14.168 53.4262 13.848C53.9382 13.512 54.1942 12.944 54.1942 12.144C54.1942 11.376 53.9462 10.84 53.4502 10.536C52.9702 10.216 52.2422 10.056 51.2662 10.056H49.1302V14.328ZM59.3908 24V12.168H62.3908V15.384L61.9348 15.432C61.9828 14.744 62.1908 14.136 62.5588 13.608C62.9268 13.08 63.3748 12.672 63.9028 12.384C64.4468 12.08 64.9988 11.928 65.5588 11.928C65.9588 11.928 66.3348 11.984 66.6868 12.096C67.0548 12.192 67.4308 12.36 67.8148 12.6L66.3748 15.288C66.1988 15.192 65.9748 15.104 65.7028 15.024C65.4308 14.944 65.1588 14.904 64.8868 14.904C64.5668 14.904 64.2548 14.96 63.9508 15.072C63.6628 15.184 63.3988 15.36 63.1588 15.6C62.9348 15.84 62.7508 16.16 62.6068 16.56C62.5428 16.784 62.4868 17.072 62.4388 17.424C62.4068 17.76 62.3908 18.256 62.3908 18.912V24H59.3908ZM69.5855 24V12.168H72.5615V24H69.5855ZM69.4895 10.344V7.272H72.6815V10.344H69.4895ZM75.4923 24V12.168H78.4923V15.24L77.8443 15.744C77.9563 14.992 78.1483 14.368 78.4203 13.872C78.6923 13.376 79.0123 12.992 79.3803 12.72C79.7643 12.432 80.1563 12.232 80.5563 12.12C80.9723 11.992 81.3803 11.928 81.7803 11.928C82.4043 11.928 82.9963 12.048 83.5563 12.288C84.1163 12.512 84.6043 12.904 85.0203 13.464C85.4363 14.024 85.7243 14.792 85.8843 15.768L84.1083 16.416C84.3483 15.296 84.6923 14.408 85.1403 13.752C85.6043 13.096 86.1323 12.632 86.7243 12.36C87.3323 12.072 87.9723 11.928 88.6443 11.928C89.6523 11.928 90.4683 12.152 91.0923 12.6C91.7163 13.048 92.1723 13.624 92.4603 14.328C92.7643 15.016 92.9163 15.752 92.9163 16.536V24H89.9403V17.256C89.9403 16.664 89.8603 16.168 89.7003 15.768C89.5563 15.352 89.3403 15.04 89.0523 14.832C88.7643 14.624 88.3883 14.52 87.9243 14.52C87.4443 14.52 87.0363 14.648 86.7003 14.904C86.3643 15.16 86.1083 15.544 85.9323 16.056C85.7723 16.568 85.6923 17.224 85.6923 18.024V24H82.7163V17.208C82.7163 16.312 82.5483 15.64 82.2123 15.192C81.8923 14.744 81.4203 14.52 80.7963 14.52C80.3003 14.52 79.8763 14.648 79.5243 14.904C79.1883 15.16 78.9323 15.544 78.7563 16.056C78.5803 16.568 78.4923 17.224 78.4923 18.024V24H75.4923ZM100.999 24.24C99.9749 24.24 99.0949 24.072 98.3589 23.736C97.6229 23.4 97.0149 22.952 96.5349 22.392C96.0709 21.816 95.7269 21.168 95.5029 20.448C95.2789 19.712 95.1669 18.944 95.1669 18.144C95.1669 17.376 95.2789 16.624 95.5029 15.888C95.7269 15.152 96.0629 14.488 96.5109 13.896C96.9589 13.304 97.5349 12.832 98.2389 12.48C98.9589 12.112 99.8149 11.928 100.807 11.928C101.735 11.928 102.543 12.088 103.231 12.408C103.919 12.712 104.487 13.144 104.935 13.704C105.383 14.248 105.719 14.888 105.943 15.624C106.183 16.36 106.303 17.144 106.303 17.976C106.303 18.088 106.295 18.248 106.279 18.456C106.279 18.648 106.263 18.856 106.231 19.08H98.1429C98.2229 19.928 98.5349 20.568 99.0789 21C99.6389 21.432 100.335 21.648 101.167 21.648C101.775 21.648 102.367 21.544 102.943 21.336C103.519 21.112 104.031 20.8 104.479 20.4L105.967 22.416C105.407 22.848 104.879 23.2 104.383 23.472C103.887 23.744 103.367 23.936 102.823 24.048C102.295 24.176 101.687 24.24 100.999 24.24ZM103.351 17.592C103.383 17.464 103.407 17.336 103.423 17.208C103.455 17.08 103.471 16.96 103.471 16.848C103.471 16.512 103.407 16.2 103.279 15.912C103.151 15.608 102.975 15.344 102.751 15.12C102.527 14.896 102.255 14.728 101.935 14.616C101.631 14.488 101.279 14.424 100.879 14.424C100.287 14.424 99.7909 14.544 99.3909 14.784C98.9909 15.024 98.6869 15.336 98.4789 15.72C98.2869 16.088 98.1669 16.472 98.1189 16.872H104.359L103.351 17.592ZM108.847 24V7.272H111.943V21.216H119.071V24H108.847ZM120.773 24V12.168H123.749V24H120.773ZM120.677 10.344V7.272H123.869V10.344H120.677ZM127.592 24V14.496H125.456V12.168H127.616V10.92C127.616 9.896 127.784 9.104 128.12 8.544C128.456 7.984 128.904 7.592 129.464 7.368C130.04 7.144 130.656 7.032 131.312 7.032C131.808 7.032 132.232 7.08 132.584 7.176C132.952 7.256 133.304 7.376 133.64 7.536L132.68 9.816C132.52 9.736 132.352 9.672 132.176 9.624C132 9.56 131.824 9.528 131.648 9.528C131.264 9.528 130.992 9.656 130.832 9.912C130.672 10.168 130.592 10.512 130.592 10.944V12.168H133.112V14.496H130.592V24H127.592ZM139.929 24.24C138.905 24.24 138.025 24.072 137.289 23.736C136.553 23.4 135.945 22.952 135.465 22.392C135.001 21.816 134.657 21.168 134.433 20.448C134.209 19.712 134.097 18.944 134.097 18.144C134.097 17.376 134.209 16.624 134.433 15.888C134.657 15.152 134.993 14.488 135.441 13.896C135.889 13.304 136.465 12.832 137.169 12.48C137.889 12.112 138.745 11.928 139.737 11.928C140.665 11.928 141.473 12.088 142.161 12.408C142.849 12.712 143.417 13.144 143.865 13.704C144.313 14.248 144.649 14.888 144.873 15.624C145.113 16.36 145.233 17.144 145.233 17.976C145.233 18.088 145.225 18.248 145.209 18.456C145.209 18.648 145.193 18.856 145.161 19.08H137.073C137.153 19.928 137.465 20.568 138.009 21C138.569 21.432 139.265 21.648 140.097 21.648C140.705 21.648 141.297 21.544 141.873 21.336C142.449 21.112 142.961 20.8 143.409 20.4L144.897 22.416C144.337 22.848 143.809 23.2 143.313 23.472C142.817 23.744 142.297 23.936 141.753 24.048C141.225 24.176 140.617 24.24 139.929 24.24ZM142.281 17.592C142.313 17.464 142.337 17.336 142.353 17.208C142.385 17.08 142.401 16.96 142.401 16.848C142.401 16.512 142.337 16.2 142.209 15.912C142.081 15.608 141.905 15.344 141.681 15.12C141.457 14.896 141.185 14.728 140.865 14.616C140.561 14.488 140.209 14.424 139.809 14.424C139.217 14.424 138.721 14.544 138.321 14.784C137.921 15.024 137.617 15.336 137.409 15.72C137.217 16.088 137.097 16.472 137.049 16.872H143.289L142.281 17.592Z" fill="#0F172A"/>
</svg>
