<svg width="139" height="32" viewBox="0 0 139 32" fill="none" xmlns="http://www.w3.org/2000/svg">
<path d="M10.7869 10.7871H0V12.6921C0 17.3982 3.81492 21.2131 8.52098 21.2131H10.7869V10.7871Z" fill="#CF1415"/>
<path d="M23.4788 10.7871H21.2129V21.2132H31.9998V19.3081C32 14.602 28.1849 10.7871 23.4788 10.7871Z" fill="#CF1415"/>
<path opacity="0.35" d="M10.7867 10.7871H9.55371V21.2132H10.7867V10.7871Z" fill="#CF1415"/>
<path opacity="0.35" d="M22.4459 10.7871H21.2129V21.2132H22.4459V10.7871Z" fill="#CF1415"/>
<path d="M10.7871 32V8.52098C10.7871 3.81493 14.602 0 19.3081 0H21.2131V23.4789C21.2131 28.1849 17.3982 31.9998 12.6921 31.9998L10.7871 32Z" fill="#CF1415"/>
<path d="M48.952 24.384C47.368 24.384 45.968 24.016 44.752 23.28C43.552 22.544 42.616 21.52 41.944 20.208C41.272 18.896 40.936 17.368 40.936 15.624C40.936 13.88 41.272 12.36 41.944 11.064C42.616 9.752 43.552 8.728 44.752 7.992C45.968 7.256 47.368 6.888 48.952 6.888C50.728 6.888 52.256 7.336 53.536 8.232C54.832 9.112 55.76 10.328 56.32 11.88L53.392 12.96C53.04 11.984 52.48 11.224 51.712 10.68C50.96 10.136 50.04 9.864 48.952 9.864C47.96 9.864 47.088 10.096 46.336 10.56C45.6 11.024 45.032 11.688 44.632 12.552C44.248 13.4 44.056 14.424 44.056 15.624C44.056 16.824 44.248 17.856 44.632 18.72C45.032 19.584 45.6 20.248 46.336 20.712C47.088 21.176 47.96 21.408 48.952 21.408C50.04 21.408 50.96 21.136 51.712 20.592C52.48 20.048 53.04 19.288 53.392 18.312L56.32 19.368C55.76 20.92 54.832 22.144 53.536 23.04C52.256 23.936 50.728 24.384 48.952 24.384ZM62.6556 24.24C61.6956 24.24 60.8876 24.048 60.2316 23.664C59.5916 23.28 59.1116 22.736 58.7916 22.032C58.4876 21.328 58.3356 20.504 58.3356 19.56V12.168H61.3116V18.816C61.3116 19.36 61.3756 19.848 61.5036 20.28C61.6316 20.696 61.8556 21.032 62.1756 21.288C62.5116 21.528 62.9676 21.648 63.5436 21.648C64.2476 21.648 64.7756 21.448 65.1276 21.048C65.4956 20.648 65.7436 20.096 65.8716 19.392C66.0156 18.672 66.0876 17.832 66.0876 16.872V12.168H69.0636V24H66.0876V21.432L66.4956 21.672C66.1436 22.584 65.6236 23.24 64.9356 23.64C64.2476 24.04 63.4876 24.24 62.6556 24.24ZM72.0265 24V12.168H75.0265V15.384L74.5705 15.432C74.6185 14.744 74.8265 14.136 75.1945 13.608C75.5625 13.08 76.0105 12.672 76.5385 12.384C77.0825 12.08 77.6345 11.928 78.1945 11.928C78.5945 11.928 78.9705 11.984 79.3225 12.096C79.6905 12.192 80.0665 12.36 80.4505 12.6L79.0105 15.288C78.8345 15.192 78.6105 15.104 78.3385 15.024C78.0665 14.944 77.7945 14.904 77.5225 14.904C77.2025 14.904 76.8905 14.96 76.5865 15.072C76.2985 15.184 76.0345 15.36 75.7945 15.6C75.5705 15.84 75.3865 16.16 75.2425 16.56C75.1785 16.784 75.1225 17.072 75.0745 17.424C75.0425 17.76 75.0265 18.256 75.0265 18.912V24H72.0265ZM86.8924 24.24C85.8684 24.24 84.9884 24.072 84.2524 23.736C83.5164 23.4 82.9084 22.952 82.4284 22.392C81.9644 21.816 81.6204 21.168 81.3964 20.448C81.1724 19.712 81.0604 18.944 81.0604 18.144C81.0604 17.376 81.1724 16.624 81.3964 15.888C81.6204 15.152 81.9564 14.488 82.4044 13.896C82.8524 13.304 83.4284 12.832 84.1324 12.48C84.8524 12.112 85.7084 11.928 86.7004 11.928C87.6284 11.928 88.4364 12.088 89.1244 12.408C89.8124 12.712 90.3804 13.144 90.8284 13.704C91.2764 14.248 91.6124 14.888 91.8364 15.624C92.0764 16.36 92.1964 17.144 92.1964 17.976C92.1964 18.088 92.1884 18.248 92.1724 18.456C92.1724 18.648 92.1564 18.856 92.1244 19.08H84.0364C84.1164 19.928 84.4284 20.568 84.9724 21C85.5324 21.432 86.2284 21.648 87.0604 21.648C87.6684 21.648 88.2604 21.544 88.8364 21.336C89.4124 21.112 89.9244 20.8 90.3724 20.4L91.8604 22.416C91.3004 22.848 90.7724 23.2 90.2764 23.472C89.7804 23.744 89.2604 23.936 88.7164 24.048C88.1884 24.176 87.5804 24.24 86.8924 24.24ZM89.2444 17.592C89.2764 17.464 89.3004 17.336 89.3164 17.208C89.3484 17.08 89.3644 16.96 89.3644 16.848C89.3644 16.512 89.3004 16.2 89.1724 15.912C89.0444 15.608 88.8684 15.344 88.6444 15.12C88.4204 14.896 88.1484 14.728 87.8284 14.616C87.5244 14.488 87.1724 14.424 86.7724 14.424C86.1804 14.424 85.6844 14.544 85.2844 14.784C84.8844 15.024 84.5804 15.336 84.3724 15.72C84.1804 16.088 84.0604 16.472 84.0124 16.872H90.2524L89.2444 17.592ZM94.5968 28.896V12.168H97.5728V15.336L96.8528 15.576C97.0608 14.632 97.3728 13.896 97.7888 13.368C98.2208 12.84 98.7088 12.472 99.2528 12.264C99.7968 12.04 100.365 11.928 100.957 11.928C101.997 11.928 102.893 12.2 103.645 12.744C104.413 13.272 104.997 14 105.397 14.928C105.797 15.856 105.997 16.912 105.997 18.096C105.997 19.376 105.773 20.48 105.325 21.408C104.877 22.32 104.269 23.024 103.501 23.52C102.733 24 101.885 24.24 100.957 24.24C100.333 24.24 99.7408 24.112 99.1808 23.856C98.6208 23.6 98.1408 23.216 97.7408 22.704C97.3568 22.176 97.0928 21.512 96.9488 20.712L97.5728 20.808V28.896H94.5968ZM100.141 21.504C100.733 21.504 101.237 21.368 101.653 21.096C102.085 20.808 102.421 20.408 102.661 19.896C102.901 19.384 103.021 18.784 103.021 18.096C103.021 17.392 102.901 16.784 102.661 16.272C102.421 15.76 102.085 15.368 101.653 15.096C101.237 14.808 100.733 14.664 100.141 14.664C99.5648 14.664 99.0608 14.808 98.6288 15.096C98.2128 15.384 97.8848 15.784 97.6448 16.296C97.4208 16.792 97.3088 17.392 97.3088 18.096C97.3088 18.784 97.4208 19.384 97.6448 19.896C97.8848 20.408 98.2128 20.808 98.6288 21.096C99.0608 21.368 99.5648 21.504 100.141 21.504ZM111.138 24.24C110.322 24.24 109.65 23.992 109.122 23.496C108.594 23 108.33 22.216 108.33 21.144V7.272H111.282V20.568C111.282 20.904 111.362 21.144 111.522 21.288C111.682 21.416 111.89 21.48 112.146 21.48C112.274 21.48 112.41 21.472 112.554 21.456C112.698 21.424 112.85 21.384 113.01 21.336V23.88C112.674 24.008 112.338 24.096 112.002 24.144C111.682 24.208 111.394 24.24 111.138 24.24ZM119.234 24.24C118.274 24.24 117.466 24.048 116.81 23.664C116.17 23.28 115.69 22.736 115.37 22.032C115.066 21.328 114.914 20.504 114.914 19.56V12.168H117.89V18.816C117.89 19.36 117.954 19.848 118.082 20.28C118.21 20.696 118.434 21.032 118.754 21.288C119.09 21.528 119.546 21.648 120.122 21.648C120.826 21.648 121.354 21.448 121.706 21.048C122.074 20.648 122.322 20.096 122.45 19.392C122.594 18.672 122.666 17.832 122.666 16.872V12.168H125.642V24H122.666V21.432L123.074 21.672C122.722 22.584 122.202 23.24 121.514 23.64C120.826 24.04 120.066 24.24 119.234 24.24ZM132.709 24.24C131.829 24.24 131.061 24.112 130.405 23.856C129.749 23.6 129.189 23.28 128.725 22.896C128.277 22.512 127.917 22.144 127.645 21.792L129.685 20.016C129.957 20.464 130.341 20.88 130.837 21.264C131.349 21.632 131.981 21.816 132.733 21.816C133.325 21.816 133.781 21.704 134.101 21.48C134.437 21.24 134.605 20.944 134.605 20.592C134.605 20.304 134.501 20.072 134.293 19.896C134.085 19.704 133.805 19.552 133.453 19.44C133.101 19.312 132.709 19.192 132.277 19.08C131.829 18.952 131.365 18.808 130.885 18.648C130.405 18.488 129.965 18.28 129.565 18.024C129.165 17.752 128.837 17.408 128.581 16.992C128.341 16.576 128.221 16.056 128.221 15.432C128.221 14.392 128.629 13.552 129.445 12.912C130.261 12.256 131.341 11.928 132.685 11.928C133.629 11.928 134.485 12.12 135.253 12.504C136.021 12.872 136.629 13.408 137.077 14.112L135.229 15.576C134.941 15.112 134.557 14.768 134.077 14.544C133.613 14.304 133.117 14.184 132.589 14.184C132.125 14.184 131.741 14.272 131.437 14.448C131.149 14.624 131.005 14.864 131.005 15.168C131.005 15.376 131.069 15.552 131.197 15.696C131.341 15.84 131.565 15.968 131.869 16.08C132.189 16.176 132.605 16.288 133.117 16.416C133.597 16.528 134.093 16.664 134.605 16.824C135.117 16.984 135.597 17.2 136.045 17.472C136.493 17.744 136.853 18.104 137.125 18.552C137.397 19 137.533 19.568 137.533 20.256C137.533 21.04 137.333 21.736 136.933 22.344C136.533 22.936 135.973 23.4 135.253 23.736C134.533 24.072 133.685 24.24 132.709 24.24Z" fill="#0F172A"/>
</svg>
