<svg width="170" height="32" viewBox="0 0 170 32" fill="none" xmlns="http://www.w3.org/2000/svg">
<path d="M28.0693 2.73633L21.2826 7.68501V13.4395L23.7032 15.2045L32.489 8.79784L28.0693 2.73633Z" fill="url(#paint0_linear_7894_5426)"/>
<path d="M12.4935 19.5V31.9998H19.9952V24.9701L12.4935 19.5Z" fill="url(#paint1_linear_7894_5426)"/>
<path d="M19.9953 12.4999V0H12.4936V7.02961L19.9953 12.4999Z" fill="url(#paint2_linear_7894_5426)"/>
<path d="M4.41988 2.73535L0 8.79686L28.0691 29.2649L32.489 23.2034L4.41988 2.73535Z" fill="url(#paint3_linear_7894_5426)"/>
<path d="M11.2062 18.5619L8.78584 16.7969L0 23.2036L4.41988 29.2651L11.2062 24.3164V18.5619Z" fill="url(#paint4_linear_7894_5426)"/>
<path opacity="0.3" d="M12.4936 19.5V31.9998H16.2444V22.2351L12.4936 19.5Z" fill="url(#paint5_linear_7894_5426)"/>
<path opacity="0.3" d="M16.2444 0H12.4936V7.0296L16.2444 9.76468V0Z" fill="url(#paint6_linear_7894_5426)"/>
<path opacity="0.3" d="M11.2062 19.6742V18.5619L8.78584 16.7969L0 23.2036L2.21003 26.2343L11.2062 19.6742Z" fill="url(#paint7_linear_7894_5426)"/>
<path opacity="0.3" d="M21.2827 12.3264L30.2792 5.76611L28.0694 2.73535L21.2827 7.68403V12.3264Z" fill="url(#paint8_linear_7894_5426)"/>
<path opacity="0.3" d="M2.2111 5.76811L0.00109863 8.79883L28.0703 29.2674L30.2803 26.2366L2.2111 5.76811Z" fill="url(#paint9_linear_7894_5426)"/>
<path d="M49.4411 24.384C47.8571 24.384 46.4571 24.016 45.2411 23.28C44.0411 22.544 43.1051 21.52 42.4331 20.208C41.7611 18.896 41.4251 17.368 41.4251 15.624C41.4251 13.88 41.7611 12.36 42.4331 11.064C43.1051 9.752 44.0411 8.728 45.2411 7.992C46.4571 7.256 47.8571 6.888 49.4411 6.888C51.2171 6.888 52.7451 7.336 54.0251 8.232C55.3211 9.112 56.2491 10.328 56.8091 11.88L53.8811 12.96C53.5291 11.984 52.9691 11.224 52.2011 10.68C51.4491 10.136 50.5291 9.864 49.4411 9.864C48.4491 9.864 47.5771 10.096 46.8251 10.56C46.0891 11.024 45.5211 11.688 45.1211 12.552C44.7371 13.4 44.5451 14.424 44.5451 15.624C44.5451 16.824 44.7371 17.856 45.1211 18.72C45.5211 19.584 46.0891 20.248 46.8251 20.712C47.5771 21.176 48.4491 21.408 49.4411 21.408C50.5291 21.408 51.4491 21.136 52.2011 20.592C52.9691 20.048 53.5291 19.288 53.8811 18.312L56.8091 19.368C56.2491 20.92 55.3211 22.144 54.0251 23.04C52.7451 23.936 51.2171 24.384 49.4411 24.384ZM61.7287 24.24C60.9127 24.24 60.2407 23.992 59.7127 23.496C59.1847 23 58.9207 22.216 58.9207 21.144V7.272H61.8727V20.568C61.8727 20.904 61.9527 21.144 62.1127 21.288C62.2727 21.416 62.4807 21.48 62.7367 21.48C62.8647 21.48 63.0007 21.472 63.1447 21.456C63.2887 21.424 63.4407 21.384 63.6007 21.336V23.88C63.2647 24.008 62.9287 24.096 62.5927 24.144C62.2727 24.208 61.9847 24.24 61.7287 24.24ZM70.9284 24.24C69.9044 24.24 69.0244 24.072 68.2884 23.736C67.5524 23.4 66.9444 22.952 66.4644 22.392C66.0004 21.816 65.6564 21.168 65.4324 20.448C65.2084 19.712 65.0964 18.944 65.0964 18.144C65.0964 17.376 65.2084 16.624 65.4324 15.888C65.6564 15.152 65.9924 14.488 66.4404 13.896C66.8884 13.304 67.4644 12.832 68.1684 12.48C68.8884 12.112 69.7444 11.928 70.7364 11.928C71.6644 11.928 72.4724 12.088 73.1604 12.408C73.8484 12.712 74.4164 13.144 74.8644 13.704C75.3124 14.248 75.6484 14.888 75.8724 15.624C76.1124 16.36 76.2324 17.144 76.2324 17.976C76.2324 18.088 76.2244 18.248 76.2084 18.456C76.2084 18.648 76.1924 18.856 76.1604 19.08H68.0724C68.1524 19.928 68.4644 20.568 69.0084 21C69.5684 21.432 70.2644 21.648 71.0964 21.648C71.7044 21.648 72.2964 21.544 72.8724 21.336C73.4484 21.112 73.9604 20.8 74.4084 20.4L75.8964 22.416C75.3364 22.848 74.8084 23.2 74.3124 23.472C73.8164 23.744 73.2964 23.936 72.7524 24.048C72.2244 24.176 71.6164 24.24 70.9284 24.24ZM73.2804 17.592C73.3124 17.464 73.3364 17.336 73.3524 17.208C73.3844 17.08 73.4004 16.96 73.4004 16.848C73.4004 16.512 73.3364 16.2 73.2084 15.912C73.0804 15.608 72.9044 15.344 72.6804 15.12C72.4564 14.896 72.1844 14.728 71.8644 14.616C71.5604 14.488 71.2084 14.424 70.8084 14.424C70.2164 14.424 69.7204 14.544 69.3204 14.784C68.9204 15.024 68.6164 15.336 68.4084 15.72C68.2164 16.088 68.0964 16.472 68.0484 16.872H74.2884L73.2804 17.592ZM86.2168 24L85.9768 22.224V16.536C85.9768 15.832 85.7528 15.312 85.3048 14.976C84.8728 14.624 84.2808 14.448 83.5288 14.448C82.9048 14.448 82.2648 14.576 81.6088 14.832C80.9688 15.072 80.4008 15.416 79.9048 15.864L78.3928 13.824C79.2248 13.152 80.0728 12.672 80.9368 12.384C81.8168 12.08 82.7608 11.928 83.7688 11.928C85.4008 11.928 86.6728 12.336 87.5848 13.152C88.4968 13.968 88.9528 15.096 88.9528 16.536V24H86.2168ZM82.6408 24.24C81.7768 24.24 81.0008 24.08 80.3128 23.76C79.6408 23.44 79.1048 22.984 78.7048 22.392C78.3208 21.8 78.1288 21.12 78.1288 20.352C78.1288 19.664 78.2648 19.08 78.5368 18.6C78.8248 18.104 79.2008 17.728 79.6648 17.472C80.0648 17.232 80.5048 17.064 80.9848 16.968C81.4808 16.872 82.0088 16.824 82.5688 16.824H86.2408V19.032H83.0008C82.7448 19.032 82.4888 19.056 82.2328 19.104C81.9928 19.136 81.7848 19.224 81.6088 19.368C81.4488 19.48 81.3288 19.624 81.2488 19.8C81.1688 19.96 81.1288 20.144 81.1288 20.352C81.1288 20.8 81.3048 21.16 81.6568 21.432C82.0088 21.704 82.4808 21.84 83.0728 21.84C83.6008 21.84 84.0808 21.728 84.5128 21.504C84.9608 21.264 85.3128 20.944 85.5688 20.544C85.8408 20.128 85.9768 19.656 85.9768 19.128L86.7688 20.712C86.5608 21.544 86.2408 22.224 85.8088 22.752C85.3928 23.264 84.9128 23.64 84.3688 23.88C83.8248 24.12 83.2488 24.24 82.6408 24.24ZM91.7343 24V12.168H94.7343V15.384L94.2783 15.432C94.3263 14.744 94.5343 14.136 94.9023 13.608C95.2703 13.08 95.7183 12.672 96.2463 12.384C96.7903 12.08 97.3423 11.928 97.9023 11.928C98.3023 11.928 98.6783 11.984 99.0303 12.096C99.3983 12.192 99.7743 12.36 100.158 12.6L98.7183 15.288C98.5423 15.192 98.3183 15.104 98.0463 15.024C97.7743 14.944 97.5023 14.904 97.2303 14.904C96.9103 14.904 96.5983 14.96 96.2943 15.072C96.0063 15.184 95.7423 15.36 95.5023 15.6C95.2783 15.84 95.0943 16.16 94.9503 16.56C94.8863 16.784 94.8303 17.072 94.7823 17.424C94.7503 17.76 94.7343 18.256 94.7343 18.912V24H91.7343ZM107.617 24.312C105.841 24.312 104.377 23.848 103.225 22.92C102.089 21.992 101.401 20.76 101.161 19.224L104.185 18.48C104.361 19.504 104.761 20.272 105.385 20.784C106.025 21.296 106.809 21.552 107.737 21.552C108.233 21.552 108.673 21.472 109.057 21.312C109.457 21.136 109.769 20.888 109.993 20.568C110.233 20.232 110.353 19.84 110.353 19.392C110.353 18.976 110.233 18.616 109.993 18.312C109.753 18.008 109.385 17.728 108.889 17.472C108.409 17.216 107.801 16.952 107.065 16.68C106.009 16.264 105.121 15.824 104.401 15.36C103.697 14.88 103.169 14.328 102.817 13.704C102.465 13.08 102.289 12.344 102.289 11.496C102.289 10.6 102.505 9.808 102.937 9.12C103.385 8.432 104.001 7.888 104.785 7.488C105.585 7.088 106.513 6.888 107.569 6.888C108.689 6.888 109.681 7.152 110.545 7.68C111.425 8.192 112.129 8.96 112.657 9.984L110.185 11.496C109.849 10.888 109.449 10.432 108.985 10.128C108.537 9.808 108.033 9.648 107.473 9.648C107.073 9.648 106.713 9.728 106.393 9.888C106.089 10.032 105.841 10.24 105.649 10.512C105.473 10.768 105.385 11.072 105.385 11.424C105.385 11.792 105.489 12.12 105.697 12.408C105.921 12.696 106.273 12.976 106.753 13.248C107.249 13.504 107.889 13.776 108.673 14.064C109.713 14.448 110.577 14.872 111.265 15.336C111.969 15.8 112.505 16.344 112.873 16.968C113.241 17.576 113.425 18.32 113.425 19.2C113.425 20.192 113.177 21.08 112.681 21.864C112.201 22.632 111.529 23.232 110.665 23.664C109.801 24.096 108.785 24.312 107.617 24.312ZM121.182 24.24C120.03 24.24 119.006 23.976 118.11 23.448C117.214 22.92 116.502 22.192 115.974 21.264C115.462 20.32 115.206 19.256 115.206 18.072C115.206 16.872 115.462 15.816 115.974 14.904C116.486 13.976 117.19 13.248 118.086 12.72C118.998 12.192 120.03 11.928 121.182 11.928C122.318 11.928 123.334 12.192 124.23 12.72C125.126 13.248 125.83 13.976 126.342 14.904C126.854 15.816 127.11 16.872 127.11 18.072C127.11 19.256 126.854 20.312 126.342 21.24C125.83 22.168 125.126 22.904 124.23 23.448C123.334 23.976 122.318 24.24 121.182 24.24ZM121.182 21.624C121.79 21.624 122.31 21.48 122.742 21.192C123.19 20.904 123.526 20.496 123.75 19.968C123.99 19.44 124.11 18.808 124.11 18.072C124.11 17.32 123.99 16.688 123.75 16.176C123.526 15.648 123.19 15.248 122.742 14.976C122.31 14.688 121.79 14.544 121.182 14.544C120.558 14.544 120.022 14.688 119.574 14.976C119.126 15.248 118.782 15.648 118.542 16.176C118.302 16.688 118.182 17.32 118.182 18.072C118.182 18.808 118.302 19.44 118.542 19.968C118.782 20.496 119.126 20.904 119.574 21.192C120.022 21.48 120.558 21.624 121.182 21.624ZM133.668 24.24C132.708 24.24 131.9 24.048 131.244 23.664C130.604 23.28 130.124 22.736 129.804 22.032C129.5 21.328 129.348 20.504 129.348 19.56V12.168H132.324V18.816C132.324 19.36 132.388 19.848 132.516 20.28C132.644 20.696 132.868 21.032 133.188 21.288C133.524 21.528 133.98 21.648 134.556 21.648C135.26 21.648 135.788 21.448 136.14 21.048C136.508 20.648 136.756 20.096 136.884 19.392C137.028 18.672 137.1 17.832 137.1 16.872V12.168H140.076V24H137.1V21.432L137.508 21.672C137.156 22.584 136.636 23.24 135.948 23.64C135.26 24.04 134.5 24.24 133.668 24.24ZM143.039 24V12.168H146.039V14.856L145.559 14.904C145.767 14.184 146.071 13.608 146.471 13.176C146.871 12.744 147.335 12.432 147.863 12.24C148.391 12.032 148.935 11.928 149.495 11.928C150.839 11.928 151.887 12.312 152.639 13.08C153.407 13.832 153.791 14.896 153.791 16.272V24H150.791V17.376C150.791 16.384 150.615 15.664 150.263 15.216C149.911 14.752 149.359 14.52 148.607 14.52C148.031 14.52 147.551 14.656 147.167 14.928C146.799 15.184 146.519 15.592 146.327 16.152C146.135 16.712 146.039 17.44 146.039 18.336V24H143.039ZM161.074 24.24C160.034 24.24 159.138 23.976 158.386 23.448C157.634 22.904 157.05 22.168 156.634 21.24C156.234 20.296 156.034 19.24 156.034 18.072C156.034 16.776 156.258 15.672 156.706 14.76C157.17 13.848 157.786 13.152 158.554 12.672C159.322 12.176 160.162 11.928 161.074 11.928C161.714 11.928 162.306 12.064 162.85 12.336C163.41 12.592 163.89 12.984 164.29 13.512C164.69 14.04 164.954 14.712 165.082 15.528L164.482 15.36V7.272H167.434V24H164.482V20.832L165.178 20.496C164.986 21.424 164.674 22.168 164.242 22.728C163.826 23.272 163.338 23.664 162.778 23.904C162.234 24.128 161.666 24.24 161.074 24.24ZM161.89 21.504C162.482 21.504 162.986 21.36 163.402 21.072C163.834 20.784 164.162 20.384 164.386 19.872C164.626 19.36 164.746 18.76 164.746 18.072C164.746 17.384 164.626 16.784 164.386 16.272C164.162 15.76 163.834 15.368 163.402 15.096C162.986 14.808 162.482 14.664 161.89 14.664C161.314 14.664 160.81 14.808 160.378 15.096C159.946 15.368 159.61 15.76 159.37 16.272C159.146 16.768 159.034 17.368 159.034 18.072C159.034 18.776 159.146 19.384 159.37 19.896C159.61 20.408 159.946 20.808 160.378 21.096C160.81 21.368 161.314 21.504 161.89 21.504Z" fill="#0F172A"/>
<defs>
<linearGradient id="paint0_linear_7894_5426" x1="21.2826" y1="8.97042" x2="32.489" y2="8.97042" gradientUnits="userSpaceOnUse">
<stop stop-color="#316DFF"/>
<stop offset="1" stop-color="#1FB257"/>
</linearGradient>
<linearGradient id="paint1_linear_7894_5426" x1="12.4935" y1="25.7499" x2="19.9952" y2="25.7499" gradientUnits="userSpaceOnUse">
<stop stop-color="#316DFF"/>
<stop offset="1" stop-color="#1FB257"/>
</linearGradient>
<linearGradient id="paint2_linear_7894_5426" x1="12.4936" y1="6.24997" x2="19.9953" y2="6.24997" gradientUnits="userSpaceOnUse">
<stop stop-color="#316DFF"/>
<stop offset="1" stop-color="#1FB257"/>
</linearGradient>
<linearGradient id="paint3_linear_7894_5426" x1="0" y1="16.0001" x2="32.489" y2="16.0001" gradientUnits="userSpaceOnUse">
<stop stop-color="#316DFF"/>
<stop offset="1" stop-color="#1FB257"/>
</linearGradient>
<linearGradient id="paint4_linear_7894_5426" x1="0" y1="23.031" x2="11.2062" y2="23.031" gradientUnits="userSpaceOnUse">
<stop stop-color="#316DFF"/>
<stop offset="1" stop-color="#1FB257"/>
</linearGradient>
<linearGradient id="paint5_linear_7894_5426" x1="12.4936" y1="25.7499" x2="16.2444" y2="25.7499" gradientUnits="userSpaceOnUse">
<stop stop-color="#316DFF"/>
<stop offset="1" stop-color="#1FB257"/>
</linearGradient>
<linearGradient id="paint6_linear_7894_5426" x1="12.4936" y1="4.88234" x2="16.2444" y2="4.88234" gradientUnits="userSpaceOnUse">
<stop stop-color="#316DFF"/>
<stop offset="1" stop-color="#1FB257"/>
</linearGradient>
<linearGradient id="paint7_linear_7894_5426" x1="0" y1="21.5156" x2="11.2062" y2="21.5156" gradientUnits="userSpaceOnUse">
<stop stop-color="#316DFF"/>
<stop offset="1" stop-color="#1FB257"/>
</linearGradient>
<linearGradient id="paint8_linear_7894_5426" x1="21.2827" y1="7.53087" x2="30.2792" y2="7.53087" gradientUnits="userSpaceOnUse">
<stop stop-color="#316DFF"/>
<stop offset="1" stop-color="#1FB257"/>
</linearGradient>
<linearGradient id="paint9_linear_7894_5426" x1="14.0357" y1="19.0331" x2="16.2457" y2="16.0024" gradientUnits="userSpaceOnUse">
<stop stop-color="#316DFF"/>
<stop offset="1" stop-color="#1FB257"/>
</linearGradient>
</defs>
</svg>
