<svg width="139" height="32" viewBox="0 0 139 32" fill="none" xmlns="http://www.w3.org/2000/svg">
<g style="mix-blend-mode:luminosity">
<path d="M10.7869 10.7871H0V12.6921C0 17.3982 3.81492 21.2131 8.52098 21.2131H10.7869V10.7871Z" fill="url(#paint0_linear_7894_5455)"/>
<path d="M23.4788 10.7871H21.2129V21.2132H31.9998V19.3081C32 14.602 28.1849 10.7871 23.4788 10.7871Z" fill="url(#paint1_linear_7894_5455)"/>
<path opacity="0.35" d="M10.7869 10.7871H9.55396V21.2132H10.7869V10.7871Z" fill="url(#paint2_linear_7894_5455)"/>
<path opacity="0.35" d="M22.4461 10.7871H21.2131V21.2132H22.4461V10.7871Z" fill="url(#paint3_linear_7894_5455)"/>
<path d="M10.787 32V8.52098C10.787 3.81493 14.6019 0 19.308 0H21.213V23.4789C21.213 28.1849 17.398 31.9998 12.692 31.9998L10.787 32Z" fill="url(#paint4_linear_7894_5455)"/>
<path d="M48.9519 24.384C47.3679 24.384 45.9679 24.016 44.7519 23.28C43.5519 22.544 42.6159 21.52 41.9439 20.208C41.2719 18.896 40.9359 17.368 40.9359 15.624C40.9359 13.88 41.2719 12.36 41.9439 11.064C42.6159 9.752 43.5519 8.728 44.7519 7.992C45.9679 7.256 47.3679 6.888 48.9519 6.888C50.7279 6.888 52.2559 7.336 53.5359 8.232C54.8319 9.112 55.7599 10.328 56.3199 11.88L53.3919 12.96C53.0399 11.984 52.4799 11.224 51.7119 10.68C50.9599 10.136 50.0399 9.864 48.9519 9.864C47.9599 9.864 47.0879 10.096 46.3359 10.56C45.5999 11.024 45.0319 11.688 44.6319 12.552C44.2479 13.4 44.0559 14.424 44.0559 15.624C44.0559 16.824 44.2479 17.856 44.6319 18.72C45.0319 19.584 45.5999 20.248 46.3359 20.712C47.0879 21.176 47.9599 21.408 48.9519 21.408C50.0399 21.408 50.9599 21.136 51.7119 20.592C52.4799 20.048 53.0399 19.288 53.3919 18.312L56.3199 19.368C55.7599 20.92 54.8319 22.144 53.5359 23.04C52.2559 23.936 50.7279 24.384 48.9519 24.384ZM62.6555 24.24C61.6955 24.24 60.8875 24.048 60.2315 23.664C59.5915 23.28 59.1115 22.736 58.7915 22.032C58.4875 21.328 58.3355 20.504 58.3355 19.56V12.168H61.3115V18.816C61.3115 19.36 61.3755 19.848 61.5035 20.28C61.6315 20.696 61.8555 21.032 62.1755 21.288C62.5115 21.528 62.9675 21.648 63.5435 21.648C64.2475 21.648 64.7755 21.448 65.1275 21.048C65.4955 20.648 65.7435 20.096 65.8715 19.392C66.0155 18.672 66.0875 17.832 66.0875 16.872V12.168H69.0635V24H66.0875V21.432L66.4955 21.672C66.1435 22.584 65.6235 23.24 64.9355 23.64C64.2475 24.04 63.4875 24.24 62.6555 24.24ZM72.0264 24V12.168H75.0264V15.384L74.5704 15.432C74.6184 14.744 74.8264 14.136 75.1944 13.608C75.5624 13.08 76.0104 12.672 76.5384 12.384C77.0824 12.08 77.6344 11.928 78.1944 11.928C78.5944 11.928 78.9704 11.984 79.3224 12.096C79.6904 12.192 80.0664 12.36 80.4504 12.6L79.0104 15.288C78.8344 15.192 78.6104 15.104 78.3384 15.024C78.0664 14.944 77.7944 14.904 77.5224 14.904C77.2024 14.904 76.8904 14.96 76.5864 15.072C76.2984 15.184 76.0344 15.36 75.7944 15.6C75.5704 15.84 75.3864 16.16 75.2424 16.56C75.1784 16.784 75.1224 17.072 75.0744 17.424C75.0424 17.76 75.0264 18.256 75.0264 18.912V24H72.0264ZM86.8923 24.24C85.8683 24.24 84.9883 24.072 84.2523 23.736C83.5163 23.4 82.9083 22.952 82.4283 22.392C81.9643 21.816 81.6203 21.168 81.3963 20.448C81.1723 19.712 81.0603 18.944 81.0603 18.144C81.0603 17.376 81.1723 16.624 81.3963 15.888C81.6203 15.152 81.9563 14.488 82.4043 13.896C82.8523 13.304 83.4283 12.832 84.1323 12.48C84.8523 12.112 85.7083 11.928 86.7003 11.928C87.6283 11.928 88.4363 12.088 89.1243 12.408C89.8123 12.712 90.3803 13.144 90.8283 13.704C91.2763 14.248 91.6123 14.888 91.8363 15.624C92.0763 16.36 92.1963 17.144 92.1963 17.976C92.1963 18.088 92.1883 18.248 92.1723 18.456C92.1723 18.648 92.1563 18.856 92.1243 19.08H84.0363C84.1163 19.928 84.4283 20.568 84.9723 21C85.5323 21.432 86.2283 21.648 87.0603 21.648C87.6683 21.648 88.2603 21.544 88.8363 21.336C89.4123 21.112 89.9243 20.8 90.3723 20.4L91.8603 22.416C91.3003 22.848 90.7723 23.2 90.2763 23.472C89.7803 23.744 89.2603 23.936 88.7163 24.048C88.1883 24.176 87.5803 24.24 86.8923 24.24ZM89.2443 17.592C89.2763 17.464 89.3003 17.336 89.3163 17.208C89.3483 17.08 89.3643 16.96 89.3643 16.848C89.3643 16.512 89.3003 16.2 89.1723 15.912C89.0443 15.608 88.8683 15.344 88.6443 15.12C88.4203 14.896 88.1483 14.728 87.8283 14.616C87.5243 14.488 87.1723 14.424 86.7723 14.424C86.1803 14.424 85.6843 14.544 85.2843 14.784C84.8843 15.024 84.5803 15.336 84.3723 15.72C84.1803 16.088 84.0603 16.472 84.0123 16.872H90.2523L89.2443 17.592ZM94.5967 28.896V12.168H97.5727V15.336L96.8527 15.576C97.0607 14.632 97.3727 13.896 97.7887 13.368C98.2207 12.84 98.7087 12.472 99.2527 12.264C99.7967 12.04 100.365 11.928 100.957 11.928C101.997 11.928 102.893 12.2 103.645 12.744C104.413 13.272 104.997 14 105.397 14.928C105.797 15.856 105.997 16.912 105.997 18.096C105.997 19.376 105.773 20.48 105.325 21.408C104.877 22.32 104.269 23.024 103.501 23.52C102.733 24 101.885 24.24 100.957 24.24C100.333 24.24 99.7407 24.112 99.1807 23.856C98.6207 23.6 98.1407 23.216 97.7407 22.704C97.3567 22.176 97.0927 21.512 96.9487 20.712L97.5727 20.808V28.896H94.5967ZM100.141 21.504C100.733 21.504 101.237 21.368 101.653 21.096C102.085 20.808 102.421 20.408 102.661 19.896C102.901 19.384 103.021 18.784 103.021 18.096C103.021 17.392 102.901 16.784 102.661 16.272C102.421 15.76 102.085 15.368 101.653 15.096C101.237 14.808 100.733 14.664 100.141 14.664C99.5647 14.664 99.0607 14.808 98.6287 15.096C98.2127 15.384 97.8847 15.784 97.6447 16.296C97.4207 16.792 97.3087 17.392 97.3087 18.096C97.3087 18.784 97.4207 19.384 97.6447 19.896C97.8847 20.408 98.2127 20.808 98.6287 21.096C99.0607 21.368 99.5647 21.504 100.141 21.504ZM111.138 24.24C110.322 24.24 109.65 23.992 109.122 23.496C108.594 23 108.33 22.216 108.33 21.144V7.272H111.282V20.568C111.282 20.904 111.362 21.144 111.522 21.288C111.682 21.416 111.89 21.48 112.146 21.48C112.274 21.48 112.41 21.472 112.554 21.456C112.698 21.424 112.85 21.384 113.01 21.336V23.88C112.674 24.008 112.338 24.096 112.002 24.144C111.682 24.208 111.394 24.24 111.138 24.24ZM119.234 24.24C118.274 24.24 117.466 24.048 116.81 23.664C116.17 23.28 115.69 22.736 115.37 22.032C115.066 21.328 114.914 20.504 114.914 19.56V12.168H117.89V18.816C117.89 19.36 117.954 19.848 118.082 20.28C118.21 20.696 118.434 21.032 118.754 21.288C119.09 21.528 119.546 21.648 120.122 21.648C120.826 21.648 121.354 21.448 121.706 21.048C122.074 20.648 122.322 20.096 122.45 19.392C122.594 18.672 122.666 17.832 122.666 16.872V12.168H125.642V24H122.666V21.432L123.074 21.672C122.722 22.584 122.202 23.24 121.514 23.64C120.826 24.04 120.066 24.24 119.234 24.24ZM132.709 24.24C131.829 24.24 131.061 24.112 130.405 23.856C129.749 23.6 129.189 23.28 128.725 22.896C128.277 22.512 127.917 22.144 127.645 21.792L129.685 20.016C129.957 20.464 130.341 20.88 130.837 21.264C131.349 21.632 131.981 21.816 132.733 21.816C133.325 21.816 133.781 21.704 134.101 21.48C134.437 21.24 134.605 20.944 134.605 20.592C134.605 20.304 134.501 20.072 134.293 19.896C134.085 19.704 133.805 19.552 133.453 19.44C133.101 19.312 132.709 19.192 132.277 19.08C131.829 18.952 131.365 18.808 130.885 18.648C130.405 18.488 129.965 18.28 129.565 18.024C129.165 17.752 128.837 17.408 128.581 16.992C128.341 16.576 128.221 16.056 128.221 15.432C128.221 14.392 128.629 13.552 129.445 12.912C130.261 12.256 131.341 11.928 132.685 11.928C133.629 11.928 134.485 12.12 135.253 12.504C136.021 12.872 136.629 13.408 137.077 14.112L135.229 15.576C134.941 15.112 134.557 14.768 134.077 14.544C133.613 14.304 133.117 14.184 132.589 14.184C132.125 14.184 131.741 14.272 131.437 14.448C131.149 14.624 131.005 14.864 131.005 15.168C131.005 15.376 131.069 15.552 131.197 15.696C131.341 15.84 131.565 15.968 131.869 16.08C132.189 16.176 132.605 16.288 133.117 16.416C133.597 16.528 134.093 16.664 134.605 16.824C135.117 16.984 135.597 17.2 136.045 17.472C136.493 17.744 136.853 18.104 137.125 18.552C137.397 19 137.533 19.568 137.533 20.256C137.533 21.04 137.333 21.736 136.933 22.344C136.533 22.936 135.973 23.4 135.253 23.736C134.533 24.072 133.685 24.24 132.709 24.24Z" fill="#0F172A"/>
</g>
<defs>
<linearGradient id="paint0_linear_7894_5455" x1="0" y1="16.0001" x2="10.7869" y2="16.0001" gradientUnits="userSpaceOnUse">
<stop stop-color="#316DFF"/>
<stop offset="1" stop-color="#1FB257"/>
</linearGradient>
<linearGradient id="paint1_linear_7894_5455" x1="21.2129" y1="16.0002" x2="31.9998" y2="16.0002" gradientUnits="userSpaceOnUse">
<stop stop-color="#316DFF"/>
<stop offset="1" stop-color="#1FB257"/>
</linearGradient>
<linearGradient id="paint2_linear_7894_5455" x1="9.55396" y1="16.0002" x2="10.7869" y2="16.0002" gradientUnits="userSpaceOnUse">
<stop stop-color="#316DFF"/>
<stop offset="1" stop-color="#1FB257"/>
</linearGradient>
<linearGradient id="paint3_linear_7894_5455" x1="21.2131" y1="16.0002" x2="22.4461" y2="16.0002" gradientUnits="userSpaceOnUse">
<stop stop-color="#316DFF"/>
<stop offset="1" stop-color="#1FB257"/>
</linearGradient>
<linearGradient id="paint4_linear_7894_5455" x1="10.787" y1="16" x2="21.213" y2="16" gradientUnits="userSpaceOnUse">
<stop stop-color="#316DFF"/>
<stop offset="1" stop-color="#1FB257"/>
</linearGradient>
</defs>
</svg>
