<svg width="170" height="32" viewBox="0 0 170 32" fill="none" xmlns="http://www.w3.org/2000/svg">
<path d="M28.0694 2.73633L21.2827 7.68501V13.4395L23.7033 15.2045L32.4891 8.79784L28.0694 2.73633Z" fill="#CF1415"/>
<path d="M12.4937 19.5V31.9998H19.9953V24.9701L12.4937 19.5Z" fill="#CF1415"/>
<path d="M19.9953 12.4999V0H12.4937V7.02961L19.9953 12.4999Z" fill="#CF1415"/>
<path d="M4.41988 2.73535L0 8.79686L28.0691 29.2649L32.489 23.2034L4.41988 2.73535Z" fill="#CF1415"/>
<path d="M11.2062 18.5619L8.78584 16.7969L0 23.2036L4.41988 29.2651L11.2062 24.3164V18.5619Z" fill="#CF1415"/>
<path opacity="0.3" d="M12.4937 19.5V31.9998H16.2445V22.2351L12.4937 19.5Z" fill="#CF1415"/>
<path opacity="0.3" d="M16.2445 0H12.4937V7.0296L16.2445 9.76468V0Z" fill="#CF1415"/>
<path opacity="0.3" d="M11.2062 19.6742V18.5619L8.78584 16.7969L0 23.2036L2.21003 26.2343L11.2062 19.6742Z" fill="#CF1415"/>
<path opacity="0.3" d="M21.2827 12.3264L30.2793 5.76611L28.0694 2.73535L21.2827 7.68403V12.3264Z" fill="#CF1415"/>
<path opacity="0.3" d="M2.21097 5.76811L0.000976562 8.79883L28.0702 29.2674L30.2802 26.2366L2.21097 5.76811Z" fill="#CF1415"/>
<path d="M49.4408 24.384C47.8568 24.384 46.4568 24.016 45.2408 23.28C44.0408 22.544 43.1048 21.52 42.4328 20.208C41.7608 18.896 41.4248 17.368 41.4248 15.624C41.4248 13.88 41.7608 12.36 42.4328 11.064C43.1048 9.752 44.0408 8.728 45.2408 7.992C46.4568 7.256 47.8568 6.888 49.4408 6.888C51.2168 6.888 52.7448 7.336 54.0248 8.232C55.3208 9.112 56.2488 10.328 56.8088 11.88L53.8808 12.96C53.5288 11.984 52.9688 11.224 52.2008 10.68C51.4488 10.136 50.5288 9.864 49.4408 9.864C48.4488 9.864 47.5768 10.096 46.8248 10.56C46.0888 11.024 45.5208 11.688 45.1208 12.552C44.7368 13.4 44.5448 14.424 44.5448 15.624C44.5448 16.824 44.7368 17.856 45.1208 18.72C45.5208 19.584 46.0888 20.248 46.8248 20.712C47.5768 21.176 48.4488 21.408 49.4408 21.408C50.5288 21.408 51.4488 21.136 52.2008 20.592C52.9688 20.048 53.5288 19.288 53.8808 18.312L56.8088 19.368C56.2488 20.92 55.3208 22.144 54.0248 23.04C52.7448 23.936 51.2168 24.384 49.4408 24.384ZM61.7284 24.24C60.9124 24.24 60.2404 23.992 59.7124 23.496C59.1844 23 58.9204 22.216 58.9204 21.144V7.272H61.8724V20.568C61.8724 20.904 61.9524 21.144 62.1124 21.288C62.2724 21.416 62.4804 21.48 62.7364 21.48C62.8644 21.48 63.0004 21.472 63.1444 21.456C63.2884 21.424 63.4404 21.384 63.6004 21.336V23.88C63.2644 24.008 62.9284 24.096 62.5924 24.144C62.2724 24.208 61.9844 24.24 61.7284 24.24ZM70.9281 24.24C69.9041 24.24 69.0241 24.072 68.2881 23.736C67.5521 23.4 66.9441 22.952 66.4641 22.392C66.0001 21.816 65.6561 21.168 65.4321 20.448C65.2081 19.712 65.0961 18.944 65.0961 18.144C65.0961 17.376 65.2081 16.624 65.4321 15.888C65.6561 15.152 65.9921 14.488 66.4401 13.896C66.8881 13.304 67.4641 12.832 68.1681 12.48C68.8881 12.112 69.7441 11.928 70.7361 11.928C71.6641 11.928 72.4721 12.088 73.1601 12.408C73.8481 12.712 74.4161 13.144 74.8641 13.704C75.3121 14.248 75.6481 14.888 75.8721 15.624C76.1121 16.36 76.2321 17.144 76.2321 17.976C76.2321 18.088 76.2241 18.248 76.2081 18.456C76.2081 18.648 76.1921 18.856 76.1601 19.08H68.0721C68.1521 19.928 68.4641 20.568 69.0081 21C69.5681 21.432 70.2641 21.648 71.0961 21.648C71.7041 21.648 72.2961 21.544 72.8721 21.336C73.4481 21.112 73.9601 20.8 74.4081 20.4L75.8961 22.416C75.3361 22.848 74.8081 23.2 74.3121 23.472C73.8161 23.744 73.2961 23.936 72.7521 24.048C72.2241 24.176 71.6161 24.24 70.9281 24.24ZM73.2801 17.592C73.3121 17.464 73.3361 17.336 73.3521 17.208C73.3841 17.08 73.4001 16.96 73.4001 16.848C73.4001 16.512 73.3361 16.2 73.2081 15.912C73.0801 15.608 72.9041 15.344 72.6801 15.12C72.4561 14.896 72.1841 14.728 71.8641 14.616C71.5601 14.488 71.2081 14.424 70.8081 14.424C70.2161 14.424 69.7201 14.544 69.3201 14.784C68.9201 15.024 68.6161 15.336 68.4081 15.72C68.2161 16.088 68.0961 16.472 68.0481 16.872H74.2881L73.2801 17.592ZM86.2165 24L85.9765 22.224V16.536C85.9765 15.832 85.7525 15.312 85.3045 14.976C84.8725 14.624 84.2805 14.448 83.5285 14.448C82.9045 14.448 82.2645 14.576 81.6085 14.832C80.9685 15.072 80.4005 15.416 79.9045 15.864L78.3925 13.824C79.2245 13.152 80.0725 12.672 80.9365 12.384C81.8165 12.08 82.7605 11.928 83.7685 11.928C85.4005 11.928 86.6725 12.336 87.5845 13.152C88.4965 13.968 88.9525 15.096 88.9525 16.536V24H86.2165ZM82.6405 24.24C81.7765 24.24 81.0005 24.08 80.3125 23.76C79.6405 23.44 79.1045 22.984 78.7045 22.392C78.3205 21.8 78.1285 21.12 78.1285 20.352C78.1285 19.664 78.2645 19.08 78.5365 18.6C78.8245 18.104 79.2005 17.728 79.6645 17.472C80.0645 17.232 80.5045 17.064 80.9845 16.968C81.4805 16.872 82.0085 16.824 82.5685 16.824H86.2405V19.032H83.0005C82.7445 19.032 82.4885 19.056 82.2325 19.104C81.9925 19.136 81.7845 19.224 81.6085 19.368C81.4485 19.48 81.3285 19.624 81.2485 19.8C81.1685 19.96 81.1285 20.144 81.1285 20.352C81.1285 20.8 81.3045 21.16 81.6565 21.432C82.0085 21.704 82.4805 21.84 83.0725 21.84C83.6005 21.84 84.0805 21.728 84.5125 21.504C84.9605 21.264 85.3125 20.944 85.5685 20.544C85.8405 20.128 85.9765 19.656 85.9765 19.128L86.7685 20.712C86.5605 21.544 86.2405 22.224 85.8085 22.752C85.3925 23.264 84.9125 23.64 84.3685 23.88C83.8245 24.12 83.2485 24.24 82.6405 24.24ZM91.734 24V12.168H94.734V15.384L94.278 15.432C94.326 14.744 94.534 14.136 94.902 13.608C95.27 13.08 95.718 12.672 96.246 12.384C96.79 12.08 97.342 11.928 97.902 11.928C98.302 11.928 98.678 11.984 99.03 12.096C99.398 12.192 99.774 12.36 100.158 12.6L98.718 15.288C98.542 15.192 98.318 15.104 98.046 15.024C97.774 14.944 97.502 14.904 97.23 14.904C96.91 14.904 96.598 14.96 96.294 15.072C96.006 15.184 95.742 15.36 95.502 15.6C95.278 15.84 95.094 16.16 94.95 16.56C94.886 16.784 94.83 17.072 94.782 17.424C94.75 17.76 94.734 18.256 94.734 18.912V24H91.734ZM107.617 24.312C105.841 24.312 104.377 23.848 103.225 22.92C102.089 21.992 101.401 20.76 101.161 19.224L104.185 18.48C104.361 19.504 104.761 20.272 105.385 20.784C106.025 21.296 106.809 21.552 107.737 21.552C108.233 21.552 108.673 21.472 109.057 21.312C109.457 21.136 109.769 20.888 109.993 20.568C110.233 20.232 110.353 19.84 110.353 19.392C110.353 18.976 110.233 18.616 109.993 18.312C109.753 18.008 109.385 17.728 108.889 17.472C108.409 17.216 107.801 16.952 107.065 16.68C106.009 16.264 105.121 15.824 104.401 15.36C103.697 14.88 103.169 14.328 102.817 13.704C102.465 13.08 102.289 12.344 102.289 11.496C102.289 10.6 102.505 9.808 102.937 9.12C103.385 8.432 104.001 7.888 104.785 7.488C105.585 7.088 106.513 6.888 107.569 6.888C108.689 6.888 109.681 7.152 110.545 7.68C111.425 8.192 112.129 8.96 112.657 9.984L110.185 11.496C109.849 10.888 109.449 10.432 108.985 10.128C108.537 9.808 108.033 9.648 107.473 9.648C107.073 9.648 106.713 9.728 106.393 9.888C106.089 10.032 105.841 10.24 105.649 10.512C105.473 10.768 105.385 11.072 105.385 11.424C105.385 11.792 105.489 12.12 105.697 12.408C105.921 12.696 106.273 12.976 106.753 13.248C107.249 13.504 107.889 13.776 108.673 14.064C109.713 14.448 110.577 14.872 111.265 15.336C111.969 15.8 112.505 16.344 112.873 16.968C113.241 17.576 113.425 18.32 113.425 19.2C113.425 20.192 113.177 21.08 112.681 21.864C112.201 22.632 111.529 23.232 110.665 23.664C109.801 24.096 108.785 24.312 107.617 24.312ZM121.181 24.24C120.029 24.24 119.005 23.976 118.109 23.448C117.213 22.92 116.501 22.192 115.973 21.264C115.461 20.32 115.205 19.256 115.205 18.072C115.205 16.872 115.461 15.816 115.973 14.904C116.485 13.976 117.189 13.248 118.085 12.72C118.997 12.192 120.029 11.928 121.181 11.928C122.317 11.928 123.333 12.192 124.229 12.72C125.125 13.248 125.829 13.976 126.341 14.904C126.853 15.816 127.109 16.872 127.109 18.072C127.109 19.256 126.853 20.312 126.341 21.24C125.829 22.168 125.125 22.904 124.229 23.448C123.333 23.976 122.317 24.24 121.181 24.24ZM121.181 21.624C121.789 21.624 122.309 21.48 122.741 21.192C123.189 20.904 123.525 20.496 123.749 19.968C123.989 19.44 124.109 18.808 124.109 18.072C124.109 17.32 123.989 16.688 123.749 16.176C123.525 15.648 123.189 15.248 122.741 14.976C122.309 14.688 121.789 14.544 121.181 14.544C120.557 14.544 120.021 14.688 119.573 14.976C119.125 15.248 118.781 15.648 118.541 16.176C118.301 16.688 118.181 17.32 118.181 18.072C118.181 18.808 118.301 19.44 118.541 19.968C118.781 20.496 119.125 20.904 119.573 21.192C120.021 21.48 120.557 21.624 121.181 21.624ZM133.668 24.24C132.708 24.24 131.9 24.048 131.244 23.664C130.604 23.28 130.124 22.736 129.804 22.032C129.5 21.328 129.348 20.504 129.348 19.56V12.168H132.324V18.816C132.324 19.36 132.388 19.848 132.516 20.28C132.644 20.696 132.868 21.032 133.188 21.288C133.524 21.528 133.98 21.648 134.556 21.648C135.26 21.648 135.788 21.448 136.14 21.048C136.508 20.648 136.756 20.096 136.884 19.392C137.028 18.672 137.1 17.832 137.1 16.872V12.168H140.076V24H137.1V21.432L137.508 21.672C137.156 22.584 136.636 23.24 135.948 23.64C135.26 24.04 134.5 24.24 133.668 24.24ZM143.039 24V12.168H146.039V14.856L145.559 14.904C145.767 14.184 146.071 13.608 146.471 13.176C146.871 12.744 147.335 12.432 147.863 12.24C148.391 12.032 148.935 11.928 149.495 11.928C150.839 11.928 151.887 12.312 152.639 13.08C153.407 13.832 153.791 14.896 153.791 16.272V24H150.791V17.376C150.791 16.384 150.615 15.664 150.263 15.216C149.911 14.752 149.359 14.52 148.607 14.52C148.031 14.52 147.551 14.656 147.167 14.928C146.799 15.184 146.519 15.592 146.327 16.152C146.135 16.712 146.039 17.44 146.039 18.336V24H143.039ZM161.074 24.24C160.034 24.24 159.138 23.976 158.386 23.448C157.634 22.904 157.05 22.168 156.634 21.24C156.234 20.296 156.034 19.24 156.034 18.072C156.034 16.776 156.258 15.672 156.706 14.76C157.17 13.848 157.786 13.152 158.554 12.672C159.322 12.176 160.162 11.928 161.074 11.928C161.714 11.928 162.306 12.064 162.85 12.336C163.41 12.592 163.89 12.984 164.29 13.512C164.69 14.04 164.954 14.712 165.082 15.528L164.482 15.36V7.272H167.434V24H164.482V20.832L165.178 20.496C164.986 21.424 164.674 22.168 164.242 22.728C163.826 23.272 163.338 23.664 162.778 23.904C162.234 24.128 161.666 24.24 161.074 24.24ZM161.89 21.504C162.482 21.504 162.986 21.36 163.402 21.072C163.834 20.784 164.162 20.384 164.386 19.872C164.626 19.36 164.746 18.76 164.746 18.072C164.746 17.384 164.626 16.784 164.386 16.272C164.162 15.76 163.834 15.368 163.402 15.096C162.986 14.808 162.482 14.664 161.89 14.664C161.314 14.664 160.81 14.808 160.378 15.096C159.946 15.368 159.61 15.76 159.37 16.272C159.146 16.768 159.034 17.368 159.034 18.072C159.034 18.776 159.146 19.384 159.37 19.896C159.61 20.408 159.946 20.808 160.378 21.096C160.81 21.368 161.314 21.504 161.89 21.504Z" fill="#0F172A"/>
</svg>
