<svg width="122" height="32" viewBox="0 0 122 32" fill="none" xmlns="http://www.w3.org/2000/svg">
<g style="mix-blend-mode:luminosity">
<path d="M1.53686 10.5422C2.45319 12.3587 3.95815 14.0146 5.88938 15.3305C8.33948 17.0001 11.2484 17.9953 14.0615 18.9578C14.9722 19.2693 15.9138 19.5916 16.8309 19.9332C21.457 21.6563 24.9504 23.9003 27.287 26.6365C27.8358 26.2313 28.3605 25.8221 28.8618 25.409C27.5274 21.6444 24.3885 18.1919 19.4832 15.1091C18.6686 14.5972 17.8192 14.0947 16.9978 13.6087C14.3685 12.0533 11.6499 10.4451 9.47457 8.19319C7.70675 6.363 6.46431 4.25097 5.88235 2.08554C5.80803 1.80915 5.74846 1.53504 5.69979 1.2627C4.10469 2.24895 2.68917 3.77199 1.6595 5.69126C1.29438 6.37196 0.968966 7.12979 0.704346 7.94438C0.845441 8.82222 1.10566 9.68776 1.53686 10.5422Z" fill="url(#paint0_linear_7894_5444)"/>
<path d="M34.6995 5.69156C32.8336 2.21358 29.7023 0.0328601 26.5272 0.000353906C26.5021 2.48805e-06 26.4768 0 26.4513 0C24.2305 0 21.0881 0.998732 18.1794 5.47913C15.2705 0.998381 12.1286 0 9.90748 0C9.88217 0 9.85669 2.48805e-06 9.83157 0.000353906C8.81965 0.0107207 7.81247 0.240197 6.84888 0.659262C6.89755 1.02491 6.96959 1.39372 7.06992 1.7664C7.59811 3.73118 8.73566 5.658 10.3592 7.33883C12.4191 9.47124 15.0651 11.0366 17.624 12.5504C18.4524 13.0404 19.3092 13.5472 20.1377 14.068C25.1008 17.1871 28.3529 20.7008 29.8589 24.5544C31.6439 22.9601 33.0914 21.3038 34.2154 19.5724C37.4169 14.6401 36.5645 9.16796 34.6995 5.69156Z" fill="url(#paint1_linear_7894_5444)"/>
<path d="M16.4012 21.0863C15.4998 20.7506 14.5661 20.4311 13.663 20.1222C10.7727 19.1333 7.78385 18.1107 5.19652 16.3475C3.09362 14.9146 1.44844 13.099 0.438461 11.0968C0.326358 10.8747 0.2255 10.6519 0.133253 10.4287C-0.262096 13.2859 0.169445 16.5316 2.14355 19.5726C5.07563 24.0897 10.2013 28.0962 17.8136 31.8211L18.1794 32L18.5452 31.8211C21.4905 30.3799 24.062 28.8962 26.2798 27.3574C24.0787 24.8159 20.7783 22.7167 16.4012 21.0863Z" fill="url(#paint2_linear_7894_5444)"/>
<path opacity="0.3" d="M17.8148 31.8209L18.1802 31.9996L18.3617 31.9109C18.0988 31.7686 17.8407 31.6173 17.5891 31.4576C15.3445 30.0336 13.5156 28.0499 11.801 26.0189C9.92054 23.7912 8.1311 21.4589 6.82241 18.854C6.62175 18.4546 6.43076 18.0455 6.25241 17.6289C6.13767 17.3611 6.02891 17.0895 5.92524 16.8157C5.67977 16.665 5.43605 16.5102 5.19709 16.3473C3.09418 14.9144 1.44901 13.0988 0.439028 11.0966C0.327277 10.875 0.226775 10.6531 0.134527 10.4307C0.130486 10.4604 0.126793 10.4902 0.122752 10.5199C0.106586 10.6424 0.0918267 10.7654 0.0788242 10.8891C0.0733771 10.9416 0.0681011 10.9943 0.0630055 11.0472C0.0515843 11.1692 0.0419216 11.2918 0.0336632 11.415C0.0303247 11.4642 0.0264579 11.5132 0.0236466 11.5628C0.0146853 11.7212 0.00800678 11.8806 0.00449257 12.0409C0.00414115 12.0532 0.00344569 12.0651 0.00326998 12.0774C-6.85187e-05 12.2484 0.000454494 12.4202 0.00344157 12.5929C0.00449583 12.6474 0.00695432 12.7022 0.00853571 12.757C0.0120499 12.8753 0.016798 12.9937 0.023475 13.1127C0.0273406 13.18 0.0319112 13.2474 0.0366554 13.3149C0.0443866 13.424 0.0538678 13.5333 0.0644104 13.643C0.0710874 13.7124 0.077592 13.782 0.0853232 13.8515C0.0985015 13.9694 0.114311 14.0879 0.130827 14.2063C0.139086 14.2653 0.145943 14.3242 0.154904 14.3834C0.180733 14.5517 0.210073 14.7204 0.242931 14.8893C0.25646 14.9589 0.272457 15.0284 0.287041 15.0982C0.309531 15.2047 0.33237 15.3112 0.357672 15.4178C0.376825 15.4986 0.397736 15.5796 0.418469 15.6605C0.443245 15.7569 0.469427 15.8534 0.496662 15.95C0.520207 16.0335 0.5441 16.1171 0.569578 16.2006C0.599273 16.2981 0.631252 16.3954 0.663407 16.493C0.690115 16.5736 0.715594 16.6543 0.743883 16.7349C0.795894 16.8827 0.851599 17.0305 0.909759 17.1782C0.946483 17.2714 0.985843 17.3643 1.02503 17.4574C1.06702 17.5572 1.10884 17.657 1.15365 17.7567C1.19213 17.8422 1.23306 17.9276 1.27382 18.0132C1.31705 18.104 1.36116 18.1949 1.40684 18.2856C1.45059 18.3724 1.49523 18.459 1.54126 18.5456C1.58976 18.637 1.64054 18.728 1.69184 18.8192C1.73893 18.903 1.78532 18.9868 1.83469 19.0704C1.89918 19.1797 1.96735 19.2885 2.0357 19.3973C2.0726 19.456 2.10723 19.5148 2.14518 19.5733C5.07673 24.0896 10.2024 28.0961 17.8148 31.8209Z" fill="url(#paint3_linear_7894_5444)"/>
<path opacity="0.3" d="M1.53682 10.5419C2.3609 12.1754 3.66221 13.6781 5.32004 14.9214C4.91433 13.352 4.73773 11.7295 4.91292 10.1305C5.12465 8.19828 5.83962 6.31889 6.88545 4.63297C6.45249 3.80169 6.11408 2.94775 5.88232 2.08502C5.80799 1.8088 5.7486 1.53487 5.69993 1.2627C5.68692 1.27078 5.6741 1.27886 5.66127 1.28694C5.58537 1.33438 5.50981 1.38288 5.43478 1.43278C5.41124 1.44842 5.3877 1.46441 5.36415 1.48022C5.29281 1.52837 5.222 1.57774 5.15154 1.62817C5.12624 1.64627 5.1011 1.66437 5.0758 1.68264C5.00763 1.73237 4.93998 1.78332 4.87251 1.83515C4.84633 1.85518 4.82015 1.87504 4.79414 1.89543C4.7279 1.94744 4.66219 2.00067 4.59682 2.05444C4.57099 2.0757 4.54499 2.09661 4.51916 2.11823C4.45309 2.17375 4.38755 2.23085 4.32236 2.28831C4.29829 2.30957 4.27404 2.33013 4.25014 2.35157C4.17757 2.41658 4.10606 2.48335 4.0349 2.55064C4.01926 2.5654 4.00327 2.57964 3.98781 2.59457C3.90365 2.67522 3.82036 2.75763 3.73795 2.84162C3.7 2.88028 3.66291 2.92034 3.62531 2.9597C3.58138 3.00573 3.53711 3.05159 3.49371 3.09868C3.4489 3.14735 3.4048 3.19725 3.36052 3.24698C3.32573 3.28598 3.29059 3.32482 3.25615 3.36453C3.20889 3.419 3.16232 3.47452 3.11576 3.53022C3.08571 3.56624 3.05549 3.60208 3.02562 3.63863C2.97712 3.69802 2.92915 3.75829 2.88153 3.81891C2.855 3.85265 2.82865 3.88638 2.80229 3.92065C2.75292 3.98478 2.70424 4.04962 2.65592 4.11516C2.6329 4.14626 2.61006 4.17771 2.58739 4.20898C2.53714 4.27856 2.48706 4.3485 2.43786 4.41948C2.41906 4.44654 2.40062 4.47396 2.38217 4.50101C2.32998 4.57745 2.27832 4.65441 2.22754 4.73242C2.21507 4.75157 2.20277 4.77125 2.19047 4.79058C2.13459 4.87756 2.07907 4.96489 2.02495 5.05379C2.02459 5.05432 2.02425 5.05502 2.0239 5.05572C1.89809 5.26218 1.77685 5.47409 1.66053 5.69091C1.64225 5.72482 1.62485 5.76014 1.60693 5.79458C1.55087 5.90141 1.49571 6.01 1.44177 6.12052C1.41348 6.17815 1.38554 6.23596 1.35777 6.29465C1.2896 6.43943 1.22265 6.58597 1.15834 6.73638C1.14253 6.77328 1.1276 6.81123 1.11196 6.84848C1.05397 6.98712 0.997742 7.12786 0.943272 7.27089C0.928688 7.30937 0.913753 7.3475 0.899344 7.38633C0.835737 7.55782 0.774766 7.73195 0.716781 7.90906C0.71274 7.92136 0.708875 7.93401 0.704834 7.94649C0.845929 8.82327 1.10615 9.68811 1.53682 10.5419Z" fill="url(#paint4_linear_7894_5444)"/>
<path opacity="0.3" d="M7.06993 1.7664C7.22368 2.33834 7.43067 2.90693 7.68458 3.46726C8.6313 2.20972 9.76006 1.09449 10.9879 0.193635C11.0313 0.161831 11.0758 0.131785 11.1194 0.100509C11.1167 0.100158 11.1141 0.0996274 11.1116 0.099276C10.9041 0.0653641 10.7017 0.0407683 10.5047 0.0247788C10.4952 0.0240759 10.4859 0.0233689 10.4766 0.0226661C10.3945 0.0163405 10.3137 0.0116004 10.2338 0.00808621C10.2127 0.00720767 10.1916 0.0061496 10.1707 0.00527105C10.0832 0.00210829 9.99639 0.000175709 9.91152 0C9.91029 0 9.90924 0 9.90801 0C9.88289 0 9.85776 2.48805e-06 9.83298 0.000353906C9.8307 0.000353906 9.82823 0.000530859 9.82595 0.000530859C9.71332 0.00176082 9.60069 0.00650213 9.48823 0.0130034C9.45204 0.0151119 9.41585 0.018277 9.37965 0.0209126C9.29865 0.0268867 9.21764 0.0340908 9.13681 0.0428762C9.09868 0.0470932 9.06038 0.051307 9.02225 0.0560512C8.93422 0.0669451 8.84637 0.0797766 8.75852 0.0938333C8.73181 0.098226 8.7051 0.101737 8.67839 0.106306C8.56225 0.126337 8.44628 0.149003 8.33066 0.174481C8.31625 0.177644 8.30202 0.181512 8.28779 0.184675C8.1864 0.207692 8.08537 0.232993 7.98469 0.260228C7.95605 0.267959 7.92758 0.276216 7.89912 0.284299C7.8081 0.309953 7.71725 0.337361 7.62659 0.366529C7.60146 0.374611 7.57616 0.382518 7.55103 0.390776C7.31927 0.467737 7.08927 0.555419 6.8619 0.653991C6.85768 0.655748 6.85346 0.657854 6.84924 0.659611C6.89756 1.02526 6.96978 1.3939 7.06993 1.7664Z" fill="url(#paint5_linear_7894_5444)"/>
<path d="M44.5519 24L51.2719 7.272H53.5999L60.3199 24H56.9359L52.4719 11.856L47.9359 24H44.5519ZM48.9679 20.736L49.9279 17.952H54.9679L55.9759 20.736H48.9679ZM61.9717 24V12.168H64.9477V24H61.9717ZM61.8757 10.344V7.272H65.0677V10.344H61.8757ZM67.8786 24V12.168H70.8786V15.384L70.4226 15.432C70.4706 14.744 70.6786 14.136 71.0466 13.608C71.4146 13.08 71.8626 12.672 72.3906 12.384C72.9346 12.08 73.4866 11.928 74.0466 11.928C74.4466 11.928 74.8226 11.984 75.1746 12.096C75.5426 12.192 75.9186 12.36 76.3026 12.6L74.8626 15.288C74.6866 15.192 74.4626 15.104 74.1906 15.024C73.9186 14.944 73.6466 14.904 73.3746 14.904C73.0546 14.904 72.7426 14.96 72.4386 15.072C72.1506 15.184 71.8866 15.36 71.6466 15.6C71.4226 15.84 71.2386 16.16 71.0946 16.56C71.0306 16.784 70.9746 17.072 70.9266 17.424C70.8946 17.76 70.8786 18.256 70.8786 18.912V24H67.8786ZM80.7373 24L77.0893 12.168H80.2573L82.2493 19.44L84.3853 12.168H86.9533L89.0893 19.392L91.1053 12.168H94.2973L90.6253 24H87.9613L85.6813 16.392L83.4493 24H80.7373ZM103.798 24L103.558 22.224V16.536C103.558 15.832 103.334 15.312 102.886 14.976C102.454 14.624 101.862 14.448 101.11 14.448C100.486 14.448 99.8465 14.576 99.1905 14.832C98.5505 15.072 97.9825 15.416 97.4865 15.864L95.9745 13.824C96.8065 13.152 97.6545 12.672 98.5185 12.384C99.3985 12.08 100.342 11.928 101.35 11.928C102.982 11.928 104.254 12.336 105.166 13.152C106.078 13.968 106.534 15.096 106.534 16.536V24H103.798ZM100.222 24.24C99.3585 24.24 98.5825 24.08 97.8945 23.76C97.2225 23.44 96.6865 22.984 96.2865 22.392C95.9025 21.8 95.7105 21.12 95.7105 20.352C95.7105 19.664 95.8465 19.08 96.1185 18.6C96.4065 18.104 96.7825 17.728 97.2465 17.472C97.6465 17.232 98.0865 17.064 98.5665 16.968C99.0625 16.872 99.5905 16.824 100.15 16.824H103.822V19.032H100.582C100.326 19.032 100.07 19.056 99.8145 19.104C99.5745 19.136 99.3665 19.224 99.1905 19.368C99.0305 19.48 98.9105 19.624 98.8305 19.8C98.7505 19.96 98.7105 20.144 98.7105 20.352C98.7105 20.8 98.8865 21.16 99.2385 21.432C99.5905 21.704 100.062 21.84 100.654 21.84C101.182 21.84 101.662 21.728 102.094 21.504C102.542 21.264 102.894 20.944 103.15 20.544C103.422 20.128 103.558 19.656 103.558 19.128L104.35 20.712C104.142 21.544 103.822 22.224 103.39 22.752C102.974 23.264 102.494 23.64 101.95 23.88C101.406 24.12 100.83 24.24 100.222 24.24ZM109.948 28.896L112.348 23.088L107.884 12.168H111.148L113.932 20.112L116.764 12.168H119.98L113.188 28.896H109.948Z" fill="#0F172A"/>
</g>
<defs>
<linearGradient id="paint0_linear_7894_5444" x1="0.704346" y1="13.9496" x2="28.8618" y2="13.9496" gradientUnits="userSpaceOnUse">
<stop stop-color="#316DFF"/>
<stop offset="1" stop-color="#1FB257"/>
</linearGradient>
<linearGradient id="paint1_linear_7894_5444" x1="6.84888" y1="12.2772" x2="36.3599" y2="12.2772" gradientUnits="userSpaceOnUse">
<stop stop-color="#316DFF"/>
<stop offset="1" stop-color="#1FB257"/>
</linearGradient>
<linearGradient id="paint2_linear_7894_5444" x1="0" y1="21.2143" x2="26.2798" y2="21.2143" gradientUnits="userSpaceOnUse">
<stop stop-color="#316DFF"/>
<stop offset="1" stop-color="#1FB257"/>
</linearGradient>
<linearGradient id="paint3_linear_7894_5444" x1="0.000976562" y1="21.2151" x2="18.3617" y2="21.2151" gradientUnits="userSpaceOnUse">
<stop stop-color="#316DFF"/>
<stop offset="1" stop-color="#1FB257"/>
</linearGradient>
<linearGradient id="paint4_linear_7894_5444" x1="0.704834" y1="8.09206" x2="6.88545" y2="8.09206" gradientUnits="userSpaceOnUse">
<stop stop-color="#316DFF"/>
<stop offset="1" stop-color="#1FB257"/>
</linearGradient>
<linearGradient id="paint5_linear_7894_5444" x1="6.84924" y1="1.73363" x2="11.1194" y2="1.73363" gradientUnits="userSpaceOnUse">
<stop stop-color="#316DFF"/>
<stop offset="1" stop-color="#1FB257"/>
</linearGradient>
</defs>
</svg>
