<svg width="174" height="32" viewBox="0 0 174 32" fill="none" xmlns="http://www.w3.org/2000/svg">
<path d="M31.9999 16.0011C31.9999 18.4557 30.0098 20.4455 27.5554 20.4455H20.4443V27.5566C20.4443 30.0113 18.4545 32.001 15.9999 32.001C13.5452 32.001 11.5555 30.0113 11.5555 27.5566V16.0011C11.5555 13.5464 13.5452 11.5566 15.9999 11.5566H27.5554C30.0099 11.5566 31.9999 13.5464 31.9999 16.0011Z" fill="#316DFF"/>
<path d="M20.4444 4.44441V16C20.4444 18.4546 18.4546 20.4444 16 20.4444H4.44441C1.98977 20.4444 0 18.4546 0 16C0 13.5454 1.98977 11.5556 4.44441 11.5556H11.5556V4.44441C11.5556 1.98977 13.5454 0 16 0C18.4546 0 20.4444 1.98977 20.4444 4.44441Z" fill="#316DFF"/>
<g opacity="0.25">
<path d="M4.44441 11.5548C1.98977 11.5548 0 13.5446 0 15.9993C0 17.531 0.775 18.8816 1.95406 19.6807C3.82969 16.7909 5.95773 14.0744 8.29839 11.5547L4.44441 11.5548Z" fill="#316DFF"/>
<path d="M16 0C13.5453 0 11.5556 1.98977 11.5556 4.44441V8.30084C14.0777 5.96148 16.7936 3.8292 19.6637 1.92862C18.8621 0.763916 17.5205 0 16 0Z" fill="#316DFF"/>
</g>
<path d="M40.1921 24L46.9121 7.272H49.2401L55.9601 24H52.5761L48.1121 11.856L43.5761 24H40.1921ZM44.6081 20.736L45.5681 17.952H50.6081L51.6161 20.736H44.6081ZM57.636 28.896V12.168H60.612V15.336L59.892 15.576C60.1 14.632 60.412 13.896 60.828 13.368C61.26 12.84 61.748 12.472 62.292 12.264C62.836 12.04 63.404 11.928 63.996 11.928C65.036 11.928 65.932 12.2 66.684 12.744C67.452 13.272 68.036 14 68.436 14.928C68.836 15.856 69.036 16.912 69.036 18.096C69.036 19.376 68.812 20.48 68.364 21.408C67.916 22.32 67.308 23.024 66.54 23.52C65.772 24 64.924 24.24 63.996 24.24C63.372 24.24 62.78 24.112 62.22 23.856C61.66 23.6 61.18 23.216 60.78 22.704C60.396 22.176 60.132 21.512 59.988 20.712L60.612 20.808V28.896H57.636ZM63.18 21.504C63.772 21.504 64.276 21.368 64.692 21.096C65.124 20.808 65.46 20.408 65.7 19.896C65.94 19.384 66.06 18.784 66.06 18.096C66.06 17.392 65.94 16.784 65.7 16.272C65.46 15.76 65.124 15.368 64.692 15.096C64.276 14.808 63.772 14.664 63.18 14.664C62.604 14.664 62.1 14.808 61.668 15.096C61.252 15.384 60.924 15.784 60.684 16.296C60.46 16.792 60.348 17.392 60.348 18.096C60.348 18.784 60.46 19.384 60.684 19.896C60.924 20.408 61.252 20.808 61.668 21.096C62.1 21.368 62.604 21.504 63.18 21.504ZM76.6972 24.24C75.6732 24.24 74.7932 24.072 74.0572 23.736C73.3212 23.4 72.7132 22.952 72.2332 22.392C71.7692 21.816 71.4252 21.168 71.2012 20.448C70.9772 19.712 70.8652 18.944 70.8652 18.144C70.8652 17.376 70.9772 16.624 71.2012 15.888C71.4252 15.152 71.7612 14.488 72.2092 13.896C72.6572 13.304 73.2332 12.832 73.9372 12.48C74.6572 12.112 75.5132 11.928 76.5052 11.928C77.4332 11.928 78.2412 12.088 78.9292 12.408C79.6172 12.712 80.1852 13.144 80.6332 13.704C81.0812 14.248 81.4172 14.888 81.6412 15.624C81.8812 16.36 82.0012 17.144 82.0012 17.976C82.0012 18.088 81.9932 18.248 81.9772 18.456C81.9772 18.648 81.9612 18.856 81.9292 19.08H73.8412C73.9212 19.928 74.2332 20.568 74.7772 21C75.3372 21.432 76.0332 21.648 76.8652 21.648C77.4732 21.648 78.0652 21.544 78.6412 21.336C79.2172 21.112 79.7292 20.8 80.1772 20.4L81.6652 22.416C81.1052 22.848 80.5772 23.2 80.0812 23.472C79.5852 23.744 79.0652 23.936 78.5212 24.048C77.9932 24.176 77.3852 24.24 76.6972 24.24ZM79.0492 17.592C79.0812 17.464 79.1052 17.336 79.1212 17.208C79.1532 17.08 79.1692 16.96 79.1692 16.848C79.1692 16.512 79.1052 16.2 78.9772 15.912C78.8492 15.608 78.6732 15.344 78.4492 15.12C78.2252 14.896 77.9532 14.728 77.6332 14.616C77.3292 14.488 76.9772 14.424 76.5772 14.424C75.9852 14.424 75.4892 14.544 75.0892 14.784C74.6892 15.024 74.3852 15.336 74.1772 15.72C73.9852 16.088 73.8652 16.472 73.8172 16.872H80.0572L79.0492 17.592ZM83.066 24L87.098 18.024L83.066 12.168H86.594L89.09 16.08L91.586 12.168H95.114L91.034 18.024L95.114 24H91.586L89.09 20.016L86.57 24H83.066ZM103.436 24V7.272H106.532V13.968H113.756V7.272H116.852V24H113.756V16.824H106.532V24H103.436ZM125.213 24.24C124.189 24.24 123.309 24.072 122.573 23.736C121.837 23.4 121.229 22.952 120.749 22.392C120.285 21.816 119.941 21.168 119.717 20.448C119.493 19.712 119.381 18.944 119.381 18.144C119.381 17.376 119.493 16.624 119.717 15.888C119.941 15.152 120.277 14.488 120.725 13.896C121.173 13.304 121.749 12.832 122.453 12.48C123.173 12.112 124.029 11.928 125.021 11.928C125.949 11.928 126.757 12.088 127.445 12.408C128.133 12.712 128.701 13.144 129.149 13.704C129.597 14.248 129.933 14.888 130.157 15.624C130.397 16.36 130.517 17.144 130.517 17.976C130.517 18.088 130.509 18.248 130.493 18.456C130.493 18.648 130.477 18.856 130.445 19.08H122.357C122.437 19.928 122.749 20.568 123.293 21C123.853 21.432 124.549 21.648 125.381 21.648C125.989 21.648 126.581 21.544 127.157 21.336C127.733 21.112 128.245 20.8 128.693 20.4L130.181 22.416C129.621 22.848 129.093 23.2 128.597 23.472C128.101 23.744 127.581 23.936 127.037 24.048C126.509 24.176 125.901 24.24 125.213 24.24ZM127.565 17.592C127.597 17.464 127.621 17.336 127.637 17.208C127.669 17.08 127.685 16.96 127.685 16.848C127.685 16.512 127.621 16.2 127.493 15.912C127.365 15.608 127.189 15.344 126.965 15.12C126.741 14.896 126.469 14.728 126.149 14.616C125.845 14.488 125.493 14.424 125.093 14.424C124.501 14.424 124.005 14.544 123.605 14.784C123.205 15.024 122.901 15.336 122.693 15.72C122.501 16.088 122.381 16.472 122.333 16.872H128.573L127.565 17.592ZM140.501 24L140.261 22.224V16.536C140.261 15.832 140.037 15.312 139.589 14.976C139.157 14.624 138.565 14.448 137.813 14.448C137.189 14.448 136.549 14.576 135.893 14.832C135.253 15.072 134.685 15.416 134.189 15.864L132.677 13.824C133.509 13.152 134.357 12.672 135.221 12.384C136.101 12.08 137.045 11.928 138.053 11.928C139.685 11.928 140.957 12.336 141.869 13.152C142.781 13.968 143.237 15.096 143.237 16.536V24H140.501ZM136.925 24.24C136.061 24.24 135.285 24.08 134.597 23.76C133.925 23.44 133.389 22.984 132.989 22.392C132.605 21.8 132.413 21.12 132.413 20.352C132.413 19.664 132.549 19.08 132.821 18.6C133.109 18.104 133.485 17.728 133.949 17.472C134.349 17.232 134.789 17.064 135.269 16.968C135.765 16.872 136.293 16.824 136.853 16.824H140.525V19.032H137.285C137.029 19.032 136.773 19.056 136.517 19.104C136.277 19.136 136.069 19.224 135.893 19.368C135.733 19.48 135.613 19.624 135.533 19.8C135.453 19.96 135.413 20.144 135.413 20.352C135.413 20.8 135.589 21.16 135.941 21.432C136.293 21.704 136.765 21.84 137.357 21.84C137.885 21.84 138.365 21.728 138.797 21.504C139.245 21.264 139.597 20.944 139.853 20.544C140.125 20.128 140.261 19.656 140.261 19.128L141.053 20.712C140.845 21.544 140.525 22.224 140.093 22.752C139.677 23.264 139.197 23.64 138.653 23.88C138.109 24.12 137.533 24.24 136.925 24.24ZM148.779 24.24C147.963 24.24 147.291 23.992 146.763 23.496C146.235 23 145.971 22.216 145.971 21.144V7.272H148.923V20.568C148.923 20.904 149.003 21.144 149.163 21.288C149.323 21.416 149.531 21.48 149.787 21.48C149.915 21.48 150.051 21.472 150.195 21.456C150.339 21.424 150.491 21.384 150.651 21.336V23.88C150.315 24.008 149.979 24.096 149.643 24.144C149.323 24.208 149.035 24.24 148.779 24.24ZM157.117 24.24C156.477 24.24 155.885 24.12 155.341 23.88C154.797 23.64 154.357 23.248 154.021 22.704C153.701 22.16 153.541 21.432 153.541 20.52V9.408L156.565 7.8V19.704C156.565 20.392 156.653 20.912 156.829 21.264C157.021 21.616 157.389 21.792 157.933 21.792C158.093 21.792 158.269 21.776 158.461 21.744C158.669 21.712 158.893 21.664 159.133 21.6V23.88C158.797 24.008 158.461 24.096 158.125 24.144C157.789 24.208 157.453 24.24 157.117 24.24ZM151.381 14.496V12.168H159.133V14.496H151.381ZM161.417 24V7.272H164.417V14.856L163.913 14.928C164.121 14.208 164.425 13.632 164.825 13.2C165.241 12.752 165.713 12.432 166.241 12.24C166.785 12.032 167.329 11.928 167.873 11.928C169.217 11.928 170.265 12.312 171.017 13.08C171.785 13.832 172.169 14.896 172.169 16.272V24H169.169V17.376C169.169 16.384 168.993 15.664 168.641 15.216C168.289 14.752 167.737 14.52 166.985 14.52C166.137 14.52 165.497 14.824 165.065 15.432C164.633 16.04 164.417 17.008 164.417 18.336V24H161.417Z" fill="white"/>
</svg>
