<svg width="147" height="32" viewBox="0 0 147 32" fill="none" xmlns="http://www.w3.org/2000/svg">
<path d="M7.10631 10.7362C7.21428 10.5257 7.43552 10.3984 7.66961 10.4014C7.90599 10.407 8.11842 10.5476 8.21618 10.7628L10.2978 15.3485H15.8019C16.008 15.3485 16.2007 15.4515 16.315 15.6233L16.8478 16.4229L17.3521 15.6333C17.4652 15.4559 17.6612 15.3486 17.8717 15.3486H18.933L21.3521 8.52861C21.4448 8.26722 21.7009 8.10006 21.9774 8.11979C22.254 8.13969 22.4833 8.3419 22.5377 8.61386L24.5181 18.518L26.6991 10.3307C26.7695 10.0662 27.0063 9.87962 27.28 9.8731C27.5509 9.86729 27.7991 10.0415 27.8822 10.3024L29.9286 16.727L31.1762 14.7413C31.2891 14.5616 31.4862 14.4528 31.6983 14.4528H36.2778C36.8174 11.1373 36.0284 7.95914 34.7935 5.65715C32.9389 2.20019 29.8363 0.0325887 26.6968 0.000354778C26.6719 0.000178636 26.6473 0 26.6223 0C24.3772 0 21.1767 1.03889 18.2254 5.75843C15.2414 0.986221 12.0011 -0.0190208 9.75425 0.000354778C6.6147 0.0325887 3.51214 2.20002 1.65755 5.65697C0.311648 8.16559 -0.505298 11.7148 0.35075 15.3486H4.73897L7.10631 10.7362Z" fill="#316DFF"/>
<path d="M30.2661 18.5068C30.1384 18.7101 29.9054 18.8211 29.6663 18.7904C29.4282 18.7601 29.2295 18.5946 29.1566 18.3659L27.3474 12.6859L25.028 21.3922C24.956 21.6628 24.7109 21.85 24.4325 21.85C24.4259 21.85 24.4194 21.85 24.4129 21.8496C24.1265 21.8407 23.884 21.6355 23.8278 21.3543L21.7667 11.0469L19.9493 16.1707C19.8619 16.4167 19.6293 16.5811 19.3682 16.5811H18.2094L17.3783 17.8826C17.2661 18.0582 17.0731 18.1651 16.8647 18.1672C16.66 18.1734 16.4612 18.0659 16.3456 17.8924L15.4718 16.5809H9.9006C9.65876 16.5809 9.43911 16.4395 9.33924 16.2193L7.6208 12.4335L5.66387 16.2459C5.55836 16.4514 5.34664 16.5809 5.11537 16.5809H0.707245C1.04544 17.5668 1.5138 18.5509 2.13928 19.5144C5.09229 24.0639 10.2654 28.1043 17.9543 31.8667L18.2254 31.9993L18.4965 31.8667C26.1853 28.1043 31.3585 24.0637 34.3116 19.5144C35.1264 18.259 35.6768 16.9684 36.0157 15.6849H32.039L30.2661 18.5068Z" fill="#316DFF"/>
<path opacity="0.3" d="M17.9542 31.8665L18.2252 31.9992L18.3323 31.9468C18.0945 31.8161 17.8603 31.6791 17.6318 31.5341C15.3818 30.1067 13.5483 28.1181 11.8295 26.082C9.94446 23.8491 8.15064 21.5108 6.83873 18.8995C6.63758 18.4991 6.44611 18.0891 6.26733 17.6714C6.0586 17.184 5.86819 16.6856 5.69786 16.1797L5.66387 16.2457C5.55836 16.4513 5.34664 16.5808 5.11537 16.5808H0.707245C1.04544 17.5666 1.5138 18.5507 2.13928 19.5142C5.09229 24.0636 10.2654 28.1041 17.9542 31.8665Z" fill="white"/>
<path opacity="0.3" d="M0.350606 15.3478H4.73882L5.20683 14.436C4.89136 13.0266 4.76841 11.5817 4.92465 10.1554C5.35567 6.2222 7.86322 2.50579 11.0146 0.193402C11.0503 0.167157 11.087 0.142143 11.1231 0.116426C10.6702 0.0346965 10.2413 0.00123299 9.842 0C6.66423 0.0391035 3.53172 2.22361 1.66427 5.7047C0.788845 7.33648 0.136065 9.40685 0.0187547 11.6549C0.0184024 11.6627 0.0180507 11.6706 0.0176985 11.6784C0.0108289 11.8131 0.00624912 11.9486 0.00325472 12.0847C-0.0134787 13.1467 0.0904449 14.2432 0.350606 15.3478Z" fill="white"/>
<path d="M46.0584 24V7.272H51.5784C53.4664 7.272 54.8904 7.68 55.8504 8.496C56.8104 9.296 57.2904 10.504 57.2904 12.12C57.2904 13.736 56.8024 14.968 55.8264 15.816C54.8504 16.664 53.4344 17.088 51.5784 17.088H49.1304V24H46.0584ZM49.1304 14.328H51.2664C52.1944 14.328 52.9144 14.168 53.4264 13.848C53.9384 13.512 54.1944 12.944 54.1944 12.144C54.1944 11.376 53.9464 10.84 53.4504 10.536C52.9704 10.216 52.2424 10.056 51.2664 10.056H49.1304V14.328ZM59.391 24V12.168H62.391V15.384L61.935 15.432C61.983 14.744 62.191 14.136 62.559 13.608C62.927 13.08 63.375 12.672 63.903 12.384C64.447 12.08 64.999 11.928 65.559 11.928C65.959 11.928 66.335 11.984 66.687 12.096C67.055 12.192 67.431 12.36 67.815 12.6L66.375 15.288C66.199 15.192 65.975 15.104 65.703 15.024C65.431 14.944 65.159 14.904 64.887 14.904C64.567 14.904 64.255 14.96 63.951 15.072C63.663 15.184 63.399 15.36 63.159 15.6C62.935 15.84 62.751 16.16 62.607 16.56C62.543 16.784 62.487 17.072 62.439 17.424C62.407 17.76 62.391 18.256 62.391 18.912V24H59.391ZM69.5857 24V12.168H72.5617V24H69.5857ZM69.4897 10.344V7.272H72.6817V10.344H69.4897ZM75.4925 24V12.168H78.4925V15.24L77.8445 15.744C77.9565 14.992 78.1485 14.368 78.4205 13.872C78.6925 13.376 79.0125 12.992 79.3805 12.72C79.7645 12.432 80.1565 12.232 80.5565 12.12C80.9725 11.992 81.3805 11.928 81.7805 11.928C82.4045 11.928 82.9965 12.048 83.5565 12.288C84.1165 12.512 84.6045 12.904 85.0205 13.464C85.4365 14.024 85.7245 14.792 85.8845 15.768L84.1085 16.416C84.3485 15.296 84.6925 14.408 85.1405 13.752C85.6045 13.096 86.1325 12.632 86.7245 12.36C87.3325 12.072 87.9725 11.928 88.6445 11.928C89.6525 11.928 90.4685 12.152 91.0925 12.6C91.7165 13.048 92.1725 13.624 92.4605 14.328C92.7645 15.016 92.9165 15.752 92.9165 16.536V24H89.9405V17.256C89.9405 16.664 89.8605 16.168 89.7005 15.768C89.5565 15.352 89.3405 15.04 89.0525 14.832C88.7645 14.624 88.3885 14.52 87.9245 14.52C87.4445 14.52 87.0365 14.648 86.7005 14.904C86.3645 15.16 86.1085 15.544 85.9325 16.056C85.7725 16.568 85.6925 17.224 85.6925 18.024V24H82.7165V17.208C82.7165 16.312 82.5485 15.64 82.2125 15.192C81.8925 14.744 81.4205 14.52 80.7965 14.52C80.3005 14.52 79.8765 14.648 79.5245 14.904C79.1885 15.16 78.9325 15.544 78.7565 16.056C78.5805 16.568 78.4925 17.224 78.4925 18.024V24H75.4925ZM100.999 24.24C99.9751 24.24 99.0951 24.072 98.3591 23.736C97.6231 23.4 97.0151 22.952 96.5351 22.392C96.0711 21.816 95.7271 21.168 95.5031 20.448C95.2791 19.712 95.1671 18.944 95.1671 18.144C95.1671 17.376 95.2791 16.624 95.5031 15.888C95.7271 15.152 96.0631 14.488 96.5111 13.896C96.9591 13.304 97.5351 12.832 98.2391 12.48C98.9591 12.112 99.8151 11.928 100.807 11.928C101.735 11.928 102.543 12.088 103.231 12.408C103.919 12.712 104.487 13.144 104.935 13.704C105.383 14.248 105.719 14.888 105.943 15.624C106.183 16.36 106.303 17.144 106.303 17.976C106.303 18.088 106.295 18.248 106.279 18.456C106.279 18.648 106.263 18.856 106.231 19.08H98.1431C98.2231 19.928 98.5351 20.568 99.0791 21C99.6391 21.432 100.335 21.648 101.167 21.648C101.775 21.648 102.367 21.544 102.943 21.336C103.519 21.112 104.031 20.8 104.479 20.4L105.967 22.416C105.407 22.848 104.879 23.2 104.383 23.472C103.887 23.744 103.367 23.936 102.823 24.048C102.295 24.176 101.687 24.24 100.999 24.24ZM103.351 17.592C103.383 17.464 103.407 17.336 103.423 17.208C103.455 17.08 103.471 16.96 103.471 16.848C103.471 16.512 103.407 16.2 103.279 15.912C103.151 15.608 102.975 15.344 102.751 15.12C102.527 14.896 102.255 14.728 101.935 14.616C101.631 14.488 101.279 14.424 100.879 14.424C100.287 14.424 99.7911 14.544 99.3911 14.784C98.9911 15.024 98.6871 15.336 98.4791 15.72C98.2871 16.088 98.1671 16.472 98.1191 16.872H104.359L103.351 17.592ZM108.847 24V7.272H111.943V21.216H119.071V24H108.847ZM120.773 24V12.168H123.749V24H120.773ZM120.677 10.344V7.272H123.869V10.344H120.677ZM127.592 24V14.496H125.456V12.168H127.616V10.92C127.616 9.896 127.784 9.104 128.12 8.544C128.456 7.984 128.904 7.592 129.464 7.368C130.04 7.144 130.656 7.032 131.312 7.032C131.808 7.032 132.232 7.08 132.584 7.176C132.952 7.256 133.304 7.376 133.64 7.536L132.68 9.816C132.52 9.736 132.352 9.672 132.176 9.624C132 9.56 131.824 9.528 131.648 9.528C131.264 9.528 130.992 9.656 130.832 9.912C130.672 10.168 130.592 10.512 130.592 10.944V12.168H133.112V14.496H130.592V24H127.592ZM139.929 24.24C138.905 24.24 138.025 24.072 137.289 23.736C136.553 23.4 135.945 22.952 135.465 22.392C135.001 21.816 134.657 21.168 134.433 20.448C134.209 19.712 134.097 18.944 134.097 18.144C134.097 17.376 134.209 16.624 134.433 15.888C134.657 15.152 134.993 14.488 135.441 13.896C135.889 13.304 136.465 12.832 137.169 12.48C137.889 12.112 138.745 11.928 139.737 11.928C140.665 11.928 141.473 12.088 142.161 12.408C142.849 12.712 143.417 13.144 143.865 13.704C144.313 14.248 144.649 14.888 144.873 15.624C145.113 16.36 145.233 17.144 145.233 17.976C145.233 18.088 145.225 18.248 145.209 18.456C145.209 18.648 145.193 18.856 145.161 19.08H137.073C137.153 19.928 137.465 20.568 138.009 21C138.569 21.432 139.265 21.648 140.097 21.648C140.705 21.648 141.297 21.544 141.873 21.336C142.449 21.112 142.961 20.8 143.409 20.4L144.897 22.416C144.337 22.848 143.809 23.2 143.313 23.472C142.817 23.744 142.297 23.936 141.753 24.048C141.225 24.176 140.617 24.24 139.929 24.24ZM142.281 17.592C142.313 17.464 142.337 17.336 142.353 17.208C142.385 17.08 142.401 16.96 142.401 16.848C142.401 16.512 142.337 16.2 142.209 15.912C142.081 15.608 141.905 15.344 141.681 15.12C141.457 14.896 141.185 14.728 140.865 14.616C140.561 14.488 140.209 14.424 139.809 14.424C139.217 14.424 138.721 14.544 138.321 14.784C137.921 15.024 137.617 15.336 137.409 15.72C137.217 16.088 137.097 16.472 137.049 16.872H143.289L142.281 17.592Z" fill="white"/>
</svg>
