<svg width="170" height="32" viewBox="0 0 170 32" fill="none" xmlns="http://www.w3.org/2000/svg">
<path d="M28.0693 2.73633L21.2826 7.68501V13.4395L23.7032 15.2045L32.489 8.79784L28.0693 2.73633Z" fill="#316DFF"/>
<path d="M12.4935 19.5V31.9998H19.9952V24.9701L12.4935 19.5Z" fill="#316DFF"/>
<path d="M19.9953 12.4999V0H12.4936V7.02961L19.9953 12.4999Z" fill="#316DFF"/>
<path d="M4.41988 2.73438L0 8.79588L28.0691 29.2639L32.489 23.2024L4.41988 2.73438Z" fill="#316DFF"/>
<path d="M11.2062 18.5619L8.78584 16.7969L0 23.2036L4.41988 29.2651L11.2062 24.3164V18.5619Z" fill="#316DFF"/>
<path opacity="0.3" d="M12.4936 19.5V31.9998H16.2444V22.2351L12.4936 19.5Z" fill="#316DFF"/>
<path opacity="0.3" d="M16.2444 0H12.4936V7.0296L16.2444 9.76468V0Z" fill="#316DFF"/>
<path opacity="0.3" d="M11.2062 19.6742V18.5619L8.78584 16.7969L0 23.2036L2.21003 26.2343L11.2062 19.6742Z" fill="#316DFF"/>
<path opacity="0.3" d="M21.2827 12.3254L30.2792 5.76513L28.0694 2.73438L21.2827 7.68305V12.3254Z" fill="#316DFF"/>
<path opacity="0.3" d="M2.2111 5.76811L0.00109863 8.79883L28.0703 29.2674L30.2803 26.2366L2.2111 5.76811Z" fill="#316DFF"/>
<path d="M49.441 24.384C47.857 24.384 46.457 24.016 45.241 23.28C44.041 22.544 43.105 21.52 42.433 20.208C41.761 18.896 41.425 17.368 41.425 15.624C41.425 13.88 41.761 12.36 42.433 11.064C43.105 9.752 44.041 8.728 45.241 7.992C46.457 7.256 47.857 6.888 49.441 6.888C51.217 6.888 52.745 7.336 54.025 8.232C55.321 9.112 56.249 10.328 56.809 11.88L53.881 12.96C53.529 11.984 52.969 11.224 52.201 10.68C51.449 10.136 50.529 9.864 49.441 9.864C48.449 9.864 47.577 10.096 46.825 10.56C46.089 11.024 45.521 11.688 45.121 12.552C44.737 13.4 44.545 14.424 44.545 15.624C44.545 16.824 44.737 17.856 45.121 18.72C45.521 19.584 46.089 20.248 46.825 20.712C47.577 21.176 48.449 21.408 49.441 21.408C50.529 21.408 51.449 21.136 52.201 20.592C52.969 20.048 53.529 19.288 53.881 18.312L56.809 19.368C56.249 20.92 55.321 22.144 54.025 23.04C52.745 23.936 51.217 24.384 49.441 24.384ZM61.7286 24.24C60.9126 24.24 60.2406 23.992 59.7126 23.496C59.1846 23 58.9206 22.216 58.9206 21.144V7.272H61.8726V20.568C61.8726 20.904 61.9526 21.144 62.1126 21.288C62.2726 21.416 62.4806 21.48 62.7366 21.48C62.8646 21.48 63.0006 21.472 63.1446 21.456C63.2886 21.424 63.4406 21.384 63.6006 21.336V23.88C63.2646 24.008 62.9286 24.096 62.5926 24.144C62.2726 24.208 61.9846 24.24 61.7286 24.24ZM70.9283 24.24C69.9043 24.24 69.0243 24.072 68.2883 23.736C67.5523 23.4 66.9443 22.952 66.4643 22.392C66.0003 21.816 65.6563 21.168 65.4323 20.448C65.2083 19.712 65.0963 18.944 65.0963 18.144C65.0963 17.376 65.2083 16.624 65.4323 15.888C65.6563 15.152 65.9923 14.488 66.4403 13.896C66.8883 13.304 67.4643 12.832 68.1683 12.48C68.8883 12.112 69.7443 11.928 70.7363 11.928C71.6643 11.928 72.4723 12.088 73.1603 12.408C73.8483 12.712 74.4163 13.144 74.8643 13.704C75.3123 14.248 75.6483 14.888 75.8723 15.624C76.1123 16.36 76.2323 17.144 76.2323 17.976C76.2323 18.088 76.2243 18.248 76.2083 18.456C76.2083 18.648 76.1923 18.856 76.1603 19.08H68.0723C68.1523 19.928 68.4643 20.568 69.0083 21C69.5683 21.432 70.2643 21.648 71.0963 21.648C71.7043 21.648 72.2963 21.544 72.8723 21.336C73.4483 21.112 73.9603 20.8 74.4083 20.4L75.8963 22.416C75.3363 22.848 74.8083 23.2 74.3123 23.472C73.8163 23.744 73.2963 23.936 72.7523 24.048C72.2243 24.176 71.6163 24.24 70.9283 24.24ZM73.2803 17.592C73.3123 17.464 73.3363 17.336 73.3523 17.208C73.3843 17.08 73.4003 16.96 73.4003 16.848C73.4003 16.512 73.3363 16.2 73.2083 15.912C73.0803 15.608 72.9043 15.344 72.6803 15.12C72.4563 14.896 72.1843 14.728 71.8643 14.616C71.5603 14.488 71.2083 14.424 70.8083 14.424C70.2163 14.424 69.7203 14.544 69.3203 14.784C68.9203 15.024 68.6163 15.336 68.4083 15.72C68.2163 16.088 68.0963 16.472 68.0483 16.872H74.2883L73.2803 17.592ZM86.2167 24L85.9767 22.224V16.536C85.9767 15.832 85.7527 15.312 85.3047 14.976C84.8727 14.624 84.2807 14.448 83.5287 14.448C82.9047 14.448 82.2647 14.576 81.6087 14.832C80.9687 15.072 80.4007 15.416 79.9047 15.864L78.3927 13.824C79.2247 13.152 80.0727 12.672 80.9367 12.384C81.8167 12.08 82.7607 11.928 83.7687 11.928C85.4007 11.928 86.6727 12.336 87.5847 13.152C88.4967 13.968 88.9527 15.096 88.9527 16.536V24H86.2167ZM82.6407 24.24C81.7767 24.24 81.0007 24.08 80.3127 23.76C79.6407 23.44 79.1047 22.984 78.7047 22.392C78.3207 21.8 78.1287 21.12 78.1287 20.352C78.1287 19.664 78.2647 19.08 78.5367 18.6C78.8247 18.104 79.2007 17.728 79.6647 17.472C80.0647 17.232 80.5047 17.064 80.9847 16.968C81.4807 16.872 82.0087 16.824 82.5687 16.824H86.2407V19.032H83.0007C82.7447 19.032 82.4887 19.056 82.2327 19.104C81.9927 19.136 81.7847 19.224 81.6087 19.368C81.4487 19.48 81.3287 19.624 81.2487 19.8C81.1687 19.96 81.1287 20.144 81.1287 20.352C81.1287 20.8 81.3047 21.16 81.6567 21.432C82.0087 21.704 82.4807 21.84 83.0727 21.84C83.6007 21.84 84.0807 21.728 84.5127 21.504C84.9607 21.264 85.3127 20.944 85.5687 20.544C85.8407 20.128 85.9767 19.656 85.9767 19.128L86.7687 20.712C86.5607 21.544 86.2407 22.224 85.8087 22.752C85.3927 23.264 84.9127 23.64 84.3687 23.88C83.8247 24.12 83.2487 24.24 82.6407 24.24ZM91.7343 24V12.168H94.7343V15.384L94.2783 15.432C94.3263 14.744 94.5343 14.136 94.9023 13.608C95.2703 13.08 95.7183 12.672 96.2463 12.384C96.7903 12.08 97.3423 11.928 97.9023 11.928C98.3023 11.928 98.6783 11.984 99.0303 12.096C99.3983 12.192 99.7743 12.36 100.158 12.6L98.7183 15.288C98.5423 15.192 98.3183 15.104 98.0463 15.024C97.7743 14.944 97.5023 14.904 97.2303 14.904C96.9103 14.904 96.5983 14.96 96.2943 15.072C96.0063 15.184 95.7423 15.36 95.5023 15.6C95.2783 15.84 95.0943 16.16 94.9503 16.56C94.8863 16.784 94.8303 17.072 94.7823 17.424C94.7503 17.76 94.7343 18.256 94.7343 18.912V24H91.7343ZM107.617 24.312C105.841 24.312 104.377 23.848 103.225 22.92C102.089 21.992 101.401 20.76 101.161 19.224L104.185 18.48C104.361 19.504 104.761 20.272 105.385 20.784C106.025 21.296 106.809 21.552 107.737 21.552C108.233 21.552 108.673 21.472 109.057 21.312C109.457 21.136 109.769 20.888 109.993 20.568C110.233 20.232 110.353 19.84 110.353 19.392C110.353 18.976 110.233 18.616 109.993 18.312C109.753 18.008 109.385 17.728 108.889 17.472C108.409 17.216 107.801 16.952 107.065 16.68C106.009 16.264 105.121 15.824 104.401 15.36C103.697 14.88 103.169 14.328 102.817 13.704C102.465 13.08 102.289 12.344 102.289 11.496C102.289 10.6 102.505 9.808 102.937 9.12C103.385 8.432 104.001 7.888 104.785 7.488C105.585 7.088 106.513 6.888 107.569 6.888C108.689 6.888 109.681 7.152 110.545 7.68C111.425 8.192 112.129 8.96 112.657 9.984L110.185 11.496C109.849 10.888 109.449 10.432 108.985 10.128C108.537 9.808 108.033 9.648 107.473 9.648C107.073 9.648 106.713 9.728 106.393 9.888C106.089 10.032 105.841 10.24 105.649 10.512C105.473 10.768 105.385 11.072 105.385 11.424C105.385 11.792 105.489 12.12 105.697 12.408C105.921 12.696 106.273 12.976 106.753 13.248C107.249 13.504 107.889 13.776 108.673 14.064C109.713 14.448 110.577 14.872 111.265 15.336C111.969 15.8 112.505 16.344 112.873 16.968C113.241 17.576 113.425 18.32 113.425 19.2C113.425 20.192 113.177 21.08 112.681 21.864C112.201 22.632 111.529 23.232 110.665 23.664C109.801 24.096 108.785 24.312 107.617 24.312ZM121.182 24.24C120.03 24.24 119.006 23.976 118.11 23.448C117.214 22.92 116.502 22.192 115.974 21.264C115.462 20.32 115.206 19.256 115.206 18.072C115.206 16.872 115.462 15.816 115.974 14.904C116.486 13.976 117.19 13.248 118.086 12.72C118.998 12.192 120.03 11.928 121.182 11.928C122.318 11.928 123.334 12.192 124.23 12.72C125.126 13.248 125.83 13.976 126.342 14.904C126.854 15.816 127.11 16.872 127.11 18.072C127.11 19.256 126.854 20.312 126.342 21.24C125.83 22.168 125.126 22.904 124.23 23.448C123.334 23.976 122.318 24.24 121.182 24.24ZM121.182 21.624C121.79 21.624 122.31 21.48 122.742 21.192C123.19 20.904 123.526 20.496 123.75 19.968C123.99 19.44 124.11 18.808 124.11 18.072C124.11 17.32 123.99 16.688 123.75 16.176C123.526 15.648 123.19 15.248 122.742 14.976C122.31 14.688 121.79 14.544 121.182 14.544C120.558 14.544 120.022 14.688 119.574 14.976C119.126 15.248 118.782 15.648 118.542 16.176C118.302 16.688 118.182 17.32 118.182 18.072C118.182 18.808 118.302 19.44 118.542 19.968C118.782 20.496 119.126 20.904 119.574 21.192C120.022 21.48 120.558 21.624 121.182 21.624ZM133.668 24.24C132.708 24.24 131.9 24.048 131.244 23.664C130.604 23.28 130.124 22.736 129.804 22.032C129.5 21.328 129.348 20.504 129.348 19.56V12.168H132.324V18.816C132.324 19.36 132.388 19.848 132.516 20.28C132.644 20.696 132.868 21.032 133.188 21.288C133.524 21.528 133.98 21.648 134.556 21.648C135.26 21.648 135.788 21.448 136.14 21.048C136.508 20.648 136.756 20.096 136.884 19.392C137.028 18.672 137.1 17.832 137.1 16.872V12.168H140.076V24H137.1V21.432L137.508 21.672C137.156 22.584 136.636 23.24 135.948 23.64C135.26 24.04 134.5 24.24 133.668 24.24ZM143.039 24V12.168H146.039V14.856L145.559 14.904C145.767 14.184 146.071 13.608 146.471 13.176C146.871 12.744 147.335 12.432 147.863 12.24C148.391 12.032 148.935 11.928 149.495 11.928C150.839 11.928 151.887 12.312 152.639 13.08C153.407 13.832 153.791 14.896 153.791 16.272V24H150.791V17.376C150.791 16.384 150.615 15.664 150.263 15.216C149.911 14.752 149.359 14.52 148.607 14.52C148.031 14.52 147.551 14.656 147.167 14.928C146.799 15.184 146.519 15.592 146.327 16.152C146.135 16.712 146.039 17.44 146.039 18.336V24H143.039ZM161.074 24.24C160.034 24.24 159.138 23.976 158.386 23.448C157.634 22.904 157.05 22.168 156.634 21.24C156.234 20.296 156.034 19.24 156.034 18.072C156.034 16.776 156.258 15.672 156.706 14.76C157.17 13.848 157.786 13.152 158.554 12.672C159.322 12.176 160.162 11.928 161.074 11.928C161.714 11.928 162.306 12.064 162.85 12.336C163.41 12.592 163.89 12.984 164.29 13.512C164.69 14.04 164.954 14.712 165.082 15.528L164.482 15.36V7.272H167.434V24H164.482V20.832L165.178 20.496C164.986 21.424 164.674 22.168 164.242 22.728C163.826 23.272 163.338 23.664 162.778 23.904C162.234 24.128 161.666 24.24 161.074 24.24ZM161.89 21.504C162.482 21.504 162.986 21.36 163.402 21.072C163.834 20.784 164.162 20.384 164.386 19.872C164.626 19.36 164.746 18.76 164.746 18.072C164.746 17.384 164.626 16.784 164.386 16.272C164.162 15.76 163.834 15.368 163.402 15.096C162.986 14.808 162.482 14.664 161.89 14.664C161.314 14.664 160.81 14.808 160.378 15.096C159.946 15.368 159.61 15.76 159.37 16.272C159.146 16.768 159.034 17.368 159.034 18.072C159.034 18.776 159.146 19.384 159.37 19.896C159.61 20.408 159.946 20.808 160.378 21.096C160.81 21.368 161.314 21.504 161.89 21.504Z" fill="white"/>
</svg>
