<svg width="142" height="32" viewBox="0 0 142 32" fill="none" xmlns="http://www.w3.org/2000/svg">
<mask id="mask0_10265_9162" style="mask-type:luminance" maskUnits="userSpaceOnUse" x="17" y="23" width="7" height="9">
<path d="M23.9739 23.9766V28.5976C23.9739 30.4703 22.4418 32.0025 20.569 32.0025H17.1641V26.8966C18.6387 24.8438 20.9086 23.8704 23.9739 23.9766Z" fill="white"/>
</mask>
<g mask="url(#mask0_10265_9162)">
<path d="M23.974 23.8672H17.1641V31.9993H23.974V23.8672Z" fill="#15B5A4"/>
</g>
<mask id="mask1_10265_9162" style="mask-type:luminance" maskUnits="userSpaceOnUse" x="17" y="24" width="7" height="8">
<path d="M23.7691 24.1742V28.5959C23.7691 30.3557 22.3287 31.7961 20.5689 31.7961H17.3687V28.5804H18.3607C19.5752 28.5804 20.5689 27.5868 20.5689 26.3723V24.6175C21.5872 24.273 22.6808 24.1532 23.7691 24.1742Z" fill="white"/>
</mask>
<g mask="url(#mask1_10265_9162)">
<path d="M23.7691 24.1562H17.3687V31.7991H23.7691V24.1562Z" fill="#15B5A4"/>
</g>
<mask id="mask2_10265_9162" style="mask-type:luminance" maskUnits="userSpaceOnUse" x="17" y="18" width="8" height="9">
<path d="M24.3017 23.972H23.974V24.9138C21.5482 24.8053 19.1543 25.5007 17.1641 26.8919V20.5671V20.567C17.1641 20.5391 17.1645 20.5112 17.1652 20.4834L17.1654 20.4755C17.1661 20.4477 17.1671 20.4201 17.1686 20.3925C17.17 20.3648 17.1718 20.3372 17.1738 20.3098L17.1744 20.3023C17.1765 20.2753 17.1789 20.2484 17.1816 20.2216L17.1819 20.2186C17.1846 20.1923 17.1877 20.1663 17.191 20.1402L17.1923 20.1294C17.1956 20.1044 17.1991 20.0794 17.2029 20.0546L17.2043 20.0459C17.2081 20.0215 17.2121 19.9972 17.2164 19.973L17.2189 19.9595C17.2231 19.9362 17.2276 19.913 17.2323 19.8898L17.2352 19.876C17.2399 19.8534 17.2449 19.8307 17.2501 19.8081L17.2536 19.7928C17.2588 19.771 17.2641 19.7493 17.2696 19.7276L17.2744 19.7093C17.2798 19.6886 17.2855 19.6679 17.2913 19.6472L17.2969 19.6276C17.3024 19.6084 17.3081 19.5894 17.314 19.5704C17.3167 19.5616 17.3195 19.5528 17.3223 19.5441C17.328 19.5261 17.3338 19.5082 17.3398 19.4903C17.3426 19.482 17.3455 19.4736 17.3483 19.4652C17.3541 19.4486 17.36 19.432 17.366 19.4154C17.3699 19.4045 17.374 19.3937 17.378 19.3828C17.3839 19.367 17.3899 19.3512 17.396 19.3356C17.3997 19.3261 17.4034 19.3167 17.4073 19.3073C17.413 19.2929 17.4189 19.2786 17.4249 19.2643C17.4304 19.2511 17.436 19.238 17.4416 19.2249C17.4472 19.2119 17.453 19.1989 17.4587 19.186C17.464 19.1742 17.4693 19.1625 17.4747 19.1508C17.48 19.1393 17.4855 19.1277 17.491 19.1162C17.498 19.1013 17.5052 19.0866 17.5125 19.0718C17.517 19.0627 17.5215 19.0536 17.5261 19.0444C17.5349 19.027 17.5439 19.0096 17.5529 18.9923C17.5566 18.9854 17.5602 18.9784 17.5639 18.9716C17.5727 18.9551 17.5817 18.9387 17.5907 18.9224L17.5992 18.9073C17.6118 18.8849 17.6247 18.8626 17.6378 18.8406L17.6434 18.8311C17.654 18.8133 17.6647 18.7956 17.6756 18.7781L17.6783 18.7738C17.6947 18.7475 17.7114 18.7215 17.7286 18.6957L17.73 18.6935C17.7601 18.6481 17.7914 18.6034 17.8235 18.5596C19.0886 18.0146 20.5776 18.0257 21.8875 18.7107C23.8319 19.7274 24.7823 21.915 24.3017 23.972Z" fill="white"/>
</mask>
<g mask="url(#mask2_10265_9162)">
<path d="M24.7823 18.0156H17.1641V26.893H24.7823V18.0156Z" fill="#15B5A4"/>
</g>
<mask id="mask3_10265_9162" style="mask-type:luminance" maskUnits="userSpaceOnUse" x="17" y="17" width="15" height="10">
<path d="M17.1641 26.8939V20.569C17.1641 18.6963 18.6963 17.1641 20.569 17.1641H21.9813H23.974H31.9999V20.569C31.9999 22.4417 30.4677 23.9739 28.595 23.9739H23.974C20.9086 23.8678 18.6387 24.8412 17.1641 26.8939Z" fill="white"/>
</mask>
<g mask="url(#mask3_10265_9162)">
<path d="M31.9999 17.1641H17.1641V26.8939H31.9999V17.1641Z" fill="#15B5A4"/>
</g>
<mask id="mask4_10265_9162" style="mask-type:luminance" maskUnits="userSpaceOnUse" x="17" y="17" width="15" height="10">
<path d="M17.3716 26.2953V20.5725H26.8771C27.8134 20.5725 28.5795 19.8063 28.5795 18.8699V17.375H31.7924V20.5724C31.7924 22.3306 30.3532 23.7698 28.595 23.7698H23.9776C22.0513 23.7036 20.1052 24.0519 18.5249 25.2164C18.0975 25.5313 17.7134 25.8937 17.3716 26.2953Z" fill="white"/>
</mask>
<g mask="url(#mask4_10265_9162)">
<path d="M31.7924 17.375H17.3716V26.2953H31.7924V17.375Z" fill="#15B5A4"/>
</g>
<mask id="mask5_10265_9162" style="mask-type:luminance" maskUnits="userSpaceOnUse" x="23" y="8" width="9" height="7">
<path d="M26.8936 14.8333H31.9996V11.4284C31.9996 9.55565 30.4674 8.02344 28.5947 8.02344H23.9736C23.9814 10.5958 25.0356 13.0543 26.8936 14.8333Z" fill="white"/>
</mask>
<g mask="url(#mask5_10265_9162)">
<path d="M32.0001 8.02344H23.9741V14.8333H32.0001V8.02344Z" fill="#15B5A4"/>
</g>
<mask id="mask6_10265_9162" style="mask-type:luminance" maskUnits="userSpaceOnUse" x="18" y="7" width="9" height="8">
<path d="M20.569 14.8389H21.9813H23.9739H26.8939C25.5026 12.8488 24.8073 10.455 24.9158 8.02905H23.9739V7.70134C21.917 7.22072 19.7294 8.17118 18.7127 10.1156C18.0277 11.4255 18.0165 12.9145 18.5615 14.1795C19.1254 14.5936 19.8199 14.8389 20.569 14.8389Z" fill="white"/>
</mask>
<g mask="url(#mask6_10265_9162)">
<path d="M26.894 7.21875H18.0166V14.837H26.894V7.21875Z" fill="#15B5A4"/>
</g>
<mask id="mask7_10265_9162" style="mask-type:luminance" maskUnits="userSpaceOnUse" x="17" y="0" width="10" height="15">
<path d="M23.974 8.02594C23.9817 10.5983 25.0359 13.0568 26.8939 14.8358H23.974H21.9813H20.569C18.6963 14.8358 17.1641 13.3036 17.1641 11.431V0H20.569C22.4418 0 23.9739 1.53221 23.9739 3.40495V8.02594H23.974Z" fill="white"/>
</mask>
<g mask="url(#mask7_10265_9162)">
<path d="M26.8939 0H17.1641V14.8358H26.8939V0Z" fill="#15B5A4"/>
</g>
<mask id="mask8_10265_9162" style="mask-type:luminance" maskUnits="userSpaceOnUse" x="17" y="0" width="10" height="15">
<path d="M26.3959 14.6317H20.569V5.31195C20.569 4.27348 19.7194 3.42385 18.6809 3.42385H17.3716V0.210938H20.569C22.3272 0.210938 23.7665 1.65019 23.7665 3.40836V8.02935C23.7665 10.4909 24.7176 12.8495 26.3959 14.6317Z" fill="white"/>
</mask>
<g mask="url(#mask8_10265_9162)">
<path d="M26.3959 0.210938H17.3716V14.6317H26.3959V0.210938Z" fill="#15B5A4"/>
</g>
<mask id="mask9_10265_9162" style="mask-type:luminance" maskUnits="userSpaceOnUse" x="8" y="23" width="7" height="9">
<path d="M14.8357 26.8965V32.0025H11.4308C9.55809 32.0025 8.02588 30.4703 8.02588 28.5976V23.9766C10.5982 23.9843 13.0567 25.0384 14.8357 26.8965Z" fill="white"/>
</mask>
<g mask="url(#mask9_10265_9162)">
<path d="M14.8358 23.9766H8.02588V32.0025H14.8358V23.9766Z" fill="#15B5A4"/>
</g>
<mask id="mask10_10265_9162" style="mask-type:luminance" maskUnits="userSpaceOnUse" x="7" y="18" width="8" height="9">
<path d="M14.8361 20.5671V21.9793V23.972V26.8919C12.8459 25.5007 10.452 24.8053 8.02615 24.9138V23.972H7.69838C7.21783 21.9151 8.16829 19.7274 10.1127 18.7107C11.4226 18.0257 12.9116 18.0146 14.1767 18.5596C14.5907 19.1234 14.8361 19.8179 14.8361 20.5671Z" fill="white"/>
</mask>
<g mask="url(#mask10_10265_9162)">
<path d="M14.836 18.0156H7.21777V26.893H14.836V18.0156Z" fill="#15B5A4"/>
</g>
<mask id="mask11_10265_9162" style="mask-type:luminance" maskUnits="userSpaceOnUse" x="0" y="17" width="15" height="10">
<path d="M8.02594 23.9739C10.5983 23.9817 13.0568 25.0358 14.8358 26.8939V23.9739V21.9813V20.569C14.8358 18.6963 13.3036 17.1641 11.4309 17.1641H0V20.569C0 22.4417 1.53221 23.9739 3.40488 23.9739H8.02594Z" fill="white"/>
</mask>
<g mask="url(#mask11_10265_9162)">
<path d="M14.8358 17.1641H0V26.8939H14.8358V17.1641Z" fill="#15B5A4"/>
</g>
<mask id="mask12_10265_9162" style="mask-type:luminance" maskUnits="userSpaceOnUse" x="0" y="17" width="15" height="10">
<path d="M14.6283 26.3993V20.5724H5.30847C4.27006 20.5724 3.42037 19.7227 3.42037 18.6843V17.375H0.20752V20.5724C0.20752 22.3306 1.64674 23.7698 3.40487 23.7698H8.02593C10.4875 23.7698 12.8461 24.7211 14.6283 26.3993Z" fill="white"/>
</mask>
<g mask="url(#mask12_10265_9162)">
<path d="M14.6283 17.375H0.20752V26.3993H14.6283V17.375Z" fill="#15B5A4"/>
</g>
<mask id="mask13_10265_9162" style="mask-type:luminance" maskUnits="userSpaceOnUse" x="0" y="8" width="9" height="7">
<path d="M8.02594 8.02344H3.40488C1.53221 8.02344 0 9.55565 0 11.4284V14.8333H5.10596C7.15874 13.3588 8.13204 11.0888 8.02594 8.02344Z" fill="white"/>
</mask>
<g mask="url(#mask13_10265_9162)">
<path d="M8.13204 8.02344H0V14.8333H8.13204V8.02344Z" fill="#15B5A4"/>
</g>
<mask id="mask14_10265_9162" style="mask-type:luminance" maskUnits="userSpaceOnUse" x="0" y="8" width="8" height="7">
<path d="M7.82661 8.23438H3.40481C1.64513 8.23438 0.20459 9.67492 0.20459 11.4346V14.6349H3.42031V13.6428C3.42031 12.4283 4.41398 11.4346 5.62847 11.4346H7.3833C7.72776 10.4163 7.84754 9.32272 7.82661 8.23438Z" fill="white"/>
</mask>
<g mask="url(#mask14_10265_9162)">
<path d="M7.84754 8.23438H0.20459V14.6349H7.84754V8.23438Z" fill="#15B5A4"/>
</g>
<mask id="mask15_10265_9162" style="mask-type:luminance" maskUnits="userSpaceOnUse" x="5" y="7" width="9" height="8">
<path d="M8.02593 7.70134V8.02905H7.08411C7.19265 10.4549 6.49725 12.8488 5.10596 14.839H11.4309H11.4309C11.4588 14.839 11.4867 14.8386 11.5144 14.8379L11.5225 14.8377C11.5502 14.837 11.5778 14.8359 11.6054 14.8345C11.6331 14.833 11.6606 14.8313 11.6882 14.8292L11.6956 14.8286C11.7226 14.8265 11.7495 14.8241 11.7763 14.8213L11.7793 14.8211C11.8055 14.8184 11.8316 14.8153 11.8577 14.8121L11.8686 14.8106C11.8935 14.8074 11.9185 14.8039 11.9433 14.8001L11.952 14.7987C11.9765 14.795 12.0007 14.7909 12.0249 14.7866L12.0385 14.7841C12.0617 14.7799 12.085 14.7754 12.108 14.7707L12.1219 14.7679C12.1446 14.7631 12.1672 14.7582 12.1897 14.753L12.2052 14.7494C12.227 14.7443 12.2487 14.7389 12.2703 14.7334L12.2886 14.7286C12.3094 14.7232 12.33 14.7176 12.3506 14.7117L12.3703 14.7061C12.3895 14.7006 12.4086 14.6948 12.4276 14.689C12.4363 14.6862 12.4452 14.6835 12.4539 14.6808C12.4718 14.675 12.4898 14.6692 12.5076 14.6633C12.516 14.6604 12.5243 14.6576 12.5327 14.6547C12.5494 14.6489 12.566 14.643 12.5826 14.637C12.5935 14.6331 12.6043 14.6291 12.6152 14.625C12.631 14.6191 12.6467 14.6131 12.6624 14.6069C12.6718 14.6032 12.6812 14.5995 12.6906 14.5957C12.7051 14.5899 12.7193 14.5841 12.7337 14.5781C12.7468 14.5726 12.76 14.567 12.773 14.5614C12.7861 14.5557 12.7991 14.55 12.812 14.5442C12.8237 14.5389 12.8355 14.5336 12.8471 14.5282C12.8587 14.5229 12.8703 14.5174 12.8818 14.512C12.8966 14.5049 12.9114 14.4978 12.9262 14.4905C12.9353 14.4859 12.9444 14.4814 12.9535 14.4768C12.971 14.468 12.9884 14.4591 13.0057 14.45C13.0126 14.4464 13.0196 14.4427 13.0264 14.439C13.0428 14.4302 13.0593 14.4213 13.0756 14.4122L13.0907 14.4037C13.1131 14.3911 13.1353 14.3782 13.1574 14.3652L13.1669 14.3595C13.1847 14.3489 13.2024 14.3382 13.2199 14.3273L13.2242 14.3246C13.2505 14.3082 13.2765 14.2915 13.3023 14.2744L13.3045 14.273C13.3499 14.2428 13.3946 14.2116 13.4384 14.1794C13.9834 12.9144 13.9723 11.4254 13.2873 10.1155C12.2704 8.17118 10.0829 7.22072 8.02593 7.70134Z" fill="white"/>
</mask>
<g mask="url(#mask15_10265_9162)">
<path d="M13.9833 7.21875H5.10596V14.837H13.9833V7.21875Z" fill="#15B5A4"/>
</g>
<mask id="mask16_10265_9162" style="mask-type:luminance" maskUnits="userSpaceOnUse" x="5" y="0" width="10" height="15">
<path d="M5.10596 14.8358H11.4309C13.3036 14.8358 14.8358 13.3036 14.8358 11.4309V10.0186V8.02597V0H11.4309C9.55815 0 8.02593 1.53221 8.02593 3.40495V8.02594C8.13204 11.0913 7.15874 13.3613 5.10596 14.8358Z" fill="white"/>
</mask>
<g mask="url(#mask16_10265_9162)">
<path d="M14.8358 0H5.10596V14.8358H14.8358V0Z" fill="#15B5A4"/>
</g>
<mask id="mask17_10265_9162" style="mask-type:luminance" maskUnits="userSpaceOnUse" x="5" y="0" width="10" height="15">
<path d="M5.70801 14.6317H11.4309V5.12631C11.4309 4.18996 12.197 3.42385 13.1333 3.42385H14.6283V0.210938H11.4309C9.67269 0.210938 8.2334 1.65019 8.2334 3.40836V8.02578C8.29962 9.95209 7.95134 11.8981 6.78682 13.4784C6.47197 13.9058 6.10965 14.2899 5.70801 14.6317Z" fill="white"/>
</mask>
<g mask="url(#mask17_10265_9162)">
<path d="M14.6283 0.210938H5.70801V14.6317H14.6283V0.210938Z" fill="#15B5A4"/>
</g>
<path d="M41.608 24V7.272H46.144L50.56 19.416H50.008L54.4 7.272H58.936V24H55.84V10.896L56.128 10.944L51.784 22.536H48.784L44.44 10.944L44.704 10.896V24H41.608ZM67.2987 24.24C66.2747 24.24 65.3947 24.072 64.6587 23.736C63.9227 23.4 63.3147 22.952 62.8347 22.392C62.3707 21.816 62.0267 21.168 61.8027 20.448C61.5787 19.712 61.4667 18.944 61.4667 18.144C61.4667 17.376 61.5787 16.624 61.8027 15.888C62.0267 15.152 62.3627 14.488 62.8107 13.896C63.2587 13.304 63.8347 12.832 64.5387 12.48C65.2587 12.112 66.1147 11.928 67.1067 11.928C68.0347 11.928 68.8427 12.088 69.5307 12.408C70.2187 12.712 70.7867 13.144 71.2347 13.704C71.6827 14.248 72.0187 14.888 72.2427 15.624C72.4827 16.36 72.6027 17.144 72.6027 17.976C72.6027 18.088 72.5947 18.248 72.5787 18.456C72.5787 18.648 72.5627 18.856 72.5307 19.08H64.4427C64.5227 19.928 64.8347 20.568 65.3787 21C65.9387 21.432 66.6347 21.648 67.4667 21.648C68.0747 21.648 68.6667 21.544 69.2427 21.336C69.8187 21.112 70.3307 20.8 70.7787 20.4L72.2667 22.416C71.7067 22.848 71.1787 23.2 70.6827 23.472C70.1867 23.744 69.6667 23.936 69.1227 24.048C68.5947 24.176 67.9867 24.24 67.2987 24.24ZM69.6507 17.592C69.6827 17.464 69.7067 17.336 69.7227 17.208C69.7547 17.08 69.7707 16.96 69.7707 16.848C69.7707 16.512 69.7067 16.2 69.5787 15.912C69.4507 15.608 69.2747 15.344 69.0507 15.12C68.8267 14.896 68.5547 14.728 68.2347 14.616C67.9307 14.488 67.5787 14.424 67.1787 14.424C66.5867 14.424 66.0907 14.544 65.6907 14.784C65.2907 15.024 64.9867 15.336 64.7787 15.72C64.5867 16.088 64.4667 16.472 64.4187 16.872H70.6587L69.6507 17.592ZM79.4911 24.24C78.4511 24.24 77.5551 23.976 76.8031 23.448C76.0511 22.904 75.4671 22.168 75.0511 21.24C74.6511 20.296 74.4511 19.24 74.4511 18.072C74.4511 16.776 74.6751 15.672 75.1231 14.76C75.5871 13.848 76.2031 13.152 76.9711 12.672C77.7391 12.176 78.5791 11.928 79.4911 11.928C80.1311 11.928 80.7231 12.064 81.2671 12.336C81.8271 12.592 82.3071 12.984 82.7071 13.512C83.1071 14.04 83.3711 14.712 83.4991 15.528L82.8991 15.36V7.272H85.8511V24H82.8991V20.832L83.5951 20.496C83.4031 21.424 83.0911 22.168 82.6591 22.728C82.2431 23.272 81.7551 23.664 81.1951 23.904C80.6511 24.128 80.0831 24.24 79.4911 24.24ZM80.3071 21.504C80.8991 21.504 81.4031 21.36 81.8191 21.072C82.2511 20.784 82.5791 20.384 82.8031 19.872C83.0431 19.36 83.1631 18.76 83.1631 18.072C83.1631 17.384 83.0431 16.784 82.8031 16.272C82.5791 15.76 82.2511 15.368 81.8191 15.096C81.4031 14.808 80.8991 14.664 80.3071 14.664C79.7311 14.664 79.2271 14.808 78.7951 15.096C78.3631 15.368 78.0271 15.76 77.7871 16.272C77.5631 16.768 77.4511 17.368 77.4511 18.072C77.4511 18.776 77.5631 19.384 77.7871 19.896C78.0271 20.408 78.3631 20.808 78.7951 21.096C79.2271 21.368 79.7311 21.504 80.3071 21.504ZM88.7603 24V12.168H91.7363V24H88.7603ZM88.6643 10.344V7.272H91.8563V10.344H88.6643ZM99.8751 24.24C98.9151 24.24 98.0751 24.072 97.3551 23.736C96.6511 23.384 96.0511 22.92 95.5551 22.344C95.0751 21.768 94.7151 21.112 94.4751 20.376C94.2351 19.64 94.1151 18.872 94.1151 18.072C94.1151 17.288 94.2351 16.528 94.4751 15.792C94.7151 15.056 95.0751 14.4 95.5551 13.824C96.0511 13.248 96.6511 12.792 97.3551 12.456C98.0751 12.104 98.9151 11.928 99.8751 11.928C101.075 11.928 102.115 12.216 102.995 12.792C103.875 13.368 104.531 14.24 104.963 15.408L102.371 16.44C102.179 15.88 101.883 15.424 101.483 15.072C101.099 14.704 100.563 14.52 99.8751 14.52C99.2351 14.52 98.7071 14.696 98.2911 15.048C97.8751 15.384 97.5711 15.824 97.3791 16.368C97.1871 16.912 97.0911 17.48 97.0911 18.072C97.0911 18.664 97.1871 19.24 97.3791 19.8C97.5711 20.344 97.8751 20.792 98.2911 21.144C98.7071 21.48 99.2351 21.648 99.8751 21.648C100.563 21.648 101.099 21.472 101.483 21.12C101.883 20.752 102.179 20.28 102.371 19.704L104.963 20.736C104.531 21.92 103.875 22.8 102.995 23.376C102.115 23.952 101.075 24.24 99.8751 24.24ZM111.382 24.24C110.422 24.24 109.614 24.048 108.958 23.664C108.318 23.28 107.838 22.736 107.518 22.032C107.214 21.328 107.062 20.504 107.062 19.56V12.168H110.038V18.816C110.038 19.36 110.102 19.848 110.23 20.28C110.358 20.696 110.582 21.032 110.902 21.288C111.238 21.528 111.694 21.648 112.27 21.648C112.974 21.648 113.502 21.448 113.854 21.048C114.222 20.648 114.47 20.096 114.598 19.392C114.742 18.672 114.814 17.832 114.814 16.872V12.168H117.79V24H114.814V21.432L115.222 21.672C114.87 22.584 114.35 23.24 113.662 23.64C112.974 24.04 112.214 24.24 111.382 24.24ZM120.753 24V12.168H123.753V15.384L123.297 15.432C123.345 14.744 123.553 14.136 123.921 13.608C124.289 13.08 124.737 12.672 125.265 12.384C125.809 12.08 126.361 11.928 126.921 11.928C127.321 11.928 127.697 11.984 128.049 12.096C128.417 12.192 128.793 12.36 129.177 12.6L127.737 15.288C127.561 15.192 127.337 15.104 127.065 15.024C126.793 14.944 126.521 14.904 126.249 14.904C125.929 14.904 125.617 14.96 125.313 15.072C125.025 15.184 124.761 15.36 124.521 15.6C124.297 15.84 124.113 16.16 123.969 16.56C123.905 16.784 123.849 17.072 123.801 17.424C123.769 17.76 123.753 18.256 123.753 18.912V24H120.753ZM135.619 24.24C134.595 24.24 133.715 24.072 132.979 23.736C132.243 23.4 131.635 22.952 131.155 22.392C130.691 21.816 130.347 21.168 130.123 20.448C129.899 19.712 129.787 18.944 129.787 18.144C129.787 17.376 129.899 16.624 130.123 15.888C130.347 15.152 130.683 14.488 131.131 13.896C131.579 13.304 132.155 12.832 132.859 12.48C133.579 12.112 134.435 11.928 135.427 11.928C136.355 11.928 137.163 12.088 137.851 12.408C138.539 12.712 139.107 13.144 139.555 13.704C140.003 14.248 140.339 14.888 140.563 15.624C140.803 16.36 140.923 17.144 140.923 17.976C140.923 18.088 140.915 18.248 140.899 18.456C140.899 18.648 140.883 18.856 140.851 19.08H132.763C132.843 19.928 133.155 20.568 133.699 21C134.259 21.432 134.955 21.648 135.787 21.648C136.395 21.648 136.987 21.544 137.563 21.336C138.139 21.112 138.651 20.8 139.099 20.4L140.587 22.416C140.027 22.848 139.499 23.2 139.003 23.472C138.507 23.744 137.987 23.936 137.443 24.048C136.915 24.176 136.307 24.24 135.619 24.24ZM137.971 17.592C138.003 17.464 138.027 17.336 138.043 17.208C138.075 17.08 138.091 16.96 138.091 16.848C138.091 16.512 138.027 16.2 137.899 15.912C137.771 15.608 137.595 15.344 137.371 15.12C137.147 14.896 136.875 14.728 136.555 14.616C136.251 14.488 135.899 14.424 135.499 14.424C134.907 14.424 134.411 14.544 134.011 14.784C133.611 15.024 133.307 15.336 133.099 15.72C132.907 16.088 132.787 16.472 132.739 16.872H138.979L137.971 17.592Z" fill="#0F172A"/>
</svg>
