<svg width="142" height="32" viewBox="0 0 142 32" fill="none" xmlns="http://www.w3.org/2000/svg">
<mask id="mask0_8456_6671" style="mask-type:luminance" maskUnits="userSpaceOnUse" x="17" y="23" width="7" height="9">
<path d="M23.9739 23.9746V28.5956C23.9739 30.4684 22.4418 32.0006 20.569 32.0006H17.1641V26.8946C18.6387 24.8418 20.9086 23.8685 23.9739 23.9746Z" fill="white"/>
</mask>
<g mask="url(#mask0_8456_6671)">
<path d="M23.974 23.8691H17.1641V32.0013H23.974V23.8691Z" fill="#316DFF"/>
</g>
<mask id="mask1_8456_6671" style="mask-type:luminance" maskUnits="userSpaceOnUse" x="17" y="24" width="7" height="8">
<path d="M23.7693 24.1742V28.5959C23.7693 30.3557 22.3288 31.7961 20.569 31.7961H17.3688V28.5804H18.3608C19.5753 28.5804 20.569 27.5868 20.569 26.3723V24.6175C21.5874 24.273 22.6809 24.1532 23.7693 24.1742Z" fill="white"/>
</mask>
<g mask="url(#mask1_8456_6671)">
<path d="M23.7694 24.1543H17.3689V31.7972H23.7694V24.1543Z" fill="#316DFF"/>
</g>
<mask id="mask2_8456_6671" style="mask-type:luminance" maskUnits="userSpaceOnUse" x="17" y="18" width="8" height="9">
<path d="M24.3017 23.9739H23.974V24.9158C21.5482 24.8072 19.1543 25.5026 17.1641 26.8939V20.569V20.569C17.1641 20.5411 17.1645 20.5132 17.1652 20.4854L17.1654 20.4774C17.1661 20.4497 17.1671 20.4221 17.1686 20.3945C17.17 20.3668 17.1718 20.3392 17.1738 20.3117L17.1744 20.3043C17.1765 20.2773 17.1789 20.2503 17.1816 20.2235L17.1819 20.2206C17.1846 20.1943 17.1877 20.1682 17.191 20.1421L17.1923 20.1313C17.1956 20.1063 17.1991 20.0814 17.2029 20.0565L17.2043 20.0478C17.2081 20.0234 17.2121 19.9991 17.2164 19.975L17.2189 19.9614C17.2231 19.9381 17.2276 19.9149 17.2323 19.8918L17.2352 19.878C17.2399 19.8553 17.2449 19.8327 17.2501 19.8101L17.2536 19.7947C17.2588 19.773 17.2641 19.7512 17.2696 19.7296L17.2744 19.7113C17.2798 19.6905 17.2855 19.6698 17.2913 19.6492L17.2969 19.6295C17.3024 19.6104 17.3081 19.5913 17.314 19.5724C17.3167 19.5635 17.3195 19.5548 17.3223 19.546C17.328 19.5281 17.3338 19.5102 17.3398 19.4923C17.3426 19.484 17.3455 19.4756 17.3483 19.4672C17.3541 19.4505 17.36 19.4339 17.366 19.4173C17.3699 19.4065 17.374 19.3956 17.378 19.3847C17.3839 19.369 17.3899 19.3532 17.396 19.3375C17.3997 19.3281 17.4034 19.3187 17.4073 19.3092C17.413 19.2949 17.4189 19.2806 17.4249 19.2662C17.4304 19.2531 17.436 19.24 17.4416 19.2269C17.4472 19.2139 17.453 19.2008 17.4587 19.1879C17.464 19.1762 17.4693 19.1645 17.4747 19.1528C17.48 19.1412 17.4855 19.1297 17.491 19.1182C17.498 19.1033 17.5052 19.0885 17.5125 19.0737C17.517 19.0646 17.5215 19.0555 17.5261 19.0464C17.5349 19.0289 17.5439 19.0115 17.5529 18.9942C17.5566 18.9874 17.5602 18.9804 17.5639 18.9735C17.5727 18.9571 17.5817 18.9407 17.5907 18.9244L17.5992 18.9093C17.6118 18.8869 17.6247 18.8646 17.6378 18.8425L17.6434 18.8331C17.654 18.8153 17.6647 18.7976 17.6756 18.7801L17.6783 18.7758C17.6947 18.7495 17.7114 18.7235 17.7286 18.6977L17.73 18.6954C17.7601 18.6501 17.7914 18.6054 17.8235 18.5615C19.0886 18.0165 20.5776 18.0277 21.8875 18.7126C23.8319 19.7294 24.7823 21.917 24.3017 23.9739Z" fill="white"/>
</mask>
<g mask="url(#mask2_8456_6671)">
<path d="M24.7823 18.0176H17.1641V26.895H24.7823V18.0176Z" fill="#316DFF"/>
</g>
<mask id="mask3_8456_6671" style="mask-type:luminance" maskUnits="userSpaceOnUse" x="17" y="17" width="15" height="10">
<path d="M17.1641 26.8939V20.569C17.1641 18.6963 18.6963 17.1641 20.569 17.1641H21.9813H23.974H31.9999V20.569C31.9999 22.4417 30.4677 23.9739 28.595 23.9739H23.974C20.9086 23.8678 18.6387 24.8412 17.1641 26.8939Z" fill="white"/>
</mask>
<g mask="url(#mask3_8456_6671)">
<path d="M31.9999 17.1641H17.1641V26.8939H31.9999V17.1641Z" fill="#316DFF"/>
</g>
<mask id="mask4_8456_6671" style="mask-type:luminance" maskUnits="userSpaceOnUse" x="17" y="17" width="15" height="10">
<path d="M17.3716 26.2914V20.5685H26.8771C27.8134 20.5685 28.5795 19.8024 28.5795 18.866V17.3711H31.7924V20.5685C31.7924 22.3267 30.3532 23.7659 28.595 23.7659H23.9776C22.0513 23.6997 20.1052 24.048 18.5249 25.2125C18.0975 25.5274 17.7134 25.8897 17.3716 26.2914Z" fill="white"/>
</mask>
<g mask="url(#mask4_8456_6671)">
<path d="M31.7924 17.3711H17.3716V26.2914H31.7924V17.3711Z" fill="#316DFF"/>
</g>
<mask id="mask5_8456_6671" style="mask-type:luminance" maskUnits="userSpaceOnUse" x="23" y="8" width="9" height="7">
<path d="M26.8934 14.8353H31.9994V11.4303C31.9994 9.5576 30.4671 8.02539 28.5944 8.02539H23.9734C23.9812 10.5978 25.0354 13.0563 26.8934 14.8353Z" fill="white"/>
</mask>
<g mask="url(#mask5_8456_6671)">
<path d="M31.9996 8.02539H23.9736V14.8353H31.9996V8.02539Z" fill="#316DFF"/>
</g>
<mask id="mask6_8456_6671" style="mask-type:luminance" maskUnits="userSpaceOnUse" x="18" y="7" width="9" height="8">
<path d="M20.569 14.835H21.9813H23.9739H26.8939C25.5026 12.8449 24.8073 10.4511 24.9158 8.02514H23.9739V7.69743C21.917 7.21681 19.7294 8.16727 18.7127 10.1117C18.0277 11.4216 18.0165 12.9106 18.5615 14.1756C19.1254 14.5897 19.8199 14.835 20.569 14.835Z" fill="white"/>
</mask>
<g mask="url(#mask6_8456_6671)">
<path d="M26.8939 7.2168H18.0165V14.835H26.8939V7.2168Z" fill="#316DFF"/>
</g>
<mask id="mask7_8456_6671" style="mask-type:luminance" maskUnits="userSpaceOnUse" x="17" y="0" width="10" height="15">
<path d="M23.974 8.02594C23.9817 10.5983 25.0359 13.0568 26.8939 14.8358H23.974H21.9813H20.569C18.6963 14.8358 17.1641 13.3036 17.1641 11.431V0H20.569C22.4418 0 23.9739 1.53221 23.9739 3.40495V8.02594H23.974Z" fill="white"/>
</mask>
<g mask="url(#mask7_8456_6671)">
<path d="M26.8939 0H17.1641V14.8358H26.8939V0Z" fill="#316DFF"/>
</g>
<mask id="mask8_8456_6671" style="mask-type:luminance" maskUnits="userSpaceOnUse" x="17" y="0" width="10" height="15">
<path d="M26.3959 14.6278H20.569V5.30804C20.569 4.26957 19.7194 3.41994 18.6809 3.41994H17.3716V0.207031H20.569C22.3272 0.207031 23.7665 1.64629 23.7665 3.40445V8.02544C23.7665 10.487 24.7176 12.8456 26.3959 14.6278Z" fill="white"/>
</mask>
<g mask="url(#mask8_8456_6671)">
<path d="M26.3959 0.207031H17.3716V14.6278H26.3959V0.207031Z" fill="#316DFF"/>
</g>
<mask id="mask9_8456_6671" style="mask-type:luminance" maskUnits="userSpaceOnUse" x="8" y="23" width="7" height="9">
<path d="M14.8361 26.8946V32.0005H11.4312C9.55845 32.0005 8.02625 30.4683 8.02625 28.5956V23.9746C10.5986 23.9824 13.0571 25.0365 14.8361 26.8946Z" fill="white"/>
</mask>
<g mask="url(#mask9_8456_6671)">
<path d="M14.836 23.9746H8.02612V32.0006H14.836V23.9746Z" fill="#316DFF"/>
</g>
<mask id="mask10_8456_6671" style="mask-type:luminance" maskUnits="userSpaceOnUse" x="7" y="18" width="8" height="9">
<path d="M14.8358 20.569V21.9813V23.9739V26.8939C12.8456 25.5026 10.4518 24.8072 8.02591 24.9158V23.9739H7.69814C7.21758 21.917 8.16804 19.7294 10.1125 18.7126C11.4224 18.0277 12.9114 18.0165 14.1764 18.5615C14.5904 19.1254 14.8358 19.8199 14.8358 20.569Z" fill="white"/>
</mask>
<g mask="url(#mask10_8456_6671)">
<path d="M14.8356 18.0176H7.21741V26.895H14.8356V18.0176Z" fill="#316DFF"/>
</g>
<mask id="mask11_8456_6671" style="mask-type:luminance" maskUnits="userSpaceOnUse" x="0" y="17" width="15" height="10">
<path d="M8.02594 23.9739C10.5983 23.9817 13.0568 25.0358 14.8358 26.8939V23.9739V21.9813V20.569C14.8358 18.6963 13.3036 17.1641 11.4309 17.1641H0V20.569C0 22.4417 1.53221 23.9739 3.40488 23.9739H8.02594Z" fill="white"/>
</mask>
<g mask="url(#mask11_8456_6671)">
<path d="M14.8358 17.1641H0V26.8939H14.8358V17.1641Z" fill="#316DFF"/>
</g>
<mask id="mask12_8456_6671" style="mask-type:luminance" maskUnits="userSpaceOnUse" x="0" y="17" width="15" height="10">
<path d="M14.6283 26.3954V20.5685H5.30847C4.27006 20.5685 3.42037 19.7188 3.42037 18.6804V17.3711H0.20752V20.5685C0.20752 22.3267 1.64674 23.7659 3.40487 23.7659H8.02593C10.4875 23.7659 12.8461 24.7172 14.6283 26.3954Z" fill="white"/>
</mask>
<g mask="url(#mask12_8456_6671)">
<path d="M14.6283 17.3711H0.20752V26.3954H14.6283V17.3711Z" fill="#316DFF"/>
</g>
<mask id="mask13_8456_6671" style="mask-type:luminance" maskUnits="userSpaceOnUse" x="0" y="8" width="9" height="7">
<path d="M8.02594 8.02539H3.40488C1.53221 8.02539 0 9.5576 0 11.4303V14.8353H5.10596C7.15874 13.3608 8.13204 11.0908 8.02594 8.02539Z" fill="white"/>
</mask>
<g mask="url(#mask13_8456_6671)">
<path d="M8.13204 8.02539H0V14.8353H8.13204V8.02539Z" fill="#316DFF"/>
</g>
<mask id="mask14_8456_6671" style="mask-type:luminance" maskUnits="userSpaceOnUse" x="0" y="8" width="8" height="7">
<path d="M7.82673 8.23047H3.40493C1.64525 8.23047 0.204712 9.67101 0.204712 11.4307V14.631H3.42043V13.6389C3.42043 12.4244 4.4141 11.4307 5.62859 11.4307H7.38342C7.72788 10.4124 7.84766 9.31881 7.82673 8.23047Z" fill="white"/>
</mask>
<g mask="url(#mask14_8456_6671)">
<path d="M7.84767 8.23047H0.204712V14.631H7.84767V8.23047Z" fill="#316DFF"/>
</g>
<mask id="mask15_8456_6671" style="mask-type:luminance" maskUnits="userSpaceOnUse" x="5" y="7" width="9" height="8">
<path d="M8.02593 7.69743V8.02514H7.08411C7.19265 10.451 6.49725 12.8449 5.10596 14.835H11.4309H11.4309C11.4588 14.835 11.4867 14.8346 11.5144 14.834L11.5225 14.8338C11.5502 14.8331 11.5778 14.832 11.6054 14.8306C11.6331 14.8291 11.6606 14.8274 11.6882 14.8253L11.6956 14.8247C11.7226 14.8226 11.7495 14.8202 11.7763 14.8174L11.7793 14.8171C11.8055 14.8145 11.8316 14.8114 11.8577 14.8081L11.8686 14.8067C11.8935 14.8035 11.9185 14.8 11.9433 14.7961L11.952 14.7948C11.9765 14.7911 12.0007 14.787 12.0249 14.7827L12.0385 14.7802C12.0617 14.776 12.085 14.7715 12.108 14.7668L12.1219 14.7639C12.1446 14.7592 12.1672 14.7543 12.1897 14.7491L12.2052 14.7455C12.227 14.7404 12.2487 14.735 12.2703 14.7295L12.2886 14.7247C12.3094 14.7193 12.33 14.7137 12.3506 14.7078L12.3703 14.7022C12.3895 14.6967 12.4086 14.6909 12.4276 14.6851C12.4363 14.6823 12.4452 14.6796 12.4539 14.6769C12.4718 14.6711 12.4898 14.6653 12.5076 14.6594C12.516 14.6565 12.5243 14.6537 12.5327 14.6508C12.5494 14.645 12.566 14.6391 12.5826 14.6331C12.5935 14.6292 12.6043 14.6252 12.6152 14.6211C12.631 14.6152 12.6467 14.6092 12.6624 14.603C12.6718 14.5993 12.6812 14.5956 12.6906 14.5918C12.7051 14.586 12.7193 14.5801 12.7337 14.5742C12.7468 14.5687 12.76 14.5631 12.773 14.5575C12.7861 14.5518 12.7991 14.5461 12.812 14.5403C12.8237 14.535 12.8355 14.5297 12.8471 14.5243C12.8587 14.519 12.8703 14.5135 12.8818 14.5081C12.8966 14.501 12.9114 14.4939 12.9262 14.4866C12.9353 14.482 12.9444 14.4775 12.9535 14.4729C12.971 14.4641 12.9884 14.4552 13.0057 14.4461C13.0126 14.4425 13.0196 14.4388 13.0264 14.4351C13.0428 14.4263 13.0593 14.4173 13.0756 14.4083L13.0907 14.3998C13.1131 14.3872 13.1353 14.3743 13.1574 14.3613L13.1669 14.3556C13.1847 14.345 13.2024 14.3343 13.2199 14.3234L13.2242 14.3207C13.2505 14.3043 13.2765 14.2875 13.3023 14.2705L13.3045 14.2691C13.3499 14.2389 13.3946 14.2077 13.4384 14.1755C13.9834 12.9105 13.9723 11.4215 13.2873 10.1116C12.2704 8.16727 10.0829 7.21681 8.02593 7.69743Z" fill="white"/>
</mask>
<g mask="url(#mask15_8456_6671)">
<path d="M13.9833 7.2168H5.10596V14.835H13.9833V7.2168Z" fill="#316DFF"/>
</g>
<mask id="mask16_8456_6671" style="mask-type:luminance" maskUnits="userSpaceOnUse" x="5" y="0" width="10" height="15">
<path d="M5.10596 14.8358H11.4309C13.3036 14.8358 14.8358 13.3036 14.8358 11.4309V10.0186V8.02597V0H11.4309C9.55815 0 8.02593 1.53221 8.02593 3.40495V8.02594C8.13204 11.0913 7.15874 13.3613 5.10596 14.8358Z" fill="white"/>
</mask>
<g mask="url(#mask16_8456_6671)">
<path d="M14.8358 0H5.10596V14.8358H14.8358V0Z" fill="#316DFF"/>
</g>
<mask id="mask17_8456_6671" style="mask-type:luminance" maskUnits="userSpaceOnUse" x="5" y="0" width="10" height="15">
<path d="M5.70801 14.6278H11.4309V5.1224C11.4309 4.18605 12.197 3.41994 13.1333 3.41994H14.6283V0.207031H11.4309C9.67269 0.207031 8.2334 1.64629 8.2334 3.40445V8.02188C8.29962 9.94818 7.95134 11.8942 6.78682 13.4745C6.47197 13.9019 6.10965 14.286 5.70801 14.6278Z" fill="white"/>
</mask>
<g mask="url(#mask17_8456_6671)">
<path d="M14.6283 0.207031H5.70801V14.6278H14.6283V0.207031Z" fill="#316DFF"/>
</g>
<path d="M41.6079 24V7.272H46.1439L50.5599 19.416H50.0079L54.3999 7.272H58.9359V24H55.8399V10.896L56.1279 10.944L51.7839 22.536H48.7839L44.4399 10.944L44.7039 10.896V24H41.6079ZM67.2986 24.24C66.2746 24.24 65.3946 24.072 64.6586 23.736C63.9226 23.4 63.3146 22.952 62.8346 22.392C62.3706 21.816 62.0266 21.168 61.8026 20.448C61.5786 19.712 61.4666 18.944 61.4666 18.144C61.4666 17.376 61.5786 16.624 61.8026 15.888C62.0266 15.152 62.3626 14.488 62.8106 13.896C63.2586 13.304 63.8346 12.832 64.5386 12.48C65.2586 12.112 66.1146 11.928 67.1066 11.928C68.0346 11.928 68.8426 12.088 69.5306 12.408C70.2186 12.712 70.7866 13.144 71.2346 13.704C71.6826 14.248 72.0186 14.888 72.2426 15.624C72.4826 16.36 72.6026 17.144 72.6026 17.976C72.6026 18.088 72.5946 18.248 72.5786 18.456C72.5786 18.648 72.5626 18.856 72.5306 19.08H64.4426C64.5226 19.928 64.8346 20.568 65.3786 21C65.9386 21.432 66.6346 21.648 67.4666 21.648C68.0746 21.648 68.6666 21.544 69.2426 21.336C69.8186 21.112 70.3306 20.8 70.7786 20.4L72.2666 22.416C71.7066 22.848 71.1786 23.2 70.6826 23.472C70.1866 23.744 69.6666 23.936 69.1226 24.048C68.5946 24.176 67.9866 24.24 67.2986 24.24ZM69.6506 17.592C69.6826 17.464 69.7066 17.336 69.7226 17.208C69.7546 17.08 69.7706 16.96 69.7706 16.848C69.7706 16.512 69.7066 16.2 69.5786 15.912C69.4506 15.608 69.2746 15.344 69.0506 15.12C68.8266 14.896 68.5546 14.728 68.2346 14.616C67.9306 14.488 67.5786 14.424 67.1786 14.424C66.5866 14.424 66.0906 14.544 65.6906 14.784C65.2906 15.024 64.9866 15.336 64.7786 15.72C64.5866 16.088 64.4666 16.472 64.4186 16.872H70.6586L69.6506 17.592ZM79.4909 24.24C78.4509 24.24 77.5549 23.976 76.8029 23.448C76.0509 22.904 75.4669 22.168 75.0509 21.24C74.6509 20.296 74.4509 19.24 74.4509 18.072C74.4509 16.776 74.6749 15.672 75.1229 14.76C75.5869 13.848 76.2029 13.152 76.9709 12.672C77.7389 12.176 78.5789 11.928 79.4909 11.928C80.1309 11.928 80.7229 12.064 81.2669 12.336C81.8269 12.592 82.3069 12.984 82.7069 13.512C83.1069 14.04 83.3709 14.712 83.4989 15.528L82.8989 15.36V7.272H85.8509V24H82.8989V20.832L83.5949 20.496C83.4029 21.424 83.0909 22.168 82.6589 22.728C82.2429 23.272 81.7549 23.664 81.1949 23.904C80.6509 24.128 80.0829 24.24 79.4909 24.24ZM80.3069 21.504C80.8989 21.504 81.4029 21.36 81.8189 21.072C82.2509 20.784 82.5789 20.384 82.8029 19.872C83.0429 19.36 83.1629 18.76 83.1629 18.072C83.1629 17.384 83.0429 16.784 82.8029 16.272C82.5789 15.76 82.2509 15.368 81.8189 15.096C81.4029 14.808 80.8989 14.664 80.3069 14.664C79.7309 14.664 79.2269 14.808 78.7949 15.096C78.3629 15.368 78.0269 15.76 77.7869 16.272C77.5629 16.768 77.4509 17.368 77.4509 18.072C77.4509 18.776 77.5629 19.384 77.7869 19.896C78.0269 20.408 78.3629 20.808 78.7949 21.096C79.2269 21.368 79.7309 21.504 80.3069 21.504ZM88.7602 24V12.168H91.7362V24H88.7602ZM88.6642 10.344V7.272H91.8562V10.344H88.6642ZM99.875 24.24C98.915 24.24 98.075 24.072 97.355 23.736C96.651 23.384 96.051 22.92 95.555 22.344C95.075 21.768 94.715 21.112 94.475 20.376C94.235 19.64 94.115 18.872 94.115 18.072C94.115 17.288 94.235 16.528 94.475 15.792C94.715 15.056 95.075 14.4 95.555 13.824C96.051 13.248 96.651 12.792 97.355 12.456C98.075 12.104 98.915 11.928 99.875 11.928C101.075 11.928 102.115 12.216 102.995 12.792C103.875 13.368 104.531 14.24 104.963 15.408L102.371 16.44C102.179 15.88 101.883 15.424 101.483 15.072C101.099 14.704 100.563 14.52 99.875 14.52C99.235 14.52 98.707 14.696 98.291 15.048C97.875 15.384 97.571 15.824 97.379 16.368C97.187 16.912 97.091 17.48 97.091 18.072C97.091 18.664 97.187 19.24 97.379 19.8C97.571 20.344 97.875 20.792 98.291 21.144C98.707 21.48 99.235 21.648 99.875 21.648C100.563 21.648 101.099 21.472 101.483 21.12C101.883 20.752 102.179 20.28 102.371 19.704L104.963 20.736C104.531 21.92 103.875 22.8 102.995 23.376C102.115 23.952 101.075 24.24 99.875 24.24ZM111.382 24.24C110.422 24.24 109.614 24.048 108.958 23.664C108.318 23.28 107.838 22.736 107.518 22.032C107.214 21.328 107.062 20.504 107.062 19.56V12.168H110.038V18.816C110.038 19.36 110.102 19.848 110.23 20.28C110.358 20.696 110.582 21.032 110.902 21.288C111.238 21.528 111.694 21.648 112.27 21.648C112.974 21.648 113.502 21.448 113.854 21.048C114.222 20.648 114.47 20.096 114.598 19.392C114.742 18.672 114.814 17.832 114.814 16.872V12.168H117.79V24H114.814V21.432L115.222 21.672C114.87 22.584 114.35 23.24 113.662 23.64C112.974 24.04 112.214 24.24 111.382 24.24ZM120.753 24V12.168H123.753V15.384L123.297 15.432C123.345 14.744 123.553 14.136 123.921 13.608C124.289 13.08 124.737 12.672 125.265 12.384C125.809 12.08 126.361 11.928 126.921 11.928C127.321 11.928 127.697 11.984 128.049 12.096C128.417 12.192 128.793 12.36 129.177 12.6L127.737 15.288C127.561 15.192 127.337 15.104 127.065 15.024C126.793 14.944 126.521 14.904 126.249 14.904C125.929 14.904 125.617 14.96 125.313 15.072C125.025 15.184 124.761 15.36 124.521 15.6C124.297 15.84 124.113 16.16 123.969 16.56C123.905 16.784 123.849 17.072 123.801 17.424C123.769 17.76 123.753 18.256 123.753 18.912V24H120.753ZM135.619 24.24C134.595 24.24 133.715 24.072 132.979 23.736C132.243 23.4 131.635 22.952 131.155 22.392C130.691 21.816 130.347 21.168 130.123 20.448C129.899 19.712 129.787 18.944 129.787 18.144C129.787 17.376 129.899 16.624 130.123 15.888C130.347 15.152 130.683 14.488 131.131 13.896C131.579 13.304 132.155 12.832 132.859 12.48C133.579 12.112 134.435 11.928 135.427 11.928C136.355 11.928 137.163 12.088 137.851 12.408C138.539 12.712 139.107 13.144 139.555 13.704C140.003 14.248 140.339 14.888 140.563 15.624C140.803 16.36 140.923 17.144 140.923 17.976C140.923 18.088 140.915 18.248 140.899 18.456C140.899 18.648 140.883 18.856 140.851 19.08H132.763C132.843 19.928 133.155 20.568 133.699 21C134.259 21.432 134.955 21.648 135.787 21.648C136.395 21.648 136.987 21.544 137.563 21.336C138.139 21.112 138.651 20.8 139.099 20.4L140.587 22.416C140.027 22.848 139.499 23.2 139.003 23.472C138.507 23.744 137.987 23.936 137.443 24.048C136.915 24.176 136.307 24.24 135.619 24.24ZM137.971 17.592C138.003 17.464 138.027 17.336 138.043 17.208C138.075 17.08 138.091 16.96 138.091 16.848C138.091 16.512 138.027 16.2 137.899 15.912C137.771 15.608 137.595 15.344 137.371 15.12C137.147 14.896 136.875 14.728 136.555 14.616C136.251 14.488 135.899 14.424 135.499 14.424C134.907 14.424 134.411 14.544 134.011 14.784C133.611 15.024 133.307 15.336 133.099 15.72C132.907 16.088 132.787 16.472 132.739 16.872H138.979L137.971 17.592Z" fill="white"/>
</svg>
