<svg width="139" height="32" viewBox="0 0 139 32" fill="none" xmlns="http://www.w3.org/2000/svg">
<path d="M10.7869 10.7871H0V12.6921C0 17.3982 3.81492 21.2131 8.52098 21.2131H10.7869V10.7871Z" fill="#316DFF"/>
<path d="M23.4788 10.7871H21.2129V21.2132H31.9998V19.3081C32 14.602 28.1849 10.7871 23.4788 10.7871Z" fill="#316DFF"/>
<path opacity="0.35" d="M10.7869 10.7871H9.55396V21.2132H10.7869V10.7871Z" fill="#316DFF"/>
<path opacity="0.35" d="M22.4461 10.7871H21.2131V21.2132H22.4461V10.7871Z" fill="#316DFF"/>
<path d="M10.787 32V8.52098C10.787 3.81493 14.6019 0 19.308 0H21.213V23.4789C21.213 28.1849 17.398 31.9998 12.692 31.9998L10.787 32Z" fill="#316DFF"/>
<path d="M48.9518 24.384C47.3678 24.384 45.9678 24.016 44.7518 23.28C43.5518 22.544 42.6158 21.52 41.9438 20.208C41.2718 18.896 40.9358 17.368 40.9358 15.624C40.9358 13.88 41.2718 12.36 41.9438 11.064C42.6158 9.752 43.5518 8.728 44.7518 7.992C45.9678 7.256 47.3678 6.888 48.9518 6.888C50.7278 6.888 52.2558 7.336 53.5358 8.232C54.8318 9.112 55.7598 10.328 56.3198 11.88L53.3918 12.96C53.0398 11.984 52.4798 11.224 51.7118 10.68C50.9598 10.136 50.0398 9.864 48.9518 9.864C47.9598 9.864 47.0878 10.096 46.3358 10.56C45.5998 11.024 45.0318 11.688 44.6318 12.552C44.2478 13.4 44.0558 14.424 44.0558 15.624C44.0558 16.824 44.2478 17.856 44.6318 18.72C45.0318 19.584 45.5998 20.248 46.3358 20.712C47.0878 21.176 47.9598 21.408 48.9518 21.408C50.0398 21.408 50.9598 21.136 51.7118 20.592C52.4798 20.048 53.0398 19.288 53.3918 18.312L56.3198 19.368C55.7598 20.92 54.8318 22.144 53.5358 23.04C52.2558 23.936 50.7278 24.384 48.9518 24.384ZM62.6554 24.24C61.6954 24.24 60.8874 24.048 60.2314 23.664C59.5914 23.28 59.1114 22.736 58.7914 22.032C58.4874 21.328 58.3354 20.504 58.3354 19.56V12.168H61.3114V18.816C61.3114 19.36 61.3754 19.848 61.5034 20.28C61.6314 20.696 61.8554 21.032 62.1754 21.288C62.5114 21.528 62.9674 21.648 63.5434 21.648C64.2474 21.648 64.7754 21.448 65.1274 21.048C65.4954 20.648 65.7434 20.096 65.8714 19.392C66.0154 18.672 66.0874 17.832 66.0874 16.872V12.168H69.0634V24H66.0874V21.432L66.4954 21.672C66.1434 22.584 65.6234 23.24 64.9354 23.64C64.2474 24.04 63.4874 24.24 62.6554 24.24ZM72.0263 24V12.168H75.0263V15.384L74.5703 15.432C74.6183 14.744 74.8263 14.136 75.1943 13.608C75.5623 13.08 76.0103 12.672 76.5383 12.384C77.0823 12.08 77.6343 11.928 78.1943 11.928C78.5943 11.928 78.9703 11.984 79.3223 12.096C79.6903 12.192 80.0663 12.36 80.4503 12.6L79.0103 15.288C78.8343 15.192 78.6103 15.104 78.3383 15.024C78.0663 14.944 77.7943 14.904 77.5223 14.904C77.2023 14.904 76.8903 14.96 76.5863 15.072C76.2983 15.184 76.0343 15.36 75.7943 15.6C75.5703 15.84 75.3863 16.16 75.2423 16.56C75.1783 16.784 75.1223 17.072 75.0743 17.424C75.0423 17.76 75.0263 18.256 75.0263 18.912V24H72.0263ZM86.8923 24.24C85.8683 24.24 84.9883 24.072 84.2523 23.736C83.5163 23.4 82.9083 22.952 82.4283 22.392C81.9643 21.816 81.6203 21.168 81.3963 20.448C81.1723 19.712 81.0603 18.944 81.0603 18.144C81.0603 17.376 81.1723 16.624 81.3963 15.888C81.6203 15.152 81.9563 14.488 82.4043 13.896C82.8523 13.304 83.4283 12.832 84.1323 12.48C84.8523 12.112 85.7083 11.928 86.7003 11.928C87.6283 11.928 88.4363 12.088 89.1243 12.408C89.8123 12.712 90.3803 13.144 90.8283 13.704C91.2763 14.248 91.6123 14.888 91.8363 15.624C92.0763 16.36 92.1963 17.144 92.1963 17.976C92.1963 18.088 92.1883 18.248 92.1723 18.456C92.1723 18.648 92.1563 18.856 92.1243 19.08H84.0363C84.1163 19.928 84.4283 20.568 84.9723 21C85.5323 21.432 86.2283 21.648 87.0603 21.648C87.6683 21.648 88.2603 21.544 88.8363 21.336C89.4123 21.112 89.9243 20.8 90.3723 20.4L91.8603 22.416C91.3003 22.848 90.7723 23.2 90.2763 23.472C89.7803 23.744 89.2603 23.936 88.7163 24.048C88.1883 24.176 87.5803 24.24 86.8923 24.24ZM89.2443 17.592C89.2763 17.464 89.3003 17.336 89.3163 17.208C89.3483 17.08 89.3643 16.96 89.3643 16.848C89.3643 16.512 89.3003 16.2 89.1723 15.912C89.0443 15.608 88.8683 15.344 88.6443 15.12C88.4203 14.896 88.1483 14.728 87.8283 14.616C87.5243 14.488 87.1723 14.424 86.7723 14.424C86.1803 14.424 85.6843 14.544 85.2843 14.784C84.8843 15.024 84.5803 15.336 84.3723 15.72C84.1803 16.088 84.0603 16.472 84.0123 16.872H90.2523L89.2443 17.592ZM94.5966 28.896V12.168H97.5726V15.336L96.8526 15.576C97.0606 14.632 97.3726 13.896 97.7886 13.368C98.2206 12.84 98.7086 12.472 99.2526 12.264C99.7966 12.04 100.365 11.928 100.957 11.928C101.997 11.928 102.893 12.2 103.645 12.744C104.413 13.272 104.997 14 105.397 14.928C105.797 15.856 105.997 16.912 105.997 18.096C105.997 19.376 105.773 20.48 105.325 21.408C104.877 22.32 104.269 23.024 103.501 23.52C102.733 24 101.885 24.24 100.957 24.24C100.333 24.24 99.7406 24.112 99.1806 23.856C98.6206 23.6 98.1406 23.216 97.7406 22.704C97.3566 22.176 97.0926 21.512 96.9486 20.712L97.5726 20.808V28.896H94.5966ZM100.141 21.504C100.733 21.504 101.237 21.368 101.653 21.096C102.085 20.808 102.421 20.408 102.661 19.896C102.901 19.384 103.021 18.784 103.021 18.096C103.021 17.392 102.901 16.784 102.661 16.272C102.421 15.76 102.085 15.368 101.653 15.096C101.237 14.808 100.733 14.664 100.141 14.664C99.5646 14.664 99.0606 14.808 98.6286 15.096C98.2126 15.384 97.8846 15.784 97.6446 16.296C97.4206 16.792 97.3086 17.392 97.3086 18.096C97.3086 18.784 97.4206 19.384 97.6446 19.896C97.8846 20.408 98.2126 20.808 98.6286 21.096C99.0606 21.368 99.5646 21.504 100.141 21.504ZM111.138 24.24C110.322 24.24 109.65 23.992 109.122 23.496C108.594 23 108.33 22.216 108.33 21.144V7.272H111.282V20.568C111.282 20.904 111.362 21.144 111.522 21.288C111.682 21.416 111.89 21.48 112.146 21.48C112.274 21.48 112.41 21.472 112.554 21.456C112.698 21.424 112.85 21.384 113.01 21.336V23.88C112.674 24.008 112.338 24.096 112.002 24.144C111.682 24.208 111.394 24.24 111.138 24.24ZM119.234 24.24C118.274 24.24 117.466 24.048 116.81 23.664C116.17 23.28 115.69 22.736 115.37 22.032C115.066 21.328 114.914 20.504 114.914 19.56V12.168H117.89V18.816C117.89 19.36 117.954 19.848 118.082 20.28C118.21 20.696 118.434 21.032 118.754 21.288C119.09 21.528 119.546 21.648 120.122 21.648C120.826 21.648 121.354 21.448 121.706 21.048C122.074 20.648 122.322 20.096 122.45 19.392C122.594 18.672 122.666 17.832 122.666 16.872V12.168H125.642V24H122.666V21.432L123.074 21.672C122.722 22.584 122.202 23.24 121.514 23.64C120.826 24.04 120.066 24.24 119.234 24.24ZM132.708 24.24C131.828 24.24 131.06 24.112 130.404 23.856C129.748 23.6 129.188 23.28 128.724 22.896C128.276 22.512 127.916 22.144 127.644 21.792L129.684 20.016C129.956 20.464 130.34 20.88 130.836 21.264C131.348 21.632 131.98 21.816 132.732 21.816C133.324 21.816 133.78 21.704 134.1 21.48C134.436 21.24 134.604 20.944 134.604 20.592C134.604 20.304 134.5 20.072 134.292 19.896C134.084 19.704 133.804 19.552 133.452 19.44C133.1 19.312 132.708 19.192 132.276 19.08C131.828 18.952 131.364 18.808 130.884 18.648C130.404 18.488 129.964 18.28 129.564 18.024C129.164 17.752 128.836 17.408 128.58 16.992C128.34 16.576 128.22 16.056 128.22 15.432C128.22 14.392 128.628 13.552 129.444 12.912C130.26 12.256 131.34 11.928 132.684 11.928C133.628 11.928 134.484 12.12 135.252 12.504C136.02 12.872 136.628 13.408 137.076 14.112L135.228 15.576C134.94 15.112 134.556 14.768 134.076 14.544C133.612 14.304 133.116 14.184 132.588 14.184C132.124 14.184 131.74 14.272 131.436 14.448C131.148 14.624 131.004 14.864 131.004 15.168C131.004 15.376 131.068 15.552 131.196 15.696C131.34 15.84 131.564 15.968 131.868 16.08C132.188 16.176 132.604 16.288 133.116 16.416C133.596 16.528 134.092 16.664 134.604 16.824C135.116 16.984 135.596 17.2 136.044 17.472C136.492 17.744 136.852 18.104 137.124 18.552C137.396 19 137.532 19.568 137.532 20.256C137.532 21.04 137.332 21.736 136.932 22.344C136.532 22.936 135.972 23.4 135.252 23.736C134.532 24.072 133.684 24.24 132.708 24.24Z" fill="white"/>
</svg>
