<svg width="149" height="32" viewBox="0 0 149 32" fill="none" xmlns="http://www.w3.org/2000/svg">
<path d="M17.3896 0C7.78547 0 0 7.78563 0 17.3896V32H14.6104C24.2144 32 32 24.2144 32 14.6104V0H17.3896ZM23.343 18.3925H18.3926V23.343H13.6077V18.3925H8.6572V13.6076H13.6077V8.65718H18.3926L18.4003 13.6076H23.343V18.3925Z" fill="#316DFF"/>
<path opacity="0.3" d="M0 17.3894V31.9998L13.6075 18.3923H8.65703V13.6075H13.6075V8.657H18.3924L18.4001 13.5997L31.9999 1.19546e-08H17.3894C7.78565 -0.000352271 0 7.78528 0 17.3894Z" fill="#316DFF"/>
<path d="M41.608 24V7.272H44.8L52.6 19.944H51.832V7.272H54.928V24H51.712L43.936 11.304H44.704V24H41.608ZM63.4349 24.24C62.2829 24.24 61.2589 23.976 60.3629 23.448C59.4669 22.92 58.7549 22.192 58.2269 21.264C57.7149 20.32 57.4589 19.256 57.4589 18.072C57.4589 16.872 57.7149 15.816 58.2269 14.904C58.7389 13.976 59.4429 13.248 60.3389 12.72C61.2509 12.192 62.2829 11.928 63.4349 11.928C64.5709 11.928 65.5869 12.192 66.4829 12.72C67.3789 13.248 68.0829 13.976 68.5949 14.904C69.1069 15.816 69.3629 16.872 69.3629 18.072C69.3629 19.256 69.1069 20.312 68.5949 21.24C68.0829 22.168 67.3789 22.904 66.4829 23.448C65.5869 23.976 64.5709 24.24 63.4349 24.24ZM63.4349 21.624C64.0429 21.624 64.5629 21.48 64.9949 21.192C65.4429 20.904 65.7789 20.496 66.0029 19.968C66.2429 19.44 66.3629 18.808 66.3629 18.072C66.3629 17.32 66.2429 16.688 66.0029 16.176C65.7789 15.648 65.4429 15.248 64.9949 14.976C64.5629 14.688 64.0429 14.544 63.4349 14.544C62.8109 14.544 62.2749 14.688 61.8269 14.976C61.3789 15.248 61.0349 15.648 60.7949 16.176C60.5549 16.688 60.4349 17.32 60.4349 18.072C60.4349 18.808 60.5549 19.44 60.7949 19.968C61.0349 20.496 61.3789 20.904 61.8269 21.192C62.2749 21.48 62.8109 21.624 63.4349 21.624ZM75.0674 24L70.2194 12.168H73.4834L76.2674 20.112L79.0994 12.168H82.3154L77.5154 24H75.0674ZM91.6105 24L91.3705 22.224V16.536C91.3705 15.832 91.1465 15.312 90.6985 14.976C90.2665 14.624 89.6745 14.448 88.9225 14.448C88.2985 14.448 87.6585 14.576 87.0025 14.832C86.3625 15.072 85.7945 15.416 85.2985 15.864L83.7865 13.824C84.6185 13.152 85.4665 12.672 86.3305 12.384C87.2105 12.08 88.1545 11.928 89.1625 11.928C90.7945 11.928 92.0665 12.336 92.9785 13.152C93.8905 13.968 94.3465 15.096 94.3465 16.536V24H91.6105ZM88.0345 24.24C87.1705 24.24 86.3945 24.08 85.7065 23.76C85.0345 23.44 84.4985 22.984 84.0985 22.392C83.7145 21.8 83.5225 21.12 83.5225 20.352C83.5225 19.664 83.6585 19.08 83.9305 18.6C84.2185 18.104 84.5945 17.728 85.0585 17.472C85.4585 17.232 85.8985 17.064 86.3785 16.968C86.8745 16.872 87.4025 16.824 87.9625 16.824H91.6345V19.032H88.3945C88.1385 19.032 87.8825 19.056 87.6265 19.104C87.3865 19.136 87.1785 19.224 87.0025 19.368C86.8425 19.48 86.7225 19.624 86.6425 19.8C86.5625 19.96 86.5225 20.144 86.5225 20.352C86.5225 20.8 86.6985 21.16 87.0505 21.432C87.4025 21.704 87.8745 21.84 88.4665 21.84C88.9945 21.84 89.4745 21.728 89.9065 21.504C90.3545 21.264 90.7065 20.944 90.9625 20.544C91.2345 20.128 91.3705 19.656 91.3705 19.128L92.1625 20.712C91.9545 21.544 91.6345 22.224 91.2025 22.752C90.7865 23.264 90.3065 23.64 89.7625 23.88C89.2185 24.12 88.6425 24.24 88.0345 24.24ZM104.616 24.384C103.032 24.384 101.632 24.016 100.416 23.28C99.2161 22.544 98.2801 21.52 97.6081 20.208C96.9361 18.896 96.6001 17.368 96.6001 15.624C96.6001 13.88 96.9361 12.36 97.6081 11.064C98.2801 9.752 99.2161 8.728 100.416 7.992C101.632 7.256 103.032 6.888 104.616 6.888C106.392 6.888 107.92 7.336 109.2 8.232C110.496 9.112 111.424 10.328 111.984 11.88L109.056 12.96C108.704 11.984 108.144 11.224 107.376 10.68C106.624 10.136 105.704 9.864 104.616 9.864C103.624 9.864 102.752 10.096 102 10.56C101.264 11.024 100.696 11.688 100.296 12.552C99.9121 13.4 99.7201 14.424 99.7201 15.624C99.7201 16.824 99.9121 17.856 100.296 18.72C100.696 19.584 101.264 20.248 102 20.712C102.752 21.176 103.624 21.408 104.616 21.408C105.704 21.408 106.624 21.136 107.376 20.592C108.144 20.048 108.704 19.288 109.056 18.312L111.984 19.368C111.424 20.92 110.496 22.144 109.2 23.04C107.92 23.936 106.392 24.384 104.616 24.384ZM121.728 24L121.488 22.224V16.536C121.488 15.832 121.264 15.312 120.816 14.976C120.384 14.624 119.792 14.448 119.04 14.448C118.416 14.448 117.776 14.576 117.12 14.832C116.48 15.072 115.912 15.416 115.416 15.864L113.904 13.824C114.736 13.152 115.584 12.672 116.448 12.384C117.328 12.08 118.272 11.928 119.28 11.928C120.912 11.928 122.184 12.336 123.096 13.152C124.008 13.968 124.464 15.096 124.464 16.536V24H121.728ZM118.152 24.24C117.288 24.24 116.512 24.08 115.824 23.76C115.152 23.44 114.616 22.984 114.216 22.392C113.832 21.8 113.64 21.12 113.64 20.352C113.64 19.664 113.776 19.08 114.048 18.6C114.336 18.104 114.712 17.728 115.176 17.472C115.576 17.232 116.016 17.064 116.496 16.968C116.992 16.872 117.52 16.824 118.08 16.824H121.752V19.032H118.512C118.256 19.032 118 19.056 117.744 19.104C117.504 19.136 117.296 19.224 117.12 19.368C116.96 19.48 116.84 19.624 116.76 19.8C116.68 19.96 116.64 20.144 116.64 20.352C116.64 20.8 116.816 21.16 117.168 21.432C117.52 21.704 117.992 21.84 118.584 21.84C119.112 21.84 119.592 21.728 120.024 21.504C120.472 21.264 120.824 20.944 121.08 20.544C121.352 20.128 121.488 19.656 121.488 19.128L122.28 20.712C122.072 21.544 121.752 22.224 121.32 22.752C120.904 23.264 120.424 23.64 119.88 23.88C119.336 24.12 118.76 24.24 118.152 24.24ZM127.245 24V12.168H130.245V15.384L129.789 15.432C129.837 14.744 130.045 14.136 130.413 13.608C130.781 13.08 131.229 12.672 131.757 12.384C132.301 12.08 132.853 11.928 133.413 11.928C133.813 11.928 134.189 11.984 134.541 12.096C134.909 12.192 135.285 12.36 135.669 12.6L134.229 15.288C134.053 15.192 133.829 15.104 133.557 15.024C133.285 14.944 133.013 14.904 132.741 14.904C132.421 14.904 132.109 14.96 131.805 15.072C131.517 15.184 131.253 15.36 131.013 15.6C130.789 15.84 130.605 16.16 130.461 16.56C130.397 16.784 130.341 17.072 130.293 17.424C130.261 17.76 130.245 18.256 130.245 18.912V24H127.245ZM142.111 24.24C141.087 24.24 140.207 24.072 139.471 23.736C138.735 23.4 138.127 22.952 137.647 22.392C137.183 21.816 136.839 21.168 136.615 20.448C136.391 19.712 136.279 18.944 136.279 18.144C136.279 17.376 136.391 16.624 136.615 15.888C136.839 15.152 137.175 14.488 137.623 13.896C138.071 13.304 138.647 12.832 139.351 12.48C140.071 12.112 140.927 11.928 141.919 11.928C142.847 11.928 143.655 12.088 144.343 12.408C145.031 12.712 145.599 13.144 146.047 13.704C146.495 14.248 146.831 14.888 147.055 15.624C147.295 16.36 147.415 17.144 147.415 17.976C147.415 18.088 147.407 18.248 147.391 18.456C147.391 18.648 147.375 18.856 147.343 19.08H139.255C139.335 19.928 139.647 20.568 140.191 21C140.751 21.432 141.447 21.648 142.279 21.648C142.887 21.648 143.479 21.544 144.055 21.336C144.631 21.112 145.143 20.8 145.591 20.4L147.079 22.416C146.519 22.848 145.991 23.2 145.495 23.472C144.999 23.744 144.479 23.936 143.935 24.048C143.407 24.176 142.799 24.24 142.111 24.24ZM144.463 17.592C144.495 17.464 144.519 17.336 144.535 17.208C144.567 17.08 144.583 16.96 144.583 16.848C144.583 16.512 144.519 16.2 144.391 15.912C144.263 15.608 144.087 15.344 143.863 15.12C143.639 14.896 143.367 14.728 143.047 14.616C142.743 14.488 142.391 14.424 141.991 14.424C141.399 14.424 140.903 14.544 140.503 14.784C140.103 15.024 139.799 15.336 139.591 15.72C139.399 16.088 139.279 16.472 139.231 16.872H145.471L144.463 17.592Z" fill="white"/>
</svg>
