<svg width="48" height="43" viewBox="0 0 48 43" fill="none" xmlns="http://www.w3.org/2000/svg">
<path d="M23.2125 0.178125C22.6219 0.571875 22.5938 0.69375 22.5938 2.8125C22.5938 4.5375 22.6125 4.7625 22.7719 5.00625C23.0625 5.4375 23.4188 5.625 24 5.625C24.5813 5.625 24.9375 5.4375 25.2281 5.00625C25.3875 4.7625 25.4062 4.5375 25.4062 2.8125C25.4062 1.0875 25.3875 0.8625 25.2281 0.61875C24.9375 0.1875 24.5813 0 24 0C23.6531 0 23.4 0.0562496 23.2125 0.178125Z" fill="#17A2B8"/>
<path d="M12.0375 3.13214C11.5687 3.34776 11.2969 3.80714 11.2969 4.40714C11.2969 4.87589 11.3625 5.03526 12.0469 6.23526C12.4594 6.95714 12.9187 7.67901 13.0594 7.84776C13.9687 8.88839 15.7219 8.04464 15.5344 6.66651C15.4781 6.19776 13.9125 3.50714 13.5562 3.25401C13.2187 3.01026 12.4406 2.94464 12.0375 3.13214Z" fill="#17A2B8"/>
<path d="M34.6123 3.16026C34.2467 3.33839 34.1623 3.45089 33.2342 5.06339C32.8404 5.75714 32.4842 6.47901 32.4654 6.66651C32.2685 8.04464 34.031 8.88839 34.9404 7.84776C35.081 7.67901 35.5404 6.95714 35.9529 6.23526C36.6373 5.03526 36.7029 4.87589 36.7029 4.40714C36.7029 4.01339 36.6467 3.81651 36.4779 3.57276C36.0842 3.02901 35.2592 2.84151 34.6123 3.16026Z" fill="#17A2B8"/>
<path d="M19.875 8.62559C13.725 9.78809 7.3125 13.3693 1.75313 18.7506C0.15 20.2881 0 20.5037 0 21.1881C0 21.8725 0.15 22.0881 1.74375 23.6256C7.41563 29.1006 13.9875 32.7381 20.1469 33.7975C20.625 33.8818 21.0375 33.9287 21.0563 33.91C21.0844 33.8912 20.6719 33.7412 20.1562 33.5725C16.1625 32.3068 12.9938 29.1756 11.6813 25.2006C11.2406 23.8787 11.0625 22.7162 11.0625 21.1881C11.0625 19.0881 11.4938 17.2318 12.3844 15.46C14.0063 12.2256 16.9688 9.72246 20.2969 8.76621C20.7656 8.63496 21.1875 8.51308 21.2344 8.49434C21.4781 8.39121 20.6719 8.47559 19.875 8.62559Z" fill="#17A2B8"/>
<path d="M26.7658 8.49345C26.822 8.5122 27.2439 8.63407 27.7033 8.76532C31.7064 9.91845 35.1283 13.2934 36.3751 17.3434C36.7783 18.6466 36.9376 19.7341 36.9376 21.1872C36.9376 22.7153 36.7595 23.8778 36.3189 25.1997C35.0064 29.1747 31.8376 32.3059 27.8439 33.5716C27.3283 33.7403 26.9158 33.8903 26.9439 33.9091C27.0001 33.9747 28.6595 33.6653 29.8126 33.3747C35.3345 31.9872 41.2126 28.4997 46.2564 23.6247C47.8501 22.0872 48.0001 21.8716 48.0001 21.1872C48.0001 20.5028 47.8501 20.2872 46.2564 18.7497C40.6126 13.2934 34.022 9.64657 27.8908 8.5872C27.1126 8.44657 26.5408 8.3997 26.7658 8.49345Z" fill="#17A2B8"/>
<path d="M22.303 11.0539C21.328 11.2414 20.3343 11.5695 19.453 12.0008C16.6405 13.3977 14.5874 16.032 13.9593 19.0789C13.7343 20.1477 13.7249 22.0695 13.9312 23.157C14.6999 27.2258 17.9624 30.4883 22.0499 31.2664C23.0624 31.4633 24.9374 31.4633 25.9499 31.2664C30.0374 30.4883 33.2999 27.2258 34.0687 23.157C34.2749 22.0695 34.2655 20.1477 34.0405 19.0789C33.6655 17.2508 32.7843 15.582 31.5093 14.232C30.5155 13.182 29.728 12.5914 28.5468 12.0008C27.0655 11.2695 26.1374 11.0539 24.2812 11.0164C23.428 10.9977 22.5374 11.0164 22.303 11.0539ZM30.2812 17.2227C30.9562 17.6352 30.9843 17.7758 30.9843 20.2508C30.9843 22.2852 30.9655 22.482 30.7968 22.7633C30.5437 23.1945 30.1124 23.4383 29.6249 23.4383C28.903 23.4383 28.4062 22.9602 28.2655 22.1352L28.1999 21.7227L26.4937 23.4195C25.5655 24.3477 24.703 25.1539 24.5905 25.2102C24.328 25.3414 23.6718 25.3414 23.4093 25.2102C23.2968 25.1539 22.753 24.657 22.1999 24.1133L21.1874 23.1195L20.1749 24.1133C19.6218 24.6664 19.0499 25.1633 18.8999 25.2102C17.803 25.632 16.753 24.5727 17.1562 23.4664C17.2687 23.1664 20.1655 20.2133 20.5499 20.007C20.8499 19.8477 21.4968 19.8383 21.778 19.9789C21.8905 20.0352 22.4343 20.532 22.9968 21.0758L23.9999 22.0789L25.1249 20.9539L26.2593 19.8289L25.7905 19.7258C24.9843 19.5383 24.5624 19.0883 24.5624 18.3945C24.5624 17.7008 24.9468 17.232 25.6405 17.0539C25.7905 17.0164 26.8312 16.9883 27.9374 16.9977C29.8312 17.0164 29.9718 17.0258 30.2812 17.2227Z" fill="#F4C95D"/>
<path d="M13.65 34.067C13.4438 34.142 13.2094 34.2826 13.125 34.3764C13.0313 34.4701 12.5813 35.2014 12.1313 35.9983C11.3531 37.3483 11.2969 37.4795 11.2969 37.967C11.2969 38.8951 11.9438 39.4576 12.8906 39.3451C13.1156 39.3264 13.4156 39.2233 13.5656 39.1108C13.7156 39.0076 14.1938 38.2951 14.7 37.4233C15.4969 36.0451 15.5625 35.8951 15.5625 35.4264C15.5625 34.6014 15.1594 34.1233 14.3438 33.992C14.1562 33.9639 13.8563 33.992 13.65 34.067Z" fill="#17A2B8"/>
<path d="M33.3469 34.0688C32.6906 34.3126 32.4375 34.6876 32.4375 35.4376C32.4375 35.8688 32.5219 36.0563 33.3 37.4251C33.825 38.3157 34.2844 39.0001 34.4438 39.1219C34.8188 39.3844 35.5125 39.4407 35.9438 39.2344C36.4594 38.9907 36.7031 38.5876 36.7031 37.9688C36.7031 37.4907 36.6469 37.3407 36.0094 36.2344C34.9875 34.4626 34.9031 34.3313 34.6125 34.1813C34.2 33.9657 33.7313 33.9282 33.3469 34.0688Z" fill="#17A2B8"/>
<path d="M23.2125 36.8344C22.6219 37.2281 22.5938 37.35 22.5938 39.5156C22.5938 41.2875 22.6125 41.5125 22.7719 41.7562C23.0625 42.1875 23.4188 42.375 24 42.375C24.5813 42.375 24.9375 42.1875 25.2281 41.7562C25.3875 41.5125 25.4062 41.2875 25.4062 39.5156C25.4062 37.7437 25.3875 37.5187 25.2281 37.275C24.9375 36.8438 24.5813 36.6562 24 36.6562C23.6531 36.6562 23.4 36.7125 23.2125 36.8344Z" fill="#17A2B8"/>
</svg>
