<svg width="48" height="48" viewBox="0 0 48 48" fill="none" xmlns="http://www.w3.org/2000/svg">
<path d="M45.6944 0.271855C45.4975 0.421844 44.6631 1.21866 43.8475 2.03422L42.3662 3.53411L42.4693 4.4528C42.5256 4.95901 42.5818 5.39023 42.5912 5.3996C42.6006 5.40898 43.0318 5.46522 43.5381 5.53084L44.4662 5.64333L45.9663 4.15282C47.8882 2.24983 48.0007 2.09047 48.0007 1.41552C48.0007 0.506213 47.4944 4.76837e-07 46.585 4.76837e-07C46.1538 4.76837e-07 45.9944 0.0468717 45.6944 0.271855Z" fill="#F4C95D"/>
<path d="M36.0473 6.2862L32.5879 9.74532L32.841 12.2951C32.9816 13.7013 33.1129 14.8637 33.1223 14.8824C33.141 14.8918 34.3035 15.0231 35.7098 15.1637L38.2599 15.4168L41.7193 11.9577C43.6224 10.0547 45.1693 8.47978 45.1506 8.46104C45.1318 8.44229 44.1662 8.32979 43.0131 8.2173C39.9849 7.89858 40.1068 8.02044 39.7974 5.00192C39.6755 3.8395 39.563 2.87395 39.5443 2.8552C39.5255 2.83645 37.9505 4.38321 36.0473 6.2862Z" fill="#F4C95D"/>
<path d="M19.1722 4.61451C17.0253 4.84887 14.3909 5.60818 12.4221 6.55499C10.172 7.63304 8.41889 8.8517 6.61886 10.5953C4.65008 12.5077 3.37506 14.2419 2.20316 16.6417C0.656261 19.7915 0 22.6694 0 26.2879C0.00937516 29.8689 0.665636 32.7374 2.19379 35.8591C3.33756 38.1745 4.6032 39.9275 6.43136 41.7368C8.24076 43.5273 9.88142 44.6897 12.1408 45.8052C15.2065 47.3145 18.2159 47.9988 21.7504 47.9988C25.3129 47.9988 28.2286 47.3332 31.3599 45.8052C36.5631 43.2554 40.5944 38.6526 42.4038 33.1874C43.182 30.8438 43.5007 28.8471 43.5007 26.2504C43.5007 23.6631 43.182 21.657 42.4132 19.3415C42.0663 18.2916 41.3538 16.5667 41.2038 16.4168C41.1757 16.398 40.7632 16.7542 40.285 17.223C39.6194 17.8792 39.3382 18.0948 39.0757 18.1416C38.8881 18.1791 37.8944 18.1135 36.8631 18.0104C35.8318 17.8979 34.9412 17.8135 34.885 17.8135C34.8193 17.8135 34.9225 18.076 35.11 18.3947C35.935 19.8196 36.6006 21.5445 36.9569 23.2131C37.1444 24.1037 37.1725 24.4974 37.1725 26.2504C37.1725 28.0034 37.1444 28.3971 36.9569 29.2877C36.5069 31.3782 35.5881 33.5155 34.4256 35.156C33.6193 36.2997 31.8005 38.1183 30.6568 38.9245C26.1098 42.1399 20.1003 42.6367 15.0471 40.2181C11.3252 38.437 8.29701 35.006 7.03137 31.1344C6.44073 29.3158 6.32823 28.5659 6.32823 26.2504C6.32823 24.4224 6.35636 24.0193 6.54386 23.1944C7.04074 20.8977 7.97826 18.8166 9.30953 17.0073C10.0033 16.0605 11.8221 14.2982 12.844 13.5763C14.4659 12.4233 16.6128 11.5046 18.6659 11.064C20.0253 10.7641 22.5098 10.6984 23.9817 10.914C25.8004 11.1859 27.8255 11.8796 29.3442 12.7514C29.7755 13.0045 30.1505 13.192 30.1693 13.1733C30.188 13.1545 30.113 12.2546 30.0005 11.1671C29.888 10.0704 29.8317 9.04855 29.8692 8.87982C29.9068 8.67358 30.2068 8.29861 30.7786 7.7174C31.2474 7.23932 31.6037 6.82685 31.5849 6.79873C31.4349 6.64874 29.7099 5.93629 28.6599 5.58944C26.2879 4.802 24.3192 4.49264 21.6754 4.51139C20.7097 4.52076 19.5847 4.56763 19.1722 4.61451Z" fill="#17A2B8"/>
<path d="M19.5096 13.6475C17.372 14.0037 15.0751 15.1099 13.2844 16.6379C11.2125 18.4096 9.63751 21.2313 9.14063 24.0529C8.95312 25.1122 8.95312 27.3808 9.14063 28.4401C10.0688 33.7554 14.2313 37.9175 19.5471 38.8456C20.6252 39.0331 22.744 39.0425 23.8877 38.855C27.1784 38.3206 30.366 36.3052 32.2223 33.596C33.7785 31.318 34.5004 28.9838 34.5004 26.2465C34.5004 24.1467 34.0692 22.2906 33.1785 20.5188C32.7754 19.7033 31.9598 18.4377 31.7723 18.3159C31.7066 18.2784 30.966 18.9533 29.9535 19.9657L28.2378 21.6812L28.6878 22.5343C29.3441 23.7717 29.541 24.4842 29.5972 25.8341C29.6253 26.509 29.6066 27.2215 29.541 27.5964C29.0441 30.4181 26.9628 32.8273 24.2159 33.746C19.8002 35.2084 15.0657 32.5086 14.0157 27.9245C13.8188 27.0527 13.8095 25.4685 14.0063 24.6435C14.6626 21.8125 16.5751 19.6751 19.3127 18.7283C20.1752 18.4284 20.2502 18.419 21.7033 18.419C23.4659 18.419 24.0471 18.5596 25.4628 19.3095L26.3159 19.7595L28.0316 18.044C29.0441 17.0316 29.7191 16.291 29.6816 16.2254C29.5597 16.0379 28.2941 15.2223 27.4784 14.8193C26.4659 14.3037 25.0221 13.835 23.9159 13.6475C22.8284 13.46 20.6064 13.46 19.5096 13.6475Z" fill="#17A2B8"/>
<path d="M20.3536 21.2355C18.6379 21.7136 17.2504 23.1197 16.7348 24.8727C16.5285 25.5758 16.5285 26.9257 16.7348 27.6288C17.2504 29.4099 18.591 30.7504 20.3723 31.266C21.0755 31.4722 22.4255 31.4722 23.1286 31.266C24.9662 30.7317 26.4474 29.1849 26.8131 27.4038C26.9818 26.6163 26.8881 25.1071 26.6443 24.4696C26.5318 24.1884 26.4006 23.8884 26.3443 23.8134C26.2693 23.7009 25.8849 24.0384 24.4036 25.5102C23.3818 26.5226 22.4536 27.4038 22.3411 27.46C22.0505 27.61 21.413 27.5913 21.0848 27.4225C20.5317 27.1319 20.2505 26.2226 20.5411 25.6602C20.5973 25.5477 21.4786 24.6196 22.4911 23.5978C23.963 22.1167 24.3005 21.7323 24.188 21.6573C24.113 21.6011 23.813 21.4699 23.5318 21.3667C22.8474 21.0949 21.1036 21.0293 20.3536 21.2355Z" fill="#17A2B8"/>
</svg>
